<svg xmlns="http://www.w3.org/2000/svg" width="105" height="20" viewBox="0 0 105 20" fill="none">
<g clip-path="url(#clip0_0_5266)">
<path d="M19.6429 0H0V20H19.6429V0Z" fill="#00B67A"/>
<path d="M40.9226 0H21.2798V20H40.9226V0Z" fill="#00B67A"/>
<path d="M62.2024 0H42.5596V20H62.2024V0Z" fill="#00B67A"/>
<path d="M83.4827 0H63.8398V20H83.4827V0Z" fill="#00B67A"/>
<path d="M104.763 0H85.1201V20H104.763V0Z" fill="#00B67A"/>
<path d="M9.82129 13.4792L12.8086 12.7083L14.0568 16.625L9.82129 13.4792ZM16.6963 8.41667H11.4377L9.82129 3.375L8.20485 8.41667H2.94629L7.20224 11.5417L5.5858 16.5833L9.84175 13.4583L12.4608 11.5417L16.6963 8.41667Z" fill="white"/>
<path d="M31.1011 13.4792L34.0884 12.7083L35.3366 16.625L31.1011 13.4792ZM37.9761 8.41667H32.7175L31.1011 3.375L29.4846 8.41667H24.2261L28.482 11.5417L26.8656 16.5833L31.1215 13.4583L33.7406 11.5417L37.9761 8.41667Z" fill="white"/>
<path d="M52.3809 13.4792L55.3682 12.7083L56.6164 16.625L52.3809 13.4792ZM59.2559 8.41667H53.9973L52.3809 3.375L50.7644 8.41667H45.5059L49.7618 11.5417L48.1454 16.5833L52.4013 13.4583L55.0204 11.5417L59.2559 8.41667Z" fill="white"/>
<path d="M73.6606 13.4792L76.648 12.7083L77.8961 16.625L73.6606 13.4792ZM80.5356 8.41667H75.2771L73.6606 3.375L72.0442 8.41667H66.7856L71.0416 11.5417L69.4252 16.5833L73.6811 13.4583L76.3002 11.5417L80.5356 8.41667Z" fill="white"/>
<path d="M94.9404 13.4792L97.9278 12.7083L99.1759 16.625L94.9404 13.4792ZM101.815 8.41667H96.5569L94.9404 3.375L93.324 8.41667H88.0654L92.3214 11.5417L90.7049 16.5833L94.9609 13.4583L97.5799 11.5417L101.815 8.41667Z" fill="white"/>
</g>
<defs>
<clipPath id="clip0_0_5266">
<rect width="104.762" height="20" fill="white"/>
</clipPath>
</defs>
</svg>