<svg width="151" height="28" viewBox="0 0 151 28" fill="none" xmlns="http://www.w3.org/2000/svg">
<g id="Group 20">
<path id="Vector" fill-rule="evenodd" clip-rule="evenodd" d="M94.1968 9.54612C94.1968 12.2525 92.6502 14.4242 90.1799 15.3969L93.1316 19.2746C93.5454 19.8255 93.7691 20.3686 93.7691 20.872C93.7691 21.5196 93.5379 22.081 93.13 22.481C92.7223 22.881 92.1498 23.1077 91.4895 23.1077C90.7068 23.1077 90.0812 22.765 89.5927 22.1363L89.5918 22.1351L85.145 16.2282H82.4491V20.7601C82.4491 22.1259 81.448 23.1077 80.0555 23.1077C78.6898 23.1077 77.6905 22.1241 77.6905 20.7601V5.32338C77.6905 3.98566 78.6915 3.00383 80.0555 3.00383H86.8132C88.9915 3.00383 90.7521 3.60327 92.1347 4.81503C93.5209 6.02995 94.1968 7.62273 94.1968 9.54612ZM111.414 21.7094C113.145 21.7094 114.565 21.2226 115.633 20.2361C115.597 21.4079 115.196 22.3057 114.503 22.9197C113.774 23.5665 112.693 23.9218 111.3 23.9218C109.939 23.9218 108.574 23.5681 107.171 22.853L107.166 22.85L107.16 22.8474C106.7 22.6503 106.297 22.5235 105.968 22.5235C105.422 22.5235 104.956 22.708 104.625 23.04C104.295 23.3714 104.116 23.8352 104.116 24.3677C104.116 25.0924 104.508 25.6806 105.237 26.0993C106.958 27.1853 109.107 27.7219 111.642 27.7219C114.334 27.7219 116.445 26.9542 117.945 25.3959C119.441 23.8424 120.195 21.7494 120.195 19.1661V10.0774C120.195 9.4717 119.978 8.94572 119.599 8.57057C119.221 8.19534 118.691 7.98163 118.086 7.98163C117.063 7.98163 116.28 8.60887 116.044 9.5305C114.849 8.41172 113.349 7.8418 111.557 7.8418C109.374 7.8418 107.555 8.49995 106.116 9.85338L106.115 9.85415L106.115 9.85479C104.707 11.2068 104.002 12.8793 104.002 14.8595C104.002 16.7592 104.709 18.3756 106.145 19.7257L106.145 19.7265L106.146 19.7272C107.582 21.0495 109.342 21.7094 111.414 21.7094ZM115.778 14.8874C115.778 15.7815 115.433 16.5415 114.73 17.1775C114.058 17.7846 113.194 18.105 112.155 18.105C111.119 18.105 110.255 17.7859 109.552 17.1777C108.878 16.5413 108.533 15.781 108.533 14.8874C108.533 13.9921 108.879 13.2325 109.552 12.6253L109.553 12.6252C110.254 11.9896 111.118 11.6699 112.155 11.6699C113.194 11.6699 114.055 11.99 114.727 12.6225L114.73 12.6253L114.733 12.6279C115.432 13.2346 115.778 13.9926 115.778 14.8874ZM146.288 17.4323V11.8097H149.142C149.688 11.8097 150.154 11.6253 150.484 11.2933C150.815 10.9618 150.994 10.4981 150.994 9.96558C150.994 9.43307 150.815 8.96943 150.484 8.63794C150.154 8.30595 149.688 8.12145 149.142 8.12145H146.288V6.74961C146.288 6.10365 146.066 5.54863 145.664 5.1546C145.262 4.76057 144.697 4.54191 144.038 4.54191C143.38 4.54191 142.808 4.76035 142.399 5.15326C141.989 5.54653 141.758 6.10171 141.758 6.74961V8.12145H140.787C140.229 8.12145 139.756 8.30498 139.42 8.63709C139.086 8.96884 138.907 9.433 138.907 9.96558C138.907 10.4982 139.086 10.9623 139.42 11.2941C139.756 11.6262 140.229 11.8097 140.787 11.8097H141.758V18.4669C141.758 19.9625 142.236 21.1641 143.117 21.9911C143.996 22.817 145.254 23.2475 146.775 23.2475C147.705 23.2475 148.578 23.1335 149.396 22.9044L149.402 22.9026L149.409 22.9003C149.905 22.7233 150.296 22.467 150.564 22.1265C150.833 21.7845 150.965 21.3709 150.965 20.9C150.965 20.3395 150.778 19.8656 150.423 19.5324C150.068 19.2003 149.565 19.0278 148.971 19.0278C148.932 19.0278 148.862 19.0377 148.796 19.0467L148.792 19.0472L148.741 19.0543V19.0544C148.676 19.0637 148.598 19.0745 148.514 19.0854C148.298 19.1132 148.044 19.1397 147.83 19.1397C147.282 19.1397 146.91 18.9901 146.67 18.7259C146.427 18.4574 146.288 18.0369 146.288 17.4323ZM82.4491 6.99974H86.2716C87.2738 6.99974 88.0637 7.28881 88.6008 7.77035C89.1363 8.25048 89.4381 8.93735 89.4381 9.76984C89.4381 10.6023 89.1363 11.2892 88.6008 11.7693C88.0637 12.2508 87.2738 12.54 86.2716 12.54H82.4491V6.99974ZM99.2575 6.88788C100.815 6.88788 101.936 5.82815 101.936 4.3446C101.936 2.89053 100.816 1.80133 99.2575 1.80133C97.6716 1.80133 96.5503 2.88906 96.5503 4.3446C96.5503 5.07908 96.8264 5.71812 97.3098 6.17312C97.7927 6.62765 98.4709 6.88788 99.2575 6.88788ZM99.2575 7.98163C98.5822 7.98163 98.0025 8.21582 97.5913 8.62293C97.1804 9.02979 96.9495 9.59787 96.9495 10.2453V20.8441C96.9495 21.4915 97.1804 22.0596 97.5913 22.4663C98.0025 22.8735 98.5822 23.1077 99.2575 23.1077C99.9197 23.1077 100.492 22.8726 100.899 22.4657C101.306 22.059 101.537 21.4913 101.537 20.8441V10.2453C101.537 9.59792 101.306 9.03024 100.899 8.6236C100.492 8.21664 99.9197 7.98163 99.2575 7.98163ZM132.156 7.8418C130.315 7.8418 128.837 8.46831 127.763 9.744V5.0717C127.763 3.81787 126.79 2.864 125.512 2.864C124.853 2.864 124.281 3.08245 123.873 3.47536C123.464 3.86863 123.232 4.4238 123.232 5.0717V20.872C123.232 21.5196 123.463 22.081 123.871 22.481C124.279 22.881 124.851 23.1077 125.512 23.1077C126.172 23.1077 126.738 22.8807 127.139 22.4796C127.54 22.079 127.763 21.5177 127.763 20.872V15.2243C127.777 14.1271 128.093 13.3186 128.601 12.7863C129.106 12.2552 129.82 11.9776 130.673 11.9776C131.478 11.9776 132.14 12.2525 132.604 12.7865C133.07 13.3245 133.355 14.1481 133.355 15.2789V20.872C133.355 21.5177 133.578 22.079 133.979 22.4796C134.379 22.8807 134.945 23.1077 135.605 23.1077C136.266 23.1077 136.839 22.881 137.246 22.481C137.654 22.081 137.885 21.5196 137.885 20.872V13.9646C137.885 12.0813 137.331 10.5731 136.232 9.49363C135.138 8.39248 133.775 7.8418 132.156 7.8418ZM46.925 3.44343C47.4602 3.83331 47.8785 4.41095 48.1876 5.16113L54.3185 19.3966L54.3195 19.3992C54.5218 19.9093 54.6467 20.3558 54.6467 20.7559C54.6467 21.4307 54.409 22.0196 53.9875 22.4405C53.5659 22.862 52.9717 23.1035 52.2816 23.1035C51.7185 23.1035 51.2324 22.9609 50.8321 22.6617C50.4346 22.3644 50.1381 21.9246 49.9296 21.3565L48.8976 18.8528H40.8108L39.8064 21.329L39.8059 21.33C39.584 21.8956 39.2891 22.3401 38.909 22.6438C38.5253 22.9503 38.0668 23.1035 37.54 23.1035C36.2082 23.1035 35.2319 22.1531 35.2319 20.8957C35.2319 20.5488 35.359 20.1277 35.5591 19.6229L35.5601 19.6202L41.8064 5.15812L41.8071 5.15674C42.1447 4.40801 42.577 3.83189 43.1145 3.44303C43.6543 3.05255 44.2881 2.8598 45.0106 2.8598C45.7461 2.8598 46.3877 3.05196 46.925 3.44343ZM42.2501 15.0806L44.8671 8.53787L47.4586 15.0806H42.2501ZM58.7936 2.8598C58.1203 2.8598 57.5407 3.08572 57.1288 3.48581C56.7169 3.88598 56.4857 4.44779 56.4857 5.09547V20.8398C56.4857 21.4872 56.7166 22.0553 57.1275 22.4621C57.5386 22.8693 58.1184 23.1035 58.7936 23.1035C59.4559 23.1035 60.0285 22.8684 60.4356 22.4615C60.8422 22.0548 61.0732 21.4872 61.0732 20.8398V5.09547C61.0732 4.44785 60.842 3.88643 60.4342 3.48647C60.0264 3.08651 59.4539 2.8598 58.7936 2.8598ZM66.7017 2.8598C66.0284 2.8598 65.4488 3.08572 65.0369 3.48581C64.625 3.88598 64.3938 4.44779 64.3938 5.09547V20.8398C64.3938 21.4872 64.6247 22.0553 65.0356 22.4621C65.4467 22.8693 66.0265 23.1035 66.7017 23.1035C67.364 23.1035 67.9366 22.8684 68.3437 22.4615C68.7503 22.0548 68.9813 21.4872 68.9813 20.8398V5.09547C68.9813 4.44785 68.7501 3.88643 68.3424 3.48647C67.9345 3.08651 67.362 2.8598 66.7017 2.8598Z" fill="#823CDC"/>
<g id="Group">
<path id="Vector_2" fill-rule="evenodd" clip-rule="evenodd" d="M11.6225 23.8775C11.0735 22.8346 11.4886 21.5517 12.55 21.012C14.9406 19.7966 19.355 17.1517 22.6192 14.1184C24.2622 12.5915 25.4661 11.1005 26.0504 9.77072C26.6003 8.51926 26.5405 7.60156 26.0007 6.78641C24.942 5.18735 22.5641 4.35148 20.2463 5.02436C18.1415 5.63544 15.9311 7.60329 15.7058 11.9959C15.694 12.2251 15.6582 12.7543 15.3772 13.2693C15.2151 13.5663 14.8994 13.9895 14.335 14.2556C13.7434 14.5347 13.1634 14.5078 12.746 14.3981C12.0796 14.2228 11.6481 13.7945 11.5197 13.6671L11.517 13.6644C11.3181 13.4669 11.139 13.2459 10.994 13.0566C10.7289 12.7103 10.4243 12.2647 10.1263 11.829C10.0979 11.7874 10.0695 11.7459 10.0412 11.7046C9.69987 11.2058 9.33546 10.6769 8.94027 10.1477C8.12526 9.05631 7.29659 8.12704 6.49899 7.57909C5.74202 7.05907 5.32619 7.07444 5.00664 7.20167C4.52681 7.39271 4.418 7.60476 4.3636 7.85197C4.27844 8.23888 4.32027 8.9579 4.76991 10.0406C5.66084 12.1857 7.80473 14.9096 10.8165 17.3234C11.7426 18.0655 11.881 19.4049 11.1257 20.3148C10.3705 21.2249 9.00747 21.3609 8.08139 20.6188C4.70955 17.9164 2.01118 14.6523 0.763199 11.6474C0.143367 10.155 -0.208443 8.50844 0.13384 6.95314C0.506868 5.25813 1.64656 3.95127 3.38153 3.26048C5.55602 2.3947 7.53765 3.10403 8.97858 4.09394C10.2876 4.99322 11.3951 6.27236 12.2535 7.39886C13.5338 3.97824 16.0648 1.80422 19.0201 0.946213C22.8736 -0.17255 27.3643 1.04831 29.6281 4.46734C31.1634 6.78616 30.9808 9.27769 30.0234 11.4565C29.1004 13.5569 27.4124 15.5169 25.5926 17.2081C21.931 20.6106 17.1353 23.4686 14.5387 24.7889C13.4774 25.3285 12.1718 24.9205 11.6225 23.8775Z" fill="#FE8B21"/>
</g>
</g>
</svg>
