<svg width="28" height="28" viewBox="0 0 28 28" fill="none" xmlns="http://www.w3.org/2000/svg">
<g id="arrow.backward">
<path id="arrow.backward_2" d="M0.676758 13.6445C0.676758 13.9082 0.791016 14.1719 0.993164 14.3652L6.79395 20.1572C7.00488 20.3594 7.2334 20.4561 7.48828 20.4561C8.04199 20.4561 8.44629 20.0605 8.44629 19.5244C8.44629 19.2432 8.34082 19.0059 8.15625 18.8301L6.17871 16.8262L3.62988 14.4971L5.67773 14.6201H16.3301C16.9102 14.6201 17.3145 14.2158 17.3145 13.6445C17.3145 13.0645 16.9102 12.6602 16.3301 12.6602H5.67773L3.63867 12.7832L6.17871 10.4541L8.15625 8.4502C8.34082 8.27441 8.44629 8.03711 8.44629 7.75586C8.44629 7.21973 8.04199 6.82422 7.48828 6.82422C7.2334 6.82422 6.99609 6.9209 6.76758 7.14062L0.993164 12.915C0.791016 13.1084 0.676758 13.3721 0.676758 13.6445Z" fill="#6D5C70"/>
</g>
</svg>
