<svg width="24" height="24" viewBox="0 0 24 24" fill="none" xmlns="http://www.w3.org/2000/svg">
<g id="Icon/chevron down">
<path id="Vector" d="M12.0008 12.5254L15.9008 8.62539C16.0841 8.44206 16.3174 8.35039 16.6008 8.35039C16.8841 8.35039 17.1174 8.44206 17.3008 8.62539C17.4841 8.80872 17.5758 9.04206 17.5758 9.32539C17.5758 9.60872 17.4841 9.84206 17.3008 10.0254L12.7008 14.6254C12.6008 14.7254 12.4924 14.7961 12.3758 14.8374C12.2591 14.8787 12.1341 14.8997 12.0008 14.9004C11.8674 14.9004 11.7424 14.8794 11.6258 14.8374C11.5091 14.7954 11.4008 14.7247 11.3008 14.6254L6.70078 10.0254C6.51745 9.84206 6.42578 9.60872 6.42578 9.32539C6.42578 9.04206 6.51745 8.80872 6.70078 8.62539C6.88411 8.44206 7.11745 8.35039 7.40078 8.35039C7.68411 8.35039 7.91745 8.44206 8.10078 8.62539L12.0008 12.5254Z" fill="#6D5C70"/>
</g>
</svg>
