<svg width="20" height="20" viewBox="0 0 20 20" fill="none" xmlns="http://www.w3.org/2000/svg">
<g id="Icon/Edit">
<path id="Vector" d="M4.16667 15.8327H5.33334L12.5208 8.64518L11.3542 7.47852L4.16667 14.666V15.8327ZM16.0833 7.43685L12.5417 3.93685L13.7083 2.77018C14.0278 2.45074 14.4203 2.29102 14.8858 2.29102C15.3514 2.29102 15.7436 2.45074 16.0625 2.77018L17.2292 3.93685C17.5486 4.25629 17.7153 4.64185 17.7292 5.09352C17.7431 5.54518 17.5903 5.93046 17.2708 6.24935L16.0833 7.43685ZM3.33334 17.4993C3.09723 17.4993 2.89917 17.4193 2.73917 17.2593C2.57917 17.0993 2.49945 16.9016 2.5 16.666V14.3118C2.5 14.2007 2.52084 14.093 2.5625 13.9885C2.60417 13.8841 2.66667 13.7905 2.75 13.7077L11.3333 5.12435L14.875 8.66602L6.29167 17.2493C6.20834 17.3327 6.11473 17.3952 6.01084 17.4368C5.90695 17.4785 5.79917 17.4993 5.6875 17.4993H3.33334ZM11.9375 8.06185L11.3542 7.47852L12.5208 8.64518L11.9375 8.06185Z" fill="#6D5C70"/>
</g>
</svg>
