<svg width="24" height="24" viewBox="0 0 24 24" fill="none" xmlns="http://www.w3.org/2000/svg">
<g id="material-symbols:shield-lock-rounded">
<path id="Vector" d="M10 16.0004H14C14.2833 16.0004 14.521 15.9044 14.713 15.7124C14.905 15.5204 15.0007 15.2831 15 15.0004V12.0004C15 11.7171 14.904 11.4794 14.712 11.2874C14.52 11.0954 14.2827 10.9997 14 11.0004V10.0004C14 9.45039 13.804 8.97939 13.412 8.58739C13.02 8.19539 12.5493 7.99972 12 8.00039C11.45 8.00039 10.979 8.19639 10.587 8.58839C10.195 8.98039 9.99933 9.45106 10 10.0004V11.0004C9.71667 11.0004 9.479 11.0964 9.287 11.2884C9.095 11.4804 8.99933 11.7177 9 12.0004V15.0004C9 15.2837 9.096 15.5214 9.288 15.7134C9.48 15.9054 9.71733 16.0011 10 16.0004ZM11 11.0004V10.0004C11 9.71706 11.096 9.47939 11.288 9.28739C11.48 9.09539 11.7173 8.99972 12 9.00039C12.2833 9.00039 12.521 9.09639 12.713 9.28839C12.905 9.48039 13.0007 9.71772 13 10.0004V11.0004H11ZM12 21.9004C11.8833 21.9004 11.775 21.8921 11.675 21.8754C11.575 21.8587 11.475 21.8337 11.375 21.8004C9.125 21.0504 7.33333 19.6627 6 17.6374C4.66667 15.6121 4 13.4331 4 11.1004V6.37539C4 5.95872 4.121 5.58372 4.363 5.25039C4.605 4.91706 4.91733 4.67539 5.3 4.52539L11.3 2.27539C11.5333 2.19206 11.7667 2.15039 12 2.15039C12.2333 2.15039 12.4667 2.19206 12.7 2.27539L18.7 4.52539C19.0833 4.67539 19.396 4.91706 19.638 5.25039C19.88 5.58372 20.0007 5.95872 20 6.37539V11.1004C20 13.4337 19.3333 15.6131 18 17.6384C16.6667 19.6637 14.875 21.0511 12.625 21.8004C12.525 21.8337 12.425 21.8587 12.325 21.8754C12.225 21.8921 12.1167 21.9004 12 21.9004Z" fill="#17B22B"/>
</g>
</svg>
