<svg width="200" height="201" viewBox="0 0 200 201" fill="none" xmlns="http://www.w3.org/2000/svg">
<mask id="mask0_0_1942" style="mask-type:alpha" maskUnits="userSpaceOnUse" x="0" y="1" width="199" height="199">
<circle cx="99.5077" cy="100.261" r="99.1454" fill="#D9D9D9"/>
</mask>
<g mask="url(#mask0_0_1942)">
<rect x="-125.225" y="-98.6406" width="409.475" height="320.687" fill="#823CDC"/>
<path fill-rule="evenodd" clip-rule="evenodd" d="M127.571 134.025C129.522 132.652 135.293 130.041 141.654 126.419C147.671 121.811 152.916 117.056 153.874 116.004C155.609 114.123 169.324 120.268 161.941 127.763C156.52 136.215 140.568 147.483 138.622 148.692C128.663 154.896 121.461 154.574 118.68 149.545C116.396 145.409 118.4 140.497 127.565 134.031L127.571 134.025Z" fill="#FFB400"/>
<path fill-rule="evenodd" clip-rule="evenodd" d="M159.16 122.81C158.588 121.595 158.261 120.275 158.196 118.931C157.367 118.756 156.561 118.481 155.801 118.102C157.478 120.496 157.904 122.915 159.166 122.804" fill="#F78F0A"/>
<path fill-rule="evenodd" clip-rule="evenodd" d="M114.445 135.831C106.419 136.783 116.764 158.139 126.571 156.509C131.25 155.685 135.433 154.815 142.343 147.496C142.343 147.496 142.471 142.338 139.475 137.32C138.079 134.978 134.72 134.043 132.676 130.953C132.676 130.953 125.719 134.493 114.451 135.836L114.445 135.831Z" fill="#F8DEAD"/>
<path d="M143.938 146.214L141.158 148.778C141.158 148.778 141.012 144.747 137.828 138.778C134.645 132.808 130.439 131.902 130.439 131.902L133.81 130.039C133.81 130.039 137.507 130.886 140.959 136.155C144.411 141.424 143.932 146.214 143.932 146.214H143.938Z" fill="#ED7155"/>
<path fill-rule="evenodd" clip-rule="evenodd" d="M20.7465 172.838C21.8797 173.977 24.1345 176.576 26.5703 181.115C28.8951 185.432 32.7387 189.643 37.4643 193.02C37.5169 193.061 37.5636 193.078 37.6103 193.125C45.1456 198.452 54.8772 201.676 64.3693 200.023C78.3417 197.588 87.0977 188.861 88.745 187.067C88.9378 186.869 89.0195 186.77 89.0195 186.77L84.1829 176.904L81.7354 171.915L79.7903 167.937C75.6722 164.07 70.6253 161.927 65.3389 160.034C65.263 159.993 65.1695 159.981 65.0994 159.94C63.6391 159.409 62.1613 158.924 60.6776 158.398C60.2453 158.246 59.8364 158.095 59.41 157.949C55.5606 156.564 51.6995 155.045 48.1305 152.832C44.3862 150.542 41.1794 147.481 38.7202 143.848C31.2959 132.983 27.2946 122.352 25.6766 116.102C25.2735 114.536 24.4441 114.489 23.8833 116.014C22.8669 118.771 22.1251 121.622 21.6753 124.525C19.8762 135.81 22.2127 146.301 23.7431 149.455C23.3751 148.906 23.0538 148.375 22.7559 147.867C21.9148 146.447 21.1846 144.975 20.5654 143.445C20.5421 143.398 20.5362 143.351 20.507 143.31C20.0514 142.241 19.549 142.341 19.3913 143.585C19.368 143.842 19.3212 144.128 19.2979 144.42C18.7196 149.829 18.521 161.401 24.8588 174.579C23.8424 173.457 22.5164 172.663 21.0503 172.289C20.4603 172.131 20.3142 172.377 20.7465 172.832" fill="#F78F0A"/>
<path fill-rule="evenodd" clip-rule="evenodd" d="M23.7674 149.45C23.3994 148.901 23.0781 148.369 22.7802 147.861C24.4976 152.686 26.688 157.084 29.4627 160.104C41.1803 172.914 50.9703 163.416 56.8174 161.086C59.5395 160.005 62.7113 159.865 65.3457 160.046C65.2698 160.005 65.1763 159.993 65.1062 159.952C63.6459 159.421 62.1681 158.936 60.6844 158.41C60.2521 158.258 59.8432 158.107 59.4168 157.961C55.5674 156.576 51.7063 155.057 48.1373 152.844C44.393 150.554 41.1861 147.493 38.7269 143.86C31.3026 132.995 27.3014 122.364 25.6833 116.114C25.2803 114.548 24.4508 114.496 23.8901 116.026C22.8737 118.783 22.1318 121.634 21.682 124.543C19.9063 135.822 22.2311 146.307 23.7732 149.456" fill="#FFA400"/>
<path fill-rule="evenodd" clip-rule="evenodd" d="M20.7449 172.837C21.8781 173.976 24.1328 176.575 26.5687 181.114C28.8935 185.43 32.7371 189.642 37.4627 193.018C33.771 185.319 32.5093 178.888 32.591 173.637C32.7079 165.903 35.7804 160.634 38.555 157.346C41.3296 154.057 45.2667 153.064 48.123 152.859C44.3788 150.57 41.1719 147.509 38.7127 143.876C31.2884 133.017 27.2872 122.38 25.6691 116.129C25.2661 114.558 24.4366 114.511 23.8758 116.042C18.6596 130.113 21.8372 145.546 23.7357 149.477C22.4798 147.585 21.4167 145.569 20.558 143.472C20.0673 142.257 19.5358 142.328 19.3839 143.613C19.3372 143.887 19.3079 144.168 19.2904 144.448C19.232 144.874 19.197 145.318 19.1678 145.809C19.1561 145.973 19.1444 146.136 19.1385 146.323C19.121 146.44 19.1327 146.557 19.121 146.673C19.1152 146.884 19.086 147.071 19.0801 147.304C19.0334 148.449 19.0042 149.746 19.0451 151.165C19.0451 151.399 19.0568 151.633 19.0743 151.861C19.4423 159.758 21.405 167.498 24.8572 174.612C23.8349 173.497 22.5148 172.702 21.0487 172.323C20.4587 172.142 20.3126 172.387 20.7449 172.837Z" fill="#FFE2A4"/>
<path fill-rule="evenodd" clip-rule="evenodd" d="M37.4701 193.018C45.0112 198.392 54.8129 201.681 64.3692 199.998C79.9304 197.271 89.0078 186.739 89.0078 186.739L84.1712 176.873C81.5543 180.962 72.109 189.25 60.5374 189.052C52.5874 188.912 41.7927 186.33 32.5868 173.613C32.5167 178.888 33.8076 185.302 37.4701 193.018Z" fill="#D46A00"/>
<path fill-rule="evenodd" clip-rule="evenodd" d="M20.7471 172.838C21.8803 173.977 24.135 176.576 26.5708 181.115C28.8957 185.432 32.7392 189.643 37.4648 193.02C33.7731 185.321 32.5114 178.889 32.5932 173.638C27.4704 166.559 22.8441 157.055 19.2926 144.449C19.2342 144.876 19.1991 145.32 19.1699 145.81C19.1582 145.968 19.1465 146.137 19.1407 146.324C19.1232 146.441 19.1349 146.558 19.1232 146.675C19.1173 146.885 19.0881 147.072 19.0823 147.306C19.0356 148.451 19.0064 149.747 19.0473 151.167C19.0473 151.4 19.0589 151.628 19.0765 151.862C19.4386 159.759 21.4071 167.499 24.8535 174.614C23.8313 173.498 22.5111 172.704 21.045 172.324C20.455 172.143 20.309 172.388 20.7412 172.838" fill="#FFCD7C"/>
<path fill-rule="evenodd" clip-rule="evenodd" d="M96.5185 208.497C96.8222 209.771 100.292 209.245 101.595 209.076C107.71 208.275 122.781 198.082 122.991 193.801C122.991 193.801 99.0886 196.342 96.3199 196.289C96.2907 198.357 96.5185 208.503 96.5185 208.503V208.497Z" fill="#3D3D3F"/>
<path fill-rule="evenodd" clip-rule="evenodd" d="M137.594 207.656C137.594 207.656 125.537 190.238 120.321 187.749C115.105 185.261 110.157 200.244 111.857 205.378C113.557 210.513 124.591 215.589 127.821 218.842C130.1 221.138 132.646 220.461 136.11 217.324C140.333 213.492 139.878 209.952 137.6 207.656H137.594Z" fill="#FFB400"/>
<path fill-rule="evenodd" clip-rule="evenodd" d="M120.239 187.571C121.827 188.33 125.613 192.285 127.932 194.89C127.692 197.688 127.009 200.825 125.665 204.295C124.333 207.741 122.085 210.854 119.485 213.571C116.611 211.497 114.088 209.266 113.34 207.023C111.64 201.888 115.017 185.077 120.233 187.571H120.239Z" fill="#FDA200"/>
<path fill-rule="evenodd" clip-rule="evenodd" d="M55.0116 222.615C53.8317 222.083 51.3667 221.721 49.9122 221.78C49.696 221.797 49.4682 221.815 49.2521 221.844C47.4588 222.031 45.7882 222.849 44.5323 224.145C43.9307 223.17 43.4225 222.142 43.0194 221.067C41.4189 216.82 41.0159 212.223 41.8454 207.761C42.3127 205.588 43.1538 203.812 44.3629 202.795L44.655 202.568C49.2521 199.337 51.4718 202.065 53.7674 204.127C53.9427 204.279 54.1354 204.443 54.3632 204.6C54.7721 204.892 55.2044 205.161 55.6425 205.401C56.7173 205.991 61.1859 207.854 61.1859 207.854C61.1859 207.854 69.6265 210.547 74.5391 215.074C72.5939 219.461 70.5027 223.801 68.9372 228.31C63.5048 227.545 57.354 223.661 55.0116 222.609V222.615Z" fill="#FFB400"/>
<path fill-rule="evenodd" clip-rule="evenodd" d="M61.5166 205.266L65.4945 205.009C65.4945 205.009 67.0308 200.622 67.5098 199.711C69.5717 195.785 74.4025 186.831 76.6748 184.862C78.1176 183.612 81.745 181.334 86.5699 184.488C100.531 193.63 104.736 201.568 104.736 201.568C104.736 201.568 98.895 219.162 75.8219 230.278C75.2553 230.553 74.6245 230.681 73.9936 230.675L65.8976 230.529C65.8976 230.529 63.269 230.985 62.5622 230.366C57.1181 223.461 61.1895 221.247 58.8296 215.552C58.0936 213.946 61.5166 205.266 61.5166 205.266Z" fill="#F44D37"/>
<path fill-rule="evenodd" clip-rule="evenodd" d="M100.418 205.92L126.85 183.898C127.738 184.722 137.2 189.705 142.551 198.642C143.27 200.575 145.822 203.443 145.454 211.306C143.503 219.034 140.67 225.699 140.67 225.699C140.67 225.699 131.435 227.807 126.698 227.93C121.283 228.07 116.259 226.633 116.259 226.633L116.587 212.527L100.412 205.92H100.418Z" fill="#F78F0A"/>
<path fill-rule="evenodd" clip-rule="evenodd" d="M111.602 127.9L112.157 136.556L115.055 144.524C115.055 144.524 98.2434 152.702 87.5072 137.561L88.7514 126.387L111.608 127.9H111.602Z" fill="#F78F0A"/>
<path fill-rule="evenodd" clip-rule="evenodd" d="M91.4774 211.25C92.7216 211.641 104.977 209.848 107.926 208.966C119.288 205.56 129.551 190.18 130.229 185.975C130.229 185.975 94.8536 187.406 74.9641 187.476C77.0202 187.47 71.3717 204.924 91.4774 211.256V211.25Z" fill="#F78F0A"/>
<path fill-rule="evenodd" clip-rule="evenodd" d="M87.7869 134.025C87.7869 134.025 85.1174 133.89 83.6045 134.79C82.5531 135.415 77.6172 137.243 74.6732 142.092C72.0037 146.449 78.581 157.308 80.754 169.265C82.705 180.001 74.4863 183.308 76.3555 185.457C90.6141 201.883 134.523 195.452 134.546 184.201C134.593 160.994 130.802 157.366 126.976 150.129C125.837 147.974 118.752 139.06 118.203 138.511C115.907 136.221 113.64 135.362 112.572 135.059C112.303 134.983 112.022 135.187 112.028 135.467C112.052 136.484 111.386 138.604 105.761 139.323C94.4284 140.777 88.2484 134.346 88.2484 134.346" fill="#FFF4D5"/>
<path fill-rule="evenodd" clip-rule="evenodd" d="M116.346 160.71C116.346 160.71 108.647 158.858 99.5111 163.344C102.099 159.524 108.629 154.676 112.718 154.863C111.451 155.715 110.446 156.901 109.821 158.297C112.561 158.379 115.902 160.015 116.352 160.71" fill="#F8DEAD"/>
<path d="M62.2763 157.592C59.8487 152.57 59.1639 147.879 60.7468 147.114C62.3298 146.349 65.581 149.799 68.0086 154.821C70.4363 159.843 71.1211 164.534 69.5381 165.3C67.9552 166.065 64.704 162.614 62.2763 157.592Z" fill="#D8362A"/>
<path fill-rule="evenodd" clip-rule="evenodd" d="M35.2485 138.779C41.2125 133.422 44.0572 133.562 48.1227 137.318C50.3015 139.415 56.6101 146.25 58.602 148.253C62.0717 146.121 64.7879 144.41 66.663 143.44C77.0488 138.066 82.6798 138.779 85.3726 142.955C88.6496 148.037 85.4252 152.149 76.9845 158.779C74.9576 160.368 69.9633 162.816 68.0999 163.651C59.3263 167.588 54.4313 166.922 51.6917 164.767C44.7698 159.311 38.1283 149.924 37.1352 148.732C34.1854 145.187 30.9435 142.178 35.2368 138.779H35.2485Z" fill="#FFB400"/>
<path fill-rule="evenodd" clip-rule="evenodd" d="M79.7022 137.238C87.7807 136.911 93.6979 147.577 87.9676 155.702C84.6381 160.428 81.0281 162.764 71.1622 164.996C71.1622 164.996 70.9636 159.686 67.7334 154.207C66.2672 151.718 64.1059 148.582 61.4773 146.344C61.4773 146.344 72.6342 137.512 79.7022 137.238Z" fill="#F8DEAD"/>
<path d="M69.3755 165.388L73.3242 164.471C73.3242 164.471 73.295 159.792 70.6606 154.184C68.0262 148.577 63.4057 144.938 63.4057 144.938L60.1229 147.151C60.1229 147.151 64.1768 150.23 66.5483 155.761C68.9199 161.293 69.3697 165.382 69.3697 165.382L69.3755 165.388Z" fill="#ED7155"/>
<path fill-rule="evenodd" clip-rule="evenodd" d="M152.28 121.13C152.28 121.13 149.996 117.742 150.697 110.517C151.398 103.256 155.283 104.243 155.99 106.112C156.258 106.831 156.603 108.478 156.924 108.869C157.263 109.278 157.917 109.091 158.116 108.595C159.015 106.358 159.95 101.93 163.472 101.486C165.528 101.229 166.995 102.339 167.363 104.237C167.555 105.254 165.966 107.946 165.248 109.325C164.898 109.991 165.563 110.446 165.563 110.446C165.563 110.446 170.114 104.161 173.659 107.906C176.189 110.575 173.636 112.987 173.636 112.987C173.636 112.987 177.398 114.553 175.821 117.66C172.596 124.028 164.506 128.093 160.102 127.731C155.697 127.369 152.274 121.119 152.274 121.119L152.28 121.13Z" fill="#FFB400"/>
<path fill-rule="evenodd" clip-rule="evenodd" d="M173.636 112.989C173.636 112.989 171.545 112.913 168.35 116.266C168.35 116.266 169.968 111.704 174.308 111.972L173.642 112.989H173.636Z" fill="#F78F0A"/>
<path fill-rule="evenodd" clip-rule="evenodd" d="M159.946 113.094C159.946 113.094 166.184 112.919 166.996 118.994C166.996 118.994 166.126 116.494 162.422 117.458C162.422 117.458 162.773 114.841 159.946 113.094Z" fill="#F78F0A"/>
<path fill-rule="evenodd" clip-rule="evenodd" d="M49.0417 139.393C49.0417 139.393 50.7649 134.966 47.2076 128.639C43.9189 122.786 39.8534 125.403 39.8709 127.243C39.8884 129.083 40.3557 129.954 40.3557 129.954C40.3557 129.954 35.0285 123.499 31.5471 125.216C29.6895 126.139 29.3332 127.389 29.3741 128.301C29.4092 129.007 29.6778 129.51 29.6778 129.51C29.6778 129.51 26.3425 128.628 24.999 132.051C23.6613 135.474 26.3133 136.957 26.3133 136.957C26.3133 136.957 23.0772 139.428 25.3903 142.033C30.1276 147.367 38.9889 149.242 43.1537 147.77C47.3186 146.298 49.0417 139.387 49.0417 139.387V139.393Z" fill="#FFB400"/>
<path fill-rule="evenodd" clip-rule="evenodd" d="M26.3133 136.958C26.3133 136.958 28.3169 136.356 32.2598 138.78C32.2598 138.78 29.5377 134.779 25.4079 136.146L26.3133 136.958Z" fill="#F78F0A"/>
<path fill-rule="evenodd" clip-rule="evenodd" d="M29.6774 129.502C29.6774 129.502 32.0899 129.707 35.25 132.487C35.25 132.487 33.042 127.768 29.397 127.779L29.6716 129.508L29.6774 129.502Z" fill="#F78F0A"/>
<path fill-rule="evenodd" clip-rule="evenodd" d="M39.5781 133.57C39.5781 133.57 33.4973 134.99 34.2625 141.071C34.2625 141.071 34.4728 138.43 38.293 138.419C38.293 138.419 37.2883 135.977 39.5781 133.57Z" fill="#F78F0A"/>
<path fill-rule="evenodd" clip-rule="evenodd" d="M40.6772 105.246C40.6772 105.246 40.731 105.268 40.7638 105.288L40.7595 105.316C38.8997 109.579 36.446 113.564 33.4809 117.156C33.0705 117.636 33.1373 118.362 33.6188 118.765C33.6634 118.801 33.708 118.836 33.7537 118.865C33.7784 118.89 33.8101 118.916 33.8402 118.907C41.8505 122.861 51.7864 123.193 51.7864 123.193C51.7864 123.193 50.5385 123.63 48.6569 124.141C48.2607 124.251 48.0261 124.659 48.1366 125.055C48.1914 125.256 48.3294 125.428 48.5154 125.521C53.1722 127.749 58.9361 129.34 65.361 130.31C80.6166 132.607 99.5358 131.284 115.833 126.088C119.429 124.947 122.932 123.527 126.304 121.844C134.911 117.478 140.988 112.034 145.081 107.115C147.555 104.205 149.601 100.959 151.161 97.4791C151.264 97.2303 151.15 96.948 150.908 96.8463C150.767 96.7887 150.601 96.7989 150.474 96.8795C149.719 97.321 148.9 97.6238 148.039 97.7771C148.039 97.7771 152.805 92.9468 156.028 86.8982C156.169 86.6338 156.215 86.3333 156.175 86.0339C156.061 85.3866 155.505 84.9074 154.849 84.892C147.009 84.655 141.186 80.2938 140.92 80.0739C140.92 80.0739 149.295 70.2632 153.999 52.6677C158.703 35.0722 156.465 22.3215 150.893 18.5571C148.063 16.6394 143.34 15.9965 137.307 17.3547C131.281 18.714 123.864 22.0406 115.741 28.0412C99.3948 40.1343 93.46 47.4384 93.46 47.4384C87.8026 46.873 82.0855 47.3428 76.5981 48.8281C67.9277 41.4091 35.5134 28.8878 22.8183 28.5883C10.1312 28.2829 4.26196 35.7188 5.4883 47.8911C6.70661 59.9763 15.3243 81.0872 27.0475 93.1553C35.9041 102.241 39.5444 104.613 40.4725 105.136C40.4865 105.138 40.5004 105.14 40.4972 105.161C40.5579 105.185 40.6176 105.215 40.6703 105.245" fill="#FDB201"/>
<path fill-rule="evenodd" clip-rule="evenodd" d="M93.4582 47.4074C95.4278 47.4395 97.3897 47.6136 99.3382 47.9214C100.929 48.1813 102.514 47.4601 103.356 46.0876C109.539 36.1533 124.362 22.5732 137.306 17.2737C131.242 18.5986 123.863 21.9596 115.74 27.9603C99.3951 40.0894 93.4582 47.4074 93.4582 47.4074Z" fill="#F78F0A"/>
<path fill-rule="evenodd" clip-rule="evenodd" d="M65.3648 130.287C80.6205 132.585 99.5326 131.261 115.837 126.065C116.287 125.934 116.734 125.774 117.173 125.613C117.378 125.537 117.619 125.46 117.825 125.377L118.484 125.143C118.766 125.029 119.058 124.945 119.347 124.832C119.56 124.751 119.743 124.679 119.926 124.607L121.098 124.151C121.28 124.079 121.435 124.003 121.618 123.931C121.754 123.888 121.878 123.821 122.007 123.776C122.212 123.701 122.411 123.617 122.605 123.518C123.279 123.229 123.954 122.932 124.597 122.617C124.99 122.434 125.353 122.261 125.738 122.084C125.918 121.983 126.101 121.911 126.304 121.8C126.304 121.8 126.322 121.788 126.359 121.765L126.387 121.77C134.996 117.396 141.087 111.955 145.159 107.032C136.971 106.126 123.433 105.539 108.832 108.694C91.6605 112.411 80.2638 118.393 73.0662 123.635C70.3001 125.612 67.7242 127.84 65.3718 130.289" fill="#F5DCA4"/>
<path fill-rule="evenodd" clip-rule="evenodd" d="M33.7603 118.873C33.7603 118.873 33.8167 118.925 33.8468 118.915C41.8571 122.87 51.793 123.201 51.793 123.201C51.793 123.201 50.5452 123.638 48.6635 124.149C48.2673 124.26 48.0327 124.667 48.1433 125.063C48.198 125.265 48.3361 125.437 48.522 125.53C53.1788 127.758 58.9428 129.348 65.3676 130.318C67.6888 127.887 70.2255 125.681 72.9604 123.721C59.2693 119.583 48.868 112.255 40.7408 105.349C38.88 109.619 36.4263 113.604 33.4681 117.197C33.0776 117.688 33.1665 118.41 33.6582 118.793C33.6899 118.819 33.7286 118.847 33.7614 118.866" fill="#FDA200"/>
<path fill-rule="evenodd" clip-rule="evenodd" d="M65.3619 130.289C80.6176 132.587 99.5297 131.263 115.834 126.067C116.284 125.936 116.731 125.776 117.17 125.615C117.375 125.539 117.616 125.462 117.822 125.379L118.481 125.145C118.763 125.031 119.055 124.947 119.344 124.835C119.557 124.753 119.74 124.681 119.923 124.609L121.095 124.153C121.277 124.081 121.432 124.005 121.615 123.933C121.751 123.89 121.875 123.823 122.004 123.778C122.209 123.703 122.408 123.619 122.602 123.52C123.276 123.231 123.951 122.934 124.594 122.619C124.987 122.436 125.35 122.263 125.735 122.086C125.915 121.985 126.098 121.913 126.301 121.802C126.301 121.802 126.319 121.79 126.356 121.767L126.328 121.763C120.944 123.787 115.346 125.198 109.653 125.979C95.3233 128.017 83.2462 126.725 73.0192 123.645C70.2741 125.625 67.7191 127.856 65.3689 130.291" fill="#FFCD7C"/>
<path fill-rule="evenodd" clip-rule="evenodd" d="M145.432 84.9549C144.52 87.0176 145.179 88.028 148.061 88.0363C150.904 88.0672 153.705 87.3477 156.181 85.9485C156.075 85.2954 155.519 84.8161 154.856 84.7997C147.01 84.5546 141.193 80.2015 140.92 79.9805C141.001 80.1504 142.258 82.4334 145.432 84.9549Z" fill="#FDA200"/>
<path fill-rule="evenodd" clip-rule="evenodd" d="M55.8289 63.553C55.8289 63.553 59.9599 69.3271 60.7863 63.3236C62.0652 54.0633 53.7886 42.3769 38.3609 36.884C22.9401 31.3921 12.559 36.9584 10.0731 42.2193C7.32236 48.0832 10.9975 62.0499 20.67 77.1139C30.3426 92.1779 40.4833 102.864 47.2063 100.697C41.8053 86.4637 55.8219 63.5519 55.8219 63.5519" fill="#F78F0A"/>
<path fill-rule="evenodd" clip-rule="evenodd" d="M18.1763 68.6593C21.0772 74.8946 25.2606 81.3493 29.6831 86.8107C36.4818 95.2787 43.7493 101.358 47.2464 100.717C51.052 100.024 50.7204 95.2655 52.6328 86.5823C55.4739 73.7357 63.6105 66.3493 59.8246 59.3121C58.2977 56.551 56.3841 54.0237 54.136 51.8095C44.3266 41.9898 28.2319 36.1364 19.0137 39.1278C7.61591 42.7987 12.0018 55.2655 18.1774 68.6523" fill="#F37C00"/>
<path fill-rule="evenodd" clip-rule="evenodd" d="M27.2992 81.579C27.9197 83.3989 28.708 85.1517 29.6533 86.8142C36.452 95.2822 43.7195 101.362 47.2166 100.721C51.0222 100.028 50.6906 95.269 52.61 86.5869C55.4511 73.7403 63.5807 66.3528 59.8018 59.3166C58.2748 56.5556 56.3613 54.0282 54.1132 51.8141C47.7449 48.3917 41.0784 46.762 35.6465 50.0659C28.5392 54.399 22.9134 68.8333 27.3072 81.5731" fill="#ED6C00"/>
<path fill-rule="evenodd" clip-rule="evenodd" d="M51.4784 66.2414C52.3007 65.2237 52.4197 63.8041 51.7644 62.6728C50.9958 61.3952 49.5822 59.7534 46.9016 58.3953C41.5881 55.6938 40.2277 54.2176 38.6504 52.293C40.2601 58.6438 46.7453 62.6064 46.7453 62.6064C46.7453 62.6064 42.8539 61.6768 41.3347 63.1307C43.4154 63.323 45.3921 64.1432 46.9869 65.491C46.0311 65.6583 45.1096 65.9739 44.2644 66.4444C45.8349 66.8371 47.2861 67.1683 48.3735 67.4005C49.5404 67.5806 50.7173 67.1398 51.4853 66.2425" fill="#F37C00"/>
<path fill-rule="evenodd" clip-rule="evenodd" d="M120.502 56.2472C120.502 56.2472 118.403 57.1896 117.624 54.8229C116.845 52.4563 117.654 42.4367 127.046 32.9405C135.958 23.9639 145.138 20.38 149.181 22.5993C153.224 24.8186 153.019 33.057 152.476 37.9667C151.977 42.8689 120.495 56.2461 120.495 56.2461" fill="#F78F0A"/>
<path fill-rule="evenodd" clip-rule="evenodd" d="M127.93 65.4608C130.964 68.9767 133.816 72.6576 136.46 76.4781C136.46 76.4781 141.16 75.4079 145.612 65.5713C145.704 65.3923 145.782 65.2112 145.853 65.029C150.386 54.7043 155.891 31.3229 150.023 25.8603C146.47 22.5505 136.79 27.2877 128.822 35.201C123.626 40.3585 119.181 46.8693 117.609 53.3874C116.72 57.2493 123.238 60.0294 127.928 65.4678" fill="#F37C00"/>
<path fill-rule="evenodd" clip-rule="evenodd" d="M127.928 65.4643C130.963 68.9803 133.814 72.6611 136.458 76.4816C136.458 76.4816 141.159 75.4115 145.61 65.5748C148.993 55.1511 148.472 42.4438 144.241 37.6845C140.274 33.2591 134.315 32.0533 128.844 35.1937C123.648 40.3512 119.202 46.8621 117.645 53.3824C116.727 57.2469 123.244 60.027 127.935 65.4654" fill="#ED6C00"/>
<path fill-rule="evenodd" clip-rule="evenodd" d="M125.123 56.1942C124.21 55.4809 123.839 54.2718 124.188 53.1668C124.594 51.9274 125.483 50.2474 127.552 48.5207C131.584 45.1581 132.483 43.6442 133.481 41.6735C133.339 47.4607 128.522 52.1115 128.522 52.1115C128.522 52.1115 131.694 50.5621 133.303 51.4971C131.541 52.0624 129.999 53.155 128.885 54.6284C129.719 54.5998 130.555 54.7002 131.357 54.9242C130.097 55.581 128.911 56.1707 128.001 56.5525C127.053 56.9928 125.93 56.8552 125.116 56.1931" fill="#F37C00"/>
<path d="M70.2912 113.035C69.8886 113.095 69.5108 112.807 69.4583 112.406C69.4605 112.392 69.4557 112.377 69.4567 112.37C69.4134 111.955 69.7076 111.579 70.1301 111.529C70.5527 111.48 70.9213 111.78 70.9705 112.203C71.03 112.606 70.7428 112.983 70.3412 113.036C70.3272 113.034 70.3122 113.038 70.3052 113.037" fill="#F5DCA4"/>
<path d="M76.847 116.82C76.4353 116.892 76.0414 116.617 75.969 116.205C75.8966 115.793 76.172 115.399 76.5838 115.327C76.6139 115.317 76.6499 115.316 76.679 115.313C77.0934 115.27 77.4701 115.564 77.5135 115.978C77.5729 116.381 77.2857 116.759 76.8841 116.811L76.8492 116.806" fill="#F5DCA4"/>
<path d="M81.364 110.737C80.9495 110.78 80.5729 110.486 80.5236 110.064C80.4743 109.641 80.7745 109.272 81.197 109.223C81.6195 109.174 81.9882 109.474 82.0374 109.897C82.0867 110.319 81.7865 110.688 81.371 110.738" fill="#F5DCA4"/>
<path d="M83.4401 108.169C83.0385 108.221 82.6597 107.941 82.6082 107.532C82.6104 107.518 82.6115 107.511 82.6066 107.496C82.5853 107.078 82.9123 106.721 83.3295 106.706C83.7117 106.687 84.0427 106.952 84.1135 107.328C84.173 107.731 83.8857 108.109 83.4842 108.161C83.4702 108.159 83.4551 108.164 83.4481 108.163" fill="#F5DCA4"/>
<path fill-rule="evenodd" clip-rule="evenodd" d="M138.859 97.9762C138.902 98.3906 139.278 98.6918 139.699 98.6496C140.114 98.6062 140.415 98.2306 140.373 97.8092C140.33 97.3877 139.954 97.0935 139.532 97.1358C139.117 97.1861 138.817 97.5547 138.867 97.9703L138.859 97.9762Z" fill="#F5DCA4"/>
<path d="M135.452 102.105C135.034 102.126 134.676 101.799 134.662 101.382C134.642 101 134.908 100.669 135.284 100.598C135.699 100.547 136.075 100.849 136.118 101.263C136.17 101.672 135.891 102.044 135.481 102.102C135.467 102.1 135.46 102.099 135.445 102.104" fill="#F5DCA4"/>
<path d="M133.008 100.142C132.606 100.195 132.227 99.9144 132.176 99.5058C132.177 99.4989 132.179 99.4849 132.173 99.4768C132.101 99.065 132.376 98.6711 132.788 98.5987C133.2 98.5264 133.594 98.8018 133.666 99.2136C133.676 99.2437 133.677 99.2797 133.68 99.3087C133.733 99.7103 133.452 100.089 133.044 100.141C133.03 100.138 133.023 100.137 133.008 100.142Z" fill="#F5DCA4"/>
<path fill-rule="evenodd" clip-rule="evenodd" d="M76.6007 48.815C79.0139 49.588 81.326 50.6459 83.4831 51.9661C87.6559 54.5488 91.5181 54.8801 96.1655 53.1364C93.7279 52.567 92.5389 51.4177 92.5389 51.4177C92.5389 51.4177 98.2041 50.2174 100.547 44.9129C98.3969 46.1407 96.1199 47.1271 93.7549 47.8495C94.006 47.6593 101.44 42.554 101.588 34.8289C93.7547 43.6787 87.2723 43.9159 87.2723 43.9159C87.8142 42.676 88.7269 41.6293 89.8797 40.9273C87.588 41.1746 85.3537 41.8385 83.303 42.8884C80.6017 44.26 78.2909 46.3 76.5937 48.8139" fill="#FFE2A4"/>
<path fill-rule="evenodd" clip-rule="evenodd" d="M125.838 114.243C125.838 114.243 122.141 118.172 121.372 121.766C120.596 125.309 119.452 126.742 116.302 127.315C112.995 127.928 104.292 124.846 101.042 119.437C97.2025 113.071 110.901 110.714 115.662 110.182C120.423 109.651 125.838 114.243 125.838 114.243Z" fill="#FDB201"/>
<path fill-rule="evenodd" clip-rule="evenodd" d="M105.913 118.896C105.949 118.987 105.993 119.073 106.052 119.154C108.474 123.026 112.932 124.179 114.795 124.294C116.659 124.41 118.518 124.232 118.992 121.344C119.093 120.88 119.222 120.413 119.384 119.966C120.36 117.491 122.566 115.063 122.566 115.063L117.215 110.052C117.215 110.052 104.232 115.052 105.913 118.896Z" fill="#A60023"/>
<path fill-rule="evenodd" clip-rule="evenodd" d="M105.915 118.895C105.951 118.986 105.995 119.072 106.054 119.152C108.475 123.024 112.933 124.177 114.797 124.293C116.66 124.409 118.519 124.231 118.994 121.342C119.094 120.879 119.223 120.412 119.385 119.965C118.676 118.997 117.771 118.185 116.725 117.594C114.588 116.47 111.886 116.962 111.886 116.962L105.908 118.894L105.915 118.895Z" fill="#DA0739"/>
<path fill-rule="evenodd" clip-rule="evenodd" d="M110.744 117.318C110.744 117.318 112.839 117.598 114.647 121.09C110.988 117.821 108.23 118.261 108.23 118.261L110.737 117.317L110.744 117.318Z" fill="#A60023"/>
<path fill-rule="evenodd" clip-rule="evenodd" d="M89.8767 110.879C89.8767 110.879 88.8703 110.122 88.0433 110.567C86.1709 114.263 89.767 121.371 98.9912 122.744C107.633 124.042 113.195 119.249 115.411 114.948C105.773 111.994 89.8826 110.887 89.8826 110.887" fill="#F78F0A"/>
<path fill-rule="evenodd" clip-rule="evenodd" d="M128.453 104.554C128.453 104.554 127.939 103.853 129.824 103.643C132.413 105.366 133.225 110.671 130.082 114.256C127.278 117.458 121.146 117.649 117.928 114.391C120.853 109.627 128.453 104.554 128.453 104.554Z" fill="#F78F0A"/>
<path fill-rule="evenodd" clip-rule="evenodd" d="M88.7542 114.22C92.0927 119.242 97.8714 121.479 104.299 120.761C107.064 120.458 109.711 119.486 112.018 117.939C113.272 117.088 114.414 116.084 115.413 114.943C116.038 114.231 117.058 114.016 117.912 114.42C117.96 114.434 118.006 114.456 118.052 114.484C118.119 114.516 118.177 114.554 118.228 114.597C118.678 114.924 119.165 115.2 119.677 115.408C120.964 115.964 122.377 116.175 123.776 116.012C128.253 115.508 131.466 111.468 130.963 106.991C130.829 105.818 130.445 104.693 129.841 103.691L129.845 103.663L129.543 103.209C129.049 102.517 128.457 101.904 127.785 101.392C127.642 101.299 127.492 101.204 127.377 101.115C126.134 100.222 117.335 96.7891 110.266 97.5797C102.95 98.3966 91.8081 107.086 89.6154 108.408C88.8341 108.881 88.2913 109.663 88.1092 110.565C87.8291 111.823 88.0634 113.133 88.7542 114.22Z" fill="#FDB201"/>
<path fill-rule="evenodd" clip-rule="evenodd" d="M118.05 114.478C118.117 114.509 118.176 114.547 118.226 114.591C121.93 117.151 127.002 116.224 129.563 112.52C131.394 109.877 131.494 106.401 129.822 103.653L129.827 103.625C130.553 106.291 130.407 110.34 126.601 113.079C122.243 116.234 118.791 114.821 118.044 114.47" fill="#FDA200"/>
<path fill-rule="evenodd" clip-rule="evenodd" d="M88.7537 114.216C92.0922 119.238 97.8708 121.475 104.299 120.757C108.607 120.284 112.578 118.193 115.41 114.91C112.993 116.476 107.477 119.681 99.7048 118.352C93.0371 117.195 89.7309 114.374 88.0517 110.559C87.8205 111.825 88.071 113.123 88.7617 114.21" fill="#FDA200"/>
<path fill-rule="evenodd" clip-rule="evenodd" d="M114.25 97.7789C114.25 97.7789 112.2 94.794 108.515 95.4486C104.775 96.0876 103.573 100.166 103.573 100.166C103.573 100.166 109.012 96.2122 114.25 97.7789Z" fill="#FDA200"/>
<path fill-rule="evenodd" clip-rule="evenodd" d="M114.25 97.774C114.25 97.774 110.227 96.8599 103.57 100.132C106.334 97.2392 111.066 95.5943 114.25 97.774Z" fill="#F78F0A"/>
<path d="M93.7027 113.398C93.3001 113.458 92.9223 113.17 92.8698 112.769C92.872 112.755 92.8731 112.748 92.8682 112.733C92.8249 112.318 93.1191 111.942 93.5416 111.892C93.9561 111.849 94.3328 112.143 94.3821 112.566C94.4345 112.967 94.1543 113.346 93.7457 113.398C93.7318 113.395 93.7248 113.394 93.7097 113.399" fill="#F5DCA4"/>
<path d="M125.538 103.465C125.136 103.518 124.757 103.237 124.706 102.829C124.708 102.815 124.709 102.808 124.704 102.793C124.683 102.375 125.01 102.017 125.427 102.003C125.809 101.983 126.139 102.256 126.211 102.625C126.271 103.027 125.983 103.405 125.582 103.458C125.568 103.456 125.553 103.46 125.546 103.459" fill="#F5DCA4"/>
<path d="M127.415 109.286C126.997 109.307 126.64 108.98 126.625 108.563C126.606 108.181 126.871 107.85 127.247 107.779C127.662 107.736 128.038 108.03 128.088 108.452C128.14 108.854 127.86 109.233 127.451 109.284C127.437 109.282 127.43 109.281 127.415 109.286Z" fill="#F5DCA4"/>
<path d="M124.071 112.32C123.659 112.393 123.266 112.117 123.193 111.705C123.121 111.294 123.396 110.9 123.808 110.827C123.838 110.818 123.874 110.816 123.903 110.813C124.319 110.763 124.694 111.064 124.738 111.479C124.796 111.888 124.51 112.259 124.107 112.319C124.093 112.317 124.078 112.321 124.071 112.32Z" fill="#F5DCA4"/>
<path fill-rule="evenodd" clip-rule="evenodd" d="M104.179 107.243C104.2 107.661 104.55 107.987 104.969 107.966C105.387 107.945 105.713 107.594 105.691 107.176C105.697 107.141 105.687 107.111 105.677 107.081C105.619 106.671 105.25 106.371 104.836 106.415C104.422 106.458 104.12 106.834 104.171 107.249" fill="#F5DCA4"/>
<path fill-rule="evenodd" clip-rule="evenodd" d="M102.019 114.018C102.062 114.432 102.438 114.734 102.852 114.69C103.262 114.632 103.555 114.262 103.518 113.849C103.475 113.434 103.099 113.133 102.685 113.177C102.275 113.235 101.975 113.604 102.012 114.017" fill="#F5DCA4"/>
<path d="M107.648 115.181C107.245 115.241 106.868 114.954 106.815 114.552C106.817 114.538 106.812 114.523 106.814 114.516C106.77 114.101 107.064 113.725 107.487 113.676C107.901 113.632 108.278 113.926 108.327 114.349C108.387 114.752 108.1 115.129 107.698 115.182C107.684 115.18 107.669 115.185 107.662 115.183" fill="#F5DCA4"/>
<path fill-rule="evenodd" clip-rule="evenodd" d="M112.806 110.223C111.878 109.98 111.005 109.566 110.217 109.015C108.594 107.899 107.623 105.517 109.475 104.086C110.48 103.325 111.746 103.234 112.959 103.071C114.325 102.888 115.703 102.765 117.078 102.662C118.045 102.611 119.091 102.601 119.944 103.19C120.823 103.755 121.311 104.761 121.209 105.797C121.019 107.534 119.459 108.882 118.014 109.668C116.422 110.531 114.546 110.728 112.806 110.223Z" fill="#070809"/>
<path d="M112.339 106.951C111.182 107.08 110.173 106.567 110.089 105.817C110.004 105.067 110.896 104.339 112.033 104.207C113.175 104.083 114.198 104.591 114.282 105.348C114.365 106.105 113.496 106.822 112.339 106.951Z" fill="white"/>
<path fill-rule="evenodd" clip-rule="evenodd" d="M96.8035 86.6367C96.8035 86.6367 93.1563 77.4031 85.1052 76.7258C79.6374 76.2755 75.494 80.8728 74.7542 85.6663C74.209 89.338 74.7819 93.0893 76.3914 96.4283C89.1182 87.7614 96.8046 86.6297 96.8046 86.6297" fill="#F78F0A"/>
<path fill-rule="evenodd" clip-rule="evenodd" d="M98.5457 92.9189C97.6879 85.9615 93.547 79.3703 87.457 78.502C81.367 77.6337 76.0187 81.4155 75.4063 88.5823C74.842 95.1128 77.7375 100.41 79.7927 102.251C77.9442 103.103 75.8547 103.339 73.5222 103.387C77.6824 104.336 82.2837 104.56 86.4735 102.073C89.8427 100.082 94.0621 98.6083 97.7482 98.2257C98.2299 98.1641 98.5913 97.7692 98.6157 97.2865C98.697 95.8325 98.6725 94.3693 98.5457 92.9189Z" fill="#FDA200"/>
<path fill-rule="evenodd" clip-rule="evenodd" d="M77.6934 95.6887C78.4585 97.7312 79.4897 99.6717 80.7607 101.449C81.1517 101.974 81.8456 102.16 82.4424 101.909C82.5709 101.864 82.6736 101.801 82.8091 101.758C84.3565 101.095 85.9905 100.289 87.8589 99.4466C90.5805 98.2212 93.6819 97.734 96.0321 97.5244L96.2214 97.5036C96.996 97.4443 97.5726 96.7678 97.5202 95.9942C97.3278 93.8111 96.8939 90.5964 95.7516 88.2166C93.8968 84.289 89.567 80.3585 83.8033 81.8728C78.0395 83.387 75.8761 90.8225 77.6945 95.6817" fill="white"/>
<mask id="mask1_0_1942" style="mask-type:luminance" maskUnits="userSpaceOnUse" x="77" y="81" width="21" height="22">
<path d="M77.6973 95.675C78.4624 97.7175 79.4936 99.658 80.7646 101.435C81.1557 101.961 81.8495 102.146 82.4463 101.895C82.5748 101.851 82.6775 101.788 82.813 101.744C84.3604 101.082 85.9944 100.275 87.8628 99.433C90.5844 98.2076 93.6858 97.7204 96.036 97.5108L96.2253 97.4899C96.9999 97.4306 97.5765 96.7541 97.5242 95.9805C97.3317 93.7974 96.8978 90.5827 95.7555 88.203C93.9007 84.2753 89.5709 80.3448 83.8072 81.8591C78.0434 83.3734 75.88 90.8088 77.6984 95.668" fill="white"/>
</mask>
<g mask="url(#mask1_0_1942)">
<path fill-rule="evenodd" clip-rule="evenodd" d="M85.9469 96.5868C89.3787 102.117 94.0355 100.961 95.3512 100.363C97.4265 99.4315 102.38 96.4902 98.2108 88.0918C96.4966 84.6436 91.7 82.3939 87.9104 84.4203C84.1197 86.4537 83.5574 92.1831 85.9469 96.5868Z" fill="#111111" stroke="#474747" stroke-width="1.81664" stroke-miterlimit="10"/>
<path d="M86.9 91.6181C85.848 91.6203 85.0035 90.5099 85.0058 89.151C85.007 87.799 85.8434 86.6904 86.9024 86.6893C87.9543 86.6871 88.7978 87.8046 88.7966 89.1565C88.7954 90.5084 87.966 91.6181 86.9 91.6181Z" fill="white"/>
<path d="M87.6439 95.0925C87.2648 95.3702 86.6392 95.1592 86.2502 94.6199C85.8532 94.0865 85.8267 93.4242 86.2058 93.1464C86.5849 92.8687 87.2094 93.0867 87.5994 93.6191C87.9964 94.1525 88.023 94.8148 87.6439 95.0925Z" fill="white"/>
</g>
<path fill-rule="evenodd" clip-rule="evenodd" d="M114.522 85.0359C114.522 85.0359 112.705 88.7474 112.345 85.2795C111.658 78.656 116.91 72.7632 122.406 73.7258C128.907 74.8508 130.16 81.7046 130.162 87.0704C124.698 86.9211 114.522 85.0359 114.522 85.0359Z" fill="#F78F0A"/>
<path fill-rule="evenodd" clip-rule="evenodd" d="M112.574 89.3647C111.018 79.3306 117.045 75.0884 120.874 75.1714C126.534 75.3079 129.812 80.5785 130.141 86.653C130.477 92.8215 129.118 95.0442 129.118 95.0442C129.118 95.0442 130.092 95.5021 133.488 94.9102C131.355 96.2622 128.513 97.6693 124.408 96.4993C121.585 95.7416 118.642 95.5236 115.729 95.8539C115.151 95.9864 114.558 95.7017 114.29 95.1668C113.452 93.3204 112.874 91.364 112.575 89.3577" fill="#FDA200"/>
<path fill-rule="evenodd" clip-rule="evenodd" d="M113.162 89.5251C113.242 89.981 113.342 90.4041 113.41 90.7938C113.455 90.9223 113.466 91.0814 113.509 91.2169C113.766 92.2437 114.113 93.2416 114.551 94.2035C114.781 94.704 115.31 94.986 115.852 94.9051C117.776 94.5797 120.764 94.2752 123.524 94.8372C123.968 94.9272 124.391 95.0139 124.778 95.1022C125.164 95.1976 125.534 95.2617 125.895 95.3318C126.456 95.4471 127.023 95.1624 127.262 94.6341C128.036 92.8579 128.581 90.3521 128.205 86.989C127.538 81.0197 123.716 77.554 119.203 78.0593C114.682 78.5636 112.073 83.4621 113.161 89.5321" fill="white"/>
<mask id="mask2_0_1942" style="mask-type:luminance" maskUnits="userSpaceOnUse" x="112" y="78" width="17" height="18">
<path d="M113.163 89.527C113.243 89.9829 113.342 90.406 113.411 90.7958C113.456 90.9243 113.467 91.0834 113.51 91.2189C113.767 92.2457 114.114 93.2436 114.552 94.2054C114.782 94.706 115.311 94.9879 115.853 94.907C117.777 94.5816 120.765 94.2772 123.525 94.8391C123.969 94.9291 124.392 95.0159 124.779 95.1042C125.165 95.1995 125.535 95.2637 125.896 95.3337C126.457 95.449 127.024 95.1644 127.262 94.6361C128.037 92.8598 128.581 90.354 128.206 86.991C127.539 81.0217 123.717 77.5559 119.204 78.0613C114.683 78.5655 112.074 83.464 113.162 89.534" fill="white"/>
</mask>
<g mask="url(#mask2_0_1942)">
<path fill-rule="evenodd" clip-rule="evenodd" d="M117.849 89.0363C118.67 95.4943 122.118 95.497 124.046 95.6586C125.938 95.8219 130.137 95.361 130.425 87.6075C130.595 83.0266 128.116 79.2529 122.911 79.8375C119.018 80.3028 117.219 85.7484 117.849 89.0363Z" fill="#111111" stroke="#474747" stroke-width="1.81664" stroke-miterlimit="10"/>
<path d="M120.762 86.6184C119.727 86.4158 119.111 85.169 119.366 83.8419C119.621 82.5148 120.659 81.5805 121.694 81.7831C122.729 81.9857 123.345 83.2325 123.09 84.5596C122.835 85.8867 121.796 86.821 120.762 86.6184Z" fill="white"/>
<path d="M121.715 89.5857C121.356 89.8737 120.789 89.7503 120.433 89.3163C120.078 88.8824 120.076 88.2954 120.435 88.0074C120.794 87.7195 121.362 87.8428 121.717 88.2768C122.072 88.7108 122.075 89.2978 121.715 89.5857Z" fill="white"/>
</g>
<path fill-rule="evenodd" clip-rule="evenodd" d="M84.2365 70.8903C81.9446 72.7615 79.0651 73.6192 77.1797 74.015C76.6765 74.1233 76.181 73.8108 76.0716 73.3146C76.0212 73.085 76.06 72.8335 76.1773 72.6298C76.3139 72.3933 76.4441 72.1058 76.6061 71.8446C77.5853 69.8567 78.4233 67.8112 79.1338 65.7102C80.1781 62.6521 83.0792 61.5617 85.0835 62.1572C85.5511 62.2794 85.9762 62.5382 86.3082 62.8899C88.063 64.6845 87.2054 68.4797 84.2376 70.8833" fill="#F78F0A"/>
<path fill-rule="evenodd" clip-rule="evenodd" d="M116.779 67.2493C119.43 68.567 122.418 68.7705 124.354 68.7403C124.87 68.7341 125.279 68.3107 125.273 67.7946C125.272 67.5656 125.179 67.3366 125.019 67.1688C124.835 66.9687 124.645 66.7176 124.428 66.4982C123.035 64.7736 121.761 62.9674 120.608 61.0725C118.908 58.3205 115.839 57.9041 114.022 58.9257C113.593 59.1528 113.233 59.4908 112.99 59.911C111.673 62.0472 113.348 65.5609 116.779 67.2493Z" fill="#F78F0A"/>
<path fill-rule="evenodd" clip-rule="evenodd" d="M79.7879 78.0795C77.3267 79.8888 74.1501 80.4001 71.2467 79.4655C71.2467 79.4655 75.5789 82.6381 76.6531 81.1942C75.3325 81.9633 73.7343 82.0744 72.3219 81.4915C72.3219 81.4915 74.5476 83.2015 76.1758 82.2008C75.3369 82.9083 74.2031 83.1626 73.1383 82.8766C73.1383 82.8766 74.938 84.0558 75.6387 83.5487C75.6408 83.5347 76.5843 79.9244 79.7879 78.0795Z" fill="#F99108"/>
<path fill-rule="evenodd" clip-rule="evenodd" d="M123.461 74.0249C126.256 75.2433 129.47 75.0453 132.092 73.4898C132.092 73.4898 129.119 76.8083 127.515 76.5394C128.899 76.8889 130.371 76.5794 131.5 75.7091C131.5 75.7091 130.024 78.2714 128.214 77.6701C128.214 77.6701 129.129 78.8774 131.011 77.2506C131.011 77.2506 129.395 79.4693 128.602 79.1395C128.602 79.1395 127.007 75.1517 123.46 74.0319" fill="#F99108"/>
</g>
<path fill-rule="evenodd" clip-rule="evenodd" d="M127.366 134.382C129.317 133.009 135.088 130.398 141.449 126.777C147.466 122.168 152.711 117.413 153.669 116.362C155.404 114.481 169.119 120.626 161.736 128.12C156.315 136.573 140.363 147.84 138.417 149.05C128.458 155.253 121.256 154.932 118.475 149.902C116.191 145.767 118.195 140.854 127.36 134.388L127.366 134.382Z" fill="#FFB400"/>
<path fill-rule="evenodd" clip-rule="evenodd" d="M158.957 123.167C158.385 121.952 158.057 120.632 157.993 119.288C157.164 119.113 156.358 118.839 155.598 118.459C157.275 120.854 157.701 123.272 158.963 123.161" fill="#F78F0A"/>
<path fill-rule="evenodd" clip-rule="evenodd" d="M114.24 136.196C106.214 137.148 116.559 158.504 126.366 156.874C131.045 156.05 135.228 155.18 142.138 147.861C142.138 147.861 142.266 142.703 139.27 137.685C137.874 135.343 134.515 134.408 132.471 131.318C132.471 131.318 125.514 134.858 114.246 136.202L114.24 136.196Z" fill="#F8DEAD"/>
<path d="M143.733 146.577L140.953 149.141C140.953 149.141 140.807 145.111 137.623 139.141C134.44 133.171 130.234 132.266 130.234 132.266L133.604 130.402C133.604 130.402 137.302 131.249 140.754 136.518C144.206 141.787 143.727 146.577 143.727 146.577H143.733Z" fill="#ED7155"/>
<path fill-rule="evenodd" clip-rule="evenodd" d="M20.5395 173.195C21.6727 174.335 23.9274 176.934 26.3632 181.473C28.6881 185.789 32.5317 190.001 37.2573 193.377C37.3098 193.418 37.3566 193.436 37.4033 193.482C44.9386 198.81 54.6702 202.034 64.1623 200.381C78.1346 197.945 86.8907 189.218 88.538 187.425C88.7307 187.226 88.8125 187.127 88.8125 187.127L83.9759 177.261L81.5284 172.273L79.5833 168.295C75.4652 164.428 70.4183 162.284 65.1319 160.391C65.056 160.35 64.9625 160.339 64.8924 160.298C63.4321 159.766 61.9542 159.282 60.4706 158.756C60.0383 158.604 59.6294 158.452 59.203 158.306C55.3536 156.922 51.4925 155.403 47.9235 153.189C44.1792 150.899 40.9723 147.838 38.5131 144.205C31.0889 133.34 27.0876 122.709 25.4695 116.459C25.0665 114.894 24.237 114.847 23.6763 116.371C22.6599 119.128 21.918 121.979 21.4682 124.882C19.6691 136.168 22.0056 146.658 23.5361 149.813C23.1681 149.264 22.8468 148.732 22.5489 148.224C21.7077 146.805 20.9776 145.332 20.3584 143.802C20.335 143.755 20.3292 143.709 20.3 143.668C19.8444 142.599 19.342 142.698 19.1843 143.942C19.1609 144.199 19.1142 144.486 19.0908 144.778C18.5126 150.187 18.3139 161.758 24.6517 174.936C23.6354 173.815 22.3094 173.02 20.8432 172.646C20.2533 172.489 20.1072 172.734 20.5395 173.19" fill="#F78F0A"/>
<path fill-rule="evenodd" clip-rule="evenodd" d="M23.5604 149.807C23.1924 149.258 22.8711 148.727 22.5732 148.218C24.2905 153.043 26.481 157.442 29.2556 160.462C40.9732 173.272 50.7632 163.774 56.6104 161.443C59.3324 160.362 62.5042 160.222 65.1387 160.403C65.0627 160.362 64.9693 160.351 64.8992 160.31C63.4389 159.778 61.961 159.293 60.4773 158.768C60.0451 158.616 59.6362 158.464 59.2098 158.318C55.3604 156.934 51.4993 155.415 47.9302 153.201C44.186 150.911 40.9791 147.85 38.5199 144.217C31.0956 133.352 27.0943 122.721 25.4763 116.471C25.0733 114.906 24.2438 114.853 23.683 116.383C22.6666 119.14 21.9248 121.991 21.475 124.9C19.6993 136.18 22.0241 146.665 23.5662 149.813" fill="#FFA400"/>
<path fill-rule="evenodd" clip-rule="evenodd" d="M20.5379 173.196C21.6711 174.335 23.9258 176.934 26.3616 181.473C28.6865 185.79 32.5301 190.001 37.2557 193.378C33.564 185.679 32.3022 179.248 32.384 173.996C32.5008 166.262 35.5734 160.994 38.348 157.705C41.1226 154.416 45.0596 153.423 47.916 153.219C44.1717 150.929 40.9649 147.868 38.5057 144.235C31.0814 133.376 27.0801 122.739 25.4621 116.489C25.059 114.917 24.2296 114.871 23.6688 116.401C18.4525 130.473 21.6302 145.905 23.5286 149.837C22.2727 147.944 21.2096 145.929 20.351 143.832C19.8603 142.617 19.3287 142.687 19.1769 143.972C19.1301 144.247 19.1009 144.527 19.0834 144.807C19.025 145.234 18.9899 145.678 18.9607 146.168C18.949 146.332 18.9374 146.495 18.9315 146.682C18.914 146.799 18.9257 146.916 18.914 147.033C18.9081 147.243 18.879 147.43 18.8731 147.664C18.8264 148.809 18.7972 150.105 18.8381 151.525C18.8381 151.758 18.8497 151.992 18.8673 152.22C19.2353 160.117 21.1979 167.857 24.6501 174.972C23.6279 173.856 22.3078 173.062 20.8416 172.682C20.2517 172.501 20.1056 172.746 20.5379 173.196Z" fill="#FFE2A4"/>
<path fill-rule="evenodd" clip-rule="evenodd" d="M37.2631 193.377C44.8042 198.751 54.6059 202.04 64.1622 200.358C79.7234 197.63 88.8008 187.098 88.8008 187.098L83.9642 177.232C81.3473 181.321 71.9019 189.61 60.3303 189.411C52.3803 189.271 41.5856 186.689 32.3797 173.973C32.3096 179.247 33.6006 185.661 37.2631 193.377Z" fill="#D46A00"/>
<path fill-rule="evenodd" clip-rule="evenodd" d="M20.54 173.195C21.6732 174.334 23.928 176.934 26.3638 181.472C28.6886 185.789 32.5322 190.001 37.2578 193.377C33.5661 185.678 32.3044 179.247 32.3862 173.996C27.2633 166.916 22.637 157.412 19.0855 144.807C19.0271 145.233 18.9921 145.677 18.9629 146.168C18.9512 146.325 18.9395 146.495 18.9337 146.682C18.9161 146.799 18.9278 146.915 18.9161 147.032C18.9103 147.242 18.8811 147.429 18.8753 147.663C18.8285 148.808 18.7993 150.105 18.8402 151.524C18.8402 151.758 18.8519 151.986 18.8694 152.219C19.2316 160.117 21.2001 167.856 24.6464 174.971C23.6242 173.855 22.3041 173.061 20.8379 172.681C20.248 172.5 20.1019 172.746 20.5342 173.195" fill="#FFCD7C"/>
<path fill-rule="evenodd" clip-rule="evenodd" d="M111.396 128.261L111.951 136.918L114.849 144.885C114.849 144.885 98.0374 153.063 87.3011 137.922L88.5453 126.748L111.402 128.261H111.396Z" fill="#F78F0A"/>
<path fill-rule="evenodd" clip-rule="evenodd" d="M87.5809 134.39C87.5809 134.39 84.9114 134.256 83.3985 135.155C82.347 135.78 77.4112 137.608 74.4671 142.457C71.7977 146.814 78.375 157.673 80.5479 169.63C82.4989 180.367 74.2802 183.673 76.1494 185.822C90.408 202.248 134.317 195.817 134.34 184.567C134.387 161.359 130.596 157.732 126.77 150.494C125.631 148.339 118.546 139.425 117.996 138.876C115.701 136.586 113.434 135.728 112.365 135.424C112.097 135.348 111.816 135.552 111.822 135.833C111.846 136.849 111.18 138.969 105.555 139.688C94.2224 141.142 88.0423 134.711 88.0423 134.711" fill="#FFF4D5"/>
<path fill-rule="evenodd" clip-rule="evenodd" d="M116.139 161.075C116.139 161.075 108.44 159.223 99.3041 163.709C101.892 159.889 108.422 155.041 112.511 155.228C111.244 156.081 110.239 157.267 109.614 158.663C112.354 158.744 115.695 160.38 116.145 161.075" fill="#F8DEAD"/>
<path d="M62.0703 157.952C59.6426 152.93 58.9578 148.239 60.5408 147.473C62.1237 146.708 65.3749 150.159 67.8026 155.181C70.2302 160.202 70.915 164.894 69.3321 165.659C67.7491 166.424 64.4979 162.974 62.0703 157.952Z" fill="#D8362A"/>
<path fill-rule="evenodd" clip-rule="evenodd" d="M35.0425 139.138C41.0064 133.782 43.8511 133.922 47.9167 137.678C50.0955 139.775 56.404 146.609 58.3959 148.613C61.8657 146.48 64.5819 144.769 66.4569 143.799C76.8427 138.425 82.4737 139.138 85.1666 143.315C88.4435 148.396 85.2191 152.509 76.7785 159.139C74.7515 160.727 69.7572 163.175 67.8939 164.01C59.1203 167.947 54.2253 167.281 51.4857 165.126C44.5638 159.67 37.9222 150.283 36.9292 149.092C33.9793 145.546 30.7374 142.538 35.0308 139.138H35.0425Z" fill="#FFB400"/>
<path fill-rule="evenodd" clip-rule="evenodd" d="M79.4971 137.595C87.5756 137.268 93.4928 147.934 87.7625 156.06C84.433 160.785 80.8231 163.122 70.9571 165.353C70.9571 165.353 70.7585 160.043 67.5283 154.564C66.0621 152.076 63.9008 148.939 61.2723 146.702C61.2723 146.702 72.4291 137.87 79.4971 137.595Z" fill="#F8DEAD"/>
<path d="M69.1704 165.751L73.1191 164.834C73.1191 164.834 73.0899 160.155 70.4555 154.548C67.8211 148.94 63.2006 145.301 63.2006 145.301L59.9178 147.515C59.9178 147.515 63.9717 150.593 66.3432 156.125C68.7148 161.656 69.1646 165.745 69.1646 165.745L69.1704 165.751Z" fill="#ED7155"/>
<path fill-rule="evenodd" clip-rule="evenodd" d="M152.074 121.486C152.074 121.486 149.79 118.098 150.491 110.872C151.192 103.611 155.077 104.599 155.783 106.468C156.052 107.186 156.397 108.833 156.718 109.225C157.057 109.634 157.711 109.447 157.91 108.95C158.809 106.713 159.744 102.285 163.266 101.841C165.322 101.584 166.788 102.694 167.156 104.593C167.349 105.609 165.76 108.302 165.042 109.68C164.691 110.346 165.357 110.802 165.357 110.802C165.357 110.802 169.908 104.517 173.453 108.261C175.983 110.93 173.43 113.343 173.43 113.343C173.43 113.343 177.192 114.908 175.615 118.016C172.39 124.383 164.3 128.449 159.896 128.086C155.491 127.724 152.068 121.474 152.068 121.474L152.074 121.486Z" fill="#FFB400"/>
<path fill-rule="evenodd" clip-rule="evenodd" d="M173.43 113.348C173.43 113.348 171.339 113.272 168.143 116.625C168.143 116.625 169.761 112.063 174.102 112.332L173.436 113.348H173.43Z" fill="#F78F0A"/>
<path fill-rule="evenodd" clip-rule="evenodd" d="M159.738 113.448C159.738 113.448 165.976 113.273 166.788 119.347C166.788 119.347 165.918 116.847 162.214 117.811C162.214 117.811 162.565 115.194 159.738 113.448Z" fill="#F78F0A"/>
<path fill-rule="evenodd" clip-rule="evenodd" d="M48.8347 139.753C48.8347 139.753 50.5579 135.325 47.0005 128.999C43.7119 123.146 39.6464 125.763 39.6639 127.603C39.6814 129.443 40.1487 130.313 40.1487 130.313C40.1487 130.313 34.8214 123.858 31.34 125.576C29.4825 126.499 29.1262 127.749 29.1671 128.66C29.2021 129.367 29.4708 129.869 29.4708 129.869C29.4708 129.869 26.1354 128.987 24.7919 132.41C23.4543 135.833 26.1062 137.317 26.1062 137.317C26.1062 137.317 22.8702 139.788 25.1833 142.393C29.9206 147.726 38.7818 149.601 42.9467 148.129C47.1115 146.657 48.8347 139.747 48.8347 139.747V139.753Z" fill="#FFB400"/>
<path fill-rule="evenodd" clip-rule="evenodd" d="M26.1063 137.317C26.1063 137.317 28.1099 136.716 32.0527 139.14C32.0527 139.14 29.3307 135.138 25.2009 136.505L26.1063 137.317Z" fill="#F78F0A"/>
<path fill-rule="evenodd" clip-rule="evenodd" d="M29.4704 129.862C29.4704 129.862 31.8828 130.066 35.043 132.847C35.043 132.847 32.8349 128.127 29.19 128.139L29.4645 129.868L29.4704 129.862Z" fill="#F78F0A"/>
<path fill-rule="evenodd" clip-rule="evenodd" d="M39.3711 133.93C39.3711 133.93 33.2903 135.349 34.0555 141.43C34.0555 141.43 34.2658 138.79 38.086 138.778C38.086 138.778 37.0813 136.336 39.3711 133.93Z" fill="#F78F0A"/>
<path fill-rule="evenodd" clip-rule="evenodd" d="M40.4761 105.597C40.4761 105.597 40.5298 105.62 40.5626 105.639L40.5583 105.667C38.6985 109.93 36.2449 113.916 33.2797 117.507C32.8693 117.988 32.9362 118.713 33.4176 119.117C33.4622 119.152 33.5068 119.188 33.5525 119.216C33.5772 119.241 33.6089 119.268 33.639 119.258C41.6493 123.213 51.5852 123.544 51.5852 123.544C51.5852 123.544 50.3374 123.981 48.4557 124.492C48.0595 124.603 47.8249 125.01 47.9355 125.406C47.9902 125.608 48.1283 125.78 48.3142 125.873C52.971 128.101 58.735 129.691 65.1598 130.662C80.4155 132.959 99.3346 131.636 115.632 126.439C119.228 125.299 122.731 123.879 126.103 122.196C134.71 117.83 140.787 112.386 144.88 107.466C147.354 104.557 149.4 101.31 150.96 97.8307C151.063 97.5819 150.949 97.2996 150.707 97.1979C150.566 97.1403 150.4 97.1504 150.273 97.231C149.518 97.6725 148.699 97.9753 147.838 98.1287C147.838 98.1287 152.604 93.2983 155.827 87.2497C155.968 86.9853 156.014 86.6849 155.974 86.3854C155.86 85.7382 155.304 85.2589 154.648 85.2436C146.808 85.0066 140.985 80.6454 140.719 80.4254C140.719 80.4254 149.094 70.6148 153.798 53.0193C158.502 35.4237 156.263 22.6731 150.692 18.9087C147.861 16.991 143.139 16.348 137.106 17.7063C131.08 19.0656 123.663 22.3922 115.54 28.3928C99.1936 40.4859 93.2589 47.79 93.2589 47.79C87.6014 47.2245 81.8844 47.6943 76.3969 49.1797C67.7265 41.7607 35.3123 29.2393 22.6171 28.9399C9.93002 28.6345 4.06079 36.0703 5.28713 48.2426C6.50544 60.3279 15.1232 81.4388 26.8463 93.5069C35.703 102.593 39.3432 104.965 40.2713 105.487C40.2853 105.489 40.2993 105.491 40.296 105.512C40.3568 105.536 40.4164 105.567 40.4691 105.596" fill="#FDB201"/>
<path fill-rule="evenodd" clip-rule="evenodd" d="M93.257 47.759C95.2266 47.7911 97.1886 47.9651 99.137 48.273C100.728 48.5328 102.313 47.8116 103.154 46.4391C109.338 36.5049 124.161 22.9248 137.105 17.6253C131.041 18.9502 123.661 22.3112 115.538 28.3118C99.1939 40.4409 93.257 47.759 93.257 47.759Z" fill="#F78F0A"/>
<path fill-rule="evenodd" clip-rule="evenodd" d="M65.1627 130.639C80.4183 132.936 99.3305 131.612 115.635 126.417C116.085 126.286 116.531 126.126 116.971 125.965C117.176 125.889 117.417 125.812 117.623 125.729L118.281 125.494C118.564 125.381 118.856 125.297 119.145 125.184C119.358 125.102 119.541 125.031 119.723 124.959L120.895 124.503C121.078 124.431 121.233 124.355 121.416 124.283C121.551 124.239 121.676 124.173 121.805 124.128C122.009 124.052 122.208 123.968 122.402 123.87C123.077 123.58 123.752 123.284 124.395 122.968C124.788 122.785 125.151 122.613 125.535 122.436C125.716 122.335 125.898 122.263 126.102 122.151C126.102 122.151 126.12 122.14 126.157 122.117L126.185 122.121C134.794 117.748 140.885 112.307 144.957 107.383C136.769 106.478 123.231 105.891 108.629 109.046C91.4583 112.763 80.0616 118.745 72.8641 123.987C70.098 125.964 67.5221 128.192 65.1697 130.64" fill="#F5DCA4"/>
<path fill-rule="evenodd" clip-rule="evenodd" d="M33.5591 119.225C33.5591 119.225 33.6155 119.276 33.6456 119.267C41.656 123.221 51.5919 123.553 51.5919 123.553C51.5919 123.553 50.344 123.99 48.4623 124.501C48.0661 124.611 47.8315 125.019 47.9421 125.415C47.9968 125.617 48.1349 125.788 48.3208 125.881C52.9777 128.109 58.7416 129.7 65.1665 130.67C67.4877 128.238 70.0243 126.033 72.7592 124.073C59.0682 119.935 48.6668 112.607 40.5396 105.701C38.6788 109.971 36.2251 113.956 33.2669 117.549C32.8764 118.039 32.9653 118.761 33.457 119.145C33.4887 119.171 33.5274 119.198 33.5602 119.218" fill="#FDA200"/>
<path fill-rule="evenodd" clip-rule="evenodd" d="M65.1607 130.641C80.4164 132.938 99.3285 131.614 115.633 126.419C116.083 126.288 116.529 126.128 116.969 125.967C117.174 125.891 117.415 125.814 117.621 125.731L118.279 125.496C118.562 125.383 118.854 125.299 119.143 125.186C119.356 125.104 119.539 125.033 119.721 124.961L120.894 124.505C121.076 124.433 121.231 124.357 121.414 124.285C121.549 124.241 121.674 124.175 121.803 124.13C122.008 124.054 122.206 123.971 122.401 123.872C123.075 123.582 123.75 123.286 124.393 122.97C124.786 122.788 125.149 122.615 125.534 122.438C125.714 122.337 125.896 122.265 126.1 122.153C126.1 122.153 126.118 122.142 126.155 122.119L126.127 122.115C120.743 124.138 115.145 125.549 109.451 126.33C95.1221 128.368 83.0451 127.077 72.818 123.996C70.0729 125.976 67.518 128.208 65.1677 130.642" fill="#FFCD7C"/>
<path fill-rule="evenodd" clip-rule="evenodd" d="M145.231 85.3065C144.319 87.3692 144.978 88.3795 147.86 88.3879C150.703 88.4188 153.504 87.6992 155.98 86.3001C155.874 85.6469 155.318 85.1677 154.655 85.1513C146.809 84.9062 140.992 80.5531 140.719 80.332C140.8 80.5019 142.057 82.785 145.231 85.3065Z" fill="#FDA200"/>
<path fill-rule="evenodd" clip-rule="evenodd" d="M55.6287 63.9143C55.6287 63.9143 59.7597 69.6885 60.5861 63.685C61.865 54.4247 53.5884 42.7382 38.1607 37.2453C22.7399 31.7534 12.3588 37.3197 9.87287 42.5806C7.12216 48.4445 10.7973 62.4112 20.4698 77.4752C30.1424 92.5392 40.2831 103.226 47.0061 101.058C41.6051 86.8251 55.6217 63.9132 55.6217 63.9132" fill="#F78F0A"/>
<path fill-rule="evenodd" clip-rule="evenodd" d="M17.9761 69.0206C20.877 75.2559 25.0604 81.7106 29.4829 87.1721C36.2816 95.6401 43.5491 101.719 47.0462 101.079C50.8518 100.385 50.5202 95.6269 52.4326 86.9437C55.2737 74.097 63.4103 66.7106 59.6244 59.6734C58.0975 56.9124 56.1839 54.385 53.9358 52.1708C44.1264 42.3511 28.0317 36.4977 18.8135 39.4891C7.41572 43.1601 11.8016 55.6268 17.9772 69.0136" fill="#F37C00"/>
<path fill-rule="evenodd" clip-rule="evenodd" d="M27.099 81.9403C27.7195 83.7602 28.5078 85.513 29.4531 87.1756C36.2518 95.6435 43.5193 101.723 47.0164 101.082C50.822 100.389 50.4904 95.6304 52.4098 86.9482C55.2509 74.1016 63.3805 66.7141 59.6016 59.678C58.0747 56.9169 56.1611 54.3896 53.913 52.1754C47.5447 48.7531 40.8782 47.1233 35.4463 50.4272C28.339 54.7603 22.7132 69.1946 27.107 81.9344" fill="#ED6C00"/>
<path fill-rule="evenodd" clip-rule="evenodd" d="M51.2791 66.6027C52.1015 65.585 52.2205 64.1654 51.5652 63.0341C50.7965 61.7565 49.383 60.1147 46.7024 58.7567C41.3889 56.0551 40.0285 54.5789 38.4512 52.6543C40.0608 59.0051 46.5461 62.9678 46.5461 62.9678C46.5461 62.9678 42.6547 62.0381 41.1354 63.492C43.2162 63.6844 45.1929 64.5045 46.7877 65.8524C45.8319 66.0196 44.9104 66.3353 44.0651 66.8058C45.6357 67.1984 47.0869 67.5297 48.1742 67.7619C49.3412 67.9419 50.5181 67.5012 51.2861 66.6038" fill="#F37C00"/>
<path fill-rule="evenodd" clip-rule="evenodd" d="M120.301 56.6007C120.301 56.6007 118.202 57.5431 117.423 55.1764C116.643 52.8098 117.453 42.7902 126.845 33.294C135.756 24.3174 144.937 20.7336 148.98 22.9528C153.023 25.1721 152.818 33.4105 152.275 38.3202C151.776 43.2225 120.294 56.5996 120.294 56.5996" fill="#F78F0A"/>
<path fill-rule="evenodd" clip-rule="evenodd" d="M127.728 65.8143C130.763 69.3302 133.614 73.0111 136.258 76.8316C136.258 76.8316 140.959 75.7614 145.41 65.9248C145.502 65.7458 145.58 65.5647 145.652 65.3825C150.185 55.0578 155.689 31.6764 149.822 26.2138C146.269 22.904 136.588 27.6412 128.621 35.5545C123.425 40.712 118.979 47.2228 117.408 53.741C116.519 57.6028 123.036 60.3829 127.727 65.8213" fill="#F37C00"/>
<path fill-rule="evenodd" clip-rule="evenodd" d="M127.728 65.8159C130.762 69.3318 133.614 73.0127 136.258 76.8332C136.258 76.8332 140.959 75.763 145.41 65.9263C148.793 55.5027 148.272 42.7953 144.041 38.036C140.074 33.6107 134.115 32.4048 128.644 35.5453C123.448 40.7028 119.002 47.2137 117.445 53.7339C116.527 57.5985 123.044 60.3785 127.735 65.817" fill="#ED6C00"/>
<path fill-rule="evenodd" clip-rule="evenodd" d="M124.922 56.5477C124.009 55.8345 123.638 54.6253 123.987 53.5203C124.393 52.2809 125.282 50.6009 127.351 48.8742C131.383 45.5116 132.282 43.9978 133.28 42.027C133.138 47.8142 128.321 52.465 128.321 52.465C128.321 52.465 131.493 50.9156 133.101 51.8507C131.34 52.4159 129.798 53.5085 128.683 54.982C129.518 54.9533 130.354 55.0537 131.156 55.2777C129.896 55.9345 128.71 56.5242 127.8 56.906C126.852 57.3463 125.729 57.2087 124.915 56.5466" fill="#F37C00"/>
<path d="M70.0862 113.402C69.6835 113.462 69.3057 113.175 69.2532 112.773C69.2554 112.759 69.2506 112.744 69.2517 112.737C69.2083 112.323 69.5025 111.946 69.9251 111.897C70.3476 111.847 70.7162 112.148 70.7655 112.57C70.8249 112.973 70.5377 113.351 70.1361 113.403C70.1222 113.401 70.1071 113.406 70.1001 113.405" fill="#F5DCA4"/>
<path d="M76.641 117.189C76.2292 117.261 75.8353 116.986 75.7629 116.574C75.6906 116.162 75.966 115.768 76.3778 115.696C76.4079 115.686 76.4439 115.685 76.4729 115.682C76.8874 115.639 77.2641 115.933 77.3074 116.347C77.3669 116.75 77.0797 117.128 76.6781 117.18L76.6432 117.175" fill="#F5DCA4"/>
<path d="M81.157 111.106C80.7425 111.15 80.3658 110.855 80.3166 110.433C80.2673 110.01 80.5674 109.642 80.99 109.592C81.4125 109.543 81.7811 109.843 81.8304 110.266C81.8796 110.688 81.5795 111.057 81.164 111.107" fill="#F5DCA4"/>
<path d="M83.234 108.538C82.8324 108.59 82.4536 108.31 82.4022 107.901C82.4044 107.887 82.4054 107.881 82.4006 107.865C82.3793 107.447 82.7063 107.09 83.1234 107.076C83.5056 107.056 83.8366 107.322 83.9074 107.697C83.9669 108.1 83.6797 108.478 83.2781 108.53C83.2641 108.528 83.2491 108.533 83.2421 108.532" fill="#F5DCA4"/>
<path fill-rule="evenodd" clip-rule="evenodd" d="M138.651 98.3414C138.694 98.7559 139.07 99.0571 139.491 99.0148C139.906 98.9715 140.207 98.5959 140.165 98.1744C140.122 97.7529 139.746 97.4587 139.324 97.501C138.909 97.5513 138.609 97.9199 138.659 98.3355L138.651 98.3414Z" fill="#F5DCA4"/>
<path d="M135.244 102.47C134.826 102.491 134.468 102.164 134.454 101.747C134.434 101.365 134.7 101.034 135.076 100.963C135.491 100.913 135.867 101.214 135.91 101.628C135.962 102.037 135.683 102.409 135.273 102.467C135.259 102.465 135.252 102.464 135.237 102.469" fill="#F5DCA4"/>
<path d="M132.8 100.507C132.398 100.56 132.019 100.28 131.968 99.8711C131.969 99.8641 131.971 99.8501 131.965 99.842C131.893 99.4302 132.168 99.0364 132.58 98.964C132.992 98.8916 133.386 99.167 133.458 99.5788C133.468 99.6089 133.469 99.6449 133.472 99.674C133.525 100.076 133.244 100.454 132.836 100.506C132.822 100.504 132.815 100.503 132.8 100.507Z" fill="#F5DCA4"/>
<path fill-rule="evenodd" clip-rule="evenodd" d="M76.3946 49.1782C78.8079 49.9513 81.1199 51.0092 83.277 52.3294C87.4499 54.9121 91.312 55.2434 95.9594 53.4997C93.5219 52.9303 92.3328 51.781 92.3328 51.781C92.3328 51.781 97.9981 50.5806 100.341 45.2761C98.1908 46.504 95.9139 47.4904 93.5488 48.2128C93.8 48.0226 101.234 42.9173 101.382 35.1922C93.5486 44.042 87.0662 44.2792 87.0662 44.2792C87.6081 43.0393 88.5208 41.9926 89.6737 41.2906C87.382 41.5378 85.1476 42.2017 83.0969 43.2517C80.3956 44.6233 78.0848 46.6633 76.3877 49.1772" fill="#FFE2A4"/>
<path fill-rule="evenodd" clip-rule="evenodd" d="M125.632 114.602C125.632 114.602 121.935 118.531 121.166 122.125C120.39 125.669 119.246 127.102 116.096 127.674C112.789 128.287 104.086 125.206 100.836 119.796C96.9964 113.431 110.695 111.073 115.456 110.542C120.217 110.01 125.632 114.602 125.632 114.602Z" fill="#FDB201"/>
<path fill-rule="evenodd" clip-rule="evenodd" d="M105.708 119.257C105.744 119.349 105.788 119.434 105.847 119.515C108.269 123.387 112.727 124.54 114.59 124.656C116.454 124.772 118.313 124.594 118.787 121.705C118.887 121.241 119.017 120.775 119.179 120.327C120.154 117.853 122.361 115.424 122.361 115.424L117.01 110.414C117.01 110.414 104.026 115.414 105.708 119.257Z" fill="#A60023"/>
<path fill-rule="evenodd" clip-rule="evenodd" d="M105.707 119.256C105.743 119.347 105.787 119.433 105.846 119.514C108.267 123.386 112.725 124.539 114.589 124.654C116.452 124.77 118.311 124.592 118.786 121.704C118.886 121.24 119.015 120.773 119.177 120.326C118.468 119.358 117.563 118.546 116.517 117.955C114.38 116.831 111.678 117.323 111.678 117.323L105.7 119.255L105.707 119.256Z" fill="#DA0739"/>
<path fill-rule="evenodd" clip-rule="evenodd" d="M110.536 117.679C110.536 117.679 112.631 117.96 114.439 121.451C110.78 118.182 108.022 118.622 108.022 118.622L110.529 117.678L110.536 117.679Z" fill="#A60023"/>
<path fill-rule="evenodd" clip-rule="evenodd" d="M89.6707 111.236C89.6707 111.236 88.6642 110.48 87.8372 110.924C85.9648 114.62 89.5609 121.728 98.7852 123.102C107.427 124.4 112.989 119.606 115.205 115.305C105.567 112.351 89.6766 111.244 89.6766 111.244" fill="#F78F0A"/>
<path fill-rule="evenodd" clip-rule="evenodd" d="M128.25 104.912C128.25 104.912 127.736 104.21 129.621 104C132.21 105.723 133.022 111.028 129.879 114.614C127.074 117.815 120.943 118.006 117.725 114.748C120.65 109.984 128.25 104.912 128.25 104.912Z" fill="#F78F0A"/>
<path fill-rule="evenodd" clip-rule="evenodd" d="M88.5481 114.577C91.8866 119.599 97.6653 121.836 104.093 121.118C106.858 120.815 109.505 119.843 111.812 118.296C113.066 117.445 114.208 116.441 115.207 115.3C115.832 114.588 116.852 114.374 117.706 114.777C117.754 114.792 117.8 114.813 117.846 114.842C117.913 114.874 117.971 114.911 118.022 114.955C118.472 115.282 118.959 115.557 119.471 115.765C120.758 116.321 122.171 116.532 123.57 116.369C128.047 115.865 131.26 111.826 130.757 107.348C130.623 106.176 130.238 105.05 129.635 104.049L129.639 104.021L129.337 103.566C128.843 102.875 128.251 102.261 127.579 101.75C127.436 101.656 127.286 101.561 127.171 101.472C125.928 100.579 117.129 97.1465 110.06 97.9371C102.744 98.754 91.6021 107.444 89.4093 108.765C88.628 109.238 88.0853 110.02 87.9032 110.922C87.623 112.181 87.8573 113.49 88.5481 114.577Z" fill="#FDB201"/>
<path fill-rule="evenodd" clip-rule="evenodd" d="M117.846 114.837C117.913 114.869 117.971 114.906 118.022 114.95C121.726 117.51 126.798 116.583 129.359 112.879C131.19 110.236 131.29 106.76 129.618 104.013L129.623 103.985C130.349 106.651 130.203 110.699 126.397 113.438C122.039 116.593 118.587 115.18 117.84 114.829" fill="#FDA200"/>
<path fill-rule="evenodd" clip-rule="evenodd" d="M88.5486 114.573C91.8871 119.595 97.6658 121.832 104.094 121.114C108.402 120.642 112.373 118.55 115.205 115.267C112.788 116.833 107.272 120.038 99.4997 118.71C92.832 117.552 89.5258 114.731 87.8467 110.916C87.6155 112.183 87.8659 113.48 88.5567 114.567" fill="#FDA200"/>
<path fill-rule="evenodd" clip-rule="evenodd" d="M114.051 98.1207C114.051 98.1207 112.001 95.1358 108.315 95.7904C104.575 96.4294 103.374 100.508 103.374 100.508C103.374 100.508 108.813 96.554 114.051 98.1207Z" fill="#FDA200"/>
<path fill-rule="evenodd" clip-rule="evenodd" d="M114.051 98.1197C114.051 98.1197 110.028 97.2056 103.371 100.478C106.135 97.5849 110.867 95.94 114.051 98.1197Z" fill="#F78F0A"/>
<path d="M93.4986 113.765C93.096 113.825 92.7182 113.537 92.6657 113.136C92.6679 113.122 92.669 113.115 92.6641 113.1C92.6208 112.685 92.915 112.309 93.3375 112.259C93.752 112.216 94.1287 112.51 94.178 112.933C94.2304 113.334 93.9502 113.713 93.5416 113.765C93.5277 113.763 93.5207 113.761 93.5056 113.766" fill="#F5DCA4"/>
<path d="M125.334 103.832C124.932 103.885 124.553 103.605 124.502 103.196C124.504 103.182 124.505 103.175 124.5 103.16C124.479 102.742 124.806 102.384 125.223 102.37C125.605 102.35 125.935 102.623 126.007 102.992C126.067 103.395 125.779 103.772 125.378 103.825C125.364 103.823 125.349 103.827 125.342 103.826" fill="#F5DCA4"/>
<path d="M127.211 109.653C126.793 109.674 126.436 109.347 126.421 108.93C126.402 108.548 126.667 108.217 127.043 108.146C127.458 108.103 127.834 108.397 127.883 108.819C127.936 109.221 127.656 109.6 127.247 109.651C127.233 109.649 127.226 109.648 127.211 109.653Z" fill="#F5DCA4"/>
<path d="M123.867 112.687C123.455 112.76 123.061 112.484 122.989 112.073C122.917 111.661 123.192 111.267 123.604 111.195C123.634 111.185 123.67 111.183 123.699 111.181C124.115 111.13 124.49 111.431 124.534 111.846C124.592 112.256 124.306 112.626 123.903 112.686C123.889 112.684 123.874 112.688 123.867 112.687Z" fill="#F5DCA4"/>
<path fill-rule="evenodd" clip-rule="evenodd" d="M103.975 107.61C103.996 108.029 104.346 108.354 104.764 108.333C105.183 108.312 105.509 107.962 105.487 107.543C105.493 107.508 105.483 107.478 105.473 107.448C105.415 107.039 105.046 106.738 104.632 106.782C104.217 106.825 103.916 107.201 103.967 107.616" fill="#F5DCA4"/>
<path fill-rule="evenodd" clip-rule="evenodd" d="M101.814 114.385C101.858 114.8 102.233 115.101 102.648 115.057C103.058 114.999 103.351 114.629 103.314 114.216C103.271 113.802 102.895 113.5 102.481 113.544C102.071 113.602 101.771 113.971 101.807 114.384" fill="#F5DCA4"/>
<path d="M107.444 115.548C107.041 115.608 106.664 115.321 106.611 114.919C106.613 114.905 106.608 114.89 106.609 114.883C106.566 114.469 106.86 114.092 107.283 114.043C107.697 113.999 108.074 114.294 108.123 114.716C108.183 115.119 107.896 115.496 107.494 115.549C107.48 115.547 107.465 115.552 107.458 115.551" fill="#F5DCA4"/>
<path fill-rule="evenodd" clip-rule="evenodd" d="M112.603 110.59C111.675 110.347 110.802 109.933 110.014 109.382C108.391 108.266 107.42 105.884 109.272 104.453C110.277 103.692 111.543 103.602 112.756 103.438C114.122 103.256 115.5 103.132 116.875 103.029C117.841 102.978 118.888 102.968 119.741 103.558C120.62 104.122 121.108 105.128 121.006 106.164C120.816 107.902 119.256 109.249 117.811 110.035C116.219 110.898 114.343 111.095 112.603 110.59Z" fill="#070809"/>
<path d="M112.136 107.317C110.979 107.446 109.97 106.932 109.886 106.182C109.801 105.432 110.693 104.704 111.83 104.572C112.972 104.448 113.995 104.957 114.079 105.713C114.162 106.47 113.293 107.188 112.136 107.317Z" fill="white"/>
<path fill-rule="evenodd" clip-rule="evenodd" d="M96.6013 86.9961C96.6013 86.9961 92.9541 77.7625 84.903 77.0852C79.4353 76.6348 75.2919 81.2322 74.5521 86.0257C74.0069 89.6974 74.5798 93.4487 76.1892 96.7876C88.916 88.1208 96.6024 86.9891 96.6024 86.9891" fill="#F78F0A"/>
<path fill-rule="evenodd" clip-rule="evenodd" d="M98.3436 93.2822C97.4857 86.3248 93.3448 79.7336 87.2548 78.8653C81.1648 77.9969 75.8166 81.7788 75.2041 88.9456C74.6399 95.476 77.5353 100.773 79.5906 102.614C77.7421 103.467 75.6525 103.702 73.3201 103.75C77.4802 104.7 82.0816 104.923 86.2713 102.436C89.6405 100.445 93.8599 98.9716 97.5461 98.589C98.0277 98.5274 98.3892 98.1325 98.4136 97.6498C98.4949 96.1957 98.4703 94.7325 98.3436 93.2822Z" fill="#FDA200"/>
<path fill-rule="evenodd" clip-rule="evenodd" d="M77.4913 96.0461C78.2563 98.0886 79.2875 100.029 80.5585 101.806C80.9496 102.332 81.6435 102.517 82.2403 102.266C82.3688 102.222 82.4715 102.159 82.607 102.115C84.1543 101.453 85.7883 100.646 87.6567 99.8041C90.3784 98.5786 93.4797 98.0915 95.83 97.8819L96.0192 97.861C96.7938 97.8017 97.3704 97.1252 97.3181 96.3516C97.1256 94.1685 96.6917 90.9538 95.5495 88.5741C93.6946 84.6464 89.3649 80.7159 83.6011 82.2302C77.8373 83.7444 75.674 91.1799 77.4924 96.0391" fill="white"/>
<mask id="mask3_0_1942" style="mask-type:luminance" maskUnits="userSpaceOnUse" x="76" y="81" width="22" height="22">
<path d="M77.4923 96.0402C78.2573 98.0828 79.2885 100.023 80.5595 101.8C80.9506 102.326 81.6445 102.512 82.2413 102.26C82.3698 102.216 82.4725 102.153 82.6079 102.109C84.1553 101.447 85.7893 100.64 87.6577 99.7982C90.3793 98.5728 93.4807 98.0856 95.831 97.876L96.0202 97.8551C96.7948 97.7958 97.3714 97.1193 97.3191 96.3458C97.1266 94.1627 96.6927 90.9479 95.5504 88.5682C93.6956 84.6405 89.3659 80.7101 83.6021 82.2243C77.8383 83.7386 75.6749 91.174 77.4933 96.0333" fill="white"/>
</mask>
<g mask="url(#mask3_0_1942)">
<path fill-rule="evenodd" clip-rule="evenodd" d="M85.7448 96.9501C89.1766 102.48 93.8334 101.325 95.149 100.726C97.2244 99.7948 102.178 96.8535 98.0086 88.455C96.2944 85.0069 91.4978 82.7572 87.7082 84.7836C83.9176 86.8169 83.3553 92.5464 85.7448 96.9501Z" fill="#111111" stroke="#474747" stroke-width="1.81664" stroke-miterlimit="10"/>
<path d="M86.6969 91.9814C85.6449 91.9836 84.8004 90.8732 84.8027 89.5142C84.8038 88.1623 85.6403 87.0537 86.6992 87.0526C87.7512 87.0504 88.5946 88.1678 88.5935 89.5198C88.5923 90.8717 87.7629 91.9814 86.6969 91.9814Z" fill="white"/>
<path d="M87.4408 95.4597C87.0617 95.7374 86.4361 95.5264 86.0471 94.9871C85.6501 94.4536 85.6236 93.7914 86.0027 93.5136C86.3818 93.2359 87.0063 93.4539 87.3963 93.9863C87.7933 94.5197 87.8199 95.182 87.4408 95.4597Z" fill="white"/>
</g>
<path fill-rule="evenodd" clip-rule="evenodd" d="M114.316 85.3953C114.316 85.3953 112.498 89.1068 112.139 85.6389C111.452 79.0154 116.704 73.1226 122.2 74.0852C128.701 75.2101 129.954 82.0639 129.956 87.4298C124.492 87.2804 114.316 85.3953 114.316 85.3953Z" fill="#F78F0A"/>
<path fill-rule="evenodd" clip-rule="evenodd" d="M112.368 89.7202C110.812 79.6861 116.839 75.4439 120.668 75.5269C126.328 75.6634 129.606 80.934 129.935 87.0084C130.271 93.177 128.912 95.3996 128.912 95.3996C128.912 95.3996 129.886 95.8576 133.282 95.2657C131.149 96.6177 128.307 98.0248 124.202 96.8547C121.378 96.0971 118.436 95.8791 115.523 96.2094C114.945 96.3419 114.352 96.0572 114.084 95.5222C113.246 93.6759 112.668 91.7195 112.369 89.7132" fill="#FDA200"/>
<path fill-rule="evenodd" clip-rule="evenodd" d="M112.954 89.8845C113.034 90.3403 113.134 90.7634 113.202 91.1532C113.247 91.2817 113.258 91.4408 113.301 91.5763C113.558 92.6031 113.905 93.601 114.343 94.5629C114.573 95.0634 115.102 95.3454 115.644 95.2644C117.568 94.939 120.556 94.6346 123.316 95.1966C123.76 95.2865 124.183 95.3733 124.57 95.4616C124.956 95.5569 125.326 95.6211 125.687 95.6911C126.248 95.8064 126.815 95.5218 127.054 94.9935C127.828 93.2173 128.373 90.7115 127.997 87.3484C127.33 81.3791 123.508 77.9134 118.995 78.4187C114.474 78.9229 111.865 83.8215 112.953 89.8914" fill="white"/>
<mask id="mask4_0_1942" style="mask-type:luminance" maskUnits="userSpaceOnUse" x="112" y="78" width="17" height="18">
<path d="M112.956 89.8864C113.036 90.3423 113.135 90.7654 113.204 91.1551C113.249 91.2836 113.26 91.4428 113.303 91.5782C113.56 92.6051 113.907 93.6029 114.345 94.5648C114.575 95.0654 115.104 95.3473 115.646 95.2664C117.57 94.941 120.558 94.6365 123.318 95.1985C123.762 95.2885 124.185 95.3752 124.572 95.4636C124.958 95.5589 125.327 95.623 125.689 95.6931C126.25 95.8084 126.817 95.5238 127.055 94.9955C127.83 93.2192 128.374 90.7134 127.999 87.3503C127.332 81.3811 123.51 77.9153 118.997 78.4206C114.476 78.9249 111.867 83.8234 112.955 89.8934" fill="white"/>
</mask>
<g mask="url(#mask4_0_1942)">
<path fill-rule="evenodd" clip-rule="evenodd" d="M117.647 89.3977C118.468 95.8556 121.916 95.8583 123.844 96.02C125.736 96.1832 129.935 95.7223 130.223 87.9689C130.393 83.3879 127.914 79.6143 122.708 80.1988C118.816 80.6641 117.017 86.1097 117.647 89.3977Z" fill="#111111" stroke="#474747" stroke-width="1.81664" stroke-miterlimit="10"/>
<path d="M120.559 86.9778C119.524 86.7752 118.908 85.5283 119.163 84.2012C119.418 82.8741 120.456 81.9398 121.491 82.1424C122.526 82.345 123.142 83.5919 122.887 84.919C122.632 86.2461 121.593 87.1804 120.559 86.9778Z" fill="white"/>
<path d="M121.513 89.9471C121.154 90.235 120.586 90.1116 120.231 89.6777C119.876 89.2437 119.874 88.6567 120.233 88.3687C120.592 88.0808 121.16 88.2042 121.515 88.6381C121.87 89.0721 121.872 89.6591 121.513 89.9471Z" fill="white"/>
</g>
<path fill-rule="evenodd" clip-rule="evenodd" d="M84.0343 71.2516C81.7424 73.1229 78.8629 73.9805 76.9775 74.3763C76.4743 74.4847 75.9789 74.1721 75.8694 73.6759C75.819 73.4464 75.8578 73.1948 75.9751 72.9911C76.1118 72.7547 76.242 72.4671 76.4039 72.206C77.3832 70.218 78.2211 68.1725 78.9317 66.0716C79.976 63.0134 82.8771 61.923 84.8813 62.5185C85.3489 62.6407 85.774 62.8995 86.1061 63.2512C87.8608 65.0458 87.0033 68.8411 84.0354 71.2447" fill="#F78F0A"/>
<path fill-rule="evenodd" clip-rule="evenodd" d="M116.576 67.6106C119.227 68.9283 122.215 69.1319 124.151 69.1016C124.667 69.0954 125.076 68.672 125.07 68.1559C125.069 67.9269 124.976 67.6979 124.816 67.5301C124.632 67.3301 124.442 67.0789 124.225 66.8595C122.832 65.1349 121.558 63.3287 120.405 61.4338C118.705 58.6819 115.636 58.2654 113.819 59.287C113.39 59.5142 113.03 59.8521 112.787 60.2724C111.47 62.4085 113.145 65.9222 116.576 67.6106Z" fill="#F78F0A"/>
<path fill-rule="evenodd" clip-rule="evenodd" d="M79.5838 78.4427C77.1226 80.252 73.946 80.7634 71.0426 79.8288C71.0426 79.8288 75.3748 83.0013 76.449 81.5574C75.1284 82.3266 73.5302 82.4376 72.1178 81.8548C72.1178 81.8548 74.3435 83.5647 75.9717 82.564C75.1328 83.2716 73.999 83.5259 72.9342 83.2399C72.9342 83.2399 74.7339 84.4191 75.4346 83.912C75.4367 83.898 76.3802 80.2877 79.5838 78.4427Z" fill="#F99108"/>
<path fill-rule="evenodd" clip-rule="evenodd" d="M123.258 74.3863C126.053 75.6046 129.267 75.4067 131.889 73.8512C131.889 73.8512 128.916 77.1697 127.312 76.9007C128.696 77.2502 130.168 76.9407 131.296 76.0704C131.296 76.0704 129.821 78.6328 128.011 78.0315C128.011 78.0315 128.926 79.2387 130.808 77.6119C130.808 77.6119 129.192 79.8307 128.399 79.5008C128.399 79.5008 126.804 75.513 123.257 74.3933" fill="#F99108"/>
</svg>
