<svg width="34" height="40" viewBox="0 0 34 40" fill="none" xmlns="http://www.w3.org/2000/svg">
<g id="&#240;&#159;&#166;&#134; emoji &#34;raised hand default&#34;">
<path id="Vector" d="M11.84 3.52712C11.7952 1.62448 13.3014 0.0457678 15.204 0.000973256C17.1066 -0.043807 18.6853 1.46227 18.7301 3.36493L18.7628 4.75279C19.3702 3.681 20.5357 2.97285 21.8526 3.01147C23.7502 3.06712 25.2424 4.65216 25.1836 6.54966L24.8192 18.326L26.8881 15.7593C28.131 14.2175 30.3875 13.9732 31.9314 15.2136C33.4788 16.4568 33.7237 18.7197 32.478 20.265L31.5893 21.3676L31.5806 21.3803C30.7636 22.4267 29.0909 24.5691 26.9923 28.0334C26.3153 29.0489 25.7272 30.1335 25.1401 31.2163C24.3029 32.7603 23.4678 34.3004 22.3801 35.6304C20.2183 38.2961 16.9165 40 13.2169 40C8.73049 40 4.8293 37.4945 2.83625 33.8064L2.82961 33.8178C1.01297 30.5635 0.745482 26.9635 0.656321 25.0355L0.460709 21.5519C0.449753 21.4625 0.442263 21.372 0.438369 21.2803L0.00304908 11.0242C-0.0745853 9.19531 1.33972 7.64724 3.16814 7.55972C4.21182 7.50976 5.16617 7.9463 5.81146 8.66966L5.74437 6.66415C5.68271 4.82112 7.12679 3.27708 8.96987 3.21542C10.173 3.17517 11.2488 3.77673 11.868 4.71208L11.84 3.52712Z" fill="#FFC23E"/>
<path id="Vector_2" d="M11.84 3.52712C11.7952 1.62448 13.3014 0.0457678 15.204 0.000973256C17.1066 -0.043807 18.6853 1.46227 18.7301 3.36493L18.7628 4.75279C19.3702 3.681 20.5357 2.97285 21.8526 3.01147C23.7502 3.06712 25.2424 4.65216 25.1836 6.54966L24.8192 18.326L26.8881 15.7593C28.131 14.2175 30.3875 13.9732 31.9314 15.2136C33.4788 16.4568 33.7237 18.7197 32.478 20.265L31.5893 21.3676L31.5806 21.3803C30.7636 22.4267 29.0909 24.5691 26.9923 28.0334C26.3153 29.0489 25.7272 30.1335 25.1401 31.2163C24.3029 32.7603 23.4678 34.3004 22.3801 35.6304C20.2183 38.2961 16.9165 40 13.2169 40C8.73049 40 4.8293 37.4945 2.83625 33.8064L2.82961 33.8178C1.01297 30.5635 0.745482 26.9635 0.656321 25.0355L0.460709 21.5519C0.449753 21.4625 0.442263 21.372 0.438369 21.2803L0.00304908 11.0242C-0.0745853 9.19531 1.33972 7.64724 3.16814 7.55972C4.21182 7.50976 5.16617 7.9463 5.81146 8.66966L5.74437 6.66415C5.68271 4.82112 7.12679 3.27708 8.96987 3.21542C10.173 3.17517 11.2488 3.77673 11.868 4.71208L11.84 3.52712Z" fill="url(#paint0_radial_0_4077)"/>
<path id="Vector_3" d="M11.84 3.52712C11.7952 1.62448 13.3014 0.0457678 15.204 0.000973256C17.1066 -0.043807 18.6853 1.46227 18.7301 3.36493L18.7628 4.75279C19.3702 3.681 20.5357 2.97285 21.8526 3.01147C23.7502 3.06712 25.2424 4.65216 25.1836 6.54966L24.8192 18.326L26.8881 15.7593C28.131 14.2175 30.3875 13.9732 31.9314 15.2136C33.4788 16.4568 33.7237 18.7197 32.478 20.265L31.5893 21.3676L31.5806 21.3803C30.7636 22.4267 29.0909 24.5691 26.9923 28.0334C26.3153 29.0489 25.7272 30.1335 25.1401 31.2163C24.3029 32.7603 23.4678 34.3004 22.3801 35.6304C20.2183 38.2961 16.9165 40 13.2169 40C8.73049 40 4.8293 37.4945 2.83625 33.8064L2.82961 33.8178C1.01297 30.5635 0.745482 26.9635 0.656321 25.0355L0.460709 21.5519C0.449753 21.4625 0.442263 21.372 0.438369 21.2803L0.00304908 11.0242C-0.0745853 9.19531 1.33972 7.64724 3.16814 7.55972C4.21182 7.50976 5.16617 7.9463 5.81146 8.66966L5.74437 6.66415C5.68271 4.82112 7.12679 3.27708 8.96987 3.21542C10.173 3.17517 11.2488 3.77673 11.868 4.71208L11.84 3.52712Z" fill="url(#paint1_radial_0_4077)"/>
<path id="Vector_4" d="M11.84 3.52712C11.7952 1.62448 13.3014 0.0457678 15.204 0.000973256C17.1066 -0.043807 18.6853 1.46227 18.7301 3.36493L18.7628 4.75279C19.3702 3.681 20.5357 2.97285 21.8526 3.01147C23.7502 3.06712 25.2424 4.65216 25.1836 6.54966L24.8192 18.326L26.8881 15.7593C28.131 14.2175 30.3875 13.9732 31.9314 15.2136C33.4788 16.4568 33.7237 18.7197 32.478 20.265L31.5893 21.3676L31.5806 21.3803C30.7636 22.4267 29.0909 24.5691 26.9923 28.0334C26.3153 29.0489 25.7272 30.1335 25.1401 31.2163C24.3029 32.7603 23.4678 34.3004 22.3801 35.6304C20.2183 38.2961 16.9165 40 13.2169 40C8.73049 40 4.8293 37.4945 2.83625 33.8064L2.82961 33.8178C1.01297 30.5635 0.745482 26.9635 0.656321 25.0355L0.460709 21.5519C0.449753 21.4625 0.442263 21.372 0.438369 21.2803L0.00304908 11.0242C-0.0745853 9.19531 1.33972 7.64724 3.16814 7.55972C4.21182 7.50976 5.16617 7.9463 5.81146 8.66966L5.74437 6.66415C5.68271 4.82112 7.12679 3.27708 8.96987 3.21542C10.173 3.17517 11.2488 3.77673 11.868 4.71208L11.84 3.52712Z" fill="url(#paint2_radial_0_4077)"/>
<path id="Vector_5" d="M11.84 3.52712C11.7952 1.62448 13.3014 0.0457678 15.204 0.000973256C17.1066 -0.043807 18.6853 1.46227 18.7301 3.36493L18.7628 4.75279C19.3702 3.681 20.5357 2.97285 21.8526 3.01147C23.7502 3.06712 25.2424 4.65216 25.1836 6.54966L24.8192 18.326L26.8881 15.7593C28.131 14.2175 30.3875 13.9732 31.9314 15.2136C33.4788 16.4568 33.7237 18.7197 32.478 20.265L31.5893 21.3676L31.5806 21.3803C30.7636 22.4267 29.0909 24.5691 26.9923 28.0334C26.3153 29.0489 25.7272 30.1335 25.1401 31.2163C24.3029 32.7603 23.4678 34.3004 22.3801 35.6304C20.2183 38.2961 16.9165 40 13.2169 40C8.73049 40 4.8293 37.4945 2.83625 33.8064L2.82961 33.8178C1.01297 30.5635 0.745482 26.9635 0.656321 25.0355L0.460709 21.5519C0.449753 21.4625 0.442263 21.372 0.438369 21.2803L0.00304908 11.0242C-0.0745853 9.19531 1.33972 7.64724 3.16814 7.55972C4.21182 7.50976 5.16617 7.9463 5.81146 8.66966L5.74437 6.66415C5.68271 4.82112 7.12679 3.27708 8.96987 3.21542C10.173 3.17517 11.2488 3.77673 11.868 4.71208L11.84 3.52712Z" fill="url(#paint3_radial_0_4077)"/>
<path id="Vector_6" d="M0.270717 17.3308L0.00304908 11.0244C-0.0745853 9.19555 1.33972 7.64749 3.16814 7.55996C4.21182 7.51002 5.16617 7.94654 5.81146 8.6699L5.81107 8.65806C6.0661 8.99597 6.45632 9.71843 6.51866 10.7922C6.5989 12.1742 6.76013 15.5957 6.83072 17.1338L0.270717 17.3308Z" fill="url(#paint4_linear_0_4077)"/>
<path id="Vector_7" d="M0.270717 17.3308L0.00304908 11.0244C-0.0745853 9.19555 1.33972 7.64749 3.16814 7.55996C4.21182 7.51002 5.16617 7.94654 5.81146 8.6699L5.81107 8.65806C6.0661 8.99597 6.45632 9.71843 6.51866 10.7922C6.5989 12.1742 6.76013 15.5957 6.83072 17.1338L0.270717 17.3308Z" fill="url(#paint5_linear_0_4077)"/>
<path id="Vector_8" d="M0.270717 17.3308L0.00304908 11.0244C-0.0745853 9.19555 1.33972 7.64749 3.16814 7.55996C4.21182 7.51002 5.16617 7.94654 5.81146 8.6699L5.81107 8.65806C6.0661 8.99597 6.45632 9.71843 6.51866 10.7922C6.5989 12.1742 6.76013 15.5957 6.83072 17.1338L0.270717 17.3308Z" fill="url(#paint6_radial_0_4077)"/>
<g id="Group">
<path id="Vector_9" d="M4.23415 10.6581C4.091 9.13125 3.32024 8.80808 2.67383 8.80808C4.41247 8.05021 5.70531 9.07556 5.83905 10.6581L6.3963 18.0585L3.61002 20.8003L4.70224 17.6796C4.70224 15.9261 4.36789 12.0848 4.23415 10.6581Z" fill="#FFD93F"/>
</g>
<path id="Vector_10" d="M5.81078 8.65661C6.06583 8.99454 6.45602 9.717 6.51838 10.7907C6.56802 11.6458 6.8481 16.3872 7.00694 18.8407L12.9671 17.1685L12.3347 7.35295C12.3101 6.4525 12.3186 5.51981 11.8676 4.71088C11.2486 3.77553 10.1727 3.17399 8.96953 3.21424C7.1265 3.2759 5.68243 4.81994 5.74409 6.66295L5.81078 8.65661Z" fill="url(#paint7_linear_0_4077)"/>
<path id="Vector_11" d="M5.81078 8.65661C6.06583 8.99454 6.45602 9.717 6.51838 10.7907C6.56802 11.6458 6.8481 16.3872 7.00694 18.8407L12.9671 17.1685L12.3347 7.35295C12.3101 6.4525 12.3186 5.51981 11.8676 4.71088C11.2486 3.77553 10.1727 3.17399 8.96953 3.21424C7.1265 3.2759 5.68243 4.81994 5.74409 6.66295L5.81078 8.65661Z" fill="url(#paint8_linear_0_4077)"/>
<path id="Vector_12" d="M5.81078 8.65661C6.06583 8.99454 6.45602 9.717 6.51838 10.7907C6.56802 11.6458 6.8481 16.3872 7.00694 18.8407L12.9671 17.1685L12.3347 7.35295C12.3101 6.4525 12.3186 5.51981 11.8676 4.71088C11.2486 3.77553 10.1727 3.17399 8.96953 3.21424C7.1265 3.2759 5.68243 4.81994 5.74409 6.66295L5.81078 8.65661Z" fill="url(#paint9_linear_0_4077)"/>
<path id="Vector_13" d="M5.81078 8.65661C6.06583 8.99454 6.45602 9.717 6.51838 10.7907C6.56802 11.6458 6.8481 16.3872 7.00694 18.8407L12.9671 17.1685L12.3347 7.35295C12.3101 6.4525 12.3186 5.51981 11.8676 4.71088C11.2486 3.77553 10.1727 3.17399 8.96953 3.21424C7.1265 3.2759 5.68243 4.81994 5.74409 6.66295L5.81078 8.65661Z" fill="url(#paint10_radial_0_4077)"/>
<g id="Group_2">
<path id="Vector_14" d="M9.93734 6.11448C9.79411 4.5876 9.02334 4.26443 8.37695 4.26443C10.1157 3.50657 11.4084 4.53193 11.5422 6.11448L12.1532 15.6276L9.2804 16.9567L10.1017 15.1383C10.3516 14.5846 10.4827 13.9856 10.4583 13.3787C10.3706 11.2012 10.0522 7.33937 9.93734 6.11448Z" fill="#FFD141"/>
</g>
<path id="Vector_15" d="M18.3854 6.13927C18.3854 5.48685 18.6231 4.9073 18.7624 4.7457L18.7633 4.74068L18.7309 3.36493C18.6862 1.46227 17.1075 -0.043807 15.2048 0.000973256C13.3022 0.0457678 11.796 1.62448 11.8408 3.52712L11.8688 4.71205C12.289 5.46612 12.3103 6.32776 12.3311 7.17054C12.3949 9.75321 12.7173 13.1228 12.8834 15.7011H18.2139C18.2496 12.8963 18.3854 7.05827 18.3854 6.13927Z" fill="url(#paint11_linear_0_4077)"/>
<path id="Vector_16" d="M18.3854 6.13927C18.3854 5.48685 18.6231 4.9073 18.7624 4.7457L18.7633 4.74068L18.7309 3.36493C18.6862 1.46227 17.1075 -0.043807 15.2048 0.000973256C13.3022 0.0457678 11.796 1.62448 11.8408 3.52712L11.8688 4.71205C12.289 5.46612 12.3103 6.32776 12.3311 7.17054C12.3949 9.75321 12.7173 13.1228 12.8834 15.7011H18.2139C18.2496 12.8963 18.3854 7.05827 18.3854 6.13927Z" fill="url(#paint12_linear_0_4077)"/>
<path id="Vector_17" d="M18.3854 6.13927C18.3854 5.48685 18.6231 4.9073 18.7624 4.7457L18.7633 4.74068L18.7309 3.36493C18.6862 1.46227 17.1075 -0.043807 15.2048 0.000973256C13.3022 0.0457678 11.796 1.62448 11.8408 3.52712L11.8688 4.71205C12.289 5.46612 12.3103 6.32776 12.3311 7.17054C12.3949 9.75321 12.7173 13.1228 12.8834 15.7011H18.2139C18.2496 12.8963 18.3854 7.05827 18.3854 6.13927Z" fill="url(#paint13_linear_0_4077)"/>
<path id="Vector_18" d="M18.3854 6.13927C18.3854 5.48685 18.6231 4.9073 18.7624 4.7457L18.7633 4.74068L18.7309 3.36493C18.6862 1.46227 17.1075 -0.043807 15.2048 0.000973256C13.3022 0.0457678 11.796 1.62448 11.8408 3.52712L11.8688 4.71205C12.289 5.46612 12.3103 6.32776 12.3311 7.17054C12.3949 9.75321 12.7173 13.1228 12.8834 15.7011H18.2139C18.2496 12.8963 18.3854 7.05827 18.3854 6.13927Z" fill="url(#paint14_radial_0_4077)"/>
<g id="Group_3">
<path id="Vector_19" d="M15.8379 1.4664V15.889H17.5538C17.6311 12.8591 17.7856 6.26156 17.7856 4.10977C17.7856 1.95797 16.4871 1.45094 15.8379 1.4664Z" fill="#FFD140"/>
</g>
<path id="Vector_20" d="M18.7616 4.74512C18.6222 4.90674 18.3844 5.48629 18.3844 6.13869C18.3844 9.85608 18.2129 12.587 18.2129 16.3049L24.8191 21.0352V18.3228L25.1836 6.54909C25.2424 4.65158 23.75 3.06655 21.8525 3.0109C20.5356 2.97229 19.3701 3.68042 18.7627 4.75223L18.7624 4.74223L18.7616 4.74512Z" fill="url(#paint15_linear_0_4077)"/>
<path id="Vector_21" d="M18.7616 4.74512C18.6222 4.90674 18.3844 5.48629 18.3844 6.13869C18.3844 9.85608 18.2129 12.587 18.2129 16.3049L24.8191 21.0352V18.3228L25.1836 6.54909C25.2424 4.65158 23.75 3.06655 21.8525 3.0109C20.5356 2.97229 19.3701 3.68042 18.7627 4.75223L18.7624 4.74223L18.7616 4.74512Z" fill="url(#paint16_linear_0_4077)"/>
<path id="Vector_22" d="M18.7616 4.74512C18.6222 4.90674 18.3844 5.48629 18.3844 6.13869C18.3844 9.85608 18.2129 12.587 18.2129 16.3049L24.8191 21.0352V18.3228L25.1836 6.54909C25.2424 4.65158 23.75 3.06655 21.8525 3.0109C20.5356 2.97229 19.3701 3.68042 18.7627 4.75223L18.7624 4.74223L18.7616 4.74512Z" fill="url(#paint17_radial_0_4077)"/>
<g id="Group_4">
<path id="Vector_23" d="M22.4492 4.42002V18.8426H24.165C24.2423 15.8128 24.3969 9.21517 24.3969 7.06338C24.3969 4.91159 23.0985 4.40457 22.4492 4.42002Z" fill="#FFDD3B"/>
</g>
<path id="Vector_24" d="M24.9966 18.1049L26.888 15.7585C28.1308 14.2168 30.3874 13.9725 31.9312 15.2128C33.4786 16.4561 33.7234 18.7191 32.4777 20.2643L31.5891 21.3669L31.5804 21.3796C30.7634 22.426 29.0907 24.5685 26.9921 28.0328C26.3824 28.9473 25.8447 29.9181 25.3149 30.893C20.8103 28.4853 21.4672 23.9559 22.47 21.8234L24.9966 18.1049Z" fill="url(#paint18_radial_0_4077)"/>
<g id="Group_5">
<path id="Vector_25" d="M11.1543 16.5365C16.3483 15.1453 23.1654 17.7577 24.0929 19.0871V22.0551C20.8466 18.1133 15.5136 16.954 11.1543 16.5365Z" fill="url(#paint19_linear_0_4077)"/>
</g>
<path id="Vector_26" d="M11.84 3.52712C11.7952 1.62448 13.3014 0.0457678 15.204 0.000973256C17.1066 -0.043807 18.6853 1.46227 18.7301 3.36493L18.7628 4.75279C19.3702 3.681 20.5357 2.97285 21.8526 3.01147C23.7502 3.06712 25.2424 4.65216 25.1836 6.54966L24.8192 18.326L26.8881 15.7593C28.131 14.2175 30.3875 13.9732 31.9314 15.2136C33.4788 16.4568 33.7237 18.7197 32.478 20.265L31.5893 21.3676L31.5806 21.3803C30.7636 22.4267 29.0909 24.5691 26.9923 28.0334C26.3153 29.0489 25.7272 30.1335 25.1401 31.2163C24.3029 32.7603 23.4678 34.3004 22.3801 35.6304C20.2183 38.2961 16.9165 40 13.2169 40C8.73049 40 4.8293 37.4945 2.83625 33.8064L2.82961 33.8178C1.01297 30.5635 0.745482 26.9635 0.656321 25.0355L0.460709 21.5519C0.449753 21.4625 0.442263 21.372 0.438369 21.2803L0.00304908 11.0242C-0.0745853 9.19531 1.33972 7.64724 3.16814 7.55972C4.21182 7.50976 5.16617 7.9463 5.81146 8.66966L5.74437 6.66415C5.68271 4.82112 7.12679 3.27708 8.96987 3.21542C10.173 3.17517 11.2488 3.77673 11.868 4.71208L11.84 3.52712Z" fill="url(#paint20_radial_0_4077)"/>
<path id="Vector_27" d="M11.84 3.52712C11.7952 1.62448 13.3014 0.0457678 15.204 0.000973256C17.1066 -0.043807 18.6853 1.46227 18.7301 3.36493L18.7628 4.75279C19.3702 3.681 20.5357 2.97285 21.8526 3.01147C23.7502 3.06712 25.2424 4.65216 25.1836 6.54966L24.8192 18.326L26.8881 15.7593C28.131 14.2175 30.3875 13.9732 31.9314 15.2136C33.4788 16.4568 33.7237 18.7197 32.478 20.265L31.5893 21.3676L31.5806 21.3803C30.7636 22.4267 29.0909 24.5691 26.9923 28.0334C26.3153 29.0489 25.7272 30.1335 25.1401 31.2163C24.3029 32.7603 23.4678 34.3004 22.3801 35.6304C20.2183 38.2961 16.9165 40 13.2169 40C8.73049 40 4.8293 37.4945 2.83625 33.8064L2.82961 33.8178C1.01297 30.5635 0.745482 26.9635 0.656321 25.0355L0.460709 21.5519C0.449753 21.4625 0.442263 21.372 0.438369 21.2803L0.00304908 11.0242C-0.0745853 9.19531 1.33972 7.64724 3.16814 7.55972C4.21182 7.50976 5.16617 7.9463 5.81146 8.66966L5.74437 6.66415C5.68271 4.82112 7.12679 3.27708 8.96987 3.21542C10.173 3.17517 11.2488 3.77673 11.868 4.71208L11.84 3.52712Z" fill="url(#paint21_radial_0_4077)"/>
<path id="Vector_28" d="M11.84 3.52712C11.7952 1.62448 13.3014 0.0457678 15.204 0.000973256C17.1066 -0.043807 18.6853 1.46227 18.7301 3.36493L18.7628 4.75279C19.3702 3.681 20.5357 2.97285 21.8526 3.01147C23.7502 3.06712 25.2424 4.65216 25.1836 6.54966L24.8192 18.326L26.8881 15.7593C28.131 14.2175 30.3875 13.9732 31.9314 15.2136C33.4788 16.4568 33.7237 18.7197 32.478 20.265L31.5893 21.3676L31.5806 21.3803C30.7636 22.4267 29.0909 24.5691 26.9923 28.0334C26.3153 29.0489 25.7272 30.1335 25.1401 31.2163C24.3029 32.7603 23.4678 34.3004 22.3801 35.6304C20.2183 38.2961 16.9165 40 13.2169 40C8.73049 40 4.8293 37.4945 2.83625 33.8064L2.82961 33.8178C1.01297 30.5635 0.745482 26.9635 0.656321 25.0355L0.460709 21.5519C0.449753 21.4625 0.442263 21.372 0.438369 21.2803L0.00304908 11.0242C-0.0745853 9.19531 1.33972 7.64724 3.16814 7.55972C4.21182 7.50976 5.16617 7.9463 5.81146 8.66966L5.74437 6.66415C5.68271 4.82112 7.12679 3.27708 8.96987 3.21542C10.173 3.17517 11.2488 3.77673 11.868 4.71208L11.84 3.52712Z" fill="url(#paint22_radial_0_4077)"/>
<path id="Vector_29" d="M11.84 3.52712C11.7952 1.62448 13.3014 0.0457678 15.204 0.000973256C17.1066 -0.043807 18.6853 1.46227 18.7301 3.36493L18.7628 4.75279C19.3702 3.681 20.5357 2.97285 21.8526 3.01147C23.7502 3.06712 25.2424 4.65216 25.1836 6.54966L24.8192 18.326L26.8881 15.7593C28.131 14.2175 30.3875 13.9732 31.9314 15.2136C33.4788 16.4568 33.7237 18.7197 32.478 20.265L31.5893 21.3676L31.5806 21.3803C30.7636 22.4267 29.0909 24.5691 26.9923 28.0334C26.3153 29.0489 25.7272 30.1335 25.1401 31.2163C24.3029 32.7603 23.4678 34.3004 22.3801 35.6304C20.2183 38.2961 16.9165 40 13.2169 40C8.73049 40 4.8293 37.4945 2.83625 33.8064L2.82961 33.8178C1.01297 30.5635 0.745482 26.9635 0.656321 25.0355L0.460709 21.5519C0.449753 21.4625 0.442263 21.372 0.438369 21.2803L0.00304908 11.0242C-0.0745853 9.19531 1.33972 7.64724 3.16814 7.55972C4.21182 7.50976 5.16617 7.9463 5.81146 8.66966L5.74437 6.66415C5.68271 4.82112 7.12679 3.27708 8.96987 3.21542C10.173 3.17517 11.2488 3.77673 11.868 4.71208L11.84 3.52712Z" fill="url(#paint23_radial_0_4077)"/>
<path id="Vector_30" d="M11.84 3.52712C11.7952 1.62448 13.3014 0.0457678 15.204 0.000973256C17.1066 -0.043807 18.6853 1.46227 18.7301 3.36493L18.7628 4.75279C19.3702 3.681 20.5357 2.97285 21.8526 3.01147C23.7502 3.06712 25.2424 4.65216 25.1836 6.54966L24.8192 18.326L26.8881 15.7593C28.131 14.2175 30.3875 13.9732 31.9314 15.2136C33.4788 16.4568 33.7237 18.7197 32.478 20.265L31.5893 21.3676L31.5806 21.3803C30.7636 22.4267 29.0909 24.5691 26.9923 28.0334C26.3153 29.0489 25.7272 30.1335 25.1401 31.2163C24.3029 32.7603 23.4678 34.3004 22.3801 35.6304C20.2183 38.2961 16.9165 40 13.2169 40C8.73049 40 4.8293 37.4945 2.83625 33.8064L2.82961 33.8178C1.01297 30.5635 0.745482 26.9635 0.656321 25.0355L0.460709 21.5519C0.449753 21.4625 0.442263 21.372 0.438369 21.2803L0.00304908 11.0242C-0.0745853 9.19531 1.33972 7.64724 3.16814 7.55972C4.21182 7.50976 5.16617 7.9463 5.81146 8.66966L5.74437 6.66415C5.68271 4.82112 7.12679 3.27708 8.96987 3.21542C10.173 3.17517 11.2488 3.77673 11.868 4.71208L11.84 3.52712Z" fill="url(#paint24_radial_0_4077)" fill-opacity="0.6"/>
</g>
<defs>
<radialGradient id="paint0_radial_0_4077" cx="0" cy="0" r="1" gradientUnits="userSpaceOnUse" gradientTransform="translate(29.7219 22.0448) rotate(161.732) scale(30.46 46.4424)">
<stop offset="0.817521" stop-color="#E99329" stop-opacity="0"/>
<stop offset="1" stop-color="#E99329"/>
</radialGradient>
<radialGradient id="paint1_radial_0_4077" cx="0" cy="0" r="1" gradientUnits="userSpaceOnUse" gradientTransform="translate(18.5794 8.32224) rotate(103.505) scale(35.5269 24.525)">
<stop offset="0.750766" stop-color="#F88456" stop-opacity="0"/>
<stop offset="1" stop-color="#F88456"/>
</radialGradient>
<radialGradient id="paint2_radial_0_4077" cx="0" cy="0" r="1" gradientUnits="userSpaceOnUse" gradientTransform="translate(16.6364 8.31771) rotate(98.2119) scale(32.7231 22.5894)">
<stop offset="0.937186" stop-color="#F27A74" stop-opacity="0"/>
<stop offset="1" stop-color="#F27A74"/>
</radialGradient>
<radialGradient id="paint3_radial_0_4077" cx="0" cy="0" r="1" gradientUnits="userSpaceOnUse" gradientTransform="translate(31.2051 22.8956) rotate(-144.583) scale(2.46163 10.5342)">
<stop stop-color="#F6B44B"/>
<stop offset="1" stop-color="#F6B44B" stop-opacity="0"/>
</radialGradient>
<linearGradient id="paint4_linear_0_4077" x1="6.83072" y1="12.7761" x2="4.9472" y2="13.0435" gradientUnits="userSpaceOnUse">
<stop stop-color="#E79F08"/>
<stop offset="1" stop-color="#E79F08" stop-opacity="0"/>
</linearGradient>
<linearGradient id="paint5_linear_0_4077" x1="7.08706" y1="17.3308" x2="5.12552" y2="16.2087" gradientUnits="userSpaceOnUse">
<stop stop-color="#FFC23E"/>
<stop offset="1" stop-color="#FFC23E" stop-opacity="0"/>
</linearGradient>
<radialGradient id="paint6_radial_0_4077" cx="0" cy="0" r="1" gradientUnits="userSpaceOnUse" gradientTransform="translate(3.29772 7.27033) rotate(87.8255) scale(3.10058 7.74239)">
<stop stop-color="#E8AD3C"/>
<stop offset="1" stop-color="#E8AD3C" stop-opacity="0"/>
</radialGradient>
<linearGradient id="paint7_linear_0_4077" x1="12.8822" y1="10.4564" x2="11.0098" y2="10.5901" gradientUnits="userSpaceOnUse">
<stop stop-color="#E79F08"/>
<stop offset="1" stop-color="#E79F08" stop-opacity="0"/>
</linearGradient>
<linearGradient id="paint8_linear_0_4077" x1="5.74218" y1="11.8516" x2="9.16183" y2="11.68" gradientUnits="userSpaceOnUse">
<stop stop-color="#DF8F0D"/>
<stop offset="1" stop-color="#DF8F0D" stop-opacity="0"/>
</linearGradient>
<linearGradient id="paint9_linear_0_4077" x1="9.35456" y1="18.4119" x2="8.07891" y2="13.6954" gradientUnits="userSpaceOnUse">
<stop offset="0.405208" stop-color="#FFC23E"/>
<stop offset="1" stop-color="#FFC23E" stop-opacity="0"/>
</linearGradient>
<radialGradient id="paint10_radial_0_4077" cx="0" cy="0" r="1" gradientUnits="userSpaceOnUse" gradientTransform="translate(8.16465 2.50412) rotate(77.9639) scale(4.78165 8.47919)">
<stop stop-color="#E1AE3F"/>
<stop offset="1" stop-color="#E8AD3C" stop-opacity="0"/>
</radialGradient>
<linearGradient id="paint11_linear_0_4077" x1="12.3123" y1="8.77732" x2="15.3017" y2="8.62789" gradientUnits="userSpaceOnUse">
<stop stop-color="#E59714"/>
<stop offset="1" stop-color="#E59714" stop-opacity="0"/>
</linearGradient>
<linearGradient id="paint12_linear_0_4077" x1="18.4827" y1="9.16378" x2="17.2808" y2="9.15088" gradientUnits="userSpaceOnUse">
<stop stop-color="#E59714"/>
<stop offset="1" stop-color="#E59714" stop-opacity="0"/>
</linearGradient>
<linearGradient id="paint13_linear_0_4077" x1="15.3017" y1="16.5103" x2="15.3017" y2="13.9327" gradientUnits="userSpaceOnUse">
<stop offset="0.347826" stop-color="#FFC23E"/>
<stop offset="1" stop-color="#FFC23E" stop-opacity="0"/>
</linearGradient>
<radialGradient id="paint14_radial_0_4077" cx="0" cy="0" r="1" gradientUnits="userSpaceOnUse" gradientTransform="translate(19.1784 12.6883) rotate(-116.651) scale(13.854 16.261)">
<stop offset="0.869582" stop-color="#D8A13D" stop-opacity="0"/>
<stop offset="1" stop-color="#D8A13D"/>
</radialGradient>
<linearGradient id="paint15_linear_0_4077" x1="17.9253" y1="12.0223" x2="21.6984" y2="12.156" gradientUnits="userSpaceOnUse">
<stop stop-color="#E69717"/>
<stop offset="1" stop-color="#E69717" stop-opacity="0"/>
</linearGradient>
<linearGradient id="paint16_linear_0_4077" x1="19.9194" y1="17.6034" x2="21.218" y2="15.0992" gradientUnits="userSpaceOnUse">
<stop stop-color="#FFC23E"/>
<stop offset="1" stop-color="#FFC23E" stop-opacity="0"/>
</linearGradient>
<radialGradient id="paint17_radial_0_4077" cx="0" cy="0" r="1" gradientUnits="userSpaceOnUse" gradientTransform="translate(25.6033 17.5763) rotate(-113.761) scale(15.5319 16.7694)">
<stop offset="0.869582" stop-color="#D8A13D" stop-opacity="0"/>
<stop offset="1" stop-color="#D8A13D"/>
</radialGradient>
<radialGradient id="paint18_radial_0_4077" cx="0" cy="0" r="1" gradientUnits="userSpaceOnUse" gradientTransform="translate(25.443 16.392) rotate(48.5035) scale(2.61823 10.0216)">
<stop stop-color="#E7A30E"/>
<stop offset="1" stop-color="#E7A30E" stop-opacity="0"/>
</radialGradient>
<linearGradient id="paint19_linear_0_4077" x1="22.4234" y1="19.8292" x2="5.21835" y2="16.9076" gradientUnits="userSpaceOnUse">
<stop stop-color="#FFDD3B"/>
<stop offset="1" stop-color="#FFDD3B" stop-opacity="0"/>
</linearGradient>
<radialGradient id="paint20_radial_0_4077" cx="0" cy="0" r="1" gradientUnits="userSpaceOnUse" gradientTransform="translate(32.6839 16.3172) rotate(145.784) scale(3.42042 4.0092)">
<stop stop-color="#FFE84A"/>
<stop offset="1" stop-color="#FFE84A" stop-opacity="0"/>
</radialGradient>
<radialGradient id="paint21_radial_0_4077" cx="0" cy="0" r="1" gradientUnits="userSpaceOnUse" gradientTransform="translate(24.6511 4.02302) rotate(130.365) scale(3.95962 4.27571)">
<stop stop-color="#FFE84A"/>
<stop offset="1" stop-color="#FFE84A" stop-opacity="0"/>
</radialGradient>
<radialGradient id="paint22_radial_0_4077" cx="0" cy="0" r="1" gradientUnits="userSpaceOnUse" gradientTransform="translate(18.3155 0.478049) rotate(112.533) scale(3.83796 4.06476)">
<stop offset="0.32493" stop-color="#FFE84A"/>
<stop offset="1" stop-color="#FFE84A" stop-opacity="0"/>
</radialGradient>
<radialGradient id="paint23_radial_0_4077" cx="0" cy="0" r="1" gradientUnits="userSpaceOnUse" gradientTransform="translate(9.83024 5.53152) rotate(122.8) scale(2.01894 2.3626)">
<stop stop-color="#FFD148"/>
<stop offset="1" stop-color="#FFCF41" stop-opacity="0"/>
</radialGradient>
<radialGradient id="paint24_radial_0_4077" cx="0" cy="0" r="1" gradientUnits="userSpaceOnUse" gradientTransform="translate(3.94704 9.90616) rotate(120.411) scale(2.01153 2.17209)">
<stop stop-color="#FFE84A"/>
<stop offset="1" stop-color="#FFE84A" stop-opacity="0"/>
</radialGradient>
</defs>
</svg>
