<svg width="40" height="26" viewBox="0 0 40 26" fill="none" xmlns="http://www.w3.org/2000/svg">
<g id="&#240;&#159;&#166;&#134; emoji &#34;turtle&#34;">
<path id="Vector" d="M34.9831 20.8814C32.2124 20.8814 29.9663 18.6353 29.9663 15.8645C29.9663 13.0938 32.2124 10.8477 34.9831 10.8477C37.7539 10.8477 40 13.0938 40 15.8645C40 18.6353 37.7539 20.8814 34.9831 20.8814Z" fill="#A7DE50"/>
<path id="Vector_2" d="M34.9831 20.8814C32.2124 20.8814 29.9663 18.6353 29.9663 15.8645C29.9663 13.0938 32.2124 10.8477 34.9831 10.8477C37.7539 10.8477 40 13.0938 40 15.8645C40 18.6353 37.7539 20.8814 34.9831 20.8814Z" fill="url(#paint0_linear_0_5544)"/>
<path id="Vector_3" d="M34.9831 20.8814C32.2124 20.8814 29.9663 18.6353 29.9663 15.8645C29.9663 13.0938 32.2124 10.8477 34.9831 10.8477C37.7539 10.8477 40 13.0938 40 15.8645C40 18.6353 37.7539 20.8814 34.9831 20.8814Z" fill="url(#paint1_radial_0_5544)"/>
<path id="Vector_4" d="M34.9831 20.8814C32.2124 20.8814 29.9663 18.6353 29.9663 15.8645C29.9663 13.0938 32.2124 10.8477 34.9831 10.8477C37.7539 10.8477 40 13.0938 40 15.8645C40 18.6353 37.7539 20.8814 34.9831 20.8814Z" fill="url(#paint2_radial_0_5544)"/>
<path id="Vector_5" d="M34.9831 20.8814C32.2124 20.8814 29.9663 18.6353 29.9663 15.8645C29.9663 13.0938 32.2124 10.8477 34.9831 10.8477C37.7539 10.8477 40 13.0938 40 15.8645C40 18.6353 37.7539 20.8814 34.9831 20.8814Z" fill="url(#paint3_radial_0_5544)"/>
<g id="Group">
<path id="Vector_6" d="M36.1524 15.3437C35.7566 15.3437 35.4358 15.0228 35.4358 14.627C35.4358 14.2312 35.7566 13.9103 36.1524 13.9103C36.5483 13.9103 36.8691 14.2312 36.8691 14.627C36.8691 15.0228 36.5483 15.3437 36.1524 15.3437Z" fill="#5B841C"/>
</g>
<path id="Vector_7" d="M35.7695 20.8547L24.322 19.4492V23.0327C24.322 24.2201 25.2847 25.1828 26.4721 25.1828H33.6194C34.8069 25.1828 35.7695 24.2201 35.7695 23.0327V20.8547Z" fill="#A7CD4C"/>
<path id="Vector_8" d="M35.7695 20.8547L24.322 19.4492V23.0327C24.322 24.2201 25.2847 25.1828 26.4721 25.1828H33.6194C34.8069 25.1828 35.7695 24.2201 35.7695 23.0327V20.8547Z" fill="url(#paint4_radial_0_5544)"/>
<path id="Vector_9" d="M35.7695 20.8547L24.322 19.4492V23.0327C24.322 24.2201 25.2847 25.1828 26.4721 25.1828H33.6194C34.8069 25.1828 35.7695 24.2201 35.7695 23.0327V20.8547Z" fill="url(#paint5_linear_0_5544)"/>
<path id="Vector_10" d="M35.7695 20.8547L24.322 19.4492V23.0327C24.322 24.2201 25.2847 25.1828 26.4721 25.1828H33.6194C34.8069 25.1828 35.7695 24.2201 35.7695 23.0327V20.8547Z" fill="url(#paint6_linear_0_5544)"/>
<path id="Vector_11" d="M35.7695 20.8547L24.322 19.4492V23.0327C24.322 24.2201 25.2847 25.1828 26.4721 25.1828H33.6194C34.8069 25.1828 35.7695 24.2201 35.7695 23.0327V20.8547Z" fill="url(#paint7_linear_0_5544)"/>
<path id="Vector_12" d="M35.7695 20.8547L24.322 19.4492V23.0327C24.322 24.2201 25.2847 25.1828 26.4721 25.1828H33.6194C34.8069 25.1828 35.7695 24.2201 35.7695 23.0327V20.8547Z" fill="url(#paint8_linear_0_5544)"/>
<path id="Vector_13" d="M14.3145 19.3594H2.86698V22.9429C2.86698 24.1303 3.8295 25.0929 5.01706 25.0929H12.1644C13.3518 25.0929 14.3145 24.1303 14.3145 22.9429V19.3594Z" fill="#A7CD4C"/>
<path id="Vector_14" d="M14.3145 19.3594H2.86698V22.9429C2.86698 24.1303 3.8295 25.0929 5.01706 25.0929H12.1644C13.3518 25.0929 14.3145 24.1303 14.3145 22.9429V19.3594Z" fill="url(#paint9_radial_0_5544)"/>
<path id="Vector_15" d="M14.3145 19.3594H2.86698V22.9429C2.86698 24.1303 3.8295 25.0929 5.01706 25.0929H12.1644C13.3518 25.0929 14.3145 24.1303 14.3145 22.9429V19.3594Z" fill="url(#paint10_linear_0_5544)"/>
<path id="Vector_16" d="M14.3145 19.3594H2.86698V22.9429C2.86698 24.1303 3.8295 25.0929 5.01706 25.0929H12.1644C13.3518 25.0929 14.3145 24.1303 14.3145 22.9429V19.3594Z" fill="url(#paint11_linear_0_5544)"/>
<path id="Vector_17" d="M14.3145 19.3594H2.86698V22.9429C2.86698 24.1303 3.8295 25.0929 5.01706 25.0929H12.1644C13.3518 25.0929 14.3145 24.1303 14.3145 22.9429V19.3594Z" fill="url(#paint12_linear_0_5544)"/>
<path id="Vector_18" d="M14.3145 19.3594H2.86698V22.9429C2.86698 24.1303 3.8295 25.0929 5.01706 25.0929H12.1644C13.3518 25.0929 14.3145 24.1303 14.3145 22.9429V19.3594Z" fill="url(#paint13_radial_0_5544)"/>
<path id="Vector_19" d="M0.44684 18.8555C0.805187 18.542 3.53192 15.916 3.53192 15.916L4.47266 20.8489H1.09072C0.732371 20.8489 0.262078 20.6137 0.0715809 20.1881C-0.118773 19.7627 0.0884929 19.1691 0.44684 18.8555Z" fill="url(#paint14_linear_0_5544)"/>
<path id="Vector_20" d="M0.44684 18.8555C0.805187 18.542 3.53192 15.916 3.53192 15.916L4.47266 20.8489H1.09072C0.732371 20.8489 0.262078 20.6137 0.0715809 20.1881C-0.118773 19.7627 0.0884929 19.1691 0.44684 18.8555Z" fill="url(#paint15_linear_0_5544)"/>
<path id="Vector_21" d="M0.44684 18.8555C0.805187 18.542 3.53192 15.916 3.53192 15.916L4.47266 20.8489H1.09072C0.732371 20.8489 0.262078 20.6137 0.0715809 20.1881C-0.118773 19.7627 0.0884929 19.1691 0.44684 18.8555Z" fill="url(#paint16_linear_0_5544)"/>
<path id="Vector_22" d="M0.44684 18.8555C0.805187 18.542 3.53192 15.916 3.53192 15.916L4.47266 20.8489H1.09072C0.732371 20.8489 0.262078 20.6137 0.0715809 20.1881C-0.118773 19.7627 0.0884929 19.1691 0.44684 18.8555Z" fill="url(#paint17_linear_0_5544)"/>
<g id="Group_2">
<path id="Vector_23" d="M19.4396 0.5C28.6424 0.5 35.7023 7.73647 35.7023 16.9393C35.7023 18.2617 35.7695 19.5373 35.7695 20.8488H2.8884V16.8944C2.8884 7.69161 10.2368 0.5 19.4396 0.5Z" fill="url(#paint18_radial_0_5544)"/>
<path id="Vector_24" d="M19.4396 0.5C28.6424 0.5 35.7023 7.73647 35.7023 16.9393C35.7023 18.2617 35.7695 19.5373 35.7695 20.8488H2.8884V16.8944C2.8884 7.69161 10.2368 0.5 19.4396 0.5Z" fill="url(#paint19_radial_0_5544)"/>
<path id="Vector_25" d="M19.4396 0.5C28.6424 0.5 35.7023 7.73647 35.7023 16.9393C35.7023 18.2617 35.7695 19.5373 35.7695 20.8488H2.8884V16.8944C2.8884 7.69161 10.2368 0.5 19.4396 0.5Z" fill="url(#paint20_linear_0_5544)"/>
<path id="Vector_26" d="M19.4396 0.5C28.6424 0.5 35.7023 7.73647 35.7023 16.9393C35.7023 18.2617 35.7695 19.5373 35.7695 20.8488H2.8884V16.8944C2.8884 7.69161 10.2368 0.5 19.4396 0.5Z" fill="url(#paint21_linear_0_5544)"/>
<path id="Vector_27" d="M19.4396 0.5C28.6424 0.5 35.7023 7.73647 35.7023 16.9393C35.7023 18.2617 35.7695 19.5373 35.7695 20.8488H2.8884V16.8944C2.8884 7.69161 10.2368 0.5 19.4396 0.5Z" fill="url(#paint22_radial_0_5544)"/>
</g>
<path id="Vector_28" d="M19.4396 0.5C28.6424 0.5 35.7023 7.73647 35.7023 16.9393C35.7023 18.2617 35.7695 19.5373 35.7695 20.8488H2.8884V16.8944C2.8884 7.69161 10.2368 0.5 19.4396 0.5Z" fill="url(#paint23_linear_0_5544)"/>
<path id="Vector_29" d="M19.4396 0.5C28.6424 0.5 35.7023 7.73647 35.7023 16.9393C35.7023 18.2617 35.7695 19.5373 35.7695 20.8488H2.8884V16.8944C2.8884 7.69161 10.2368 0.5 19.4396 0.5Z" fill="url(#paint24_linear_0_5544)"/>
<path id="Vector_30" d="M36.506 15.0584C36.1101 15.0584 35.7893 14.7375 35.7893 14.3417C35.7893 13.9459 36.1101 13.625 36.506 13.625C36.9018 13.625 37.2227 13.9459 37.2227 14.3417C37.2227 14.7375 36.9018 15.0584 36.506 15.0584Z" fill="url(#paint25_radial_0_5544)"/>
<path id="Vector_31" d="M36.506 15.0584C36.1101 15.0584 35.7893 14.7375 35.7893 14.3417C35.7893 13.9459 36.1101 13.625 36.506 13.625C36.9018 13.625 37.2227 13.9459 37.2227 14.3417C37.2227 14.7375 36.9018 15.0584 36.506 15.0584Z" fill="url(#paint26_radial_0_5544)"/>
<g id="Group_3">
<path id="Vector_32" fill-rule="evenodd" clip-rule="evenodd" d="M27.3069 5.4278C27.5404 5.11116 27.9863 5.04207 28.305 5.27385C28.6251 5.50663 28.6959 5.95485 28.4631 6.27493L27.8834 5.85351C28.4631 6.27493 28.4634 6.2745 28.4631 6.27493L28.4619 6.27665L28.4605 6.27866L28.4569 6.28339L28.4474 6.296C28.44 6.30575 28.4302 6.31836 28.4182 6.33341C28.3941 6.36366 28.3609 6.40394 28.3177 6.4531C28.2316 6.55129 28.1064 6.68445 27.9383 6.84055C27.6017 7.15302 27.0939 7.55681 26.3845 7.95615C25.9293 8.21244 25.3936 8.46529 24.7702 8.69091L27.7977 14.9786C28.1963 14.8022 28.5613 14.6208 28.8937 14.4401C29.8599 13.9148 30.5557 13.3929 31.0047 13.0086C31.2292 12.8164 31.3919 12.6587 31.4957 12.5525C31.5476 12.4993 31.5848 12.459 31.6075 12.4338L31.6309 12.4073L31.6345 12.4031C31.8881 12.1007 32.3388 12.0601 32.6423 12.3129C32.9465 12.5662 32.9877 13.0182 32.7344 13.3223L32.1837 12.8637C32.7344 13.3223 32.7347 13.3221 32.7344 13.3223L32.7332 13.3238L32.7316 13.3256L32.7274 13.3307L32.7148 13.3453C32.7046 13.357 32.6907 13.3729 32.673 13.3926C32.6376 13.432 32.5871 13.4865 32.5212 13.554C32.3893 13.689 32.1956 13.8761 31.9368 14.0975C31.4191 14.5406 30.6411 15.1215 29.5783 15.6993C27.4487 16.8572 24.1921 17.9925 19.6262 17.9925C15.0629 17.9925 11.6597 16.8697 9.38653 15.7332C8.25114 15.1655 7.39971 14.5955 6.82722 14.1624C6.54082 13.9459 6.3241 13.7634 6.17632 13.6325C6.1025 13.567 6.04573 13.5143 6.00617 13.4767C5.98639 13.4578 5.97091 13.4427 5.95973 13.4317L5.94611 13.4182L5.94167 13.4138L5.93995 13.4121C5.93966 13.4118 5.9388 13.4109 6.44995 12.9084L5.9388 13.4109C5.6613 13.1285 5.66517 12.6749 5.9474 12.3974C6.22949 12.12 6.68302 12.1237 6.96052 12.4055L6.96525 12.4101L6.99435 12.4382C7.02201 12.4646 7.06616 12.5057 7.12708 12.5598C7.24878 12.6676 7.43683 12.8264 7.69184 13.0192C8.20198 13.405 8.97902 13.9268 10.0275 14.4511C10.2946 14.5846 10.5794 14.7183 10.882 14.85L13.8944 8.59329C13.3602 8.39649 12.8869 8.18292 12.4722 7.96791C11.7123 7.57373 11.153 7.17639 10.7781 6.87122C10.5906 6.71871 10.4492 6.58913 10.3518 6.49438C10.303 6.44708 10.2653 6.40838 10.2384 6.38C10.2249 6.36566 10.214 6.35405 10.2059 6.34502L10.1955 6.3337L10.192 6.32954L10.1905 6.32797C10.1902 6.32754 10.1892 6.32653 10.7276 5.85351L10.1892 6.32653C9.92792 6.02925 9.95716 5.57644 10.2544 5.31513C10.5512 5.0544 11.0027 5.08292 11.2643 5.37849L11.2782 5.3934C11.2924 5.40816 11.3164 5.4331 11.351 5.46664C11.4198 5.53358 11.5299 5.63492 11.683 5.75948C11.989 6.00861 12.4669 6.35047 13.1321 6.69549C14.4589 7.38351 16.5464 8.09319 19.5295 8.09319C22.5121 8.09319 24.479 7.38394 25.6814 6.7071C26.285 6.36738 26.7024 6.03211 26.9629 5.79016C27.0933 5.66918 27.1845 5.57128 27.2402 5.50792C27.268 5.4761 27.287 5.45302 27.2974 5.43984L27.3069 5.4278ZM12.2212 15.3728L15.2789 9.02202C16.4682 9.3249 17.8798 9.52658 19.5295 9.52658C21.0222 9.52658 22.2978 9.36145 23.3786 9.10444L26.4588 15.502C24.6917 16.1067 22.4325 16.5591 19.6262 16.5591C16.6095 16.5591 14.1461 16.0416 12.2212 15.3728Z" fill="url(#paint27_linear_0_5544)"/>
</g>
<g id="Group_4">
<path id="Vector_33" fill-rule="evenodd" clip-rule="evenodd" d="M27.3069 5.4278C27.5404 5.11116 27.9863 5.04207 28.305 5.27385C28.6251 5.50663 28.6959 5.95485 28.4631 6.27493L27.8834 5.85351C28.4631 6.27493 28.4634 6.2745 28.4631 6.27493L28.4619 6.27665L28.4605 6.27866L28.4569 6.28339L28.4474 6.296C28.44 6.30575 28.4302 6.31836 28.4182 6.33341C28.3941 6.36366 28.3609 6.40394 28.3177 6.4531C28.2316 6.55129 28.1064 6.68445 27.9383 6.84055C27.6017 7.15302 27.0939 7.55681 26.3845 7.95615C25.9293 8.21244 25.3936 8.46529 24.7702 8.69091L27.7977 14.9786C28.1963 14.8022 28.5613 14.6208 28.8937 14.4401C29.8599 13.9148 30.5557 13.3929 31.0047 13.0086C31.2292 12.8164 31.3919 12.6587 31.4957 12.5525C31.5476 12.4993 31.5848 12.459 31.6075 12.4338L31.6309 12.4073L31.6345 12.4031C31.8881 12.1007 32.3388 12.0601 32.6423 12.3129C32.9465 12.5662 32.9877 13.0182 32.7344 13.3223L32.1837 12.8637C32.7344 13.3223 32.7347 13.3221 32.7344 13.3223L32.7332 13.3238L32.7316 13.3256L32.7274 13.3307L32.7148 13.3453C32.7046 13.357 32.6907 13.3729 32.673 13.3926C32.6376 13.432 32.5871 13.4865 32.5212 13.554C32.3893 13.689 32.1956 13.8761 31.9368 14.0975C31.4191 14.5406 30.6411 15.1215 29.5783 15.6993C27.4487 16.8572 24.1921 17.9925 19.6262 17.9925C15.0629 17.9925 11.6597 16.8697 9.38653 15.7332C8.25114 15.1655 7.39971 14.5955 6.82722 14.1624C6.54082 13.9459 6.3241 13.7634 6.17632 13.6325C6.1025 13.567 6.04573 13.5143 6.00617 13.4767C5.98639 13.4578 5.97091 13.4427 5.95973 13.4317L5.94611 13.4182L5.94167 13.4138L5.93995 13.4121C5.93966 13.4118 5.9388 13.4109 6.44995 12.9084L5.9388 13.4109C5.6613 13.1285 5.66517 12.6749 5.9474 12.3974C6.22949 12.12 6.68302 12.1237 6.96052 12.4055L6.96525 12.4101L6.99435 12.4382C7.02201 12.4646 7.06616 12.5057 7.12708 12.5598C7.24878 12.6676 7.43683 12.8264 7.69184 13.0192C8.20198 13.405 8.97902 13.9268 10.0275 14.4511C10.2946 14.5846 10.5794 14.7183 10.882 14.85L13.8944 8.59329C13.3602 8.39649 12.8869 8.18292 12.4722 7.96791C11.7123 7.57373 11.153 7.17639 10.7781 6.87122C10.5906 6.71871 10.4492 6.58913 10.3518 6.49438C10.303 6.44708 10.2653 6.40838 10.2384 6.38C10.2249 6.36566 10.214 6.35405 10.2059 6.34502L10.1955 6.3337L10.192 6.32954L10.1905 6.32797C10.1902 6.32754 10.1892 6.32653 10.7276 5.85351L10.1892 6.32653C9.92792 6.02925 9.95716 5.57644 10.2544 5.31513C10.5512 5.0544 11.0027 5.08292 11.2643 5.37849L11.2782 5.3934C11.2924 5.40816 11.3164 5.4331 11.351 5.46664C11.4198 5.53358 11.5299 5.63492 11.683 5.75948C11.989 6.00861 12.4669 6.35047 13.1321 6.69549C14.4589 7.38351 16.5464 8.09319 19.5295 8.09319C22.5121 8.09319 24.479 7.38394 25.6814 6.7071C26.285 6.36738 26.7024 6.03211 26.9629 5.79016C27.0933 5.66918 27.1845 5.57128 27.2402 5.50792C27.268 5.4761 27.287 5.45302 27.2974 5.43984L27.3069 5.4278ZM12.2212 15.3728L15.2789 9.02202C16.4682 9.3249 17.8798 9.52658 19.5295 9.52658C21.0222 9.52658 22.2978 9.36145 23.3786 9.10444L26.4588 15.502C24.6917 16.1067 22.4325 16.5591 19.6262 16.5591C16.6095 16.5591 14.1461 16.0416 12.2212 15.3728Z" fill="url(#paint28_radial_0_5544)"/>
</g>
<g id="Group_5">
<path id="Vector_34" d="M17.6035 8.5641C16.3046 8.57915 12.972 7.92811 10.7502 5.74219" stroke="url(#paint29_linear_0_5544)" stroke-width="0.215008" stroke-linecap="round"/>
</g>
<g id="Group_6">
<path id="Vector_35" d="M18.8125 17.5C13.3028 17.1416 9.92091 15.9097 6.29271 13.043" stroke="url(#paint30_linear_0_5544)" stroke-width="0.215008" stroke-linecap="round"/>
</g>
<g id="Group_7">
<path id="Vector_36" d="M24.2987 8.92188L26.9414 14.6331" stroke="url(#paint31_linear_0_5544)" stroke-width="0.215008" stroke-linecap="round"/>
</g>
<g id="Group_8">
<path id="Vector_37" d="M27.8496 6.29102C27.6332 6.55232 26.9314 7.13084 26.237 7.52287" stroke="url(#paint32_linear_0_5544)" stroke-width="0.215008" stroke-linecap="round"/>
</g>
<g id="Group_9">
<path id="Vector_38" d="M31.9961 13.2951C31.7796 13.5564 31.0778 14.1351 30.3835 14.527" stroke="url(#paint33_linear_0_5544)" stroke-opacity="0.5" stroke-width="0.215008" stroke-linecap="round"/>
</g>
</g>
<defs>
<linearGradient id="paint0_linear_0_5544" x1="37.4916" y1="19.9408" x2="37.4916" y2="15.8645" gradientUnits="userSpaceOnUse">
<stop stop-color="#A3A560"/>
<stop offset="0.957511" stop-color="#A3A560" stop-opacity="0"/>
</linearGradient>
<radialGradient id="paint1_radial_0_5544" cx="0" cy="0" r="1" gradientUnits="userSpaceOnUse" gradientTransform="translate(34.9831 15.3942) rotate(90) scale(5.64397 6.25109)">
<stop offset="0.84" stop-color="#D4A6C6" stop-opacity="0"/>
<stop offset="0.979" stop-color="#D5A6C6"/>
</radialGradient>
<radialGradient id="paint2_radial_0_5544" cx="0" cy="0" r="1" gradientUnits="userSpaceOnUse" gradientTransform="translate(34.692 14.476) rotate(-71.48) scale(4.79483 3.05236)">
<stop offset="0.224598" stop-color="#79B037"/>
<stop offset="1" stop-color="#79B037" stop-opacity="0"/>
</radialGradient>
<radialGradient id="paint3_radial_0_5544" cx="0" cy="0" r="1" gradientUnits="userSpaceOnUse" gradientTransform="translate(34.804 16.2452) rotate(10.305) scale(5.50886 5.4648)">
<stop offset="0.869455" stop-color="#F0FADA" stop-opacity="0"/>
<stop offset="1" stop-color="#F0FADA"/>
</radialGradient>
<radialGradient id="paint4_radial_0_5544" cx="0" cy="0" r="1" gradientUnits="userSpaceOnUse" gradientTransform="translate(22.799 22.316) rotate(-14.237) scale(6.19251 3.74882)">
<stop stop-color="#79B037"/>
<stop offset="1" stop-color="#79B037" stop-opacity="0"/>
</radialGradient>
<linearGradient id="paint5_linear_0_5544" x1="32.9223" y1="25.6756" x2="32.9223" y2="22.6743" gradientUnits="userSpaceOnUse">
<stop stop-color="#A3A560"/>
<stop offset="0.957511" stop-color="#A3A560" stop-opacity="0"/>
</linearGradient>
<linearGradient id="paint6_linear_0_5544" x1="28.1295" y1="19.4492" x2="29.2941" y2="23.0327" gradientUnits="userSpaceOnUse">
<stop offset="0.118712" stop-color="#858D4A"/>
<stop offset="0.957511" stop-color="#858D4A" stop-opacity="0"/>
</linearGradient>
<linearGradient id="paint7_linear_0_5544" x1="30.0458" y1="18.8221" x2="30.0458" y2="25.3843" gradientUnits="userSpaceOnUse">
<stop offset="0.808725" stop-color="#D4A6C6" stop-opacity="0"/>
<stop offset="0.979" stop-color="#D5A6C6"/>
</linearGradient>
<linearGradient id="paint8_linear_0_5544" x1="23.6576" y1="21.9704" x2="36.0691" y2="21.9704" gradientUnits="userSpaceOnUse">
<stop offset="0.938646" stop-color="#F0FADA" stop-opacity="0"/>
<stop offset="1" stop-color="#F0FADA"/>
</linearGradient>
<radialGradient id="paint9_radial_0_5544" cx="0" cy="0" r="1" gradientUnits="userSpaceOnUse" gradientTransform="translate(15.2747 19.3594) rotate(164.181) scale(5.5868 3.38213)">
<stop stop-color="#79B037"/>
<stop offset="1" stop-color="#79B037" stop-opacity="0"/>
</radialGradient>
<linearGradient id="paint10_linear_0_5544" x1="11.4673" y1="26.6159" x2="11.4673" y2="23.4804" gradientUnits="userSpaceOnUse">
<stop stop-color="#A3A560"/>
<stop offset="0.957511" stop-color="#A3A560" stop-opacity="0"/>
</linearGradient>
<linearGradient id="paint11_linear_0_5544" x1="10.437" y1="19.3594" x2="8.59064" y2="23.3908" gradientUnits="userSpaceOnUse">
<stop offset="0.118712" stop-color="#858D4A"/>
<stop offset="0.957511" stop-color="#858D4A" stop-opacity="0"/>
</linearGradient>
<linearGradient id="paint12_linear_0_5544" x1="8.59065" y1="18.7323" x2="8.59065" y2="25.0929" gradientUnits="userSpaceOnUse">
<stop offset="0.808725" stop-color="#D4A6C6" stop-opacity="0"/>
<stop offset="0.979" stop-color="#D5A6C6"/>
</linearGradient>
<radialGradient id="paint13_radial_0_5544" cx="0" cy="0" r="1" gradientUnits="userSpaceOnUse" gradientTransform="translate(2.55336 20.7032) rotate(25.122) scale(10.3399 2.74143)">
<stop stop-color="#C0EF52"/>
<stop offset="1" stop-color="#C0EF52" stop-opacity="0"/>
</radialGradient>
<linearGradient id="paint14_linear_0_5544" x1="1.61147" y1="17.8813" x2="1.88023" y2="20.4794" gradientUnits="userSpaceOnUse">
<stop stop-color="#C4FF66"/>
<stop offset="1" stop-color="#B0E254"/>
</linearGradient>
<linearGradient id="paint15_linear_0_5544" x1="1.4323" y1="17.8141" x2="1.79064" y2="18.262" gradientUnits="userSpaceOnUse">
<stop stop-color="#B0E254"/>
<stop offset="1" stop-color="#B0E254" stop-opacity="0"/>
</linearGradient>
<linearGradient id="paint16_linear_0_5544" x1="3.13444" y1="22.0471" x2="3.36006" y2="19.4615" gradientUnits="userSpaceOnUse">
<stop stop-color="#A3A560"/>
<stop offset="0.957511" stop-color="#A3A560" stop-opacity="0"/>
</linearGradient>
<linearGradient id="paint17_linear_0_5544" x1="2.236" y1="15.3765" x2="2.236" y2="21.084" gradientUnits="userSpaceOnUse">
<stop offset="0.903861" stop-color="#D4A6C6" stop-opacity="0"/>
<stop offset="0.964684" stop-color="#D5A6C6"/>
</linearGradient>
<radialGradient id="paint18_radial_0_5544" cx="0" cy="0" r="1" gradientUnits="userSpaceOnUse" gradientTransform="translate(7.83804 10.6743) rotate(-49.42) scale(10.7421 15.1049)">
<stop stop-color="#6FC1AD"/>
<stop offset="1" stop-color="#3B9990"/>
</radialGradient>
<radialGradient id="paint19_radial_0_5544" cx="0" cy="0" r="1" gradientUnits="userSpaceOnUse" gradientTransform="translate(19.3289 2.87413) rotate(90) scale(10.2129 17.9831)">
<stop stop-color="#4CA589"/>
<stop offset="1" stop-color="#4CA589" stop-opacity="0"/>
</radialGradient>
<linearGradient id="paint20_linear_0_5544" x1="19.3289" y1="22.3145" x2="19.3289" y2="18.3727" gradientUnits="userSpaceOnUse">
<stop stop-color="#3D7F92"/>
<stop offset="1" stop-color="#3D7F92" stop-opacity="0"/>
</linearGradient>
<linearGradient id="paint21_linear_0_5544" x1="-0.403945" y1="18.3727" x2="5.24002" y2="18.3727" gradientUnits="userSpaceOnUse">
<stop stop-color="#3D7F92"/>
<stop offset="1" stop-color="#3D7F92" stop-opacity="0"/>
</linearGradient>
<radialGradient id="paint22_radial_0_5544" cx="0" cy="0" r="1" gradientUnits="userSpaceOnUse" gradientTransform="translate(34.887 10.6743) rotate(163.779) scale(8.47421 9.32385)">
<stop stop-color="#7CAE9F"/>
<stop offset="1" stop-color="#7CAE9F" stop-opacity="0"/>
</radialGradient>
<linearGradient id="paint23_linear_0_5544" x1="19.3289" y1="22.4041" x2="19.3289" y2="19.0894" gradientUnits="userSpaceOnUse">
<stop stop-color="#3C9A91"/>
<stop offset="1" stop-color="#3C9A91" stop-opacity="0"/>
</linearGradient>
<linearGradient id="paint24_linear_0_5544" x1="19.3289" y1="21.4186" x2="19.3289" y2="18.3727" gradientUnits="userSpaceOnUse">
<stop stop-color="#3D7F92"/>
<stop offset="0.647059" stop-color="#3D7F92" stop-opacity="0"/>
</linearGradient>
<radialGradient id="paint25_radial_0_5544" cx="0" cy="0" r="1" gradientUnits="userSpaceOnUse" gradientTransform="translate(36.8854 14.7633) rotate(-139.399) scale(1.16605)">
<stop stop-color="#5A2D67"/>
<stop offset="1" stop-color="#2B2426"/>
</radialGradient>
<radialGradient id="paint26_radial_0_5544" cx="0" cy="0" r="1" gradientUnits="userSpaceOnUse" gradientTransform="translate(35.9796 14.8457) rotate(-39.378) scale(1.53565 1.02071)">
<stop offset="0.686147" stop-color="#736C6C" stop-opacity="0"/>
<stop offset="1" stop-color="#736C6C"/>
</radialGradient>
<linearGradient id="paint27_linear_0_5544" x1="19.3168" y1="7.35399" x2="19.3168" y2="21.4191" gradientUnits="userSpaceOnUse">
<stop stop-color="#67BD5B"/>
<stop offset="1" stop-color="#6CB768"/>
</linearGradient>
<radialGradient id="paint28_radial_0_5544" cx="0" cy="0" r="1" gradientUnits="userSpaceOnUse" gradientTransform="translate(10.4365 6.01018) rotate(70.942) scale(20.852 44.0651)">
<stop stop-color="#6CD45B"/>
<stop offset="1" stop-color="#6CD45B" stop-opacity="0"/>
</radialGradient>
<linearGradient id="paint29_linear_0_5544" x1="10.7502" y1="5.74219" x2="17.6035" y2="9.05689" gradientUnits="userSpaceOnUse">
<stop stop-color="#87E27A"/>
<stop offset="1" stop-color="#87E27A" stop-opacity="0"/>
</linearGradient>
<linearGradient id="paint30_linear_0_5544" x1="7.32289" y1="13.2166" x2="26.0242" y2="19.4485" gradientUnits="userSpaceOnUse">
<stop stop-color="#87E27A"/>
<stop offset="1" stop-color="#87E27A" stop-opacity="0"/>
</linearGradient>
<linearGradient id="paint31_linear_0_5544" x1="24.561" y1="8.81093" x2="28.9341" y2="9.04816" gradientUnits="userSpaceOnUse">
<stop stop-color="#87E27A"/>
<stop offset="1" stop-color="#87E27A" stop-opacity="0"/>
</linearGradient>
<linearGradient id="paint32_linear_0_5544" x1="27.6257" y1="6.29102" x2="26.3453" y2="8.81737" gradientUnits="userSpaceOnUse">
<stop stop-color="#87E27A"/>
<stop offset="1" stop-color="#87E27A" stop-opacity="0"/>
</linearGradient>
<linearGradient id="paint33_linear_0_5544" x1="31.7721" y1="13.2951" x2="30.4917" y2="15.8216" gradientUnits="userSpaceOnUse">
<stop stop-color="#87E27A"/>
<stop offset="1" stop-color="#87E27A" stop-opacity="0"/>
</linearGradient>
</defs>
</svg>
