<svg width="34" height="36" viewBox="0 0 34 36" fill="none" xmlns="http://www.w3.org/2000/svg">
<g id="&#240;&#159;&#166;&#134; emoji &#34;child default&#34;">
<g id="Group">
<path id="Vector" d="M9.3953 33.4444H8.04572C5.02525 33.4444 2.57031 30.9895 2.57031 27.969V23.4833H9.38244V33.4444H9.3953Z" fill="url(#paint0_linear_0_5031)"/>
<path id="Vector_2" d="M9.3953 33.4444H8.04572C5.02525 33.4444 2.57031 30.9895 2.57031 27.969V23.4833H9.38244V33.4444H9.3953Z" fill="url(#paint1_linear_0_5031)"/>
<path id="Vector_3" d="M9.3953 33.4444H8.04572C5.02525 33.4444 2.57031 30.9895 2.57031 27.969V23.4833H9.38244V33.4444H9.3953Z" fill="url(#paint2_radial_0_5031)"/>
</g>
<g id="Group_2">
<path id="Vector_4" d="M24.0469 33.4444H25.3964C28.4169 33.4444 30.8719 30.9895 30.8719 27.969V23.4833H24.0597V33.4444H24.0469Z" fill="url(#paint3_linear_0_5031)"/>
<path id="Vector_5" d="M24.0469 33.4444H25.3964C28.4169 33.4444 30.8719 30.9895 30.8719 27.969V23.4833H24.0597V33.4444H24.0469Z" fill="url(#paint4_radial_0_5031)"/>
</g>
<path id="Vector_6" d="M4.49756 24.4221C6.8046 24.4221 8.67481 22.5519 8.67481 20.2449C8.67481 17.9379 6.8046 16.0676 4.49756 16.0676C2.19052 16.0676 0.320312 17.9379 0.320312 20.2449C0.320312 22.5519 2.19052 24.4221 4.49756 24.4221Z" fill="url(#paint5_linear_0_5031)"/>
<g id="Group_3">
<path id="Vector_7" d="M4.4986 22.8917C5.96268 22.8917 7.14955 21.7048 7.14955 20.2407C7.14955 18.7766 5.96268 17.5898 4.4986 17.5898C3.03452 17.5898 1.84766 18.7766 1.84766 20.2407C1.84766 21.7048 3.03452 22.8917 4.4986 22.8917Z" fill="url(#paint6_radial_0_5031)"/>
</g>
<path id="Vector_8" d="M28.9194 24.4221C31.2264 24.4221 33.0967 22.5519 33.0967 20.2449C33.0967 17.9379 31.2264 16.0676 28.9194 16.0676C26.6124 16.0676 24.7422 17.9379 24.7422 20.2449C24.7422 22.5519 26.6124 24.4221 28.9194 24.4221Z" fill="url(#paint7_radial_0_5031)"/>
<path id="Vector_9" d="M28.9194 24.4221C31.2264 24.4221 33.0967 22.5519 33.0967 20.2449C33.0967 17.9379 31.2264 16.0676 28.9194 16.0676C26.6124 16.0676 24.7422 17.9379 24.7422 20.2449C24.7422 22.5519 26.6124 24.4221 28.9194 24.4221Z" fill="url(#paint8_radial_0_5031)"/>
<path id="Vector_10" d="M28.9194 24.4221C31.2264 24.4221 33.0967 22.5519 33.0967 20.2449C33.0967 17.9379 31.2264 16.0676 28.9194 16.0676C26.6124 16.0676 24.7422 17.9379 24.7422 20.2449C24.7422 22.5519 26.6124 24.4221 28.9194 24.4221Z" fill="url(#paint9_radial_0_5031)"/>
<path id="Vector_11" d="M28.9194 24.4221C31.2264 24.4221 33.0967 22.5519 33.0967 20.2449C33.0967 17.9379 31.2264 16.0676 28.9194 16.0676C26.6124 16.0676 24.7422 17.9379 24.7422 20.2449C24.7422 22.5519 26.6124 24.4221 28.9194 24.4221Z" fill="url(#paint10_radial_0_5031)"/>
<g id="Group_4">
<path id="Vector_12" d="M28.9183 22.8124C30.338 22.8124 31.4889 21.6615 31.4889 20.2418C31.4889 18.822 30.338 17.6711 28.9183 17.6711C27.4985 17.6711 26.3477 18.822 26.3477 20.2418C26.3477 21.6615 27.4985 22.8124 28.9183 22.8124Z" fill="#FFBC35"/>
<path id="Vector_13" d="M28.9183 22.8124C30.338 22.8124 31.4889 21.6615 31.4889 20.2418C31.4889 18.822 30.338 17.6711 28.9183 17.6711C27.4985 17.6711 26.3477 18.822 26.3477 20.2418C26.3477 21.6615 27.4985 22.8124 28.9183 22.8124Z" fill="url(#paint11_radial_0_5031)"/>
</g>
<g id="Group_5">
<path id="Vector_14" d="M13.3667 2.58319C7.78268 2.58319 3.26424 7.23163 3.49477 12.8378L3.88927 23.426C4.19664 30.948 9.84467 36.0012 16.7094 36.0012C23.5741 36.0012 29.2221 30.948 29.5294 23.426L30.0042 12.8728C30.2348 7.26677 25.636 2.58319 20.0521 2.58319H13.3667Z" fill="url(#paint12_radial_0_5031)"/>
<path id="Vector_15" d="M13.3667 2.58319C7.78268 2.58319 3.26424 7.23163 3.49477 12.8378L3.88927 23.426C4.19664 30.948 9.84467 36.0012 16.7094 36.0012C23.5741 36.0012 29.2221 30.948 29.5294 23.426L30.0042 12.8728C30.2348 7.26677 25.636 2.58319 20.0521 2.58319H13.3667Z" fill="url(#paint13_radial_0_5031)"/>
<path id="Vector_16" d="M13.3667 2.58319C7.78268 2.58319 3.26424 7.23163 3.49477 12.8378L3.88927 23.426C4.19664 30.948 9.84467 36.0012 16.7094 36.0012C23.5741 36.0012 29.2221 30.948 29.5294 23.426L30.0042 12.8728C30.2348 7.26677 25.636 2.58319 20.0521 2.58319H13.3667Z" fill="url(#paint14_radial_0_5031)"/>
<path id="Vector_17" d="M13.3667 2.58319C7.78268 2.58319 3.26424 7.23163 3.49477 12.8378L3.88927 23.426C4.19664 30.948 9.84467 36.0012 16.7094 36.0012C23.5741 36.0012 29.2221 30.948 29.5294 23.426L30.0042 12.8728C30.2348 7.26677 25.636 2.58319 20.0521 2.58319H13.3667Z" fill="url(#paint15_radial_0_5031)"/>
<path id="Vector_18" d="M13.3667 2.58319C7.78268 2.58319 3.26424 7.23163 3.49477 12.8378L3.88927 23.426C4.19664 30.948 9.84467 36.0012 16.7094 36.0012C23.5741 36.0012 29.2221 30.948 29.5294 23.426L30.0042 12.8728C30.2348 7.26677 25.636 2.58319 20.0521 2.58319H13.3667Z" fill="url(#paint16_radial_0_5031)"/>
<path id="Vector_19" d="M13.3667 2.58319C7.78268 2.58319 3.26424 7.23163 3.49477 12.8378L3.88927 23.426C4.19664 30.948 9.84467 36.0012 16.7094 36.0012C23.5741 36.0012 29.2221 30.948 29.5294 23.426L30.0042 12.8728C30.2348 7.26677 25.636 2.58319 20.0521 2.58319H13.3667Z" fill="url(#paint17_radial_0_5031)"/>
</g>
<g id="Group_6">
<path id="Vector_20" d="M8.63672 15.5389C9.39505 15.269 10.449 15.0762 11.8114 15.2047" stroke="#C04B25" stroke-miterlimit="10" stroke-linecap="round" stroke-linejoin="round"/>
</g>
<g id="Group_7">
<path id="Vector_21" d="M8.67578 15.4205C9.43411 15.1506 10.4881 14.9578 11.8505 15.0863" stroke="#CE5C4B" stroke-width="0.705499" stroke-miterlimit="10" stroke-linecap="round" stroke-linejoin="round"/>
</g>
<g id="Group_8">
<path id="Vector_22" d="M24.8056 15.5389C24.0472 15.269 22.9933 15.0762 21.6309 15.2047" stroke="#C04B25" stroke-miterlimit="10" stroke-linecap="round" stroke-linejoin="round"/>
</g>
<g id="Group_9">
<path id="Vector_23" d="M24.8075 15.3518C24.0492 15.0818 22.9952 14.8891 21.6328 15.0176" stroke="#CE5C4B" stroke-width="0.705499" stroke-miterlimit="10" stroke-linecap="round" stroke-linejoin="round"/>
</g>
<g id="Group_10">
<path id="Vector_24" d="M12.2029 26.9288C11.9042 26.4705 12.4087 25.9319 12.8808 26.1846C13.9965 26.7709 15.3029 27.1152 16.7115 27.1152C18.1209 27.1152 19.427 26.7833 20.5418 26.1849L20.5441 26.1836C21.015 25.947 21.5051 26.483 21.2203 26.9283C20.2665 28.4125 18.5939 29.398 16.7115 29.398C14.8291 29.398 13.1568 28.413 12.2029 26.9288ZM12.2029 26.9288L12.2838 26.8761" stroke="url(#paint18_linear_0_5031)" stroke-width="0.4233"/>
</g>
<path id="Vector_25" d="M16.7121 27.214C15.2874 27.214 13.9655 26.8657 12.8361 26.2723C12.4511 26.0659 12.0404 26.5044 12.2843 26.8786C13.2212 28.3365 14.8639 29.3041 16.7121 29.3041C18.5601 29.3041 20.2028 28.3365 21.1397 26.8786C21.3708 26.5174 20.9729 26.0787 20.5879 26.2723C19.4585 26.8786 18.1366 27.214 16.7121 27.214Z" fill="#8A014F"/>
<g id="Group_11">
<path id="Vector_26" d="M30.8731 3.57762C31.1302 4.34978 30.5518 5.14766 29.742 5.14766H29.1472C29.0117 5.14766 28.9668 5.32892 29.0865 5.39217C31.7728 6.83352 33.4437 9.62613 33.418 12.6632V15.0698C33.418 15.9834 32.6725 16.73 31.76 16.73H31.388C31.2152 16.73 31.0735 16.8663 31.0669 17.0389L31.053 17.3991L30.9759 19.3038C30.9502 20.0116 30.3718 20.5649 29.6649 20.5649L29.8191 15.8419C29.8706 14.2075 28.5724 12.8691 26.9529 12.8691H20.3079C17.2965 12.8691 14.6436 11.338 13.0749 9.02514C13.0105 8.93018 12.8587 8.95591 12.8269 9.06614C12.1945 11.2561 10.1735 12.8691 7.77611 12.8691H6.18233C4.72993 12.8691 3.5603 14.066 3.59886 15.5202C3.64476 17.2023 3.7227 18.8782 3.78062 20.5599C3.0737 20.5599 2.46779 20.0116 2.44208 19.3038L2.36341 17.1472C2.3571 16.9743 2.2152 16.8375 2.04229 16.8375H1.60663C0.520897 16.8375 0 15.9378 0 14.851V11.1189C0 6.48605 3.7531 2.72826 8.38021 2.72826C8.7549 2.72826 9.06129 2.44316 9.18121 2.08816C9.59058 0.87604 10.7146 0 12.0562 0H25.9761C28.2639 0 30.2176 1.50569 30.8731 3.57762Z" fill="url(#paint19_linear_0_5031)"/>
<path id="Vector_27" d="M30.8731 3.57762C31.1302 4.34978 30.5518 5.14766 29.742 5.14766H29.1472C29.0117 5.14766 28.9668 5.32892 29.0865 5.39217C31.7728 6.83352 33.4437 9.62613 33.418 12.6632V15.0698C33.418 15.9834 32.6725 16.73 31.76 16.73H31.388C31.2152 16.73 31.0735 16.8663 31.0669 17.0389L31.053 17.3991L30.9759 19.3038C30.9502 20.0116 30.3718 20.5649 29.6649 20.5649L29.8191 15.8419C29.8706 14.2075 28.5724 12.8691 26.9529 12.8691H20.3079C17.2965 12.8691 14.6436 11.338 13.0749 9.02514C13.0105 8.93018 12.8587 8.95591 12.8269 9.06614C12.1945 11.2561 10.1735 12.8691 7.77611 12.8691H6.18233C4.72993 12.8691 3.5603 14.066 3.59886 15.5202C3.64476 17.2023 3.7227 18.8782 3.78062 20.5599C3.0737 20.5599 2.46779 20.0116 2.44208 19.3038L2.36341 17.1472C2.3571 16.9743 2.2152 16.8375 2.04229 16.8375H1.60663C0.520897 16.8375 0 15.9378 0 14.851V11.1189C0 6.48605 3.7531 2.72826 8.38021 2.72826C8.7549 2.72826 9.06129 2.44316 9.18121 2.08816C9.59058 0.87604 10.7146 0 12.0562 0H25.9761C28.2639 0 30.2176 1.50569 30.8731 3.57762Z" fill="url(#paint20_radial_0_5031)"/>
<path id="Vector_28" d="M30.8731 3.57762C31.1302 4.34978 30.5518 5.14766 29.742 5.14766H29.1472C29.0117 5.14766 28.9668 5.32892 29.0865 5.39217C31.7728 6.83352 33.4437 9.62613 33.418 12.6632V15.0698C33.418 15.9834 32.6725 16.73 31.76 16.73H31.388C31.2152 16.73 31.0735 16.8663 31.0669 17.0389L31.053 17.3991L30.9759 19.3038C30.9502 20.0116 30.3718 20.5649 29.6649 20.5649L29.8191 15.8419C29.8706 14.2075 28.5724 12.8691 26.9529 12.8691H20.3079C17.2965 12.8691 14.6436 11.338 13.0749 9.02514C13.0105 8.93018 12.8587 8.95591 12.8269 9.06614C12.1945 11.2561 10.1735 12.8691 7.77611 12.8691H6.18233C4.72993 12.8691 3.5603 14.066 3.59886 15.5202C3.64476 17.2023 3.7227 18.8782 3.78062 20.5599C3.0737 20.5599 2.46779 20.0116 2.44208 19.3038L2.36341 17.1472C2.3571 16.9743 2.2152 16.8375 2.04229 16.8375H1.60663C0.520897 16.8375 0 15.9378 0 14.851V11.1189C0 6.48605 3.7531 2.72826 8.38021 2.72826C8.7549 2.72826 9.06129 2.44316 9.18121 2.08816C9.59058 0.87604 10.7146 0 12.0562 0H25.9761C28.2639 0 30.2176 1.50569 30.8731 3.57762Z" fill="url(#paint21_radial_0_5031)"/>
</g>
<path id="Vector_29" d="M30.8731 3.57762C31.1302 4.34978 30.5518 5.14766 29.742 5.14766H29.1472C29.0117 5.14766 28.9668 5.32892 29.0865 5.39217C31.7728 6.83352 33.4437 9.62613 33.418 12.6632V15.0698C33.418 15.9834 32.6725 16.73 31.76 16.73H31.388C31.2152 16.73 31.0735 16.8663 31.0669 17.0389L31.053 17.3991L30.9759 19.3038C30.9502 20.0116 30.3718 20.5649 29.6649 20.5649L29.8191 15.8419C29.8706 14.2075 28.5724 12.8691 26.9529 12.8691H20.3079C17.2965 12.8691 14.6436 11.338 13.0749 9.02514C13.0105 8.93018 12.8587 8.95591 12.8269 9.06614C12.1945 11.2561 10.1735 12.8691 7.77611 12.8691H6.18233C4.72993 12.8691 3.5603 14.066 3.59886 15.5202C3.64476 17.2023 3.7227 18.8782 3.78062 20.5599C3.0737 20.5599 2.46779 20.0116 2.44208 19.3038L2.36341 17.1472C2.3571 16.9743 2.2152 16.8375 2.04229 16.8375H1.60663C0.520897 16.8375 0 15.9378 0 14.851V11.1189C0 6.48605 3.7531 2.72826 8.38021 2.72826C8.7549 2.72826 9.06129 2.44316 9.18121 2.08816C9.59058 0.87604 10.7146 0 12.0562 0H25.9761C28.2639 0 30.2176 1.50569 30.8731 3.57762Z" fill="url(#paint22_radial_0_5031)"/>
<path id="Vector_30" d="M30.8731 3.57762C31.1302 4.34978 30.5518 5.14766 29.742 5.14766H29.1472C29.0117 5.14766 28.9668 5.32892 29.0865 5.39217C31.7728 6.83352 33.4437 9.62613 33.418 12.6632V15.0698C33.418 15.9834 32.6725 16.73 31.76 16.73H31.388C31.2152 16.73 31.0735 16.8663 31.0669 17.0389L31.053 17.3991L30.9759 19.3038C30.9502 20.0116 30.3718 20.5649 29.6649 20.5649L29.8191 15.8419C29.8706 14.2075 28.5724 12.8691 26.9529 12.8691H20.3079C17.2965 12.8691 14.6436 11.338 13.0749 9.02514C13.0105 8.93018 12.8587 8.95591 12.8269 9.06614C12.1945 11.2561 10.1735 12.8691 7.77611 12.8691H6.18233C4.72993 12.8691 3.5603 14.066 3.59886 15.5202C3.64476 17.2023 3.7227 18.8782 3.78062 20.5599C3.0737 20.5599 2.46779 20.0116 2.44208 19.3038L2.36341 17.1472C2.3571 16.9743 2.2152 16.8375 2.04229 16.8375H1.60663C0.520897 16.8375 0 15.9378 0 14.851V11.1189C0 6.48605 3.7531 2.72826 8.38021 2.72826C8.7549 2.72826 9.06129 2.44316 9.18121 2.08816C9.59058 0.87604 10.7146 0 12.0562 0H25.9761C28.2639 0 30.2176 1.50569 30.8731 3.57762Z" fill="url(#paint23_radial_0_5031)"/>
<path id="Vector_31" d="M30.8731 3.57762C31.1302 4.34978 30.5518 5.14766 29.742 5.14766H29.1472C29.0117 5.14766 28.9668 5.32892 29.0865 5.39217C31.7728 6.83352 33.4437 9.62613 33.418 12.6632V15.0698C33.418 15.9834 32.6725 16.73 31.76 16.73H31.388C31.2152 16.73 31.0735 16.8663 31.0669 17.0389L31.053 17.3991L30.9759 19.3038C30.9502 20.0116 30.3718 20.5649 29.6649 20.5649L29.8191 15.8419C29.8706 14.2075 28.5724 12.8691 26.9529 12.8691H20.3079C17.2965 12.8691 14.6436 11.338 13.0749 9.02514C13.0105 8.93018 12.8587 8.95591 12.8269 9.06614C12.1945 11.2561 10.1735 12.8691 7.77611 12.8691H6.18233C4.72993 12.8691 3.5603 14.066 3.59886 15.5202C3.64476 17.2023 3.7227 18.8782 3.78062 20.5599C3.0737 20.5599 2.46779 20.0116 2.44208 19.3038L2.36341 17.1472C2.3571 16.9743 2.2152 16.8375 2.04229 16.8375H1.60663C0.520897 16.8375 0 15.9378 0 14.851V11.1189C0 6.48605 3.7531 2.72826 8.38021 2.72826C8.7549 2.72826 9.06129 2.44316 9.18121 2.08816C9.59058 0.87604 10.7146 0 12.0562 0H25.9761C28.2639 0 30.2176 1.50569 30.8731 3.57762Z" fill="url(#paint24_radial_0_5031)"/>
<path id="Vector_32" d="M22.8922 17.3542C24.7624 17.3542 26.3423 18.6437 26.7721 20.3862C26.8999 20.8857 26.5166 21.362 26.0054 21.362H19.6162C19.2096 21.362 18.8843 20.9903 18.9657 20.5836C19.3257 18.7482 20.9406 17.3542 22.8922 17.3542Z" fill="white"/>
<path id="Vector_33" d="M22.3016 18.1314C23.719 18.1314 24.8574 19.2815 24.8574 20.6871C24.8574 20.9194 24.8225 21.1518 24.7644 21.3609H19.8273C19.7692 21.1402 19.7344 20.9194 19.7344 20.6871C19.7344 19.2815 20.8843 18.1314 22.3016 18.1314Z" fill="url(#paint25_radial_0_5031)"/>
<path id="Vector_34" d="M20.8359 20.6878C20.8359 19.8746 21.4864 19.2241 22.2996 19.2241C23.1129 19.2241 23.7634 19.8746 23.7634 20.6878C23.7634 20.9318 23.7053 21.164 23.6008 21.3616H21.0102C20.894 21.164 20.8359 20.9318 20.8359 20.6878Z" fill="black"/>
<g id="Group_12">
<path id="Vector_35" d="M22.1123 18.6697C22.2945 18.9133 21.9139 19.2102 21.4811 19.5337C21.0484 19.8572 20.7274 20.085 20.5453 19.8414C20.3632 19.5979 20.5664 19.1382 20.9991 18.8147C21.4319 18.4911 21.9303 18.4263 22.1123 18.6697Z" fill="#C7A7A3"/>
<path id="Vector_36" d="M22.1123 18.6697C22.2945 18.9133 21.9139 19.2102 21.4811 19.5337C21.0484 19.8572 20.7274 20.085 20.5453 19.8414C20.3632 19.5979 20.5664 19.1382 20.9991 18.8147C21.4319 18.4911 21.9303 18.4263 22.1123 18.6697Z" fill="url(#paint26_radial_0_5031)"/>
</g>
<g id="Group_13">
<path id="Vector_37" d="M24.5766 20.3526C24.4822 19.6918 24.0956 19.1939 23.9141 19.0275L23.1699 19.8443L23.5056 20.4977L24.5766 20.3526Z" fill="url(#paint27_linear_0_5031)"/>
</g>
<path id="Vector_38" d="M10.5363 17.3694C8.67319 17.3694 7.09933 18.6539 6.67116 20.3899C6.54386 20.8874 6.92575 21.3619 7.43494 21.3619H13.7998C14.2048 21.3619 14.5289 20.9916 14.4479 20.5865C14.0892 18.7582 12.469 17.3694 10.5363 17.3694Z" fill="white"/>
<path id="Vector_39" d="M11.126 18.1447C9.71421 18.1447 8.58008 19.2903 8.58008 20.6907C8.58008 20.922 8.61479 21.1535 8.67265 21.3618H13.591C13.6488 21.1419 13.6835 20.922 13.6835 20.6907C13.6719 19.2903 12.5379 18.1447 11.126 18.1447Z" fill="url(#paint28_radial_0_5031)"/>
<path id="Vector_40" d="M12.5842 20.6899C12.5842 19.8798 11.9362 19.2318 11.126 19.2318C10.316 19.2318 9.66797 19.8798 9.66797 20.6899C9.66797 20.933 9.72581 21.1643 9.82992 21.3611H12.4106C12.5148 21.1643 12.5842 20.933 12.5842 20.6899Z" fill="black"/>
<g id="Group_14">
<path id="Vector_41" d="M13.4519 20.3924C13.4519 19.5697 12.7827 19.0211 12.602 18.8555L11.7793 19.6511L12.2856 20.6818L13.4519 20.3924Z" fill="url(#paint29_linear_0_5031)"/>
</g>
<g id="Group_15">
<path id="Vector_42" d="M10.6221 19.7323C11.1645 19.4449 11.4863 18.9894 11.3409 18.7149C11.1954 18.4404 10.6378 18.4508 10.0954 18.7382C9.55299 19.0255 9.23118 19.481 9.37661 19.7555C9.52204 20.03 10.0796 20.0196 10.6221 19.7323Z" fill="#C7A7A3" fill-opacity="0.9"/>
<path id="Vector_43" d="M10.6221 19.7323C11.1645 19.4449 11.4863 18.9894 11.3409 18.7149C11.1954 18.4404 10.6378 18.4508 10.0954 18.7382C9.55299 19.0255 9.23118 19.481 9.37661 19.7555C9.52204 20.03 10.0796 20.0196 10.6221 19.7323Z" fill="url(#paint30_radial_0_5031)"/>
</g>
<g id="Group_16">
<path id="Vector_44" d="M18.8226 23.589C18.9929 23.8801 19.0101 24.2619 18.7949 24.5829C18.3321 25.2615 17.5738 25.7051 16.6998 25.7051C15.8386 25.7051 15.0675 25.2615 14.6176 24.5829C14.4022 24.2619 14.4194 23.8801 14.5897 23.589L15.9633 20.4096C16.0913 20.1132 16.3834 19.9213 16.7062 19.9213C17.029 19.9213 17.321 20.1132 17.449 20.4096L18.8226 23.589Z" fill="url(#paint31_radial_0_5031)"/>
<path id="Vector_45" d="M18.8226 23.589C18.9929 23.8801 19.0101 24.2619 18.7949 24.5829C18.3321 25.2615 17.5738 25.7051 16.6998 25.7051C15.8386 25.7051 15.0675 25.2615 14.6176 24.5829C14.4022 24.2619 14.4194 23.8801 14.5897 23.589L15.9633 20.4096C16.0913 20.1132 16.3834 19.9213 16.7062 19.9213C17.029 19.9213 17.321 20.1132 17.449 20.4096L18.8226 23.589Z" fill="url(#paint32_linear_0_5031)"/>
<path id="Vector_46" d="M18.8226 23.589C18.9929 23.8801 19.0101 24.2619 18.7949 24.5829C18.3321 25.2615 17.5738 25.7051 16.6998 25.7051C15.8386 25.7051 15.0675 25.2615 14.6176 24.5829C14.4022 24.2619 14.4194 23.8801 14.5897 23.589L15.9633 20.4096C16.0913 20.1132 16.3834 19.9213 16.7062 19.9213C17.029 19.9213 17.321 20.1132 17.449 20.4096L18.8226 23.589Z" fill="url(#paint33_radial_0_5031)"/>
</g>
<g id="Group_17">
<path id="Vector_47" d="M21.3668 11.2449C14.9001 11.2449 12.3027 5.99654 11.9277 3.85437H22.0495C28.1547 4.0552 31.8902 8.03162 32.6132 11.2449H21.3668Z" fill="url(#paint34_radial_0_5031)"/>
</g>
<g id="Group_18">
<path id="Vector_48" d="M14.8609 4.5393H28.5683C29.3196 4.5393 29.9328 3.87726 29.6222 3.19315C28.9406 1.69135 27.4352 1.01532 26.4689 1.0047H12.5312L14.8609 4.5393Z" fill="url(#paint35_radial_0_5031)"/>
</g>
<g id="Group_19">
<path id="Vector_49" d="M27.3928 5.13991C26.3084 4.71146 23.2235 3.77427 19.5605 3.45294" stroke="#FFC632" stroke-width="0.705499" stroke-linecap="round"/>
</g>
<g id="Group_20">
<path id="Vector_50" d="M11.5273 5.02008C11.7817 6.03761 12.7965 8.51451 14.8208 10.2818" stroke="#E08520" stroke-width="0.705499" stroke-linecap="round"/>
</g>
</g>
<defs>
<linearGradient id="paint0_linear_0_5031" x1="5.9828" y1="23.4833" x2="5.9828" y2="33.4444" gradientUnits="userSpaceOnUse">
<stop stop-color="#DC761E"/>
<stop offset="1" stop-color="#E0682D"/>
</linearGradient>
<linearGradient id="paint1_linear_0_5031" x1="2.57031" y1="26.2692" x2="4.17695" y2="26.2692" gradientUnits="userSpaceOnUse">
<stop stop-color="#DA8936"/>
<stop offset="1" stop-color="#DA8936" stop-opacity="0"/>
</linearGradient>
<radialGradient id="paint2_radial_0_5031" cx="0" cy="0" r="1" gradientUnits="userSpaceOnUse" gradientTransform="translate(8.1132 30.2455) rotate(123.664) scale(3.84329 4.43366)">
<stop stop-color="#D76523"/>
<stop offset="1" stop-color="#D76523" stop-opacity="0"/>
</radialGradient>
<linearGradient id="paint3_linear_0_5031" x1="27.4594" y1="22.9756" x2="27.4594" y2="33.4444" gradientUnits="userSpaceOnUse">
<stop stop-color="#FFB730"/>
<stop offset="1" stop-color="#FF9430"/>
</linearGradient>
<radialGradient id="paint4_radial_0_5031" cx="0" cy="0" r="1" gradientUnits="userSpaceOnUse" gradientTransform="translate(30.8719 24.6223) rotate(90) scale(7.06919 1.75283)">
<stop stop-color="#FFC735"/>
<stop offset="1" stop-color="#FFC735" stop-opacity="0"/>
</radialGradient>
<linearGradient id="paint5_linear_0_5031" x1="0.320312" y1="20.2449" x2="5.38121" y2="23.4179" gradientUnits="userSpaceOnUse">
<stop stop-color="#E09829"/>
<stop offset="1" stop-color="#D47F31"/>
</linearGradient>
<radialGradient id="paint6_radial_0_5031" cx="0" cy="0" r="1" gradientUnits="userSpaceOnUse" gradientTransform="translate(4.4986 20.2407) rotate(149.647) scale(2.58329)">
<stop stop-color="#C1691D"/>
<stop offset="1" stop-color="#DC7C1F"/>
</radialGradient>
<radialGradient id="paint7_radial_0_5031" cx="0" cy="0" r="1" gradientUnits="userSpaceOnUse" gradientTransform="translate(28.6383 22.1326) rotate(-43.4089) scale(6.1371 5.74318)">
<stop offset="0.452453" stop-color="#FFC534"/>
<stop offset="1" stop-color="#FFE449"/>
</radialGradient>
<radialGradient id="paint8_radial_0_5031" cx="0" cy="0" r="1" gradientUnits="userSpaceOnUse" gradientTransform="translate(28.9194 19.2407) rotate(90) scale(5.1814 5.1814)">
<stop offset="0.841085" stop-color="#E89726" stop-opacity="0"/>
<stop offset="1" stop-color="#E89726"/>
</radialGradient>
<radialGradient id="paint9_radial_0_5031" cx="0" cy="0" r="1" gradientUnits="userSpaceOnUse" gradientTransform="translate(30.004 19.3412) rotate(97.4115) scale(2.49102 2.3793)">
<stop offset="0.330927" stop-color="#FFBB2A"/>
<stop offset="1" stop-color="#FFBB2A" stop-opacity="0"/>
</radialGradient>
<radialGradient id="paint10_radial_0_5031" cx="0" cy="0" r="1" gradientUnits="userSpaceOnUse" gradientTransform="translate(31.5503 16.3487) rotate(107.435) scale(1.27353 3.91096)">
<stop stop-color="#CA8202"/>
<stop offset="1" stop-color="#CA8202" stop-opacity="0"/>
</radialGradient>
<radialGradient id="paint11_radial_0_5031" cx="0" cy="0" r="1" gradientUnits="userSpaceOnUse" gradientTransform="translate(29.5609 18.7355) rotate(91.2545) scale(2.75202 2.37682)">
<stop offset="0.56434" stop-color="#E89D22"/>
<stop offset="1" stop-color="#E89D22" stop-opacity="0"/>
</radialGradient>
<radialGradient id="paint12_radial_0_5031" cx="0" cy="0" r="1" gradientUnits="userSpaceOnUse" gradientTransform="translate(25.5459 20.163) rotate(180) scale(17.0303 18.8028)">
<stop stop-color="#FFE535"/>
<stop offset="1" stop-color="#F7A02B"/>
</radialGradient>
<radialGradient id="paint13_radial_0_5031" cx="0" cy="0" r="1" gradientUnits="userSpaceOnUse" gradientTransform="translate(16.7495 17.03) rotate(90) scale(19.7616 18.8695)">
<stop offset="0.852459" stop-color="#D77972" stop-opacity="0"/>
<stop offset="1" stop-color="#D77972"/>
</radialGradient>
<radialGradient id="paint14_radial_0_5031" cx="0" cy="0" r="1" gradientUnits="userSpaceOnUse" gradientTransform="translate(9.9615 33.8997) rotate(-39.8056) scale(10.666 18.7709)">
<stop stop-color="#EB8F3A"/>
<stop offset="1" stop-color="#EB8F3A" stop-opacity="0"/>
</radialGradient>
<radialGradient id="paint15_radial_0_5031" cx="0" cy="0" r="1" gradientUnits="userSpaceOnUse" gradientTransform="translate(18.316 8.51487) rotate(26.565) scale(7.54435 4.77618)">
<stop offset="0.436523" stop-color="#DF6B0D"/>
<stop offset="1" stop-color="#DF6B0D" stop-opacity="0"/>
</radialGradient>
<radialGradient id="paint16_radial_0_5031" cx="0" cy="0" r="1" gradientUnits="userSpaceOnUse" gradientTransform="translate(22.7343 19.2922) rotate(-90) scale(3.98929 4.86007)">
<stop offset="0.29521" stop-color="#FFBC29"/>
<stop offset="1" stop-color="#FFC128" stop-opacity="0"/>
</radialGradient>
<radialGradient id="paint17_radial_0_5031" cx="0" cy="0" r="1" gradientUnits="userSpaceOnUse" gradientTransform="translate(11.2066 19.2922) rotate(-90) scale(3.94912 3.69526)">
<stop stop-color="#ED9227"/>
<stop offset="1" stop-color="#ED9227" stop-opacity="0"/>
</radialGradient>
<linearGradient id="paint18_linear_0_5031" x1="14.3994" y1="29.0164" x2="16.2069" y2="26.5261" gradientUnits="userSpaceOnUse">
<stop stop-color="#FFAF35"/>
<stop offset="1" stop-color="#FFAF35" stop-opacity="0"/>
</linearGradient>
<linearGradient id="paint19_linear_0_5031" x1="10.4431" y1="16.227" x2="31.49" y2="5.78389" gradientUnits="userSpaceOnUse">
<stop stop-color="#E7A028"/>
<stop offset="1" stop-color="#FAB627"/>
</linearGradient>
<radialGradient id="paint20_radial_0_5031" cx="0" cy="0" r="1" gradientUnits="userSpaceOnUse" gradientTransform="translate(10.7645 12.6121) rotate(-90) scale(6.66753 2.54419)">
<stop stop-color="#FFBA2C"/>
<stop offset="1" stop-color="#FFBA2C" stop-opacity="0"/>
</radialGradient>
<radialGradient id="paint21_radial_0_5031" cx="0" cy="0" r="1" gradientUnits="userSpaceOnUse" gradientTransform="translate(9.27825 3.2936) rotate(90) scale(2.73128 4.3779)">
<stop stop-color="#E7B22D"/>
<stop offset="1" stop-color="#E7B22D" stop-opacity="0"/>
</radialGradient>
<radialGradient id="paint22_radial_0_5031" cx="0" cy="0" r="1" gradientUnits="userSpaceOnUse" gradientTransform="translate(31.6105 2.16895) rotate(153.435) scale(3.77217 10.8136)">
<stop stop-color="#FFEB3B"/>
<stop offset="1" stop-color="#FFEB3B" stop-opacity="0"/>
</radialGradient>
<radialGradient id="paint23_radial_0_5031" cx="0" cy="0" r="1" gradientUnits="userSpaceOnUse" gradientTransform="translate(34.864 14.3794) rotate(-168.311) scale(4.75793 15.6898)">
<stop stop-color="#FFC828"/>
<stop offset="1" stop-color="#FFC828" stop-opacity="0"/>
</radialGradient>
<radialGradient id="paint24_radial_0_5031" cx="0" cy="0" r="1" gradientUnits="userSpaceOnUse" gradientTransform="translate(30.988 18.7173) rotate(-86.3283) scale(3.76324 1.00854)">
<stop stop-color="#FFC92E"/>
<stop offset="1" stop-color="#FFC92E" stop-opacity="0"/>
</radialGradient>
<radialGradient id="paint25_radial_0_5031" cx="0" cy="0" r="1" gradientUnits="userSpaceOnUse" gradientTransform="translate(22.2959 19.4974) rotate(90) scale(2.32336 3.69557)">
<stop offset="0.80198" stop-color="#915C51"/>
<stop offset="1" stop-color="#804D49"/>
</radialGradient>
<radialGradient id="paint26_radial_0_5031" cx="0" cy="0" r="1" gradientUnits="userSpaceOnUse" gradientTransform="translate(21.641 19.7364) rotate(-127.812) scale(1.0833 1.49145)">
<stop offset="0.765532" stop-color="#FFE6E2" stop-opacity="0"/>
<stop offset="0.966159" stop-color="#FFE6E2"/>
</radialGradient>
<linearGradient id="paint27_linear_0_5031" x1="24.5222" y1="19.6537" x2="23.6236" y2="20.2074" gradientUnits="userSpaceOnUse">
<stop stop-color="#B4948D"/>
<stop offset="1" stop-color="#B4948D" stop-opacity="0"/>
</linearGradient>
<radialGradient id="paint28_radial_0_5031" cx="0" cy="0" r="1" gradientUnits="userSpaceOnUse" gradientTransform="translate(11.1318 19.5055) rotate(90) scale(2.31449 3.68147)">
<stop offset="0.80198" stop-color="#915C51"/>
<stop offset="1" stop-color="#804D49"/>
</radialGradient>
<linearGradient id="paint29_linear_0_5031" x1="13.2535" y1="19.6601" x2="12.3585" y2="20.2116" gradientUnits="userSpaceOnUse">
<stop stop-color="#B4948D"/>
<stop offset="1" stop-color="#B4948D" stop-opacity="0"/>
</linearGradient>
<radialGradient id="paint30_radial_0_5031" cx="0" cy="0" r="1" gradientUnits="userSpaceOnUse" gradientTransform="translate(10.7412 20.0492) rotate(-118.811) scale(1.4096 1.6944)">
<stop offset="0.765532" stop-color="#FFE6E2" stop-opacity="0"/>
<stop offset="0.966159" stop-color="#FFE6E2"/>
</radialGradient>
<radialGradient id="paint31_radial_0_5031" cx="0" cy="0" r="1" gradientUnits="userSpaceOnUse" gradientTransform="translate(18.1945 22.1706) rotate(171.573) scale(2.19263 3.60956)">
<stop stop-color="#FFE73F"/>
<stop offset="1" stop-color="#FFE73F" stop-opacity="0"/>
</radialGradient>
<linearGradient id="paint32_linear_0_5031" x1="14.459" y1="23.3755" x2="16.3467" y2="23.737" gradientUnits="userSpaceOnUse">
<stop stop-color="#FDA71E"/>
<stop offset="1" stop-color="#FDA71E" stop-opacity="0"/>
</linearGradient>
<radialGradient id="paint33_radial_0_5031" cx="0" cy="0" r="1" gradientUnits="userSpaceOnUse" gradientTransform="translate(16.909 20.9656) rotate(90) scale(5.0609 8.40369)">
<stop offset="0.638462" stop-color="#E28339" stop-opacity="0"/>
<stop offset="0.928571" stop-color="#E28339"/>
</radialGradient>
<radialGradient id="paint34_radial_0_5031" cx="0" cy="0" r="1" gradientUnits="userSpaceOnUse" gradientTransform="translate(25.7047 3.85436) rotate(136.873) scale(16.5102 32.8444)">
<stop offset="0.141275" stop-color="#FFE939"/>
<stop offset="1" stop-color="#FFE939" stop-opacity="0"/>
</radialGradient>
<radialGradient id="paint35_radial_0_5031" cx="0" cy="0" r="1" gradientUnits="userSpaceOnUse" gradientTransform="translate(27.9549 1.44652) rotate(-172.533) scale(16.6898 10.7071)">
<stop stop-color="#FFE939"/>
<stop offset="1" stop-color="#FFE939" stop-opacity="0"/>
</radialGradient>
</defs>
</svg>
