<svg xmlns="http://www.w3.org/2000/svg" width="40" height="40" viewBox="0 0 40 40" fill="none">
  <path d="M20 40C33.3359 40 40 31.0457 40 20C40 8.95429 33.3359 0 20 0C6.664 0 0 8.95429 0 20C0 31.0457 6.664 40 20 40Z" fill="url(#paint0_radial_0_3564)"/>
  <path d="M20 40C33.3359 40 40 31.0457 40 20C40 8.95429 33.3359 0 20 0C6.664 0 0 8.95429 0 20C0 31.0457 6.664 40 20 40Z" fill="url(#paint1_radial_0_3564)"/>
  <path d="M20 40C33.3359 40 40 31.0457 40 20C40 8.95429 33.3359 0 20 0C6.664 0 0 8.95429 0 20C0 31.0457 6.664 40 20 40Z" fill="url(#paint2_radial_0_3564)"/>
  <path d="M20 40C33.3359 40 40 31.0457 40 20C40 8.95429 33.3359 0 20 0C6.664 0 0 8.95429 0 20C0 31.0457 6.664 40 20 40Z" fill="url(#paint3_radial_0_3564)" fill-opacity="0.6"/>
  <path d="M20 40C33.3359 40 40 31.0457 40 20C40 8.95429 33.3359 0 20 0C6.664 0 0 8.95429 0 20C0 31.0457 6.664 40 20 40Z" fill="url(#paint4_radial_0_3564)"/>
  <path d="M20 40C33.3359 40 40 31.0457 40 20C40 8.95429 33.3359 0 20 0C6.664 0 0 8.95429 0 20C0 31.0457 6.664 40 20 40Z" fill="url(#paint5_radial_0_3564)"/>
  <path d="M20 40C33.3359 40 40 31.0457 40 20C40 8.95429 33.3359 0 20 0C6.664 0 0 8.95429 0 20C0 31.0457 6.664 40 20 40Z" fill="url(#paint6_radial_0_3564)"/>
  <path d="M20 40C33.3359 40 40 31.0457 40 20C40 8.95429 33.3359 0 20 0C6.664 0 0 8.95429 0 20C0 31.0457 6.664 40 20 40Z" fill="url(#paint7_radial_0_3564)"/>
  <path d="M21.4277 13.5725C21.4277 17.1235 24.3065 20.0023 27.8577 20.0023C31.4088 20.0023 34.2875 17.1235 34.2875 13.5725C34.2875 10.0213 31.4088 7.14258 27.8577 7.14258C24.3065 7.14258 21.4277 10.0213 21.4277 13.5725Z" fill="white"/>
  <path d="M18.5707 13.5725C18.5707 17.1235 15.692 20.0023 12.1409 20.0023C8.58969 20.0023 5.71094 17.1235 5.71094 13.5725C5.71094 10.0213 8.58969 7.14258 12.1409 7.14258C15.692 7.14258 18.5707 10.0213 18.5707 13.5725Z" fill="white"/>
  <path d="M13.0296 18.1324C15.5625 18.1324 17.6159 16.079 17.6159 13.546C17.6159 11.0132 15.5625 8.95984 13.0296 8.95984C10.4967 8.95984 8.44336 11.0132 8.44336 13.546C8.44336 16.079 10.4967 18.1324 13.0296 18.1324Z" fill="#3F2931"/>
  <path d="M26.9692 18.1324C24.4363 18.1324 22.3828 16.079 22.3828 13.546C22.3828 11.0132 24.4363 8.95984 26.9692 8.95984C29.5021 8.95984 31.5554 11.0132 31.5554 13.546C31.5554 16.079 29.5021 18.1324 26.9692 18.1324Z" fill="#3F2931"/>
  <path d="M26.53 22.6331L12.7463 26.4747C12.0278 26.675 11.6077 27.4198 11.8079 28.1383C12.0082 28.8568 12.753 29.2769 13.4715 29.0767L27.2552 25.235C27.9737 25.0348 28.3938 24.29 28.1936 23.5714C27.9933 22.8529 27.2485 22.4328 26.53 22.6331Z" fill="url(#paint8_linear_0_3564)"/>
  <path d="M26.53 22.6331L12.7463 26.4747C12.0278 26.675 11.6077 27.4198 11.8079 28.1383C12.0082 28.8568 12.753 29.2769 13.4715 29.0767L27.2552 25.235C27.9737 25.0348 28.3938 24.29 28.1936 23.5714C27.9933 22.8529 27.2485 22.4328 26.53 22.6331Z" fill="url(#paint9_linear_0_3564)"/>
  <path d="M26.53 22.6331L12.7463 26.4747C12.0278 26.675 11.6077 27.4198 11.8079 28.1383C12.0082 28.8568 12.753 29.2769 13.4715 29.0767L27.2552 25.235C27.9737 25.0348 28.3938 24.29 28.1936 23.5714C27.9933 22.8529 27.2485 22.4328 26.53 22.6331Z" fill="url(#paint10_radial_0_3564)"/>
  <path d="M13.0801 27.5214L27.0315 23.633" stroke="#5C4B51" stroke-width="0.476775"/>
  <defs>
    <radialGradient id="paint0_radial_0_3564" cx="0" cy="0" r="1" gradientUnits="userSpaceOnUse" gradientTransform="translate(33.5741 10.0008) rotate(132.839) scale(53.5804)">
      <stop stop-color="#FFF478"/>
      <stop offset="0.474827" stop-color="#FFB02E"/>
      <stop offset="1" stop-color="#F70A8D"/>
    </radialGradient>
    <radialGradient id="paint1_radial_0_3564" cx="0" cy="0" r="1" gradientUnits="userSpaceOnUse" gradientTransform="translate(33.5741 10.0008) rotate(131.878) scale(55.6454)">
      <stop stop-color="#FFF478"/>
      <stop offset="0.474827" stop-color="#FFB02E"/>
      <stop offset="1" stop-color="#F70A8D"/>
    </radialGradient>
    <radialGradient id="paint2_radial_0_3564" cx="0" cy="0" r="1" gradientUnits="userSpaceOnUse" gradientTransform="translate(20.0016 15.0012) rotate(101.31) scale(25.4971 32.657)">
      <stop offset="0.787821" stop-color="#F59639" stop-opacity="0"/>
      <stop offset="0.972509" stop-color="#FF7DCE"/>
    </radialGradient>
    <radialGradient id="paint3_radial_0_3564" cx="0" cy="0" r="1" gradientUnits="userSpaceOnUse" gradientTransform="translate(22.8589 17.1442) rotate(135) scale(58.5935)">
      <stop offset="0.314853" stop-opacity="0"/>
      <stop offset="1"/>
    </radialGradient>
    <radialGradient id="paint4_radial_0_3564" cx="0" cy="0" r="1" gradientUnits="userSpaceOnUse" gradientTransform="translate(20.0016 21.4303) rotate(77.692) scale(40.213)">
      <stop offset="0.507903" stop-color="#7D6133" stop-opacity="0"/>
      <stop offset="1" stop-color="#715B32"/>
    </radialGradient>
    <radialGradient id="paint5_radial_0_3564" cx="0" cy="0" r="1" gradientUnits="userSpaceOnUse" gradientTransform="translate(20.7159 20.7159) rotate(55.7131) scale(19.0208 13.7873)">
      <stop stop-color="#FFB849"/>
      <stop offset="1" stop-color="#FFB847" stop-opacity="0"/>
    </radialGradient>
    <radialGradient id="paint6_radial_0_3564" cx="0" cy="0" r="1" gradientUnits="userSpaceOnUse" gradientTransform="translate(26.4306 22.8589) rotate(9.86581) scale(16.6765)">
      <stop stop-color="#FFA64B"/>
      <stop offset="0.900412" stop-color="#FFAE46" stop-opacity="0"/>
    </radialGradient>
    <radialGradient id="paint7_radial_0_3564" cx="0" cy="0" r="1" gradientUnits="userSpaceOnUse" gradientTransform="translate(22.1446 18.5729) rotate(43.9708) scale(84.3679)">
      <stop offset="0.185425" stop-opacity="0"/>
      <stop offset="1" stop-opacity="0.4"/>
    </radialGradient>
    <linearGradient id="paint8_linear_0_3564" x1="19.6382" y1="24.5539" x2="20.2675" y2="26.8119" gradientUnits="userSpaceOnUse">
      <stop stop-color="#4B383A"/>
      <stop offset="1" stop-color="#53265D"/>
    </linearGradient>
    <linearGradient id="paint9_linear_0_3564" x1="11.8079" y1="28.1383" x2="13.3562" y2="27.7068" gradientUnits="userSpaceOnUse">
      <stop stop-color="#503333"/>
      <stop offset="1" stop-color="#503333" stop-opacity="0"/>
    </linearGradient>
    <radialGradient id="paint10_radial_0_3564" cx="0" cy="0" r="1" gradientUnits="userSpaceOnUse" gradientTransform="translate(28.0785 22.8883) rotate(144.953) scale(2.24961 1.75582)">
      <stop stop-color="#605052"/>
      <stop offset="1" stop-color="#605052" stop-opacity="0"/>
    </radialGradient>
  </defs>
</svg>
