<svg width="37" height="40" viewBox="0 0 37 40" fill="none" xmlns="http://www.w3.org/2000/svg">
<g id="&#240;&#159;&#166;&#134; emoji &#34;man in lotus position default&#34;">
<path id="Vector" fill-rule="evenodd" clip-rule="evenodd" d="M4.77671 30.2365C4.77671 30.6317 4.45627 30.9522 4.06095 30.9522C3.15653 30.9522 2.26158 30.6759 1.91265 30.5683C1.89202 30.5619 1.87331 30.5561 1.85661 30.551C1.47853 30.4356 1.26558 30.0356 1.38097 29.6574C1.49637 29.2794 1.89642 29.0665 2.27451 29.1819C2.28785 29.1859 2.30183 29.1902 2.31644 29.1946C2.66912 29.3027 3.38067 29.5207 4.06095 29.5207C4.45627 29.5207 4.77671 29.8411 4.77671 30.2365Z" fill="url(#paint0_radial_0_4285)"/>
<path id="Vector_2" fill-rule="evenodd" clip-rule="evenodd" d="M31.3418 30.2365C31.3418 30.6317 31.6622 30.9522 32.0576 30.9522C32.962 30.9522 33.857 30.6759 34.2058 30.5683C34.2264 30.5619 34.2452 30.5561 34.2619 30.551C34.64 30.4356 34.8529 30.0356 34.7375 29.6574C34.6221 29.2794 34.2221 29.0665 33.8439 29.1819C33.8306 29.1859 33.8166 29.1902 33.802 29.1946C33.4494 29.3027 32.7378 29.5207 32.0576 29.5207C31.6622 29.5207 31.3418 29.8411 31.3418 30.2365Z" fill="url(#paint1_radial_0_4285)"/>
<g id="Group">
<path id="Vector_3" d="M20.334 37.3664H26.4094C30.6033 37.3664 32.5382 34.6226 32.8289 33.3178L29.2053 29.9851L24.0246 32.0206L20.334 32.1772V37.3664Z" fill="url(#paint2_radial_0_4285)"/>
<path id="Vector_4" d="M20.334 37.3664H26.4094C30.6033 37.3664 32.5382 34.6226 32.8289 33.3178L29.2053 29.9851L24.0246 32.0206L20.334 32.1772V37.3664Z" fill="url(#paint3_radial_0_4285)"/>
</g>
<path id="Vector_5" d="M14.0254 32.1777H11.9803C11.3717 32.1777 10.8295 32.5619 10.6294 33.137C10.0461 34.8126 9.25543 37.0944 9.15207 37.4339C8.99551 37.9484 8.7942 39.5142 10.4047 39.9616C11.488 40.2625 12.5229 38.7147 13.3499 37.4782C13.3748 37.4408 13.3997 37.4036 13.4243 37.3669H14.0254V32.1777Z" fill="url(#paint4_radial_0_4285)"/>
<path id="Vector_6" d="M14.0254 32.1777H11.9803C11.3717 32.1777 10.8295 32.5619 10.6294 33.137C10.0461 34.8126 9.25543 37.0944 9.15207 37.4339C8.99551 37.9484 8.7942 39.5142 10.4047 39.9616C11.488 40.2625 12.5229 38.7147 13.3499 37.4782C13.3748 37.4408 13.3997 37.4036 13.4243 37.3669H14.0254V32.1777Z" fill="url(#paint5_radial_0_4285)"/>
<g id="Group_2">
<path id="Vector_7" d="M9.75333 37.3664C5.55952 37.3664 3.62475 34.6226 3.33398 33.3178L6.95749 29.9851L11.9006 32.0541L23.6112 32.1772C24.2199 32.1772 24.7618 32.5614 24.9619 33.1364C25.5453 34.812 26.336 37.0938 26.4394 37.4334C26.596 37.9479 26.7973 39.5136 25.1868 39.961C24.0707 40.2709 23.0061 38.619 22.1672 37.3664H9.75333Z" fill="#FFCB22"/>
</g>
<path id="Vector_8" d="M9.75333 37.3678C5.55952 37.3678 3.62475 34.6241 3.33398 33.3193L6.95749 29.9866L11.9006 32.0555L23.6112 32.1786C24.2199 32.1786 24.7618 32.5629 24.9619 33.1379C25.5453 34.8135 26.336 37.0953 26.4394 37.4348C26.596 37.9493 26.7973 39.5151 25.1868 39.9625C24.0707 40.2724 23.0061 38.6204 22.1672 37.3678H9.75333Z" fill="url(#paint6_radial_0_4285)"/>
<path id="Vector_9" d="M9.75333 37.3678C5.55952 37.3678 3.62475 34.6241 3.33398 33.3193L6.95749 29.9866L11.9006 32.0555L23.6112 32.1786C24.2199 32.1786 24.7618 32.5629 24.9619 33.1379C25.5453 34.8135 26.336 37.0953 26.4394 37.4348C26.596 37.9493 26.7973 39.5151 25.1868 39.9625C24.0707 40.2724 23.0061 38.6204 22.1672 37.3678H9.75333Z" fill="url(#paint7_radial_0_4285)"/>
<path id="Vector_10" d="M21.6094 27.8973H30.2207V31.7518C26.5973 32.2551 21.6094 32.1768 21.6094 32.1768V27.8973Z" fill="url(#paint8_radial_0_4285)"/>
<path id="Vector_11" d="M21.6094 27.8973H30.2207V31.7518C26.5973 32.2551 21.6094 32.1768 21.6094 32.1768V27.8973Z" fill="url(#paint9_linear_0_4285)"/>
<path id="Vector_12" d="M21.6094 27.8973H30.2207V31.7518C26.5973 32.2551 21.6094 32.1768 21.6094 32.1768V27.8973Z" fill="url(#paint10_linear_0_4285)"/>
<path id="Vector_13" d="M14.8985 27.8973H6.28711V31.7518C9.91058 32.2551 14.8985 32.1768 14.8985 32.1768V27.8973Z" fill="url(#paint11_radial_0_4285)"/>
<path id="Vector_14" d="M14.8985 27.8973H6.28711V31.7518C9.91058 32.2551 14.8985 32.1768 14.8985 32.1768V27.8973Z" fill="url(#paint12_linear_0_4285)"/>
<path id="Vector_15" d="M14.8985 27.8973H6.28711V31.7518C9.91058 32.2551 14.8985 32.1768 14.8985 32.1768V27.8973Z" fill="url(#paint13_linear_0_4285)"/>
<path id="Vector_16" d="M9.06556 20.3937C9.38052 17.7334 11.3637 15.2682 12.1466 14.6083L12.6219 15.0592V25.475C12.264 26.4078 11.5931 27.3779 11.0114 27.8398C11.0114 27.8398 9.77047 29.0057 5.03983 32.5692C3.14309 32.3053 2.04108 31.0037 2.0709 30.1312C3.32333 29.4164 6.89658 25.882 7.81332 24.9691C8.58217 24.2035 8.72974 23.23 9.06556 20.3937Z" fill="#F4AC2D"/>
<path id="Vector_17" d="M9.06556 20.3937C9.38052 17.7334 11.3637 15.2682 12.1466 14.6083L12.6219 15.0592V25.475C12.264 26.4078 11.5931 27.3779 11.0114 27.8398C11.0114 27.8398 9.77047 29.0057 5.03983 32.5692C3.14309 32.3053 2.04108 31.0037 2.0709 30.1312C3.32333 29.4164 6.89658 25.882 7.81332 24.9691C8.58217 24.2035 8.72974 23.23 9.06556 20.3937Z" fill="url(#paint14_linear_0_4285)"/>
<path id="Vector_18" d="M9.06556 20.3937C9.38052 17.7334 11.3637 15.2682 12.1466 14.6083L12.6219 15.0592V25.475C12.264 26.4078 11.5931 27.3779 11.0114 27.8398C11.0114 27.8398 9.77047 29.0057 5.03983 32.5692C3.14309 32.3053 2.04108 31.0037 2.0709 30.1312C3.32333 29.4164 6.89658 25.882 7.81332 24.9691C8.58217 24.2035 8.72974 23.23 9.06556 20.3937Z" fill="url(#paint15_radial_0_4285)"/>
<path id="Vector_19" d="M9.06556 20.3937C9.38052 17.7334 11.3637 15.2682 12.1466 14.6083L12.6219 15.0592V25.475C12.264 26.4078 11.5931 27.3779 11.0114 27.8398C11.0114 27.8398 9.77047 29.0057 5.03983 32.5692C3.14309 32.3053 2.04108 31.0037 2.0709 30.1312C3.32333 29.4164 6.89658 25.882 7.81332 24.9691C8.58217 24.2035 8.72974 23.23 9.06556 20.3937Z" fill="url(#paint16_radial_0_4285)"/>
<path id="Vector_20" d="M27.0524 20.3937C26.7375 17.7334 24.7542 15.2682 23.9714 14.6083L23.4961 15.0592V25.475C23.854 26.4078 24.5249 27.3779 25.1065 27.8398C25.1065 27.8398 26.3475 29.0057 31.0782 32.5692C32.975 32.3053 34.0769 31.0037 34.047 30.1312C32.7946 29.4164 29.2214 25.882 28.3047 24.9691C27.5358 24.2035 27.3882 23.23 27.0524 20.3937Z" fill="#FCA512"/>
<path id="Vector_21" d="M27.0524 20.3937C26.7375 17.7334 24.7542 15.2682 23.9714 14.6083L23.4961 15.0592V25.475C23.854 26.4078 24.5249 27.3779 25.1065 27.8398C25.1065 27.8398 26.3475 29.0057 31.0782 32.5692C32.975 32.3053 34.0769 31.0037 34.047 30.1312C32.7946 29.4164 29.2214 25.882 28.3047 24.9691C27.5358 24.2035 27.3882 23.23 27.0524 20.3937Z" fill="url(#paint17_linear_0_4285)"/>
<path id="Vector_22" d="M27.0524 20.3937C26.7375 17.7334 24.7542 15.2682 23.9714 14.6083L23.4961 15.0592V25.475C23.854 26.4078 24.5249 27.3779 25.1065 27.8398C25.1065 27.8398 26.3475 29.0057 31.0782 32.5692C32.975 32.3053 34.0769 31.0037 34.047 30.1312C32.7946 29.4164 29.2214 25.882 28.3047 24.9691C27.5358 24.2035 27.3882 23.23 27.0524 20.3937Z" fill="url(#paint18_radial_0_4285)"/>
<path id="Vector_23" d="M27.0524 20.3937C26.7375 17.7334 24.7542 15.2682 23.9714 14.6083L23.4961 15.0592V25.475C23.854 26.4078 24.5249 27.3779 25.1065 27.8398C25.1065 27.8398 26.3475 29.0057 31.0782 32.5692C32.975 32.3053 34.0769 31.0037 34.047 30.1312C32.7946 29.4164 29.2214 25.882 28.3047 24.9691C27.5358 24.2035 27.3882 23.23 27.0524 20.3937Z" fill="url(#paint19_radial_0_4285)"/>
<path id="Vector_24" d="M27.0524 20.3937C26.7375 17.7334 24.7542 15.2682 23.9714 14.6083L23.4961 15.0592V25.475C23.854 26.4078 24.5249 27.3779 25.1065 27.8398C25.1065 27.8398 26.3475 29.0057 31.0782 32.5692C32.975 32.3053 34.0769 31.0037 34.047 30.1312C32.7946 29.4164 29.2214 25.882 28.3047 24.9691C27.5358 24.2035 27.3882 23.23 27.0524 20.3937Z" fill="url(#paint20_radial_0_4285)"/>
<g id="Group_3">
<path id="Vector_25" d="M14.3509 32.1777L12.0918 27.8982H23.9756L21.7545 32.1777H14.3509Z" fill="url(#paint21_radial_0_4285)"/>
</g>
<path id="Vector_26" d="M22.1463 13.34V14.3735C22.1463 16.35 20.544 17.9523 18.5676 17.9523H17.5163C15.5398 17.9523 13.9375 16.35 13.9375 14.3735V13.3377C15.0299 12.741 16.4716 12.215 18.1091 12.215C19.6126 12.215 21.0515 12.7515 22.1463 13.34Z" fill="url(#paint22_radial_0_4285)"/>
<path id="Vector_27" d="M22.1463 13.34V14.3735C22.1463 16.35 20.544 17.9523 18.5676 17.9523H17.5163C15.5398 17.9523 13.9375 16.35 13.9375 14.3735V13.3377C15.0299 12.741 16.4716 12.215 18.1091 12.215C19.6126 12.215 21.0515 12.7515 22.1463 13.34Z" fill="url(#paint23_radial_0_4285)"/>
<g id="Group_4">
<path id="Vector_28" d="M22.1453 13.3385V14.3721C22.1453 16.3486 20.543 17.9508 18.5665 17.9508H17.5152C15.5387 17.9508 13.9364 16.3486 13.9364 14.3721V13.3362C13.1066 13.7896 12.4783 14.2838 12.1191 14.6192V27.897H23.9846V14.6192C23.701 14.3324 23.0374 13.8182 22.1453 13.3385Z" fill="url(#paint24_radial_0_4285)"/>
<path id="Vector_29" d="M22.1453 13.3385V14.3721C22.1453 16.3486 20.543 17.9508 18.5665 17.9508H17.5152C15.5387 17.9508 13.9364 16.3486 13.9364 14.3721V13.3362C13.1066 13.7896 12.4783 14.2838 12.1191 14.6192V27.897H23.9846V14.6192C23.701 14.3324 23.0374 13.8182 22.1453 13.3385Z" fill="url(#paint25_radial_0_4285)"/>
</g>
<path id="Vector_30" d="M22.1453 13.3385V14.3721C22.1453 16.3486 20.543 17.9508 18.5665 17.9508H17.5152C15.5387 17.9508 13.9364 16.3486 13.9364 14.3721V13.3362C13.1066 13.7896 12.4783 14.2838 12.1191 14.6192V27.897H23.9846V14.6192C23.701 14.3324 23.0374 13.8182 22.1453 13.3385Z" fill="url(#paint26_radial_0_4285)"/>
<g id="Group_5">
<path id="Vector_31" fill-rule="evenodd" clip-rule="evenodd" d="M3.25588 30.366C3.34844 30.6683 3.17835 30.9886 2.87596 31.081C2.10864 31.3159 1.30322 31.2897 0.919319 31.2773C0.841545 31.2749 0.781064 31.2729 0.741712 31.2737C0.42555 31.2809 0.163498 31.0304 0.156398 30.7141C0.149283 30.3981 0.399825 30.136 0.715988 30.1288C0.813703 30.1266 0.923986 30.1295 1.04455 30.1325C1.45456 30.1431 1.98343 30.1566 2.54074 29.9861C2.84313 29.8935 3.16331 30.0635 3.25588 30.366Z" fill="url(#paint27_radial_0_4285)"/>
<path id="Vector_32" fill-rule="evenodd" clip-rule="evenodd" d="M32.8631 30.366C32.7705 30.6683 32.9406 30.9886 33.2429 31.081C34.0104 31.3159 34.8157 31.2897 35.1997 31.2773C35.2774 31.2749 35.3379 31.2729 35.3773 31.2737C35.6934 31.2809 35.9555 31.0304 35.9625 30.7141C35.9697 30.3981 35.7191 30.136 35.4029 30.1288C35.3053 30.1266 35.1949 30.1295 35.0744 30.1325C34.6644 30.1431 34.1355 30.1566 33.5782 29.9861C33.2758 29.8935 32.9556 30.0635 32.8631 30.366Z" fill="url(#paint28_radial_0_4285)"/>
<path id="Vector_33" fill-rule="evenodd" clip-rule="evenodd" d="M3.4395 31.0504C3.58027 31.3335 3.46483 31.6772 3.18165 31.8181C2.10354 32.3541 1.02095 32.4594 0.572603 32.4594C0.256354 32.4594 0 32.203 0 31.8868C0 31.5706 0.256354 31.3142 0.572603 31.3142C0.895923 31.3142 1.79283 31.2296 2.67185 30.7926C2.95503 30.6519 3.29871 30.7672 3.4395 31.0504Z" fill="url(#paint29_radial_0_4285)"/>
<path id="Vector_34" fill-rule="evenodd" clip-rule="evenodd" d="M32.6791 31.0504C32.5384 31.3335 32.6538 31.6772 32.9369 31.8181C34.0151 32.3541 35.0976 32.4594 35.546 32.4594C35.8622 32.4594 36.1186 32.203 36.1186 31.8868C36.1186 31.5706 35.8622 31.3142 35.546 31.3142C35.2228 31.3142 34.3258 31.2296 33.4468 30.7926C33.1635 30.6519 32.82 30.7672 32.6791 31.0504Z" fill="url(#paint30_radial_0_4285)"/>
<path id="Vector_35" fill-rule="evenodd" clip-rule="evenodd" d="M3.83235 31.6543C4.03791 31.8947 4.00973 32.256 3.76941 32.4615C3.28428 32.8765 2.87079 33.1146 2.47681 33.2476C2.11338 33.3704 1.79335 33.3927 1.53913 33.4103C1.52125 33.4116 1.50369 33.4128 1.48647 33.4141C1.17103 33.4365 0.897059 33.1991 0.874527 32.8837C0.851995 32.5682 1.08944 32.2942 1.40487 32.2717C1.41369 32.2711 1.42241 32.2704 1.43104 32.2699C1.70265 32.2505 1.88977 32.2372 2.11025 32.1626C2.33276 32.0875 2.62105 31.9369 3.02502 31.5913C3.26534 31.3858 3.6268 31.414 3.83235 31.6543Z" fill="url(#paint31_radial_0_4285)"/>
<path id="Vector_36" fill-rule="evenodd" clip-rule="evenodd" d="M32.2879 31.6543C32.0823 31.8947 32.1105 32.256 32.3507 32.4615C32.8359 32.8765 33.2494 33.1146 33.6434 33.2476C34.0068 33.3704 34.3268 33.3927 34.581 33.4103C34.5989 33.4116 34.6165 33.4128 34.6337 33.4141C34.9492 33.4365 35.2232 33.1991 35.2457 32.8837C35.2683 32.5682 35.0308 32.2942 34.7153 32.2717C34.7065 32.2711 34.6978 32.2704 34.6891 32.2699C34.4175 32.2505 34.2304 32.2372 34.01 32.1626C33.7874 32.0875 33.4992 31.9369 33.0952 31.5913C32.8549 31.3858 32.4934 31.414 32.2879 31.6543Z" fill="url(#paint32_radial_0_4285)"/>
<path id="Vector_37" fill-rule="evenodd" clip-rule="evenodd" d="M5.08597 31.8056C5.2865 32.0502 5.25081 32.4109 5.00627 32.6115C4.19661 33.2754 3.66865 33.5437 3.29823 33.7318C3.26215 33.7503 3.22755 33.7677 3.19432 33.7849C2.91319 33.9298 2.56789 33.8193 2.42307 33.5381C2.27824 33.257 2.38874 32.9117 2.66988 32.7668C2.7043 32.7491 2.73958 32.7312 2.77588 32.7127C3.12335 32.5363 3.56577 32.3116 4.28012 31.726C4.52465 31.5254 4.88545 31.561 5.08597 31.8056Z" fill="url(#paint33_radial_0_4285)"/>
<path id="Vector_38" fill-rule="evenodd" clip-rule="evenodd" d="M31.0322 31.8056C30.8317 32.0502 30.8673 32.4109 31.112 32.6115C31.9216 33.2754 32.4496 33.5437 32.8199 33.7318C32.856 33.7503 32.8906 33.7677 32.9238 33.7849C33.205 33.9298 33.5502 33.8193 33.6951 33.5381C33.84 33.257 33.7295 32.9117 33.4483 32.7668C33.4138 32.7491 33.3786 32.7312 33.3422 32.7127C32.9948 32.5363 32.5523 32.3116 31.838 31.726C31.5935 31.5254 31.2328 31.561 31.0322 31.8056Z" fill="url(#paint34_radial_0_4285)"/>
</g>
<path id="Vector_39" d="M13.6322 9.3084C14.4679 9.3084 15.1453 8.63097 15.1453 7.79531C15.1453 6.95966 14.4679 6.28223 13.6322 6.28223C12.7966 6.28223 12.1191 6.95966 12.1191 7.79531C12.1191 8.63097 12.7966 9.3084 13.6322 9.3084Z" fill="url(#paint35_radial_0_4285)"/>
<g id="Group_6">
<path id="Vector_40" d="M13.6322 8.69821C14.1303 8.69821 14.534 8.29447 14.534 7.79643C14.534 7.29839 14.1303 6.89465 13.6322 6.89465C13.1342 6.89465 12.7305 7.29839 12.7305 7.79643C12.7305 8.29447 13.1342 8.69821 13.6322 8.69821Z" fill="url(#paint36_linear_0_4285)"/>
</g>
<g id="Group_7">
<path id="Vector_41" d="M22.2553 9.30938C23.0909 9.30938 23.7684 8.63195 23.7684 7.79629C23.7684 6.96064 23.0909 6.2832 22.2553 6.2832C21.4196 6.2832 20.7422 6.96064 20.7422 7.79629C20.7422 8.63195 21.4196 9.30938 22.2553 9.30938Z" fill="url(#paint37_linear_0_4285)"/>
<path id="Vector_42" d="M22.2553 9.30938C23.0909 9.30938 23.7684 8.63195 23.7684 7.79629C23.7684 6.96064 23.0909 6.2832 22.2553 6.2832C21.4196 6.2832 20.7422 6.96064 20.7422 7.79629C20.7422 8.63195 21.4196 9.30938 22.2553 9.30938Z" fill="url(#paint38_radial_0_4285)"/>
</g>
<g id="Group_8">
<path id="Vector_43" d="M22.2553 8.69821C22.7533 8.69821 23.1571 8.29447 23.1571 7.79643C23.1571 7.29839 22.7533 6.89465 22.2553 6.89465C21.7573 6.89465 21.3535 7.29839 21.3535 7.79643C21.3535 8.29447 21.7573 8.69821 22.2553 8.69821Z" fill="#FFBF34"/>
<path id="Vector_44" d="M22.2553 8.69821C22.7533 8.69821 23.1571 8.29447 23.1571 7.79643C23.1571 7.29839 22.7533 6.89465 22.2553 6.89465C21.7573 6.89465 21.3535 7.29839 21.3535 7.79643C21.3535 8.29447 21.7573 8.69821 22.2553 8.69821Z" fill="url(#paint39_radial_0_4285)"/>
<path id="Vector_45" d="M22.2553 8.69821C22.7533 8.69821 23.1571 8.29447 23.1571 7.79643C23.1571 7.29839 22.7533 6.89465 22.2553 6.89465C21.7573 6.89465 21.3535 7.29839 21.3535 7.79643C21.3535 8.29447 21.7573 8.69821 22.2553 8.69821Z" fill="url(#paint40_radial_0_4285)"/>
</g>
<path id="Vector_46" d="M13.3145 7.24056C13.2906 6.95642 13.2617 6.14544 13.2617 5.93693C13.2617 5.69523 13.3591 5.40519 13.5535 5.26018L13.6993 5.11517C13.9424 4.92182 14.0396 4.63178 14.0396 4.34176V3.56833C14.0396 3.32665 14.1855 3.13329 14.4285 3.08495C15.0119 2.93994 16.2274 2.69824 17.9775 2.69824C19.7277 2.69824 20.943 2.93994 21.5264 3.08495C21.7209 3.13329 21.9153 3.32665 21.9153 3.56833V4.34176C21.9153 4.63178 22.0612 4.92182 22.2556 5.11517C22.7107 5.43404 22.6823 5.60943 22.6445 5.98525C22.6328 6.10168 22.596 7.06789 22.5638 7.2902L22.3227 10.8779C22.1773 12.4818 20.9164 13.5995 19.413 13.5995H16.5034C14.9516 13.5995 13.7393 12.4818 13.5937 10.8779L13.3145 7.24056Z" fill="url(#paint41_linear_0_4285)"/>
<path id="Vector_47" d="M13.3145 7.24056C13.2906 6.95642 13.2617 6.14544 13.2617 5.93693C13.2617 5.69523 13.3591 5.40519 13.5535 5.26018L13.6993 5.11517C13.9424 4.92182 14.0396 4.63178 14.0396 4.34176V3.56833C14.0396 3.32665 14.1855 3.13329 14.4285 3.08495C15.0119 2.93994 16.2274 2.69824 17.9775 2.69824C19.7277 2.69824 20.943 2.93994 21.5264 3.08495C21.7209 3.13329 21.9153 3.32665 21.9153 3.56833V4.34176C21.9153 4.63178 22.0612 4.92182 22.2556 5.11517C22.7107 5.43404 22.6823 5.60943 22.6445 5.98525C22.6328 6.10168 22.596 7.06789 22.5638 7.2902L22.3227 10.8779C22.1773 12.4818 20.9164 13.5995 19.413 13.5995H16.5034C14.9516 13.5995 13.7393 12.4818 13.5937 10.8779L13.3145 7.24056Z" fill="url(#paint42_linear_0_4285)"/>
<path id="Vector_48" d="M13.3145 7.24056C13.2906 6.95642 13.2617 6.14544 13.2617 5.93693C13.2617 5.69523 13.3591 5.40519 13.5535 5.26018L13.6993 5.11517C13.9424 4.92182 14.0396 4.63178 14.0396 4.34176V3.56833C14.0396 3.32665 14.1855 3.13329 14.4285 3.08495C15.0119 2.93994 16.2274 2.69824 17.9775 2.69824C19.7277 2.69824 20.943 2.93994 21.5264 3.08495C21.7209 3.13329 21.9153 3.32665 21.9153 3.56833V4.34176C21.9153 4.63178 22.0612 4.92182 22.2556 5.11517C22.7107 5.43404 22.6823 5.60943 22.6445 5.98525C22.6328 6.10168 22.596 7.06789 22.5638 7.2902L22.3227 10.8779C22.1773 12.4818 20.9164 13.5995 19.413 13.5995H16.5034C14.9516 13.5995 13.7393 12.4818 13.5937 10.8779L13.3145 7.24056Z" fill="url(#paint43_radial_0_4285)"/>
<path id="Vector_49" d="M13.3145 7.24056C13.2906 6.95642 13.2617 6.14544 13.2617 5.93693C13.2617 5.69523 13.3591 5.40519 13.5535 5.26018L13.6993 5.11517C13.9424 4.92182 14.0396 4.63178 14.0396 4.34176V3.56833C14.0396 3.32665 14.1855 3.13329 14.4285 3.08495C15.0119 2.93994 16.2274 2.69824 17.9775 2.69824C19.7277 2.69824 20.943 2.93994 21.5264 3.08495C21.7209 3.13329 21.9153 3.32665 21.9153 3.56833V4.34176C21.9153 4.63178 22.0612 4.92182 22.2556 5.11517C22.7107 5.43404 22.6823 5.60943 22.6445 5.98525C22.6328 6.10168 22.596 7.06789 22.5638 7.2902L22.3227 10.8779C22.1773 12.4818 20.9164 13.5995 19.413 13.5995H16.5034C14.9516 13.5995 13.7393 12.4818 13.5937 10.8779L13.3145 7.24056Z" fill="url(#paint44_radial_0_4285)"/>
<path id="Vector_50" d="M13.3145 7.24056C13.2906 6.95642 13.2617 6.14544 13.2617 5.93693C13.2617 5.69523 13.3591 5.40519 13.5535 5.26018L13.6993 5.11517C13.9424 4.92182 14.0396 4.63178 14.0396 4.34176V3.56833C14.0396 3.32665 14.1855 3.13329 14.4285 3.08495C15.0119 2.93994 16.2274 2.69824 17.9775 2.69824C19.7277 2.69824 20.943 2.93994 21.5264 3.08495C21.7209 3.13329 21.9153 3.32665 21.9153 3.56833V4.34176C21.9153 4.63178 22.0612 4.92182 22.2556 5.11517C22.7107 5.43404 22.6823 5.60943 22.6445 5.98525C22.6328 6.10168 22.596 7.06789 22.5638 7.2902L22.3227 10.8779C22.1773 12.4818 20.9164 13.5995 19.413 13.5995H16.5034C14.9516 13.5995 13.7393 12.4818 13.5937 10.8779L13.3145 7.24056Z" fill="url(#paint45_radial_0_4285)"/>
<g id="Group_9">
<path id="Vector_51" d="M22.3029 1.9246L22.6918 2.11796C23.3724 2.45632 23.7613 3.22974 23.6154 4.05149L23.0808 6.80679C23.0329 7.09135 22.8448 7.28285 22.5623 7.28998C22.5946 6.83356 22.6247 6.09717 22.6364 5.98078C22.6759 5.58824 22.6141 5.47274 22.2542 5.11492C22.0598 4.92156 21.9139 4.63153 21.9139 4.3415V3.56809C21.9139 3.32639 21.7194 3.13304 21.525 3.0847C20.9417 2.93969 19.7262 2.69799 17.976 2.69799C16.226 2.69799 15.0105 2.93969 14.4272 3.0847C14.1841 3.13304 14.0382 3.32639 14.0382 3.56809V4.3415C14.0382 4.63153 13.941 4.92156 13.6979 5.11492L13.5521 5.25993C13.3575 5.40495 13.2595 5.7079 13.2595 5.94959C13.2724 6.09059 13.2915 6.90241 13.3132 7.2403C13.0415 7.22174 12.8203 7.03362 12.7742 6.75846L12.2394 4.00315C12.1422 3.22974 12.5311 2.45632 13.2118 2.11796C14.1305 1.7152 14.4654 1.10378 15.205 0.474445C15.7397 -0.00894605 16.5176 -0.153958 17.1983 0.184408C17.6844 0.329433 18.2191 0.329433 18.7054 0.184408C19.4346 -0.0572737 20.261 0.13608 20.8443 0.667799L21.5737 1.39287C21.7681 1.63457 22.0111 1.77958 22.3029 1.9246Z" fill="#FFA91B"/>
<path id="Vector_52" d="M22.3029 1.9246L22.6918 2.11796C23.3724 2.45632 23.7613 3.22974 23.6154 4.05149L23.0808 6.80679C23.0329 7.09135 22.8448 7.28285 22.5623 7.28998C22.5946 6.83356 22.6247 6.09717 22.6364 5.98078C22.6759 5.58824 22.6141 5.47274 22.2542 5.11492C22.0598 4.92156 21.9139 4.63153 21.9139 4.3415V3.56809C21.9139 3.32639 21.7194 3.13304 21.525 3.0847C20.9417 2.93969 19.7262 2.69799 17.976 2.69799C16.226 2.69799 15.0105 2.93969 14.4272 3.0847C14.1841 3.13304 14.0382 3.32639 14.0382 3.56809V4.3415C14.0382 4.63153 13.941 4.92156 13.6979 5.11492L13.5521 5.25993C13.3575 5.40495 13.2595 5.7079 13.2595 5.94959C13.2724 6.09059 13.2915 6.90241 13.3132 7.2403C13.0415 7.22174 12.8203 7.03362 12.7742 6.75846L12.2394 4.00315C12.1422 3.22974 12.5311 2.45632 13.2118 2.11796C14.1305 1.7152 14.4654 1.10378 15.205 0.474445C15.7397 -0.00894605 16.5176 -0.153958 17.1983 0.184408C17.6844 0.329433 18.2191 0.329433 18.7054 0.184408C19.4346 -0.0572737 20.261 0.13608 20.8443 0.667799L21.5737 1.39287C21.7681 1.63457 22.0111 1.77958 22.3029 1.9246Z" fill="url(#paint46_radial_0_4285)"/>
<path id="Vector_53" d="M22.3029 1.9246L22.6918 2.11796C23.3724 2.45632 23.7613 3.22974 23.6154 4.05149L23.0808 6.80679C23.0329 7.09135 22.8448 7.28285 22.5623 7.28998C22.5946 6.83356 22.6247 6.09717 22.6364 5.98078C22.6759 5.58824 22.6141 5.47274 22.2542 5.11492C22.0598 4.92156 21.9139 4.63153 21.9139 4.3415V3.56809C21.9139 3.32639 21.7194 3.13304 21.525 3.0847C20.9417 2.93969 19.7262 2.69799 17.976 2.69799C16.226 2.69799 15.0105 2.93969 14.4272 3.0847C14.1841 3.13304 14.0382 3.32639 14.0382 3.56809V4.3415C14.0382 4.63153 13.941 4.92156 13.6979 5.11492L13.5521 5.25993C13.3575 5.40495 13.2595 5.7079 13.2595 5.94959C13.2724 6.09059 13.2915 6.90241 13.3132 7.2403C13.0415 7.22174 12.8203 7.03362 12.7742 6.75846L12.2394 4.00315C12.1422 3.22974 12.5311 2.45632 13.2118 2.11796C14.1305 1.7152 14.4654 1.10378 15.205 0.474445C15.7397 -0.00894605 16.5176 -0.153958 17.1983 0.184408C17.6844 0.329433 18.2191 0.329433 18.7054 0.184408C19.4346 -0.0572737 20.261 0.13608 20.8443 0.667799L21.5737 1.39287C21.7681 1.63457 22.0111 1.77958 22.3029 1.9246Z" fill="url(#paint47_linear_0_4285)"/>
<path id="Vector_54" d="M22.3029 1.9246L22.6918 2.11796C23.3724 2.45632 23.7613 3.22974 23.6154 4.05149L23.0808 6.80679C23.0329 7.09135 22.8448 7.28285 22.5623 7.28998C22.5946 6.83356 22.6247 6.09717 22.6364 5.98078C22.6759 5.58824 22.6141 5.47274 22.2542 5.11492C22.0598 4.92156 21.9139 4.63153 21.9139 4.3415V3.56809C21.9139 3.32639 21.7194 3.13304 21.525 3.0847C20.9417 2.93969 19.7262 2.69799 17.976 2.69799C16.226 2.69799 15.0105 2.93969 14.4272 3.0847C14.1841 3.13304 14.0382 3.32639 14.0382 3.56809V4.3415C14.0382 4.63153 13.941 4.92156 13.6979 5.11492L13.5521 5.25993C13.3575 5.40495 13.2595 5.7079 13.2595 5.94959C13.2724 6.09059 13.2915 6.90241 13.3132 7.2403C13.0415 7.22174 12.8203 7.03362 12.7742 6.75846L12.2394 4.00315C12.1422 3.22974 12.5311 2.45632 13.2118 2.11796C14.1305 1.7152 14.4654 1.10378 15.205 0.474445C15.7397 -0.00894605 16.5176 -0.153958 17.1983 0.184408C17.6844 0.329433 18.2191 0.329433 18.7054 0.184408C19.4346 -0.0572737 20.261 0.13608 20.8443 0.667799L21.5737 1.39287C21.7681 1.63457 22.0111 1.77958 22.3029 1.9246Z" fill="url(#paint48_radial_0_4285)"/>
<path id="Vector_55" d="M22.3029 1.9246L22.6918 2.11796C23.3724 2.45632 23.7613 3.22974 23.6154 4.05149L23.0808 6.80679C23.0329 7.09135 22.8448 7.28285 22.5623 7.28998C22.5946 6.83356 22.6247 6.09717 22.6364 5.98078C22.6759 5.58824 22.6141 5.47274 22.2542 5.11492C22.0598 4.92156 21.9139 4.63153 21.9139 4.3415V3.56809C21.9139 3.32639 21.7194 3.13304 21.525 3.0847C20.9417 2.93969 19.7262 2.69799 17.976 2.69799C16.226 2.69799 15.0105 2.93969 14.4272 3.0847C14.1841 3.13304 14.0382 3.32639 14.0382 3.56809V4.3415C14.0382 4.63153 13.941 4.92156 13.6979 5.11492L13.5521 5.25993C13.3575 5.40495 13.2595 5.7079 13.2595 5.94959C13.2724 6.09059 13.2915 6.90241 13.3132 7.2403C13.0415 7.22174 12.8203 7.03362 12.7742 6.75846L12.2394 4.00315C12.1422 3.22974 12.5311 2.45632 13.2118 2.11796C14.1305 1.7152 14.4654 1.10378 15.205 0.474445C15.7397 -0.00894605 16.5176 -0.153958 17.1983 0.184408C17.6844 0.329433 18.2191 0.329433 18.7054 0.184408C19.4346 -0.0572737 20.261 0.13608 20.8443 0.667799L21.5737 1.39287C21.7681 1.63457 22.0111 1.77958 22.3029 1.9246Z" fill="url(#paint49_radial_0_4285)"/>
<path id="Vector_56" d="M22.3029 1.9246L22.6918 2.11796C23.3724 2.45632 23.7613 3.22974 23.6154 4.05149L23.0808 6.80679C23.0329 7.09135 22.8448 7.28285 22.5623 7.28998C22.5946 6.83356 22.6247 6.09717 22.6364 5.98078C22.6759 5.58824 22.6141 5.47274 22.2542 5.11492C22.0598 4.92156 21.9139 4.63153 21.9139 4.3415V3.56809C21.9139 3.32639 21.7194 3.13304 21.525 3.0847C20.9417 2.93969 19.7262 2.69799 17.976 2.69799C16.226 2.69799 15.0105 2.93969 14.4272 3.0847C14.1841 3.13304 14.0382 3.32639 14.0382 3.56809V4.3415C14.0382 4.63153 13.941 4.92156 13.6979 5.11492L13.5521 5.25993C13.3575 5.40495 13.2595 5.7079 13.2595 5.94959C13.2724 6.09059 13.2915 6.90241 13.3132 7.2403C13.0415 7.22174 12.8203 7.03362 12.7742 6.75846L12.2394 4.00315C12.1422 3.22974 12.5311 2.45632 13.2118 2.11796C14.1305 1.7152 14.4654 1.10378 15.205 0.474445C15.7397 -0.00894605 16.5176 -0.153958 17.1983 0.184408C17.6844 0.329433 18.2191 0.329433 18.7054 0.184408C19.4346 -0.0572737 20.261 0.13608 20.8443 0.667799L21.5737 1.39287C21.7681 1.63457 22.0111 1.77958 22.3029 1.9246Z" fill="url(#paint50_radial_0_4285)"/>
<path id="Vector_57" d="M22.3029 1.9246L22.6918 2.11796C23.3724 2.45632 23.7613 3.22974 23.6154 4.05149L23.0808 6.80679C23.0329 7.09135 22.8448 7.28285 22.5623 7.28998C22.5946 6.83356 22.6247 6.09717 22.6364 5.98078C22.6759 5.58824 22.6141 5.47274 22.2542 5.11492C22.0598 4.92156 21.9139 4.63153 21.9139 4.3415V3.56809C21.9139 3.32639 21.7194 3.13304 21.525 3.0847C20.9417 2.93969 19.7262 2.69799 17.976 2.69799C16.226 2.69799 15.0105 2.93969 14.4272 3.0847C14.1841 3.13304 14.0382 3.32639 14.0382 3.56809V4.3415C14.0382 4.63153 13.941 4.92156 13.6979 5.11492L13.5521 5.25993C13.3575 5.40495 13.2595 5.7079 13.2595 5.94959C13.2724 6.09059 13.2915 6.90241 13.3132 7.2403C13.0415 7.22174 12.8203 7.03362 12.7742 6.75846L12.2394 4.00315C12.1422 3.22974 12.5311 2.45632 13.2118 2.11796C14.1305 1.7152 14.4654 1.10378 15.205 0.474445C15.7397 -0.00894605 16.5176 -0.153958 17.1983 0.184408C17.6844 0.329433 18.2191 0.329433 18.7054 0.184408C19.4346 -0.0572737 20.261 0.13608 20.8443 0.667799L21.5737 1.39287C21.7681 1.63457 22.0111 1.77958 22.3029 1.9246Z" fill="url(#paint51_radial_0_4285)"/>
</g>
<path id="Vector_58" d="M22.3029 1.9246L22.6918 2.11796C23.3724 2.45632 23.7613 3.22974 23.6154 4.05149L23.0808 6.80679C23.0329 7.09135 22.8448 7.28285 22.5623 7.28998C22.5946 6.83356 22.6247 6.09717 22.6364 5.98078C22.6759 5.58824 22.6141 5.47274 22.2542 5.11492C22.0598 4.92156 21.9139 4.63153 21.9139 4.3415V3.56809C21.9139 3.32639 21.7194 3.13304 21.525 3.0847C20.9417 2.93969 19.7262 2.69799 17.976 2.69799C16.226 2.69799 15.0105 2.93969 14.4272 3.0847C14.1841 3.13304 14.0382 3.32639 14.0382 3.56809V4.3415C14.0382 4.63153 13.941 4.92156 13.6979 5.11492L13.5521 5.25993C13.3575 5.40495 13.2595 5.7079 13.2595 5.94959C13.2724 6.09059 13.2915 6.90241 13.3132 7.2403C13.0415 7.22174 12.8203 7.03362 12.7742 6.75846L12.2394 4.00315C12.1422 3.22974 12.5311 2.45632 13.2118 2.11796C14.1305 1.7152 14.4654 1.10378 15.205 0.474445C15.7397 -0.00894605 16.5176 -0.153958 17.1983 0.184408C17.6844 0.329433 18.2191 0.329433 18.7054 0.184408C19.4346 -0.0572737 20.261 0.13608 20.8443 0.667799L21.5737 1.39287C21.7681 1.63457 22.0111 1.77958 22.3029 1.9246Z" fill="url(#paint52_radial_0_4285)"/>
<path id="Vector_59" d="M22.3029 1.9246L22.6918 2.11796C23.3724 2.45632 23.7613 3.22974 23.6154 4.05149L23.0808 6.80679C23.0329 7.09135 22.8448 7.28285 22.5623 7.28998C22.5946 6.83356 22.6247 6.09717 22.6364 5.98078C22.6759 5.58824 22.6141 5.47274 22.2542 5.11492C22.0598 4.92156 21.9139 4.63153 21.9139 4.3415V3.56809C21.9139 3.32639 21.7194 3.13304 21.525 3.0847C20.9417 2.93969 19.7262 2.69799 17.976 2.69799C16.226 2.69799 15.0105 2.93969 14.4272 3.0847C14.1841 3.13304 14.0382 3.32639 14.0382 3.56809V4.3415C14.0382 4.63153 13.941 4.92156 13.6979 5.11492L13.5521 5.25993C13.3575 5.40495 13.2595 5.7079 13.2595 5.94959C13.2724 6.09059 13.2915 6.90241 13.3132 7.2403C13.0415 7.22174 12.8203 7.03362 12.7742 6.75846L12.2394 4.00315C12.1422 3.22974 12.5311 2.45632 13.2118 2.11796C14.1305 1.7152 14.4654 1.10378 15.205 0.474445C15.7397 -0.00894605 16.5176 -0.153958 17.1983 0.184408C17.6844 0.329433 18.2191 0.329433 18.7054 0.184408C19.4346 -0.0572737 20.261 0.13608 20.8443 0.667799L21.5737 1.39287C21.7681 1.63457 22.0111 1.77958 22.3029 1.9246Z" fill="url(#paint53_radial_0_4285)"/>
<path id="Vector_60" d="M22.3029 1.9246L22.6918 2.11796C23.3724 2.45632 23.7613 3.22974 23.6154 4.05149L23.0808 6.80679C23.0329 7.09135 22.8448 7.28285 22.5623 7.28998C22.5946 6.83356 22.6247 6.09717 22.6364 5.98078C22.6759 5.58824 22.6141 5.47274 22.2542 5.11492C22.0598 4.92156 21.9139 4.63153 21.9139 4.3415V3.56809C21.9139 3.32639 21.7194 3.13304 21.525 3.0847C20.9417 2.93969 19.7262 2.69799 17.976 2.69799C16.226 2.69799 15.0105 2.93969 14.4272 3.0847C14.1841 3.13304 14.0382 3.32639 14.0382 3.56809V4.3415C14.0382 4.63153 13.941 4.92156 13.6979 5.11492L13.5521 5.25993C13.3575 5.40495 13.2595 5.7079 13.2595 5.94959C13.2724 6.09059 13.2915 6.90241 13.3132 7.2403C13.0415 7.22174 12.8203 7.03362 12.7742 6.75846L12.2394 4.00315C12.1422 3.22974 12.5311 2.45632 13.2118 2.11796C14.1305 1.7152 14.4654 1.10378 15.205 0.474445C15.7397 -0.00894605 16.5176 -0.153958 17.1983 0.184408C17.6844 0.329433 18.2191 0.329433 18.7054 0.184408C19.4346 -0.0572737 20.261 0.13608 20.8443 0.667799L21.5737 1.39287C21.7681 1.63457 22.0111 1.77958 22.3029 1.9246Z" fill="url(#paint54_radial_0_4285)"/>
<g id="Group_10">
<path id="Vector_61" d="M17.6865 7.68464L16.943 9.22506C16.8508 9.54192 17.072 9.85877 17.3853 9.85877H18.0535C18.3669 9.85877 18.5881 9.53704 18.4959 9.22506L18.0444 7.68464C17.9476 7.3434 17.7879 7.3434 17.6865 7.68464Z" fill="#F1901C"/>
</g>
<g id="Group_11">
<path id="Vector_62" d="M17.5901 7.53669L17.1084 9.07711C17.0102 9.39396 17.2461 9.71082 17.5802 9.71082H18.2927C18.6269 9.71082 18.8629 9.38909 18.7645 9.07711L18.283 7.53669C18.1797 7.19545 17.6982 7.19545 17.5901 7.53669Z" fill="#FFCC28"/>
<path id="Vector_63" d="M17.5901 7.53669L17.1084 9.07711C17.0102 9.39396 17.2461 9.71082 17.5802 9.71082H18.2927C18.6269 9.71082 18.8629 9.38909 18.7645 9.07711L18.283 7.53669C18.1797 7.19545 17.6982 7.19545 17.5901 7.53669Z" fill="url(#paint55_linear_0_4285)"/>
<path id="Vector_64" d="M17.5901 7.53669L17.1084 9.07711C17.0102 9.39396 17.2461 9.71082 17.5802 9.71082H18.2927C18.6269 9.71082 18.8629 9.38909 18.7645 9.07711L18.283 7.53669C18.1797 7.19545 17.6982 7.19545 17.5901 7.53669Z" fill="url(#paint56_linear_0_4285)"/>
<path id="Vector_65" d="M17.5901 7.53669L17.1084 9.07711C17.0102 9.39396 17.2461 9.71082 17.5802 9.71082H18.2927C18.6269 9.71082 18.8629 9.38909 18.7645 9.07711L18.283 7.53669C18.1797 7.19545 17.6982 7.19545 17.5901 7.53669Z" fill="url(#paint57_linear_0_4285)"/>
</g>
<g id="Group_12">
<path id="Vector_66" d="M17.9366 10.6339C17.4767 10.6339 17.0445 10.5257 16.6812 10.3363C16.5571 10.2731 16.4237 10.4129 16.5018 10.5257C16.8053 10.9856 17.3341 11.2922 17.9366 11.2922C18.539 11.2922 19.0678 10.9856 19.3713 10.5257C19.4494 10.4084 19.316 10.2731 19.1919 10.3363C18.8286 10.5257 18.401 10.6339 17.9366 10.6339Z" stroke="url(#paint58_radial_0_4285)" stroke-width="0.652802"/>
</g>
<path id="Vector_67" d="M17.9366 10.633C17.4767 10.633 17.0445 10.5248 16.6812 10.3354C16.5571 10.2723 16.4237 10.4121 16.5018 10.5248C16.8053 10.9847 17.3341 11.2914 17.9366 11.2914C18.539 11.2914 19.0678 10.9847 19.3713 10.5248C19.4494 10.4076 19.316 10.2723 19.1919 10.3354C18.8286 10.5248 18.401 10.633 17.9366 10.633Z" fill="#8A004F"/>
<g id="Group_13">
<path id="Vector_68" fill-rule="evenodd" clip-rule="evenodd" d="M19.5479 5.79654C20.2003 5.73555 20.6187 5.99011 20.7202 6.08365C20.894 6.24386 21.1648 6.23281 21.325 6.05895C21.4852 5.88511 21.4742 5.6143 21.3004 5.4541C21.0228 5.19833 20.3655 4.86024 19.4682 4.94415C19.2329 4.96615 19.0599 5.17483 19.082 5.41021C19.1039 5.64559 19.3126 5.81856 19.5479 5.79654Z" fill="url(#paint59_radial_0_4285)"/>
</g>
<g id="Group_14">
<path id="Vector_69" d="M21.0118 5.66911C20.8223 5.49447 20.2845 5.19813 19.5098 5.2706" stroke="#D76D5B" stroke-width="0.489602" stroke-linecap="round"/>
</g>
<g id="Group_15">
<path id="Vector_70" fill-rule="evenodd" clip-rule="evenodd" d="M16.3239 5.79654C15.6716 5.73555 15.2533 5.99011 15.1518 6.08365C14.9779 6.24386 14.7072 6.23281 14.5469 6.05895C14.3867 5.88511 14.3977 5.6143 14.5716 5.4541C14.8492 5.19833 15.5065 4.86024 16.4037 4.94415C16.639 4.96615 16.8121 5.17483 16.79 5.41021C16.768 5.64559 16.5593 5.81856 16.3239 5.79654Z" fill="url(#paint60_radial_0_4285)"/>
</g>
<g id="Group_16">
<path id="Vector_71" d="M14.8613 5.66911C15.0509 5.49447 15.5887 5.19813 16.3634 5.2706" stroke="#D76D5B" stroke-width="0.489602" stroke-linecap="round"/>
</g>
<path id="Vector_72" d="M15.0996 7.07111C15.2002 7.23513 15.5335 7.56319 16.0614 7.56319C16.4865 7.56319 16.9076 7.23513 17.0008 7.07111" stroke="#A83B3E" stroke-width="0.979203" stroke-linecap="round"/>
<g id="Group_17">
<path id="Vector_73" d="M15.0996 7.07025C15.2002 7.23427 15.5335 7.56233 16.0614 7.56233C16.4865 7.56233 16.9076 7.23427 17.0008 7.07025" stroke="#BB614F" stroke-width="0.326401" stroke-linecap="round"/>
</g>
<path id="Vector_74" d="M19.0918 7.07111C19.1924 7.23513 19.5257 7.56319 20.0536 7.56319C20.4785 7.56319 20.8998 7.23513 20.993 7.07111" stroke="#A83B3E" stroke-width="0.979203" stroke-linecap="round"/>
<g id="Group_18">
<path id="Vector_75" d="M19.0918 7.07025C19.1924 7.23427 19.5257 7.56233 20.0536 7.56233C20.4785 7.56233 20.8998 7.23427 20.993 7.07025" stroke="#BB614F" stroke-width="0.326401" stroke-linecap="round"/>
</g>
</g>
<defs>
<radialGradient id="paint0_radial_0_4285" cx="0" cy="0" r="1" gradientUnits="userSpaceOnUse" gradientTransform="translate(3.06338 30.0514) rotate(-165.38) scale(1.59301 1.02942)">
<stop offset="0.0965224" stop-color="#FDC021"/>
<stop offset="0.819839" stop-color="#EEB232"/>
</radialGradient>
<radialGradient id="paint1_radial_0_4285" cx="0" cy="0" r="1" gradientUnits="userSpaceOnUse" gradientTransform="translate(33.0552 30.0514) rotate(-14.6195) scale(1.59301 1.02942)">
<stop offset="0.0965224" stop-color="#FDC021"/>
<stop offset="0.819839" stop-color="#EEB232"/>
</radialGradient>
<radialGradient id="paint2_radial_0_4285" cx="0" cy="0" r="1" gradientUnits="userSpaceOnUse" gradientTransform="translate(32.8289 33.4297) rotate(180) scale(5.87422 9.94387)">
<stop stop-color="#F0BE37"/>
<stop offset="1" stop-color="#FFBE23"/>
</radialGradient>
<radialGradient id="paint3_radial_0_4285" cx="0" cy="0" r="1" gradientUnits="userSpaceOnUse" gradientTransform="translate(30.2203 31.4614) rotate(71.3421) scale(3.63563 3.84072)">
<stop stop-color="#D67D04"/>
<stop offset="1" stop-color="#F1A516" stop-opacity="0"/>
</radialGradient>
<radialGradient id="paint4_radial_0_4285" cx="0" cy="0" r="1" gradientUnits="userSpaceOnUse" gradientTransform="translate(9.23895 38.2168) rotate(15.4885) scale(3.85288 2.81418)">
<stop offset="0.270372" stop-color="#DF9538"/>
<stop offset="1" stop-color="#C57645"/>
</radialGradient>
<radialGradient id="paint5_radial_0_4285" cx="0" cy="0" r="1" gradientUnits="userSpaceOnUse" gradientTransform="translate(9.04882 36.9196) rotate(95.9389) scale(3.35071 1.38079)">
<stop stop-color="#D8A451"/>
<stop offset="1" stop-color="#D8A451" stop-opacity="0"/>
</radialGradient>
<radialGradient id="paint6_radial_0_4285" cx="0" cy="0" r="1" gradientUnits="userSpaceOnUse" gradientTransform="translate(25.9249 34.9936) rotate(162.441) scale(1.64222 8.50193)">
<stop offset="0.206073" stop-color="#FFCF3B"/>
<stop offset="1" stop-color="#FFCF3B" stop-opacity="0"/>
</radialGradient>
<radialGradient id="paint7_radial_0_4285" cx="0" cy="0" r="1" gradientUnits="userSpaceOnUse" gradientTransform="translate(3.8708 31.8208) rotate(52.267) scale(4.75136 3.94563)">
<stop offset="0.145732" stop-color="#E29612"/>
<stop offset="1" stop-color="#FAB330" stop-opacity="0"/>
</radialGradient>
<radialGradient id="paint8_radial_0_4285" cx="0" cy="0" r="1" gradientUnits="userSpaceOnUse" gradientTransform="translate(23.0632 30.4321) scale(6.44178 2.72881)">
<stop stop-color="#E5A12B"/>
<stop offset="1" stop-color="#DA801C"/>
</radialGradient>
<linearGradient id="paint9_linear_0_4285" x1="25.9151" y1="27.4796" x2="25.9151" y2="29.1349" gradientUnits="userSpaceOnUse">
<stop stop-color="#AB5D27"/>
<stop offset="1" stop-color="#CC7E09" stop-opacity="0"/>
</linearGradient>
<linearGradient id="paint10_linear_0_4285" x1="21.8106" y1="32.1813" x2="23.5777" y2="32.7583" gradientUnits="userSpaceOnUse">
<stop offset="0.106403" stop-color="#B36722"/>
<stop offset="1" stop-color="#E79B22" stop-opacity="0"/>
</linearGradient>
<radialGradient id="paint11_radial_0_4285" cx="0" cy="0" r="1" gradientUnits="userSpaceOnUse" gradientTransform="translate(8.30017 30.6559) scale(6.30758 4.12341)">
<stop offset="0.141844" stop-color="#FBB22C"/>
<stop offset="1" stop-color="#D4861A"/>
</radialGradient>
<linearGradient id="paint12_linear_0_4285" x1="10.5928" y1="27.4796" x2="10.5928" y2="29.1349" gradientUnits="userSpaceOnUse">
<stop stop-color="#AB5D27"/>
<stop offset="1" stop-color="#CC7E09" stop-opacity="0"/>
</linearGradient>
<linearGradient id="paint13_linear_0_4285" x1="14.6973" y1="32.1813" x2="12.9302" y2="32.7583" gradientUnits="userSpaceOnUse">
<stop offset="0.106403" stop-color="#B36722"/>
<stop offset="1" stop-color="#E79B22" stop-opacity="0"/>
</linearGradient>
<linearGradient id="paint14_linear_0_4285" x1="12.6228" y1="26.9159" x2="9.46408" y2="26.6431" gradientUnits="userSpaceOnUse">
<stop offset="0.184099" stop-color="#E08113"/>
<stop offset="1" stop-color="#E08113" stop-opacity="0"/>
</linearGradient>
<radialGradient id="paint15_radial_0_4285" cx="0" cy="0" r="1" gradientUnits="userSpaceOnUse" gradientTransform="translate(5.34772 31.0075) rotate(-40.9891) scale(8.65256 2.93376)">
<stop offset="0.267882" stop-color="#FFDA3F"/>
<stop offset="1" stop-color="#FFDA3F" stop-opacity="0"/>
</radialGradient>
<radialGradient id="paint16_radial_0_4285" cx="0" cy="0" r="1" gradientUnits="userSpaceOnUse" gradientTransform="translate(12.6226 26.0045) rotate(117.54) scale(4.9947 1.68191)">
<stop stop-color="#8B310C"/>
<stop offset="1" stop-color="#D17602" stop-opacity="0"/>
</radialGradient>
<linearGradient id="paint17_linear_0_4285" x1="23.4952" y1="26.9159" x2="26.6539" y2="26.6431" gradientUnits="userSpaceOnUse">
<stop offset="0.184099" stop-color="#E08113"/>
<stop offset="1" stop-color="#E08113" stop-opacity="0"/>
</linearGradient>
<radialGradient id="paint18_radial_0_4285" cx="0" cy="0" r="1" gradientUnits="userSpaceOnUse" gradientTransform="translate(23.4954 26.0045) rotate(62.4596) scale(4.9947 1.68191)">
<stop stop-color="#8B310C"/>
<stop offset="1" stop-color="#D17602" stop-opacity="0"/>
</radialGradient>
<radialGradient id="paint19_radial_0_4285" cx="0" cy="0" r="1" gradientUnits="userSpaceOnUse" gradientTransform="translate(32.2326 32.8936) rotate(-121.715) scale(4.68027 4.81753)">
<stop offset="0.353006" stop-color="#FED43D"/>
<stop offset="1" stop-color="#FFC938" stop-opacity="0"/>
</radialGradient>
<radialGradient id="paint20_radial_0_4285" cx="0" cy="0" r="1" gradientUnits="userSpaceOnUse" gradientTransform="translate(25.8355 16.1181) rotate(63.519) scale(13.644 6.25195)">
<stop stop-color="#FFDA44"/>
<stop offset="1" stop-color="#FFDA44" stop-opacity="0"/>
</radialGradient>
<radialGradient id="paint21_radial_0_4285" cx="0" cy="0" r="1" gradientUnits="userSpaceOnUse" gradientTransform="translate(21.4972 27.5699) rotate(99.6783) scale(5.85407 12.1923)">
<stop offset="0.125919" stop-color="#A99CA6"/>
<stop offset="0.925256" stop-color="#8C7778"/>
</radialGradient>
<radialGradient id="paint22_radial_0_4285" cx="0" cy="0" r="1" gradientUnits="userSpaceOnUse" gradientTransform="translate(20.3346 16.5208) rotate(-128.1) scale(5.00247 7.15755)">
<stop stop-color="#FFD43D"/>
<stop offset="1" stop-color="#F4AD2B"/>
</radialGradient>
<radialGradient id="paint23_radial_0_4285" cx="0" cy="0" r="1" gradientUnits="userSpaceOnUse" gradientTransform="translate(16.0401 11.7341) rotate(108.939) scale(4.82408 5.44067)">
<stop offset="0.42652" stop-color="#DC8D10"/>
<stop offset="1" stop-color="#E19D29" stop-opacity="0"/>
</radialGradient>
<radialGradient id="paint24_radial_0_4285" cx="0" cy="0" r="1" gradientUnits="userSpaceOnUse" gradientTransform="translate(20.423 16.3851) rotate(86.4422) scale(11.534 11.0941)">
<stop offset="0.296151" stop-color="#53ADFC"/>
<stop offset="1" stop-color="#3181D9"/>
</radialGradient>
<radialGradient id="paint25_radial_0_4285" cx="0" cy="0" r="1" gradientUnits="userSpaceOnUse" gradientTransform="translate(23.9843 18.1744) rotate(141.869) scale(14.7073 18.7172)">
<stop offset="0.406814" stop-color="#3482D0" stop-opacity="0"/>
<stop offset="1" stop-color="#3C515D"/>
</radialGradient>
<radialGradient id="paint26_radial_0_4285" cx="0" cy="0" r="1" gradientUnits="userSpaceOnUse" gradientTransform="translate(11.7445 14.2826) rotate(28.8108) scale(6.12652 16.7204)">
<stop offset="0.0735765" stop-color="#3D84AE"/>
<stop offset="1" stop-color="#D3612E" stop-opacity="0"/>
</radialGradient>
<radialGradient id="paint27_radial_0_4285" cx="0" cy="0" r="1" gradientUnits="userSpaceOnUse" gradientTransform="translate(3.15556 30.5) rotate(172.928) scale(2.87953 1.20949)">
<stop offset="0.300197" stop-color="#FAC537"/>
<stop offset="1" stop-color="#EAA33B"/>
</radialGradient>
<radialGradient id="paint28_radial_0_4285" cx="0" cy="0" r="1" gradientUnits="userSpaceOnUse" gradientTransform="translate(32.9634 30.5) rotate(7.07209) scale(2.87953 1.20949)">
<stop offset="0.300197" stop-color="#FAC537"/>
<stop offset="1" stop-color="#EAA33B"/>
</radialGradient>
<radialGradient id="paint29_radial_0_4285" cx="0" cy="0" r="1" gradientUnits="userSpaceOnUse" gradientTransform="translate(3.346 31.1935) rotate(167.535) scale(3.26428 0.956825)">
<stop offset="0.300197" stop-color="#FDD33C"/>
<stop offset="1" stop-color="#EAA33B"/>
</radialGradient>
<radialGradient id="paint30_radial_0_4285" cx="0" cy="0" r="1" gradientUnits="userSpaceOnUse" gradientTransform="translate(32.7726 31.1935) rotate(12.4649) scale(3.26428 0.956825)">
<stop offset="0.300197" stop-color="#FDD33C"/>
<stop offset="1" stop-color="#EAA33B"/>
</radialGradient>
<radialGradient id="paint31_radial_0_4285" cx="0" cy="0" r="1" gradientUnits="userSpaceOnUse" gradientTransform="translate(3.65987 31.7637) rotate(151.199) scale(3.18024 0.813797)">
<stop offset="0.300197" stop-color="#FFDB40"/>
<stop offset="1" stop-color="#EAA33B"/>
</radialGradient>
<radialGradient id="paint32_radial_0_4285" cx="0" cy="0" r="1" gradientUnits="userSpaceOnUse" gradientTransform="translate(32.4604 31.7637) rotate(28.8014) scale(3.18024 0.813797)">
<stop offset="0.300197" stop-color="#FFDB40"/>
<stop offset="1" stop-color="#EAA33B"/>
</radialGradient>
<radialGradient id="paint33_radial_0_4285" cx="0" cy="0" r="1" gradientUnits="userSpaceOnUse" gradientTransform="translate(4.70445 31.794) rotate(143.988) scale(3.13848 1.82508)">
<stop offset="0.300197" stop-color="#FFDB40"/>
<stop offset="1" stop-color="#ECA037"/>
</radialGradient>
<radialGradient id="paint34_radial_0_4285" cx="0" cy="0" r="1" gradientUnits="userSpaceOnUse" gradientTransform="translate(31.4137 31.794) rotate(36.0124) scale(3.13848 1.82508)">
<stop offset="0.300197" stop-color="#FFDB40"/>
<stop offset="1" stop-color="#ECA037"/>
</radialGradient>
<radialGradient id="paint35_radial_0_4285" cx="0" cy="0" r="1" gradientUnits="userSpaceOnUse" gradientTransform="translate(12.1191 7.79531) scale(1.59049 2.78338)">
<stop offset="0.350532" stop-color="#E6962B"/>
<stop offset="1" stop-color="#CA8F29"/>
</radialGradient>
<linearGradient id="paint36_linear_0_4285" x1="13.6322" y1="8.04899" x2="13.0516" y2="8.04899" gradientUnits="userSpaceOnUse">
<stop stop-color="#BD6A1E"/>
<stop offset="1" stop-color="#D77A1C"/>
</linearGradient>
<linearGradient id="paint37_linear_0_4285" x1="23.24" y1="6.80698" x2="22.4979" y2="9.1057" gradientUnits="userSpaceOnUse">
<stop stop-color="#FFE446"/>
<stop offset="1" stop-color="#FFC339"/>
</linearGradient>
<radialGradient id="paint38_radial_0_4285" cx="0" cy="0" r="1" gradientUnits="userSpaceOnUse" gradientTransform="translate(22.5925 7.55624) rotate(-36.0604) scale(0.92686 1.05789)">
<stop offset="0.542503" stop-color="#FFC532"/>
<stop offset="1" stop-color="#FFC532" stop-opacity="0"/>
</radialGradient>
<radialGradient id="paint39_radial_0_4285" cx="0" cy="0" r="1" gradientUnits="userSpaceOnUse" gradientTransform="translate(22.2179 8.54079) rotate(-61.4675) scale(1.55831 0.912086)">
<stop offset="0.689542" stop-color="#F4A51A" stop-opacity="0"/>
<stop offset="1" stop-color="#F4A51A"/>
</radialGradient>
<radialGradient id="paint40_radial_0_4285" cx="0" cy="0" r="1" gradientUnits="userSpaceOnUse" gradientTransform="translate(22.2553 7.79643) rotate(44.7077) scale(0.330661 0.426268)">
<stop stop-color="#E59B1F"/>
<stop offset="1" stop-color="#E59B1F" stop-opacity="0"/>
</radialGradient>
<linearGradient id="paint41_linear_0_4285" x1="21.5945" y1="8.1489" x2="14.673" y2="9.18032" gradientUnits="userSpaceOnUse">
<stop stop-color="#FFE833"/>
<stop offset="0.91602" stop-color="#F9A528"/>
</linearGradient>
<linearGradient id="paint42_linear_0_4285" x1="13.0461" y1="10.5924" x2="15.1421" y2="10.319" gradientUnits="userSpaceOnUse">
<stop stop-color="#D19C3A"/>
<stop offset="1" stop-color="#D19C3A" stop-opacity="0"/>
</linearGradient>
<radialGradient id="paint43_radial_0_4285" cx="0" cy="0" r="1" gradientUnits="userSpaceOnUse" gradientTransform="translate(18.3815 6.35388) rotate(90) scale(7.78146 8.88502)">
<stop offset="0.56" stop-color="#F49A3E" stop-opacity="0"/>
<stop offset="1" stop-color="#D07F50"/>
</radialGradient>
<radialGradient id="paint44_radial_0_4285" cx="0" cy="0" r="1" gradientUnits="userSpaceOnUse" gradientTransform="translate(20.0629 6.64352) rotate(-90) scale(1.18465 1.45803)">
<stop stop-color="#FFBA0D"/>
<stop offset="1" stop-color="#FFBA0D" stop-opacity="0"/>
</radialGradient>
<radialGradient id="paint45_radial_0_4285" cx="0" cy="0" r="1" gradientUnits="userSpaceOnUse" gradientTransform="translate(15.9319 6.61314) rotate(-90) scale(1.26059 1.56766)">
<stop stop-color="#EE911A"/>
<stop offset="1" stop-color="#EE911A" stop-opacity="0"/>
</radialGradient>
<radialGradient id="paint46_radial_0_4285" cx="0" cy="0" r="1" gradientUnits="userSpaceOnUse" gradientTransform="translate(21.2818 0.805023) rotate(127.807) scale(5.08107 8.64083)">
<stop stop-color="#FFE336"/>
<stop offset="1" stop-color="#FFE336" stop-opacity="0"/>
</radialGradient>
<linearGradient id="paint47_linear_0_4285" x1="13.5296" y1="7.5535" x2="16.1599" y2="2.88148" gradientUnits="userSpaceOnUse">
<stop stop-color="#E07027"/>
<stop offset="1" stop-color="#E07027" stop-opacity="0"/>
</linearGradient>
<radialGradient id="paint48_radial_0_4285" cx="0" cy="0" r="1" gradientUnits="userSpaceOnUse" gradientTransform="translate(14.1867 4.49817) rotate(-95.2901) scale(1.8136 0.890703)">
<stop offset="0.22158" stop-color="#FFB42C"/>
<stop offset="1" stop-color="#FFB42C" stop-opacity="0"/>
</radialGradient>
<radialGradient id="paint49_radial_0_4285" cx="0" cy="0" r="1" gradientUnits="userSpaceOnUse" gradientTransform="translate(21.7662 6.22111) rotate(-66.3998) scale(1.94497 1.58627)">
<stop offset="0.478737" stop-color="#E57D1C"/>
<stop offset="1" stop-color="#E57D1C" stop-opacity="0"/>
</radialGradient>
<radialGradient id="paint50_radial_0_4285" cx="0" cy="0" r="1" gradientUnits="userSpaceOnUse" gradientTransform="translate(17.2326 1.13503e-06) rotate(51.1339) scale(1.43394 1.26606)">
<stop stop-color="#FFCE2C"/>
<stop offset="1" stop-color="#FFCE2C" stop-opacity="0"/>
</radialGradient>
<radialGradient id="paint51_radial_0_4285" cx="0" cy="0" r="1" gradientUnits="userSpaceOnUse" gradientTransform="translate(21.7316 3.97162) rotate(-64.4528) scale(3.04945 1.05363)">
<stop stop-color="#FFD93A"/>
<stop offset="1" stop-color="#FFD93A" stop-opacity="0"/>
</radialGradient>
<radialGradient id="paint52_radial_0_4285" cx="0" cy="0" r="1" gradientUnits="userSpaceOnUse" gradientTransform="translate(18.5651) rotate(75.569) scale(0.949815 1.56153)">
<stop offset="0.207744" stop-color="#DDB13B"/>
<stop offset="1" stop-color="#FFC926" stop-opacity="0"/>
</radialGradient>
<radialGradient id="paint53_radial_0_4285" cx="0" cy="0" r="1" gradientUnits="userSpaceOnUse" gradientTransform="translate(13.9638 1.1428) rotate(55.3048) scale(1.76256 3.66786)">
<stop offset="0.288" stop-color="#C9993E"/>
<stop offset="1" stop-color="#F29322" stop-opacity="0"/>
</radialGradient>
<radialGradient id="paint54_radial_0_4285" cx="0" cy="0" r="1" gradientUnits="userSpaceOnUse" gradientTransform="translate(18.9801 3.84047) rotate(155.748) scale(7.16469 8.96507)">
<stop offset="0.756258" stop-color="#CF7D35" stop-opacity="0"/>
<stop offset="0.958595" stop-color="#CF7D35"/>
</radialGradient>
<linearGradient id="paint55_linear_0_4285" x1="17.1532" y1="8.74574" x2="18.0035" y2="8.74574" gradientUnits="userSpaceOnUse">
<stop stop-color="#FAA416"/>
<stop offset="1" stop-color="#FAA416" stop-opacity="0"/>
</linearGradient>
<linearGradient id="paint56_linear_0_4285" x1="18.787" y1="9.03804" x2="17.8574" y2="9.02476" gradientUnits="userSpaceOnUse">
<stop stop-color="#FFE721"/>
<stop offset="1" stop-color="#FFE721" stop-opacity="0"/>
</linearGradient>
<linearGradient id="paint57_linear_0_4285" x1="18.1127" y1="9.71082" x2="18.1127" y2="9.19146" gradientUnits="userSpaceOnUse">
<stop stop-color="#EB8A1C"/>
<stop offset="1" stop-color="#EB8A1C" stop-opacity="0"/>
</linearGradient>
<radialGradient id="paint58_radial_0_4285" cx="0" cy="0" r="1" gradientUnits="userSpaceOnUse" gradientTransform="translate(17.8599 11.4333) rotate(-87.7543) scale(0.568955 1.70687)">
<stop stop-color="#FFD069"/>
<stop offset="1" stop-color="#FFBE30" stop-opacity="0"/>
</radialGradient>
<radialGradient id="paint59_radial_0_4285" cx="0" cy="0" r="1" gradientUnits="userSpaceOnUse" gradientTransform="translate(20.1563 5.80231) rotate(-76.373) scale(0.757039 1.66082)">
<stop offset="0.656765" stop-color="#C64F38"/>
<stop offset="1" stop-color="#BB4F29"/>
</radialGradient>
<radialGradient id="paint60_radial_0_4285" cx="0" cy="0" r="1" gradientUnits="userSpaceOnUse" gradientTransform="translate(15.7155 5.80231) rotate(-103.627) scale(0.757039 1.66082)">
<stop offset="0.656765" stop-color="#C64F38"/>
<stop offset="1" stop-color="#BB4F29"/>
</radialGradient>
</defs>
</svg>
