<svg width="36" height="40" viewBox="0 0 36 40" fill="none" xmlns="http://www.w3.org/2000/svg">
<g id="&#240;&#159;&#166;&#134; emoji &#34;person mage default&#34;">
<path id="Vector" d="M1.69141 39.9956C1.69141 35.8762 5.95966 26.0484 17.0919 26.0484C28.2242 26.0484 32.2776 35.1884 32.6214 39.9956H1.69141Z" fill="#39A7FF"/>
<path id="Vector_2" d="M1.69141 39.9956C1.69141 35.8762 5.95966 26.0484 17.0919 26.0484C28.2242 26.0484 32.2776 35.1884 32.6214 39.9956H1.69141Z" fill="url(#paint0_radial_0_4125)"/>
<path id="Vector_3" d="M1.69141 39.9956C1.69141 35.8762 5.95966 26.0484 17.0919 26.0484C28.2242 26.0484 32.2776 35.1884 32.6214 39.9956H1.69141Z" fill="url(#paint1_radial_0_4125)"/>
<path id="Vector_4" d="M1.69141 39.9956C1.69141 35.8762 5.95966 26.0484 17.0919 26.0484C28.2242 26.0484 32.2776 35.1884 32.6214 39.9956H1.69141Z" fill="url(#paint2_radial_0_4125)"/>
<path id="Vector_5" d="M1.69141 39.9956C1.69141 35.8762 5.95966 26.0484 17.0919 26.0484C28.2242 26.0484 32.2776 35.1884 32.6214 39.9956H1.69141Z" fill="url(#paint3_radial_0_4125)"/>
<path id="Vector_6" d="M7.00639 29.6471C3.26871 32.88 1.69141 37.4937 1.69141 39.9978H7.00639V29.6471Z" fill="url(#paint4_radial_0_4125)"/>
<path id="Vector_7" d="M7.00639 29.6471C3.26871 32.88 1.69141 37.4937 1.69141 39.9978H7.00639V29.6471Z" fill="url(#paint5_radial_0_4125)"/>
<path id="Vector_8" d="M7.00639 29.6471C3.26871 32.88 1.69141 37.4937 1.69141 39.9978H7.00639V29.6471Z" fill="url(#paint6_radial_0_4125)"/>
<path id="Vector_9" d="M27.3633 29.6564C30.9013 32.7464 32.418 37.1381 32.6225 39.9974H27.3633V29.6564Z" fill="url(#paint7_radial_0_4125)"/>
<path id="Vector_10" d="M27.3633 29.6564C30.9013 32.7464 32.418 37.1381 32.6225 39.9974H27.3633V29.6564Z" fill="url(#paint8_radial_0_4125)"/>
<path id="Vector_11" d="M17.1518 32.3061C16.5881 32.3061 15.4774 32.2615 13.6577 31.6252C13.6216 31.6086 13.5845 31.5918 13.5463 31.5742C11.491 30.6348 6.40539 28.3103 6.61363 25.3401C6.61363 22.268 11.5553 22.2591 14.0262 22.6386H20.3204C22.7912 22.2591 27.7328 22.268 27.7328 25.3401C27.9412 28.3103 22.8555 30.6348 20.8002 31.5742C20.762 31.5918 20.7249 31.6086 20.6887 31.6252C18.8692 32.2615 17.7602 32.3061 17.1518 32.3061Z" fill="url(#paint9_linear_0_4125)"/>
<path id="Vector_12" d="M17.1518 32.3061C16.5881 32.3061 15.4774 32.2615 13.6577 31.6252C13.6216 31.6086 13.5845 31.5918 13.5463 31.5742C11.491 30.6348 6.40539 28.3103 6.61363 25.3401C6.61363 22.268 11.5553 22.2591 14.0262 22.6386H20.3204C22.7912 22.2591 27.7328 22.268 27.7328 25.3401C27.9412 28.3103 22.8555 30.6348 20.8002 31.5742C20.762 31.5918 20.7249 31.6086 20.6887 31.6252C18.8692 32.2615 17.7602 32.3061 17.1518 32.3061Z" fill="url(#paint10_radial_0_4125)"/>
<path id="Vector_13" d="M17.1518 32.3061C16.5881 32.3061 15.4774 32.2615 13.6577 31.6252C13.6216 31.6086 13.5845 31.5918 13.5463 31.5742C11.491 30.6348 6.40539 28.3103 6.61363 25.3401C6.61363 22.268 11.5553 22.2591 14.0262 22.6386H20.3204C22.7912 22.2591 27.7328 22.268 27.7328 25.3401C27.9412 28.3103 22.8555 30.6348 20.8002 31.5742C20.762 31.5918 20.7249 31.6086 20.6887 31.6252C18.8692 32.2615 17.7602 32.3061 17.1518 32.3061Z" fill="url(#paint11_radial_0_4125)"/>
<path id="Vector_14" d="M17.1518 32.3061C16.5881 32.3061 15.4774 32.2615 13.6577 31.6252C13.6216 31.6086 13.5845 31.5918 13.5463 31.5742C11.491 30.6348 6.40539 28.3103 6.61363 25.3401C6.61363 22.268 11.5553 22.2591 14.0262 22.6386H20.3204C22.7912 22.2591 27.7328 22.268 27.7328 25.3401C27.9412 28.3103 22.8555 30.6348 20.8002 31.5742C20.762 31.5918 20.7249 31.6086 20.6887 31.6252C18.8692 32.2615 17.7602 32.3061 17.1518 32.3061Z" fill="url(#paint12_radial_0_4125)"/>
<path id="Vector_15" d="M17.1518 32.3061C16.5881 32.3061 15.4774 32.2615 13.6577 31.6252C13.6216 31.6086 13.5845 31.5918 13.5463 31.5742C11.491 30.6348 6.40539 28.3103 6.61363 25.3401C6.61363 22.268 11.5553 22.2591 14.0262 22.6386H20.3204C22.7912 22.2591 27.7328 22.268 27.7328 25.3401C27.9412 28.3103 22.8555 30.6348 20.8002 31.5742C20.762 31.5918 20.7249 31.6086 20.6887 31.6252C18.8692 32.2615 17.7602 32.3061 17.1518 32.3061Z" fill="url(#paint13_radial_0_4125)"/>
<path id="Vector_16" d="M17.1518 32.3061C16.5881 32.3061 15.4774 32.2615 13.6577 31.6252C13.6216 31.6086 13.5845 31.5918 13.5463 31.5742C11.491 30.6348 6.40539 28.3103 6.61363 25.3401C6.61363 22.268 11.5553 22.2591 14.0262 22.6386H20.3204C22.7912 22.2591 27.7328 22.268 27.7328 25.3401C27.9412 28.3103 22.8555 30.6348 20.8002 31.5742C20.762 31.5918 20.7249 31.6086 20.6887 31.6252C18.8692 32.2615 17.7602 32.3061 17.1518 32.3061Z" fill="url(#paint14_radial_0_4125)"/>
<path id="Vector_17" d="M17.1518 32.3061C16.5881 32.3061 15.4774 32.2615 13.6577 31.6252C13.6216 31.6086 13.5845 31.5918 13.5463 31.5742C11.491 30.6348 6.40539 28.3103 6.61363 25.3401C6.61363 22.268 11.5553 22.2591 14.0262 22.6386H20.3204C22.7912 22.2591 27.7328 22.268 27.7328 25.3401C27.9412 28.3103 22.8555 30.6348 20.8002 31.5742C20.762 31.5918 20.7249 31.6086 20.6887 31.6252C18.8692 32.2615 17.7602 32.3061 17.1518 32.3061Z" fill="url(#paint15_radial_0_4125)"/>
<g id="Group">
<path id="Vector_18" d="M17.1711 32.1052C16.9106 32.1052 16.1891 31.884 15.1635 31.0503C13.7011 29.8614 11.1709 27.707 9.78833 26.5068C9.47997 26.2391 8.82957 25.552 8.97901 24.8044C9.21334 23.6322 10.9215 23.1634 13.5561 23.1634H20.7881C23.4227 23.1634 25.1308 23.6322 25.3652 24.8044C25.5146 25.552 24.8643 26.2391 24.5558 26.5068C23.1732 27.707 20.643 29.8614 19.1807 31.0503C18.155 31.884 17.5302 32.1052 17.1731 32.1052H17.1711Z" fill="#3978A9"/>
<path id="Vector_19" d="M17.1711 32.1052C16.9106 32.1052 16.1891 31.884 15.1635 31.0503C13.7011 29.8614 11.1709 27.707 9.78833 26.5068C9.47997 26.2391 8.82957 25.552 8.97901 24.8044C9.21334 23.6322 10.9215 23.1634 13.5561 23.1634H20.7881C23.4227 23.1634 25.1308 23.6322 25.3652 24.8044C25.5146 25.552 24.8643 26.2391 24.5558 26.5068C23.1732 27.707 20.643 29.8614 19.1807 31.0503C18.155 31.884 17.5302 32.1052 17.1731 32.1052H17.1711Z" fill="url(#paint16_radial_0_4125)"/>
<path id="Vector_20" d="M17.1711 32.1052C16.9106 32.1052 16.1891 31.884 15.1635 31.0503C13.7011 29.8614 11.1709 27.707 9.78833 26.5068C9.47997 26.2391 8.82957 25.552 8.97901 24.8044C9.21334 23.6322 10.9215 23.1634 13.5561 23.1634H20.7881C23.4227 23.1634 25.1308 23.6322 25.3652 24.8044C25.5146 25.552 24.8643 26.2391 24.5558 26.5068C23.1732 27.707 20.643 29.8614 19.1807 31.0503C18.155 31.884 17.5302 32.1052 17.1731 32.1052H17.1711Z" fill="url(#paint17_linear_0_4125)"/>
<path id="Vector_21" d="M17.1711 32.1052C16.9106 32.1052 16.1891 31.884 15.1635 31.0503C13.7011 29.8614 11.1709 27.707 9.78833 26.5068C9.47997 26.2391 8.82957 25.552 8.97901 24.8044C9.21334 23.6322 10.9215 23.1634 13.5561 23.1634H20.7881C23.4227 23.1634 25.1308 23.6322 25.3652 24.8044C25.5146 25.552 24.8643 26.2391 24.5558 26.5068C23.1732 27.707 20.643 29.8614 19.1807 31.0503C18.155 31.884 17.5302 32.1052 17.1731 32.1052H17.1711Z" fill="url(#paint18_radial_0_4125)"/>
<path id="Vector_22" d="M15.1196 31.1026C15.6363 31.5227 16.078 31.7897 16.4251 31.9519C16.7703 32.1134 17.0269 32.1735 17.1722 32.1735H17.1742C17.557 32.1735 18.1985 31.9386 19.2269 31.1026C20.6902 29.913 23.2209 27.7581 24.6038 26.5576C24.7613 26.4209 25.0067 26.1767 25.1943 25.8696C25.3816 25.563 25.5161 25.1856 25.4363 24.7872C25.3119 24.1645 24.7966 23.7407 24.0007 23.4735C23.2041 23.206 22.1093 23.0888 20.7892 23.0888H13.5572C12.2372 23.0888 11.1424 23.206 10.3459 23.4735C9.54985 23.7407 9.03459 24.1645 8.9101 24.7872C8.83048 25.1856 8.96483 25.563 9.15219 25.8696C9.3398 26.1767 9.58515 26.4209 9.74261 26.5576C11.1255 27.7581 13.6564 29.913 15.1196 31.1026Z" stroke="url(#paint19_radial_0_4125)" stroke-width="0.0598701"/>
</g>
<g id="Group_2">
<path id="Vector_23" d="M16.8037 31.3966L14.4941 27.4608H19.8526L17.543 31.3966C17.3774 31.6788 16.9693 31.6788 16.8037 31.3966Z" fill="#C38D26"/>
<path id="Vector_24" d="M16.8037 31.3966L14.4941 27.4608H19.8526L17.543 31.3966C17.3774 31.6788 16.9693 31.6788 16.8037 31.3966Z" fill="url(#paint20_radial_0_4125)"/>
</g>
<g id="Group_3">
<path id="Vector_25" d="M17.1035 0C21.1616 0 23.8337 1.35746 25.4055 2.52917C26.1485 3.08644 25.7341 4.27244 24.8053 4.27244L17.2178 4.28673L17.1035 0Z" fill="url(#paint21_radial_0_4125)"/>
<path id="Vector_26" d="M17.1035 0C21.1616 0 23.8337 1.35746 25.4055 2.52917C26.1485 3.08644 25.7341 4.27244 24.8053 4.27244L17.2178 4.28673L17.1035 0Z" fill="url(#paint22_linear_0_4125)"/>
</g>
<path id="Vector_27" d="M16.8613 25.6942C17.2186 25.7084 17.5901 25.737 17.9616 25.7656C17.6044 25.737 17.2328 25.7084 16.8613 25.6942Z" fill="url(#paint23_linear_0_4125)"/>
<path id="Vector_28" d="M16.3892 25.6802C16.3749 25.6802 16.3606 25.6802 16.332 25.6802C16.4749 25.6802 16.6178 25.6802 16.7607 25.6945C16.6321 25.6945 16.5035 25.6802 16.3892 25.6802Z" fill="url(#paint24_linear_0_4125)"/>
<path id="Vector_29" d="M16.8613 25.6942C17.2186 25.7084 17.5901 25.737 17.9616 25.7656C17.6044 25.737 17.2328 25.7084 16.8613 25.6942Z" fill="url(#paint25_linear_0_4125)"/>
<path id="Vector_30" d="M16.3892 25.6802C16.3749 25.6802 16.3606 25.6802 16.332 25.6802C16.4749 25.6802 16.6178 25.6802 16.7607 25.6945C16.6321 25.6945 16.5035 25.6802 16.3892 25.6802Z" fill="url(#paint26_linear_0_4125)"/>
<path id="Vector_31" d="M25.6056 12.0886H8.60156L8.85877 11.5885C10.4592 8.50201 13.6314 0 17.1036 0C20.5902 0 23.7766 8.5163 25.3627 11.6171L25.6056 12.0886Z" fill="url(#paint27_radial_0_4125)"/>
<path id="Vector_32" d="M25.6056 12.0886H8.60156L8.85877 11.5885C10.4592 8.50201 13.6314 0 17.1036 0C20.5902 0 23.7766 8.5163 25.3627 11.6171L25.6056 12.0886Z" fill="url(#paint28_linear_0_4125)"/>
<path id="Vector_33" d="M25.6056 12.0886H8.60156L8.85877 11.5885C10.4592 8.50201 13.6314 0 17.1036 0C20.5902 0 23.7766 8.5163 25.3627 11.6171L25.6056 12.0886Z" fill="url(#paint29_radial_0_4125)"/>
<path id="Vector_34" d="M8.27345 11.6435L8.00195 12.1865H26.2062L25.949 11.6721C25.4918 10.7861 24.9202 9.98587 24.2486 9.28571H9.9595C9.3022 9.98587 8.7307 10.7718 8.27345 11.6435Z" fill="url(#paint30_linear_0_4125)"/>
<path id="Vector_35" d="M8.27345 11.6435L8.00195 12.1865H26.2062L25.949 11.6721C25.4918 10.7861 24.9202 9.98587 24.2486 9.28571H9.9595C9.3022 9.98587 8.7307 10.7718 8.27345 11.6435Z" fill="url(#paint31_linear_0_4125)"/>
<path id="Vector_36" d="M8.27345 11.6435L8.00195 12.1865H26.2062L25.949 11.6721C25.4918 10.7861 24.9202 9.98587 24.2486 9.28571H9.9595C9.3022 9.98587 8.7307 10.7718 8.27345 11.6435Z" fill="url(#paint32_linear_0_4125)"/>
<path id="Vector_37" d="M28.078 23.5515L6.35865 23.5372C2.85782 23.5372 0 20.6794 0 17.1643C0 13.6491 2.85782 10.7913 6.37294 10.7913L28.0923 10.8056C31.6074 10.8056 34.4652 13.6634 34.4652 17.1785C34.451 20.6937 31.5931 23.5515 28.078 23.5515Z" fill="url(#paint33_radial_0_4125)"/>
<path id="Vector_38" d="M28.078 23.5515L6.35865 23.5372C2.85782 23.5372 0 20.6794 0 17.1643C0 13.6491 2.85782 10.7913 6.37294 10.7913L28.0923 10.8056C31.6074 10.8056 34.4652 13.6634 34.4652 17.1785C34.451 20.6937 31.5931 23.5515 28.078 23.5515Z" fill="url(#paint34_radial_0_4125)"/>
<path id="Vector_39" d="M28.078 23.5515L6.35865 23.5372C2.85782 23.5372 0 20.6794 0 17.1643C0 13.6491 2.85782 10.7913 6.37294 10.7913L28.0923 10.8056C31.6074 10.8056 34.4652 13.6634 34.4652 17.1785C34.451 20.6937 31.5931 23.5515 28.078 23.5515Z" fill="url(#paint35_radial_0_4125)"/>
<path id="Vector_40" d="M28.078 23.5515L6.35865 23.5372C2.85782 23.5372 0 20.6794 0 17.1643C0 13.6491 2.85782 10.7913 6.37294 10.7913L28.0923 10.8056C31.6074 10.8056 34.4652 13.6634 34.4652 17.1785C34.451 20.6937 31.5931 23.5515 28.078 23.5515Z" fill="url(#paint36_radial_0_4125)"/>
<path id="Vector_41" d="M28.078 23.5515L6.35865 23.5372C2.85782 23.5372 0 20.6794 0 17.1643C0 13.6491 2.85782 10.7913 6.37294 10.7913L28.0923 10.8056C31.6074 10.8056 34.4652 13.6634 34.4652 17.1785C34.451 20.6937 31.5931 23.5515 28.078 23.5515Z" fill="url(#paint37_radial_0_4125)"/>
<path id="Vector_42" d="M28.078 23.5515L6.35865 23.5372C2.85782 23.5372 0 20.6794 0 17.1643C0 13.6491 2.85782 10.7913 6.37294 10.7913L28.0923 10.8056C31.6074 10.8056 34.4652 13.6634 34.4652 17.1785C34.451 20.6937 31.5931 23.5515 28.078 23.5515Z" fill="url(#paint38_radial_0_4125)"/>
<path id="Vector_43" d="M28.078 23.5515L6.35865 23.5372C2.85782 23.5372 0 20.6794 0 17.1643C0 13.6491 2.85782 10.7913 6.37294 10.7913L28.0923 10.8056C31.6074 10.8056 34.4652 13.6634 34.4652 17.1785C34.451 20.6937 31.5931 23.5515 28.078 23.5515Z" fill="url(#paint39_radial_0_4125)"/>
<g id="Group_4">
<path id="Vector_44" d="M33.4384 30.0579C34.1984 30.0579 34.8203 30.6796 34.8203 31.4397V34.6041H32.0566V31.4397C32.0704 30.6796 32.6785 30.0579 33.4384 30.0579Z" fill="url(#paint40_radial_0_4125)"/>
</g>
<g id="Group_5">
<path id="Vector_45" d="M27.2201 23.0375H7.22962C3.986 23.0375 1.37109 20.8799 1.37109 18.2078C1.37109 15.5358 4.00029 13.3781 7.22962 13.3781L27.2201 13.3924C30.4637 13.3924 33.0786 15.5501 33.0786 18.2221C33.0786 20.8799 30.4494 23.0375 27.2201 23.0375Z" fill="url(#paint41_radial_0_4125)"/>
<path id="Vector_46" d="M27.2201 23.0375H7.22962C3.986 23.0375 1.37109 20.8799 1.37109 18.2078C1.37109 15.5358 4.00029 13.3781 7.22962 13.3781L27.2201 13.3924C30.4637 13.3924 33.0786 15.5501 33.0786 18.2221C33.0786 20.8799 30.4494 23.0375 27.2201 23.0375Z" fill="url(#paint42_radial_0_4125)"/>
<path id="Vector_47" d="M27.2201 23.0375H7.22962C3.986 23.0375 1.37109 20.8799 1.37109 18.2078C1.37109 15.5358 4.00029 13.3781 7.22962 13.3781L27.2201 13.3924C30.4637 13.3924 33.0786 15.5501 33.0786 18.2221C33.0786 20.8799 30.4494 23.0375 27.2201 23.0375Z" fill="url(#paint43_radial_0_4125)"/>
<path id="Vector_48" d="M27.2201 23.0375H7.22962C3.986 23.0375 1.37109 20.8799 1.37109 18.2078C1.37109 15.5358 4.00029 13.3781 7.22962 13.3781L27.2201 13.3924C30.4637 13.3924 33.0786 15.5501 33.0786 18.2221C33.0786 20.8799 30.4494 23.0375 27.2201 23.0375Z" fill="url(#paint44_radial_0_4125)"/>
<path id="Vector_49" d="M27.2201 23.0375H7.22962C3.986 23.0375 1.37109 20.8799 1.37109 18.2078C1.37109 15.5358 4.00029 13.3781 7.22962 13.3781L27.2201 13.3924C30.4637 13.3924 33.0786 15.5501 33.0786 18.2221C33.0786 20.8799 30.4494 23.0375 27.2201 23.0375Z" fill="url(#paint45_radial_0_4125)"/>
<path id="Vector_50" d="M27.2201 23.0375H7.22962C3.986 23.0375 1.37109 20.8799 1.37109 18.2078C1.37109 15.5358 4.00029 13.3781 7.22962 13.3781L27.2201 13.3924C30.4637 13.3924 33.0786 15.5501 33.0786 18.2221C33.0786 20.8799 30.4494 23.0375 27.2201 23.0375Z" fill="url(#paint46_radial_0_4125)"/>
<path id="Vector_51" d="M7.22994 13.2336L27.2204 13.2479M7.22994 13.2336V13.3765C4.0006 13.3765 1.37141 15.5341 1.37141 18.2062C1.37141 20.8782 3.98631 23.0359 7.22994 23.0359H27.2204C30.4497 23.0359 33.0789 20.8782 33.0789 18.2205C33.0789 15.5484 30.464 13.3908 27.2204 13.3908V13.2479M7.22994 13.2336C3.94894 13.2336 1.22852 15.4305 1.22852 18.2062C1.22852 20.9817 3.93441 23.1788 7.22994 23.1788H27.2204C30.501 23.1788 33.2218 20.9823 33.2218 18.2205C33.2218 15.4451 30.5159 13.248 27.2204 13.2479" stroke="url(#paint47_linear_0_4125)" stroke-width="0.11974"/>
</g>
<g id="Group_6">
<path id="Vector_52" d="M33.2216 4.71876C32.9358 4.56158 32.5786 4.77592 32.5786 5.10457V7.4194C32.5786 8.04812 32.0641 8.57682 31.4354 8.56253C30.8353 8.54824 30.3352 8.06241 30.3352 7.44798V5.10457C30.3352 4.77592 29.9779 4.56158 29.6922 4.71876C28.5347 5.34748 27.7488 6.56205 27.7346 7.96239C27.7203 9.40558 28.5633 10.6773 29.7779 11.306C29.9208 11.3775 30.0065 11.5204 30.0065 11.6776V34.4116C30.0065 35.226 30.6781 35.8976 31.4926 35.8976C32.3071 35.8976 32.9787 35.226 32.9787 34.4116V11.649C32.9787 11.4918 33.0644 11.3489 33.2073 11.2775C34.379 10.6487 35.1792 9.41987 35.1792 7.99096C35.1792 6.57634 34.3933 5.34748 33.2216 4.71876Z" fill="url(#paint48_linear_0_4125)"/>
<path id="Vector_53" d="M33.2216 4.71876C32.9358 4.56158 32.5786 4.77592 32.5786 5.10457V7.4194C32.5786 8.04812 32.0641 8.57682 31.4354 8.56253C30.8353 8.54824 30.3352 8.06241 30.3352 7.44798V5.10457C30.3352 4.77592 29.9779 4.56158 29.6922 4.71876C28.5347 5.34748 27.7488 6.56205 27.7346 7.96239C27.7203 9.40558 28.5633 10.6773 29.7779 11.306C29.9208 11.3775 30.0065 11.5204 30.0065 11.6776V34.4116C30.0065 35.226 30.6781 35.8976 31.4926 35.8976C32.3071 35.8976 32.9787 35.226 32.9787 34.4116V11.649C32.9787 11.4918 33.0644 11.3489 33.2073 11.2775C34.379 10.6487 35.1792 9.41987 35.1792 7.99096C35.1792 6.57634 34.3933 5.34748 33.2216 4.71876Z" fill="url(#paint49_radial_0_4125)"/>
<path id="Vector_54" d="M33.2216 4.71876C32.9358 4.56158 32.5786 4.77592 32.5786 5.10457V7.4194C32.5786 8.04812 32.0641 8.57682 31.4354 8.56253C30.8353 8.54824 30.3352 8.06241 30.3352 7.44798V5.10457C30.3352 4.77592 29.9779 4.56158 29.6922 4.71876C28.5347 5.34748 27.7488 6.56205 27.7346 7.96239C27.7203 9.40558 28.5633 10.6773 29.7779 11.306C29.9208 11.3775 30.0065 11.5204 30.0065 11.6776V34.4116C30.0065 35.226 30.6781 35.8976 31.4926 35.8976C32.3071 35.8976 32.9787 35.226 32.9787 34.4116V11.649C32.9787 11.4918 33.0644 11.3489 33.2073 11.2775C34.379 10.6487 35.1792 9.41987 35.1792 7.99096C35.1792 6.57634 34.3933 5.34748 33.2216 4.71876Z" fill="url(#paint50_radial_0_4125)"/>
<path id="Vector_55" d="M33.2216 4.71876C32.9358 4.56158 32.5786 4.77592 32.5786 5.10457V7.4194C32.5786 8.04812 32.0641 8.57682 31.4354 8.56253C30.8353 8.54824 30.3352 8.06241 30.3352 7.44798V5.10457C30.3352 4.77592 29.9779 4.56158 29.6922 4.71876C28.5347 5.34748 27.7488 6.56205 27.7346 7.96239C27.7203 9.40558 28.5633 10.6773 29.7779 11.306C29.9208 11.3775 30.0065 11.5204 30.0065 11.6776V34.4116C30.0065 35.226 30.6781 35.8976 31.4926 35.8976C32.3071 35.8976 32.9787 35.226 32.9787 34.4116V11.649C32.9787 11.4918 33.0644 11.3489 33.2073 11.2775C34.379 10.6487 35.1792 9.41987 35.1792 7.99096C35.1792 6.57634 34.3933 5.34748 33.2216 4.71876Z" fill="url(#paint51_radial_0_4125)"/>
</g>
<path id="Vector_56" d="M31.4652 9.53269C33.5169 9.53269 35.1803 7.86935 35.1803 5.81752C35.1803 3.76569 33.5169 2.10236 31.4652 2.10236C29.4133 2.10236 27.75 3.76569 27.75 5.81752C27.75 7.86935 29.4133 9.53269 31.4652 9.53269Z" fill="url(#paint52_radial_0_4125)"/>
<path id="Vector_57" d="M31.4652 9.53269C33.5169 9.53269 35.1803 7.86935 35.1803 5.81752C35.1803 3.76569 33.5169 2.10236 31.4652 2.10236C29.4133 2.10236 27.75 3.76569 27.75 5.81752C27.75 7.86935 29.4133 9.53269 31.4652 9.53269Z" fill="url(#paint53_radial_0_4125)"/>
<g id="Group_7">
<path id="Vector_58" d="M28.1094 33.3226C28.1094 32.7493 28.5742 32.2769 29.1475 32.2769H33.1053C34.0524 32.2769 34.82 33.0445 34.82 33.9916V38.573C34.82 39.3622 34.1802 40.0019 33.3911 40.0019H29.1475C28.5742 40.0019 28.1094 39.5295 28.1094 38.9562C28.1094 38.5464 28.3467 38.1883 28.6914 38.0173C28.3467 37.8462 28.1094 37.488 28.1094 37.0783C28.1094 36.6687 28.3467 36.3104 28.6914 36.1394C28.3467 35.9684 28.1094 35.6101 28.1094 35.2005C28.1094 34.7908 28.3467 34.4326 28.6914 34.2615C28.3467 34.0905 28.1094 33.7324 28.1094 33.3226Z" fill="url(#paint54_linear_0_4125)"/>
<path id="Vector_59" d="M28.1094 33.3226C28.1094 32.7493 28.5742 32.2769 29.1475 32.2769H33.1053C34.0524 32.2769 34.82 33.0445 34.82 33.9916V38.573C34.82 39.3622 34.1802 40.0019 33.3911 40.0019H29.1475C28.5742 40.0019 28.1094 39.5295 28.1094 38.9562C28.1094 38.5464 28.3467 38.1883 28.6914 38.0173C28.3467 37.8462 28.1094 37.488 28.1094 37.0783C28.1094 36.6687 28.3467 36.3104 28.6914 36.1394C28.3467 35.9684 28.1094 35.6101 28.1094 35.2005C28.1094 34.7908 28.3467 34.4326 28.6914 34.2615C28.3467 34.0905 28.1094 33.7324 28.1094 33.3226Z" fill="url(#paint55_radial_0_4125)"/>
<path id="Vector_60" d="M28.1094 33.3226C28.1094 32.7493 28.5742 32.2769 29.1475 32.2769H33.1053C34.0524 32.2769 34.82 33.0445 34.82 33.9916V38.573C34.82 39.3622 34.1802 40.0019 33.3911 40.0019H29.1475C28.5742 40.0019 28.1094 39.5295 28.1094 38.9562C28.1094 38.5464 28.3467 38.1883 28.6914 38.0173C28.3467 37.8462 28.1094 37.488 28.1094 37.0783C28.1094 36.6687 28.3467 36.3104 28.6914 36.1394C28.3467 35.9684 28.1094 35.6101 28.1094 35.2005C28.1094 34.7908 28.3467 34.4326 28.6914 34.2615C28.3467 34.0905 28.1094 33.7324 28.1094 33.3226Z" fill="url(#paint56_radial_0_4125)"/>
<path id="Vector_61" d="M28.1094 33.3226C28.1094 32.7493 28.5742 32.2769 29.1475 32.2769H33.1053C34.0524 32.2769 34.82 33.0445 34.82 33.9916V38.573C34.82 39.3622 34.1802 40.0019 33.3911 40.0019H29.1475C28.5742 40.0019 28.1094 39.5295 28.1094 38.9562C28.1094 38.5464 28.3467 38.1883 28.6914 38.0173C28.3467 37.8462 28.1094 37.488 28.1094 37.0783C28.1094 36.6687 28.3467 36.3104 28.6914 36.1394C28.3467 35.9684 28.1094 35.6101 28.1094 35.2005C28.1094 34.7908 28.3467 34.4326 28.6914 34.2615C28.3467 34.0905 28.1094 33.7324 28.1094 33.3226Z" fill="url(#paint57_radial_0_4125)"/>
<path id="Vector_62" d="M28.1094 33.3226C28.1094 32.7493 28.5742 32.2769 29.1475 32.2769H33.1053C34.0524 32.2769 34.82 33.0445 34.82 33.9916V38.573C34.82 39.3622 34.1802 40.0019 33.3911 40.0019H29.1475C28.5742 40.0019 28.1094 39.5295 28.1094 38.9562C28.1094 38.5464 28.3467 38.1883 28.6914 38.0173C28.3467 37.8462 28.1094 37.488 28.1094 37.0783C28.1094 36.6687 28.3467 36.3104 28.6914 36.1394C28.3467 35.9684 28.1094 35.6101 28.1094 35.2005C28.1094 34.7908 28.3467 34.4326 28.6914 34.2615C28.3467 34.0905 28.1094 33.7324 28.1094 33.3226Z" fill="url(#paint58_radial_0_4125)"/>
</g>
<g id="Group_8">
<path id="Vector_63" d="M28.8516 34.2533H31.4192" stroke="url(#paint59_linear_0_4125)" stroke-width="0.0299351" stroke-linecap="round"/>
</g>
<g id="Group_9">
<path id="Vector_64" d="M28.7422 36.1118H31.3097" stroke="url(#paint60_linear_0_4125)" stroke-width="0.0299351" stroke-linecap="round"/>
</g>
<g id="Group_10">
<path id="Vector_65" d="M28.8516 37.9777H31.4192" stroke="url(#paint61_linear_0_4125)" stroke-width="0.0299351" stroke-linecap="round"/>
</g>
<path id="Vector_66" d="M31.3673 4.93697C31.0323 4.33546 31.2462 3.57634 31.8461 3.23826C32.5007 2.8692 33.3307 3.15652 33.6172 3.85134L33.792 4.27516C34.028 4.84786 33.7991 5.50669 33.2588 5.80968C32.6679 6.1411 31.92 5.92945 31.5903 5.33747L31.3673 4.93697Z" fill="url(#paint62_radial_0_4125)"/>
<g id="Group_11">
<path id="Vector_67" d="M32.0254 11.3144V33.6168" stroke="url(#paint63_linear_0_4125)" stroke-width="0.299351" stroke-linecap="round"/>
</g>
<path id="Vector_68" d="M9.43593 23.0726C8.98047 22.2331 8.92614 20.7134 8.95591 20.0584H11.088V24.5238C10.7271 24.3899 9.89133 23.912 9.43593 23.0726Z" fill="url(#paint64_radial_0_4125)"/>
<path id="Vector_69" d="M9.43593 23.0726C8.98047 22.2331 8.92614 20.7134 8.95591 20.0584H11.088V24.5238C10.7271 24.3899 9.89133 23.912 9.43593 23.0726Z" fill="url(#paint65_radial_0_4125)"/>
<path id="Vector_70" d="M25.0564 23.0726C25.5119 22.2331 25.5662 20.7134 25.5365 20.0584H23.4043V24.5238C23.7652 24.3899 24.601 23.912 25.0564 23.0726Z" fill="url(#paint66_radial_0_4125)"/>
<path id="Vector_71" d="M10.4671 20.8741C11.7865 20.8741 12.8561 19.8045 12.8561 18.4851C12.8561 17.1657 11.7865 16.0961 10.4671 16.0961C9.1477 16.0961 8.07812 17.1657 8.07812 18.4851C8.07812 19.8045 9.1477 20.8741 10.4671 20.8741Z" fill="url(#paint67_radial_0_4125)"/>
<path id="Vector_72" d="M10.4671 20.8741C11.7865 20.8741 12.8561 19.8045 12.8561 18.4851C12.8561 17.1657 11.7865 16.0961 10.4671 16.0961C9.1477 16.0961 8.07812 17.1657 8.07812 18.4851C8.07812 19.8045 9.1477 20.8741 10.4671 20.8741Z" fill="url(#paint68_radial_0_4125)"/>
<path id="Vector_73" d="M23.9964 20.8741C25.3158 20.8741 26.3854 19.8045 26.3854 18.4851C26.3854 17.1657 25.3158 16.0961 23.9964 16.0961C22.677 16.0961 21.6074 17.1657 21.6074 18.4851C21.6074 19.8045 22.677 20.8741 23.9964 20.8741Z" fill="url(#paint69_radial_0_4125)"/>
<path id="Vector_74" d="M23.9964 20.8741C25.3158 20.8741 26.3854 19.8045 26.3854 18.4851C26.3854 17.1657 25.3158 16.0961 23.9964 16.0961C22.677 16.0961 21.6074 17.1657 21.6074 18.4851C21.6074 19.8045 22.677 20.8741 23.9964 20.8741Z" fill="url(#paint70_radial_0_4125)"/>
<g id="Group_12">
<path id="Vector_75" d="M10.4674 20.0034C11.3059 20.0034 11.9857 19.3236 11.9857 18.4851C11.9857 17.6466 11.3059 16.9669 10.4674 16.9669C9.62895 16.9669 8.94922 17.6466 8.94922 18.4851C8.94922 19.3236 9.62895 20.0034 10.4674 20.0034Z" fill="#BC7226"/>
</g>
<g id="Group_13">
<path id="Vector_76" d="M23.9967 20.0034C24.8352 20.0034 25.5149 19.3236 25.5149 18.4851C25.5149 17.6466 24.8352 16.9669 23.9967 16.9669C23.1582 16.9669 22.4785 17.6466 22.4785 18.4851C22.4785 19.3236 23.1582 20.0034 23.9967 20.0034Z" fill="url(#paint71_radial_0_4125)"/>
</g>
<g id="Group_14">
<path id="Vector_77" d="M24.6689 16.0842C24.6689 16.0699 24.6689 16.0699 24.6689 16.0842C24.706 15.0908 24.6689 14.53 23.8447 13.8323C23.426 13.5197 23.0968 13.3746 21.8947 13.3746H12.7148C11.5426 13.3746 10.6206 13.809 10.2478 14.2286C9.87481 14.6483 9.72306 15.0491 9.80122 16.0842L10.1882 22.7851C10.5658 25.5832 12.9768 27.6637 15.8381 27.6637H18.5832C21.4444 27.6637 23.8555 25.5687 24.2331 22.7851L24.6689 16.0842Z" fill="url(#paint72_radial_0_4125)"/>
<path id="Vector_78" d="M24.6689 16.0842C24.6689 16.0699 24.6689 16.0699 24.6689 16.0842C24.706 15.0908 24.6689 14.53 23.8447 13.8323C23.426 13.5197 23.0968 13.3746 21.8947 13.3746H12.7148C11.5426 13.3746 10.6206 13.809 10.2478 14.2286C9.87481 14.6483 9.72306 15.0491 9.80122 16.0842L10.1882 22.7851C10.5658 25.5832 12.9768 27.6637 15.8381 27.6637H18.5832C21.4444 27.6637 23.8555 25.5687 24.2331 22.7851L24.6689 16.0842Z" fill="url(#paint73_radial_0_4125)"/>
<path id="Vector_79" d="M24.6689 16.0842C24.6689 16.0699 24.6689 16.0699 24.6689 16.0842C24.706 15.0908 24.6689 14.53 23.8447 13.8323C23.426 13.5197 23.0968 13.3746 21.8947 13.3746H12.7148C11.5426 13.3746 10.6206 13.809 10.2478 14.2286C9.87481 14.6483 9.72306 15.0491 9.80122 16.0842L10.1882 22.7851C10.5658 25.5832 12.9768 27.6637 15.8381 27.6637H18.5832C21.4444 27.6637 23.8555 25.5687 24.2331 22.7851L24.6689 16.0842Z" fill="url(#paint74_radial_0_4125)"/>
</g>
<path id="Vector_80" d="M24.6689 16.0835C24.6689 16.0692 24.6689 16.0692 24.6689 16.0835C24.706 15.0901 24.6689 14.5293 23.8447 13.8315C23.426 13.519 23.0968 13.3738 21.8947 13.3738H12.7148C11.5426 13.3738 10.6206 13.8082 10.2478 14.2279C9.87481 14.6476 9.72306 15.0484 9.80122 16.0835L10.1882 22.7844C10.5658 25.5824 12.9768 27.6629 15.8381 27.6629H18.5832C21.4444 27.6629 23.8555 25.568 24.2331 22.7844L24.6689 16.0835Z" fill="url(#paint75_radial_0_4125)"/>
<g id="Group_15">
<path id="Vector_81" d="M17.2309 22.9512C16.4593 22.9512 15.7449 22.7655 15.1304 22.4511C14.9304 22.3368 14.7018 22.5797 14.8304 22.7797C15.3448 23.5656 16.2164 24.0801 17.2309 24.0801C18.2312 24.0801 19.1171 23.5656 19.6315 22.7797C19.7601 22.5797 19.5315 22.3511 19.3314 22.4511C18.717 22.7655 18.0025 22.9512 17.2309 22.9512Z" stroke="url(#paint76_radial_0_4125)" stroke-width="0.11974"/>
</g>
<path id="Vector_82" d="M17.2309 22.9512C16.4593 22.9512 15.7449 22.7655 15.1304 22.4511C14.9304 22.3368 14.7018 22.5797 14.8304 22.7797C15.3448 23.5656 16.2164 24.0801 17.2309 24.0801C18.2312 24.0801 19.1171 23.5656 19.6315 22.7797C19.7601 22.5797 19.5315 22.3511 19.3314 22.4511C18.717 22.7655 18.0025 22.9512 17.2309 22.9512Z" fill="#89024E"/>
<g id="Group_16">
<path id="Vector_83" d="M16.5041 18.3411L15.8135 20.7384C15.6725 21.2315 16.0109 21.7246 16.4901 21.7246H17.5119C17.9912 21.7246 18.3294 21.2239 18.1885 20.7384L17.4978 18.3411C17.3499 17.81 16.6592 17.81 16.5041 18.3411Z" fill="#F49830"/>
</g>
<g id="Group_17">
<path id="Vector_84" d="M16.7092 17.8851L15.9738 20.4377C15.8237 20.9626 16.184 21.4878 16.6942 21.4878H17.7822C18.2925 21.4878 18.6527 20.9546 18.5025 20.4377L17.7672 17.8851C17.6096 17.3196 16.8743 17.3196 16.7092 17.8851Z" fill="#FFC927"/>
<path id="Vector_85" d="M16.7092 17.8851L15.9738 20.4377C15.8237 20.9626 16.184 21.4878 16.6942 21.4878H17.7822C18.2925 21.4878 18.6527 20.9546 18.5025 20.4377L17.7672 17.8851C17.6096 17.3196 16.8743 17.3196 16.7092 17.8851Z" fill="url(#paint77_radial_0_4125)"/>
</g>
<path id="Vector_86" d="M16.7092 17.886L15.9738 20.4386C15.8237 20.9636 16.184 21.4887 16.6942 21.4887H17.7822C18.2925 21.4887 18.6527 20.9556 18.5025 20.4386L17.7672 17.886C17.6096 17.3206 16.8743 17.3206 16.7092 17.886Z" fill="url(#paint78_linear_0_4125)"/>
<path id="Vector_87" d="M20.6644 16.5016C21.6002 16.5016 22.3908 17.1469 22.6059 18.0189C22.6697 18.2688 22.478 18.5071 22.2222 18.5071H19.0252C18.8217 18.5071 18.6589 18.3211 18.6996 18.1176C18.8798 17.1992 19.6879 16.5016 20.6644 16.5016Z" fill="white"/>
<path id="Vector_88" d="M20.3666 16.8885C21.0758 16.8885 21.6455 17.464 21.6455 18.1674C21.6455 18.2836 21.6281 18.3999 21.5989 18.5045H19.1286C19.0995 18.394 19.082 18.2836 19.082 18.1674C19.082 17.464 19.6576 16.8885 20.3666 16.8885Z" fill="url(#paint79_radial_0_4125)"/>
<path id="Vector_89" d="M19.6348 18.1664C19.6348 17.7595 19.9603 17.434 20.3672 17.434C20.774 17.434 21.0995 17.7595 21.0995 18.1664C21.0995 18.2884 21.0705 18.4048 21.0182 18.5035H19.7219C19.6638 18.4048 19.6348 18.2884 19.6348 18.1664Z" fill="black"/>
<g id="Group_18">
<path id="Vector_90" d="M20.2718 17.1584C20.3628 17.2802 20.1726 17.4285 19.9563 17.5902C19.7399 17.752 19.5795 17.8657 19.4884 17.744C19.3974 17.6222 19.499 17.3925 19.7154 17.2309C19.9317 17.0691 20.1808 17.0367 20.2718 17.1584Z" fill="#C7A7A3"/>
<path id="Vector_91" d="M20.2718 17.1584C20.3628 17.2802 20.1726 17.4285 19.9563 17.5902C19.7399 17.752 19.5795 17.8657 19.4884 17.744C19.3974 17.6222 19.499 17.3925 19.7154 17.2309C19.9317 17.0691 20.1808 17.0367 20.2718 17.1584Z" fill="url(#paint80_radial_0_4125)"/>
</g>
<g id="Group_19">
<path id="Vector_92" d="M21.5039 17.9984C21.4568 17.6681 21.2635 17.4192 21.1727 17.3361L20.8008 17.7444L20.9687 18.0709L21.5039 17.9984Z" fill="url(#paint81_linear_0_4125)"/>
</g>
<path id="Vector_93" d="M13.8113 16.5016C12.8754 16.5016 12.0849 17.1469 11.8698 18.0189C11.8058 18.2688 11.9977 18.5071 12.2535 18.5071H15.4505C15.654 18.5071 15.8168 18.3211 15.776 18.1177C15.5959 17.1992 14.7821 16.5016 13.8113 16.5016Z" fill="white"/>
<path id="Vector_94" d="M14.107 16.8885C13.3977 16.8885 12.8281 17.464 12.8281 18.1674C12.8281 18.2837 12.8456 18.3999 12.8746 18.5045H15.3451C15.3742 18.394 15.3916 18.2837 15.3916 18.1674C15.3857 17.464 14.8162 16.8885 14.107 16.8885Z" fill="url(#paint82_radial_0_4125)"/>
<path id="Vector_95" d="M14.8399 18.1664C14.8399 17.7596 14.5143 17.434 14.1075 17.434C13.7005 17.434 13.375 17.7596 13.375 18.1664C13.375 18.2886 13.404 18.4048 13.4563 18.5036H14.7526C14.8051 18.4048 14.8399 18.2886 14.8399 18.1664Z" fill="black"/>
<g id="Group_20">
<path id="Vector_96" d="M15.2749 18.0183C15.2749 17.6053 14.9391 17.3301 14.8484 17.2469L14.4355 17.6462L14.6896 18.1634L15.2749 18.0183Z" fill="url(#paint83_linear_0_4125)"/>
</g>
<g id="Group_21">
<path id="Vector_97" d="M13.8528 17.6804C14.125 17.5362 14.2864 17.3076 14.2135 17.1699C14.1405 17.0321 13.8607 17.0373 13.5885 17.1815C13.3163 17.3257 13.1549 17.5543 13.2278 17.692C13.3008 17.8298 13.5806 17.8246 13.8528 17.6804Z" fill="#C7A7A3" fill-opacity="0.9"/>
<path id="Vector_98" d="M13.8528 17.6804C14.125 17.5362 14.2864 17.3076 14.2135 17.1699C14.1405 17.0321 13.8607 17.0373 13.5885 17.1815C13.3163 17.3257 13.1549 17.5543 13.2278 17.692C13.3008 17.8298 13.5806 17.8246 13.8528 17.6804Z" fill="url(#paint84_radial_0_4125)"/>
</g>
<path id="Vector_99" fill-rule="evenodd" clip-rule="evenodd" d="M15.129 19.1539C15.2911 19.3264 15.2829 19.5976 15.1104 19.7598C14.7483 20.1003 14.2918 20.3128 13.8902 20.4431C13.4867 20.574 13.1056 20.6327 12.8641 20.6458C12.6278 20.6587 12.4256 20.4775 12.4128 20.2412C12.3999 20.0048 12.5811 19.8026 12.8174 19.7898C12.9853 19.7806 13.2931 19.7355 13.6256 19.6276C13.9601 19.519 14.2868 19.3574 14.5231 19.1352C14.6956 18.973 14.9668 18.9815 15.129 19.1539Z" fill="#FFA20D"/>
<path id="Vector_100" fill-rule="evenodd" clip-rule="evenodd" d="M19.3547 19.1539C19.1925 19.3264 19.2008 19.5976 19.3733 19.7598C19.7354 20.1003 20.192 20.3128 20.5936 20.4431C20.9971 20.574 21.378 20.6327 21.6195 20.6458C21.856 20.6587 22.058 20.4775 22.0709 20.2412C22.0838 20.0048 21.9026 19.8026 21.6662 19.7898C21.4983 19.7806 21.1907 19.7355 20.8582 19.6276C20.5235 19.519 20.1969 19.3574 19.9607 19.1352C19.7882 18.973 19.5169 18.9815 19.3547 19.1539Z" fill="#FFBC18"/>
<g id="Group_22">
<path id="Vector_101" d="M12.209 15.6965C12.5253 15.4547 13.4314 14.9541 14.6984 15.1606" stroke="#B29F9A" stroke-width="0.299351" stroke-linecap="round"/>
</g>
<g id="Group_23">
<path id="Vector_102" d="M22.2766 15.6965C21.9603 15.4547 21.0541 14.9541 19.7871 15.1606" stroke="#B29F9A" stroke-width="0.299351" stroke-linecap="round"/>
</g>
<g id="Group_24">
<path id="Vector_103" fill-rule="evenodd" clip-rule="evenodd" d="M18.2969 13.3746C18.6334 13.6971 19.375 14.139 20.5827 14.2901C21.7053 14.4304 23.3099 14.4513 24.3957 14.4393C24.2709 14.2391 24.0944 14.0419 23.8469 13.8323C23.4282 13.5197 23.0989 13.3746 21.8969 13.3746H18.2969Z" fill="url(#paint85_radial_0_4125)"/>
</g>
</g>
<defs>
<radialGradient id="paint0_radial_0_4125" cx="0" cy="0" r="1" gradientUnits="userSpaceOnUse" gradientTransform="translate(24.3588 40.6327) rotate(-90) scale(11.4759 10.2604)">
<stop stop-color="#3180EC"/>
<stop offset="1" stop-color="#39A7FF" stop-opacity="0"/>
</radialGradient>
<radialGradient id="paint1_radial_0_4125" cx="0" cy="0" r="1" gradientUnits="userSpaceOnUse" gradientTransform="translate(27.5738 39.7396) rotate(-90) scale(12.4137 1.11634)">
<stop stop-color="#46A7ED"/>
<stop offset="1" stop-color="#3797F8" stop-opacity="0"/>
</radialGradient>
<radialGradient id="paint2_radial_0_4125" cx="0" cy="0" r="1" gradientUnits="userSpaceOnUse" gradientTransform="translate(7.03324 39.9956) scale(4.46534 27.4292)">
<stop offset="0.1" stop-color="#2787F2"/>
<stop offset="1" stop-color="#39A8FF" stop-opacity="0"/>
</radialGradient>
<radialGradient id="paint3_radial_0_4125" cx="0" cy="0" r="1" gradientUnits="userSpaceOnUse" gradientTransform="translate(23.4657 43.1333) rotate(-136.837) scale(21.6714 26.0422)">
<stop offset="0.565186" stop-color="#39A8FF" stop-opacity="0"/>
<stop offset="1" stop-color="#2F79B8"/>
</radialGradient>
<radialGradient id="paint4_radial_0_4125" cx="0" cy="0" r="1" gradientUnits="userSpaceOnUse" gradientTransform="translate(7.00639 39.8312) rotate(-87.4548) scale(9.65467 5.48305)">
<stop offset="0.487603" stop-color="#2E99F4"/>
<stop offset="1" stop-color="#307FC2"/>
</radialGradient>
<radialGradient id="paint5_radial_0_4125" cx="0" cy="0" r="1" gradientUnits="userSpaceOnUse" gradientTransform="translate(4.34889 40.2778) rotate(-90) scale(1.60752 5.67932)">
<stop stop-color="#2982EE"/>
<stop offset="1" stop-color="#2982EE" stop-opacity="0"/>
</radialGradient>
<radialGradient id="paint6_radial_0_4125" cx="0" cy="0" r="1" gradientUnits="userSpaceOnUse" gradientTransform="translate(7.00639 39.9978) rotate(180) scale(0.91086 10.3509)">
<stop stop-color="#41A8FF"/>
<stop offset="1" stop-color="#41A8FF" stop-opacity="0"/>
</radialGradient>
<radialGradient id="paint7_radial_0_4125" cx="0" cy="0" r="1" gradientUnits="userSpaceOnUse" gradientTransform="translate(28.468 27.3277) rotate(82.3718) scale(12.7828 4.52616)">
<stop stop-color="#4AB4F4"/>
<stop offset="1" stop-color="#2D82D6"/>
</radialGradient>
<radialGradient id="paint8_radial_0_4125" cx="0" cy="0" r="1" gradientUnits="userSpaceOnUse" gradientTransform="translate(27.3633 39.9974) scale(1.19396 12.0237)">
<stop stop-color="#267ADB"/>
<stop offset="0.850402" stop-color="#267ADB" stop-opacity="0"/>
</radialGradient>
<linearGradient id="paint9_linear_0_4125" x1="25.5656" y1="28.0864" x2="9.89233" y2="28.0864" gradientUnits="userSpaceOnUse">
<stop stop-color="#3291C8"/>
<stop offset="1" stop-color="#3F7EC7"/>
</linearGradient>
<radialGradient id="paint10_radial_0_4125" cx="0" cy="0" r="1" gradientUnits="userSpaceOnUse" gradientTransform="translate(13.4199 28.7115) rotate(124.902) scale(2.34123 7.40545)">
<stop offset="0.252308" stop-color="#3395E6"/>
<stop offset="1" stop-color="#3395E6" stop-opacity="0"/>
</radialGradient>
<radialGradient id="paint11_radial_0_4125" cx="0" cy="0" r="1" gradientUnits="userSpaceOnUse" gradientTransform="translate(17.1732 25.3178) rotate(90) scale(6.60871 16.3456)">
<stop offset="0.763514" stop-color="#2483F6" stop-opacity="0"/>
<stop offset="1" stop-color="#2483F6"/>
</radialGradient>
<radialGradient id="paint12_radial_0_4125" cx="0" cy="0" r="1" gradientUnits="userSpaceOnUse" gradientTransform="translate(22.2613 28.5329) rotate(-29.3922) scale(8.09754 1.90949)">
<stop stop-color="#4AB3F9"/>
<stop offset="1" stop-color="#3F9DE9" stop-opacity="0"/>
</radialGradient>
<radialGradient id="paint13_radial_0_4125" cx="0" cy="0" r="1" gradientUnits="userSpaceOnUse" gradientTransform="translate(10.0709 23.0852) rotate(147.653) scale(6.34267 4.5118)">
<stop offset="0.18973" stop-color="#073880"/>
<stop offset="1" stop-color="#1B67AB" stop-opacity="0"/>
</radialGradient>
<radialGradient id="paint14_radial_0_4125" cx="0" cy="0" r="1" gradientUnits="userSpaceOnUse" gradientTransform="translate(20.8324 36.4812) rotate(-69.2329) scale(14.9865 32.8451)">
<stop offset="0.677455" stop-color="#4394DB" stop-opacity="0"/>
<stop offset="0.948652" stop-color="#12529B"/>
</radialGradient>
<radialGradient id="paint15_radial_0_4125" cx="0" cy="0" r="1" gradientUnits="userSpaceOnUse" gradientTransform="translate(17.1732 32.3061) rotate(-90) scale(9.83773 20.7168)">
<stop offset="0.923686" stop-color="#445E86" stop-opacity="0"/>
<stop offset="0.984962" stop-color="#4A6A97"/>
</radialGradient>
<radialGradient id="paint16_radial_0_4125" cx="0" cy="0" r="1" gradientUnits="userSpaceOnUse" gradientTransform="translate(15.83 32.1052) rotate(-48.8127) scale(1.66131 6.08668)">
<stop stop-color="#3AA4E9"/>
<stop offset="1" stop-color="#3979AA" stop-opacity="0"/>
</radialGradient>
<linearGradient id="paint17_linear_0_4125" x1="17.8395" y1="25.0947" x2="18.9112" y2="31.2122" gradientUnits="userSpaceOnUse">
<stop offset="0.286584" stop-color="#1C3B69"/>
<stop offset="1" stop-color="#307099" stop-opacity="0"/>
</linearGradient>
<radialGradient id="paint18_radial_0_4125" cx="0" cy="0" r="1" gradientUnits="userSpaceOnUse" gradientTransform="translate(22.5058 28.8902) rotate(-131.987) scale(0.901125 8.09343)">
<stop offset="0.129629" stop-color="#3E6082"/>
<stop offset="1" stop-color="#3E6082" stop-opacity="0"/>
</radialGradient>
<radialGradient id="paint19_radial_0_4125" cx="0" cy="0" r="1" gradientUnits="userSpaceOnUse" gradientTransform="translate(15.9875 31.7671) rotate(-57.6977) scale(2.21882 3.61345)">
<stop offset="0.0871953" stop-color="#43AAF7"/>
<stop offset="1" stop-color="#43AAF7" stop-opacity="0"/>
</radialGradient>
<radialGradient id="paint20_radial_0_4125" cx="0" cy="0" r="1" gradientUnits="userSpaceOnUse" gradientTransform="translate(14.8126 27.4608) rotate(41.8382) scale(4.12893 7.65825)">
<stop offset="0.168449" stop-color="#954F10"/>
<stop offset="1" stop-color="#B0690B" stop-opacity="0"/>
</radialGradient>
<radialGradient id="paint21_radial_0_4125" cx="0" cy="0" r="1" gradientUnits="userSpaceOnUse" gradientTransform="translate(19.1353 1.65218) rotate(10.704) scale(7.45285 2.1856)">
<stop offset="0.169939" stop-color="#4CDBFF"/>
<stop offset="1" stop-color="#2BBBFF"/>
</radialGradient>
<linearGradient id="paint22_linear_0_4125" x1="22.0824" y1="4.57698" x2="22.5512" y2="2.63455" gradientUnits="userSpaceOnUse">
<stop stop-color="#2CAAFC"/>
<stop offset="1" stop-color="#2CAAFC" stop-opacity="0"/>
</linearGradient>
<linearGradient id="paint23_linear_0_4125" x1="6.0264" y1="25.7314" x2="26.6955" y2="25.7314" gradientUnits="userSpaceOnUse">
<stop offset="0.00558659" stop-color="#CACACA"/>
<stop offset="1" stop-color="#E4E4E4"/>
</linearGradient>
<linearGradient id="paint24_linear_0_4125" x1="6.02571" y1="25.6882" x2="26.6949" y2="25.6882" gradientUnits="userSpaceOnUse">
<stop offset="0.00558659" stop-color="#CACACA"/>
<stop offset="1" stop-color="#E4E4E4"/>
</linearGradient>
<linearGradient id="paint25_linear_0_4125" x1="6.0264" y1="25.7314" x2="26.6955" y2="25.7314" gradientUnits="userSpaceOnUse">
<stop offset="0.00558659" stop-color="#CACACA"/>
<stop offset="1" stop-color="#E4E4E4"/>
</linearGradient>
<linearGradient id="paint26_linear_0_4125" x1="6.02571" y1="25.6882" x2="26.6949" y2="25.6882" gradientUnits="userSpaceOnUse">
<stop offset="0.00558659" stop-color="#CACACA"/>
<stop offset="1" stop-color="#E4E4E4"/>
</linearGradient>
<radialGradient id="paint27_radial_0_4125" cx="0" cy="0" r="1" gradientUnits="userSpaceOnUse" gradientTransform="translate(20.4303 2.5899) rotate(150.716) scale(7.57702 11.3004)">
<stop offset="0.0627308" stop-color="#4BDAFF"/>
<stop offset="1" stop-color="#2CB1F7"/>
</radialGradient>
<linearGradient id="paint28_linear_0_4125" x1="19.5372" y1="9.28791" x2="19.5372" y2="7.59108" gradientUnits="userSpaceOnUse">
<stop stop-color="#50B2E2"/>
<stop offset="1" stop-color="#50B2E2" stop-opacity="0"/>
</linearGradient>
<radialGradient id="paint29_radial_0_4125" cx="0" cy="0" r="1" gradientUnits="userSpaceOnUse" gradientTransform="translate(21.5465 7.90366) rotate(-168.989) scale(9.73505 18.1646)">
<stop offset="0.613207" stop-color="#2FA9E7" stop-opacity="0"/>
<stop offset="1" stop-color="#4991BB"/>
</radialGradient>
<linearGradient id="paint30_linear_0_4125" x1="14.983" y1="11.2951" x2="23.6457" y2="11.0718" gradientUnits="userSpaceOnUse">
<stop stop-color="#423851"/>
<stop offset="1" stop-color="#584D65"/>
</linearGradient>
<linearGradient id="paint31_linear_0_4125" x1="25.9677" y1="10.402" x2="22.2614" y2="10.402" gradientUnits="userSpaceOnUse">
<stop stop-color="#665D70"/>
<stop offset="1" stop-color="#665D70" stop-opacity="0"/>
</linearGradient>
<linearGradient id="paint32_linear_0_4125" x1="8.64215" y1="10.736" x2="11.8125" y2="12.1863" gradientUnits="userSpaceOnUse">
<stop stop-color="#57515F"/>
<stop offset="1" stop-color="#423952" stop-opacity="0"/>
</linearGradient>
<radialGradient id="paint33_radial_0_4125" cx="0" cy="0" r="1" gradientUnits="userSpaceOnUse" gradientTransform="translate(17.2326 10.4747) rotate(90) scale(13.0767 35.3204)">
<stop stop-color="#35ACFA"/>
<stop offset="0.65186" stop-color="#3171DA"/>
</radialGradient>
<radialGradient id="paint34_radial_0_4125" cx="0" cy="0" r="1" gradientUnits="userSpaceOnUse" gradientTransform="translate(13.3345 9.97034) rotate(90) scale(3.78292 24.6164)">
<stop offset="0.166667" stop-color="#2FB4F5"/>
<stop offset="1" stop-color="#359CF2" stop-opacity="0"/>
</radialGradient>
<radialGradient id="paint35_radial_0_4125" cx="0" cy="0" r="1" gradientUnits="userSpaceOnUse" gradientTransform="translate(31.8456 12.4419) rotate(180) scale(12.408 4.0047)">
<stop offset="0.253569" stop-color="#3DA9F9"/>
<stop offset="1" stop-color="#3DA9F9" stop-opacity="0"/>
</radialGradient>
<radialGradient id="paint36_radial_0_4125" cx="0" cy="0" r="1" gradientUnits="userSpaceOnUse" gradientTransform="translate(30.5847 10.7913) rotate(180) scale(14.5264 2.23327)">
<stop offset="0.0833334" stop-color="#2D6BA6"/>
<stop offset="1" stop-color="#2FA3F0" stop-opacity="0"/>
</radialGradient>
<radialGradient id="paint37_radial_0_4125" cx="0" cy="0" r="1" gradientUnits="userSpaceOnUse" gradientTransform="translate(30.3325 14.1568) rotate(-90) scale(7.3641 1.84102)">
<stop offset="0.0509259" stop-color="#2E74CB"/>
<stop offset="1" stop-color="#2E74CB" stop-opacity="0"/>
</radialGradient>
<radialGradient id="paint38_radial_0_4125" cx="0" cy="0" r="1" gradientUnits="userSpaceOnUse" gradientTransform="translate(9.62465 23.312) rotate(-119.268) scale(4.6581 9.53637)">
<stop stop-color="#104E9B"/>
<stop offset="1" stop-color="#104E9B" stop-opacity="0"/>
</radialGradient>
<radialGradient id="paint39_radial_0_4125" cx="0" cy="0" r="1" gradientUnits="userSpaceOnUse" gradientTransform="translate(25.2086 23.1335) scale(5.44772 2.54524)">
<stop stop-color="#1868C3"/>
<stop offset="1" stop-color="#1868C3" stop-opacity="0"/>
</radialGradient>
<radialGradient id="paint40_radial_0_4125" cx="0" cy="0" r="1" gradientUnits="userSpaceOnUse" gradientTransform="translate(34.3422 30.4819) rotate(117.802) scale(2.69552 2.16503)">
<stop stop-color="#FFE047"/>
<stop offset="0.827998" stop-color="#FFD235"/>
</radialGradient>
<radialGradient id="paint41_radial_0_4125" cx="0" cy="0" r="1" gradientUnits="userSpaceOnUse" gradientTransform="translate(29.2715 22.5981) rotate(-143.559) scale(14.9747 18.9733)">
<stop offset="0.230223" stop-color="#257BD2"/>
<stop offset="1" stop-color="#2E65D4"/>
</radialGradient>
<radialGradient id="paint42_radial_0_4125" cx="0" cy="0" r="1" gradientUnits="userSpaceOnUse" gradientTransform="translate(24.5383 16.1235) scale(1.70799 0.829243)">
<stop stop-color="#215A98"/>
<stop offset="1" stop-color="#215A98" stop-opacity="0"/>
</radialGradient>
<radialGradient id="paint43_radial_0_4125" cx="0" cy="0" r="1" gradientUnits="userSpaceOnUse" gradientTransform="translate(23.3996 13.8908) rotate(44.3705) scale(1.43674 0.89896)">
<stop stop-color="#0D50A5"/>
<stop offset="1" stop-color="#0D50A5" stop-opacity="0"/>
</radialGradient>
<radialGradient id="paint44_radial_0_4125" cx="0" cy="0" r="1" gradientUnits="userSpaceOnUse" gradientTransform="translate(10.3385 16.3914) rotate(180) scale(2.29964 1.16099)">
<stop stop-color="#14488D"/>
<stop offset="1" stop-color="#14488D" stop-opacity="0"/>
</radialGradient>
<radialGradient id="paint45_radial_0_4125" cx="0" cy="0" r="1" gradientUnits="userSpaceOnUse" gradientTransform="translate(9.57932 21.9284) rotate(-177.049) scale(4.33713 6.57144)">
<stop offset="0.112783" stop-color="#1956AE"/>
<stop offset="1" stop-color="#1956AE" stop-opacity="0"/>
</radialGradient>
<radialGradient id="paint46_radial_0_4125" cx="0" cy="0" r="1" gradientUnits="userSpaceOnUse" gradientTransform="translate(2.4348 22.107) rotate(-50.8855) scale(5.02542 5.24228)">
<stop stop-color="#3171DB"/>
<stop offset="1" stop-color="#3171DB" stop-opacity="0"/>
</radialGradient>
<linearGradient id="paint47_linear_0_4125" x1="17.2252" y1="13.3765" x2="17.2252" y2="21.1677" gradientUnits="userSpaceOnUse">
<stop stop-color="#4478E6"/>
<stop offset="1" stop-color="#4478E6" stop-opacity="0"/>
</linearGradient>
<linearGradient id="paint48_linear_0_4125" x1="29.5521" y1="12.1894" x2="35.1792" y2="12.1894" gradientUnits="userSpaceOnUse">
<stop stop-color="#D98350"/>
<stop offset="1" stop-color="#E4A771"/>
</linearGradient>
<radialGradient id="paint49_radial_0_4125" cx="0" cy="0" r="1" gradientUnits="userSpaceOnUse" gradientTransform="translate(27.4406 7.59443) rotate(50.6307) scale(6.75803 6.98968)">
<stop offset="0.21726" stop-color="#BA756C"/>
<stop offset="1" stop-color="#BA756C" stop-opacity="0"/>
</radialGradient>
<radialGradient id="paint50_radial_0_4125" cx="0" cy="0" r="1" gradientUnits="userSpaceOnUse" gradientTransform="translate(31.4567 7.78876) rotate(90.0002) scale(2.30715 2.95227)">
<stop offset="0.759259" stop-color="#BA795B"/>
<stop offset="1" stop-color="#BA795B" stop-opacity="0"/>
</radialGradient>
<radialGradient id="paint51_radial_0_4125" cx="0" cy="0" r="1" gradientUnits="userSpaceOnUse" gradientTransform="translate(36.5591 8.47236) rotate(145.359) scale(5.71237 3.83211)">
<stop stop-color="#CC8C6F"/>
<stop offset="1" stop-color="#CC8C6F" stop-opacity="0"/>
</radialGradient>
<radialGradient id="paint52_radial_0_4125" cx="0" cy="0" r="1" gradientUnits="userSpaceOnUse" gradientTransform="translate(33.856 4.74564) rotate(144.673) scale(5.82065 6.52826)">
<stop stop-color="#4DDCFF"/>
<stop offset="1" stop-color="#2F85FE"/>
</radialGradient>
<radialGradient id="paint53_radial_0_4125" cx="0" cy="0" r="1" gradientUnits="userSpaceOnUse" gradientTransform="translate(32.9344 7.28041) rotate(-133.348) scale(6.57028 6.6334)">
<stop offset="0.691409" stop-color="#39A1FF" stop-opacity="0"/>
<stop offset="0.91321" stop-color="#4093BE"/>
</radialGradient>
<linearGradient id="paint54_linear_0_4125" x1="33.865" y1="37.2334" x2="28.1094" y2="37.2334" gradientUnits="userSpaceOnUse">
<stop stop-color="#FFE132"/>
<stop offset="0.861163" stop-color="#FFAE37"/>
</linearGradient>
<radialGradient id="paint55_radial_0_4125" cx="0" cy="0" r="1" gradientUnits="userSpaceOnUse" gradientTransform="translate(34.2791 32.2769) rotate(121.171) scale(3.99236 3.30292)">
<stop stop-color="#FFE136"/>
<stop offset="1" stop-color="#FFE136" stop-opacity="0"/>
</radialGradient>
<radialGradient id="paint56_radial_0_4125" cx="0" cy="0" r="1" gradientUnits="userSpaceOnUse" gradientTransform="translate(28.3753 34.2434) scale(3.30435 0.665993)">
<stop offset="0.248062" stop-color="#F9A42E"/>
<stop offset="1" stop-color="#F9A42E" stop-opacity="0"/>
</radialGradient>
<radialGradient id="paint57_radial_0_4125" cx="0" cy="0" r="1" gradientUnits="userSpaceOnUse" gradientTransform="translate(28.1094 36.1394) scale(3.70432 0.746607)">
<stop offset="0.248062" stop-color="#F9A42E"/>
<stop offset="1" stop-color="#F9A42E" stop-opacity="0"/>
</radialGradient>
<radialGradient id="paint58_radial_0_4125" cx="0" cy="0" r="1" gradientUnits="userSpaceOnUse" gradientTransform="translate(27.9735 37.9497) scale(3.88485 0.468861)">
<stop offset="0.248062" stop-color="#F9A42E"/>
<stop offset="1" stop-color="#F9A42E" stop-opacity="0"/>
</radialGradient>
<linearGradient id="paint59_linear_0_4125" x1="nan" y1="nan" x2="nan" y2="nan" gradientUnits="userSpaceOnUse">
<stop stop-color="#C88714" stop-opacity="0"/>
<stop offset="1" stop-color="#C07200"/>
</linearGradient>
<linearGradient id="paint60_linear_0_4125" x1="nan" y1="nan" x2="nan" y2="nan" gradientUnits="userSpaceOnUse">
<stop stop-color="#C88714" stop-opacity="0"/>
<stop offset="1" stop-color="#C07200"/>
</linearGradient>
<linearGradient id="paint61_linear_0_4125" x1="nan" y1="nan" x2="nan" y2="nan" gradientUnits="userSpaceOnUse">
<stop stop-color="#C88714" stop-opacity="0"/>
<stop offset="1" stop-color="#C07200"/>
</linearGradient>
<radialGradient id="paint62_radial_0_4125" cx="0" cy="0" r="1" gradientUnits="userSpaceOnUse" gradientTransform="translate(33.2451 5.98203) rotate(-111.272) scale(3.13863 4.1485)">
<stop offset="0.0519685" stop-color="white" stop-opacity="0"/>
<stop offset="1" stop-color="white"/>
</radialGradient>
<linearGradient id="paint63_linear_0_4125" x1="nan" y1="nan" x2="nan" y2="nan" gradientUnits="userSpaceOnUse">
<stop stop-color="#E3A984"/>
<stop offset="1" stop-color="#E3A984" stop-opacity="0"/>
</linearGradient>
<radialGradient id="paint64_radial_0_4125" cx="0" cy="0" r="1" gradientUnits="userSpaceOnUse" gradientTransform="translate(10.2941 22.0559) rotate(158.277) scale(1.44777 4.2361)">
<stop offset="0.162839" stop-color="#BE9F9C"/>
<stop offset="1" stop-color="#8D868F"/>
</radialGradient>
<radialGradient id="paint65_radial_0_4125" cx="0" cy="0" r="1" gradientUnits="userSpaceOnUse" gradientTransform="translate(10.9417 24.8244) rotate(-127.185) scale(2.43812 2.44152)">
<stop offset="0.206541" stop-color="#717181"/>
<stop offset="1" stop-color="#A49296" stop-opacity="0"/>
</radialGradient>
<radialGradient id="paint66_radial_0_4125" cx="0" cy="0" r="1" gradientUnits="userSpaceOnUse" gradientTransform="translate(25.5432 22.2911) rotate(-169.606) scale(1.92579 4.57098)">
<stop offset="0.252912" stop-color="#E4E1E5"/>
<stop offset="1" stop-color="#9FA4AB"/>
</radialGradient>
<radialGradient id="paint67_radial_0_4125" cx="0" cy="0" r="1" gradientUnits="userSpaceOnUse" gradientTransform="translate(8.46302 18.7297) scale(1.85312 5.02352)">
<stop stop-color="#C28128"/>
<stop offset="1" stop-color="#C57B37"/>
</radialGradient>
<radialGradient id="paint68_radial_0_4125" cx="0" cy="0" r="1" gradientUnits="userSpaceOnUse" gradientTransform="translate(10.7627 19.4889) rotate(-104.593) scale(3.89901)">
<stop offset="0.607306" stop-color="#C4822A" stop-opacity="0"/>
<stop offset="0.967898" stop-color="#8D6022"/>
</radialGradient>
<radialGradient id="paint69_radial_0_4125" cx="0" cy="0" r="1" gradientUnits="userSpaceOnUse" gradientTransform="translate(25.1628 20.1141) rotate(-96.8235) scale(5.26172 7.05077)">
<stop offset="0.257806" stop-color="#DBA632"/>
<stop offset="1" stop-color="#9B7723"/>
</radialGradient>
<radialGradient id="paint70_radial_0_4125" cx="0" cy="0" r="1" gradientUnits="userSpaceOnUse" gradientTransform="translate(24.2027 18.1716) rotate(94.3655) scale(2.71027)">
<stop offset="0.709915" stop-color="#D29A44" stop-opacity="0"/>
<stop offset="1" stop-color="#D1954C"/>
</radialGradient>
<radialGradient id="paint71_radial_0_4125" cx="0" cy="0" r="1" gradientUnits="userSpaceOnUse" gradientTransform="translate(24.4933 19.3326) rotate(-77.2379) scale(2.42569 2.04474)">
<stop offset="0.388472" stop-color="#D09A2D"/>
<stop offset="1" stop-color="#C08A25"/>
</radialGradient>
<radialGradient id="paint72_radial_0_4125" cx="0" cy="0" r="1" gradientUnits="userSpaceOnUse" gradientTransform="translate(21.6352 20.0049) rotate(180) scale(8.75207 7.63573)">
<stop offset="0.234694" stop-color="#FFCE30"/>
<stop offset="1" stop-color="#FBA43B"/>
</radialGradient>
<radialGradient id="paint73_radial_0_4125" cx="0" cy="0" r="1" gradientUnits="userSpaceOnUse" gradientTransform="translate(14.446 17.013) rotate(-133.264) scale(2.08489 1.66422)">
<stop offset="0.452323" stop-color="#EA9324"/>
<stop offset="1" stop-color="#EA9324" stop-opacity="0"/>
</radialGradient>
<radialGradient id="paint74_radial_0_4125" cx="0" cy="0" r="1" gradientUnits="userSpaceOnUse" gradientTransform="translate(20.5746 17.0353) rotate(-90) scale(1.48472 2.1573)">
<stop offset="0.339623" stop-color="#FDAE21"/>
<stop offset="1" stop-color="#FDAE21" stop-opacity="0"/>
</radialGradient>
<radialGradient id="paint75_radial_0_4125" cx="0" cy="0" r="1" gradientUnits="userSpaceOnUse" gradientTransform="translate(17.2297 15.8067) rotate(90) scale(12.1457 13.9024)">
<stop offset="0.731618" stop-color="#E99344" stop-opacity="0"/>
<stop offset="1" stop-color="#C57658"/>
</radialGradient>
<radialGradient id="paint76_radial_0_4125" cx="0" cy="0" r="1" gradientUnits="userSpaceOnUse" gradientTransform="translate(15.7423 23.6228) rotate(-52.9696) scale(0.797067 1.07977)">
<stop stop-color="#FFB236"/>
<stop offset="1" stop-color="#FFB236" stop-opacity="0"/>
</radialGradient>
<radialGradient id="paint77_radial_0_4125" cx="0" cy="0" r="1" gradientUnits="userSpaceOnUse" gradientTransform="translate(18.537 20.5653) rotate(-106.013) scale(3.58212 1.40337)">
<stop offset="0.166078" stop-color="#FFE235"/>
<stop offset="1" stop-color="#FFE235" stop-opacity="0"/>
</radialGradient>
<linearGradient id="paint78_linear_0_4125" x1="17.2382" y1="17.4619" x2="17.2382" y2="18.9091" gradientUnits="userSpaceOnUse">
<stop stop-color="#FEB937"/>
<stop offset="1" stop-color="#FEB937" stop-opacity="0"/>
</linearGradient>
<radialGradient id="paint79_radial_0_4125" cx="0" cy="0" r="1" gradientUnits="userSpaceOnUse" gradientTransform="translate(20.3638 17.5721) rotate(90) scale(1.16254 1.84915)">
<stop offset="0.80198" stop-color="#925C51"/>
<stop offset="1" stop-color="#85534D"/>
</radialGradient>
<radialGradient id="paint80_radial_0_4125" cx="0" cy="0" r="1" gradientUnits="userSpaceOnUse" gradientTransform="translate(20.0361 17.6915) rotate(-127.812) scale(0.541481 0.745491)">
<stop offset="0.765532" stop-color="#FFE6E2" stop-opacity="0"/>
<stop offset="0.966159" stop-color="#FFE6E2"/>
</radialGradient>
<linearGradient id="paint81_linear_0_4125" x1="21.4767" y1="17.6491" x2="21.0275" y2="17.9258" gradientUnits="userSpaceOnUse">
<stop stop-color="#B4948D"/>
<stop offset="1" stop-color="#B4948D" stop-opacity="0"/>
</linearGradient>
<radialGradient id="paint82_radial_0_4125" cx="0" cy="0" r="1" gradientUnits="userSpaceOnUse" gradientTransform="translate(14.1099 17.5721) rotate(90) scale(1.1626 1.84925)">
<stop offset="0.80198" stop-color="#925C51"/>
<stop offset="1" stop-color="#85534D"/>
</radialGradient>
<linearGradient id="paint83_linear_0_4125" x1="15.1754" y1="17.6508" x2="14.7263" y2="17.9275" gradientUnits="userSpaceOnUse">
<stop stop-color="#B4948D"/>
<stop offset="1" stop-color="#B4948D" stop-opacity="0"/>
</linearGradient>
<radialGradient id="paint84_radial_0_4125" cx="0" cy="0" r="1" gradientUnits="userSpaceOnUse" gradientTransform="translate(13.9126 17.8393) rotate(-118.811) scale(0.70732 0.850227)">
<stop offset="0.765532" stop-color="#FFE6E2" stop-opacity="0"/>
<stop offset="0.966159" stop-color="#FFE6E2"/>
</radialGradient>
<radialGradient id="paint85_radial_0_4125" cx="0" cy="0" r="1" gradientUnits="userSpaceOnUse" gradientTransform="translate(20.722 14.144) rotate(-85.2364) scale(0.672123 5.18878)">
<stop stop-color="#B4A3A0"/>
<stop offset="0.89931" stop-color="#9C939C"/>
</radialGradient>
</defs>
</svg>
