<svg width="40" height="33" viewBox="0 0 40 33" fill="none" xmlns="http://www.w3.org/2000/svg">
<g id="&#240;&#159;&#166;&#134; emoji &#34;open book&#34;">
<g id="Group">
<path id="Vector" d="M1.80078 4.32123C0.806233 4.32123 0 5.12755 0 6.12201V29.7349C0 30.7294 0.806233 31.5357 1.80078 31.5357H17.654C18.1127 32.3581 18.9913 32.9144 19.9999 32.9144C21.0085 32.9144 21.8873 32.3581 22.346 31.5357H38.1992C39.1937 31.5357 40 30.7294 40 29.7349V6.12201C40 5.12755 39.1937 4.32123 38.1992 4.32123H1.80078Z" fill="#3E6ACA"/>
</g>
<g id="Group_2">
<path id="Vector_2" d="M1.80078 2.92773C0.806233 2.92773 0 3.73391 0 4.72852V28.3413C0 29.3359 0.806233 30.142 1.80078 30.142H17.654C18.1127 30.9645 18.9913 31.5209 19.9999 31.5209C21.0085 31.5209 21.8873 30.9645 22.346 30.142H38.1992C39.1937 30.142 40 29.3359 40 28.3413V4.72852C40 3.73391 39.1937 2.92773 38.1992 2.92773H1.80078Z" fill="url(#paint0_linear_0_3750)"/>
</g>
<g id="Group_3">
<path id="Vector_3" d="M3.57671 1.53113L1.32125 4.32832C1.12201 4.57539 1.01367 4.88051 1.01367 5.19486V25.7875C1.01367 26.756 1.81989 27.5412 2.81446 27.5412H36.5792C37.5737 27.5412 38.38 26.756 38.38 25.7875V5.19486C38.38 4.88051 38.2717 4.57539 38.0723 4.32832L35.8169 1.53113L33.1639 22.6308H6.22966L3.57671 1.53113Z" fill="#3F9BEA"/>
</g>
<path id="Vector_4" d="M17.9297 25.4584H22.0715V27.732C22.0715 28.8757 21.1443 29.8029 20.0006 29.8029C18.8569 29.8029 17.9297 28.8757 17.9297 27.7318V25.4584Z" fill="url(#paint1_radial_0_3750)"/>
<path id="Vector_5" d="M17.9297 25.4584H22.0715V27.732C22.0715 28.8757 21.1443 29.8029 20.0006 29.8029C18.8569 29.8029 17.9297 28.8757 17.9297 27.7318V25.4584Z" fill="url(#paint2_linear_0_3750)"/>
<g id="Group_4">
<path id="Vector_6" d="M1.57907 3.49159L3.8345 0.619324L6.48748 22.285H19.9546V27.3272H3.07227C2.07772 27.3272 1.27148 26.521 1.27148 25.5264V4.38132C1.27148 4.05862 1.37979 3.74528 1.57907 3.49159Z" fill="url(#paint3_linear_0_3750)"/>
</g>
<g id="Group_5">
<path id="Vector_7" d="M38.3306 3.49159L36.0751 0.619324L33.4222 22.285H19.9551V27.3272H36.8374C37.832 27.3272 38.6381 26.521 38.6381 25.5264V4.38132C38.6381 4.05862 38.53 3.74528 38.3306 3.49159Z" fill="url(#paint4_linear_0_3750)"/>
<path id="Vector_8" d="M38.3306 3.49159L36.0751 0.619324L33.4222 22.285H19.9551V27.3272H36.8374C37.832 27.3272 38.6381 26.521 38.6381 25.5264V4.38132C38.6381 4.05862 38.53 3.74528 38.3306 3.49159Z" fill="url(#paint5_linear_0_3750)"/>
</g>
<path id="Vector_9" d="M38.3306 3.49098L36.0751 0.618713L33.4222 22.2844H19.9551V27.3266H36.8374C37.832 27.3266 38.6381 26.5204 38.6381 25.5258V4.38071C38.6381 4.05801 38.53 3.74467 38.3306 3.49098Z" fill="url(#paint6_linear_0_3750)"/>
<g id="Group_6">
<path id="Vector_10" d="M3.56836 1.44063C3.56836 0.644998 4.21334 0 5.00899 0H16.3539C18.343 0 19.9555 1.61248 19.9555 3.6015V27.3157C19.9555 25.7305 18.3236 24.4456 16.4327 24.4456H5.36914C4.37459 24.4456 3.56836 23.6395 3.56836 22.6449V1.44063Z" fill="url(#paint7_linear_0_3750)"/>
<path id="Vector_11" d="M3.56836 1.44063C3.56836 0.644998 4.21334 0 5.00899 0H16.3539C18.343 0 19.9555 1.61248 19.9555 3.6015V27.3157C19.9555 25.7305 18.3236 24.4456 16.4327 24.4456H5.36914C4.37459 24.4456 3.56836 23.6395 3.56836 22.6449V1.44063Z" fill="url(#paint8_linear_0_3750)"/>
<path id="Vector_12" d="M3.56836 1.44063C3.56836 0.644998 4.21334 0 5.00899 0H16.3539C18.343 0 19.9555 1.61248 19.9555 3.6015V27.3157C19.9555 25.7305 18.3236 24.4456 16.4327 24.4456H5.36914C4.37459 24.4456 3.56836 23.6395 3.56836 22.6449V1.44063Z" fill="url(#paint9_linear_0_3750)"/>
</g>
<g id="Group_7">
<path id="Vector_13" d="M36.3422 1.44063C36.3422 0.644998 35.6972 0 34.9016 0H23.5566C21.5676 0 19.9551 1.61248 19.9551 3.6015V27.3157C19.9551 25.7305 21.587 24.4456 23.4778 24.4456H34.5414C35.5359 24.4456 36.3422 23.6395 36.3422 22.6449V1.44063Z" fill="url(#paint10_linear_0_3750)"/>
<path id="Vector_14" d="M36.3422 1.44063C36.3422 0.644998 35.6972 0 34.9016 0H23.5566C21.5676 0 19.9551 1.61248 19.9551 3.6015V27.3157C19.9551 25.7305 21.587 24.4456 23.4778 24.4456H34.5414C35.5359 24.4456 36.3422 23.6395 36.3422 22.6449V1.44063Z" fill="url(#paint11_linear_0_3750)"/>
<path id="Vector_15" d="M36.3422 1.44063C36.3422 0.644998 35.6972 0 34.9016 0H23.5566C21.5676 0 19.9551 1.61248 19.9551 3.6015V27.3157C19.9551 25.7305 21.587 24.4456 23.4778 24.4456H34.5414C35.5359 24.4456 36.3422 23.6395 36.3422 22.6449V1.44063Z" fill="url(#paint12_linear_0_3750)"/>
</g>
</g>
<defs>
<linearGradient id="paint0_linear_0_3750" x1="19.9999" y1="9.23048" x2="19.9999" y2="31.5209" gradientUnits="userSpaceOnUse">
<stop stop-color="#5DD8FB"/>
<stop offset="1" stop-color="#41AEF2"/>
</linearGradient>
<radialGradient id="paint1_radial_0_3750" cx="0" cy="0" r="1" gradientUnits="userSpaceOnUse" gradientTransform="translate(18.7964 29.5328) rotate(-26.565) scale(3.22134 4.51994)">
<stop offset="0.231937" stop-color="#306AB3"/>
<stop offset="1" stop-color="#1A4CA8"/>
</radialGradient>
<linearGradient id="paint2_linear_0_3750" x1="20.0006" y1="27.0117" x2="20.0006" y2="28.0921" gradientUnits="userSpaceOnUse">
<stop stop-color="#1748A6"/>
<stop offset="1" stop-color="#1748A6" stop-opacity="0"/>
</linearGradient>
<linearGradient id="paint3_linear_0_3750" x1="14.676" y1="29.7133" x2="4.23153" y2="20.034" gradientUnits="userSpaceOnUse">
<stop offset="0.749863" stop-color="#B3A9CF"/>
<stop offset="0.931655" stop-color="#B6BAC5"/>
</linearGradient>
<linearGradient id="paint4_linear_0_3750" x1="25.2335" y1="29.7133" x2="35.6781" y2="20.034" gradientUnits="userSpaceOnUse">
<stop offset="0.71707" stop-color="#BBB3D9"/>
<stop offset="0.912508" stop-color="#DCDDE8"/>
</linearGradient>
<linearGradient id="paint5_linear_0_3750" x1="36.9497" y1="1.2323" x2="36.9497" y2="7.63008" gradientUnits="userSpaceOnUse">
<stop stop-color="#D8DAE2"/>
<stop offset="1" stop-color="#D8DAE2" stop-opacity="0"/>
</linearGradient>
<linearGradient id="paint6_linear_0_3750" x1="19.9551" y1="27.3266" x2="22.2849" y2="24.5805" gradientUnits="userSpaceOnUse">
<stop stop-color="#A699C9"/>
<stop offset="1" stop-color="#A699C9" stop-opacity="0"/>
</linearGradient>
<linearGradient id="paint7_linear_0_3750" x1="3.56836" y1="13.6578" x2="18.7287" y2="13.6578" gradientUnits="userSpaceOnUse">
<stop stop-color="#F3F1FA"/>
<stop offset="1" stop-color="#F0EBF9"/>
</linearGradient>
<linearGradient id="paint8_linear_0_3750" x1="19.9555" y1="25.4361" x2="16.0275" y2="25.4361" gradientUnits="userSpaceOnUse">
<stop stop-color="#D5CCE8"/>
<stop offset="1" stop-color="#F2EBFF" stop-opacity="0"/>
</linearGradient>
<linearGradient id="paint9_linear_0_3750" x1="20.0343" y1="25.7513" x2="19.7191" y2="25.7513" gradientUnits="userSpaceOnUse">
<stop offset="0.178572" stop-color="#BFB3D1"/>
<stop offset="1" stop-color="#BFB3D1" stop-opacity="0"/>
</linearGradient>
<linearGradient id="paint10_linear_0_3750" x1="19.9551" y1="13.6578" x2="35.1154" y2="13.6578" gradientUnits="userSpaceOnUse">
<stop stop-color="#F3F1FA"/>
<stop offset="1" stop-color="#F0EBF9"/>
</linearGradient>
<linearGradient id="paint11_linear_0_3750" x1="19.9551" y1="25.4361" x2="23.9956" y2="25.4361" gradientUnits="userSpaceOnUse">
<stop stop-color="#D5CCE8"/>
<stop offset="1" stop-color="#F2EBFF" stop-opacity="0"/>
</linearGradient>
<linearGradient id="paint12_linear_0_3750" x1="19.9156" y1="25.7511" x2="20.214" y2="25.7511" gradientUnits="userSpaceOnUse">
<stop stop-color="#BFB3D1"/>
<stop offset="1" stop-color="#BFB3D1" stop-opacity="0"/>
</linearGradient>
</defs>
</svg>
