<svg width="36" height="40" viewBox="0 0 36 40" fill="none" xmlns="http://www.w3.org/2000/svg">
<g id="&#240;&#159;&#166;&#134; emoji &#34;woman dancing default&#34;">
<g id="Group">
<path id="Vector" d="M7.85257 1.8416C8.60985 1.29537 9.43495 1.0788 9.98603 1.03975C10.099 1.03174 10.2046 0.978691 10.2774 0.891617C10.8479 0.207568 11.5037 0 12.041 0C12.8508 0 13.381 0.286737 13.5794 0.41548C13.9949 0.684983 14.2757 0.864652 14.8933 1.03309C15.5109 1.20154 16.8134 2.97576 17.1953 3.54846C17.5771 4.12114 17.3974 4.67139 17.3974 5.00826C17.3974 5.34514 17.6219 5.45743 17.6894 6.08627C17.7379 6.5399 17.559 7.10064 17.4355 7.39311C17.4132 7.44561 17.422 7.5063 17.4577 7.5508C18.3557 8.67277 18.0806 10.5053 17.8242 11.2967H12.5912V14.6655C11.663 15.5039 9.17766 17.091 6.66226 16.7317C3.51806 16.2825 0.890409 13.0933 1.76629 9.81439C2.40729 7.41478 4.63824 6.41092 5.94222 6.14264C6.13052 6.10389 6.26784 5.93503 6.25829 5.743C6.16876 3.94124 6.56274 2.77197 7.85257 1.8416Z" fill="url(#paint0_radial_0_4380)"/>
<path id="Vector_2" d="M7.85257 1.8416C8.60985 1.29537 9.43495 1.0788 9.98603 1.03975C10.099 1.03174 10.2046 0.978691 10.2774 0.891617C10.8479 0.207568 11.5037 0 12.041 0C12.8508 0 13.381 0.286737 13.5794 0.41548C13.9949 0.684983 14.2757 0.864652 14.8933 1.03309C15.5109 1.20154 16.8134 2.97576 17.1953 3.54846C17.5771 4.12114 17.3974 4.67139 17.3974 5.00826C17.3974 5.34514 17.6219 5.45743 17.6894 6.08627C17.7379 6.5399 17.559 7.10064 17.4355 7.39311C17.4132 7.44561 17.422 7.5063 17.4577 7.5508C18.3557 8.67277 18.0806 10.5053 17.8242 11.2967H12.5912V14.6655C11.663 15.5039 9.17766 17.091 6.66226 16.7317C3.51806 16.2825 0.890409 13.0933 1.76629 9.81439C2.40729 7.41478 4.63824 6.41092 5.94222 6.14264C6.13052 6.10389 6.26784 5.93503 6.25829 5.743C6.16876 3.94124 6.56274 2.77197 7.85257 1.8416Z" fill="url(#paint1_radial_0_4380)"/>
<path id="Vector_3" d="M7.85257 1.8416C8.60985 1.29537 9.43495 1.0788 9.98603 1.03975C10.099 1.03174 10.2046 0.978691 10.2774 0.891617C10.8479 0.207568 11.5037 0 12.041 0C12.8508 0 13.381 0.286737 13.5794 0.41548C13.9949 0.684983 14.2757 0.864652 14.8933 1.03309C15.5109 1.20154 16.8134 2.97576 17.1953 3.54846C17.5771 4.12114 17.3974 4.67139 17.3974 5.00826C17.3974 5.34514 17.6219 5.45743 17.6894 6.08627C17.7379 6.5399 17.559 7.10064 17.4355 7.39311C17.4132 7.44561 17.422 7.5063 17.4577 7.5508C18.3557 8.67277 18.0806 10.5053 17.8242 11.2967H12.5912V14.6655C11.663 15.5039 9.17766 17.091 6.66226 16.7317C3.51806 16.2825 0.890409 13.0933 1.76629 9.81439C2.40729 7.41478 4.63824 6.41092 5.94222 6.14264C6.13052 6.10389 6.26784 5.93503 6.25829 5.743C6.16876 3.94124 6.56274 2.77197 7.85257 1.8416Z" fill="url(#paint2_radial_0_4380)"/>
<path id="Vector_4" d="M7.85257 1.8416C8.60985 1.29537 9.43495 1.0788 9.98603 1.03975C10.099 1.03174 10.2046 0.978691 10.2774 0.891617C10.8479 0.207568 11.5037 0 12.041 0C12.8508 0 13.381 0.286737 13.5794 0.41548C13.9949 0.684983 14.2757 0.864652 14.8933 1.03309C15.5109 1.20154 16.8134 2.97576 17.1953 3.54846C17.5771 4.12114 17.3974 4.67139 17.3974 5.00826C17.3974 5.34514 17.6219 5.45743 17.6894 6.08627C17.7379 6.5399 17.559 7.10064 17.4355 7.39311C17.4132 7.44561 17.422 7.5063 17.4577 7.5508C18.3557 8.67277 18.0806 10.5053 17.8242 11.2967H12.5912V14.6655C11.663 15.5039 9.17766 17.091 6.66226 16.7317C3.51806 16.2825 0.890409 13.0933 1.76629 9.81439C2.40729 7.41478 4.63824 6.41092 5.94222 6.14264C6.13052 6.10389 6.26784 5.93503 6.25829 5.743C6.16876 3.94124 6.56274 2.77197 7.85257 1.8416Z" fill="url(#paint3_radial_0_4380)"/>
<path id="Vector_5" d="M7.85257 1.8416C8.60985 1.29537 9.43495 1.0788 9.98603 1.03975C10.099 1.03174 10.2046 0.978691 10.2774 0.891617C10.8479 0.207568 11.5037 0 12.041 0C12.8508 0 13.381 0.286737 13.5794 0.41548C13.9949 0.684983 14.2757 0.864652 14.8933 1.03309C15.5109 1.20154 16.8134 2.97576 17.1953 3.54846C17.5771 4.12114 17.3974 4.67139 17.3974 5.00826C17.3974 5.34514 17.6219 5.45743 17.6894 6.08627C17.7379 6.5399 17.559 7.10064 17.4355 7.39311C17.4132 7.44561 17.422 7.5063 17.4577 7.5508C18.3557 8.67277 18.0806 10.5053 17.8242 11.2967H12.5912V14.6655C11.663 15.5039 9.17766 17.091 6.66226 16.7317C3.51806 16.2825 0.890409 13.0933 1.76629 9.81439C2.40729 7.41478 4.63824 6.41092 5.94222 6.14264C6.13052 6.10389 6.26784 5.93503 6.25829 5.743C6.16876 3.94124 6.56274 2.77197 7.85257 1.8416Z" fill="url(#paint4_radial_0_4380)"/>
</g>
<path id="Vector_6" d="M7.85257 1.8416C8.60985 1.29537 9.43495 1.0788 9.98603 1.03975C10.099 1.03174 10.2046 0.978691 10.2774 0.891617C10.8479 0.207568 11.5037 0 12.041 0C12.8508 0 13.381 0.286737 13.5794 0.41548C13.9949 0.684983 14.2757 0.864652 14.8933 1.03309C15.5109 1.20154 16.8134 2.97576 17.1953 3.54846C17.5771 4.12114 17.3974 4.67139 17.3974 5.00826C17.3974 5.34514 17.6219 5.45743 17.6894 6.08627C17.7379 6.5399 17.559 7.10064 17.4355 7.39311C17.4132 7.44561 17.422 7.5063 17.4577 7.5508C18.3557 8.67277 18.0806 10.5053 17.8242 11.2967H12.5912V14.6655C11.663 15.5039 9.17766 17.091 6.66226 16.7317C3.51806 16.2825 0.890409 13.0933 1.76629 9.81439C2.40729 7.41478 4.63824 6.41092 5.94222 6.14264C6.13052 6.10389 6.26784 5.93503 6.25829 5.743C6.16876 3.94124 6.56274 2.77197 7.85257 1.8416Z" fill="url(#paint5_radial_0_4380)"/>
<path id="Vector_7" d="M17.2443 39.9973H4.91333C3.72933 39.7355 1.36133 38.7767 1.36133 37.0356C1.36133 34.8593 3.29469 33.4234 3.1598 33.3336C3.0519 33.2619 7.50616 29.8484 9.74675 28.1508L28.496 20.1298C29.7475 19.1275 32.5157 17.139 33.5767 17.2018C34.6378 17.2646 35.0455 18.6489 35.1167 19.3332V27.2869C35.1167 28.6107 34.6783 30.0916 33.7003 30.7422C32.7225 31.3929 31.9581 31.2358 30.4519 31.2358C28.7658 31.2358 28.3611 31.7181 27.7092 33.7487C27.1875 35.3732 26.2928 35.7344 24.9778 35.7344H23.2692C22.1114 35.7344 21.3358 35.9812 20.6838 38.135C20.1083 39.6877 18.6605 39.9973 17.2443 39.9973Z" fill="url(#paint6_linear_0_4380)"/>
<path id="Vector_8" d="M17.2443 39.9973H4.91333C3.72933 39.7355 1.36133 38.7767 1.36133 37.0356C1.36133 34.8593 3.29469 33.4234 3.1598 33.3336C3.0519 33.2619 7.50616 29.8484 9.74675 28.1508L28.496 20.1298C29.7475 19.1275 32.5157 17.139 33.5767 17.2018C34.6378 17.2646 35.0455 18.6489 35.1167 19.3332V27.2869C35.1167 28.6107 34.6783 30.0916 33.7003 30.7422C32.7225 31.3929 31.9581 31.2358 30.4519 31.2358C28.7658 31.2358 28.3611 31.7181 27.7092 33.7487C27.1875 35.3732 26.2928 35.7344 24.9778 35.7344H23.2692C22.1114 35.7344 21.3358 35.9812 20.6838 38.135C20.1083 39.6877 18.6605 39.9973 17.2443 39.9973Z" fill="url(#paint7_linear_0_4380)"/>
<path id="Vector_9" d="M17.2443 39.9973H4.91333C3.72933 39.7355 1.36133 38.7767 1.36133 37.0356C1.36133 34.8593 3.29469 33.4234 3.1598 33.3336C3.0519 33.2619 7.50616 29.8484 9.74675 28.1508L28.496 20.1298C29.7475 19.1275 32.5157 17.139 33.5767 17.2018C34.6378 17.2646 35.0455 18.6489 35.1167 19.3332V27.2869C35.1167 28.6107 34.6783 30.0916 33.7003 30.7422C32.7225 31.3929 31.9581 31.2358 30.4519 31.2358C28.7658 31.2358 28.3611 31.7181 27.7092 33.7487C27.1875 35.3732 26.2928 35.7344 24.9778 35.7344H23.2692C22.1114 35.7344 21.3358 35.9812 20.6838 38.135C20.1083 39.6877 18.6605 39.9973 17.2443 39.9973Z" fill="url(#paint8_radial_0_4380)"/>
<g id="Group_2">
<path id="Vector_10" d="M22.8101 38.2689L18.9473 30.3186L21.6087 28.0615L26.6977 39.7522C26.7391 39.8471 26.6696 39.9533 26.5659 39.9533H25.4603C24.005 39.9533 23.1695 39.1111 22.8101 38.2689Z" fill="#FFC63E"/>
</g>
<g id="Group_3">
<path id="Vector_11" d="M21.9883 36.5785L22.8094 38.2684C23.1688 39.1105 24.0043 39.9528 25.4596 39.9528H26.5654C26.6689 39.9528 26.7384 39.8466 26.697 39.7517L25.7937 37.6763L21.9883 36.5785Z" fill="#FF444F"/>
</g>
<path id="Vector_12" d="M6.33625 37.1172L7.36934 35.0351L11.0414 34.9794L8.28371 39.5917C8.05785 39.9696 7.57309 40.1253 7.20422 39.8822C6.521 39.4319 6.13868 38.9025 6.07797 38.3865C6.01509 37.8521 6.22395 37.3177 6.33625 37.1172Z" fill="url(#paint9_linear_0_4380)"/>
<path id="Vector_13" d="M6.34179 37.1073L6.33625 37.1184C6.22397 37.3189 6.01508 37.8533 6.07797 38.3877C6.13869 38.9037 6.52101 39.4331 7.20424 39.8834C7.57305 40.1265 8.05785 39.9708 8.28366 39.5929L9.76975 37.1073H6.34179Z" fill="url(#paint10_radial_0_4380)"/>
<g id="Group_4">
<path id="Vector_14" d="M21.3476 9.23007H15.4316L16.2289 12.3968H21.2709C23.4069 12.3968 24.6846 10.8695 24.5723 8.57877L24.4638 5.21529C24.4616 5.14689 24.5078 5.0864 24.5742 5.06934C24.8684 4.99355 25.3795 4.847 25.7008 4.76081C26.0692 4.662 26.341 4.39024 26.4308 4.26673L27.158 3.1983C27.4079 2.831 27.3034 2.32958 26.9276 2.09268C26.5671 1.8654 26.091 1.96747 25.8552 2.32257L25.4326 2.95928C25.406 2.99917 25.3693 3.03137 25.3252 3.05007C24.7582 3.29045 24.0256 3.29856 23.6908 3.28415L24.095 2.89887C24.4019 2.60643 24.4128 2.12045 24.1197 1.81436C23.8427 1.52533 23.3901 1.49812 23.0806 1.7519L22.5061 2.22299C22.3153 2.39517 21.9065 2.86755 21.7987 3.37961C21.7235 3.73673 21.7313 4.15831 21.7581 4.46834C21.7771 4.68607 21.7925 4.90466 21.7804 5.12288L21.5629 9.02645C21.5566 9.14069 21.462 9.23007 21.3476 9.23007Z" fill="#FFBC30"/>
</g>
<path id="Vector_15" d="M21.3476 9.22927H15.4316L16.2289 12.396H21.2709C23.4069 12.396 24.6846 10.8688 24.5723 8.57798L24.4638 5.2145C24.4616 5.14609 24.5078 5.08561 24.5742 5.06855C24.8684 4.99276 25.3795 4.8462 25.7008 4.76002C26.0692 4.6612 26.341 4.38944 26.4308 4.26593L27.158 3.19751C27.4079 2.83021 27.3034 2.32879 26.9276 2.09188C26.5671 1.86461 26.091 1.96668 25.8552 2.32177L25.4326 2.95849C25.406 2.99838 25.3693 3.03057 25.3252 3.04927C24.7582 3.28966 24.0256 3.29776 23.6908 3.28336L24.095 2.89808C24.4019 2.60563 24.4128 2.11965 24.1197 1.81357C23.8427 1.52453 23.3901 1.49732 23.0806 1.7511L22.5061 2.22219C22.3153 2.39437 21.9065 2.86676 21.7987 3.37881C21.7235 3.73594 21.7313 4.15751 21.7581 4.46755C21.7771 4.68528 21.7925 4.90387 21.7804 5.12209L21.5629 9.02566C21.5566 9.1399 21.462 9.22927 21.3476 9.22927Z" fill="url(#paint11_radial_0_4380)"/>
<path id="Vector_16" d="M21.3476 9.22927H15.4316L16.2289 12.396H21.2709C23.4069 12.396 24.6846 10.8688 24.5723 8.57798L24.4638 5.2145C24.4616 5.14609 24.5078 5.08561 24.5742 5.06855C24.8684 4.99276 25.3795 4.8462 25.7008 4.76002C26.0692 4.6612 26.341 4.38944 26.4308 4.26593L27.158 3.19751C27.4079 2.83021 27.3034 2.32879 26.9276 2.09188C26.5671 1.86461 26.091 1.96668 25.8552 2.32177L25.4326 2.95849C25.406 2.99838 25.3693 3.03057 25.3252 3.04927C24.7582 3.28966 24.0256 3.29776 23.6908 3.28336L24.095 2.89808C24.4019 2.60563 24.4128 2.11965 24.1197 1.81357C23.8427 1.52453 23.3901 1.49732 23.0806 1.7511L22.5061 2.22219C22.3153 2.39437 21.9065 2.86676 21.7987 3.37881C21.7235 3.73594 21.7313 4.15751 21.7581 4.46755C21.7771 4.68528 21.7925 4.90387 21.7804 5.12209L21.5629 9.02566C21.5566 9.1399 21.462 9.22927 21.3476 9.22927Z" fill="url(#paint12_radial_0_4380)"/>
<path id="Vector_17" d="M21.3476 9.22927H15.4316L16.2289 12.396H21.2709C23.4069 12.396 24.6846 10.8688 24.5723 8.57798L24.4638 5.2145C24.4616 5.14609 24.5078 5.08561 24.5742 5.06855C24.8684 4.99276 25.3795 4.8462 25.7008 4.76002C26.0692 4.6612 26.341 4.38944 26.4308 4.26593L27.158 3.19751C27.4079 2.83021 27.3034 2.32879 26.9276 2.09188C26.5671 1.86461 26.091 1.96668 25.8552 2.32177L25.4326 2.95849C25.406 2.99838 25.3693 3.03057 25.3252 3.04927C24.7582 3.28966 24.0256 3.29776 23.6908 3.28336L24.095 2.89808C24.4019 2.60563 24.4128 2.11965 24.1197 1.81357C23.8427 1.52453 23.3901 1.49732 23.0806 1.7511L22.5061 2.22219C22.3153 2.39437 21.9065 2.86676 21.7987 3.37881C21.7235 3.73594 21.7313 4.15751 21.7581 4.46755C21.7771 4.68528 21.7925 4.90387 21.7804 5.12209L21.5629 9.02566C21.5566 9.1399 21.462 9.22927 21.3476 9.22927Z" fill="url(#paint13_radial_0_4380)"/>
<path id="Vector_18" d="M21.3476 9.22927H15.4316L16.2289 12.396H21.2709C23.4069 12.396 24.6846 10.8688 24.5723 8.57798L24.4638 5.2145C24.4616 5.14609 24.5078 5.08561 24.5742 5.06855C24.8684 4.99276 25.3795 4.8462 25.7008 4.76002C26.0692 4.6612 26.341 4.38944 26.4308 4.26593L27.158 3.19751C27.4079 2.83021 27.3034 2.32879 26.9276 2.09188C26.5671 1.86461 26.091 1.96668 25.8552 2.32177L25.4326 2.95849C25.406 2.99838 25.3693 3.03057 25.3252 3.04927C24.7582 3.28966 24.0256 3.29776 23.6908 3.28336L24.095 2.89808C24.4019 2.60563 24.4128 2.11965 24.1197 1.81357C23.8427 1.52453 23.3901 1.49732 23.0806 1.7511L22.5061 2.22219C22.3153 2.39437 21.9065 2.86676 21.7987 3.37881C21.7235 3.73594 21.7313 4.15751 21.7581 4.46755C21.7771 4.68528 21.7925 4.90387 21.7804 5.12209L21.5629 9.02566C21.5566 9.1399 21.462 9.22927 21.3476 9.22927Z" fill="url(#paint14_radial_0_4380)"/>
<g id="Group_5">
<path id="Vector_19" d="M8.86341 17.9001V20.303L17.1058 20.0785C16.5668 17.8439 16.5779 15.3959 16.8025 14.8457C17.0271 14.2953 17.4538 13.7339 17.4874 12.9928C17.5212 12.2517 17.2405 11.5555 16.8025 10.8592C16.5877 10.5177 16.4209 10.0743 16.3087 9.7029C16.2091 9.37392 15.9144 9.12994 15.5707 9.12994H14.4668C14.3692 9.12994 14.3113 9.25919 14.2248 9.30409L12.8498 10.0171L11.1204 9.12994C9.81788 9.18609 8.13351 9.50051 7.80786 9.93845C7.4822 10.3764 7.44853 11.387 7.67311 12.6447C7.8977 13.9024 8.29071 15.2499 8.60513 16.036C8.85667 16.6648 8.88212 17.5407 8.86341 17.9001Z" fill="url(#paint15_radial_0_4380)"/>
<path id="Vector_20" d="M8.86341 17.9001V20.303L17.1058 20.0785C16.5668 17.8439 16.5779 15.3959 16.8025 14.8457C17.0271 14.2953 17.4538 13.7339 17.4874 12.9928C17.5212 12.2517 17.2405 11.5555 16.8025 10.8592C16.5877 10.5177 16.4209 10.0743 16.3087 9.7029C16.2091 9.37392 15.9144 9.12994 15.5707 9.12994H14.4668C14.3692 9.12994 14.3113 9.25919 14.2248 9.30409L12.8498 10.0171L11.1204 9.12994C9.81788 9.18609 8.13351 9.50051 7.80786 9.93845C7.4822 10.3764 7.44853 11.387 7.67311 12.6447C7.8977 13.9024 8.29071 15.2499 8.60513 16.036C8.85667 16.6648 8.88212 17.5407 8.86341 17.9001Z" fill="url(#paint16_radial_0_4380)"/>
<path id="Vector_21" d="M8.86341 17.9001V20.303L17.1058 20.0785C16.5668 17.8439 16.5779 15.3959 16.8025 14.8457C17.0271 14.2953 17.4538 13.7339 17.4874 12.9928C17.5212 12.2517 17.2405 11.5555 16.8025 10.8592C16.5877 10.5177 16.4209 10.0743 16.3087 9.7029C16.2091 9.37392 15.9144 9.12994 15.5707 9.12994H14.4668C14.3692 9.12994 14.3113 9.25919 14.2248 9.30409L12.8498 10.0171L11.1204 9.12994C9.81788 9.18609 8.13351 9.50051 7.80786 9.93845C7.4822 10.3764 7.44853 11.387 7.67311 12.6447C7.8977 13.9024 8.29071 15.2499 8.60513 16.036C8.85667 16.6648 8.88212 17.5407 8.86341 17.9001Z" fill="url(#paint17_radial_0_4380)"/>
<path id="Vector_22" d="M8.86341 17.9001V20.303L17.1058 20.0785C16.5668 17.8439 16.5779 15.3959 16.8025 14.8457C17.0271 14.2953 17.4538 13.7339 17.4874 12.9928C17.5212 12.2517 17.2405 11.5555 16.8025 10.8592C16.5877 10.5177 16.4209 10.0743 16.3087 9.7029C16.2091 9.37392 15.9144 9.12994 15.5707 9.12994H14.4668C14.3692 9.12994 14.3113 9.25919 14.2248 9.30409L12.8498 10.0171L11.1204 9.12994C9.81788 9.18609 8.13351 9.50051 7.80786 9.93845C7.4822 10.3764 7.44853 11.387 7.67311 12.6447C7.8977 13.9024 8.29071 15.2499 8.60513 16.036C8.85667 16.6648 8.88212 17.5407 8.86341 17.9001Z" fill="url(#paint18_radial_0_4380)"/>
</g>
<g id="Group_6">
<path id="Vector_23" d="M32.9937 16.4172C32.782 16.4172 32.5776 16.4483 32.3849 16.5059C31.9281 16.6172 31.4921 16.8246 30.9572 17.0794L30.955 17.0803C30.5353 17.2799 30.0552 17.5085 29.4564 17.7423C27.3004 18.5845 24.83 18.5845 23.6172 18.5845H11.2201C8.44171 18.5845 6.14085 20.8361 6.10496 23.6142C6.09497 24.3853 6.0883 25.3813 6.0883 26.1868C6.0883 28.7695 3.69997 31.5486 2.24787 32.9243C1.24092 33.8783 1.0002 34.4517 0.859135 34.7877L0.838423 34.8367C0.828864 34.8593 0.819651 34.8806 0.810523 34.9007L0.825788 34.9123C0.67077 35.3244 0.585938 35.7707 0.585938 36.237C0.585938 38.3145 2.27017 39.9988 4.34775 39.9988H5.73405C5.01677 39.8534 4.15774 39.6454 3.4831 39.3924C1.98724 38.8314 1.84362 37.5677 1.88284 37.0735C1.91293 36.6929 2.20858 35.159 4.23547 35.159C5.60061 35.159 7.15438 35.2511 8.57918 35.3356C9.48661 35.3895 10.3418 35.4403 11.0627 35.4621C12.5687 35.5078 14.1106 35.369 14.7574 33.716C15.4311 31.661 15.9757 30.9704 17.4972 30.9704C18.2053 31.0131 18.7508 31.0408 19.1125 31.0591C19.3218 31.0697 19.4697 31.0772 19.5521 31.0827C20.5579 31.1498 21.6391 30.9555 21.9102 29.1289C22.2136 27.0851 23.4436 26.8972 24.3133 26.9279C25.268 26.9616 26.6041 26.9616 27.2106 26.5125C27.817 26.0633 27.8841 25.2434 27.8841 24.6372C27.8841 24.0307 28.0955 22.9652 29.5685 22.8179C31.2193 22.6529 31.5449 22.3015 31.7696 21.987C32.0947 21.5318 32.1134 20.9903 32.0391 20.1679C31.9382 19.0505 32.2039 18.3571 32.8757 17.9276C33.7629 17.3606 34.4182 17.9962 34.5544 19.1347C34.5872 19.4084 34.6287 19.7769 34.6757 20.193C34.8064 21.3482 34.9783 22.8692 35.1158 23.7388L35.116 18.5396C35.116 17.4089 34.2317 16.4848 33.1172 16.4208V16.4172C33.0944 16.4172 33.0721 16.4175 33.0497 16.418C33.0311 16.4175 33.0124 16.4172 32.9937 16.4172Z" fill="url(#paint19_radial_0_4380)"/>
<path id="Vector_24" d="M32.9937 16.4172C32.782 16.4172 32.5776 16.4483 32.3849 16.5059C31.9281 16.6172 31.4921 16.8246 30.9572 17.0794L30.955 17.0803C30.5353 17.2799 30.0552 17.5085 29.4564 17.7423C27.3004 18.5845 24.83 18.5845 23.6172 18.5845H11.2201C8.44171 18.5845 6.14085 20.8361 6.10496 23.6142C6.09497 24.3853 6.0883 25.3813 6.0883 26.1868C6.0883 28.7695 3.69997 31.5486 2.24787 32.9243C1.24092 33.8783 1.0002 34.4517 0.859135 34.7877L0.838423 34.8367C0.828864 34.8593 0.819651 34.8806 0.810523 34.9007L0.825788 34.9123C0.67077 35.3244 0.585938 35.7707 0.585938 36.237C0.585938 38.3145 2.27017 39.9988 4.34775 39.9988H5.73405C5.01677 39.8534 4.15774 39.6454 3.4831 39.3924C1.98724 38.8314 1.84362 37.5677 1.88284 37.0735C1.91293 36.6929 2.20858 35.159 4.23547 35.159C5.60061 35.159 7.15438 35.2511 8.57918 35.3356C9.48661 35.3895 10.3418 35.4403 11.0627 35.4621C12.5687 35.5078 14.1106 35.369 14.7574 33.716C15.4311 31.661 15.9757 30.9704 17.4972 30.9704C18.2053 31.0131 18.7508 31.0408 19.1125 31.0591C19.3218 31.0697 19.4697 31.0772 19.5521 31.0827C20.5579 31.1498 21.6391 30.9555 21.9102 29.1289C22.2136 27.0851 23.4436 26.8972 24.3133 26.9279C25.268 26.9616 26.6041 26.9616 27.2106 26.5125C27.817 26.0633 27.8841 25.2434 27.8841 24.6372C27.8841 24.0307 28.0955 22.9652 29.5685 22.8179C31.2193 22.6529 31.5449 22.3015 31.7696 21.987C32.0947 21.5318 32.1134 20.9903 32.0391 20.1679C31.9382 19.0505 32.2039 18.3571 32.8757 17.9276C33.7629 17.3606 34.4182 17.9962 34.5544 19.1347C34.5872 19.4084 34.6287 19.7769 34.6757 20.193C34.8064 21.3482 34.9783 22.8692 35.1158 23.7388L35.116 18.5396C35.116 17.4089 34.2317 16.4848 33.1172 16.4208V16.4172C33.0944 16.4172 33.0721 16.4175 33.0497 16.418C33.0311 16.4175 33.0124 16.4172 32.9937 16.4172Z" fill="url(#paint20_linear_0_4380)"/>
<path id="Vector_25" d="M32.9937 16.4172C32.782 16.4172 32.5776 16.4483 32.3849 16.5059C31.9281 16.6172 31.4921 16.8246 30.9572 17.0794L30.955 17.0803C30.5353 17.2799 30.0552 17.5085 29.4564 17.7423C27.3004 18.5845 24.83 18.5845 23.6172 18.5845H11.2201C8.44171 18.5845 6.14085 20.8361 6.10496 23.6142C6.09497 24.3853 6.0883 25.3813 6.0883 26.1868C6.0883 28.7695 3.69997 31.5486 2.24787 32.9243C1.24092 33.8783 1.0002 34.4517 0.859135 34.7877L0.838423 34.8367C0.828864 34.8593 0.819651 34.8806 0.810523 34.9007L0.825788 34.9123C0.67077 35.3244 0.585938 35.7707 0.585938 36.237C0.585938 38.3145 2.27017 39.9988 4.34775 39.9988H5.73405C5.01677 39.8534 4.15774 39.6454 3.4831 39.3924C1.98724 38.8314 1.84362 37.5677 1.88284 37.0735C1.91293 36.6929 2.20858 35.159 4.23547 35.159C5.60061 35.159 7.15438 35.2511 8.57918 35.3356C9.48661 35.3895 10.3418 35.4403 11.0627 35.4621C12.5687 35.5078 14.1106 35.369 14.7574 33.716C15.4311 31.661 15.9757 30.9704 17.4972 30.9704C18.2053 31.0131 18.7508 31.0408 19.1125 31.0591C19.3218 31.0697 19.4697 31.0772 19.5521 31.0827C20.5579 31.1498 21.6391 30.9555 21.9102 29.1289C22.2136 27.0851 23.4436 26.8972 24.3133 26.9279C25.268 26.9616 26.6041 26.9616 27.2106 26.5125C27.817 26.0633 27.8841 25.2434 27.8841 24.6372C27.8841 24.0307 28.0955 22.9652 29.5685 22.8179C31.2193 22.6529 31.5449 22.3015 31.7696 21.987C32.0947 21.5318 32.1134 20.9903 32.0391 20.1679C31.9382 19.0505 32.2039 18.3571 32.8757 17.9276C33.7629 17.3606 34.4182 17.9962 34.5544 19.1347C34.5872 19.4084 34.6287 19.7769 34.6757 20.193C34.8064 21.3482 34.9783 22.8692 35.1158 23.7388L35.116 18.5396C35.116 17.4089 34.2317 16.4848 33.1172 16.4208V16.4172C33.0944 16.4172 33.0721 16.4175 33.0497 16.418C33.0311 16.4175 33.0124 16.4172 32.9937 16.4172Z" fill="url(#paint21_radial_0_4380)"/>
</g>
<path id="Vector_26" d="M32.9937 16.4175C32.782 16.4175 32.5776 16.4485 32.3849 16.5062C31.9281 16.6174 31.4921 16.8248 30.9572 17.0797L30.955 17.0805C30.5353 17.2802 30.0552 17.5087 29.4564 17.7426C27.3004 18.5847 24.83 18.5847 23.6172 18.5847H11.2201C8.44171 18.5847 6.14085 20.8363 6.10496 23.6144C6.09497 24.3856 6.0883 25.3815 6.0883 26.187C6.0883 28.7698 3.69997 31.5489 2.24787 32.9246C1.24092 33.8785 1.0002 34.4519 0.859135 34.788L0.838423 34.837C0.828864 34.8595 0.819651 34.8808 0.810523 34.9009L0.825788 34.9126C0.67077 35.3247 0.585938 35.771 0.585938 36.2372C0.585938 38.3148 2.27017 39.9991 4.34775 39.9991H5.73405C5.01677 39.8536 4.15774 39.6456 3.4831 39.3927C1.98724 38.8317 1.84362 37.5679 1.88284 37.0738C1.91293 36.6932 2.20858 35.1592 4.23547 35.1592C5.60061 35.1592 7.15438 35.2514 8.57918 35.3359C9.48661 35.3898 10.3418 35.4405 11.0627 35.4624C12.5687 35.5081 14.1106 35.3692 14.7574 33.7163C15.4311 31.6613 15.9757 30.9706 17.4972 30.9706C18.2053 31.0133 18.7508 31.0411 19.1125 31.0593C19.3218 31.07 19.4697 31.0774 19.5521 31.0829C20.5579 31.15 21.6391 30.9557 21.9102 29.1291C22.2136 27.0853 23.4436 26.8975 24.3133 26.9281C25.268 26.9619 26.6041 26.9619 27.2106 26.5127C27.817 26.0635 27.8841 25.2437 27.8841 24.6374C27.8841 24.031 28.0955 22.9655 29.5685 22.8181C31.2193 22.6531 31.5449 22.3017 31.7696 21.9872C32.0947 21.532 32.1134 20.9906 32.0391 20.1681C31.9382 19.0507 32.2039 18.3573 32.8757 17.9278C33.7629 17.3608 34.4182 17.9964 34.5544 19.1349C34.5872 19.4086 34.6287 19.7771 34.6757 20.1933C34.8064 21.3485 34.9783 22.8695 35.1158 23.7391L35.116 18.5399C35.116 17.4091 34.2317 16.485 33.1172 16.4211V16.4175C33.0944 16.4175 33.0721 16.4178 33.0497 16.4182C33.0311 16.4178 33.0124 16.4175 32.9937 16.4175Z" fill="url(#paint22_radial_0_4380)"/>
<path id="Vector_27" d="M32.9937 16.4175C32.782 16.4175 32.5776 16.4485 32.3849 16.5062C31.9281 16.6174 31.4921 16.8248 30.9572 17.0797L30.955 17.0805C30.5353 17.2802 30.0552 17.5087 29.4564 17.7426C27.3004 18.5847 24.83 18.5847 23.6172 18.5847H11.2201C8.44171 18.5847 6.14085 20.8363 6.10496 23.6144C6.09497 24.3856 6.0883 25.3815 6.0883 26.187C6.0883 28.7698 3.69997 31.5489 2.24787 32.9246C1.24092 33.8785 1.0002 34.4519 0.859135 34.788L0.838423 34.837C0.828864 34.8595 0.819651 34.8808 0.810523 34.9009L0.825788 34.9126C0.67077 35.3247 0.585938 35.771 0.585938 36.2372C0.585938 38.3148 2.27017 39.9991 4.34775 39.9991H5.73405C5.01677 39.8536 4.15774 39.6456 3.4831 39.3927C1.98724 38.8317 1.84362 37.5679 1.88284 37.0738C1.91293 36.6932 2.20858 35.1592 4.23547 35.1592C5.60061 35.1592 7.15438 35.2514 8.57918 35.3359C9.48661 35.3898 10.3418 35.4405 11.0627 35.4624C12.5687 35.5081 14.1106 35.3692 14.7574 33.7163C15.4311 31.6613 15.9757 30.9706 17.4972 30.9706C18.2053 31.0133 18.7508 31.0411 19.1125 31.0593C19.3218 31.07 19.4697 31.0774 19.5521 31.0829C20.5579 31.15 21.6391 30.9557 21.9102 29.1291C22.2136 27.0853 23.4436 26.8975 24.3133 26.9281C25.268 26.9619 26.6041 26.9619 27.2106 26.5127C27.817 26.0635 27.8841 25.2437 27.8841 24.6374C27.8841 24.031 28.0955 22.9655 29.5685 22.8181C31.2193 22.6531 31.5449 22.3017 31.7696 21.9872C32.0947 21.532 32.1134 20.9906 32.0391 20.1681C31.9382 19.0507 32.2039 18.3573 32.8757 17.9278C33.7629 17.3608 34.4182 17.9964 34.5544 19.1349C34.5872 19.4086 34.6287 19.7771 34.6757 20.1933C34.8064 21.3485 34.9783 22.8695 35.1158 23.7391L35.116 18.5399C35.116 17.4091 34.2317 16.485 33.1172 16.4211V16.4175C33.0944 16.4175 33.0721 16.4178 33.0497 16.4182C33.0311 16.4178 33.0124 16.4175 32.9937 16.4175Z" fill="url(#paint23_radial_0_4380)"/>
<g id="Group_7">
<path id="Vector_28" d="M1.80864 22.1667L1.30557 21.5103L0.474609 19.9607L2.45657 19.2194L2.52395 21.0217L2.81203 21.395C3.01389 21.6566 2.98061 22.0294 2.73562 22.2511C2.46134 22.4992 2.03363 22.4602 1.80864 22.1667Z" fill="#E1912D"/>
</g>
<g id="Group_8">
<path id="Vector_29" d="M10.1273 10.6367C10.541 11.4281 10.2348 12.4051 9.44342 12.8189L5.02791 15.0747C4.65884 15.2676 4.38222 15.4172 4.24747 15.9562L3.77051 17.7829C3.73681 17.912 3.72124 18.0451 3.72426 18.1785L3.78138 20.7033C3.78138 21.0894 3.46843 21.4023 3.08237 21.4023C2.6963 21.4023 2.38334 21.0894 2.38334 20.7033V19.5435L1.56696 20.1294C1.46685 20.2011 1.41052 20.3193 1.41773 20.4423L1.49842 21.8176C1.52103 22.2031 1.22694 22.5338 0.841526 22.5564C0.45613 22.5791 0.125382 22.2848 0.102772 21.8995L0.0027756 20.1728C-0.00780329 19.9924 0.00286203 19.673 0.199233 19.4147L0.97727 18.1667L1.24199 15.6758C1.41323 14.1983 2.30478 12.9014 3.6229 12.2123L7.94511 9.95283C8.73654 9.53909 9.71349 9.84527 10.1273 10.6367Z" fill="#FFC237"/>
<path id="Vector_30" d="M10.1273 10.6367C10.541 11.4281 10.2348 12.4051 9.44342 12.8189L5.02791 15.0747C4.65884 15.2676 4.38222 15.4172 4.24747 15.9562L3.77051 17.7829C3.73681 17.912 3.72124 18.0451 3.72426 18.1785L3.78138 20.7033C3.78138 21.0894 3.46843 21.4023 3.08237 21.4023C2.6963 21.4023 2.38334 21.0894 2.38334 20.7033V19.5435L1.56696 20.1294C1.46685 20.2011 1.41052 20.3193 1.41773 20.4423L1.49842 21.8176C1.52103 22.2031 1.22694 22.5338 0.841526 22.5564C0.45613 22.5791 0.125382 22.2848 0.102772 21.8995L0.0027756 20.1728C-0.00780329 19.9924 0.00286203 19.673 0.199233 19.4147L0.97727 18.1667L1.24199 15.6758C1.41323 14.1983 2.30478 12.9014 3.6229 12.2123L7.94511 9.95283C8.73654 9.53909 9.71349 9.84527 10.1273 10.6367Z" fill="url(#paint24_radial_0_4380)"/>
</g>
<path id="Vector_31" d="M13.4129 11.743L10.8945 9.44394L11.4447 9.1969H14.3755V11.3185C14.3755 11.8182 13.782 12.08 13.4129 11.743Z" fill="url(#paint25_radial_0_4380)"/>
<path id="Vector_32" d="M13.4129 11.743L10.8945 9.44394L11.4447 9.1969H14.3755V11.3185C14.3755 11.8182 13.782 12.08 13.4129 11.743Z" fill="url(#paint26_radial_0_4380)"/>
<g id="Group_9">
<path id="Vector_33" d="M9.0146 6.79257C9.6213 6.79257 10.113 6.30073 10.113 5.69404C10.113 5.08735 9.6213 4.59552 9.0146 4.59552C8.40785 4.59552 7.91602 5.08735 7.91602 5.69404C7.91602 6.30073 8.40785 6.79257 9.0146 6.79257Z" fill="url(#paint27_linear_0_4380)"/>
</g>
<g id="Group_10">
<path id="Vector_34" d="M15.5086 6.79257C16.1153 6.79257 16.6071 6.30073 16.6071 5.69404C16.6071 5.08735 16.1153 4.59552 15.5086 4.59552C14.9019 4.59552 14.4102 5.08735 14.4102 5.69404C14.4102 6.30073 14.9019 6.79257 15.5086 6.79257Z" fill="url(#paint28_radial_0_4380)"/>
</g>
<g id="Group_11">
<path id="Vector_35" d="M15.5105 6.42769C15.9156 6.42769 16.2439 6.09939 16.2439 5.6944C16.2439 5.28943 15.9156 4.96112 15.5105 4.96112C15.1056 4.96112 14.7773 5.28943 14.7773 5.6944C14.7773 6.09939 15.1056 6.42769 15.5105 6.42769Z" fill="#FFCA38"/>
<path id="Vector_36" d="M15.5105 6.42769C15.9156 6.42769 16.2439 6.09939 16.2439 5.6944C16.2439 5.28943 15.9156 4.96112 15.5105 4.96112C15.1056 4.96112 14.7773 5.28943 14.7773 5.6944C14.7773 6.09939 15.1056 6.42769 15.5105 6.42769Z" fill="url(#paint29_radial_0_4380)"/>
</g>
<g id="Group_12">
<path id="Vector_37" d="M9.02814 6.42769C9.43319 6.42769 9.76148 6.09939 9.76148 5.6944C9.76148 5.28943 9.43319 4.96112 9.02814 4.96112C8.62323 4.96112 8.29492 5.28943 8.29492 5.6944C8.29492 6.09939 8.62323 6.42769 9.02814 6.42769Z" fill="#E28527"/>
<path id="Vector_38" d="M9.02814 6.42769C9.43319 6.42769 9.76148 6.09939 9.76148 5.6944C9.76148 5.28943 9.43319 4.96112 9.02814 4.96112C8.62323 4.96112 8.29492 5.28943 8.29492 5.6944C8.29492 6.09939 8.62323 6.42769 9.02814 6.42769Z" fill="url(#paint30_radial_0_4380)"/>
</g>
<path id="Vector_39" d="M8.86158 3.89059C8.94562 3.78294 9.0632 3.66951 9.22087 3.57738L9.27578 3.54546C9.68658 3.30673 10.1458 3.03987 10.3732 2.34528C10.3766 2.3449 10.3801 2.34461 10.3837 2.34442C10.5831 2.76378 11.2823 3.57738 12.5447 3.57738H15.041C15.2628 3.61998 15.6624 3.79435 15.6917 4.4738L15.6106 6.57175C15.5264 8.48501 14.0323 9.76974 12.2085 9.76974C10.3847 9.76974 8.8907 8.48501 8.80649 6.57175L8.73998 4.83203H8.7484L8.74139 4.65092L8.73438 4.44196C8.73929 4.21132 8.79052 4.03095 8.86158 3.89059Z" fill="url(#paint31_radial_0_4380)"/>
<path id="Vector_40" d="M8.86158 3.89059C8.94562 3.78294 9.0632 3.66951 9.22087 3.57738L9.27578 3.54546C9.68658 3.30673 10.1458 3.03987 10.3732 2.34528C10.3766 2.3449 10.3801 2.34461 10.3837 2.34442C10.5831 2.76378 11.2823 3.57738 12.5447 3.57738H15.041C15.2628 3.61998 15.6624 3.79435 15.6917 4.4738L15.6106 6.57175C15.5264 8.48501 14.0323 9.76974 12.2085 9.76974C10.3847 9.76974 8.8907 8.48501 8.80649 6.57175L8.73998 4.83203H8.7484L8.74139 4.65092L8.73438 4.44196C8.73929 4.21132 8.79052 4.03095 8.86158 3.89059Z" fill="url(#paint32_radial_0_4380)"/>
<path id="Vector_41" d="M8.86158 3.89059C8.94562 3.78294 9.0632 3.66951 9.22087 3.57738L9.27578 3.54546C9.68658 3.30673 10.1458 3.03987 10.3732 2.34528C10.3766 2.3449 10.3801 2.34461 10.3837 2.34442C10.5831 2.76378 11.2823 3.57738 12.5447 3.57738H15.041C15.2628 3.61998 15.6624 3.79435 15.6917 4.4738L15.6106 6.57175C15.5264 8.48501 14.0323 9.76974 12.2085 9.76974C10.3847 9.76974 8.8907 8.48501 8.80649 6.57175L8.73998 4.83203H8.7484L8.74139 4.65092L8.73438 4.44196C8.73929 4.21132 8.79052 4.03095 8.86158 3.89059Z" fill="url(#paint33_radial_0_4380)"/>
<path id="Vector_42" d="M8.86158 3.89059C8.94562 3.78294 9.0632 3.66951 9.22087 3.57738L9.27578 3.54546C9.68658 3.30673 10.1458 3.03987 10.3732 2.34528C10.3766 2.3449 10.3801 2.34461 10.3837 2.34442C10.5831 2.76378 11.2823 3.57738 12.5447 3.57738H15.041C15.2628 3.61998 15.6624 3.79435 15.6917 4.4738L15.6106 6.57175C15.5264 8.48501 14.0323 9.76974 12.2085 9.76974C10.3847 9.76974 8.8907 8.48501 8.80649 6.57175L8.73998 4.83203H8.7484L8.74139 4.65092L8.73438 4.44196C8.73929 4.21132 8.79052 4.03095 8.86158 3.89059Z" fill="url(#paint34_radial_0_4380)"/>
<path id="Vector_43" d="M8.86158 3.89059C8.94562 3.78294 9.0632 3.66951 9.22087 3.57738L9.27578 3.54546C9.68658 3.30673 10.1458 3.03987 10.3732 2.34528C10.3766 2.3449 10.3801 2.34461 10.3837 2.34442C10.5831 2.76378 11.2823 3.57738 12.5447 3.57738H15.041C15.2628 3.61998 15.6624 3.79435 15.6917 4.4738L15.6106 6.57175C15.5264 8.48501 14.0323 9.76974 12.2085 9.76974C10.3847 9.76974 8.8907 8.48501 8.80649 6.57175L8.73998 4.83203H8.7484L8.74139 4.65092L8.73438 4.44196C8.73929 4.21132 8.79052 4.03095 8.86158 3.89059Z" fill="url(#paint35_radial_0_4380)"/>
<g id="Group_13">
<path id="Vector_44" d="M11.9465 5.54195L11.4798 6.70253C11.4058 6.94126 11.5835 7.17999 11.8353 7.17999H12.3721C12.6238 7.17999 12.8016 6.93758 12.7275 6.70253L12.3647 5.54195C12.2869 5.28485 12.0279 5.28485 11.9465 5.54195Z" fill="#EB8B29"/>
</g>
<g id="Group_14">
<path id="Vector_45" d="M11.9541 5.44612L11.5912 6.60671C11.5171 6.84544 11.6949 7.08417 11.9466 7.08417H12.4835C12.7353 7.08417 12.9129 6.84176 12.8389 6.60671L12.4761 5.44612C12.3984 5.18902 12.0354 5.18902 11.9541 5.44612Z" fill="url(#paint36_linear_0_4380)"/>
<path id="Vector_46" d="M11.9541 5.44612L11.5912 6.60671C11.5171 6.84544 11.6949 7.08417 11.9466 7.08417H12.4835C12.7353 7.08417 12.9129 6.84176 12.8389 6.60671L12.4761 5.44612C12.3984 5.18902 12.0354 5.18902 11.9541 5.44612Z" fill="url(#paint37_radial_0_4380)"/>
<path id="Vector_47" d="M11.9541 5.44612L11.5912 6.60671C11.5171 6.84544 11.6949 7.08417 11.9466 7.08417H12.4835C12.7353 7.08417 12.9129 6.84176 12.8389 6.60671L12.4761 5.44612C12.3984 5.18902 12.0354 5.18902 11.9541 5.44612Z" fill="url(#paint38_linear_0_4380)"/>
<path id="Vector_48" d="M11.9541 5.44612L11.5912 6.60671C11.5171 6.84544 11.6949 7.08417 11.9466 7.08417H12.4835C12.7353 7.08417 12.9129 6.84176 12.8389 6.60671L12.4761 5.44612C12.3984 5.18902 12.0354 5.18902 11.9541 5.44612Z" fill="url(#paint39_linear_0_4380)"/>
</g>
<path id="Vector_49" d="M12.2131 7.68181C11.8575 7.68181 11.5233 7.59625 11.2426 7.44649C11.1466 7.39657 11.0436 7.5071 11.1039 7.59625C11.3385 7.95994 11.7474 8.20239 12.2131 8.20239C12.6788 8.20239 13.0876 7.95994 13.3222 7.59625C13.3827 7.50354 13.2796 7.39657 13.1836 7.44649C12.9028 7.59625 12.5722 7.68181 12.2131 7.68181Z" fill="#8A004F"/>
<g id="Group_15">
<path id="Vector_50" d="M12.9941 5.30386C13.1754 4.98518 13.4508 4.73346 14.0437 4.73346C14.3033 4.73346 14.5537 4.80538 14.7762 4.98518C14.9596 5.13349 14.935 5.32325 14.793 5.3943L14.4134 5.61102C13.9684 5.46718 13.4762 5.44771 12.9941 5.30386Z" fill="#635D5F"/>
</g>
<g id="Group_16">
<path id="Vector_51" d="M11.4341 5.30386C11.2528 4.98518 10.9774 4.73346 10.3845 4.73346C10.1249 4.73346 9.87455 4.80538 9.65205 4.98518C9.4685 5.13349 9.49308 5.32325 9.63523 5.3943L10.0148 5.61102C10.4598 5.46718 10.952 5.44771 11.4341 5.30386Z" fill="#635D5F"/>
</g>
<g id="Group_17">
<path id="Vector_52" d="M9.89546 4.48062L9.89259 4.48236C9.89244 4.4824 9.89259 4.4823 9.89259 4.48236C9.80592 4.53409 9.69323 4.50615 9.64134 4.41955C9.58931 4.33285 9.61748 4.22032 9.7043 4.1683L9.70731 4.16646L9.71378 4.16274L9.73592 4.15043C9.75475 4.14027 9.78134 4.12637 9.81512 4.1103C9.88238 4.07825 9.97826 4.03719 10.0951 3.9999C10.3271 3.92583 10.6517 3.86354 11.0019 3.92536C11.1015 3.94292 11.1679 4.03789 11.1504 4.13747C11.1329 4.23705 11.0379 4.30353 10.9383 4.28596C10.666 4.23791 10.4047 4.28547 10.2065 4.34873C10.1082 4.38009 10.0278 4.41456 9.97265 4.44085C9.9452 4.45397 9.92407 4.46497 9.91041 4.47239L9.89546 4.48062Z" fill="#BD4F26"/>
</g>
<g id="Group_18">
<path id="Vector_53" fill-rule="evenodd" clip-rule="evenodd" d="M14.7615 4.1683C14.7615 4.16833 14.7616 4.16836 14.6673 4.32536L14.7615 4.1683C14.8481 4.22032 14.8763 4.33285 14.8243 4.41955C14.7724 4.50615 14.6601 4.53431 14.5735 4.48256C14.5735 4.48253 14.5736 4.48265 14.5735 4.48256L14.5702 4.48062C14.5671 4.4789 14.5621 4.47609 14.5553 4.47239C14.5415 4.46497 14.5206 4.45397 14.493 4.44085C14.4379 4.41456 14.3576 4.38009 14.2593 4.34873C14.061 4.28547 13.7996 4.23791 13.5274 4.28596C13.4279 4.30353 13.3329 4.23705 13.3153 4.13747C13.2977 4.03789 13.3642 3.94292 13.4638 3.92536C13.8141 3.86354 14.1385 3.92583 14.3705 3.9999C14.4874 4.03719 14.5832 4.07825 14.6505 4.1103C14.6843 4.12637 14.711 4.14027 14.7297 4.15043C14.7392 4.15552 14.7465 4.15969 14.7518 4.16274L14.7583 4.16646L14.7615 4.1683Z" fill="#BD4F26"/>
</g>
<path id="Vector_54" d="M13.8473 4.77539C14.2932 4.77539 14.6698 5.0828 14.7722 5.49822C14.8027 5.6173 14.7113 5.73084 14.5896 5.73084H13.0663C12.9694 5.73084 12.8919 5.64223 12.9112 5.54529C12.9971 5.10773 13.382 4.77539 13.8473 4.77539Z" fill="white"/>
<path id="Vector_55" d="M13.7063 4.96033C14.0447 4.96033 14.3164 5.23479 14.3164 5.57025C14.3164 5.6257 14.308 5.68116 14.2942 5.73106H13.1159C13.1019 5.67838 13.0938 5.6257 13.0938 5.57025C13.0938 5.23479 13.3681 4.96033 13.7063 4.96033Z" fill="url(#paint40_radial_0_4380)"/>
<path id="Vector_56" d="M13.3555 5.57112C13.3555 5.37705 13.5107 5.2218 13.7047 5.2218C13.8988 5.2218 14.054 5.37705 14.054 5.57112C14.054 5.62935 14.0402 5.6848 14.0152 5.73193H13.397C13.3693 5.6848 13.3555 5.62935 13.3555 5.57112Z" fill="black"/>
<g id="Group_19">
<path id="Vector_57" d="M13.6607 5.08786C13.7039 5.14586 13.6134 5.21657 13.5102 5.29364C13.4071 5.3707 13.3307 5.42495 13.2874 5.36693C13.244 5.30892 13.2924 5.19942 13.3955 5.12237C13.4985 5.0453 13.6173 5.02985 13.6607 5.08786Z" fill="#C7A7A3"/>
<path id="Vector_58" d="M13.6607 5.08786C13.7039 5.14586 13.6134 5.21657 13.5102 5.29364C13.4071 5.3707 13.3307 5.42495 13.2874 5.36693C13.244 5.30892 13.2924 5.19942 13.3955 5.12237C13.4985 5.0453 13.6173 5.02985 13.6607 5.08786Z" fill="url(#paint41_radial_0_4380)"/>
</g>
<g id="Group_20">
<path id="Vector_59" d="M14.2461 5.48947C14.2237 5.3326 14.1319 5.21436 14.0888 5.17487L13.9121 5.36879L13.9917 5.52394L14.2461 5.48947Z" fill="url(#paint42_linear_0_4380)"/>
</g>
<path id="Vector_60" d="M10.5814 4.77539C10.1355 4.77539 9.75878 5.08281 9.6563 5.49822C9.62582 5.6173 9.71724 5.73085 9.83913 5.73085H11.3623C11.4593 5.73085 11.5368 5.64223 11.5174 5.54529C11.4316 5.10773 11.0439 4.77539 10.5814 4.77539Z" fill="white"/>
<path id="Vector_61" d="M10.7233 4.96033C10.3849 4.96033 10.1133 5.23479 10.1133 5.57027C10.1133 5.6257 10.1216 5.68116 10.1354 5.73106H11.3138C11.3277 5.67838 11.3359 5.6257 11.3359 5.57027C11.3332 5.23479 11.0615 4.96033 10.7233 4.96033Z" fill="url(#paint43_radial_0_4380)"/>
<path id="Vector_62" d="M11.0716 5.57114C11.0716 5.37705 10.9164 5.2218 10.7223 5.2218C10.5283 5.2218 10.373 5.37705 10.373 5.57114C10.373 5.62935 10.3868 5.6848 10.4119 5.73193H11.0301C11.0551 5.6848 11.0716 5.62935 11.0716 5.57114Z" fill="black"/>
<g id="Group_21">
<path id="Vector_63" d="M11.2776 5.4945C11.2776 5.2984 11.1181 5.16767 11.0751 5.12817L10.8789 5.3178L10.9996 5.56345L11.2776 5.4945Z" fill="url(#paint44_linear_0_4380)"/>
</g>
<g id="Group_22">
<path id="Vector_64" d="M10.6029 5.33935C10.7326 5.27065 10.8096 5.16174 10.7748 5.0961C10.74 5.03047 10.6067 5.03296 10.477 5.10167C10.3473 5.17038 10.2704 5.27928 10.3051 5.34492C10.3399 5.41055 10.4732 5.40806 10.6029 5.33935Z" fill="#C7A7A3" fill-opacity="0.9"/>
<path id="Vector_65" d="M10.6029 5.33935C10.7326 5.27065 10.8096 5.16174 10.7748 5.0961C10.74 5.03047 10.6067 5.03296 10.477 5.10167C10.3473 5.17038 10.2704 5.27928 10.3051 5.34492C10.3399 5.41055 10.4732 5.40806 10.6029 5.33935Z" fill="url(#paint45_radial_0_4380)"/>
</g>
<g id="Group_23">
<path id="Vector_66" d="M9.22057 3.57739C8.87927 3.77674 8.72656 4.07575 8.69286 4.20034C8.182 3.02239 8.52454 2.21822 9.05226 1.83311C9.57991 1.44803 9.74837 1.60658 10.4783 0.893025C11.2083 0.179453 12.1403 -0.0810523 14.1054 1.00629C15.6774 1.87616 16.1154 3.0828 16.1378 3.57739H12.5444C11.5436 3.57739 10.8967 3.066 10.5721 2.64511C10.4921 2.54123 10.296 2.55683 10.2339 2.67235C9.97303 3.15722 9.57373 3.37119 9.22057 3.57739Z" fill="#F7A427"/>
<path id="Vector_67" d="M9.22057 3.57739C8.87927 3.77674 8.72656 4.07575 8.69286 4.20034C8.182 3.02239 8.52454 2.21822 9.05226 1.83311C9.57991 1.44803 9.74837 1.60658 10.4783 0.893025C11.2083 0.179453 12.1403 -0.0810523 14.1054 1.00629C15.6774 1.87616 16.1154 3.0828 16.1378 3.57739H12.5444C11.5436 3.57739 10.8967 3.066 10.5721 2.64511C10.4921 2.54123 10.296 2.55683 10.2339 2.67235C9.97303 3.15722 9.57373 3.37119 9.22057 3.57739Z" fill="url(#paint46_radial_0_4380)"/>
<path id="Vector_68" d="M9.22057 3.57739C8.87927 3.77674 8.72656 4.07575 8.69286 4.20034C8.182 3.02239 8.52454 2.21822 9.05226 1.83311C9.57991 1.44803 9.74837 1.60658 10.4783 0.893025C11.2083 0.179453 12.1403 -0.0810523 14.1054 1.00629C15.6774 1.87616 16.1154 3.0828 16.1378 3.57739H12.5444C11.5436 3.57739 10.8967 3.066 10.5721 2.64511C10.4921 2.54123 10.296 2.55683 10.2339 2.67235C9.97303 3.15722 9.57373 3.37119 9.22057 3.57739Z" fill="url(#paint47_radial_0_4380)"/>
<path id="Vector_69" d="M9.22057 3.57739C8.87927 3.77674 8.72656 4.07575 8.69286 4.20034C8.182 3.02239 8.52454 2.21822 9.05226 1.83311C9.57991 1.44803 9.74837 1.60658 10.4783 0.893025C11.2083 0.179453 12.1403 -0.0810523 14.1054 1.00629C15.6774 1.87616 16.1154 3.0828 16.1378 3.57739H12.5444C11.5436 3.57739 10.8967 3.066 10.5721 2.64511C10.4921 2.54123 10.296 2.55683 10.2339 2.67235C9.97303 3.15722 9.57373 3.37119 9.22057 3.57739Z" fill="url(#paint48_radial_0_4380)"/>
</g>
<g id="Group_24">
<path id="Vector_70" fill-rule="evenodd" clip-rule="evenodd" d="M15.9038 4.13804C15.9226 4.08099 16.0004 4.05637 16.0485 4.09231C16.192 4.19957 16.3701 4.26309 16.5631 4.26309C17.0383 4.26309 17.4235 3.87786 17.4235 3.40266C17.4235 3.11737 17.2848 2.86452 17.0709 2.70797C17.0233 2.67308 17.0233 2.59383 17.0709 2.55893C17.2848 2.40239 17.4235 2.14953 17.4235 1.86425C17.4235 1.38903 17.0383 1.00381 16.5631 1.00381C16.3736 1.00381 16.1986 1.06505 16.0564 1.16882C16.0073 1.20471 15.9279 1.17802 15.9104 1.11973C15.8036 0.765784 15.475 0.507996 15.0865 0.507996C14.6113 0.507996 14.226 0.893234 14.226 1.36844C14.226 1.46628 14.2423 1.56029 14.2724 1.64793C14.2922 1.70549 14.2435 1.77344 14.1826 1.77304C14.1807 1.77302 14.1788 1.77302 14.1768 1.77302C13.7018 1.77302 13.3164 2.15825 13.3164 2.63345C13.3164 3.10865 13.7018 3.49389 14.1768 3.49389C14.2356 3.49389 14.282 3.55707 14.2646 3.61316C14.2395 3.69388 14.226 3.77971 14.226 3.86868C14.226 4.34388 14.6113 4.7291 15.0865 4.7291C15.4675 4.7291 15.7908 4.4813 15.9038 4.13804Z" fill="url(#paint49_linear_0_4380)"/>
</g>
<g id="Group_25">
<path id="Vector_71" fill-rule="evenodd" clip-rule="evenodd" d="M15.7174 3.45354C15.7152 3.46087 15.7131 3.46819 15.7106 3.4755C15.6074 3.79397 15.3056 3.98142 15.0362 3.89417C14.767 3.80691 14.6325 3.47799 14.7357 3.15951C14.739 3.14922 14.7427 3.13908 14.7463 3.12906C14.728 3.13057 14.7095 3.13133 14.6907 3.13133C14.3664 3.13141 14.1035 2.90204 14.1035 2.61901C14.1032 2.33599 14.3661 2.10648 14.6905 2.1064L14.7 2.10647C14.6969 2.09605 14.6938 2.08547 14.6912 2.07476C14.6887 2.06407 14.6864 2.05324 14.6842 2.04228C14.6227 1.72385 14.8114 1.41957 15.1056 1.36268C15.3851 1.30871 15.6589 1.49676 15.7389 1.78808L15.7437 1.78455C16.0048 1.59252 16.3527 1.62177 16.5203 1.84986C16.6877 2.07795 16.6118 2.41852 16.3504 2.61053C16.3431 2.61589 16.3356 2.6211 16.3282 2.62611C16.3563 2.6476 16.3833 2.67159 16.4087 2.69807C16.6412 2.93917 16.6642 3.29381 16.4603 3.49018C16.2696 3.67378 15.9482 3.65399 15.7174 3.45354Z" fill="url(#paint50_linear_0_4380)"/>
</g>
</g>
<defs>
<radialGradient id="paint0_radial_0_4380" cx="0" cy="0" r="1" gradientUnits="userSpaceOnUse" gradientTransform="translate(13.9163 0.718674) rotate(78.8571) scale(9.06449 9.01106)">
<stop offset="0.314549" stop-color="#F0C537"/>
<stop offset="1" stop-color="#FF971F"/>
</radialGradient>
<radialGradient id="paint1_radial_0_4380" cx="0" cy="0" r="1" gradientUnits="userSpaceOnUse" gradientTransform="translate(8.43645 15.9456) rotate(-118.32) scale(9.18433 16.6751)">
<stop offset="0.0692673" stop-color="#E1691F"/>
<stop offset="1" stop-color="#E1691F" stop-opacity="0"/>
</radialGradient>
<radialGradient id="paint2_radial_0_4380" cx="0" cy="0" r="1" gradientUnits="userSpaceOnUse" gradientTransform="translate(13.5121 7.72575) rotate(19.29) scale(4.283 5.89036)">
<stop offset="0.297297" stop-color="#E06B0E"/>
<stop offset="1" stop-color="#FF8610" stop-opacity="0"/>
</radialGradient>
<radialGradient id="paint3_radial_0_4380" cx="0" cy="0" r="1" gradientUnits="userSpaceOnUse" gradientTransform="translate(10.3679 8.39188) rotate(148.061) scale(6.72212 5.80669)">
<stop offset="0.170201" stop-color="#AF4103"/>
<stop offset="1" stop-color="#E7740E" stop-opacity="0"/>
</radialGradient>
<radialGradient id="paint4_radial_0_4380" cx="0" cy="0" r="1" gradientUnits="userSpaceOnUse" gradientTransform="translate(9.20713 6.12066) rotate(128.928) scale(1.65581 1.62573)">
<stop offset="0.262233" stop-color="#C0500A"/>
<stop offset="1" stop-color="#C0500A" stop-opacity="0"/>
</radialGradient>
<radialGradient id="paint5_radial_0_4380" cx="0" cy="0" r="1" gradientUnits="userSpaceOnUse" gradientTransform="translate(10.5449 0.423199) rotate(59.1458) scale(2.22187 4.79751)">
<stop stop-color="#CEA741"/>
<stop offset="1" stop-color="#CEA741" stop-opacity="0"/>
</radialGradient>
<linearGradient id="paint6_linear_0_4380" x1="25.6512" y1="26.834" x2="12.0842" y2="41.6436" gradientUnits="userSpaceOnUse">
<stop stop-color="#911C39"/>
<stop offset="1" stop-color="#9A3037"/>
</linearGradient>
<linearGradient id="paint7_linear_0_4380" x1="8.89702" y1="32.35" x2="22.6414" y2="38.0409" gradientUnits="userSpaceOnUse">
<stop stop-color="#851E29"/>
<stop offset="1" stop-color="#851E29" stop-opacity="0"/>
</linearGradient>
<radialGradient id="paint8_radial_0_4380" cx="0" cy="0" r="1" gradientUnits="userSpaceOnUse" gradientTransform="translate(6.96455 37.0385) rotate(113.219) scale(6.30219 2.99377)">
<stop stop-color="#6C1118"/>
<stop offset="1" stop-color="#6C1118" stop-opacity="0"/>
</radialGradient>
<linearGradient id="paint9_linear_0_4380" x1="10.5538" y1="36.4947" x2="7.18864" y2="35.7156" gradientUnits="userSpaceOnUse">
<stop stop-color="#E69934"/>
<stop offset="1" stop-color="#DB7C1A"/>
</linearGradient>
<radialGradient id="paint10_radial_0_4380" cx="0" cy="0" r="1" gradientUnits="userSpaceOnUse" gradientTransform="translate(9.28393 37.1073) rotate(117.071) scale(3.00109 2.84993)">
<stop stop-color="#EE3148"/>
<stop offset="1" stop-color="#CC2E32"/>
</radialGradient>
<radialGradient id="paint11_radial_0_4380" cx="0" cy="0" r="1" gradientUnits="userSpaceOnUse" gradientTransform="translate(27.2942 2.33449) rotate(137.179) scale(2.37897 2.4661)">
<stop stop-color="#FDC938"/>
<stop offset="1" stop-color="#FDC938" stop-opacity="0"/>
</radialGradient>
<radialGradient id="paint12_radial_0_4380" cx="0" cy="0" r="1" gradientUnits="userSpaceOnUse" gradientTransform="translate(24.2916 1.88532) rotate(132.51) scale(1.4624 1.01802)">
<stop stop-color="#FFCA3F"/>
<stop offset="1" stop-color="#FFCA3F" stop-opacity="0"/>
</radialGradient>
<radialGradient id="paint13_radial_0_4380" cx="0" cy="0" r="1" gradientUnits="userSpaceOnUse" gradientTransform="translate(24.5611 7.90422) rotate(90) scale(4.49172 1.69499)">
<stop offset="0.264151" stop-color="#FFD03E"/>
<stop offset="1" stop-color="#FFD03E" stop-opacity="0"/>
</radialGradient>
<radialGradient id="paint14_radial_0_4380" cx="0" cy="0" r="1" gradientUnits="userSpaceOnUse" gradientTransform="translate(16.3862 11.0035) scale(4.7163 1.07801)">
<stop stop-color="#FFB92F"/>
<stop offset="1" stop-color="#FFB92F" stop-opacity="0"/>
</radialGradient>
<radialGradient id="paint15_radial_0_4380" cx="0" cy="0" r="1" gradientUnits="userSpaceOnUse" gradientTransform="translate(16.5218 18.3267) rotate(-132.211) scale(11.0978 9.89376)">
<stop stop-color="#FF3B57"/>
<stop offset="1" stop-color="#E9283F"/>
</radialGradient>
<radialGradient id="paint16_radial_0_4380" cx="0" cy="0" r="1" gradientUnits="userSpaceOnUse" gradientTransform="translate(8.70626 14.7165) rotate(-8.32052) scale(4.53949 7.95799)">
<stop offset="0.481331" stop-color="#D62645"/>
<stop offset="1" stop-color="#D62645" stop-opacity="0"/>
</radialGradient>
<radialGradient id="paint17_radial_0_4380" cx="0" cy="0" r="1" gradientUnits="userSpaceOnUse" gradientTransform="translate(17.7795 11.1849) rotate(180) scale(7.81559 6.15365)">
<stop offset="0.143678" stop-color="#FF4660"/>
<stop offset="1" stop-color="#FF4660" stop-opacity="0"/>
</radialGradient>
<radialGradient id="paint18_radial_0_4380" cx="0" cy="0" r="1" gradientUnits="userSpaceOnUse" gradientTransform="translate(17.4902 15.2723) rotate(173.344) scale(3.10035 2.82924)">
<stop stop-color="#F22B4E"/>
<stop offset="1" stop-color="#F22B4E" stop-opacity="0"/>
</radialGradient>
<radialGradient id="paint19_radial_0_4380" cx="0" cy="0" r="1" gradientUnits="userSpaceOnUse" gradientTransform="translate(10.187 21.3357) rotate(45.4961) scale(14.6742 22.8204)">
<stop stop-color="#D42F4E"/>
<stop offset="1" stop-color="#DA2E3D"/>
</radialGradient>
<linearGradient id="paint20_linear_0_4380" x1="35.116" y1="21.9645" x2="17.851" y2="21.9645" gradientUnits="userSpaceOnUse">
<stop offset="0.218536" stop-color="#DB2F4A"/>
<stop offset="1" stop-color="#DB2F4A" stop-opacity="0"/>
</linearGradient>
<radialGradient id="paint21_radial_0_4380" cx="0" cy="0" r="1" gradientUnits="userSpaceOnUse" gradientTransform="translate(33.4541 20.9314) rotate(-78.8453) scale(6.50104 5.5936)">
<stop offset="0.370346" stop-color="#E73E59"/>
<stop offset="1" stop-color="#E73E59" stop-opacity="0"/>
</radialGradient>
<radialGradient id="paint22_radial_0_4380" cx="0" cy="0" r="1" gradientUnits="userSpaceOnUse" gradientTransform="translate(1.44261 39.0475) rotate(-31.0322) scale(7.92563 18.6137)">
<stop stop-color="#D32659"/>
<stop offset="1" stop-color="#D32659" stop-opacity="0"/>
</radialGradient>
<radialGradient id="paint23_radial_0_4380" cx="0" cy="0" r="1" gradientUnits="userSpaceOnUse" gradientTransform="translate(35.116 22.1521) rotate(-80.0959) scale(6.78195 3.55297)">
<stop stop-color="#B01B4B"/>
<stop offset="1" stop-color="#B01B4B" stop-opacity="0"/>
</radialGradient>
<radialGradient id="paint24_radial_0_4380" cx="0" cy="0" r="1" gradientUnits="userSpaceOnUse" gradientTransform="translate(10.3117 10.3303) rotate(146.197) scale(3.06802 4.25497)">
<stop offset="0.253465" stop-color="#FFCE35"/>
<stop offset="1" stop-color="#FFCE35" stop-opacity="0"/>
</radialGradient>
<radialGradient id="paint25_radial_0_4380" cx="0" cy="0" r="1" gradientUnits="userSpaceOnUse" gradientTransform="translate(12.7923 11.6561) rotate(-56.9761) scale(2.6786 3.4565)">
<stop offset="0.303675" stop-color="#FFD23B"/>
<stop offset="1" stop-color="#EBA410"/>
</radialGradient>
<radialGradient id="paint26_radial_0_4380" cx="0" cy="0" r="1" gradientUnits="userSpaceOnUse" gradientTransform="translate(11.4447 9.19688) rotate(47.2906) scale(2.58266 7.18754)">
<stop stop-color="#C97000"/>
<stop offset="1" stop-color="#FCAD16" stop-opacity="0"/>
</radialGradient>
<linearGradient id="paint27_linear_0_4380" x1="7.91602" y1="5.75356" x2="9.93637" y2="5.75356" gradientUnits="userSpaceOnUse">
<stop stop-color="#E79B27"/>
<stop offset="1" stop-color="#B96201"/>
</linearGradient>
<radialGradient id="paint28_radial_0_4380" cx="0" cy="0" r="1" gradientUnits="userSpaceOnUse" gradientTransform="translate(14.9709 5.99386) rotate(-24.444) scale(1.86659 2.279)">
<stop offset="0.572298" stop-color="#FFC531"/>
<stop offset="0.904617" stop-color="#FFE549"/>
</radialGradient>
<radialGradient id="paint29_radial_0_4380" cx="0" cy="0" r="1" gradientUnits="userSpaceOnUse" gradientTransform="translate(15.3504 5.85691) rotate(-20.2976) scale(0.890636)">
<stop offset="0.71002" stop-color="#FFBA25" stop-opacity="0"/>
<stop offset="1" stop-color="#FFBA25"/>
</radialGradient>
<radialGradient id="paint30_radial_0_4380" cx="0" cy="0" r="1" gradientUnits="userSpaceOnUse" gradientTransform="translate(9.02814 5.6944) rotate(180) scale(0.733293 0.701441)">
<stop offset="0.415002" stop-color="#D67923" stop-opacity="0"/>
<stop offset="1" stop-color="#D67923"/>
</radialGradient>
<radialGradient id="paint31_radial_0_4380" cx="0" cy="0" r="1" gradientUnits="userSpaceOnUse" gradientTransform="translate(14.6785 4.71688) rotate(141.306) scale(7.61591 7.09259)">
<stop stop-color="#FFE644"/>
<stop offset="1" stop-color="#EE8620"/>
</radialGradient>
<radialGradient id="paint32_radial_0_4380" cx="0" cy="0" r="1" gradientUnits="userSpaceOnUse" gradientTransform="translate(10.7249 9.95754) rotate(-78.3106) scale(2.82009 3.57817)">
<stop stop-color="#E4883F"/>
<stop offset="1" stop-color="#E4883F" stop-opacity="0"/>
</radialGradient>
<radialGradient id="paint33_radial_0_4380" cx="0" cy="0" r="1" gradientUnits="userSpaceOnUse" gradientTransform="translate(13.7842 5.04142) rotate(-90) scale(0.785628 0.964178)">
<stop stop-color="#FFBB31"/>
<stop offset="1" stop-color="#FFBB31" stop-opacity="0"/>
</radialGradient>
<radialGradient id="paint34_radial_0_4380" cx="0" cy="0" r="1" gradientUnits="userSpaceOnUse" gradientTransform="translate(10.9034 5.10093) rotate(-90) scale(0.928469 1.06409)">
<stop stop-color="#F09429"/>
<stop offset="1" stop-color="#F09429" stop-opacity="0"/>
</radialGradient>
<radialGradient id="paint35_radial_0_4380" cx="0" cy="0" r="1" gradientUnits="userSpaceOnUse" gradientTransform="translate(15.3739 4.04044) rotate(137.064) scale(3.89111 4.49558)">
<stop stop-color="#EF9025"/>
<stop offset="1" stop-color="#EF9025" stop-opacity="0"/>
</radialGradient>
<linearGradient id="paint36_linear_0_4380" x1="12.2151" y1="7.08417" x2="12.2151" y2="5.2533" gradientUnits="userSpaceOnUse">
<stop stop-color="#FFC134"/>
<stop offset="1" stop-color="#F8C73F"/>
</linearGradient>
<radialGradient id="paint37_radial_0_4380" cx="0" cy="0" r="1" gradientUnits="userSpaceOnUse" gradientTransform="translate(12.7505 6.5518) rotate(-105.892) scale(1.73889 0.995017)">
<stop offset="0.0168227" stop-color="#FFE848"/>
<stop offset="1" stop-color="#FFE848" stop-opacity="0"/>
</radialGradient>
<linearGradient id="paint38_linear_0_4380" x1="11.5007" y1="6.5637" x2="12.084" y2="6.63512" gradientUnits="userSpaceOnUse">
<stop stop-color="#F8A322"/>
<stop offset="1" stop-color="#F8A322" stop-opacity="0"/>
</linearGradient>
<linearGradient id="paint39_linear_0_4380" x1="12.2151" y1="7.14698" x2="12.2151" y2="6.73036" gradientUnits="userSpaceOnUse">
<stop stop-color="#E48538"/>
<stop offset="1" stop-color="#E48538" stop-opacity="0"/>
</linearGradient>
<radialGradient id="paint40_radial_0_4380" cx="0" cy="0" r="1" gradientUnits="userSpaceOnUse" gradientTransform="translate(13.7051 5.28633) rotate(90) scale(0.554489 0.881977)">
<stop offset="0.80198" stop-color="#925C51"/>
<stop offset="1" stop-color="#85534D"/>
</radialGradient>
<radialGradient id="paint41_radial_0_4380" cx="0" cy="0" r="1" gradientUnits="userSpaceOnUse" gradientTransform="translate(13.5483 5.34192) rotate(-127.812) scale(0.258026 0.355239)">
<stop offset="0.765532" stop-color="#FFE6E2" stop-opacity="0"/>
<stop offset="0.966159" stop-color="#FFE6E2"/>
</radialGradient>
<linearGradient id="paint42_linear_0_4380" x1="14.2332" y1="5.32355" x2="14.0198" y2="5.45499" gradientUnits="userSpaceOnUse">
<stop stop-color="#B4948D"/>
<stop offset="1" stop-color="#B4948D" stop-opacity="0"/>
</linearGradient>
<radialGradient id="paint43_radial_0_4380" cx="0" cy="0" r="1" gradientUnits="userSpaceOnUse" gradientTransform="translate(10.7246 5.28635) rotate(90) scale(0.554494 0.881984)">
<stop offset="0.80198" stop-color="#925C51"/>
<stop offset="1" stop-color="#85534D"/>
</radialGradient>
<linearGradient id="paint44_linear_0_4380" x1="11.2303" y1="5.31996" x2="11.017" y2="5.45141" gradientUnits="userSpaceOnUse">
<stop stop-color="#B4948D"/>
<stop offset="1" stop-color="#B4948D" stop-opacity="0"/>
</linearGradient>
<radialGradient id="paint45_radial_0_4380" cx="0" cy="0" r="1" gradientUnits="userSpaceOnUse" gradientTransform="translate(10.6314 5.41516) rotate(-118.811) scale(0.337033 0.40513)">
<stop offset="0.765532" stop-color="#FFE6E2" stop-opacity="0"/>
<stop offset="0.966159" stop-color="#FFE6E2"/>
</radialGradient>
<radialGradient id="paint46_radial_0_4380" cx="0" cy="0" r="1" gradientUnits="userSpaceOnUse" gradientTransform="translate(13.4909 1.66237) rotate(123.239) scale(2.19167 3.13354)">
<stop offset="0.426485" stop-color="#FFC426"/>
<stop offset="1" stop-color="#FFC426" stop-opacity="0"/>
</radialGradient>
<radialGradient id="paint47_radial_0_4380" cx="0" cy="0" r="1" gradientUnits="userSpaceOnUse" gradientTransform="translate(12.4257 1.04308) rotate(142.413) scale(4.75156 4.79263)">
<stop offset="0.842062" stop-color="#F29D23" stop-opacity="0"/>
<stop offset="1" stop-color="#F29D23"/>
</radialGradient>
<radialGradient id="paint48_radial_0_4380" cx="0" cy="0" r="1" gradientUnits="userSpaceOnUse" gradientTransform="translate(14.5562 3.07436) rotate(180) scale(2.03128 1.47729)">
<stop stop-color="#E16F21"/>
<stop offset="1" stop-color="#E16F21" stop-opacity="0"/>
</radialGradient>
<linearGradient id="paint49_linear_0_4380" x1="16.7117" y1="1.21575" x2="14.7548" y2="4.58468" gradientUnits="userSpaceOnUse">
<stop stop-color="#E73950"/>
<stop offset="1" stop-color="#DC2D68"/>
</linearGradient>
<linearGradient id="paint50_linear_0_4380" x1="16.6091" y1="1.93235" x2="14.4784" y2="3.30232" gradientUnits="userSpaceOnUse">
<stop stop-color="#C9334F"/>
<stop offset="1" stop-color="#C32E4E"/>
</linearGradient>
</defs>
</svg>
