<svg width="40" height="40" viewBox="0 0 40 40" fill="none" xmlns="http://www.w3.org/2000/svg">
<g id="&#240;&#159;&#166;&#134; emoji &#34;man juggling default&#34;">
<g id="Group">
<path id="Vector" d="M5.24219 39.9987C5.24219 31.8475 12.1563 25.2397 20.6852 25.2397H21.6547C30.1838 25.2397 37.0978 31.8475 37.0978 39.9987H5.24219Z" fill="url(#paint0_radial_0_3774)"/>
<path id="Vector_2" d="M5.24219 39.9987C5.24219 31.8475 12.1563 25.2397 20.6852 25.2397H21.6547C30.1838 25.2397 37.0978 31.8475 37.0978 39.9987H5.24219Z" fill="url(#paint1_radial_0_3774)"/>
<path id="Vector_3" d="M5.24219 39.9987C5.24219 31.8475 12.1563 25.2397 20.6852 25.2397H21.6547C30.1838 25.2397 37.0978 31.8475 37.0978 39.9987H5.24219Z" fill="url(#paint2_radial_0_3774)"/>
<path id="Vector_4" d="M5.24219 39.9987C5.24219 31.8475 12.1563 25.2397 20.6852 25.2397H21.6547C30.1838 25.2397 37.0978 31.8475 37.0978 39.9987H5.24219Z" fill="url(#paint3_radial_0_3774)"/>
<path id="Vector_5" d="M5.24219 39.9987C5.24219 31.8475 12.1563 25.2397 20.6852 25.2397H21.6547C30.1838 25.2397 37.0978 31.8475 37.0978 39.9987H5.24219Z" fill="url(#paint4_radial_0_3774)"/>
</g>
<path id="Vector_6" d="M5.36656 17.8609C6.7739 17.8609 7.91477 16.7706 7.91477 15.4256C7.91477 14.0806 6.7739 12.9903 5.36656 12.9903C3.95923 12.9903 2.81836 14.0806 2.81836 15.4256C2.81836 16.7706 3.95923 17.8609 5.36656 17.8609Z" fill="url(#paint5_radial_0_3774)"/>
<path id="Vector_7" d="M5.36656 17.8609C6.7739 17.8609 7.91477 16.7706 7.91477 15.4256C7.91477 14.0806 6.7739 12.9903 5.36656 12.9903C3.95923 12.9903 2.81836 14.0806 2.81836 15.4256C2.81836 16.7706 3.95923 17.8609 5.36656 17.8609Z" fill="url(#paint6_radial_0_3774)"/>
<path id="Vector_8" d="M9.77672 4.87064C11.1841 4.87064 12.3249 3.78031 12.3249 2.43532C12.3249 1.09033 11.1841 0 9.77672 0C8.36939 0 7.22852 1.09033 7.22852 2.43532C7.22852 3.78031 8.36939 4.87064 9.77672 4.87064Z" fill="url(#paint7_radial_0_3774)"/>
<path id="Vector_9" d="M9.77672 4.87064C11.1841 4.87064 12.3249 3.78031 12.3249 2.43532C12.3249 1.09033 11.1841 0 9.77672 0C8.36939 0 7.22852 1.09033 7.22852 2.43532C7.22852 3.78031 8.36939 4.87064 9.77672 4.87064Z" fill="url(#paint8_radial_0_3774)"/>
<path id="Vector_10" d="M33.9408 6.33951C35.3481 6.33951 36.489 5.24918 36.489 3.90419C36.489 2.5592 35.3481 1.46887 33.9408 1.46887C32.5334 1.46887 31.3926 2.5592 31.3926 3.90419C31.3926 5.24918 32.5334 6.33951 33.9408 6.33951Z" fill="url(#paint9_radial_0_3774)"/>
<path id="Vector_11" d="M33.9408 6.33951C35.3481 6.33951 36.489 5.24918 36.489 3.90419C36.489 2.5592 35.3481 1.46887 33.9408 1.46887C32.5334 1.46887 31.3926 2.5592 31.3926 3.90419C31.3926 5.24918 32.5334 6.33951 33.9408 6.33951Z" fill="url(#paint10_radial_0_3774)"/>
<path id="Vector_12" d="M35.4896 20.7427C36.8969 20.7427 38.0378 19.6524 38.0378 18.3074C38.0378 16.9624 36.8969 15.8721 35.4896 15.8721C34.0823 15.8721 32.9414 16.9624 32.9414 18.3074C32.9414 19.6524 34.0823 20.7427 35.4896 20.7427Z" fill="url(#paint11_radial_0_3774)"/>
<path id="Vector_13" d="M35.4896 20.7427C36.8969 20.7427 38.0378 19.6524 38.0378 18.3074C38.0378 16.9624 36.8969 15.8721 35.4896 15.8721C34.0823 15.8721 32.9414 16.9624 32.9414 18.3074C32.9414 19.6524 34.0823 20.7427 35.4896 20.7427Z" fill="url(#paint12_radial_0_3774)"/>
<path id="Vector_14" d="M35.4896 20.7427C36.8969 20.7427 38.0378 19.6524 38.0378 18.3074C38.0378 16.9624 36.8969 15.8721 35.4896 15.8721C34.0823 15.8721 32.9414 16.9624 32.9414 18.3074C32.9414 19.6524 34.0823 20.7427 35.4896 20.7427Z" fill="url(#paint13_radial_0_3774)"/>
<g id="Group_2">
<path id="Vector_15" d="M21.1517 38.8531C21.7695 38.8531 22.2703 38.3745 22.2703 37.7841C22.2703 37.1938 21.7695 36.7151 21.1517 36.7151C20.534 36.7151 20.0332 37.1938 20.0332 37.7841C20.0332 38.3745 20.534 38.8531 21.1517 38.8531Z" fill="url(#paint14_radial_0_3774)"/>
</g>
<g id="Group_3">
<path id="Vector_16" d="M21.1517 35.9427C21.7695 35.9427 22.2703 35.4641 22.2703 34.8737C22.2703 34.2833 21.7695 33.8047 21.1517 33.8047C20.534 33.8047 20.0332 34.2833 20.0332 34.8737C20.0332 35.4641 20.534 35.9427 21.1517 35.9427Z" fill="url(#paint15_radial_0_3774)"/>
</g>
<path id="Vector_17" d="M29.4178 39.9995H27.0293V26.1586C27.8619 26.454 28.6605 26.8159 29.4178 27.2377V39.9995Z" fill="url(#paint16_radial_0_3774)"/>
<path id="Vector_18" d="M29.4178 39.9995H27.0293V26.1586C27.8619 26.454 28.6605 26.8159 29.4178 27.2377V39.9995Z" fill="url(#paint17_linear_0_3774)"/>
<path id="Vector_19" d="M29.4178 39.9995H27.0293V26.1586C27.8619 26.454 28.6605 26.8159 29.4178 27.2377V39.9995Z" fill="url(#paint18_linear_0_3774)"/>
<path id="Vector_20" d="M15.2421 40.0001H12.8535V27.2773C13.6106 26.8505 14.4091 26.484 15.2421 26.1841V40.0001Z" fill="url(#paint19_radial_0_3774)"/>
<path id="Vector_21" d="M15.2421 40.0001H12.8535V27.2773C13.6106 26.8505 14.4091 26.484 15.2421 26.1841V40.0001Z" fill="url(#paint20_radial_0_3774)"/>
<path id="Vector_22" d="M15.2421 40.0001H12.8535V27.2773C13.6106 26.8505 14.4091 26.484 15.2421 26.1841V40.0001Z" fill="url(#paint21_radial_0_3774)"/>
<path id="Vector_23" d="M15.2421 40.0001H12.8535V27.2773C13.6106 26.8505 14.4091 26.484 15.2421 26.1841V40.0001Z" fill="url(#paint22_radial_0_3774)"/>
<g id="Group_4">
<path id="Vector_24" d="M16.4844 25.7928L17.4116 30.4494H24.8966L26.1023 25.8605C24.6945 25.4567 23.202 25.2397 21.6566 25.2397H20.6869C19.2303 25.2397 17.8205 25.4325 16.4844 25.7928Z" fill="url(#paint23_radial_0_3774)"/>
<path id="Vector_25" d="M16.4844 25.7928L17.4116 30.4494H24.8966L26.1023 25.8605C24.6945 25.4567 23.202 25.2397 21.6566 25.2397H20.6869C19.2303 25.2397 17.8205 25.4325 16.4844 25.7928Z" fill="url(#paint24_radial_0_3774)"/>
</g>
<path id="Vector_26" d="M4.01367 28.3371H10.2098V39.9995H4.01367V28.3371Z" fill="url(#paint25_linear_0_3774)"/>
<path id="Vector_27" d="M4.01367 28.3371H10.2098V39.9995H4.01367V28.3371Z" fill="url(#paint26_linear_0_3774)"/>
<path id="Vector_28" d="M31.7715 31.7274H37.9676V39.9996H31.7715V31.7274Z" fill="url(#paint27_linear_0_3774)"/>
<path id="Vector_29" d="M31.7715 31.7274H37.9676V39.9996H31.7715V31.7274Z" fill="url(#paint28_linear_0_3774)"/>
<g id="Group_5">
<path id="Vector_30" fill-rule="evenodd" clip-rule="evenodd" d="M20.0333 31.1705C19.7119 30.8137 19.1709 30.3977 18.2844 30.1106C17.7377 29.9334 17.1073 30.0128 16.8152 30.4971C16.6029 30.8492 16.3848 31.3707 16.3848 32.0959C16.3848 32.8212 16.6029 33.3427 16.8152 33.6948C17.1073 34.1789 17.7377 34.2585 18.2844 34.0813C19.1986 33.7852 19.7452 33.3949 20.0627 33.0599C20.1354 33.2552 20.3031 33.4062 20.5234 33.4464C20.9636 33.5267 21.3468 33.5267 21.7869 33.4464C22.0162 33.4044 22.1888 33.2426 22.2561 33.0354C22.5701 33.3758 23.1207 33.7779 24.0573 34.0813C24.604 34.2585 25.2342 34.1789 25.5263 33.6948C25.7387 33.3427 25.9568 32.829 25.9568 32.0959C25.9568 31.3628 25.7387 30.8492 25.5263 30.4971C25.2342 30.0128 24.604 29.9334 24.0573 30.1106C23.1457 30.4058 22.5996 30.8372 22.2817 31.2004C22.2478 30.9406 22.0568 30.7254 21.7869 30.676C21.3468 30.5958 20.9636 30.5958 20.5234 30.676C20.264 30.7235 20.0774 30.9243 20.0333 31.1705Z" fill="#BC9EBB"/>
</g>
<g id="Group_6">
<path id="Vector_31" d="M18.2844 29.3481C19.6601 29.7937 20.2033 30.5494 20.3861 30.9126L20.4287 31.3335L20.3861 31.8514C20.2033 32.2144 19.6601 32.8732 18.2844 33.3189C17.7377 33.4959 17.1073 33.4165 16.8152 32.9323C16.6029 32.5803 16.3848 32.0587 16.3848 31.3335C16.3848 30.6082 16.6029 30.0866 16.8152 29.7347C17.1073 29.2504 17.7377 29.171 18.2844 29.3481Z" fill="url(#paint29_radial_0_3774)"/>
<path id="Vector_32" d="M18.2844 29.3481C19.6601 29.7937 20.2033 30.5494 20.3861 30.9126L20.4287 31.3335L20.3861 31.8514C20.2033 32.2144 19.6601 32.8732 18.2844 33.3189C17.7377 33.4959 17.1073 33.4165 16.8152 32.9323C16.6029 32.5803 16.3848 32.0587 16.3848 31.3335C16.3848 30.6082 16.6029 30.0866 16.8152 29.7347C17.1073 29.2504 17.7377 29.171 18.2844 29.3481Z" fill="url(#paint30_radial_0_3774)"/>
<path id="Vector_33" d="M18.2844 29.3481C19.6601 29.7937 20.2033 30.5494 20.3861 30.9126L20.4287 31.3335L20.3861 31.8514C20.2033 32.2144 19.6601 32.8732 18.2844 33.3189C17.7377 33.4959 17.1073 33.4165 16.8152 32.9323C16.6029 32.5803 16.3848 32.0587 16.3848 31.3335C16.3848 30.6082 16.6029 30.0866 16.8152 29.7347C17.1073 29.2504 17.7377 29.171 18.2844 29.3481Z" fill="url(#paint31_radial_0_3774)"/>
</g>
<g id="Group_7">
<path id="Vector_34" d="M24.0565 29.3481C22.6808 29.7937 22.1375 30.5494 21.9546 30.9126L21.9121 31.3335L21.9546 31.8514C22.1375 32.2144 22.6808 32.8732 24.0565 33.3189C24.6032 33.4959 25.2335 33.4165 25.5256 32.9323C25.7379 32.5803 25.956 32.0666 25.956 31.3335C25.956 30.6003 25.7379 30.0866 25.5256 29.7347C25.2335 29.2504 24.6032 29.171 24.0565 29.3481Z" fill="url(#paint32_radial_0_3774)"/>
<path id="Vector_35" d="M24.0565 29.3481C22.6808 29.7937 22.1375 30.5494 21.9546 30.9126L21.9121 31.3335L21.9546 31.8514C22.1375 32.2144 22.6808 32.8732 24.0565 33.3189C24.6032 33.4959 25.2335 33.4165 25.5256 32.9323C25.7379 32.5803 25.956 32.0666 25.956 31.3335C25.956 30.6003 25.7379 30.0866 25.5256 29.7347C25.2335 29.2504 24.6032 29.171 24.0565 29.3481Z" fill="url(#paint33_radial_0_3774)"/>
</g>
<g id="Group_8">
<path id="Vector_36" d="M20.0264 30.4505C20.0559 30.1855 20.2486 29.9645 20.5225 29.9146C20.9626 29.8341 21.3459 29.8341 21.786 29.9146C22.0598 29.9645 22.2527 30.1855 22.2822 30.4505C22.3459 31.0222 22.346 31.5753 22.2822 32.1487C22.2527 32.4137 22.0598 32.6347 21.786 32.6848C21.3459 32.765 20.9626 32.765 20.5225 32.6848C20.2486 32.6347 20.0559 32.4137 20.0264 32.1487C19.9626 31.5775 19.9625 31.0235 20.0264 30.4505Z" fill="url(#paint34_linear_0_3774)"/>
<path id="Vector_37" d="M20.0264 30.4505C20.0559 30.1855 20.2486 29.9645 20.5225 29.9146C20.9626 29.8341 21.3459 29.8341 21.786 29.9146C22.0598 29.9645 22.2527 30.1855 22.2822 30.4505C22.3459 31.0222 22.346 31.5753 22.2822 32.1487C22.2527 32.4137 22.0598 32.6347 21.786 32.6848C21.3459 32.765 20.9626 32.765 20.5225 32.6848C20.2486 32.6347 20.0559 32.4137 20.0264 32.1487C19.9626 31.5775 19.9625 31.0235 20.0264 30.4505Z" fill="url(#paint35_radial_0_3774)"/>
</g>
<g id="Group_9">
<path id="Vector_38" d="M37.9372 25.538L37.2601 26.7317L35.4863 28.7884L33.2441 31.6702L37.934 31.738C38.0839 31.4893 38.2652 30.9187 38.5101 29.8173C38.7583 28.8624 39.0041 28.2065 39.223 27.8278L39.8929 26.4915C40.1291 26.02 39.9663 25.4541 39.5109 25.1645C38.9734 24.8227 38.2448 24.9956 37.9372 25.538Z" fill="#FFD942"/>
</g>
<g id="Group_10">
<path id="Vector_39" d="M35.0141 23.2491C34.8986 22.6977 35.298 22.1687 35.8819 22.0998C36.4251 22.0356 36.9233 22.3959 37.006 22.913L37.5207 26.1266C37.5334 26.2054 37.5358 26.2854 37.5282 26.3648L37.5057 26.6C37.4981 26.6794 37.5029 26.7594 37.507 26.8391C37.5293 27.2653 37.2851 27.5829 36.8188 27.645C36.3358 27.7092 35.8841 27.4026 35.7884 26.9456L35.0141 23.2491Z" fill="#FFDD46"/>
</g>
<g id="Group_11">
<path id="Vector_40" d="M32.8004 22.8349C32.6466 22.264 33.0496 21.6929 33.6612 21.6154L33.6954 21.6111C34.2322 21.5429 34.7325 21.8845 34.839 22.3919L35.6795 26.391C35.7876 26.9051 35.4093 27.3965 34.8635 27.4509C34.4052 27.4966 33.9808 27.2147 33.8658 26.7881L32.8004 22.8349Z" fill="#FFD343"/>
</g>
<g id="Group_12">
<path id="Vector_41" d="M31.2106 24.0558C31.0624 23.4886 31.4628 22.9241 32.0689 22.8455C32.6058 22.7758 33.1071 23.117 33.2138 23.6247L34.0546 27.6258C34.1623 28.1381 33.7853 28.6279 33.2413 28.6822C32.7818 28.7279 32.3571 28.4435 32.2453 28.0152L31.2106 24.0558Z" fill="#FFC93E"/>
</g>
<g id="Group_13">
<path id="Vector_42" d="M29.7068 25.613C29.5634 25.0467 29.9668 24.4858 30.5708 24.4075C31.1086 24.3376 31.6129 24.679 31.7198 25.1876L32.2651 27.7823C32.4408 28.618 31.449 29.2229 30.7298 28.7189C30.5439 28.5886 30.4122 28.3997 30.358 28.1856L29.7068 25.613Z" fill="#FFC239"/>
</g>
<path id="Vector_43" d="M30.5795 28.9868C30.7593 29.6571 31.4664 31.0931 31.7974 31.7272H37.9226L37.5324 26.2464L30.2129 27.5825C30.2603 27.7713 30.3998 28.3163 30.5795 28.9868Z" fill="url(#paint36_radial_0_3774)"/>
<path id="Vector_44" d="M30.5795 28.9868C30.7593 29.6571 31.4664 31.0931 31.7974 31.7272H37.9226L37.5324 26.2464L30.2129 27.5825C30.2603 27.7713 30.3998 28.3163 30.5795 28.9868Z" fill="url(#paint37_radial_0_3774)"/>
<g id="Group_14">
<path id="Vector_45" d="M6.07986 22.4502C5.69109 21.9482 5.80183 21.24 6.32718 20.8685C6.84613 20.5015 7.57713 20.5997 7.97005 21.0892L9.37937 22.8451C9.88809 23.479 10.1638 24.2555 10.1638 25.0544L7.8949 24.7943L6.07986 22.4502Z" fill="url(#paint38_radial_0_3774)"/>
</g>
<g id="Group_15">
<path id="Vector_46" fill-rule="evenodd" clip-rule="evenodd" d="M2.25069 21.0899C2.76831 20.7518 3.47467 20.8788 3.82837 21.3736C3.92147 21.5037 4.00151 21.6274 4.07849 21.7463C4.29238 22.0768 4.4827 22.3709 4.86432 22.6679C5.30625 23.0119 6.06657 23.37 7.50856 23.2764C8.13406 23.2358 8.67558 23.6874 8.71808 24.2852C8.76058 24.8831 8.28795 25.4005 7.66246 25.4411C5.71078 25.5678 4.36632 25.0785 3.43069 24.3503C2.70824 23.7881 2.25016 23.0628 2.04382 22.7362C2.00493 22.6745 1.97498 22.6272 1.9539 22.5977C1.60018 22.103 1.73305 21.4279 2.25069 21.0899Z" fill="url(#paint39_radial_0_3774)"/>
<path id="Vector_47" fill-rule="evenodd" clip-rule="evenodd" d="M2.25069 21.0899C2.76831 20.7518 3.47467 20.8788 3.82837 21.3736C3.92147 21.5037 4.00151 21.6274 4.07849 21.7463C4.29238 22.0768 4.4827 22.3709 4.86432 22.6679C5.30625 23.0119 6.06657 23.37 7.50856 23.2764C8.13406 23.2358 8.67558 23.6874 8.71808 24.2852C8.76058 24.8831 8.28795 25.4005 7.66246 25.4411C5.71078 25.5678 4.36632 25.0785 3.43069 24.3503C2.70824 23.7881 2.25016 23.0628 2.04382 22.7362C2.00493 22.6745 1.97498 22.6272 1.9539 22.5977C1.60018 22.103 1.73305 21.4279 2.25069 21.0899Z" fill="url(#paint40_radial_0_3774)"/>
<path id="Vector_48" fill-rule="evenodd" clip-rule="evenodd" d="M0.565132 21.5418C1.08277 21.2038 1.78913 21.3308 2.14283 21.8255C2.19863 21.9034 2.25674 21.9878 2.31818 22.077C2.57549 22.4506 2.89139 22.9093 3.34158 23.3444C3.88542 23.8701 4.50419 24.233 5.22714 24.2698C5.85319 24.3016 6.33371 24.8125 6.30041 25.4108C6.2671 26.009 5.7326 26.4683 5.10655 26.4365C3.60647 26.3602 2.48701 25.6045 1.72719 24.8699C1.09777 24.2617 0.631001 23.5785 0.383172 23.2157C0.337266 23.1484 0.298867 23.0923 0.268339 23.0496C-0.0853635 22.5549 0.0475114 21.8798 0.565132 21.5418Z" fill="url(#paint41_radial_0_3774)"/>
<path id="Vector_49" fill-rule="evenodd" clip-rule="evenodd" d="M0.565132 21.5418C1.08277 21.2038 1.78913 21.3308 2.14283 21.8255C2.19863 21.9034 2.25674 21.9878 2.31818 22.077C2.57549 22.4506 2.89139 22.9093 3.34158 23.3444C3.88542 23.8701 4.50419 24.233 5.22714 24.2698C5.85319 24.3016 6.33371 24.8125 6.30041 25.4108C6.2671 26.009 5.7326 26.4683 5.10655 26.4365C3.60647 26.3602 2.48701 25.6045 1.72719 24.8699C1.09777 24.2617 0.631001 23.5785 0.383172 23.2157C0.337266 23.1484 0.298867 23.0923 0.268339 23.0496C-0.0853635 22.5549 0.0475114 21.8798 0.565132 21.5418Z" fill="url(#paint42_radial_0_3774)"/>
<path id="Vector_50" fill-rule="evenodd" clip-rule="evenodd" d="M0.494826 23.1582C1.01245 22.8201 1.71881 22.9471 2.07252 23.4419C2.54356 24.1006 3.5457 25.184 4.87186 25.184C5.4988 25.184 6.00702 25.6696 6.00702 26.2689C6.00702 26.868 5.4988 27.3538 4.87186 27.3538C2.29589 27.3538 0.696613 25.3632 0.198033 24.6659C-0.155685 24.1713 -0.0227945 23.4962 0.494826 23.1582Z" fill="url(#paint43_radial_0_3774)"/>
<path id="Vector_51" fill-rule="evenodd" clip-rule="evenodd" d="M0.494826 23.1582C1.01245 22.8201 1.71881 22.9471 2.07252 23.4419C2.54356 24.1006 3.5457 25.184 4.87186 25.184C5.4988 25.184 6.00702 25.6696 6.00702 26.2689C6.00702 26.868 5.4988 27.3538 4.87186 27.3538C2.29589 27.3538 0.696613 25.3632 0.198033 24.6659C-0.155685 24.1713 -0.0227945 23.4962 0.494826 23.1582Z" fill="url(#paint44_radial_0_3774)"/>
<path id="Vector_52" fill-rule="evenodd" clip-rule="evenodd" d="M0.95254 24.831C1.45015 24.4665 2.16269 24.5566 2.54404 25.0322C2.9122 25.4913 3.80435 26.308 5.26729 26.308C5.89422 26.308 6.40245 26.7938 6.40245 27.3929C6.40245 27.992 5.89422 28.3609 5.26729 28.3609C2.72113 28.3609 1.34348 27.102 0.74202 26.352C0.36068 25.8764 0.454929 25.1954 0.95254 24.831Z" fill="url(#paint45_radial_0_3774)"/>
<path id="Vector_53" fill-rule="evenodd" clip-rule="evenodd" d="M0.95254 24.831C1.45015 24.4665 2.16269 24.5566 2.54404 25.0322C2.9122 25.4913 3.80435 26.308 5.26729 26.308C5.89422 26.308 6.40245 26.7938 6.40245 27.3929C6.40245 27.992 5.89422 28.3609 5.26729 28.3609C2.72113 28.3609 1.34348 27.102 0.74202 26.352C0.36068 25.8764 0.454929 25.1954 0.95254 24.831Z" fill="url(#paint46_radial_0_3774)"/>
</g>
<path id="Vector_54" d="M4.80849 24.1818C4.43935 24.4179 4.25 24.8288 4.25 25.2534V28.3022L5.18415 28.3588H10.1815V24.991C10.1815 23.7819 8.9636 23.1829 7.20172 23.3298C6.20975 23.4126 5.37263 23.8211 4.80849 24.1818Z" fill="url(#paint47_radial_0_3774)"/>
<path id="Vector_55" d="M4.80849 24.1818C4.43935 24.4179 4.25 24.8288 4.25 25.2534V28.3022L5.18415 28.3588H10.1815V24.991C10.1815 23.7819 8.9636 23.1829 7.20172 23.3298C6.20975 23.4126 5.37263 23.8211 4.80849 24.1818Z" fill="url(#paint48_radial_0_3774)"/>
<path id="Vector_56" d="M18.125 23.4166C18.125 21.9833 19.4883 20.8215 21.1698 20.8215C22.8515 20.8215 24.2146 21.9833 24.2146 23.4166V26.7809C24.2146 28.2143 22.8515 29.3761 21.1698 29.3761C19.4883 29.3761 18.125 28.2143 18.125 26.7809V23.4166Z" fill="url(#paint49_radial_0_3774)"/>
<g id="Group_16">
<path id="Vector_57" d="M34.2937 27.5898C36.033 27.2658 37.3813 26.701 37.3053 26.3281C37.2292 25.9553 35.7577 25.9156 34.0184 26.2396C32.2791 26.5635 30.9308 27.1284 31.0068 27.5012C31.0828 27.874 32.5544 27.9137 34.2937 27.5898Z" fill="url(#paint50_radial_0_3774)"/>
</g>
<path id="Vector_58" d="M13.6661 20.5343C15.117 20.5343 16.2932 19.4102 16.2932 18.0236C16.2932 16.637 15.117 15.5129 13.6661 15.5129C12.2152 15.5129 11.0391 16.637 11.0391 18.0236C11.0391 19.4102 12.2152 20.5343 13.6661 20.5343Z" fill="url(#paint51_radial_0_3774)"/>
<g id="Group_17">
<path id="Vector_59" d="M13.6648 19.5191C14.5292 19.5191 15.2299 18.8494 15.2299 18.0233C15.2299 17.1972 14.5292 16.5275 13.6648 16.5275C12.8004 16.5275 12.0996 17.1972 12.0996 18.0233C12.0996 18.8494 12.8004 19.5191 13.6648 19.5191Z" fill="url(#paint52_linear_0_3774)"/>
</g>
<g id="Group_18">
<path id="Vector_60" d="M28.6368 20.5349C30.0877 20.5349 31.2639 19.4108 31.2639 18.0242C31.2639 16.6376 30.0877 15.5135 28.6368 15.5135C27.1859 15.5135 26.0098 16.6376 26.0098 18.0242C26.0098 19.4108 27.1859 20.5349 28.6368 20.5349Z" fill="url(#paint53_linear_0_3774)"/>
<path id="Vector_61" d="M28.6368 20.5349C30.0877 20.5349 31.2639 19.4108 31.2639 18.0242C31.2639 16.6376 30.0877 15.5135 28.6368 15.5135C27.1859 15.5135 26.0098 16.6376 26.0098 18.0242C26.0098 19.4108 27.1859 20.5349 28.6368 20.5349Z" fill="url(#paint54_radial_0_3774)"/>
</g>
<g id="Group_19">
<path id="Vector_62" d="M28.6355 19.5191C29.4999 19.5191 30.2006 18.8494 30.2006 18.0233C30.2006 17.1972 29.4999 16.5275 28.6355 16.5275C27.7711 16.5275 27.0703 17.1972 27.0703 18.0233C27.0703 18.8494 27.7711 19.5191 28.6355 19.5191Z" fill="#FFBF34"/>
<path id="Vector_63" d="M28.6355 19.5191C29.4999 19.5191 30.2006 18.8494 30.2006 18.0233C30.2006 17.1972 29.4999 16.5275 28.6355 16.5275C27.7711 16.5275 27.0703 17.1972 27.0703 18.0233C27.0703 18.8494 27.7711 19.5191 28.6355 19.5191Z" fill="url(#paint55_radial_0_3774)"/>
<path id="Vector_64" d="M28.6355 19.5191C29.4999 19.5191 30.2006 18.8494 30.2006 18.0233C30.2006 17.1972 29.4999 16.5275 28.6355 16.5275C27.7711 16.5275 27.0703 17.1972 27.0703 18.0233C27.0703 18.8494 27.7711 19.5191 28.6355 19.5191Z" fill="url(#paint56_radial_0_3774)"/>
</g>
<path id="Vector_65" d="M13.1132 17.1036C13.0717 16.632 13.0215 15.2865 13.0215 14.9405C13.0215 14.5394 13.1904 14.0581 13.5279 13.8176L13.7811 13.5769C14.2033 13.2561 14.372 12.7748 14.372 12.2935V11.0102C14.372 10.6092 14.6252 10.2883 15.0474 10.2081C16.0602 9.96751 18.1704 9.56647 21.2091 9.56647C24.2477 9.56647 26.3579 9.96751 27.3707 10.2081C27.7084 10.2883 28.0461 10.6092 28.0461 11.0102V12.2935C28.0461 12.7748 28.2993 13.2561 28.6368 13.5769C29.4269 14.106 29.3777 14.3971 29.3122 15.0206C29.2917 15.2139 29.2277 16.8171 29.1719 17.1859L28.7535 23.139C28.5009 25.8003 26.3117 27.6551 23.7016 27.6551H18.6498C15.9554 27.6551 13.8505 25.8003 13.5978 23.139L13.1132 17.1036Z" fill="url(#paint57_linear_0_3774)"/>
<path id="Vector_66" d="M13.1132 17.1036C13.0717 16.632 13.0215 15.2865 13.0215 14.9405C13.0215 14.5394 13.1904 14.0581 13.5279 13.8176L13.7811 13.5769C14.2033 13.2561 14.372 12.7748 14.372 12.2935V11.0102C14.372 10.6092 14.6252 10.2883 15.0474 10.2081C16.0602 9.96751 18.1704 9.56647 21.2091 9.56647C24.2477 9.56647 26.3579 9.96751 27.3707 10.2081C27.7084 10.2883 28.0461 10.6092 28.0461 11.0102V12.2935C28.0461 12.7748 28.2993 13.2561 28.6368 13.5769C29.4269 14.106 29.3777 14.3971 29.3122 15.0206C29.2917 15.2139 29.2277 16.8171 29.1719 17.1859L28.7535 23.139C28.5009 25.8003 26.3117 27.6551 23.7016 27.6551H18.6498C15.9554 27.6551 13.8505 25.8003 13.5978 23.139L13.1132 17.1036Z" fill="url(#paint58_linear_0_3774)"/>
<path id="Vector_67" d="M13.1132 17.1036C13.0717 16.632 13.0215 15.2865 13.0215 14.9405C13.0215 14.5394 13.1904 14.0581 13.5279 13.8176L13.7811 13.5769C14.2033 13.2561 14.372 12.7748 14.372 12.2935V11.0102C14.372 10.6092 14.6252 10.2883 15.0474 10.2081C16.0602 9.96751 18.1704 9.56647 21.2091 9.56647C24.2477 9.56647 26.3579 9.96751 27.3707 10.2081C27.7084 10.2883 28.0461 10.6092 28.0461 11.0102V12.2935C28.0461 12.7748 28.2993 13.2561 28.6368 13.5769C29.4269 14.106 29.3777 14.3971 29.3122 15.0206C29.2917 15.2139 29.2277 16.8171 29.1719 17.1859L28.7535 23.139C28.5009 25.8003 26.3117 27.6551 23.7016 27.6551H18.6498C15.9554 27.6551 13.8505 25.8003 13.5978 23.139L13.1132 17.1036Z" fill="url(#paint59_radial_0_3774)"/>
<path id="Vector_68" d="M13.1132 17.1036C13.0717 16.632 13.0215 15.2865 13.0215 14.9405C13.0215 14.5394 13.1904 14.0581 13.5279 13.8176L13.7811 13.5769C14.2033 13.2561 14.372 12.7748 14.372 12.2935V11.0102C14.372 10.6092 14.6252 10.2883 15.0474 10.2081C16.0602 9.96751 18.1704 9.56647 21.2091 9.56647C24.2477 9.56647 26.3579 9.96751 27.3707 10.2081C27.7084 10.2883 28.0461 10.6092 28.0461 11.0102V12.2935C28.0461 12.7748 28.2993 13.2561 28.6368 13.5769C29.4269 14.106 29.3777 14.3971 29.3122 15.0206C29.2917 15.2139 29.2277 16.8171 29.1719 17.1859L28.7535 23.139C28.5009 25.8003 26.3117 27.6551 23.7016 27.6551H18.6498C15.9554 27.6551 13.8505 25.8003 13.5978 23.139L13.1132 17.1036Z" fill="url(#paint60_radial_0_3774)"/>
<path id="Vector_69" d="M13.1132 17.1036C13.0717 16.632 13.0215 15.2865 13.0215 14.9405C13.0215 14.5394 13.1904 14.0581 13.5279 13.8176L13.7811 13.5769C14.2033 13.2561 14.372 12.7748 14.372 12.2935V11.0102C14.372 10.6092 14.6252 10.2883 15.0474 10.2081C16.0602 9.96751 18.1704 9.56647 21.2091 9.56647C24.2477 9.56647 26.3579 9.96751 27.3707 10.2081C27.7084 10.2883 28.0461 10.6092 28.0461 11.0102V12.2935C28.0461 12.7748 28.2993 13.2561 28.6368 13.5769C29.4269 14.106 29.3777 14.3971 29.3122 15.0206C29.2917 15.2139 29.2277 16.8171 29.1719 17.1859L28.7535 23.139C28.5009 25.8003 26.3117 27.6551 23.7016 27.6551H18.6498C15.9554 27.6551 13.8505 25.8003 13.5978 23.139L13.1132 17.1036Z" fill="url(#paint61_radial_0_3774)"/>
<path id="Vector_70" d="M13.1132 17.1036C13.0717 16.632 13.0215 15.2865 13.0215 14.9405C13.0215 14.5394 13.1904 14.0581 13.5279 13.8176L13.7811 13.5769C14.2033 13.2561 14.372 12.7748 14.372 12.2935V11.0102C14.372 10.6092 14.6252 10.2883 15.0474 10.2081C16.0602 9.96751 18.1704 9.56647 21.2091 9.56647C24.2477 9.56647 26.3579 9.96751 27.3707 10.2081C27.7084 10.2883 28.0461 10.6092 28.0461 11.0102V12.2935C28.0461 12.7748 28.2993 13.2561 28.6368 13.5769C29.4269 14.106 29.3777 14.3971 29.3122 15.0206C29.2917 15.2139 29.2277 16.8171 29.1719 17.1859L28.7535 23.139C28.5009 25.8003 26.3117 27.6551 23.7016 27.6551H18.6498C15.9554 27.6551 13.8505 25.8003 13.5978 23.139L13.1132 17.1036Z" fill="url(#paint62_linear_0_3774)"/>
<path id="Vector_71" d="M28.7205 8.2817L28.636 10.2067C29.8178 10.7681 31.2526 10.4473 30.9994 11.8108L30.071 16.3828C29.9882 16.8549 29.6616 17.1727 29.1709 17.1845C29.227 16.4272 29.2793 15.2054 29.2997 15.0121C29.3681 14.3609 29.2608 14.1692 28.636 13.5754C28.2983 13.2546 28.0451 12.7733 28.0451 12.2921V11.0088C28.0451 10.6077 27.7076 10.2869 27.3699 10.2067C26.357 9.96604 24.2468 9.565 21.2082 9.565C18.1695 9.565 16.0594 9.96604 15.0464 10.2067C14.6244 10.2869 14.3712 10.6077 14.3712 11.0088V12.2921C14.3712 12.7733 14.2024 13.2546 13.7803 13.5754L13.5271 13.816C13.1896 14.0567 13.0191 14.5593 13.0191 14.9605C13.0416 15.1944 13.0747 16.5415 13.1124 17.1022C12.6406 17.0713 12.2568 16.7592 12.1766 16.3025L11.2481 11.7307C11.0794 10.4473 11.5489 11.1724 12.7307 10.611C14.3258 9.94268 15.1129 6.91972 16.397 5.87544C17.3255 5.07335 18.6759 4.83273 19.8577 5.39419C20.7018 5.63482 21.6302 5.63482 22.4743 5.39419C23.7404 4.99315 25.1753 5.31398 26.1883 6.19628L27.4544 7.39941C27.7919 7.80045 28.214 8.04108 28.7205 8.2817Z" fill="#FFA91B"/>
<path id="Vector_72" d="M28.7205 8.2817L28.636 10.2067C29.8178 10.7681 31.2526 10.4473 30.9994 11.8108L30.071 16.3828C29.9882 16.8549 29.6616 17.1727 29.1709 17.1845C29.227 16.4272 29.2793 15.2054 29.2997 15.0121C29.3681 14.3609 29.2608 14.1692 28.636 13.5754C28.2983 13.2546 28.0451 12.7733 28.0451 12.2921V11.0088C28.0451 10.6077 27.7076 10.2869 27.3699 10.2067C26.357 9.96604 24.2468 9.565 21.2082 9.565C18.1695 9.565 16.0594 9.96604 15.0464 10.2067C14.6244 10.2869 14.3712 10.6077 14.3712 11.0088V12.2921C14.3712 12.7733 14.2024 13.2546 13.7803 13.5754L13.5271 13.816C13.1896 14.0567 13.0191 14.5593 13.0191 14.9605C13.0416 15.1944 13.0747 16.5415 13.1124 17.1022C12.6406 17.0713 12.2568 16.7592 12.1766 16.3025L11.2481 11.7307C11.0794 10.4473 11.5489 11.1724 12.7307 10.611C14.3258 9.94268 15.1129 6.91972 16.397 5.87544C17.3255 5.07335 18.6759 4.83273 19.8577 5.39419C20.7018 5.63482 21.6302 5.63482 22.4743 5.39419C23.7404 4.99315 25.1753 5.31398 26.1883 6.19628L27.4544 7.39941C27.7919 7.80045 28.214 8.04108 28.7205 8.2817Z" fill="url(#paint63_radial_0_3774)"/>
<path id="Vector_73" d="M28.7205 8.2817L28.636 10.2067C29.8178 10.7681 31.2526 10.4473 30.9994 11.8108L30.071 16.3828C29.9882 16.8549 29.6616 17.1727 29.1709 17.1845C29.227 16.4272 29.2793 15.2054 29.2997 15.0121C29.3681 14.3609 29.2608 14.1692 28.636 13.5754C28.2983 13.2546 28.0451 12.7733 28.0451 12.2921V11.0088C28.0451 10.6077 27.7076 10.2869 27.3699 10.2067C26.357 9.96604 24.2468 9.565 21.2082 9.565C18.1695 9.565 16.0594 9.96604 15.0464 10.2067C14.6244 10.2869 14.3712 10.6077 14.3712 11.0088V12.2921C14.3712 12.7733 14.2024 13.2546 13.7803 13.5754L13.5271 13.816C13.1896 14.0567 13.0191 14.5593 13.0191 14.9605C13.0416 15.1944 13.0747 16.5415 13.1124 17.1022C12.6406 17.0713 12.2568 16.7592 12.1766 16.3025L11.2481 11.7307C11.0794 10.4473 11.5489 11.1724 12.7307 10.611C14.3258 9.94268 15.1129 6.91972 16.397 5.87544C17.3255 5.07335 18.6759 4.83273 19.8577 5.39419C20.7018 5.63482 21.6302 5.63482 22.4743 5.39419C23.7404 4.99315 25.1753 5.31398 26.1883 6.19628L27.4544 7.39941C27.7919 7.80045 28.214 8.04108 28.7205 8.2817Z" fill="url(#paint64_linear_0_3774)"/>
<path id="Vector_74" d="M28.7205 8.2817L28.636 10.2067C29.8178 10.7681 31.2526 10.4473 30.9994 11.8108L30.071 16.3828C29.9882 16.8549 29.6616 17.1727 29.1709 17.1845C29.227 16.4272 29.2793 15.2054 29.2997 15.0121C29.3681 14.3609 29.2608 14.1692 28.636 13.5754C28.2983 13.2546 28.0451 12.7733 28.0451 12.2921V11.0088C28.0451 10.6077 27.7076 10.2869 27.3699 10.2067C26.357 9.96604 24.2468 9.565 21.2082 9.565C18.1695 9.565 16.0594 9.96604 15.0464 10.2067C14.6244 10.2869 14.3712 10.6077 14.3712 11.0088V12.2921C14.3712 12.7733 14.2024 13.2546 13.7803 13.5754L13.5271 13.816C13.1896 14.0567 13.0191 14.5593 13.0191 14.9605C13.0416 15.1944 13.0747 16.5415 13.1124 17.1022C12.6406 17.0713 12.2568 16.7592 12.1766 16.3025L11.2481 11.7307C11.0794 10.4473 11.5489 11.1724 12.7307 10.611C14.3258 9.94268 15.1129 6.91972 16.397 5.87544C17.3255 5.07335 18.6759 4.83273 19.8577 5.39419C20.7018 5.63482 21.6302 5.63482 22.4743 5.39419C23.7404 4.99315 25.1753 5.31398 26.1883 6.19628L27.4544 7.39941C27.7919 7.80045 28.214 8.04108 28.7205 8.2817Z" fill="url(#paint65_radial_0_3774)"/>
<path id="Vector_75" d="M28.7205 8.2817L28.636 10.2067C29.8178 10.7681 31.2526 10.4473 30.9994 11.8108L30.071 16.3828C29.9882 16.8549 29.6616 17.1727 29.1709 17.1845C29.227 16.4272 29.2793 15.2054 29.2997 15.0121C29.3681 14.3609 29.2608 14.1692 28.636 13.5754C28.2983 13.2546 28.0451 12.7733 28.0451 12.2921V11.0088C28.0451 10.6077 27.7076 10.2869 27.3699 10.2067C26.357 9.96604 24.2468 9.565 21.2082 9.565C18.1695 9.565 16.0594 9.96604 15.0464 10.2067C14.6244 10.2869 14.3712 10.6077 14.3712 11.0088V12.2921C14.3712 12.7733 14.2024 13.2546 13.7803 13.5754L13.5271 13.816C13.1896 14.0567 13.0191 14.5593 13.0191 14.9605C13.0416 15.1944 13.0747 16.5415 13.1124 17.1022C12.6406 17.0713 12.2568 16.7592 12.1766 16.3025L11.2481 11.7307C11.0794 10.4473 11.5489 11.1724 12.7307 10.611C14.3258 9.94268 15.1129 6.91972 16.397 5.87544C17.3255 5.07335 18.6759 4.83273 19.8577 5.39419C20.7018 5.63482 21.6302 5.63482 22.4743 5.39419C23.7404 4.99315 25.1753 5.31398 26.1883 6.19628L27.4544 7.39941C27.7919 7.80045 28.214 8.04108 28.7205 8.2817Z" fill="url(#paint66_radial_0_3774)"/>
<path id="Vector_76" d="M28.7205 8.2817L28.636 10.2067C29.8178 10.7681 31.2526 10.4473 30.9994 11.8108L30.071 16.3828C29.9882 16.8549 29.6616 17.1727 29.1709 17.1845C29.227 16.4272 29.2793 15.2054 29.2997 15.0121C29.3681 14.3609 29.2608 14.1692 28.636 13.5754C28.2983 13.2546 28.0451 12.7733 28.0451 12.2921V11.0088C28.0451 10.6077 27.7076 10.2869 27.3699 10.2067C26.357 9.96604 24.2468 9.565 21.2082 9.565C18.1695 9.565 16.0594 9.96604 15.0464 10.2067C14.6244 10.2869 14.3712 10.6077 14.3712 11.0088V12.2921C14.3712 12.7733 14.2024 13.2546 13.7803 13.5754L13.5271 13.816C13.1896 14.0567 13.0191 14.5593 13.0191 14.9605C13.0416 15.1944 13.0747 16.5415 13.1124 17.1022C12.6406 17.0713 12.2568 16.7592 12.1766 16.3025L11.2481 11.7307C11.0794 10.4473 11.5489 11.1724 12.7307 10.611C14.3258 9.94268 15.1129 6.91972 16.397 5.87544C17.3255 5.07335 18.6759 4.83273 19.8577 5.39419C20.7018 5.63482 21.6302 5.63482 22.4743 5.39419C23.7404 4.99315 25.1753 5.31398 26.1883 6.19628L27.4544 7.39941C27.7919 7.80045 28.214 8.04108 28.7205 8.2817Z" fill="url(#paint67_radial_0_3774)"/>
<path id="Vector_77" d="M28.7205 8.2817L28.636 10.2067C29.8178 10.7681 31.2526 10.4473 30.9994 11.8108L30.071 16.3828C29.9882 16.8549 29.6616 17.1727 29.1709 17.1845C29.227 16.4272 29.2793 15.2054 29.2997 15.0121C29.3681 14.3609 29.2608 14.1692 28.636 13.5754C28.2983 13.2546 28.0451 12.7733 28.0451 12.2921V11.0088C28.0451 10.6077 27.7076 10.2869 27.3699 10.2067C26.357 9.96604 24.2468 9.565 21.2082 9.565C18.1695 9.565 16.0594 9.96604 15.0464 10.2067C14.6244 10.2869 14.3712 10.6077 14.3712 11.0088V12.2921C14.3712 12.7733 14.2024 13.2546 13.7803 13.5754L13.5271 13.816C13.1896 14.0567 13.0191 14.5593 13.0191 14.9605C13.0416 15.1944 13.0747 16.5415 13.1124 17.1022C12.6406 17.0713 12.2568 16.7592 12.1766 16.3025L11.2481 11.7307C11.0794 10.4473 11.5489 11.1724 12.7307 10.611C14.3258 9.94268 15.1129 6.91972 16.397 5.87544C17.3255 5.07335 18.6759 4.83273 19.8577 5.39419C20.7018 5.63482 21.6302 5.63482 22.4743 5.39419C23.7404 4.99315 25.1753 5.31398 26.1883 6.19628L27.4544 7.39941C27.7919 7.80045 28.214 8.04108 28.7205 8.2817Z" fill="url(#paint68_radial_0_3774)"/>
<g id="Group_20">
<path id="Vector_78" d="M20.704 17.8405L19.4136 20.3958C19.2536 20.9213 19.6374 21.447 20.1813 21.447H21.3411C21.8849 21.447 22.2687 20.9132 22.1088 20.3958L21.325 17.8405C21.157 17.2745 20.8799 17.2745 20.704 17.8405Z" fill="#F1901C"/>
</g>
<g id="Group_21">
<path id="Vector_79" d="M20.5371 17.5962L19.7012 20.1513C19.5306 20.677 19.94 21.2025 20.52 21.2025H21.7567C22.3367 21.2025 22.7461 20.6689 22.5755 20.1513L21.7396 17.5962C21.5606 17.0302 20.7248 17.0302 20.5371 17.5962Z" fill="#FFCC28"/>
<path id="Vector_80" d="M20.5371 17.5962L19.7012 20.1513C19.5306 20.677 19.94 21.2025 20.52 21.2025H21.7567C22.3367 21.2025 22.7461 20.6689 22.5755 20.1513L21.7396 17.5962C21.5606 17.0302 20.7248 17.0302 20.5371 17.5962Z" fill="url(#paint69_linear_0_3774)"/>
<path id="Vector_81" d="M20.5371 17.5962L19.7012 20.1513C19.5306 20.677 19.94 21.2025 20.52 21.2025H21.7567C22.3367 21.2025 22.7461 20.6689 22.5755 20.1513L21.7396 17.5962C21.5606 17.0302 20.7248 17.0302 20.5371 17.5962Z" fill="url(#paint70_linear_0_3774)"/>
<path id="Vector_82" d="M20.5371 17.5962L19.7012 20.1513C19.5306 20.677 19.94 21.2025 20.52 21.2025H21.7567C22.3367 21.2025 22.7461 20.6689 22.5755 20.1513L21.7396 17.5962C21.5606 17.0302 20.7248 17.0302 20.5371 17.5962Z" fill="url(#paint71_linear_0_3774)"/>
</g>
<g id="Group_22">
<path id="Vector_83" d="M21.137 22.7322C20.3386 22.7322 19.5881 22.5527 18.9573 22.2384C18.7418 22.1337 18.5102 22.3657 18.646 22.5527C19.173 23.3159 20.0911 23.8246 21.137 23.8246C22.1828 23.8246 23.1011 23.3159 23.628 22.5527C23.7637 22.3582 23.5322 22.1337 23.3166 22.2384C22.6859 22.5527 21.9434 22.7322 21.137 22.7322Z" stroke="url(#paint72_radial_0_3774)" stroke-width="0.907828"/>
</g>
<path id="Vector_84" d="M21.137 22.7324C20.3386 22.7324 19.5881 22.5529 18.9573 22.2386C18.7418 22.1338 18.5102 22.3659 18.646 22.5529C19.173 23.3161 20.0911 23.8248 21.137 23.8248C22.1828 23.8248 23.1011 23.3161 23.628 22.5529C23.7637 22.3583 23.5322 22.1338 23.3166 22.2386C22.6859 22.5529 21.9434 22.7324 21.137 22.7324Z" fill="#8A004F"/>
<path id="Vector_85" d="M24.8937 15.8721C25.921 15.8721 26.7885 16.5489 27.0246 17.4634C27.0949 17.7256 26.8843 17.9756 26.6036 17.9756H23.0947C22.8713 17.9756 22.6927 17.7804 22.7374 17.5671C22.9352 16.6037 23.822 15.8721 24.8937 15.8721Z" fill="white"/>
<path id="Vector_86" d="M24.57 16.2816C25.3485 16.2816 25.9736 16.8852 25.9736 17.623C25.9736 17.7449 25.9545 17.8668 25.9225 17.9766H23.2112C23.1792 17.8608 23.1602 17.7449 23.1602 17.623C23.1602 16.8852 23.7918 16.2816 24.57 16.2816Z" fill="url(#paint73_radial_0_3774)"/>
<path id="Vector_87" d="M23.7656 17.6231C23.7656 17.1962 24.1228 16.8549 24.5695 16.8549C25.016 16.8549 25.3733 17.1962 25.3733 17.6231C25.3733 17.7511 25.3414 17.8731 25.284 17.9768H23.8613C23.7974 17.8731 23.7656 17.7511 23.7656 17.6231Z" fill="black"/>
<g id="Group_23">
<path id="Vector_88" d="M24.4656 16.5657C24.5657 16.6935 24.3567 16.8494 24.119 17.0192C23.8814 17.189 23.7051 17.3085 23.605 17.1806C23.505 17.0528 23.6167 16.8115 23.8543 16.6417C24.0919 16.4719 24.3657 16.4379 24.4656 16.5657Z" fill="#C7A7A3"/>
<path id="Vector_89" d="M24.4656 16.5657C24.5657 16.6935 24.3567 16.8494 24.119 17.0192C23.8814 17.189 23.7051 17.3085 23.605 17.1806C23.505 17.0528 23.6167 16.8115 23.8543 16.6417C24.0919 16.4719 24.3657 16.4379 24.4656 16.5657Z" fill="url(#paint74_radial_0_3774)"/>
</g>
<g id="Group_24">
<path id="Vector_90" d="M25.8194 17.4461C25.7675 17.0992 25.5551 16.838 25.4555 16.7506L25.0469 17.1794L25.2312 17.5223L25.8194 17.4461Z" fill="url(#paint75_linear_0_3774)"/>
</g>
<path id="Vector_91" d="M17.3711 15.8721C16.3439 15.8721 15.4761 16.5489 15.2402 17.4635C15.17 17.7256 15.3805 17.9757 15.6613 17.9757H19.1703C19.3935 17.9757 19.5723 17.7806 19.5276 17.5671C19.3298 16.6037 18.4365 15.8721 17.3711 15.8721Z" fill="white"/>
<path id="Vector_92" d="M17.6965 16.2816C16.9182 16.2816 16.293 16.8852 16.293 17.6231C16.293 17.745 16.312 17.867 16.344 17.9766H19.0555C19.0874 17.8609 19.1065 17.745 19.1065 17.6231C19.1002 16.8852 18.4749 16.2816 17.6965 16.2816Z" fill="url(#paint76_radial_0_3774)"/>
<path id="Vector_93" d="M18.5004 17.6231C18.5004 17.1962 18.1431 16.8549 17.6966 16.8549C17.2499 16.8549 16.8926 17.1962 16.8926 17.6231C16.8926 17.7511 16.9245 17.8731 16.982 17.9768H18.4048C18.4621 17.8731 18.5004 17.7511 18.5004 17.6231Z" fill="black"/>
<g id="Group_25">
<path id="Vector_94" d="M18.9807 17.4667C18.9807 17.0332 18.6118 16.7443 18.5122 16.6569L18.0586 17.0761L18.3377 17.6191L18.9807 17.4667Z" fill="url(#paint77_linear_0_3774)"/>
</g>
<g id="Group_26">
<path id="Vector_95" d="M17.4197 17.1163C17.7188 16.9649 17.8962 16.7249 17.816 16.5803C17.7358 16.4356 17.4284 16.4411 17.1294 16.5925C16.8303 16.744 16.6529 16.984 16.7331 17.1286C16.8132 17.2732 17.1207 17.2677 17.4197 17.1163Z" fill="#C7A7A3" fill-opacity="0.9"/>
<path id="Vector_96" d="M17.4197 17.1163C17.7188 16.9649 17.8962 16.7249 17.816 16.5803C17.7358 16.4356 17.4284 16.4411 17.1294 16.5925C16.8303 16.744 16.6529 16.984 16.7331 17.1286C16.8132 17.2732 17.1207 17.2677 17.4197 17.1163Z" fill="url(#paint78_radial_0_3774)"/>
</g>
<g id="Group_27">
<path id="Vector_97" fill-rule="evenodd" clip-rule="evenodd" d="M23.9391 14.1749C25.0714 14.0738 25.7974 14.4961 25.9736 14.6511C26.2753 14.917 26.7454 14.8986 27.0234 14.6102C27.3014 14.3219 27.2822 13.8726 26.9806 13.6069C26.4988 13.1826 25.3579 12.6218 23.8007 12.7611C23.3922 12.7976 23.092 13.1437 23.1302 13.5341C23.1684 13.9246 23.5306 14.2115 23.9391 14.1749Z" fill="url(#paint79_radial_0_3774)"/>
</g>
<g id="Group_28">
<path id="Vector_98" d="M26.4762 13.9616C26.1473 13.6719 25.2138 13.1804 23.8691 13.3006" stroke="#D76D5B" stroke-width="1.13478" stroke-linecap="round"/>
</g>
<g id="Group_29">
<path id="Vector_99" fill-rule="evenodd" clip-rule="evenodd" d="M18.3356 14.1749C17.2033 14.0738 16.4773 14.4961 16.3011 14.6511C15.9994 14.917 15.5293 14.8986 15.2513 14.6102C14.9732 14.3219 14.9925 13.8726 15.2941 13.6069C15.7757 13.1826 16.9168 12.6218 18.4739 12.7611C18.8824 12.7976 19.1826 13.1437 19.1444 13.5341C19.1063 13.9246 18.7441 14.2115 18.3356 14.1749Z" fill="url(#paint80_radial_0_3774)"/>
</g>
<g id="Group_30">
<path id="Vector_100" d="M15.7988 13.9616C16.1277 13.6719 17.0613 13.1804 18.4059 13.3006" stroke="#D76D5B" stroke-width="1.13478" stroke-linecap="round"/>
</g>
<path id="Vector_101" d="M12.4316 9.38512C12.4316 4.77283 16.3439 1.03381 21.17 1.03381C25.9961 1.03381 29.9085 4.77283 29.9085 9.38512V11.7695H12.4316V9.38512Z" fill="url(#paint81_radial_0_3774)"/>
<path id="Vector_102" d="M12.4316 9.38512C12.4316 4.77283 16.3439 1.03381 21.17 1.03381C25.9961 1.03381 29.9085 4.77283 29.9085 9.38512V11.7695H12.4316V9.38512Z" fill="url(#paint82_radial_0_3774)"/>
<path id="Vector_103" d="M12.4316 9.38512C12.4316 4.77283 16.3439 1.03381 21.17 1.03381C25.9961 1.03381 29.9085 4.77283 29.9085 9.38512V11.7695H12.4316V9.38512Z" fill="url(#paint83_radial_0_3774)"/>
<path id="Vector_104" d="M12.5047 8.30048C12.4568 8.65558 12.4316 9.0177 12.4316 9.38536V11.7698H29.9085V9.38536C29.9085 9.0177 29.8834 8.65558 29.8352 8.30048H12.5047Z" fill="url(#paint84_radial_0_3774)"/>
<path id="Vector_105" d="M12.5047 8.30048C12.4568 8.65558 12.4316 9.0177 12.4316 9.38536V11.7698H29.9085V9.38536C29.9085 9.0177 29.8834 8.65558 29.8352 8.30048H12.5047Z" fill="url(#paint85_linear_0_3774)"/>
<path id="Vector_106" d="M31.5754 10.2188H10.7286C10.0004 10.2188 9.41016 10.7829 9.41016 11.4788V11.4788C9.41016 12.1747 10.0004 12.7388 10.7286 12.7388H31.5754C32.3036 12.7388 32.8939 12.1747 32.8939 11.4788C32.8939 10.7829 32.3036 10.2188 31.5754 10.2188Z" fill="url(#paint86_radial_0_3774)"/>
<path id="Vector_107" d="M31.5754 10.2188H10.7286C10.0004 10.2188 9.41016 10.7829 9.41016 11.4788V11.4788C9.41016 12.1747 10.0004 12.7388 10.7286 12.7388H31.5754C32.3036 12.7388 32.8939 12.1747 32.8939 11.4788C32.8939 10.7829 32.3036 10.2188 31.5754 10.2188Z" fill="url(#paint87_radial_0_3774)"/>
<path id="Vector_108" d="M31.5754 10.2188H10.7286C10.0004 10.2188 9.41016 10.7829 9.41016 11.4788V11.4788C9.41016 12.1747 10.0004 12.7388 10.7286 12.7388H31.5754C32.3036 12.7388 32.8939 12.1747 32.8939 11.4788C32.8939 10.7829 32.3036 10.2188 31.5754 10.2188Z" fill="url(#paint88_linear_0_3774)"/>
</g>
<defs>
<radialGradient id="paint0_radial_0_3774" cx="0" cy="0" r="1" gradientUnits="userSpaceOnUse" gradientTransform="translate(35.0875 27.3417) rotate(136.517) scale(19.1813 18.5645)">
<stop offset="0.195375" stop-color="#FBF2F7"/>
<stop offset="0.654795" stop-color="#D4C4DA"/>
</radialGradient>
<radialGradient id="paint1_radial_0_3774" cx="0" cy="0" r="1" gradientUnits="userSpaceOnUse" gradientTransform="translate(9.35716 33.5798) scale(4.16227 8.95025)">
<stop stop-color="#DED4E0"/>
<stop offset="1" stop-color="#DED4E0" stop-opacity="0"/>
</radialGradient>
<radialGradient id="paint2_radial_0_3774" cx="0" cy="0" r="1" gradientUnits="userSpaceOnUse" gradientTransform="translate(26.3846 25.9856) rotate(90) scale(3.02862 4.96635)">
<stop stop-color="#EFD8D5"/>
<stop offset="1" stop-color="#EFD8D5" stop-opacity="0"/>
</radialGradient>
<radialGradient id="paint3_radial_0_3774" cx="0" cy="0" r="1" gradientUnits="userSpaceOnUse" gradientTransform="translate(27.5671 34.3482) rotate(180) scale(2.64872 16.9512)">
<stop offset="0.214286" stop-color="#B1A0B8"/>
<stop offset="1" stop-color="#D1BED4" stop-opacity="0"/>
</radialGradient>
<radialGradient id="paint4_radial_0_3774" cx="0" cy="0" r="1" gradientUnits="userSpaceOnUse" gradientTransform="translate(13.4248 33.4894) rotate(180) scale(1.75005 8.33045)">
<stop stop-color="#BEB4C6"/>
<stop offset="1" stop-color="#BEB4C6" stop-opacity="0"/>
</radialGradient>
<radialGradient id="paint5_radial_0_3774" cx="0" cy="0" r="1" gradientUnits="userSpaceOnUse" gradientTransform="translate(6.66136 13.9622) rotate(119.978) scale(4.07041 4.03563)">
<stop offset="0.0770201" stop-color="#4BB8FB"/>
<stop offset="1" stop-color="#357ACE"/>
</radialGradient>
<radialGradient id="paint6_radial_0_3774" cx="0" cy="0" r="1" gradientUnits="userSpaceOnUse" gradientTransform="translate(6.75596 14.0526) rotate(116.158) scale(4.93538 4.43524)">
<stop offset="0.451506" stop-color="#3A7AB4" stop-opacity="0"/>
<stop offset="0.826267" stop-color="#5F679A"/>
</radialGradient>
<radialGradient id="paint7_radial_0_3774" cx="0" cy="0" r="1" gradientUnits="userSpaceOnUse" gradientTransform="translate(11.0715 0.971863) rotate(119.978) scale(4.07041 4.03563)">
<stop offset="0.0770201" stop-color="#FF894E"/>
<stop offset="1" stop-color="#E35838"/>
</radialGradient>
<radialGradient id="paint8_radial_0_3774" cx="0" cy="0" r="1" gradientUnits="userSpaceOnUse" gradientTransform="translate(11.1661 1.06227) rotate(116.158) scale(4.93538 4.43524)">
<stop offset="0.451506" stop-color="#DE5534" stop-opacity="0"/>
<stop offset="0.826267" stop-color="#B6424C"/>
</radialGradient>
<radialGradient id="paint9_radial_0_3774" cx="0" cy="0" r="1" gradientUnits="userSpaceOnUse" gradientTransform="translate(35.2356 2.44074) rotate(119.978) scale(4.07041 4.03563)">
<stop offset="0.0770201" stop-color="#9AE453"/>
<stop offset="1" stop-color="#5C9946"/>
</radialGradient>
<radialGradient id="paint10_radial_0_3774" cx="0" cy="0" r="1" gradientUnits="userSpaceOnUse" gradientTransform="translate(34.6148 2.38988) rotate(105.693) scale(5.07098 5.13565)">
<stop offset="0.37513" stop-color="#61A150" stop-opacity="0"/>
<stop offset="0.826267" stop-color="#415E58"/>
</radialGradient>
<radialGradient id="paint11_radial_0_3774" cx="0" cy="0" r="1" gradientUnits="userSpaceOnUse" gradientTransform="translate(36.7843 16.844) rotate(119.978) scale(4.07041 4.03563)">
<stop offset="0.0770201" stop-color="#FFFF54"/>
<stop offset="1" stop-color="#E1AC3A"/>
</radialGradient>
<radialGradient id="paint12_radial_0_3774" cx="0" cy="0" r="1" gradientUnits="userSpaceOnUse" gradientTransform="translate(33.5739 16.1771) rotate(45.8569) scale(2.17322 3.20804)">
<stop stop-color="#B8A734"/>
<stop offset="1" stop-color="#E4CC30" stop-opacity="0"/>
</radialGradient>
<radialGradient id="paint13_radial_0_3774" cx="0" cy="0" r="1" gradientUnits="userSpaceOnUse" gradientTransform="translate(36.5064 16.9457) rotate(109.927) scale(5.0306 5.07564)">
<stop offset="0.346841" stop-color="#F2C341" stop-opacity="0"/>
<stop offset="0.829048" stop-color="#CF8B51"/>
</radialGradient>
<radialGradient id="paint14_radial_0_3774" cx="0" cy="0" r="1" gradientUnits="userSpaceOnUse" gradientTransform="translate(21.8919 37.1465) rotate(124.806) scale(2.00943 1.7332)">
<stop offset="0.212303" stop-color="#F0DFF0"/>
<stop offset="1" stop-color="#DCC8EC"/>
</radialGradient>
<radialGradient id="paint15_radial_0_3774" cx="0" cy="0" r="1" gradientUnits="userSpaceOnUse" gradientTransform="translate(21.8919 34.2361) rotate(124.806) scale(2.00944 1.7332)">
<stop offset="0.212303" stop-color="#F0DFF0"/>
<stop offset="1" stop-color="#DCC8EC"/>
</radialGradient>
<radialGradient id="paint16_radial_0_3774" cx="0" cy="0" r="1" gradientUnits="userSpaceOnUse" gradientTransform="translate(29.4178 27.2069) rotate(90) scale(11.6172 3.63574)">
<stop stop-color="#9E78C9"/>
<stop offset="1" stop-color="#6F5EA2"/>
</radialGradient>
<linearGradient id="paint17_linear_0_3774" x1="29.9331" y1="39.9995" x2="28.7979" y2="39.9995" gradientUnits="userSpaceOnUse">
<stop stop-color="#7A6CAD"/>
<stop offset="1" stop-color="#7A6CAD" stop-opacity="0"/>
</linearGradient>
<linearGradient id="paint18_linear_0_3774" x1="27.0293" y1="38.8242" x2="27.6627" y2="38.8242" gradientUnits="userSpaceOnUse">
<stop stop-color="#6D5096"/>
<stop offset="1" stop-color="#7160A4" stop-opacity="0"/>
</linearGradient>
<radialGradient id="paint19_radial_0_3774" cx="0" cy="0" r="1" gradientUnits="userSpaceOnUse" gradientTransform="translate(15.2421 30.3266) rotate(90) scale(8.95025 2.10109)">
<stop stop-color="#8566B5"/>
<stop offset="1" stop-color="#7060A5"/>
</radialGradient>
<radialGradient id="paint20_radial_0_3774" cx="0" cy="0" r="1" gradientUnits="userSpaceOnUse" gradientTransform="translate(15.5532 31.728) rotate(90) scale(7.59415 0.922322)">
<stop stop-color="#896BB4"/>
<stop offset="1" stop-color="#896BB4" stop-opacity="0"/>
</radialGradient>
<radialGradient id="paint21_radial_0_3774" cx="0" cy="0" r="1" gradientUnits="userSpaceOnUse" gradientTransform="translate(11.391 37.74) rotate(-68.9559) scale(12.3817 11.3244)">
<stop offset="0.723885" stop-color="#775184" stop-opacity="0"/>
<stop offset="1" stop-color="#775184"/>
</radialGradient>
<radialGradient id="paint22_radial_0_3774" cx="0" cy="0" r="1" gradientUnits="userSpaceOnUse" gradientTransform="translate(15.2421 28.2699) rotate(90) scale(9.28928 0.280097)">
<stop stop-color="#784B89"/>
<stop offset="1" stop-color="#784B89" stop-opacity="0"/>
</radialGradient>
<radialGradient id="paint23_radial_0_3774" cx="0" cy="0" r="1" gradientUnits="userSpaceOnUse" gradientTransform="translate(25.3932 26.9348) rotate(149.27) scale(6.87806 11.8851)">
<stop stop-color="#F8E6E8"/>
<stop offset="1" stop-color="#DABDC3"/>
</radialGradient>
<radialGradient id="paint24_radial_0_3774" cx="0" cy="0" r="1" gradientUnits="userSpaceOnUse" gradientTransform="translate(25.2749 29.3758) rotate(-165.703) scale(0.732157 3.079)">
<stop offset="0.107884" stop-color="#DBCDD4"/>
<stop offset="1" stop-color="#DBCDD4" stop-opacity="0"/>
</radialGradient>
<linearGradient id="paint25_linear_0_3774" x1="10.2098" y1="36.5641" x2="3.2096" y2="36.5641" gradientUnits="userSpaceOnUse">
<stop stop-color="#ECE4F4"/>
<stop offset="1" stop-color="#C0B5CD"/>
</linearGradient>
<linearGradient id="paint26_linear_0_3774" x1="10.5409" y1="36.0217" x2="9.14556" y2="36.0217" gradientUnits="userSpaceOnUse">
<stop stop-color="#DECFD8"/>
<stop offset="1" stop-color="#E5DDEE" stop-opacity="0"/>
</linearGradient>
<linearGradient id="paint27_linear_0_3774" x1="37.9677" y1="37.5628" x2="30.3584" y2="37.5628" gradientUnits="userSpaceOnUse">
<stop stop-color="#EDE7F3"/>
<stop offset="0.90676" stop-color="#B9AAC8"/>
</linearGradient>
<linearGradient id="paint28_linear_0_3774" x1="38.2987" y1="37.1781" x2="36.9033" y2="37.1781" gradientUnits="userSpaceOnUse">
<stop stop-color="#E0DDE3"/>
<stop offset="1" stop-color="#E0DDE3" stop-opacity="0"/>
</linearGradient>
<radialGradient id="paint29_radial_0_3774" cx="0" cy="0" r="1" gradientUnits="userSpaceOnUse" gradientTransform="translate(16.6333 30.643) rotate(36.4761) scale(3.27289 3.55041)">
<stop stop-color="#E7377C"/>
<stop offset="1" stop-color="#D72C5E"/>
</radialGradient>
<radialGradient id="paint30_radial_0_3774" cx="0" cy="0" r="1" gradientUnits="userSpaceOnUse" gradientTransform="translate(19.1161 31.3335) rotate(-164.888) scale(2.64887 4.24064)">
<stop offset="0.690378" stop-color="#EF4C8B" stop-opacity="0"/>
<stop offset="1" stop-color="#EF4C8B"/>
</radialGradient>
<radialGradient id="paint31_radial_0_3774" cx="0" cy="0" r="1" gradientUnits="userSpaceOnUse" gradientTransform="translate(20.1658 31.3335) rotate(108.272) scale(2.4138 1.18609)">
<stop stop-color="#D61F4D"/>
<stop offset="1" stop-color="#D61F4D" stop-opacity="0"/>
</radialGradient>
<radialGradient id="paint32_radial_0_3774" cx="0" cy="0" r="1" gradientUnits="userSpaceOnUse" gradientTransform="translate(25.7075 30.643) rotate(143.524) scale(3.27289 3.55041)">
<stop stop-color="#E9387A"/>
<stop offset="1" stop-color="#D02759"/>
</radialGradient>
<radialGradient id="paint33_radial_0_3774" cx="0" cy="0" r="1" gradientUnits="userSpaceOnUse" gradientTransform="translate(23.2247 31.3335) rotate(-15.1117) scale(2.64887 4.24064)">
<stop offset="0.690378" stop-color="#EF4C8B" stop-opacity="0"/>
<stop offset="1" stop-color="#EF4C8B"/>
</radialGradient>
<linearGradient id="paint34_linear_0_3774" x1="21.1543" y1="29.8542" x2="21.1543" y2="32.7449" gradientUnits="userSpaceOnUse">
<stop offset="0.351052" stop-color="#EB3782"/>
<stop offset="1" stop-color="#C93857"/>
</linearGradient>
<radialGradient id="paint35_radial_0_3774" cx="0" cy="0" r="1" gradientUnits="userSpaceOnUse" gradientTransform="translate(22.3298 30.9821) rotate(180) scale(0.59234 3.75048)">
<stop stop-color="#EC4182"/>
<stop offset="1" stop-color="#EC4182" stop-opacity="0"/>
</radialGradient>
<radialGradient id="paint36_radial_0_3774" cx="0" cy="0" r="1" gradientUnits="userSpaceOnUse" gradientTransform="translate(38.3054 29.3379) rotate(162.533) scale(6.94189 6.45344)">
<stop offset="0.240534" stop-color="#FFDA02"/>
<stop offset="0.8986" stop-color="#FFC12E"/>
</radialGradient>
<radialGradient id="paint37_radial_0_3774" cx="0" cy="0" r="1" gradientUnits="userSpaceOnUse" gradientTransform="translate(36.5495 28.589) rotate(163.8) scale(5.88368 19.5812)">
<stop offset="0.69937" stop-color="#EDA628" stop-opacity="0"/>
<stop offset="1" stop-color="#D1923D"/>
</radialGradient>
<radialGradient id="paint38_radial_0_3774" cx="0" cy="0" r="1" gradientUnits="userSpaceOnUse" gradientTransform="translate(9.19255 22.5061) rotate(141.243) scale(2.27453 5.3593)">
<stop offset="0.129143" stop-color="#FFCE38"/>
<stop offset="1" stop-color="#F5A913"/>
</radialGradient>
<radialGradient id="paint39_radial_0_3774" cx="0" cy="0" r="1" gradientUnits="userSpaceOnUse" gradientTransform="translate(5.53341 22.2462) rotate(123.148) scale(2.19739 4.28767)">
<stop stop-color="#FFDD43"/>
<stop offset="1" stop-color="#FAB32C"/>
</radialGradient>
<radialGradient id="paint40_radial_0_3774" cx="0" cy="0" r="1" gradientUnits="userSpaceOnUse" gradientTransform="translate(6.34375 21.8617) rotate(107.073) scale(3.7653 6.01349)">
<stop offset="0.630198" stop-color="#EFA929" stop-opacity="0"/>
<stop offset="1" stop-color="#C3863F"/>
</radialGradient>
<radialGradient id="paint41_radial_0_3774" cx="0" cy="0" r="1" gradientUnits="userSpaceOnUse" gradientTransform="translate(3.45022 22.8531) rotate(117.655) scale(2.31618 4.05853)">
<stop stop-color="#FFDD43"/>
<stop offset="1" stop-color="#FAB32C"/>
</radialGradient>
<radialGradient id="paint42_radial_0_3774" cx="0" cy="0" r="1" gradientUnits="userSpaceOnUse" gradientTransform="translate(4.17528 22.4243) rotate(103.843) scale(4.13378 5.46505)">
<stop offset="0.630198" stop-color="#EFA929" stop-opacity="0"/>
<stop offset="1" stop-color="#C3863F"/>
</radialGradient>
<radialGradient id="paint43_radial_0_3774" cx="0" cy="0" r="1" gradientUnits="userSpaceOnUse" gradientTransform="translate(3.25805 24.2626) rotate(120.364) scale(2.05011 3.81096)">
<stop stop-color="#FFDD43"/>
<stop offset="1" stop-color="#FAB32C"/>
</radialGradient>
<radialGradient id="paint44_radial_0_3774" cx="0" cy="0" r="1" gradientUnits="userSpaceOnUse" gradientTransform="translate(3.95695 23.893) rotate(105.403) scale(3.58964 5.23071)">
<stop offset="0.630198" stop-color="#EFA929" stop-opacity="0"/>
<stop offset="1" stop-color="#C3863F"/>
</radialGradient>
<radialGradient id="paint45_radial_0_3774" cx="0" cy="0" r="1" gradientUnits="userSpaceOnUse" gradientTransform="translate(3.70489 25.7147) rotate(123.883) scale(1.82408 3.59813)">
<stop stop-color="#FFDD43"/>
<stop offset="1" stop-color="#FAB32C"/>
</radialGradient>
<radialGradient id="paint46_radial_0_3774" cx="0" cy="0" r="1" gradientUnits="userSpaceOnUse" gradientTransform="translate(4.39073 25.3983) rotate(107.526) scale(3.10684 5.07694)">
<stop offset="0.630198" stop-color="#EFA929" stop-opacity="0"/>
<stop offset="1" stop-color="#C3863F"/>
</radialGradient>
<radialGradient id="paint47_radial_0_3774" cx="0" cy="0" r="1" gradientUnits="userSpaceOnUse" gradientTransform="translate(10.1815 28.3588) rotate(-162.76) scale(5.56678 7.41187)">
<stop stop-color="#FFE23D"/>
<stop offset="1" stop-color="#FFBD23"/>
</radialGradient>
<radialGradient id="paint48_radial_0_3774" cx="0" cy="0" r="1" gradientUnits="userSpaceOnUse" gradientTransform="translate(5.10137 28.3588) rotate(-84.3625) scale(1.20371 5.90903)">
<stop stop-color="#D2991F"/>
<stop offset="1" stop-color="#F7B528" stop-opacity="0"/>
</radialGradient>
<radialGradient id="paint49_radial_0_3774" cx="0" cy="0" r="1" gradientUnits="userSpaceOnUse" gradientTransform="translate(20.0465 26.3476) rotate(50.385) scale(3.93151 4.52612)">
<stop offset="0.228556" stop-color="#D27429"/>
<stop offset="1" stop-color="#E69530"/>
</radialGradient>
<radialGradient id="paint50_radial_0_3774" cx="0" cy="0" r="1" gradientUnits="userSpaceOnUse" gradientTransform="translate(36.8323 26.3462) rotate(167.96) scale(4.07887 42.246)">
<stop stop-color="#FFD709"/>
<stop offset="1" stop-color="#FFC32B"/>
</radialGradient>
<radialGradient id="paint51_radial_0_3774" cx="0" cy="0" r="1" gradientUnits="userSpaceOnUse" gradientTransform="translate(11.039 18.0236) scale(2.76145 4.61849)">
<stop offset="0.350532" stop-color="#E6962B"/>
<stop offset="1" stop-color="#CA8F29"/>
</radialGradient>
<linearGradient id="paint52_linear_0_3774" x1="13.6648" y1="18.4422" x2="12.6572" y2="18.4422" gradientUnits="userSpaceOnUse">
<stop stop-color="#BD6A1E"/>
<stop offset="1" stop-color="#D77A1C"/>
</linearGradient>
<linearGradient id="paint53_linear_0_3774" x1="30.3464" y1="16.3827" x2="29.16" y2="20.2285" gradientUnits="userSpaceOnUse">
<stop stop-color="#FFE446"/>
<stop offset="1" stop-color="#FFC339"/>
</linearGradient>
<radialGradient id="paint54_radial_0_3774" cx="0" cy="0" r="1" gradientUnits="userSpaceOnUse" gradientTransform="translate(29.2223 17.626) rotate(-34.834) scale(1.5849 1.78232)">
<stop offset="0.542503" stop-color="#FFC532"/>
<stop offset="1" stop-color="#FFC532" stop-opacity="0"/>
</radialGradient>
<radialGradient id="paint55_radial_0_3774" cx="0" cy="0" r="1" gradientUnits="userSpaceOnUse" gradientTransform="translate(28.5704 19.258) rotate(-60.3648) scale(2.61265 1.56618)">
<stop offset="0.689542" stop-color="#F4A51A" stop-opacity="0"/>
<stop offset="1" stop-color="#F4A51A"/>
</radialGradient>
<radialGradient id="paint56_radial_0_3774" cx="0" cy="0" r="1" gradientUnits="userSpaceOnUse" gradientTransform="translate(28.6355 18.0233) rotate(43.4105) scale(0.561467 0.722733)">
<stop stop-color="#E59B1F"/>
<stop offset="1" stop-color="#E59B1F" stop-opacity="0"/>
</radialGradient>
<linearGradient id="paint57_linear_0_3774" x1="27.4891" y1="18.6109" x2="15.4965" y2="20.4807" gradientUnits="userSpaceOnUse">
<stop stop-color="#FFE833"/>
<stop offset="0.91602" stop-color="#F9A528"/>
</linearGradient>
<linearGradient id="paint58_linear_0_3774" x1="12.6472" y1="22.6653" x2="16.2805" y2="22.1694" gradientUnits="userSpaceOnUse">
<stop stop-color="#D19C3A"/>
<stop offset="1" stop-color="#D19C3A" stop-opacity="0"/>
</linearGradient>
<radialGradient id="paint59_radial_0_3774" cx="0" cy="0" r="1" gradientUnits="userSpaceOnUse" gradientTransform="translate(21.9104 15.6324) rotate(90) scale(12.9119 15.4263)">
<stop offset="0.526117" stop-color="#FFA63F" stop-opacity="0"/>
<stop offset="0.925308" stop-color="#D4783E"/>
</radialGradient>
<radialGradient id="paint60_radial_0_3774" cx="0" cy="0" r="1" gradientUnits="userSpaceOnUse" gradientTransform="translate(24.8299 16.1129) rotate(-90) scale(1.96571 2.53148)">
<stop stop-color="#FFBA0D"/>
<stop offset="1" stop-color="#FFBA0D" stop-opacity="0"/>
</radialGradient>
<radialGradient id="paint61_radial_0_3774" cx="0" cy="0" r="1" gradientUnits="userSpaceOnUse" gradientTransform="translate(17.6573 16.0626) rotate(-90) scale(2.09172 2.72181)">
<stop stop-color="#EE911A"/>
<stop offset="1" stop-color="#EE911A" stop-opacity="0"/>
</radialGradient>
<linearGradient id="paint62_linear_0_3774" x1="21.1835" y1="11.5217" x2="21.1835" y2="14.7763" gradientUnits="userSpaceOnUse">
<stop offset="0.236111" stop-color="#D98827"/>
<stop offset="1" stop-color="#F5A624" stop-opacity="0"/>
</linearGradient>
<radialGradient id="paint63_radial_0_3774" cx="0" cy="0" r="1" gradientUnits="userSpaceOnUse" gradientTransform="translate(26.9481 6.42397) rotate(129.071) scale(8.58003 14.742)">
<stop stop-color="#FFE336"/>
<stop offset="1" stop-color="#FFE336" stop-opacity="0"/>
</radialGradient>
<linearGradient id="paint64_linear_0_3774" x1="13.4887" y1="17.6217" x2="17.7484" y2="9.70438" gradientUnits="userSpaceOnUse">
<stop stop-color="#E07027"/>
<stop offset="1" stop-color="#E07027" stop-opacity="0"/>
</linearGradient>
<radialGradient id="paint65_radial_0_3774" cx="0" cy="0" r="1" gradientUnits="userSpaceOnUse" gradientTransform="translate(14.6294 12.552) rotate(-95.5338) scale(3.01055 1.54584)">
<stop offset="0.22158" stop-color="#FFB42C"/>
<stop offset="1" stop-color="#FFB42C" stop-opacity="0"/>
</radialGradient>
<radialGradient id="paint66_radial_0_3774" cx="0" cy="0" r="1" gradientUnits="userSpaceOnUse" gradientTransform="translate(27.7892 15.4109) rotate(-65.4327) scale(3.25174 2.73342)">
<stop offset="0.478737" stop-color="#E57D1C"/>
<stop offset="1" stop-color="#E57D1C" stop-opacity="0"/>
</radialGradient>
<radialGradient id="paint67_radial_0_3774" cx="0" cy="0" r="1" gradientUnits="userSpaceOnUse" gradientTransform="translate(19.9179 5.08821) rotate(49.8598) scale(2.42337 2.15823)">
<stop stop-color="#FFCE2C"/>
<stop offset="1" stop-color="#FFCE2C" stop-opacity="0"/>
</radialGradient>
<radialGradient id="paint68_radial_0_3774" cx="0" cy="0" r="1" gradientUnits="userSpaceOnUse" gradientTransform="translate(27.7291 11.6783) rotate(-63.4284) scale(5.10443 1.8134)">
<stop stop-color="#FFD93A"/>
<stop offset="1" stop-color="#FFD93A" stop-opacity="0"/>
</radialGradient>
<linearGradient id="paint69_linear_0_3774" x1="19.7789" y1="19.6018" x2="21.2548" y2="19.6018" gradientUnits="userSpaceOnUse">
<stop stop-color="#FAA416"/>
<stop offset="1" stop-color="#FAA416" stop-opacity="0"/>
</linearGradient>
<linearGradient id="paint70_linear_0_3774" x1="22.6146" y1="20.0865" x2="21.0012" y2="20.0624" gradientUnits="userSpaceOnUse">
<stop stop-color="#FFE721"/>
<stop offset="1" stop-color="#FFE721" stop-opacity="0"/>
</linearGradient>
<linearGradient id="paint71_linear_0_3774" x1="21.4443" y1="21.2025" x2="21.4443" y2="20.3411" gradientUnits="userSpaceOnUse">
<stop stop-color="#EB8A1C"/>
<stop offset="1" stop-color="#EB8A1C" stop-opacity="0"/>
</linearGradient>
<radialGradient id="paint72_radial_0_3774" cx="0" cy="0" r="1" gradientUnits="userSpaceOnUse" gradientTransform="translate(21.0038 24.0588) rotate(-87.6503) scale(0.944143 2.96328)">
<stop stop-color="#FFD069"/>
<stop offset="1" stop-color="#FFBE30" stop-opacity="0"/>
</radialGradient>
<radialGradient id="paint73_radial_0_3774" cx="0" cy="0" r="1" gradientUnits="userSpaceOnUse" gradientTransform="translate(24.5669 17.5) rotate(90) scale(1.35778 1.68108)">
<stop offset="0.75" stop-color="#925C51"/>
<stop offset="1" stop-color="#85534D"/>
</radialGradient>
<radialGradient id="paint74_radial_0_3774" cx="0" cy="0" r="1" gradientUnits="userSpaceOnUse" gradientTransform="translate(24.2068 17.1255) rotate(-129.076) scale(0.578624 0.804857)">
<stop offset="0.765532" stop-color="#FFE6E2" stop-opacity="0"/>
<stop offset="0.966159" stop-color="#FFE6E2"/>
</radialGradient>
<linearGradient id="paint75_linear_0_3774" x1="25.7894" y1="17.0793" x2="25.3086" y2="17.3893" gradientUnits="userSpaceOnUse">
<stop stop-color="#B4948D"/>
<stop offset="1" stop-color="#B4948D" stop-opacity="0"/>
</linearGradient>
<radialGradient id="paint76_radial_0_3774" cx="0" cy="0" r="1" gradientUnits="userSpaceOnUse" gradientTransform="translate(17.6997 17.5002) rotate(90) scale(1.35785 1.68117)">
<stop offset="0.75" stop-color="#925C51"/>
<stop offset="1" stop-color="#85534D"/>
</radialGradient>
<linearGradient id="paint77_linear_0_3774" x1="18.8714" y1="17.0809" x2="18.3905" y2="17.391" gradientUnits="userSpaceOnUse">
<stop stop-color="#B4948D"/>
<stop offset="1" stop-color="#B4948D" stop-opacity="0"/>
</linearGradient>
<radialGradient id="paint78_radial_0_3774" cx="0" cy="0" r="1" gradientUnits="userSpaceOnUse" gradientTransform="translate(17.4854 17.2833) rotate(-119.92) scale(0.750851 0.924033)">
<stop offset="0.765532" stop-color="#FFE6E2" stop-opacity="0"/>
<stop offset="0.966159" stop-color="#FFE6E2"/>
</radialGradient>
<radialGradient id="paint79_radial_0_3774" cx="0" cy="0" r="1" gradientUnits="userSpaceOnUse" gradientTransform="translate(24.9951 14.1845) rotate(-75.7665) scale(1.25904 2.87502)">
<stop offset="0.656765" stop-color="#C64F38"/>
<stop offset="1" stop-color="#BB4F29"/>
</radialGradient>
<radialGradient id="paint80_radial_0_3774" cx="0" cy="0" r="1" gradientUnits="userSpaceOnUse" gradientTransform="translate(17.2796 14.1845) rotate(-104.234) scale(1.25904 2.87502)">
<stop offset="0.656765" stop-color="#C64F38"/>
<stop offset="1" stop-color="#BB4F29"/>
</radialGradient>
<radialGradient id="paint81_radial_0_3774" cx="0" cy="0" r="1" gradientUnits="userSpaceOnUse" gradientTransform="translate(27.1414 3.47479) rotate(144.368) scale(10.2421 8.85437)">
<stop offset="0.179091" stop-color="#5E5764"/>
<stop offset="1" stop-color="#372F3C"/>
</radialGradient>
<radialGradient id="paint82_radial_0_3774" cx="0" cy="0" r="1" gradientUnits="userSpaceOnUse" gradientTransform="translate(12.1005 7.99512) rotate(7.10565) scale(4.38514 6.5296)">
<stop stop-color="#5B5A5D"/>
<stop offset="1" stop-color="#38303E" stop-opacity="0"/>
</radialGradient>
<radialGradient id="paint83_radial_0_3774" cx="0" cy="0" r="1" gradientUnits="userSpaceOnUse" gradientTransform="translate(21.17 8.89918) rotate(-90) scale(8.49822 12.1676)">
<stop offset="0.760638" stop-color="#5D5565" stop-opacity="0"/>
<stop offset="1" stop-color="#5D5565"/>
</radialGradient>
<radialGradient id="paint84_radial_0_3774" cx="0" cy="0" r="1" gradientUnits="userSpaceOnUse" gradientTransform="translate(23.6413 8.30048) rotate(90) scale(2.13585 12.5341)">
<stop stop-color="#9072CA"/>
<stop offset="1" stop-color="#634D93"/>
</radialGradient>
<linearGradient id="paint85_linear_0_3774" x1="21.17" y1="8.30048" x2="21.17" y2="8.5717" gradientUnits="userSpaceOnUse">
<stop stop-color="#745BA5"/>
<stop offset="1" stop-color="#745BA5" stop-opacity="0"/>
</linearGradient>
<radialGradient id="paint86_radial_0_3774" cx="0" cy="0" r="1" gradientUnits="userSpaceOnUse" gradientTransform="translate(27.9748 11.1341) rotate(180) scale(10.8787 0.915367)">
<stop stop-color="#605966"/>
<stop offset="1" stop-color="#392F42"/>
</radialGradient>
<radialGradient id="paint87_radial_0_3774" cx="0" cy="0" r="1" gradientUnits="userSpaceOnUse" gradientTransform="translate(9.41016 11.4788) scale(5.2738 2.90996)">
<stop stop-color="#5B595E"/>
<stop offset="1" stop-color="#3E3843" stop-opacity="0"/>
</radialGradient>
<linearGradient id="paint88_linear_0_3774" x1="22.9611" y1="12.7389" x2="22.9611" y2="11.6314" gradientUnits="userSpaceOnUse">
<stop stop-color="#543459"/>
<stop offset="1" stop-color="#462F5A" stop-opacity="0"/>
</linearGradient>
</defs>
</svg>
