<svg width="32" height="40" viewBox="0 0 32 40" fill="none" xmlns="http://www.w3.org/2000/svg">
<g id="&#240;&#159;&#166;&#134; emoji &#34;thumbs up default&#34;">
<g id="Group">
<path id="Vector" d="M10.5732 4.72995C10.5732 2.11768 12.6908 0 15.3031 0C17.9153 0 20.0331 2.11768 20.0331 4.72995V10.1732C20.0331 10.6374 20.0009 11.1002 19.9291 11.563C19.9029 11.7319 19.8767 11.9007 19.8605 12.0692C19.8089 12.602 19.8719 13.298 20.234 13.7654L19.3692 14.5997C23.706 16.8154 26.6777 21.3462 26.6777 26.5756C26.6777 27.9923 26.4595 29.3577 26.0552 30.6398L24.622 39.9982H12.9695V39.9942C5.77343 39.8393 0 35.1467 0 26.5756C0 21.5372 2.41249 17.4812 6.06225 15.1941L6.05322 15.1868C6.30185 15.014 6.59503 14.8383 6.9094 14.6498L6.91169 14.6484C7.94682 14.0279 9.21181 13.2695 9.87933 12.0292C10.4581 10.954 10.5704 9.20885 10.5704 8.3998L10.5732 8.40103V4.72995Z" fill="url(#paint0_linear_0_4036)"/>
</g>
<path id="Vector_2" d="M10.5732 4.72995C10.5732 2.11768 12.6908 0 15.3031 0C17.9153 0 20.0331 2.11768 20.0331 4.72995V10.1732C20.0331 10.6374 20.0009 11.1002 19.9291 11.563C19.9029 11.7319 19.8767 11.9007 19.8605 12.0692C19.8089 12.602 19.8719 13.298 20.234 13.7654L19.3692 14.5997C23.706 16.8154 26.6777 21.3462 26.6777 26.5756C26.6777 27.9923 26.4595 29.3577 26.0552 30.6398L24.622 39.9982H12.9695V39.9942C5.77343 39.8393 0 35.1467 0 26.5756C0 21.5372 2.41249 17.4812 6.06225 15.1941L6.05322 15.1868C6.30185 15.014 6.59503 14.8383 6.9094 14.6498L6.91169 14.6484C7.94682 14.0279 9.21181 13.2695 9.87933 12.0292C10.4581 10.954 10.5704 9.20885 10.5704 8.3998L10.5732 8.40103V4.72995Z" fill="url(#paint1_radial_0_4036)"/>
<path id="Vector_3" d="M10.5732 4.72995C10.5732 2.11768 12.6908 0 15.3031 0C17.9153 0 20.0331 2.11768 20.0331 4.72995V10.1732C20.0331 10.6374 20.0009 11.1002 19.9291 11.563C19.9029 11.7319 19.8767 11.9007 19.8605 12.0692C19.8089 12.602 19.8719 13.298 20.234 13.7654L19.3692 14.5997C23.706 16.8154 26.6777 21.3462 26.6777 26.5756C26.6777 27.9923 26.4595 29.3577 26.0552 30.6398L24.622 39.9982H12.9695V39.9942C5.77343 39.8393 0 35.1467 0 26.5756C0 21.5372 2.41249 17.4812 6.06225 15.1941L6.05322 15.1868C6.30185 15.014 6.59503 14.8383 6.9094 14.6498L6.91169 14.6484C7.94682 14.0279 9.21181 13.2695 9.87933 12.0292C10.4581 10.954 10.5704 9.20885 10.5704 8.3998L10.5732 8.40103V4.72995Z" fill="url(#paint2_radial_0_4036)"/>
<path id="Vector_4" d="M10.5732 4.72995C10.5732 2.11768 12.6908 0 15.3031 0C17.9153 0 20.0331 2.11768 20.0331 4.72995V10.1732C20.0331 10.6374 20.0009 11.1002 19.9291 11.563C19.9029 11.7319 19.8767 11.9007 19.8605 12.0692C19.8089 12.602 19.8719 13.298 20.234 13.7654L19.3692 14.5997C23.706 16.8154 26.6777 21.3462 26.6777 26.5756C26.6777 27.9923 26.4595 29.3577 26.0552 30.6398L24.622 39.9982H12.9695V39.9942C5.77343 39.8393 0 35.1467 0 26.5756C0 21.5372 2.41249 17.4812 6.06225 15.1941L6.05322 15.1868C6.30185 15.014 6.59503 14.8383 6.9094 14.6498L6.91169 14.6484C7.94682 14.0279 9.21181 13.2695 9.87933 12.0292C10.4581 10.954 10.5704 9.20885 10.5704 8.3998L10.5732 8.40103V4.72995Z" fill="url(#paint3_radial_0_4036)"/>
<path id="Vector_5" d="M10.5732 4.72995C10.5732 2.11768 12.6908 0 15.3031 0C17.9153 0 20.0331 2.11768 20.0331 4.72995V10.1732C20.0331 10.6374 20.0009 11.1002 19.9291 11.563C19.9029 11.7319 19.8767 11.9007 19.8605 12.0692C19.8089 12.602 19.8719 13.298 20.234 13.7654L19.3692 14.5997C23.706 16.8154 26.6777 21.3462 26.6777 26.5756C26.6777 27.9923 26.4595 29.3577 26.0552 30.6398L24.622 39.9982H12.9695V39.9942C5.77343 39.8393 0 35.1467 0 26.5756C0 21.5372 2.41249 17.4812 6.06225 15.1941L6.05322 15.1868C6.30185 15.014 6.59503 14.8383 6.9094 14.6498L6.91169 14.6484C7.94682 14.0279 9.21181 13.2695 9.87933 12.0292C10.4581 10.954 10.5704 9.20885 10.5704 8.3998L10.5732 8.40103V4.72995Z" fill="url(#paint4_linear_0_4036)"/>
<g id="Group_2">
<path id="Vector_6" d="M26.9857 18.4661C26.9857 16.439 25.3425 14.7958 23.3155 14.7958H19.2501C17.2231 14.7958 15.5798 16.439 15.5798 18.4661C15.5798 19.5964 16.0908 20.6074 16.8944 21.2807C16.006 21.953 15.4316 23.02 15.4316 24.2184C15.4316 25.3405 15.9352 26.3473 16.7286 27.0229C15.9352 27.6961 15.4316 28.7005 15.4316 29.8225V30.0036C15.4316 31.0093 15.8361 31.9205 16.4911 32.5834C15.837 33.2308 15.4316 34.1291 15.4316 35.1223C15.4316 37.0948 17.0306 38.6939 19.0031 38.6939H23.0356C25.0082 38.6939 26.6072 37.0948 26.6072 35.1223C26.6072 34.4694 26.432 33.8574 26.1261 33.3309C27.3775 32.7462 28.2448 31.4762 28.2448 30.0036V29.8225C28.2448 28.6868 27.7289 27.6717 26.9189 26.9984C27.6958 26.3231 28.1872 25.327 28.1872 24.2184C28.1872 22.7481 27.3226 21.4753 26.0741 20.887C26.6417 20.2409 26.9857 19.3936 26.9857 18.4661Z" fill="url(#paint5_linear_0_4036)"/>
</g>
<g id="Group_3">
<path id="Vector_7" d="M30.2637 16.9306V16.9306C30.2637 14.6189 28.3897 12.7449 26.078 12.7449H21.4419C19.1303 12.7449 17.2563 14.6189 17.2563 16.9306V16.9306C17.2563 19.2422 19.1303 21.1162 21.4419 21.1162H26.078C28.3897 21.1162 30.2637 19.2422 30.2637 16.9306Z" fill="url(#paint6_linear_0_4036)"/>
<path id="Vector_8" d="M30.2637 16.9306V16.9306C30.2637 14.6189 28.3897 12.7449 26.078 12.7449H21.4419C19.1303 12.7449 17.2563 14.6189 17.2563 16.9306V16.9306C17.2563 19.2422 19.1303 21.1162 21.4419 21.1162H26.078C28.3897 21.1162 30.2637 19.2422 30.2637 16.9306Z" fill="url(#paint7_radial_0_4036)"/>
</g>
<g id="Group_4">
<path id="Vector_9" d="M25.7571 40.0009C28.0065 40.0009 29.8301 38.1773 29.8301 35.9279C29.8301 33.6784 28.0065 31.8549 25.7571 31.8549H21.1584C18.909 31.8549 17.0854 33.6784 17.0854 35.9279C17.0854 38.1773 18.909 40.0009 21.1584 40.0009H25.7571Z" fill="url(#paint8_linear_0_4036)"/>
<path id="Vector_10" d="M25.7571 40.0009C28.0065 40.0009 29.8301 38.1773 29.8301 35.9279C29.8301 33.6784 28.0065 31.8549 25.7571 31.8549H21.1584C18.909 31.8549 17.0854 33.6784 17.0854 35.9279C17.0854 38.1773 18.909 40.0009 21.1584 40.0009H25.7571Z" fill="url(#paint9_radial_0_4036)"/>
<path id="Vector_11" d="M25.7571 40.0009C28.0065 40.0009 29.8301 38.1773 29.8301 35.9279C29.8301 33.6784 28.0065 31.8549 25.7571 31.8549H21.1584C18.909 31.8549 17.0854 33.6784 17.0854 35.9279C17.0854 38.1773 18.909 40.0009 21.1584 40.0009H25.7571Z" fill="url(#paint10_radial_0_4036)"/>
</g>
<path id="Vector_12" d="M25.7571 39.9991C28.0065 39.9991 29.8301 38.1756 29.8301 35.9261C29.8301 33.6766 28.0065 31.8531 25.7571 31.8531H21.1584C18.909 31.8531 17.0854 33.6766 17.0854 35.9261C17.0854 38.1756 18.909 39.9991 21.1584 39.9991H25.7571Z" fill="url(#paint11_linear_0_4036)"/>
<path id="Vector_13" d="M25.7571 39.9991C28.0065 39.9991 29.8301 38.1756 29.8301 35.9261C29.8301 33.6766 28.0065 31.8531 25.7571 31.8531H21.1584C18.909 31.8531 17.0854 33.6766 17.0854 35.9261C17.0854 38.1756 18.909 39.9991 21.1584 39.9991H25.7571Z" fill="url(#paint12_radial_0_4036)"/>
<g id="Group_5">
<path id="Vector_14" d="M27.8129 34.2715H22.212C21.6257 34.2715 21.1504 34.7468 21.1504 35.3331C21.1504 35.9194 21.6257 36.3947 22.212 36.3947H27.8129C28.3992 36.3947 28.8745 35.9194 28.8745 35.3331C28.8745 34.7468 28.3992 34.2715 27.8129 34.2715Z" fill="url(#paint13_linear_0_4036)"/>
</g>
<path id="Vector_15" d="M31.6973 29.985V29.985C31.6973 27.6163 29.7771 25.6961 27.4084 25.6961H21.3739C19.0052 25.6961 17.085 27.6163 17.085 29.985V29.985C17.085 32.3537 19.0052 34.2739 21.3739 34.2739H27.4084C29.7771 34.2739 31.6973 32.3537 31.6973 29.985Z" fill="#C4C4C4" fill-opacity="0.66"/>
<g id="Group_6">
<path id="Vector_16" d="M31.6973 30.087V29.8805C31.6973 27.5688 29.8233 25.6948 27.5116 25.6948H21.2707C18.959 25.6948 17.085 27.5688 17.085 29.8805V30.087C17.085 32.3986 18.959 34.2726 21.2707 34.2726H27.5116C29.8233 34.2726 31.6973 32.3986 31.6973 30.087Z" fill="url(#paint14_linear_0_4036)"/>
<path id="Vector_17" d="M31.6973 30.087V29.8805C31.6973 27.5688 29.8233 25.6948 27.5116 25.6948H21.2707C18.959 25.6948 17.085 27.5688 17.085 29.8805V30.087C17.085 32.3986 18.959 34.2726 21.2707 34.2726H27.5116C29.8233 34.2726 31.6973 32.3986 31.6973 30.087Z" fill="url(#paint15_radial_0_4036)"/>
<path id="Vector_18" d="M31.6973 30.087V29.8805C31.6973 27.5688 29.8233 25.6948 27.5116 25.6948H21.2707C18.959 25.6948 17.085 27.5688 17.085 29.8805V30.087C17.085 32.3986 18.959 34.2726 21.2707 34.2726H27.5116C29.8233 34.2726 31.6973 32.3986 31.6973 30.087Z" fill="url(#paint16_radial_0_4036)"/>
</g>
<g id="Group_7">
<path id="Vector_19" d="M29.2007 28.7076H21.6515C21.0651 28.7076 20.5898 29.1829 20.5898 29.7693C20.5898 30.3556 21.0651 30.8309 21.6515 30.8309H29.2007C29.787 30.8309 30.2623 30.3556 30.2623 29.7693C30.2623 29.1829 29.787 28.7076 29.2007 28.7076Z" fill="url(#paint17_linear_0_4036)"/>
</g>
<g id="Group_8">
<path id="Vector_20" d="M31.6328 23.5009V23.4821C31.6328 21.1704 29.7588 19.2964 27.4472 19.2964H21.2719C18.9603 19.2964 17.0863 21.1704 17.0863 23.4821V23.5009C17.0863 25.8125 18.9603 27.6865 21.2719 27.6865H27.4472C29.7588 27.6865 31.6328 25.8125 31.6328 23.5009Z" fill="url(#paint18_linear_0_4036)"/>
<path id="Vector_21" d="M31.6328 23.5009V23.4821C31.6328 21.1704 29.7588 19.2964 27.4472 19.2964H21.2719C18.9603 19.2964 17.0863 21.1704 17.0863 23.4821V23.5009C17.0863 25.8125 18.9603 27.6865 21.2719 27.6865H27.4472C29.7588 27.6865 31.6328 25.8125 31.6328 23.5009Z" fill="url(#paint19_radial_0_4036)"/>
</g>
<path id="Vector_22" d="M15.3026 0C12.6903 0 10.5727 2.11768 10.5727 4.72994V8.40103L10.57 8.3998C10.57 9.20885 10.4576 10.954 9.87884 12.0292C9.21132 13.2696 7.94633 14.0279 6.9112 14.6484C6.59597 14.8374 6.30197 15.0137 6.05273 15.1868C7.48362 16.333 10.4138 18.623 10.4857 18.5691C10.5576 18.5152 13.8566 16.7637 15.4973 15.8947L15.4274 14.9016C17.982 14.8352 20.0326 12.7437 20.0326 10.1732V4.72994C20.0326 2.11768 17.9148 0 15.3026 0Z" fill="url(#paint20_radial_0_4036)"/>
<path id="Vector_23" d="M15.3026 0C12.6903 0 10.5727 2.11768 10.5727 4.72994V8.40103L10.57 8.3998C10.57 9.20885 10.4576 10.954 9.87884 12.0292C9.21132 13.2696 7.94633 14.0279 6.9112 14.6484C6.59597 14.8374 6.30197 15.0137 6.05273 15.1868C7.48362 16.333 10.4138 18.623 10.4857 18.5691C10.5576 18.5152 13.8566 16.7637 15.4973 15.8947L15.4274 14.9016C17.982 14.8352 20.0326 12.7437 20.0326 10.1732V4.72994C20.0326 2.11768 17.9148 0 15.3026 0Z" fill="url(#paint21_radial_0_4036)"/>
<path id="Vector_24" d="M12.3097 1.06714C11.2491 1.93453 10.5723 3.2534 10.5723 4.73036V5.00669H12.7102C12.7177 4.72202 12.7034 3.99314 12.5865 3.35487L12.5623 3.22344C12.4439 2.58046 12.3082 1.84327 12.3097 1.06714Z" fill="#FFBF71"/>
<path id="Vector_25" d="M12.3097 1.06714C11.2491 1.93453 10.5723 3.2534 10.5723 4.73036V5.00669H12.7102C12.7177 4.72202 12.7034 3.99314 12.5865 3.35487L12.5623 3.22344C12.4439 2.58046 12.3082 1.84327 12.3097 1.06714Z" fill="url(#paint22_radial_0_4036)"/>
<g id="Group_9">
<path id="Vector_26" d="M27.0648 13.8857H21.8579C20.8588 13.8857 20.0488 14.6957 20.0488 15.6948V15.6948C20.0488 16.6939 20.8588 17.5039 21.8579 17.5039H27.0648C28.0639 17.5039 28.8739 16.6939 28.8739 15.6948V15.6948C28.8739 14.6957 28.0639 13.8857 27.0648 13.8857Z" fill="url(#paint23_linear_0_4036)"/>
</g>
<g id="Group_10">
<path id="Vector_27" d="M28.4539 20.3245H21.7563C20.7572 20.3245 19.9473 21.1344 19.9473 22.1335V22.1335C19.9473 23.1327 20.7572 23.9426 21.7563 23.9426H28.4539C29.453 23.9426 30.2629 23.1327 30.2629 22.1335V22.1335C30.2629 21.1344 29.453 20.3245 28.4539 20.3245Z" fill="url(#paint24_linear_0_4036)"/>
</g>
<g id="Group_11">
<path id="Vector_28" d="M18.8399 3.84742C18.8399 2.70941 17.9173 1.78687 16.7793 1.78687C15.6413 1.78687 14.7188 2.70941 14.7188 3.84742V11.2291C14.7188 12.3671 15.6413 13.2896 16.7793 13.2896C17.9173 13.2896 18.8399 12.3671 18.8399 11.2291V3.84742Z" fill="url(#paint25_linear_0_4036)"/>
</g>
</g>
<defs>
<linearGradient id="paint0_linear_0_4036" x1="20.6218" y1="6.86036" x2="6.14874" y2="37.3346" gradientUnits="userSpaceOnUse">
<stop stop-color="#FFCA44"/>
<stop offset="1" stop-color="#F8A528"/>
</linearGradient>
<radialGradient id="paint1_radial_0_4036" cx="0" cy="0" r="1" gradientUnits="userSpaceOnUse" gradientTransform="translate(22.3275 4.27819) rotate(141.116) scale(7.21405 21.2919)">
<stop stop-color="#FFE34C"/>
<stop offset="1" stop-color="#FFE34C" stop-opacity="0"/>
</radialGradient>
<radialGradient id="paint2_radial_0_4036" cx="0" cy="0" r="1" gradientUnits="userSpaceOnUse" gradientTransform="translate(9.19441 19.9991) rotate(125.191) scale(10.687 7.7418)">
<stop stop-color="#FFCA2E"/>
<stop offset="1" stop-color="#FFCA2E" stop-opacity="0"/>
</radialGradient>
<radialGradient id="paint3_radial_0_4036" cx="0" cy="0" r="1" gradientUnits="userSpaceOnUse" gradientTransform="translate(20.7878 23.389) rotate(146.743) scale(23.2873 40.7536)">
<stop offset="0.681103" stop-color="#E18E3F" stop-opacity="0"/>
<stop offset="1" stop-color="#E18E3F"/>
</radialGradient>
<linearGradient id="paint4_linear_0_4036" x1="13.3388" y1="34.0767" x2="13.3388" y2="41.4131" gradientUnits="userSpaceOnUse">
<stop stop-color="#D8796F" stop-opacity="0"/>
<stop offset="1" stop-color="#D8796F"/>
</linearGradient>
<linearGradient id="paint5_linear_0_4036" x1="21.8382" y1="14.7958" x2="21.8382" y2="33.9081" gradientUnits="userSpaceOnUse">
<stop stop-color="#D1730B"/>
<stop offset="1" stop-color="#E27D47"/>
</linearGradient>
<linearGradient id="paint6_linear_0_4036" x1="30.2637" y1="16.9306" x2="17.2563" y2="16.9306" gradientUnits="userSpaceOnUse">
<stop stop-color="#FFDB44"/>
<stop offset="1" stop-color="#F9A928"/>
</linearGradient>
<radialGradient id="paint7_radial_0_4036" cx="0" cy="0" r="1" gradientUnits="userSpaceOnUse" gradientTransform="translate(19.3721 20.6408) rotate(-142.633) scale(3.33847 2.23468)">
<stop stop-color="#D98320"/>
<stop offset="1" stop-color="#D98320" stop-opacity="0"/>
</radialGradient>
<linearGradient id="paint8_linear_0_4036" x1="28.7137" y1="35.9279" x2="17.0855" y2="35.9279" gradientUnits="userSpaceOnUse">
<stop stop-color="#FFDB44"/>
<stop offset="1" stop-color="#F9A928"/>
</linearGradient>
<radialGradient id="paint9_radial_0_4036" cx="0" cy="0" r="1" gradientUnits="userSpaceOnUse" gradientTransform="translate(19.6673 40.0009) scale(10.519 4.0017)">
<stop stop-color="#F29545"/>
<stop offset="1" stop-color="#F29545" stop-opacity="0"/>
</radialGradient>
<radialGradient id="paint10_radial_0_4036" cx="0" cy="0" r="1" gradientUnits="userSpaceOnUse" gradientTransform="translate(19.1624 33.285) scale(10.6678 2.86362)">
<stop stop-color="#DA810B"/>
<stop offset="1" stop-color="#FFB610" stop-opacity="0"/>
</radialGradient>
<linearGradient id="paint11_linear_0_4036" x1="23.4578" y1="40.8388" x2="23.4578" y2="38.2037" gradientUnits="userSpaceOnUse">
<stop stop-color="#DC7C6A"/>
<stop offset="1" stop-color="#DC7C6A" stop-opacity="0"/>
</linearGradient>
<radialGradient id="paint12_radial_0_4036" cx="0" cy="0" r="1" gradientUnits="userSpaceOnUse" gradientTransform="translate(15.3986 35.9261) scale(8.0592 12.1145)">
<stop stop-color="#E38811"/>
<stop offset="1" stop-color="#E38811" stop-opacity="0"/>
</radialGradient>
<linearGradient id="paint13_linear_0_4036" x1="28.4733" y1="34.8537" x2="20.1473" y2="34.8537" gradientUnits="userSpaceOnUse">
<stop stop-color="#FFF166"/>
<stop offset="1" stop-color="#FFF166" stop-opacity="0"/>
</linearGradient>
<linearGradient id="paint14_linear_0_4036" x1="30.4172" y1="29.9837" x2="17.085" y2="29.9837" gradientUnits="userSpaceOnUse">
<stop stop-color="#FFDB44"/>
<stop offset="1" stop-color="#F9A928"/>
</linearGradient>
<radialGradient id="paint15_radial_0_4036" cx="0" cy="0" r="1" gradientUnits="userSpaceOnUse" gradientTransform="translate(20.0452 34.2725) scale(12.0605 4.21378)">
<stop stop-color="#F29545"/>
<stop offset="1" stop-color="#F29545" stop-opacity="0"/>
</radialGradient>
<radialGradient id="paint16_radial_0_4036" cx="0" cy="0" r="1" gradientUnits="userSpaceOnUse" gradientTransform="translate(19.4663 27.2006) scale(12.2311 3.01539)">
<stop stop-color="#DA810B"/>
<stop offset="1" stop-color="#FFB610" stop-opacity="0"/>
</radialGradient>
<linearGradient id="paint17_linear_0_4036" x1="29.7598" y1="29.2899" x2="19.3338" y2="29.2899" gradientUnits="userSpaceOnUse">
<stop stop-color="#FFF166"/>
<stop offset="1" stop-color="#FFF166" stop-opacity="0"/>
</linearGradient>
<linearGradient id="paint18_linear_0_4036" x1="31.6328" y1="23.4916" x2="17.0863" y2="23.4916" gradientUnits="userSpaceOnUse">
<stop stop-color="#FFDB44"/>
<stop offset="1" stop-color="#F9A928"/>
</linearGradient>
<radialGradient id="paint19_radial_0_4036" cx="0" cy="0" r="1" gradientUnits="userSpaceOnUse" gradientTransform="translate(20.0945 26.6721) scale(7.91168 3.52166)">
<stop stop-color="#F29545"/>
<stop offset="1" stop-color="#F29545" stop-opacity="0"/>
</radialGradient>
<radialGradient id="paint20_radial_0_4036" cx="0" cy="0" r="1" gradientUnits="userSpaceOnUse" gradientTransform="translate(10.9602 4.27819) rotate(90) scale(9.14785 3.39647)">
<stop stop-color="#F3A52A"/>
<stop offset="1" stop-color="#F3A52A" stop-opacity="0"/>
</radialGradient>
<radialGradient id="paint21_radial_0_4036" cx="0" cy="0" r="1" gradientUnits="userSpaceOnUse" gradientTransform="translate(8.28822 10.3013) rotate(42.9975) scale(4.58199 6.93331)">
<stop stop-color="#CDA25E"/>
<stop offset="1" stop-color="#CDA25E" stop-opacity="0"/>
</radialGradient>
<radialGradient id="paint22_radial_0_4036" cx="0" cy="0" r="1" gradientUnits="userSpaceOnUse" gradientTransform="translate(13.0429 3.71251) rotate(-168.366) scale(2.35805 5.14698)">
<stop offset="0.549892" stop-color="#CCB28B" stop-opacity="0"/>
<stop offset="1" stop-color="#CCB28B"/>
</radialGradient>
<linearGradient id="paint23_linear_0_4036" x1="28.4153" y1="14.8779" x2="18.9026" y2="14.8779" gradientUnits="userSpaceOnUse">
<stop stop-color="#FFF166"/>
<stop offset="1" stop-color="#FFF166" stop-opacity="0"/>
</linearGradient>
<linearGradient id="paint24_linear_0_4036" x1="29.7271" y1="21.3165" x2="18.6076" y2="21.3165" gradientUnits="userSpaceOnUse">
<stop stop-color="#FFF166"/>
<stop offset="1" stop-color="#FFF166" stop-opacity="0"/>
</linearGradient>
<linearGradient id="paint25_linear_0_4036" x1="18.6258" y1="4.94081" x2="14.1836" y2="4.94081" gradientUnits="userSpaceOnUse">
<stop stop-color="#FFF166"/>
<stop offset="1" stop-color="#FFF166" stop-opacity="0"/>
</linearGradient>
</defs>
</svg>
