<svg xmlns="http://www.w3.org/2000/svg" width="40" height="40" viewBox="0 0 40 40" fill="none">
  <path d="M20 40C33.3359 40 40 31.0457 40 20C40 8.95429 33.3359 0 20 0C6.664 0 0 8.95429 0 20C0 31.0457 6.664 40 20 40Z" fill="url(#paint0_radial_0_3544)"/>
  <path d="M20 40C33.3359 40 40 31.0457 40 20C40 8.95429 33.3359 0 20 0C6.664 0 0 8.95429 0 20C0 31.0457 6.664 40 20 40Z" fill="url(#paint1_radial_0_3544)"/>
  <path d="M20 40C33.3359 40 40 31.0457 40 20C40 8.95429 33.3359 0 20 0C6.664 0 0 8.95429 0 20C0 31.0457 6.664 40 20 40Z" fill="url(#paint2_radial_0_3544)"/>
  <path d="M20 40C33.3359 40 40 31.0457 40 20C40 8.95429 33.3359 0 20 0C6.664 0 0 8.95429 0 20C0 31.0457 6.664 40 20 40Z" fill="url(#paint3_radial_0_3544)" fill-opacity="0.6"/>
  <path d="M20 40C33.3359 40 40 31.0457 40 20C40 8.95429 33.3359 0 20 0C6.664 0 0 8.95429 0 20C0 31.0457 6.664 40 20 40Z" fill="url(#paint4_radial_0_3544)"/>
  <path d="M20 40C33.3359 40 40 31.0457 40 20C40 8.95429 33.3359 0 20 0C6.664 0 0 8.95429 0 20C0 31.0457 6.664 40 20 40Z" fill="url(#paint5_radial_0_3544)"/>
  <path d="M20 40C33.3359 40 40 31.0457 40 20C40 8.95429 33.3359 0 20 0C6.664 0 0 8.95429 0 20C0 31.0457 6.664 40 20 40Z" fill="url(#paint6_radial_0_3544)"/>
  <path d="M20 40C33.3359 40 40 31.0457 40 20C40 8.95429 33.3359 0 20 0C6.664 0 0 8.95429 0 20C0 31.0457 6.664 40 20 40Z" fill="url(#paint7_radial_0_3544)"/>
  <path d="M20.0007 32.8599C7.14258 32.8599 7.14258 20.0018 7.14258 20.0018H32.8589C32.8589 20.0018 32.8589 32.8599 20.0007 32.8599Z" fill="url(#paint8_radial_0_3544)"/>
  <path d="M8.57227 20.7161V20.0018H31.4312V20.7161C31.4312 21.5052 30.7916 22.1448 30.0025 22.1448H10.0009C9.21192 22.1448 8.57227 21.5052 8.57227 20.7161Z" fill="url(#paint9_linear_0_3544)"/>
  <path d="M12.1448 19.2868C12.1448 19.2868 7.85841 18.5725 4.92978 15.1925C1.94335 11.7458 4.73131 6.81057 10.0016 9.28608C12.2546 5.61112 17.8454 6.97035 17.102 11.4291C16.3874 15.7151 12.1448 19.2868 12.1448 19.2868Z" fill="url(#paint10_radial_0_3544)"/>
  <path d="M25.0269 19.2868C25.0269 19.2868 29.3132 18.5725 32.2417 15.1925C35.2282 11.7458 32.4403 6.81057 27.1699 9.28608C24.9169 5.61112 19.3261 6.97035 20.0695 11.4291C20.7841 15.7151 25.0269 19.2868 25.0269 19.2868Z" fill="url(#paint11_radial_0_3544)"/>
  <path d="M12.2768 17.53C10.7823 17.0587 8.26594 15.9889 6.33799 13.7637C3.35155 10.3171 6.13951 5.3818 11.4098 7.85731C13.6628 4.18235 19.2535 5.54158 18.5102 10.0003C18.0124 12.986 15.8027 15.625 14.5076 16.9516C13.923 17.5503 13.0749 17.7818 12.2768 17.53Z" fill="url(#paint12_linear_0_3544)"/>
  <path d="M27.7307 17.53C29.2252 17.0587 31.7416 15.9889 33.6695 13.7637C36.656 10.3171 33.868 5.3818 28.5976 7.85731C26.3446 4.18235 20.7539 5.54158 21.4972 10.0003C21.995 12.986 24.2049 15.625 25.5 16.9516C26.0846 17.5503 26.9326 17.7818 27.7307 17.53Z" fill="url(#paint13_linear_0_3544)"/>
  <path d="M13.649 13.4752C14.4859 12.6383 13.8075 10.6029 12.1337 8.92914C10.4599 7.25533 8.42452 6.57689 7.58761 7.41379C6.75071 8.25069 7.42915 10.286 9.10296 11.9598C10.7768 13.6336 12.8121 14.3121 13.649 13.4752Z" fill="url(#paint14_radial_0_3544)"/>
  <path d="M27.9911 14.4623C29.5289 14.1082 30.345 11.9511 29.8139 9.64437C29.2828 7.3376 27.6056 5.75463 26.0677 6.10871C24.5299 6.46278 23.7138 8.61982 24.2449 10.9266C24.776 13.2334 26.4532 14.8163 27.9911 14.4623Z" fill="url(#paint15_radial_0_3544)"/>
  <path d="M14.3128 9.54946C15.1497 10.3864 16.5066 10.3864 17.3435 9.54946C18.1804 8.71256 18.1804 7.35567 17.3435 6.51877C16.5066 5.68186 15.1497 5.68186 14.3128 6.51877C13.4759 7.35567 13.4759 8.71256 14.3128 9.54946Z" fill="url(#paint16_radial_0_3544)"/>
  <path d="M29.942 11.4833C30.4999 12.0413 31.8568 11.589 32.9727 10.4731C34.0885 9.35725 34.5408 8.00036 33.9829 7.44242C33.425 6.88449 32.0681 7.33678 30.9522 8.45265C29.8363 9.56853 29.384 10.9254 29.942 11.4833Z" fill="url(#paint17_radial_0_3544)"/>
  <defs>
    <radialGradient id="paint0_radial_0_3544" cx="0" cy="0" r="1" gradientUnits="userSpaceOnUse" gradientTransform="translate(33.5741 10.0008) rotate(132.839) scale(53.5804)">
      <stop stop-color="#FFF478"/>
      <stop offset="0.474827" stop-color="#FFB02E"/>
      <stop offset="1" stop-color="#F70A8D"/>
    </radialGradient>
    <radialGradient id="paint1_radial_0_3544" cx="0" cy="0" r="1" gradientUnits="userSpaceOnUse" gradientTransform="translate(33.5741 10.0008) rotate(131.878) scale(55.6454)">
      <stop stop-color="#FFF478"/>
      <stop offset="0.474827" stop-color="#FFB02E"/>
      <stop offset="1" stop-color="#F70A8D"/>
    </radialGradient>
    <radialGradient id="paint2_radial_0_3544" cx="0" cy="0" r="1" gradientUnits="userSpaceOnUse" gradientTransform="translate(20.0016 15.0012) rotate(101.31) scale(25.4971 32.657)">
      <stop offset="0.787821" stop-color="#F59639" stop-opacity="0"/>
      <stop offset="0.972509" stop-color="#FF7DCE"/>
    </radialGradient>
    <radialGradient id="paint3_radial_0_3544" cx="0" cy="0" r="1" gradientUnits="userSpaceOnUse" gradientTransform="translate(22.8589 17.1442) rotate(135) scale(58.5935)">
      <stop offset="0.314853" stop-opacity="0"/>
      <stop offset="1"/>
    </radialGradient>
    <radialGradient id="paint4_radial_0_3544" cx="0" cy="0" r="1" gradientUnits="userSpaceOnUse" gradientTransform="translate(20.0016 21.4303) rotate(77.692) scale(40.213)">
      <stop offset="0.507903" stop-color="#7D6133" stop-opacity="0"/>
      <stop offset="1" stop-color="#715B32"/>
    </radialGradient>
    <radialGradient id="paint5_radial_0_3544" cx="0" cy="0" r="1" gradientUnits="userSpaceOnUse" gradientTransform="translate(20.7159 20.7159) rotate(55.7131) scale(19.0208 13.7873)">
      <stop stop-color="#FFB849"/>
      <stop offset="1" stop-color="#FFB847" stop-opacity="0"/>
    </radialGradient>
    <radialGradient id="paint6_radial_0_3544" cx="0" cy="0" r="1" gradientUnits="userSpaceOnUse" gradientTransform="translate(26.4306 22.8589) rotate(9.86581) scale(16.6765)">
      <stop stop-color="#FFA64B"/>
      <stop offset="0.900412" stop-color="#FFAE46" stop-opacity="0"/>
    </radialGradient>
    <radialGradient id="paint7_radial_0_3544" cx="0" cy="0" r="1" gradientUnits="userSpaceOnUse" gradientTransform="translate(22.1446 18.5729) rotate(43.9708) scale(84.3679)">
      <stop offset="0.185425" stop-opacity="0"/>
      <stop offset="1" stop-opacity="0.4"/>
    </radialGradient>
    <radialGradient id="paint8_radial_0_3544" cx="0" cy="0" r="1" gradientUnits="userSpaceOnUse" gradientTransform="translate(20.0007 35.7173) rotate(-90) scale(15.7155 31.431)">
      <stop stop-color="#F70A8D"/>
      <stop offset="1" stop-color="#89029C"/>
    </radialGradient>
    <linearGradient id="paint9_linear_0_3544" x1="20.0017" y1="20.0018" x2="20.0017" y2="22.1448" gradientUnits="userSpaceOnUse">
      <stop stop-color="#ECCDFF"/>
      <stop offset="1" stop-color="white"/>
    </linearGradient>
    <radialGradient id="paint10_radial_0_3544" cx="0" cy="0" r="1" gradientUnits="userSpaceOnUse" gradientTransform="translate(17.1449 17.1438) rotate(-155.376) scale(18.8592 7.8391)">
      <stop stop-color="#CC7521"/>
      <stop offset="1" stop-color="#E6872B" stop-opacity="0"/>
    </radialGradient>
    <radialGradient id="paint11_radial_0_3544" cx="0" cy="0" r="1" gradientUnits="userSpaceOnUse" gradientTransform="translate(25.7166 12.8578) rotate(122.005) scale(6.73909)">
      <stop stop-color="#EC812A"/>
      <stop offset="1" stop-color="#FBA84C" stop-opacity="0"/>
    </radialGradient>
    <linearGradient id="paint12_linear_0_3544" x1="15.6957" y1="7.14294" x2="11.4097" y2="17.1437" gradientUnits="userSpaceOnUse">
      <stop stop-color="#CA0B4A"/>
      <stop offset="1" stop-color="#F70A8D"/>
    </linearGradient>
    <linearGradient id="paint13_linear_0_3544" x1="31.4304" y1="7.14294" x2="24.287" y2="18.5724" gradientUnits="userSpaceOnUse">
      <stop stop-color="#CA0B4A"/>
      <stop offset="1" stop-color="#F70A8D"/>
    </linearGradient>
    <radialGradient id="paint14_radial_0_3544" cx="0" cy="0" r="1" gradientUnits="userSpaceOnUse" gradientTransform="translate(10.6183 10.4445) rotate(45) scale(4.43103 2.25218)">
      <stop stop-color="#EC6686"/>
      <stop offset="1" stop-color="#EC6686" stop-opacity="0"/>
    </radialGradient>
    <radialGradient id="paint15_radial_0_3544" cx="0" cy="0" r="1" gradientUnits="userSpaceOnUse" gradientTransform="translate(27.1449 10.0019) rotate(68.1986) scale(3.84684 2.60699)">
      <stop stop-color="#EC6686"/>
      <stop offset="0.259696" stop-color="#EC6686"/>
      <stop offset="1" stop-color="#EC6686" stop-opacity="0"/>
    </radialGradient>
    <radialGradient id="paint16_radial_0_3544" cx="0" cy="0" r="1" gradientUnits="userSpaceOnUse" gradientTransform="translate(15.8281 8.03411) rotate(135) scale(2.14303)">
      <stop stop-color="#EC6686"/>
      <stop offset="1" stop-color="#EC6686" stop-opacity="0"/>
    </radialGradient>
    <radialGradient id="paint17_radial_0_3544" cx="0" cy="0" r="1" gradientUnits="userSpaceOnUse" gradientTransform="translate(31.9624 9.46289) rotate(135) scale(2.85737 1.42868)">
      <stop stop-color="#EC6686"/>
      <stop offset="1" stop-color="#EC6686" stop-opacity="0"/>
    </radialGradient>
  </defs>
</svg>
