<svg width="41" height="40" viewBox="0 0 41 40" fill="none" xmlns="http://www.w3.org/2000/svg">
<path d="M11.115 2.5014C11.115 1.12922 10.0006 0 8.64638 0C7.29215 0 6.17773 1.12922 6.17773 2.5014C6.17773 3.33968 6.58371 4.07763 7.20486 4.53031C7.42598 4.69147 7.58839 4.93571 7.58839 5.21172V9.79118H9.70437V5.21172C9.70437 4.93571 9.86678 4.69147 10.0879 4.53031C10.709 4.07763 11.115 3.33968 11.115 2.5014Z" fill="url(#paint0_radial_0_3929)"/>
<path d="M11.115 2.5014C11.115 1.12922 10.0006 0 8.64638 0C7.29215 0 6.17773 1.12922 6.17773 2.5014C6.17773 3.33968 6.58371 4.07763 7.20486 4.53031C7.42598 4.69147 7.58839 4.93571 7.58839 5.21172V9.79118H9.70437V5.21172C9.70437 4.93571 9.86678 4.69147 10.0879 4.53031C10.709 4.07763 11.115 3.33968 11.115 2.5014Z" fill="url(#paint1_radial_0_3929)"/>
<path d="M11.115 2.5014C11.115 1.12922 10.0006 0 8.64638 0C7.29215 0 6.17773 1.12922 6.17773 2.5014C6.17773 3.33968 6.58371 4.07763 7.20486 4.53031C7.42598 4.69147 7.58839 4.93571 7.58839 5.21172V9.79118H9.70437V5.21172C9.70437 4.93571 9.86678 4.69147 10.0879 4.53031C10.709 4.07763 11.115 3.33968 11.115 2.5014Z" fill="url(#paint2_radial_0_3929)"/>
<path d="M11.115 2.5014C11.115 1.12922 10.0006 0 8.64638 0C7.29215 0 6.17773 1.12922 6.17773 2.5014C6.17773 3.33968 6.58371 4.07763 7.20486 4.53031C7.42598 4.69147 7.58839 4.93571 7.58839 5.21172V9.79118H9.70437V5.21172C9.70437 4.93571 9.86678 4.69147 10.0879 4.53031C10.709 4.07763 11.115 3.33968 11.115 2.5014Z" fill="url(#paint3_radial_0_3929)"/>
<path d="M3.43349 0C2.07926 0 0.964844 1.12922 0.964844 2.5014C0.964844 3.33968 1.37082 4.07763 1.99195 4.53031C2.21309 4.69147 2.3755 4.93571 2.3755 5.21172V9.79118H4.49148V5.21172C4.49148 4.93571 4.65389 4.69147 4.87502 4.53031C5.49616 4.07763 5.90213 3.33968 5.90213 2.5014C5.90213 1.12922 4.78771 0 3.43349 0Z" fill="url(#paint4_radial_0_3929)"/>
<path d="M3.43349 0C2.07926 0 0.964844 1.12922 0.964844 2.5014C0.964844 3.33968 1.37082 4.07763 1.99195 4.53031C2.21309 4.69147 2.3755 4.93571 2.3755 5.21172V9.79118H4.49148V5.21172C4.49148 4.93571 4.65389 4.69147 4.87502 4.53031C5.49616 4.07763 5.90213 3.33968 5.90213 2.5014C5.90213 1.12922 4.78771 0 3.43349 0Z" fill="url(#paint5_radial_0_3929)"/>
<path d="M3.43349 0C2.07926 0 0.964844 1.12922 0.964844 2.5014C0.964844 3.33968 1.37082 4.07763 1.99195 4.53031C2.21309 4.69147 2.3755 4.93571 2.3755 5.21172V9.79118H4.49148V5.21172C4.49148 4.93571 4.65389 4.69147 4.87502 4.53031C5.49616 4.07763 5.90213 3.33968 5.90213 2.5014C5.90213 1.12922 4.78771 0 3.43349 0Z" fill="url(#paint6_radial_0_3929)"/>
<path d="M3.43349 0C2.07926 0 0.964844 1.12922 0.964844 2.5014C0.964844 3.33968 1.37082 4.07763 1.99195 4.53031C2.21309 4.69147 2.3755 4.93571 2.3755 5.21172V9.79118H4.49148V5.21172C4.49148 4.93571 4.65389 4.69147 4.87502 4.53031C5.49616 4.07763 5.90213 3.33968 5.90213 2.5014C5.90213 1.12922 4.78771 0 3.43349 0Z" fill="url(#paint7_radial_0_3929)"/>
<path d="M3.43349 0C2.07926 0 0.964844 1.12922 0.964844 2.5014C0.964844 3.33968 1.37082 4.07763 1.99195 4.53031C2.21309 4.69147 2.3755 4.93571 2.3755 5.21172V9.79118H4.49148V5.21172C4.49148 4.93571 4.65389 4.69147 4.87502 4.53031C5.49616 4.07763 5.90213 3.33968 5.90213 2.5014C5.90213 1.12922 4.78771 0 3.43349 0Z" fill="url(#paint8_linear_0_3929)"/>
<path d="M3.43359 4.89581H4.09484V9.09011H3.43359V4.89581Z" fill="url(#paint9_linear_0_3929)"/>
<path d="M8.64648 4.89581H9.30773V9.09011H8.64648V4.89581Z" fill="url(#paint10_linear_0_3929)"/>
<path d="M8.6447 3.36079C9.1712 3.36079 9.598 2.92832 9.598 2.39485C9.598 1.86136 9.1712 1.42889 8.6447 1.42889C8.11821 1.42889 7.69141 1.86136 7.69141 2.39485C7.69141 2.92832 8.11821 3.36079 8.6447 3.36079Z" fill="url(#paint11_radial_0_3929)"/>
<path d="M8.6447 3.36079C9.1712 3.36079 9.598 2.92832 9.598 2.39485C9.598 1.86136 9.1712 1.42889 8.6447 1.42889C8.11821 1.42889 7.69141 1.86136 7.69141 2.39485C7.69141 2.92832 8.11821 3.36079 8.6447 3.36079Z" fill="url(#paint12_radial_0_3929)"/>
<path d="M8.6447 3.36079C9.1712 3.36079 9.598 2.92832 9.598 2.39485C9.598 1.86136 9.1712 1.42889 8.6447 1.42889C8.11821 1.42889 7.69141 1.86136 7.69141 2.39485C7.69141 2.92832 8.11821 3.36079 8.6447 3.36079Z" fill="url(#paint13_radial_0_3929)"/>
<path d="M8.6447 3.36079C9.1712 3.36079 9.598 2.92832 9.598 2.39485C9.598 1.86136 9.1712 1.42889 8.6447 1.42889C8.11821 1.42889 7.69141 1.86136 7.69141 2.39485C7.69141 2.92832 8.11821 3.36079 8.6447 3.36079Z" fill="url(#paint14_radial_0_3929)"/>
<path d="M3.43266 3.36245C3.95855 3.36245 4.38485 2.93048 4.38485 2.39762C4.38485 1.86477 3.95855 1.4328 3.43266 1.4328C2.90678 1.4328 2.48047 1.86477 2.48047 2.39762C2.48047 2.93048 2.90678 3.36245 3.43266 3.36245Z" fill="url(#paint15_radial_0_3929)"/>
<path d="M3.43266 3.36245C3.95855 3.36245 4.38485 2.93048 4.38485 2.39762C4.38485 1.86477 3.95855 1.4328 3.43266 1.4328C2.90678 1.4328 2.48047 1.86477 2.48047 2.39762C2.48047 2.93048 2.90678 3.36245 3.43266 3.36245Z" fill="url(#paint16_radial_0_3929)"/>
<path d="M3.43266 3.36245C3.95855 3.36245 4.38485 2.93048 4.38485 2.39762C4.38485 1.86477 3.95855 1.4328 3.43266 1.4328C2.90678 1.4328 2.48047 1.86477 2.48047 2.39762C2.48047 2.93048 2.90678 3.36245 3.43266 3.36245Z" fill="url(#paint17_radial_0_3929)"/>
<path d="M3.43266 3.36245C3.95855 3.36245 4.38485 2.93048 4.38485 2.39762C4.38485 1.86477 3.95855 1.4328 3.43266 1.4328C2.90678 1.4328 2.48047 1.86477 2.48047 2.39762C2.48047 2.93048 2.90678 3.36245 3.43266 3.36245Z" fill="url(#paint18_radial_0_3929)"/>
<path d="M23.072 4.26678C16.3573 4.26678 10.5596 8.22614 7.82295 13.9579V27.1367H7.10352C9.43109 33.7975 15.6943 38.5716 23.072 38.5716C32.4247 38.5716 39.9999 30.8959 39.9999 21.4192C39.9999 11.9425 32.4247 4.26678 23.072 4.26678Z" fill="url(#paint19_radial_0_3929)"/>
<path d="M23.072 4.26678C16.3573 4.26678 10.5596 8.22614 7.82295 13.9579V27.1367H7.10352C9.43109 33.7975 15.6943 38.5716 23.072 38.5716C32.4247 38.5716 39.9999 30.8959 39.9999 21.4192C39.9999 11.9425 32.4247 4.26678 23.072 4.26678Z" fill="url(#paint20_radial_0_3929)"/>
<path d="M23.072 4.26678C16.3573 4.26678 10.5596 8.22614 7.82295 13.9579V27.1367H7.10352C9.43109 33.7975 15.6943 38.5716 23.072 38.5716C32.4247 38.5716 39.9999 30.8959 39.9999 21.4192C39.9999 11.9425 32.4247 4.26678 23.072 4.26678Z" fill="url(#paint21_radial_0_3929)"/>
<path d="M23.072 4.26678C16.3573 4.26678 10.5596 8.22614 7.82295 13.9579V27.1367H7.10352C9.43109 33.7975 15.6943 38.5716 23.072 38.5716C32.4247 38.5716 39.9999 30.8959 39.9999 21.4192C39.9999 11.9425 32.4247 4.26678 23.072 4.26678Z" fill="url(#paint22_radial_0_3929)"/>
<path d="M23.072 4.26678C16.3573 4.26678 10.5596 8.22614 7.82295 13.9579V27.1367H7.10352C9.43109 33.7975 15.6943 38.5716 23.072 38.5716C32.4247 38.5716 39.9999 30.8959 39.9999 21.4192C39.9999 11.9425 32.4247 4.26678 23.072 4.26678Z" fill="url(#paint23_radial_0_3929)"/>
<path d="M24.0501 38.2696C31.5443 38.2696 37.6197 32.1137 37.6197 24.5199C37.6197 16.9262 31.5443 10.7703 24.0501 10.7703C16.5558 10.7703 10.4805 16.9262 10.4805 24.5199C10.4805 32.1137 16.5558 38.2696 24.0501 38.2696Z" fill="#713E2E"/>
<path d="M5.96773 7.25909C2.67185 7.25909 0 9.96639 0 13.306V33.9258C0 37.2808 2.68418 40.0006 5.99528 40.0006H36.7778C39.0385 40.0006 40.5951 37.7012 39.781 35.564C39.0176 33.5597 37.3293 32.0649 35.2669 31.5669L11.9354 25.9327V13.306C11.9354 9.96639 9.26362 7.25909 5.96773 7.25909Z" fill="#D2865B"/>
<path d="M5.96773 7.25909C2.67185 7.25909 0 9.96639 0 13.306V33.9258C0 37.2808 2.68418 40.0006 5.99528 40.0006H36.7778C39.0385 40.0006 40.5951 37.7012 39.781 35.564C39.0176 33.5597 37.3293 32.0649 35.2669 31.5669L11.9354 25.9327V13.306C11.9354 9.96639 9.26362 7.25909 5.96773 7.25909Z" fill="url(#paint24_linear_0_3929)"/>
<path d="M5.96773 7.25909C2.67185 7.25909 0 9.96639 0 13.306V33.9258C0 37.2808 2.68418 40.0006 5.99528 40.0006H36.7778C39.0385 40.0006 40.5951 37.7012 39.781 35.564C39.0176 33.5597 37.3293 32.0649 35.2669 31.5669L11.9354 25.9327V13.306C11.9354 9.96639 9.26362 7.25909 5.96773 7.25909Z" fill="url(#paint25_radial_0_3929)"/>
<path d="M5.96773 7.25909C2.67185 7.25909 0 9.96639 0 13.306V33.9258C0 37.2808 2.68418 40.0006 5.99528 40.0006H36.7778C39.0385 40.0006 40.5951 37.7012 39.781 35.564C39.0176 33.5597 37.3293 32.0649 35.2669 31.5669L11.9354 25.9327V13.306C11.9354 9.96639 9.26362 7.25909 5.96773 7.25909Z" fill="url(#paint26_radial_0_3929)"/>
<path d="M5.96773 7.25909C2.67185 7.25909 0 9.96639 0 13.306V33.9258C0 37.2808 2.68418 40.0006 5.99528 40.0006H36.7778C39.0385 40.0006 40.5951 37.7012 39.781 35.564C39.0176 33.5597 37.3293 32.0649 35.2669 31.5669L11.9354 25.9327V13.306C11.9354 9.96639 9.26362 7.25909 5.96773 7.25909Z" fill="url(#paint27_radial_0_3929)"/>
<path d="M5.96773 7.25909C2.67185 7.25909 0 9.96639 0 13.306V33.9258C0 37.2808 2.68418 40.0006 5.99528 40.0006H36.7778C39.0385 40.0006 40.5951 37.7012 39.781 35.564C39.0176 33.5597 37.3293 32.0649 35.2669 31.5669L11.9354 25.9327V13.306C11.9354 9.96639 9.26362 7.25909 5.96773 7.25909Z" fill="url(#paint28_linear_0_3929)"/>
<path d="M5.96773 7.25909C2.67185 7.25909 0 9.96639 0 13.306V33.9258C0 37.2808 2.68418 40.0006 5.99528 40.0006H36.7778C39.0385 40.0006 40.5951 37.7012 39.781 35.564C39.0176 33.5597 37.3293 32.0649 35.2669 31.5669L11.9354 25.9327V13.306C11.9354 9.96639 9.26362 7.25909 5.96773 7.25909Z" fill="url(#paint29_radial_0_3929)"/>
<path d="M5.96773 7.25909C2.67185 7.25909 0 9.96639 0 13.306V33.9258C0 37.2808 2.68418 40.0006 5.99528 40.0006H36.7778C39.0385 40.0006 40.5951 37.7012 39.781 35.564C39.0176 33.5597 37.3293 32.0649 35.2669 31.5669L11.9354 25.9327V13.306C11.9354 9.96639 9.26362 7.25909 5.96773 7.25909Z" fill="url(#paint30_radial_0_3929)"/>
<path d="M5.96773 7.25909C2.67185 7.25909 0 9.96639 0 13.306V33.9258C0 37.2808 2.68418 40.0006 5.99528 40.0006H36.7778C39.0385 40.0006 40.5951 37.7012 39.781 35.564C39.0176 33.5597 37.3293 32.0649 35.2669 31.5669L11.9354 25.9327V13.306C11.9354 9.96639 9.26362 7.25909 5.96773 7.25909Z" fill="url(#paint31_radial_0_3929)"/>
<path d="M5.96773 7.25909C2.67185 7.25909 0 9.96639 0 13.306V33.9258C0 37.2808 2.68418 40.0006 5.99528 40.0006H36.7778C39.0385 40.0006 40.5951 37.7012 39.781 35.564C39.0176 33.5597 37.3293 32.0649 35.2669 31.5669L11.9354 25.9327V13.306C11.9354 9.96639 9.26362 7.25909 5.96773 7.25909Z" fill="url(#paint32_radial_0_3929)"/>
<path d="M5.96773 7.25909C2.67185 7.25909 0 9.96639 0 13.306V33.9258C0 37.2808 2.68418 40.0006 5.99528 40.0006H36.7778C39.0385 40.0006 40.5951 37.7012 39.781 35.564C39.0176 33.5597 37.3293 32.0649 35.2669 31.5669L11.9354 25.9327V13.306C11.9354 9.96639 9.26362 7.25909 5.96773 7.25909Z" fill="url(#paint33_radial_0_3929)"/>
<path d="M5.96773 7.25909C2.67185 7.25909 0 9.96639 0 13.306V33.9258C0 37.2808 2.68418 40.0006 5.99528 40.0006H36.7778C39.0385 40.0006 40.5951 37.7012 39.781 35.564C39.0176 33.5597 37.3293 32.0649 35.2669 31.5669L11.9354 25.9327V13.306C11.9354 9.96639 9.26362 7.25909 5.96773 7.25909Z" fill="url(#paint34_radial_0_3929)"/>
<path d="M5.96773 7.25909C2.67185 7.25909 0 9.96639 0 13.306V33.9258C0 37.2808 2.68418 40.0006 5.99528 40.0006H36.7778C39.0385 40.0006 40.5951 37.7012 39.781 35.564C39.0176 33.5597 37.3293 32.0649 35.2669 31.5669L11.9354 25.9327V13.306C11.9354 9.96639 9.26362 7.25909 5.96773 7.25909Z" fill="url(#paint35_radial_0_3929)"/>
<path d="M5.96773 7.25909C2.67185 7.25909 0 9.96639 0 13.306V33.9258C0 37.2808 2.68418 40.0006 5.99528 40.0006H36.7778C39.0385 40.0006 40.5951 37.7012 39.781 35.564C39.0176 33.5597 37.3293 32.0649 35.2669 31.5669L11.9354 25.9327V13.306C11.9354 9.96639 9.26362 7.25909 5.96773 7.25909Z" fill="url(#paint36_linear_0_3929)"/>
<path d="M5.96773 7.25909C2.67185 7.25909 0 9.96639 0 13.306V33.9258C0 37.2808 2.68418 40.0006 5.99528 40.0006H36.7778C39.0385 40.0006 40.5951 37.7012 39.781 35.564C39.0176 33.5597 37.3293 32.0649 35.2669 31.5669L11.9354 25.9327V13.306C11.9354 9.96639 9.26362 7.25909 5.96773 7.25909Z" fill="url(#paint37_radial_0_3929)"/>
<path d="M5.96773 7.25909C2.67185 7.25909 0 9.96639 0 13.306V33.9258C0 37.2808 2.68418 40.0006 5.99528 40.0006H36.7778C39.0385 40.0006 40.5951 37.7012 39.781 35.564C39.0176 33.5597 37.3293 32.0649 35.2669 31.5669L11.9354 25.9327V13.306C11.9354 9.96639 9.26362 7.25909 5.96773 7.25909Z" fill="url(#paint38_radial_0_3929)"/>
<path d="M34.4551 32.7422C35.4569 32.9334 37.7017 33.8169 38.6663 35.8208" stroke="url(#paint39_linear_0_3929)" stroke-width="3.23805" stroke-linecap="round"/>
<path d="M9.89142 12.1322C9.89142 10.8384 8.85634 9.78961 7.5795 9.78961C6.30266 9.78961 5.26758 10.8384 5.26758 12.1322V33.8144C5.26758 35.1082 6.30266 36.157 7.5795 36.157C8.85634 36.157 9.89142 35.1082 9.89142 33.8144V12.1322Z" fill="url(#paint40_linear_0_3929)"/>
<path d="M9.89142 12.1322C9.89142 10.8384 8.85634 9.78961 7.5795 9.78961C6.30266 9.78961 5.26758 10.8384 5.26758 12.1322V33.8144C5.26758 35.1082 6.30266 36.157 7.5795 36.157C8.85634 36.157 9.89142 35.1082 9.89142 33.8144V12.1322Z" fill="url(#paint41_linear_0_3929)"/>
<path d="M25.1751 38.2692C32.5841 38.2692 38.5904 32.1832 38.5904 24.6759C38.5904 17.1686 32.5841 11.0826 25.1751 11.0826C17.7659 11.0826 11.7598 17.1686 11.7598 24.6759C11.7598 32.1832 17.7659 38.2692 25.1751 38.2692Z" fill="url(#paint42_radial_0_3929)"/>
<path d="M25.1751 38.2692C32.5841 38.2692 38.5904 32.1832 38.5904 24.6759C38.5904 17.1686 32.5841 11.0826 25.1751 11.0826C17.7659 11.0826 11.7598 17.1686 11.7598 24.6759C11.7598 32.1832 17.7659 38.2692 25.1751 38.2692Z" fill="url(#paint43_radial_0_3929)"/>
<path d="M25.1751 38.2692C32.5841 38.2692 38.5904 32.1832 38.5904 24.6759C38.5904 17.1686 32.5841 11.0826 25.1751 11.0826C17.7659 11.0826 11.7598 17.1686 11.7598 24.6759C11.7598 32.1832 17.7659 38.2692 25.1751 38.2692Z" fill="url(#paint44_radial_0_3929)"/>
<path d="M25.1751 38.2692C32.5841 38.2692 38.5904 32.1832 38.5904 24.6759C38.5904 17.1686 32.5841 11.0826 25.1751 11.0826C17.7659 11.0826 11.7598 17.1686 11.7598 24.6759C11.7598 32.1832 17.7659 38.2692 25.1751 38.2692Z" fill="url(#paint45_radial_0_3929)"/>
<path d="M25.1751 38.2692C32.5841 38.2692 38.5904 32.1832 38.5904 24.6759C38.5904 17.1686 32.5841 11.0826 25.1751 11.0826C17.7659 11.0826 11.7598 17.1686 11.7598 24.6759C11.7598 32.1832 17.7659 38.2692 25.1751 38.2692Z" fill="url(#paint46_radial_0_3929)"/>
<path d="M25.1751 38.2692C32.5841 38.2692 38.5904 32.1832 38.5904 24.6759C38.5904 17.1686 32.5841 11.0826 25.1751 11.0826C17.7659 11.0826 11.7598 17.1686 11.7598 24.6759C11.7598 32.1832 17.7659 38.2692 25.1751 38.2692Z" fill="url(#paint47_radial_0_3929)"/>
<path d="M27.6183 35.2641C31.3468 35.2641 34.3694 32.2014 34.3694 28.4234C34.3694 24.6454 31.3468 21.5828 27.6183 21.5828C23.8898 21.5828 20.8672 24.6454 20.8672 28.4234C20.8672 32.2014 23.8898 35.2641 27.6183 35.2641Z" fill="url(#paint48_linear_0_3929)"/>
<path d="M27.9662 35.0397C31.6668 35.0397 34.6668 32 34.6668 28.2502C34.6668 24.5005 31.6668 21.4607 27.9662 21.4607C24.2655 21.4607 21.2656 24.5005 21.2656 28.2502C21.2656 32 24.2655 35.0397 27.9662 35.0397Z" fill="url(#paint49_radial_0_3929)"/>
<path d="M27.9662 35.0397C31.6668 35.0397 34.6668 32 34.6668 28.2502C34.6668 24.5005 31.6668 21.4607 27.9662 21.4607C24.2655 21.4607 21.2656 24.5005 21.2656 28.2502C21.2656 32 24.2655 35.0397 27.9662 35.0397Z" fill="url(#paint50_radial_0_3929)"/>
<path d="M27.9662 35.0397C31.6668 35.0397 34.6668 32 34.6668 28.2502C34.6668 24.5005 31.6668 21.4607 27.9662 21.4607C24.2655 21.4607 21.2656 24.5005 21.2656 28.2502C21.2656 32 24.2655 35.0397 27.9662 35.0397Z" fill="url(#paint51_radial_0_3929)"/>
<path d="M27.9662 35.0397C31.6668 35.0397 34.6668 32 34.6668 28.2502C34.6668 24.5005 31.6668 21.4607 27.9662 21.4607C24.2655 21.4607 21.2656 24.5005 21.2656 28.2502C21.2656 32 24.2655 35.0397 27.9662 35.0397Z" fill="url(#paint52_radial_0_3929)" fill-opacity="0.5"/>
<path d="M32.6057 29.3521C33.5796 28.7883 33.5954 26.9594 32.6412 25.2671C31.6869 23.5749 30.1239 22.6601 29.15 23.224C28.1762 23.7878 28.1603 25.6167 29.1146 27.3089C30.0688 29.0012 31.6319 29.9159 32.6057 29.3521Z" fill="url(#paint53_radial_0_3929)"/>
<path d="M28.1855 20.3232C30.1692 20.3232 33.7178 21.5292 34.8862 24.5443" stroke="url(#paint54_linear_0_3929)" stroke-width="1.61903" stroke-linecap="round"/>
<path d="M4.38485 12.05C4.38485 11.5172 3.95854 11.0852 3.43266 11.0852C2.90678 11.0852 2.48047 11.5172 2.48047 12.05V34.0766C2.48047 34.6095 2.90678 35.0414 3.43266 35.0414C3.95854 35.0414 4.38485 34.6095 4.38485 34.0766V12.05Z" fill="url(#paint55_linear_0_3929)"/>
<defs>
<radialGradient id="paint0_radial_0_3929" cx="0" cy="0" r="1" gradientUnits="userSpaceOnUse" gradientTransform="translate(10.6411 0.737025) rotate(105.502) scale(7.46304 7.75736)">
<stop stop-color="#DBAB7A"/>
<stop offset="1" stop-color="#C8804E"/>
</radialGradient>
<radialGradient id="paint1_radial_0_3929" cx="0" cy="0" r="1" gradientUnits="userSpaceOnUse" gradientTransform="translate(10.3436 1.20603) rotate(138.177) scale(2.27748 1.48234)">
<stop stop-color="#EFC49B"/>
<stop offset="1" stop-color="#EFC49B" stop-opacity="0"/>
</radialGradient>
<radialGradient id="paint2_radial_0_3929" cx="0" cy="0" r="1" gradientUnits="userSpaceOnUse" gradientTransform="translate(6.85001 0.64769) rotate(46.5462) scale(1.53829 2.38217)">
<stop stop-color="#E6BA95"/>
<stop offset="1" stop-color="#E6BA95" stop-opacity="0"/>
</radialGradient>
<radialGradient id="paint3_radial_0_3929" cx="0" cy="0" r="1" gradientUnits="userSpaceOnUse" gradientTransform="translate(6.17773 2.79174) scale(1.33351 2.5014)">
<stop stop-color="#C1854E"/>
<stop offset="1" stop-color="#C1854E" stop-opacity="0"/>
</radialGradient>
<radialGradient id="paint4_radial_0_3929" cx="0" cy="0" r="1" gradientUnits="userSpaceOnUse" gradientTransform="translate(3.43349 0.64769) rotate(90) scale(7.54885 7.83162)">
<stop stop-color="#D5A674"/>
<stop offset="1" stop-color="#C48055"/>
</radialGradient>
<radialGradient id="paint5_radial_0_3929" cx="0" cy="0" r="1" gradientUnits="userSpaceOnUse" gradientTransform="translate(5.13069 1.20604) rotate(138.177) scale(2.27748 1.16548)">
<stop stop-color="#E6BA95"/>
<stop offset="1" stop-color="#E6BA95" stop-opacity="0"/>
</radialGradient>
<radialGradient id="paint6_radial_0_3929" cx="0" cy="0" r="1" gradientUnits="userSpaceOnUse" gradientTransform="translate(0.854643 1.25071) rotate(17.6035) scale(2.28931 2.40568)">
<stop stop-color="#E6BA95"/>
<stop offset="1" stop-color="#E6BA95" stop-opacity="0"/>
</radialGradient>
<radialGradient id="paint7_radial_0_3929" cx="0" cy="0" r="1" gradientUnits="userSpaceOnUse" gradientTransform="translate(6.34296 2.79174) rotate(180) scale(1.71923 2.09939)">
<stop stop-color="#C2844E"/>
<stop offset="1" stop-color="#C2844E" stop-opacity="0"/>
</radialGradient>
<linearGradient id="paint8_linear_0_3929" x1="3.43349" y1="9.0899" x2="3.43349" y2="6.40983" gradientUnits="userSpaceOnUse">
<stop stop-color="#C27C40"/>
<stop offset="1" stop-color="#C27C40" stop-opacity="0"/>
</linearGradient>
<linearGradient id="paint9_linear_0_3929" x1="3.76422" y1="4.15433" x2="3.76422" y2="8.06277" gradientUnits="userSpaceOnUse">
<stop stop-color="#DFA178" stop-opacity="0"/>
<stop offset="1" stop-color="#DFA178"/>
</linearGradient>
<linearGradient id="paint10_linear_0_3929" x1="8.97711" y1="3.23865" x2="8.97711" y2="8.06277" gradientUnits="userSpaceOnUse">
<stop stop-color="#E3A776" stop-opacity="0"/>
<stop offset="1" stop-color="#E3A776"/>
</linearGradient>
<radialGradient id="paint11_radial_0_3929" cx="0" cy="0" r="1" gradientUnits="userSpaceOnUse" gradientTransform="translate(9.4933 1.74157) rotate(138.222) scale(1.3744 0.618475)">
<stop offset="0.00558659" stop-color="#8D7470"/>
<stop offset="1" stop-color="#593434"/>
</radialGradient>
<radialGradient id="paint12_radial_0_3929" cx="0" cy="0" r="1" gradientUnits="userSpaceOnUse" gradientTransform="translate(8.60061 2.74101) rotate(90) scale(0.658849 0.776961)">
<stop stop-color="#65354C"/>
<stop offset="1" stop-color="#65354C" stop-opacity="0"/>
</radialGradient>
<radialGradient id="paint13_radial_0_3929" cx="0" cy="0" r="1" gradientUnits="userSpaceOnUse" gradientTransform="translate(7.94489 1.48474) rotate(46.4447) scale(0.631763 0.772532)">
<stop stop-color="#8D7470"/>
<stop offset="1" stop-color="#8D7470" stop-opacity="0"/>
</radialGradient>
<radialGradient id="paint14_radial_0_3929" cx="0" cy="0" r="1" gradientUnits="userSpaceOnUse" gradientTransform="translate(7.55366 3.21561) rotate(-37.233) scale(0.775151 0.795209)">
<stop stop-color="#8D7470"/>
<stop offset="1" stop-color="#8D7470" stop-opacity="0"/>
</radialGradient>
<radialGradient id="paint15_radial_0_3929" cx="0" cy="0" r="1" gradientUnits="userSpaceOnUse" gradientTransform="translate(4.28028 1.74512) rotate(138.222) scale(1.37281 0.61776)">
<stop offset="0.00558659" stop-color="#8D7470"/>
<stop offset="1" stop-color="#593434"/>
</radialGradient>
<radialGradient id="paint16_radial_0_3929" cx="0" cy="0" r="1" gradientUnits="userSpaceOnUse" gradientTransform="translate(3.38863 2.7434) rotate(90) scale(0.658089 0.776064)">
<stop stop-color="#65354C"/>
<stop offset="1" stop-color="#65354C" stop-opacity="0"/>
</radialGradient>
<radialGradient id="paint17_radial_0_3929" cx="0" cy="0" r="1" gradientUnits="userSpaceOnUse" gradientTransform="translate(2.73365 1.48857) rotate(46.4447) scale(0.631033 0.771639)">
<stop stop-color="#8D7470"/>
<stop offset="1" stop-color="#8D7470" stop-opacity="0"/>
</radialGradient>
<radialGradient id="paint18_radial_0_3929" cx="0" cy="0" r="1" gradientUnits="userSpaceOnUse" gradientTransform="translate(2.34287 3.21744) rotate(-37.233) scale(0.774255 0.79429)">
<stop stop-color="#8D7470"/>
<stop offset="1" stop-color="#8D7470" stop-opacity="0"/>
</radialGradient>
<radialGradient id="paint19_radial_0_3929" cx="0" cy="0" r="1" gradientUnits="userSpaceOnUse" gradientTransform="translate(23.5517 27.8514) rotate(-76.1259) scale(20.4284 27.5009)">
<stop stop-color="#844E42"/>
<stop offset="1" stop-color="#8F5C4D"/>
</radialGradient>
<radialGradient id="paint20_radial_0_3929" cx="0" cy="0" r="1" gradientUnits="userSpaceOnUse" gradientTransform="translate(34.1811 13.111) rotate(118.078) scale(7.49267 12.6124)">
<stop stop-color="#AD8378"/>
<stop offset="1" stop-color="#AD8378" stop-opacity="0"/>
</radialGradient>
<radialGradient id="paint21_radial_0_3929" cx="0" cy="0" r="1" gradientUnits="userSpaceOnUse" gradientTransform="translate(10.4203 10.1183) rotate(51.402) scale(3.88643 16.0778)">
<stop stop-color="#AD8378"/>
<stop offset="0.460845" stop-color="#AD8378" stop-opacity="0"/>
</radialGradient>
<radialGradient id="paint22_radial_0_3929" cx="0" cy="0" r="1" gradientUnits="userSpaceOnUse" gradientTransform="translate(36.9582 30.2634) rotate(-76.5249) scale(11.1615 10.7188)">
<stop stop-color="#7A5857"/>
<stop offset="1" stop-color="#7A5857" stop-opacity="0"/>
</radialGradient>
<radialGradient id="paint23_radial_0_3929" cx="0" cy="0" r="1" gradientUnits="userSpaceOnUse" gradientTransform="translate(11.9853 18.2925) scale(1.87353 6.05674)">
<stop stop-color="#896863"/>
<stop offset="0.75" stop-color="#896863" stop-opacity="0"/>
</radialGradient>
<linearGradient id="paint24_linear_0_3929" x1="-1.39382" y1="22.1335" x2="2.00057" y2="22.1335" gradientUnits="userSpaceOnUse">
<stop stop-color="#E4C0A8"/>
<stop offset="1" stop-color="#E4C0A8" stop-opacity="0"/>
</linearGradient>
<radialGradient id="paint25_radial_0_3929" cx="0" cy="0" r="1" gradientUnits="userSpaceOnUse" gradientTransform="translate(1.55975 41.8766) rotate(-60.9896) scale(10.726 5.82841)">
<stop stop-color="#AD5C4F"/>
<stop offset="1" stop-color="#AD5C4F" stop-opacity="0"/>
</radialGradient>
<radialGradient id="paint26_radial_0_3929" cx="0" cy="0" r="1" gradientUnits="userSpaceOnUse" gradientTransform="translate(26.3344 40.4473) rotate(-134.961) scale(21.2108 34.1561)">
<stop stop-color="#B96956"/>
<stop offset="1" stop-color="#B96956" stop-opacity="0"/>
</radialGradient>
<radialGradient id="paint27_radial_0_3929" cx="0" cy="0" r="1" gradientUnits="userSpaceOnUse" gradientTransform="translate(32.2415 40.0006) rotate(-81.5271) scale(4.78703 7.84872)">
<stop stop-color="#B15F4F"/>
<stop offset="1" stop-color="#B15F4F" stop-opacity="0"/>
</radialGradient>
<linearGradient id="paint28_linear_0_3929" x1="20" y1="40.4473" x2="20" y2="38.4371" gradientUnits="userSpaceOnUse">
<stop offset="0.010416" stop-color="#AA6469"/>
<stop offset="1" stop-color="#AA6469" stop-opacity="0"/>
</linearGradient>
<radialGradient id="paint29_radial_0_3929" cx="0" cy="0" r="1" gradientUnits="userSpaceOnUse" gradientTransform="translate(42.6451 31.8264) rotate(142.322) scale(10.3042 10.6162)">
<stop stop-color="#E6AC7C"/>
<stop offset="1" stop-color="#E6AC7C" stop-opacity="0"/>
</radialGradient>
<radialGradient id="paint30_radial_0_3929" cx="0" cy="0" r="1" gradientUnits="userSpaceOnUse" gradientTransform="translate(15.6222 32.541) rotate(144.652) scale(3.78321 4.5046)">
<stop stop-color="#CA865D"/>
<stop offset="1" stop-color="#CA865D" stop-opacity="0"/>
</radialGradient>
<radialGradient id="paint31_radial_0_3929" cx="0" cy="0" r="1" gradientUnits="userSpaceOnUse" gradientTransform="translate(13.9912 30.7097) rotate(138.201) scale(6.03153 2.55007)">
<stop stop-color="#D4976F"/>
<stop offset="1" stop-color="#D4976F" stop-opacity="0"/>
</radialGradient>
<radialGradient id="paint32_radial_0_3929" cx="0" cy="0" r="1" gradientUnits="userSpaceOnUse" gradientTransform="translate(20 32.6303) rotate(70.9622) scale(7.79663 5.76579)">
<stop offset="0.72008" stop-color="#B15F54"/>
<stop offset="1" stop-color="#B15F54" stop-opacity="0"/>
</radialGradient>
<radialGradient id="paint33_radial_0_3929" cx="0" cy="0" r="1" gradientUnits="userSpaceOnUse" gradientTransform="translate(15.1373 9.89449) rotate(122.333) scale(15.3306 11.3019)">
<stop stop-color="#D79D6A"/>
<stop offset="1" stop-color="#D79D6A" stop-opacity="0"/>
</radialGradient>
<radialGradient id="paint34_radial_0_3929" cx="0" cy="0" r="1" gradientUnits="userSpaceOnUse" gradientTransform="translate(0.766253 8.28645) rotate(46.2867) scale(3.95505 4.58136)">
<stop stop-color="#DFB897"/>
<stop offset="0.841768" stop-color="#DFB897" stop-opacity="0"/>
</radialGradient>
<radialGradient id="paint35_radial_0_3929" cx="0" cy="0" r="1" gradientUnits="userSpaceOnUse" gradientTransform="translate(14.2115 27.8063) rotate(120.632) scale(4.41247 1.39475)">
<stop offset="0.368512" stop-color="#933F17"/>
<stop offset="1" stop-color="#933F17" stop-opacity="0"/>
</radialGradient>
<linearGradient id="paint36_linear_0_3929" x1="-0.104388" y1="22.1335" x2="0.226226" y2="22.1335" gradientUnits="userSpaceOnUse">
<stop stop-color="#E4C0A8"/>
<stop offset="1" stop-color="#E4C0A8" stop-opacity="0"/>
</linearGradient>
<radialGradient id="paint37_radial_0_3929" cx="0" cy="0" r="1" gradientUnits="userSpaceOnUse" gradientTransform="translate(6.35312 6.8038) rotate(90) scale(5.8299 4.97488)">
<stop stop-color="#CF9E72"/>
<stop offset="1" stop-color="#CF9E72" stop-opacity="0"/>
</radialGradient>
<radialGradient id="paint38_radial_0_3929" cx="0" cy="0" r="1" gradientUnits="userSpaceOnUse" gradientTransform="translate(3.62613 7.54385) rotate(79.1859) scale(0.881085 1.98496)">
<stop offset="0.023661" stop-color="#C47E40"/>
<stop offset="1" stop-color="#C47E40" stop-opacity="0"/>
</radialGradient>
<linearGradient id="paint39_linear_0_3929" x1="36.2565" y1="34.0586" x2="40.1337" y2="37.3624" gradientUnits="userSpaceOnUse">
<stop stop-color="#D89D72"/>
<stop offset="1" stop-color="#D89D72" stop-opacity="0"/>
</linearGradient>
<linearGradient id="paint40_linear_0_3929" x1="7.57951" y1="9.78961" x2="7.57951" y2="44.2404" gradientUnits="userSpaceOnUse">
<stop stop-color="#E5A97C"/>
<stop offset="1" stop-color="#E5A97C" stop-opacity="0"/>
</linearGradient>
<linearGradient id="paint41_linear_0_3929" x1="8.08403" y1="8.90966" x2="7.56609" y2="17.1277" gradientUnits="userSpaceOnUse">
<stop stop-color="#F5C293"/>
<stop offset="1" stop-color="#F5C293" stop-opacity="0"/>
</linearGradient>
<radialGradient id="paint42_radial_0_3929" cx="0" cy="0" r="1" gradientUnits="userSpaceOnUse" gradientTransform="translate(31.8898 15.6101) rotate(122.766) scale(21.9917 31.0843)">
<stop stop-color="#9A6A5D"/>
<stop offset="1" stop-color="#683A3D"/>
</radialGradient>
<radialGradient id="paint43_radial_0_3929" cx="0" cy="0" r="1" gradientUnits="userSpaceOnUse" gradientTransform="translate(31.6253 11.6794) rotate(114.588) scale(29.2412 23.351)">
<stop offset="0.615396" stop-color="#693A3E" stop-opacity="0"/>
<stop offset="1" stop-color="#66322F"/>
</radialGradient>
<radialGradient id="paint44_radial_0_3929" cx="0" cy="0" r="1" gradientUnits="userSpaceOnUse" gradientTransform="translate(21.6626 36.4253) rotate(-63.5725) scale(13.8667 12.8885)">
<stop stop-color="#65334D"/>
<stop offset="1" stop-color="#71315B" stop-opacity="0"/>
</radialGradient>
<radialGradient id="paint45_radial_0_3929" cx="0" cy="0" r="1" gradientUnits="userSpaceOnUse" gradientTransform="translate(31.6253 11.6794) rotate(115.057) scale(29.3523 24.3391)">
<stop offset="0.859919" stop-color="#582D4B" stop-opacity="0"/>
<stop offset="1" stop-color="#582D4B"/>
</radialGradient>
<radialGradient id="paint46_radial_0_3929" cx="0" cy="0" r="1" gradientUnits="userSpaceOnUse" gradientTransform="translate(16.7693 14.4488) rotate(-37.6489) scale(4.89953 1.38894)">
<stop stop-color="#876359"/>
<stop offset="1" stop-color="#876359" stop-opacity="0"/>
</radialGradient>
<radialGradient id="paint47_radial_0_3929" cx="0" cy="0" r="1" gradientUnits="userSpaceOnUse" gradientTransform="translate(33.0359 18.7369) rotate(134.622) scale(4.64406 7.21649)">
<stop stop-color="#AB837A"/>
<stop offset="1" stop-color="#AA827A" stop-opacity="0"/>
</radialGradient>
<linearGradient id="paint48_linear_0_3929" x1="27.6183" y1="21.5828" x2="23.404" y2="34.3658" gradientUnits="userSpaceOnUse">
<stop stop-color="#754743"/>
<stop offset="1" stop-color="#4E1F2F"/>
</linearGradient>
<radialGradient id="paint49_radial_0_3929" cx="0" cy="0" r="1" gradientUnits="userSpaceOnUse" gradientTransform="translate(31.2707 24.7232) rotate(115.733) scale(12.793 19.3489)">
<stop stop-color="#8C5B50"/>
<stop offset="1" stop-color="#5A303E"/>
</radialGradient>
<radialGradient id="paint50_radial_0_3929" cx="0" cy="0" r="1" gradientUnits="userSpaceOnUse" gradientTransform="translate(26.5979 35.0397) rotate(-72.2711) scale(8.25162 7.38469)">
<stop stop-color="#683352"/>
<stop offset="1" stop-color="#683352" stop-opacity="0"/>
</radialGradient>
<radialGradient id="paint51_radial_0_3929" cx="0" cy="0" r="1" gradientUnits="userSpaceOnUse" gradientTransform="translate(28.4934 27.314) rotate(97.4767) scale(7.79199 8.5134)">
<stop offset="0.764336" stop-color="#613548" stop-opacity="0"/>
<stop offset="1" stop-color="#4D2737"/>
</radialGradient>
<radialGradient id="paint52_radial_0_3929" cx="0" cy="0" r="1" gradientUnits="userSpaceOnUse" gradientTransform="translate(38.368 23.6959) rotate(156.598) scale(14.1701 8.99561)">
<stop stop-color="#AE847A"/>
<stop offset="1" stop-color="#AE847A" stop-opacity="0"/>
</radialGradient>
<radialGradient id="paint53_radial_0_3929" cx="0" cy="0" r="1" gradientUnits="userSpaceOnUse" gradientTransform="translate(28.8863 27.4111) rotate(-36.5689) scale(3.95435 11.6117)">
<stop offset="0.366774" stop-color="#AF857B" stop-opacity="0"/>
<stop offset="1" stop-color="#AF857B"/>
</radialGradient>
<linearGradient id="paint54_linear_0_3929" x1="32.2412" y1="20.9262" x2="29.554" y2="24.1969" gradientUnits="userSpaceOnUse">
<stop stop-color="#A07B76"/>
<stop offset="1" stop-color="#A07B76" stop-opacity="0"/>
</linearGradient>
<linearGradient id="paint55_linear_0_3929" x1="4.38485" y1="34.0387" x2="4.38485" y2="12.3955" gradientUnits="userSpaceOnUse">
<stop stop-color="#BB7248"/>
<stop offset="1" stop-color="#BB7248" stop-opacity="0"/>
</linearGradient>
</defs>
</svg>
