<svg width="40" height="38" viewBox="0 0 40 38" fill="none" xmlns="http://www.w3.org/2000/svg">
<g id="&#240;&#159;&#166;&#134; emoji &#34;nerd face&#34;">
<path id="Vector" d="M19.9992 37.3304C32.445 37.3304 38.6644 28.9737 38.6644 18.6652C38.6644 8.35668 32.445 0 19.9992 0C7.55323 0 1.33398 8.35668 1.33398 18.6652C1.33398 28.9737 7.55323 37.3304 19.9992 37.3304Z" fill="url(#paint0_radial_0_3729)"/>
<path id="Vector_2" d="M19.9992 37.3304C32.445 37.3304 38.6644 28.9737 38.6644 18.6652C38.6644 8.35668 32.445 0 19.9992 0C7.55323 0 1.33398 8.35668 1.33398 18.6652C1.33398 28.9737 7.55323 37.3304 19.9992 37.3304Z" fill="url(#paint1_radial_0_3729)"/>
<path id="Vector_3" d="M19.9992 37.3304C32.445 37.3304 38.6644 28.9737 38.6644 18.6652C38.6644 8.35668 32.445 0 19.9992 0C7.55323 0 1.33398 8.35668 1.33398 18.6652C1.33398 28.9737 7.55323 37.3304 19.9992 37.3304Z" fill="url(#paint2_radial_0_3729)"/>
<path id="Vector_4" d="M19.9992 37.3304C32.445 37.3304 38.6644 28.9737 38.6644 18.6652C38.6644 8.35668 32.445 0 19.9992 0C7.55323 0 1.33398 8.35668 1.33398 18.6652C1.33398 28.9737 7.55323 37.3304 19.9992 37.3304Z" fill="url(#paint3_radial_0_3729)" fill-opacity="0.6"/>
<path id="Vector_5" d="M19.9992 37.3304C32.445 37.3304 38.6644 28.9737 38.6644 18.6652C38.6644 8.35668 32.445 0 19.9992 0C7.55323 0 1.33398 8.35668 1.33398 18.6652C1.33398 28.9737 7.55323 37.3304 19.9992 37.3304Z" fill="url(#paint4_radial_0_3729)"/>
<path id="Vector_6" d="M19.9992 37.3304C32.445 37.3304 38.6644 28.9737 38.6644 18.6652C38.6644 8.35668 32.445 0 19.9992 0C7.55323 0 1.33398 8.35668 1.33398 18.6652C1.33398 28.9737 7.55323 37.3304 19.9992 37.3304Z" fill="url(#paint5_radial_0_3729)"/>
<path id="Vector_7" d="M19.9992 37.3304C32.445 37.3304 38.6644 28.9737 38.6644 18.6652C38.6644 8.35668 32.445 0 19.9992 0C7.55323 0 1.33398 8.35668 1.33398 18.6652C1.33398 28.9737 7.55323 37.3304 19.9992 37.3304Z" fill="url(#paint6_radial_0_3729)"/>
<path id="Vector_8" d="M19.9992 37.3304C32.445 37.3304 38.6644 28.9737 38.6644 18.6652C38.6644 8.35668 32.445 0 19.9992 0C7.55323 0 1.33398 8.35668 1.33398 18.6652C1.33398 28.9737 7.55323 37.3304 19.9992 37.3304Z" fill="url(#paint7_radial_0_3729)"/>
<path id="Vector_9" d="M29.3327 24.0001C29.3327 29.1601 25.1593 33.3335 19.9993 33.3335C14.8393 33.3335 10.666 29.1601 10.666 24.0001H19.9993H29.3327Z" fill="url(#paint8_radial_0_3729)"/>
<path id="Vector_10" d="M16 24.0001H24V24.6668C24 25.4032 23.4031 26.0001 22.6667 26.0001H17.3333C16.5969 26.0001 16 25.4032 16 24.6668V24.0001Z" fill="url(#paint9_linear_0_3729)"/>
<path id="Vector_11" d="M11.334 21.3334C14.6477 21.3334 17.334 18.6471 17.334 15.3334C17.334 12.0196 14.6477 9.33337 11.334 9.33337C8.02028 9.33337 5.33398 12.0196 5.33398 15.3334C5.33398 18.6471 8.02028 21.3334 11.334 21.3334Z" fill="white"/>
<path id="Vector_12" d="M28.666 21.3334C31.9797 21.3334 34.666 18.6471 34.666 15.3334C34.666 12.0196 31.9797 9.33337 28.666 9.33337C25.3523 9.33337 22.666 12.0196 22.666 15.3334C22.666 18.6471 25.3523 21.3334 28.666 21.3334Z" fill="white"/>
<g id="Group">
<path id="Vector_13" fill-rule="evenodd" clip-rule="evenodd" d="M12.6673 11.9998C10.8259 11.9998 9.33398 13.4918 9.33398 15.3331C9.33398 17.1744 10.8259 18.6664 12.6673 18.6664C14.5087 18.6664 16.0007 17.1744 16.0007 15.3331C16.0007 13.4918 14.5087 11.9998 12.6673 11.9998ZM27.334 11.9998C25.4927 11.9998 24.0007 13.4918 24.0007 15.3331C24.0007 17.1744 25.4927 18.6664 27.334 18.6664C29.1753 18.6664 30.6673 17.1744 30.6673 15.3331C30.6673 13.4918 29.1753 11.9998 27.334 11.9998Z" fill="#402A32"/>
<path id="Vector_14" fill-rule="evenodd" clip-rule="evenodd" d="M0 14.6666C0 13.9302 0.59696 13.3333 1.33333 13.3333H4.66667V15.9999H1.33333C0.59696 15.9999 0 15.403 0 14.6666ZM38.5507 15.9999H35.3333V13.3333H38.5507C39.3479 13.3333 40 13.9333 40 14.6666C40 15.3999 39.3479 15.9999 38.5507 15.9999ZM17.3333 13.3333H22.6667V15.9999H17.3333V13.3333Z" fill="url(#paint10_linear_0_3729)"/>
<path id="Vector_15" fill-rule="evenodd" clip-rule="evenodd" d="M11.3333 9.33315C8.01963 9.33315 5.33333 12.0194 5.33333 15.3331C5.33333 18.6469 8.01963 21.3331 11.3333 21.3331C14.6471 21.3331 17.3333 18.6469 17.3333 15.3331C17.3333 12.0194 14.6471 9.33315 11.3333 9.33315ZM4 15.3331C4 11.283 7.28324 7.99982 11.3333 7.99982C15.3835 7.99982 18.6667 11.283 18.6667 15.3331C18.6667 19.3833 15.3835 22.6665 11.3333 22.6665C7.28324 22.6665 4 19.3833 4 15.3331Z" fill="url(#paint11_radial_0_3729)"/>
<path id="Vector_16" fill-rule="evenodd" clip-rule="evenodd" d="M28.6673 9.34292C25.3591 9.34292 22.6771 12.0249 22.6771 15.3331C22.6771 18.6414 25.3591 21.3234 28.6673 21.3234C31.9756 21.3234 34.6576 18.6414 34.6576 15.3331C34.6576 12.0249 31.9756 9.34292 28.6673 9.34292ZM21.334 15.3331C21.334 11.283 24.6172 7.99982 28.6673 7.99982C32.7175 7.99982 36.0007 11.283 36.0007 15.3331C36.0007 19.3833 32.7175 22.6665 28.6673 22.6665C24.6172 22.6665 21.334 19.3833 21.334 15.3331Z" fill="url(#paint12_radial_0_3729)"/>
<path id="Vector_17" fill-rule="evenodd" clip-rule="evenodd" d="M11.3333 9.33315C8.01963 9.33315 5.33333 12.0194 5.33333 15.3331C5.33333 18.6469 8.01963 21.3331 11.3333 21.3331C14.6471 21.3331 17.3333 18.6469 17.3333 15.3331C17.3333 12.0194 14.6471 9.33315 11.3333 9.33315ZM4 15.3331C4 11.283 7.28324 7.99982 11.3333 7.99982C15.3835 7.99982 18.6667 11.283 18.6667 15.3331C18.6667 19.3833 15.3835 22.6665 11.3333 22.6665C7.28324 22.6665 4 19.3833 4 15.3331Z" fill="url(#paint13_radial_0_3729)"/>
<path id="Vector_18" fill-rule="evenodd" clip-rule="evenodd" d="M28.6673 9.33315C25.3536 9.33315 22.6673 12.0194 22.6673 15.3331C22.6673 18.6469 25.3536 21.3331 28.6673 21.3331C31.9811 21.3331 34.6673 18.6469 34.6673 15.3331C34.6673 12.0194 31.9811 9.33315 28.6673 9.33315ZM21.334 15.3331C21.334 11.283 24.6172 7.99982 28.6673 7.99982C32.7175 7.99982 36.0007 11.283 36.0007 15.3331C36.0007 19.3833 32.7175 22.6665 28.6673 22.6665C24.6172 22.6665 21.334 19.3833 21.334 15.3331Z" fill="url(#paint14_radial_0_3729)"/>
</g>
</g>
<defs>
<radialGradient id="paint0_radial_0_3729" cx="0" cy="0" r="1" gradientUnits="userSpaceOnUse" gradientTransform="translate(32.6673 9.33333) rotate(132.839) scale(50.0044)">
<stop stop-color="#FFF478"/>
<stop offset="0.474827" stop-color="#FFB02E"/>
<stop offset="1" stop-color="#F70A8D"/>
</radialGradient>
<radialGradient id="paint1_radial_0_3729" cx="0" cy="0" r="1" gradientUnits="userSpaceOnUse" gradientTransform="translate(32.6673 9.33333) rotate(131.878) scale(51.9316)">
<stop stop-color="#FFF478"/>
<stop offset="0.474827" stop-color="#FFB02E"/>
<stop offset="1" stop-color="#F70A8D"/>
</radialGradient>
<radialGradient id="paint2_radial_0_3729" cx="0" cy="0" r="1" gradientUnits="userSpaceOnUse" gradientTransform="translate(20.0007 14) rotate(101.31) scale(23.7955 30.4775)">
<stop offset="0.787821" stop-color="#F59639" stop-opacity="0"/>
<stop offset="0.972509" stop-color="#FF7DCE"/>
</radialGradient>
<radialGradient id="paint3_radial_0_3729" cx="0" cy="0" r="1" gradientUnits="userSpaceOnUse" gradientTransform="translate(22.6673 16) rotate(135) scale(54.6829)">
<stop offset="0.314853" stop-opacity="0"/>
<stop offset="1"/>
</radialGradient>
<radialGradient id="paint4_radial_0_3729" cx="0" cy="0" r="1" gradientUnits="userSpaceOnUse" gradientTransform="translate(20.0006 20) rotate(77.692) scale(37.5292)">
<stop offset="0.507903" stop-color="#7D6133" stop-opacity="0"/>
<stop offset="1" stop-color="#715B32"/>
</radialGradient>
<radialGradient id="paint5_radial_0_3729" cx="0" cy="0" r="1" gradientUnits="userSpaceOnUse" gradientTransform="translate(20.6673 19.3333) rotate(55.7131) scale(17.7513 12.8671)">
<stop stop-color="#FFB849"/>
<stop offset="1" stop-color="#FFB847" stop-opacity="0"/>
</radialGradient>
<radialGradient id="paint6_radial_0_3729" cx="0" cy="0" r="1" gradientUnits="userSpaceOnUse" gradientTransform="translate(26.0007 21.3333) rotate(9.86581) scale(15.5635)">
<stop stop-color="#FFA64B"/>
<stop offset="0.900412" stop-color="#FFAE46" stop-opacity="0"/>
</radialGradient>
<radialGradient id="paint7_radial_0_3729" cx="0" cy="0" r="1" gradientUnits="userSpaceOnUse" gradientTransform="translate(22.0007 17.3333) rotate(43.9708) scale(78.7372)">
<stop offset="0.185425" stop-opacity="0"/>
<stop offset="1" stop-opacity="0.4"/>
</radialGradient>
<radialGradient id="paint8_radial_0_3729" cx="0" cy="0" r="1" gradientUnits="userSpaceOnUse" gradientTransform="translate(19.9993 35.4076) rotate(-90) scale(12.7407 25.4815)">
<stop stop-color="#F70A8D"/>
<stop offset="1" stop-color="#89029C"/>
</radialGradient>
<linearGradient id="paint9_linear_0_3729" x1="20" y1="24.0001" x2="20" y2="26.0001" gradientUnits="userSpaceOnUse">
<stop stop-color="#CEA4F3"/>
<stop offset="0.279919" stop-color="#ECCDFF"/>
<stop offset="1" stop-color="white"/>
</linearGradient>
<linearGradient id="paint10_linear_0_3729" x1="20" y1="13.3333" x2="20" y2="15.9999" gradientUnits="userSpaceOnUse">
<stop stop-color="#5F5253"/>
<stop offset="1" stop-color="#4D2C4F"/>
</linearGradient>
<radialGradient id="paint11_radial_0_3729" cx="0" cy="0" r="1" gradientUnits="userSpaceOnUse" gradientTransform="translate(16 11.9998) rotate(131.186) scale(14.1735)">
<stop stop-color="#54424A"/>
<stop offset="1" stop-color="#52394D"/>
</radialGradient>
<radialGradient id="paint12_radial_0_3729" cx="0" cy="0" r="1" gradientUnits="userSpaceOnUse" gradientTransform="translate(33.334 11.9998) rotate(131.186) scale(14.1735)">
<stop stop-color="#54424A"/>
<stop offset="1" stop-color="#52394D"/>
</radialGradient>
<radialGradient id="paint13_radial_0_3729" cx="0" cy="0" r="1" gradientUnits="userSpaceOnUse" gradientTransform="translate(12 15.3332) rotate(170.538) scale(8.11035)">
<stop offset="0.899365" stop-color="#3B2131" stop-opacity="0"/>
<stop offset="1" stop-color="#422833"/>
</radialGradient>
<radialGradient id="paint14_radial_0_3729" cx="0" cy="0" r="1" gradientUnits="userSpaceOnUse" gradientTransform="translate(29.334 15.3332) rotate(170.538) scale(8.11035)">
<stop offset="0.899365" stop-color="#3B2131" stop-opacity="0"/>
<stop offset="1" stop-color="#422833"/>
</radialGradient>
</defs>
</svg>
