<svg width="40" height="40" viewBox="0 0 40 40" fill="none" xmlns="http://www.w3.org/2000/svg">
<g id="&#240;&#159;&#166;&#134; emoji &#34;rabbit&#34;">
<g id="Group">
<path id="Vector" d="M3.82678 21.4049C1.67711 21.1828 0.000514984 19.3589 0.000514984 17.142C0.000514984 14.775 1.91144 12.8563 4.26884 12.8563C6.47286 12.8563 8.2869 14.5337 8.51326 16.6865C9.81083 16.063 11.2662 15.7134 12.8055 15.7134H31.3015L31.1735 19.9991H29.8361V36.2847C29.8361 36.7582 30.2269 37.1292 30.677 37.27C31.8349 37.6323 32.6816 38.7212 32.6816 39.999H25.4682C24.6857 39.999 23.9885 39.499 23.7324 38.7419L22.7222 35.7133H12.8055C9.16319 35.7133 6.25332 33.9845 4.50331 31.0559C4.48908 31.0345 4.47842 31.0166 4.46774 30.9988C4.45708 30.9809 4.4464 30.963 4.43217 30.9416C4.30412 30.7273 4.1903 30.513 4.09071 30.2845C4.08359 30.2702 4.07648 30.2523 4.06936 30.2345C4.06225 30.2166 4.05514 30.1988 4.04802 30.1845C4.02668 30.1416 4.0089 30.1023 3.99111 30.063C3.97333 30.0238 3.95555 29.9845 3.9342 29.9416C3.92524 29.9143 3.91613 29.8929 3.90717 29.87C3.90191 29.8568 3.89678 29.8429 3.89152 29.8273C3.87729 29.7845 3.85951 29.7452 3.84172 29.7059C3.82394 29.6666 3.80615 29.6273 3.79192 29.5845C3.78495 29.563 3.77784 29.5453 3.77073 29.5275C3.76361 29.5096 3.75636 29.4916 3.74924 29.4702C3.72093 29.3846 3.69219 29.2985 3.64965 29.213C3.63542 29.1845 3.62119 29.1416 3.62119 29.1131C3.60711 29.0631 3.58932 29.0096 3.57154 28.9562C3.55375 28.9025 3.53583 28.8488 3.5216 28.7988C3.25127 27.8988 2.77934 27.1866 2.77934 25.7133C2.77934 24.7276 2.98834 23.7562 3.25867 22.8562C3.2729 22.7991 3.29068 22.7454 3.30847 22.6918C3.32625 22.6382 3.34404 22.5848 3.35826 22.5276C3.37249 22.4991 3.38672 22.4562 3.38672 22.4277C3.41518 22.3419 3.44363 22.2562 3.48631 22.1705C3.49343 22.1489 3.50054 22.1311 3.5078 22.1132C3.51477 22.0954 3.52188 22.0775 3.529 22.0562C3.55745 21.9705 3.58591 21.8991 3.62859 21.8134C3.64282 21.7705 3.65705 21.7277 3.6855 21.6991C3.71396 21.6134 3.75664 21.5419 3.79932 21.4705C3.80757 21.4457 3.81583 21.4257 3.82678 21.4049Z" fill="url(#paint0_linear_0_5486)"/>
<path id="Vector_2" d="M3.82678 21.4049C1.67711 21.1828 0.000514984 19.3589 0.000514984 17.142C0.000514984 14.775 1.91144 12.8563 4.26884 12.8563C6.47286 12.8563 8.2869 14.5337 8.51326 16.6865C9.81083 16.063 11.2662 15.7134 12.8055 15.7134H31.3015L31.1735 19.9991H29.8361V36.2847C29.8361 36.7582 30.2269 37.1292 30.677 37.27C31.8349 37.6323 32.6816 38.7212 32.6816 39.999H25.4682C24.6857 39.999 23.9885 39.499 23.7324 38.7419L22.7222 35.7133H12.8055C9.16319 35.7133 6.25332 33.9845 4.50331 31.0559C4.48908 31.0345 4.47842 31.0166 4.46774 30.9988C4.45708 30.9809 4.4464 30.963 4.43217 30.9416C4.30412 30.7273 4.1903 30.513 4.09071 30.2845C4.08359 30.2702 4.07648 30.2523 4.06936 30.2345C4.06225 30.2166 4.05514 30.1988 4.04802 30.1845C4.02668 30.1416 4.0089 30.1023 3.99111 30.063C3.97333 30.0238 3.95555 29.9845 3.9342 29.9416C3.92524 29.9143 3.91613 29.8929 3.90717 29.87C3.90191 29.8568 3.89678 29.8429 3.89152 29.8273C3.87729 29.7845 3.85951 29.7452 3.84172 29.7059C3.82394 29.6666 3.80615 29.6273 3.79192 29.5845C3.78495 29.563 3.77784 29.5453 3.77073 29.5275C3.76361 29.5096 3.75636 29.4916 3.74924 29.4702C3.72093 29.3846 3.69219 29.2985 3.64965 29.213C3.63542 29.1845 3.62119 29.1416 3.62119 29.1131C3.60711 29.0631 3.58932 29.0096 3.57154 28.9562C3.55375 28.9025 3.53583 28.8488 3.5216 28.7988C3.25127 27.8988 2.77934 27.1866 2.77934 25.7133C2.77934 24.7276 2.98834 23.7562 3.25867 22.8562C3.2729 22.7991 3.29068 22.7454 3.30847 22.6918C3.32625 22.6382 3.34404 22.5848 3.35826 22.5276C3.37249 22.4991 3.38672 22.4562 3.38672 22.4277C3.41518 22.3419 3.44363 22.2562 3.48631 22.1705C3.49343 22.1489 3.50054 22.1311 3.5078 22.1132C3.51477 22.0954 3.52188 22.0775 3.529 22.0562C3.55745 21.9705 3.58591 21.8991 3.62859 21.8134C3.64282 21.7705 3.65705 21.7277 3.6855 21.6991C3.71396 21.6134 3.75664 21.5419 3.79932 21.4705C3.80757 21.4457 3.81583 21.4257 3.82678 21.4049Z" fill="url(#paint1_linear_0_5486)"/>
<path id="Vector_3" d="M3.82678 21.4049C1.67711 21.1828 0.000514984 19.3589 0.000514984 17.142C0.000514984 14.775 1.91144 12.8563 4.26884 12.8563C6.47286 12.8563 8.2869 14.5337 8.51326 16.6865C9.81083 16.063 11.2662 15.7134 12.8055 15.7134H31.3015L31.1735 19.9991H29.8361V36.2847C29.8361 36.7582 30.2269 37.1292 30.677 37.27C31.8349 37.6323 32.6816 38.7212 32.6816 39.999H25.4682C24.6857 39.999 23.9885 39.499 23.7324 38.7419L22.7222 35.7133H12.8055C9.16319 35.7133 6.25332 33.9845 4.50331 31.0559C4.48908 31.0345 4.47842 31.0166 4.46774 30.9988C4.45708 30.9809 4.4464 30.963 4.43217 30.9416C4.30412 30.7273 4.1903 30.513 4.09071 30.2845C4.08359 30.2702 4.07648 30.2523 4.06936 30.2345C4.06225 30.2166 4.05514 30.1988 4.04802 30.1845C4.02668 30.1416 4.0089 30.1023 3.99111 30.063C3.97333 30.0238 3.95555 29.9845 3.9342 29.9416C3.92524 29.9143 3.91613 29.8929 3.90717 29.87C3.90191 29.8568 3.89678 29.8429 3.89152 29.8273C3.87729 29.7845 3.85951 29.7452 3.84172 29.7059C3.82394 29.6666 3.80615 29.6273 3.79192 29.5845C3.78495 29.563 3.77784 29.5453 3.77073 29.5275C3.76361 29.5096 3.75636 29.4916 3.74924 29.4702C3.72093 29.3846 3.69219 29.2985 3.64965 29.213C3.63542 29.1845 3.62119 29.1416 3.62119 29.1131C3.60711 29.0631 3.58932 29.0096 3.57154 28.9562C3.55375 28.9025 3.53583 28.8488 3.5216 28.7988C3.25127 27.8988 2.77934 27.1866 2.77934 25.7133C2.77934 24.7276 2.98834 23.7562 3.25867 22.8562C3.2729 22.7991 3.29068 22.7454 3.30847 22.6918C3.32625 22.6382 3.34404 22.5848 3.35826 22.5276C3.37249 22.4991 3.38672 22.4562 3.38672 22.4277C3.41518 22.3419 3.44363 22.2562 3.48631 22.1705C3.49343 22.1489 3.50054 22.1311 3.5078 22.1132C3.51477 22.0954 3.52188 22.0775 3.529 22.0562C3.55745 21.9705 3.58591 21.8991 3.62859 21.8134C3.64282 21.7705 3.65705 21.7277 3.6855 21.6991C3.71396 21.6134 3.75664 21.5419 3.79932 21.4705C3.80757 21.4457 3.81583 21.4257 3.82678 21.4049Z" fill="url(#paint2_linear_0_5486)"/>
<path id="Vector_4" d="M3.82678 21.4049C1.67711 21.1828 0.000514984 19.3589 0.000514984 17.142C0.000514984 14.775 1.91144 12.8563 4.26884 12.8563C6.47286 12.8563 8.2869 14.5337 8.51326 16.6865C9.81083 16.063 11.2662 15.7134 12.8055 15.7134H31.3015L31.1735 19.9991H29.8361V36.2847C29.8361 36.7582 30.2269 37.1292 30.677 37.27C31.8349 37.6323 32.6816 38.7212 32.6816 39.999H25.4682C24.6857 39.999 23.9885 39.499 23.7324 38.7419L22.7222 35.7133H12.8055C9.16319 35.7133 6.25332 33.9845 4.50331 31.0559C4.48908 31.0345 4.47842 31.0166 4.46774 30.9988C4.45708 30.9809 4.4464 30.963 4.43217 30.9416C4.30412 30.7273 4.1903 30.513 4.09071 30.2845C4.08359 30.2702 4.07648 30.2523 4.06936 30.2345C4.06225 30.2166 4.05514 30.1988 4.04802 30.1845C4.02668 30.1416 4.0089 30.1023 3.99111 30.063C3.97333 30.0238 3.95555 29.9845 3.9342 29.9416C3.92524 29.9143 3.91613 29.8929 3.90717 29.87C3.90191 29.8568 3.89678 29.8429 3.89152 29.8273C3.87729 29.7845 3.85951 29.7452 3.84172 29.7059C3.82394 29.6666 3.80615 29.6273 3.79192 29.5845C3.78495 29.563 3.77784 29.5453 3.77073 29.5275C3.76361 29.5096 3.75636 29.4916 3.74924 29.4702C3.72093 29.3846 3.69219 29.2985 3.64965 29.213C3.63542 29.1845 3.62119 29.1416 3.62119 29.1131C3.60711 29.0631 3.58932 29.0096 3.57154 28.9562C3.55375 28.9025 3.53583 28.8488 3.5216 28.7988C3.25127 27.8988 2.77934 27.1866 2.77934 25.7133C2.77934 24.7276 2.98834 23.7562 3.25867 22.8562C3.2729 22.7991 3.29068 22.7454 3.30847 22.6918C3.32625 22.6382 3.34404 22.5848 3.35826 22.5276C3.37249 22.4991 3.38672 22.4562 3.38672 22.4277C3.41518 22.3419 3.44363 22.2562 3.48631 22.1705C3.49343 22.1489 3.50054 22.1311 3.5078 22.1132C3.51477 22.0954 3.52188 22.0775 3.529 22.0562C3.55745 21.9705 3.58591 21.8991 3.62859 21.8134C3.64282 21.7705 3.65705 21.7277 3.6855 21.6991C3.71396 21.6134 3.75664 21.5419 3.79932 21.4705C3.80757 21.4457 3.81583 21.4257 3.82678 21.4049Z" fill="url(#paint3_radial_0_5486)"/>
<path id="Vector_5" d="M3.82678 21.4049C1.67711 21.1828 0.000514984 19.3589 0.000514984 17.142C0.000514984 14.775 1.91144 12.8563 4.26884 12.8563C6.47286 12.8563 8.2869 14.5337 8.51326 16.6865C9.81083 16.063 11.2662 15.7134 12.8055 15.7134H31.3015L31.1735 19.9991H29.8361V36.2847C29.8361 36.7582 30.2269 37.1292 30.677 37.27C31.8349 37.6323 32.6816 38.7212 32.6816 39.999H25.4682C24.6857 39.999 23.9885 39.499 23.7324 38.7419L22.7222 35.7133H12.8055C9.16319 35.7133 6.25332 33.9845 4.50331 31.0559C4.48908 31.0345 4.47842 31.0166 4.46774 30.9988C4.45708 30.9809 4.4464 30.963 4.43217 30.9416C4.30412 30.7273 4.1903 30.513 4.09071 30.2845C4.08359 30.2702 4.07648 30.2523 4.06936 30.2345C4.06225 30.2166 4.05514 30.1988 4.04802 30.1845C4.02668 30.1416 4.0089 30.1023 3.99111 30.063C3.97333 30.0238 3.95555 29.9845 3.9342 29.9416C3.92524 29.9143 3.91613 29.8929 3.90717 29.87C3.90191 29.8568 3.89678 29.8429 3.89152 29.8273C3.87729 29.7845 3.85951 29.7452 3.84172 29.7059C3.82394 29.6666 3.80615 29.6273 3.79192 29.5845C3.78495 29.563 3.77784 29.5453 3.77073 29.5275C3.76361 29.5096 3.75636 29.4916 3.74924 29.4702C3.72093 29.3846 3.69219 29.2985 3.64965 29.213C3.63542 29.1845 3.62119 29.1416 3.62119 29.1131C3.60711 29.0631 3.58932 29.0096 3.57154 28.9562C3.55375 28.9025 3.53583 28.8488 3.5216 28.7988C3.25127 27.8988 2.77934 27.1866 2.77934 25.7133C2.77934 24.7276 2.98834 23.7562 3.25867 22.8562C3.2729 22.7991 3.29068 22.7454 3.30847 22.6918C3.32625 22.6382 3.34404 22.5848 3.35826 22.5276C3.37249 22.4991 3.38672 22.4562 3.38672 22.4277C3.41518 22.3419 3.44363 22.2562 3.48631 22.1705C3.49343 22.1489 3.50054 22.1311 3.5078 22.1132C3.51477 22.0954 3.52188 22.0775 3.529 22.0562C3.55745 21.9705 3.58591 21.8991 3.62859 21.8134C3.64282 21.7705 3.65705 21.7277 3.6855 21.6991C3.71396 21.6134 3.75664 21.5419 3.79932 21.4705C3.80757 21.4457 3.81583 21.4257 3.82678 21.4049Z" fill="url(#paint4_radial_0_5486)"/>
<path id="Vector_6" d="M3.82678 21.4049C1.67711 21.1828 0.000514984 19.3589 0.000514984 17.142C0.000514984 14.775 1.91144 12.8563 4.26884 12.8563C6.47286 12.8563 8.2869 14.5337 8.51326 16.6865C9.81083 16.063 11.2662 15.7134 12.8055 15.7134H31.3015L31.1735 19.9991H29.8361V36.2847C29.8361 36.7582 30.2269 37.1292 30.677 37.27C31.8349 37.6323 32.6816 38.7212 32.6816 39.999H25.4682C24.6857 39.999 23.9885 39.499 23.7324 38.7419L22.7222 35.7133H12.8055C9.16319 35.7133 6.25332 33.9845 4.50331 31.0559C4.48908 31.0345 4.47842 31.0166 4.46774 30.9988C4.45708 30.9809 4.4464 30.963 4.43217 30.9416C4.30412 30.7273 4.1903 30.513 4.09071 30.2845C4.08359 30.2702 4.07648 30.2523 4.06936 30.2345C4.06225 30.2166 4.05514 30.1988 4.04802 30.1845C4.02668 30.1416 4.0089 30.1023 3.99111 30.063C3.97333 30.0238 3.95555 29.9845 3.9342 29.9416C3.92524 29.9143 3.91613 29.8929 3.90717 29.87C3.90191 29.8568 3.89678 29.8429 3.89152 29.8273C3.87729 29.7845 3.85951 29.7452 3.84172 29.7059C3.82394 29.6666 3.80615 29.6273 3.79192 29.5845C3.78495 29.563 3.77784 29.5453 3.77073 29.5275C3.76361 29.5096 3.75636 29.4916 3.74924 29.4702C3.72093 29.3846 3.69219 29.2985 3.64965 29.213C3.63542 29.1845 3.62119 29.1416 3.62119 29.1131C3.60711 29.0631 3.58932 29.0096 3.57154 28.9562C3.55375 28.9025 3.53583 28.8488 3.5216 28.7988C3.25127 27.8988 2.77934 27.1866 2.77934 25.7133C2.77934 24.7276 2.98834 23.7562 3.25867 22.8562C3.2729 22.7991 3.29068 22.7454 3.30847 22.6918C3.32625 22.6382 3.34404 22.5848 3.35826 22.5276C3.37249 22.4991 3.38672 22.4562 3.38672 22.4277C3.41518 22.3419 3.44363 22.2562 3.48631 22.1705C3.49343 22.1489 3.50054 22.1311 3.5078 22.1132C3.51477 22.0954 3.52188 22.0775 3.529 22.0562C3.55745 21.9705 3.58591 21.8991 3.62859 21.8134C3.64282 21.7705 3.65705 21.7277 3.6855 21.6991C3.71396 21.6134 3.75664 21.5419 3.79932 21.4705C3.80757 21.4457 3.81583 21.4257 3.82678 21.4049Z" fill="url(#paint5_linear_0_5486)"/>
<path id="Vector_7" d="M3.82678 21.4049C1.67711 21.1828 0.000514984 19.3589 0.000514984 17.142C0.000514984 14.775 1.91144 12.8563 4.26884 12.8563C6.47286 12.8563 8.2869 14.5337 8.51326 16.6865C9.81083 16.063 11.2662 15.7134 12.8055 15.7134H31.3015L31.1735 19.9991H29.8361V36.2847C29.8361 36.7582 30.2269 37.1292 30.677 37.27C31.8349 37.6323 32.6816 38.7212 32.6816 39.999H25.4682C24.6857 39.999 23.9885 39.499 23.7324 38.7419L22.7222 35.7133H12.8055C9.16319 35.7133 6.25332 33.9845 4.50331 31.0559C4.48908 31.0345 4.47842 31.0166 4.46774 30.9988C4.45708 30.9809 4.4464 30.963 4.43217 30.9416C4.30412 30.7273 4.1903 30.513 4.09071 30.2845C4.08359 30.2702 4.07648 30.2523 4.06936 30.2345C4.06225 30.2166 4.05514 30.1988 4.04802 30.1845C4.02668 30.1416 4.0089 30.1023 3.99111 30.063C3.97333 30.0238 3.95555 29.9845 3.9342 29.9416C3.92524 29.9143 3.91613 29.8929 3.90717 29.87C3.90191 29.8568 3.89678 29.8429 3.89152 29.8273C3.87729 29.7845 3.85951 29.7452 3.84172 29.7059C3.82394 29.6666 3.80615 29.6273 3.79192 29.5845C3.78495 29.563 3.77784 29.5453 3.77073 29.5275C3.76361 29.5096 3.75636 29.4916 3.74924 29.4702C3.72093 29.3846 3.69219 29.2985 3.64965 29.213C3.63542 29.1845 3.62119 29.1416 3.62119 29.1131C3.60711 29.0631 3.58932 29.0096 3.57154 28.9562C3.55375 28.9025 3.53583 28.8488 3.5216 28.7988C3.25127 27.8988 2.77934 27.1866 2.77934 25.7133C2.77934 24.7276 2.98834 23.7562 3.25867 22.8562C3.2729 22.7991 3.29068 22.7454 3.30847 22.6918C3.32625 22.6382 3.34404 22.5848 3.35826 22.5276C3.37249 22.4991 3.38672 22.4562 3.38672 22.4277C3.41518 22.3419 3.44363 22.2562 3.48631 22.1705C3.49343 22.1489 3.50054 22.1311 3.5078 22.1132C3.51477 22.0954 3.52188 22.0775 3.529 22.0562C3.55745 21.9705 3.58591 21.8991 3.62859 21.8134C3.64282 21.7705 3.65705 21.7277 3.6855 21.6991C3.71396 21.6134 3.75664 21.5419 3.79932 21.4705C3.80757 21.4457 3.81583 21.4257 3.82678 21.4049Z" fill="url(#paint6_radial_0_5486)"/>
</g>
<path id="Vector_8" d="M10.605 35.489V30.8929H21.3426L22.7227 35.7143H12.8059C12.0385 35.7143 11.3035 35.6376 10.605 35.489Z" fill="url(#paint7_linear_0_5486)"/>
<path id="Vector_9" d="M10.605 35.489V30.8929H21.3426L22.7227 35.7143H12.8059C12.0385 35.7143 11.3035 35.6376 10.605 35.489Z" fill="url(#paint8_linear_0_5486)"/>
<g id="Group_2">
<path id="Vector_10" d="M23.0938 18.5193H13.2131C11.1089 18.5193 9.08639 19.3383 7.57085 20.8043C5.41179 22.8928 4.57207 26.0045 5.3859 28.9016L6.82076 34.0104" stroke="url(#paint9_linear_0_5486)" stroke-width="2.13416" stroke-linecap="round" stroke-linejoin="round"/>
</g>
<path id="Vector_11" d="M7.00368 19.6424C5.34486 21.3243 3.71351 22.2541 1.26577 20.1876C-0.409264 18.522 -0.422211 15.8084 1.2366 14.1267C2.89542 12.445 5.59784 12.4319 7.27287 14.0974C9.21951 16.0333 8.66249 17.9607 7.00368 19.6424Z" fill="url(#paint10_radial_0_5486)"/>
<path id="Vector_12" d="M7.00368 19.6424C5.34486 21.3243 3.71351 22.2541 1.26577 20.1876C-0.409264 18.522 -0.422211 15.8084 1.2366 14.1267C2.89542 12.445 5.59784 12.4319 7.27287 14.0974C9.21951 16.0333 8.66249 17.9607 7.00368 19.6424Z" fill="url(#paint11_radial_0_5486)"/>
<path id="Vector_13" d="M7.00368 19.6424C5.34486 21.3243 3.71351 22.2541 1.26577 20.1876C-0.409264 18.522 -0.422211 15.8084 1.2366 14.1267C2.89542 12.445 5.59784 12.4319 7.27287 14.0974C9.21951 16.0333 8.66249 17.9607 7.00368 19.6424Z" fill="url(#paint12_radial_0_5486)"/>
<path id="Vector_14" d="M7.00368 19.6424C5.34486 21.3243 3.71351 22.2541 1.26577 20.1876C-0.409264 18.522 -0.422211 15.8084 1.2366 14.1267C2.89542 12.445 5.59784 12.4319 7.27287 14.0974C9.21951 16.0333 8.66249 17.9607 7.00368 19.6424Z" fill="url(#paint13_radial_0_5486)"/>
<path id="Vector_15" d="M19.2359 6.41435L32.297 13.9715L35.1426 9.02864L22.8782 0.600108C21.2278 -0.528459 18.9798 -0.0141751 17.9839 1.71439C17.0448 3.35724 17.5997 5.45722 19.2359 6.41435Z" fill="url(#paint14_radial_0_5486)"/>
<path id="Vector_16" d="M19.2359 6.41435L32.297 13.9715L35.1426 9.02864L22.8782 0.600108C21.2278 -0.528459 18.9798 -0.0141751 17.9839 1.71439C17.0448 3.35724 17.5997 5.45722 19.2359 6.41435Z" fill="#D2CBD5"/>
<path id="Vector_17" d="M19.2359 6.41435L32.297 13.9715L35.1426 9.02864L22.8782 0.600108C21.2278 -0.528459 18.9798 -0.0141751 17.9839 1.71439C17.0448 3.35724 17.5997 5.45722 19.2359 6.41435Z" fill="url(#paint15_linear_0_5486)"/>
<path id="Vector_18" d="M19.2359 6.41435L32.297 13.9715L35.1426 9.02864L22.8782 0.600108C21.2278 -0.528459 18.9798 -0.0141751 17.9839 1.71439C17.0448 3.35724 17.5997 5.45722 19.2359 6.41435Z" fill="url(#paint16_linear_0_5486)"/>
<path id="Vector_19" d="M19.2359 6.41435L32.297 13.9715L35.1426 9.02864L22.8782 0.600108C21.2278 -0.528459 18.9798 -0.0141751 17.9839 1.71439C17.0448 3.35724 17.5997 5.45722 19.2359 6.41435Z" fill="url(#paint17_radial_0_5486)"/>
<path id="Vector_20" d="M19.2359 6.41435L32.297 13.9715L35.1426 9.02864L22.8782 0.600108C21.2278 -0.528459 18.9798 -0.0141751 17.9839 1.71439C17.0448 3.35724 17.5997 5.45722 19.2359 6.41435Z" fill="url(#paint18_radial_0_5486)"/>
<path id="Vector_21" d="M19.2359 6.41435L32.297 13.9715L35.1426 9.02864L22.8782 0.600108C21.2278 -0.528459 18.9798 -0.0141751 17.9839 1.71439C17.0448 3.35724 17.5997 5.45722 19.2359 6.41435Z" fill="url(#paint19_radial_0_5486)" fill-opacity="0.25"/>
<g id="Group_3">
<path id="Vector_22" d="M2.96913 27.2109L10.1883 27.2444C14.4124 27.2444 18.3692 29.7582 18.4831 34.0582V34.2725V36.701C18.4831 36.9439 18.6823 37.1439 18.9241 37.1439H19.9201C21.4851 37.1439 22.7656 38.4296 22.7656 40.001H18.4973H14.229H11.4261C8.85089 40.001 6.56022 38.3439 5.73501 35.901L2.96913 27.2109Z" fill="#C6B7D5"/>
<path id="Vector_23" d="M2.96913 27.2109L10.1883 27.2444C14.4124 27.2444 18.3692 29.7582 18.4831 34.0582V34.2725V36.701C18.4831 36.9439 18.6823 37.1439 18.9241 37.1439H19.9201C21.4851 37.1439 22.7656 38.4296 22.7656 40.001H18.4973H14.229H11.4261C8.85089 40.001 6.56022 38.3439 5.73501 35.901L2.96913 27.2109Z" fill="url(#paint20_linear_0_5486)"/>
<path id="Vector_24" d="M2.96913 27.2109L10.1883 27.2444C14.4124 27.2444 18.3692 29.7582 18.4831 34.0582V34.2725V36.701C18.4831 36.9439 18.6823 37.1439 18.9241 37.1439H19.9201C21.4851 37.1439 22.7656 38.4296 22.7656 40.001H18.4973H14.229H11.4261C8.85089 40.001 6.56022 38.3439 5.73501 35.901L2.96913 27.2109Z" fill="url(#paint21_radial_0_5486)"/>
</g>
<path id="Vector_25" d="M2.96913 27.21L10.1883 27.2434C14.4124 27.2434 18.3692 29.7572 18.4831 34.0572V34.2715V36.7001C18.4831 36.9429 18.6823 37.1429 18.9241 37.1429H19.9201C21.4851 37.1429 22.7656 38.4286 22.7656 40H18.4973H14.229H11.4261C8.85089 40 6.56022 38.3429 5.73501 35.9001L2.96913 27.21Z" fill="url(#paint22_linear_0_5486)"/>
<path id="Vector_26" d="M2.96913 27.21L10.1883 27.2434C14.4124 27.2434 18.3692 29.7572 18.4831 34.0572V34.2715V36.7001C18.4831 36.9429 18.6823 37.1429 18.9241 37.1429H19.9201C21.4851 37.1429 22.7656 38.4286 22.7656 40H18.4973H14.229H11.4261C8.85089 40 6.56022 38.3429 5.73501 35.9001L2.96913 27.21Z" fill="url(#paint23_radial_0_5486)"/>
<path id="Vector_27" d="M2.96913 27.21L10.1883 27.2434C14.4124 27.2434 18.3692 29.7572 18.4831 34.0572V34.2715V36.7001C18.4831 36.9429 18.6823 37.1429 18.9241 37.1429H19.9201C21.4851 37.1429 22.7656 38.4286 22.7656 40H18.4973H14.229H11.4261C8.85089 40 6.56022 38.3429 5.73501 35.9001L2.96913 27.21Z" fill="url(#paint24_linear_0_5486)"/>
<g id="Group_4">
<path id="Vector_28" d="M15.0674 6.00074L29.8785 7.14359C33.4069 7.41502 36.3094 9.20073 37.6468 12.1578C37.718 12.315 37.7891 12.4864 37.8602 12.6578L39.3541 16.2721C39.6814 17.0292 39.8379 17.8578 39.8379 18.6864C39.8379 21.7721 37.3338 24.2863 34.2606 24.2863H29.5939C25.0126 24.1435 21.3418 20.3578 21.3418 15.7149C21.3418 14.7149 21.5125 13.7578 21.8255 12.8578H14.797C12.919 12.8578 11.3824 11.315 11.3824 9.4293C11.3824 7.42931 13.0755 5.8436 15.0674 6.00074Z" fill="#CDC0DA"/>
</g>
<path id="Vector_29" d="M15.0674 5.99989L29.8785 7.14274C33.4069 7.41417 36.3094 9.19987 37.6468 12.157C37.718 12.3141 37.7891 12.4855 37.8602 12.657L39.3541 16.2712C39.6814 17.0284 39.8379 17.8569 39.8379 18.6855C39.8379 21.7712 37.3338 24.2855 34.2606 24.2855H29.5939C25.0126 24.1426 21.3418 20.3569 21.3418 15.7141C21.3418 14.7141 21.5125 13.757 21.8255 12.857H14.797C12.919 12.857 11.3824 11.3141 11.3824 9.42844C11.3824 7.42845 13.0755 5.84274 15.0674 5.99989Z" fill="url(#paint25_linear_0_5486)"/>
<path id="Vector_30" d="M15.0674 5.99989L29.8785 7.14274C33.4069 7.41417 36.3094 9.19987 37.6468 12.157C37.718 12.3141 37.7891 12.4855 37.8602 12.657L39.3541 16.2712C39.6814 17.0284 39.8379 17.8569 39.8379 18.6855C39.8379 21.7712 37.3338 24.2855 34.2606 24.2855H29.5939C25.0126 24.1426 21.3418 20.3569 21.3418 15.7141C21.3418 14.7141 21.5125 13.757 21.8255 12.857H14.797C12.919 12.857 11.3824 11.3141 11.3824 9.42844C11.3824 7.42845 13.0755 5.84274 15.0674 5.99989Z" fill="url(#paint26_linear_0_5486)"/>
<path id="Vector_31" d="M15.0674 5.99989L29.8785 7.14274C33.4069 7.41417 36.3094 9.19987 37.6468 12.157C37.718 12.3141 37.7891 12.4855 37.8602 12.657L39.3541 16.2712C39.6814 17.0284 39.8379 17.8569 39.8379 18.6855C39.8379 21.7712 37.3338 24.2855 34.2606 24.2855H29.5939C25.0126 24.1426 21.3418 20.3569 21.3418 15.7141C21.3418 14.7141 21.5125 13.757 21.8255 12.857H14.797C12.919 12.857 11.3824 11.3141 11.3824 9.42844C11.3824 7.42845 13.0755 5.84274 15.0674 5.99989Z" fill="url(#paint27_linear_0_5486)"/>
<path id="Vector_32" d="M39.4466 18.5184C39.5586 18.5184 39.6706 18.5337 39.7797 18.5611C39.9189 18.5963 40.0055 18.7304 39.9997 18.8744C39.9657 19.731 39.7486 20.5323 39.3831 21.2434C39.3175 21.371 39.1769 21.4443 39.0394 21.4048C38.4226 21.2278 37.9787 20.6629 37.9787 19.9924C37.9787 19.1817 38.6246 18.5184 39.4466 18.5184Z" fill="url(#paint28_linear_0_5486)"/>
<path id="Vector_33" d="M39.4466 18.5184C39.5586 18.5184 39.6706 18.5337 39.7797 18.5611C39.9189 18.5963 40.0055 18.7304 39.9997 18.8744C39.9657 19.731 39.7486 20.5323 39.3831 21.2434C39.3175 21.371 39.1769 21.4443 39.0394 21.4048C38.4226 21.2278 37.9787 20.6629 37.9787 19.9924C37.9787 19.1817 38.6246 18.5184 39.4466 18.5184Z" fill="url(#paint29_radial_0_5486)"/>
<path id="Vector_34" d="M26.3359 12.857H14.7957C12.9186 12.8558 11.3831 11.3134 11.3831 9.42844C11.3831 7.42845 13.0762 5.84274 15.0681 5.99989L26.3359 6.86934V12.857Z" fill="url(#paint30_linear_0_5486)"/>
<path id="Vector_35" d="M26.3359 12.857H14.7957C12.9186 12.8558 11.3831 11.3134 11.3831 9.42844C11.3831 7.42845 13.0762 5.84274 15.0681 5.99989L26.3359 6.86934V12.857Z" fill="url(#paint31_linear_0_5486)"/>
<path id="Vector_36" d="M26.3359 12.857H14.7957C12.9186 12.8558 11.3831 11.3134 11.3831 9.42844C11.3831 7.42845 13.0762 5.84274 15.0681 5.99989L26.3359 6.86934V12.857Z" fill="url(#paint32_radial_0_5486)"/>
<path id="Vector_37" d="M14.7972 7.41486C14.8541 7.41486 14.8968 7.41486 14.9537 7.41486L22.4517 8.00057C23.9599 8.11485 25.1692 9.20056 25.5107 10.6148C25.6103 11.0291 25.2973 11.4291 24.8847 11.4291H14.8683C13.787 11.4291 12.8622 10.5863 12.8195 9.50056C12.7626 8.35771 13.6732 7.41486 14.7972 7.41486Z" fill="url(#paint33_linear_0_5486)"/>
<path id="Vector_38" d="M14.7972 7.41486C14.8541 7.41486 14.8968 7.41486 14.9537 7.41486L22.4517 8.00057C23.9599 8.11485 25.1692 9.20056 25.5107 10.6148C25.6103 11.0291 25.2973 11.4291 24.8847 11.4291H14.8683C13.787 11.4291 12.8622 10.5863 12.8195 9.50056C12.7626 8.35771 13.6732 7.41486 14.7972 7.41486Z" fill="url(#paint34_linear_0_5486)"/>
<path id="Vector_39" d="M14.7972 7.41486C14.8541 7.41486 14.8968 7.41486 14.9537 7.41486L22.4517 8.00057C23.9599 8.11485 25.1692 9.20056 25.5107 10.6148C25.6103 11.0291 25.2973 11.4291 24.8847 11.4291H14.8683C13.787 11.4291 12.8622 10.5863 12.8195 9.50056C12.7626 8.35771 13.6732 7.41486 14.7972 7.41486Z" fill="url(#paint35_radial_0_5486)"/>
<path id="Vector_40" d="M14.7972 7.41486C14.8541 7.41486 14.8968 7.41486 14.9537 7.41486L22.4517 8.00057C23.9599 8.11485 25.1692 9.20056 25.5107 10.6148C25.6103 11.0291 25.2973 11.4291 24.8847 11.4291H14.8683C13.787 11.4291 12.8622 10.5863 12.8195 9.50056C12.7626 8.35771 13.6732 7.41486 14.7972 7.41486Z" fill="url(#paint36_radial_0_5486)"/>
<path id="Vector_41" d="M32.6816 17.0986C32.2836 17.0986 31.9609 16.7746 31.9609 16.3749C31.9609 15.9754 32.2836 15.6514 32.6816 15.6514C33.0797 15.6514 33.4023 15.9754 33.4023 16.3749C33.4023 16.7746 33.0797 17.0986 32.6816 17.0986Z" fill="url(#paint37_radial_0_5486)"/>
<path id="Vector_42" d="M32.6816 17.0986C32.2836 17.0986 31.9609 16.7746 31.9609 16.3749C31.9609 15.9754 32.2836 15.6514 32.6816 15.6514C33.0797 15.6514 33.4023 15.9754 33.4023 16.3749C33.4023 16.7746 33.0797 17.0986 32.6816 17.0986Z" fill="url(#paint38_radial_0_5486)"/>
<g id="Group_5">
<path id="Vector_43" d="M23.5767 12.8563C22.9715 14.4093 22.451 17.9941 25.2109 19.9098" stroke="url(#paint39_linear_0_5486)" stroke-width="1.06708" stroke-linecap="round" stroke-linejoin="round"/>
</g>
<g id="Group_6">
<path id="Vector_44" d="M14.3398 6.74023C13.6285 6.77743 12.2057 7.43219 11.9834 9.32951" stroke="url(#paint40_linear_0_5486)" stroke-width="0.213416" stroke-linecap="round" stroke-linejoin="round"/>
</g>
<g id="Group_7">
<path id="Vector_45" d="M35.2578 11.2707C35.2514 10.6272 34.7848 9.17307 32.9704 8.50452" stroke="url(#paint41_linear_0_5486)" stroke-width="0.497971" stroke-linecap="round" stroke-linejoin="round"/>
</g>
<g id="Group_8">
<path id="Vector_46" d="M22.7205 33.6046L24.2305 38.5042" stroke="url(#paint42_linear_0_5486)" stroke-width="0.497971" stroke-linecap="round" stroke-linejoin="round"/>
</g>
<g id="Group_9">
<path id="Vector_47" d="M5.60183 28.8828L8.26953 36.7399" stroke="url(#paint43_linear_0_5486)" stroke-width="1.06708" stroke-linecap="round" stroke-linejoin="round"/>
</g>
</g>
<defs>
<linearGradient id="paint0_linear_0_5486" x1="11.3827" y1="37.6776" x2="7.08151" y2="19.9178" gradientUnits="userSpaceOnUse">
<stop stop-color="#BDADCD"/>
<stop offset="1" stop-color="#CEC1DA"/>
</linearGradient>
<linearGradient id="paint1_linear_0_5486" x1="16.3411" y1="14.5081" x2="16.3411" y2="18.7491" gradientUnits="userSpaceOnUse">
<stop stop-color="#C1BEC2"/>
<stop offset="0.830189" stop-color="#C1BEC2" stop-opacity="0"/>
</linearGradient>
<linearGradient id="paint2_linear_0_5486" x1="16.3411" y1="14.9991" x2="16.3411" y2="22.1419" gradientUnits="userSpaceOnUse">
<stop stop-color="#CFC7D1"/>
<stop offset="1" stop-color="#CFC7D1" stop-opacity="0"/>
</linearGradient>
<radialGradient id="paint3_radial_0_5486" cx="0" cy="0" r="1" gradientUnits="userSpaceOnUse" gradientTransform="translate(6.98093 16.5615) rotate(-22.0107) scale(3.69269 2.6385)">
<stop stop-color="#ABA9AC"/>
<stop offset="0.830189" stop-color="#ABA9AC" stop-opacity="0"/>
</radialGradient>
<radialGradient id="paint4_radial_0_5486" cx="0" cy="0" r="1" gradientUnits="userSpaceOnUse" gradientTransform="translate(29.3675 22.2982) rotate(55.294) scale(4.72445 4.76177)">
<stop stop-color="#AF9BC4"/>
<stop offset="1" stop-color="#AF9BC4" stop-opacity="0"/>
</radialGradient>
<linearGradient id="paint5_linear_0_5486" x1="20.7197" y1="42.2311" x2="20.7646" y2="36.1205" gradientUnits="userSpaceOnUse">
<stop stop-color="#9C69CC"/>
<stop offset="0.576853" stop-color="#9C69CC" stop-opacity="0"/>
</linearGradient>
<radialGradient id="paint6_radial_0_5486" cx="0" cy="0" r="1" gradientUnits="userSpaceOnUse" gradientTransform="translate(14.495 30.9812) rotate(-15.6222) scale(7.2944 9.11099)">
<stop stop-color="#BAADC9"/>
<stop offset="0.967851" stop-color="#BAADC9" stop-opacity="0"/>
</radialGradient>
<linearGradient id="paint7_linear_0_5486" x1="17.8746" y1="37.6786" x2="19.2856" y2="32.9273" gradientUnits="userSpaceOnUse">
<stop stop-color="#9180A2"/>
<stop offset="1" stop-color="#9180A2" stop-opacity="0"/>
</linearGradient>
<linearGradient id="paint8_linear_0_5486" x1="18.8082" y1="36.2091" x2="18.8082" y2="34.9553" gradientUnits="userSpaceOnUse">
<stop stop-color="#9D7FB8"/>
<stop offset="1" stop-color="#9D7FB8" stop-opacity="0"/>
</linearGradient>
<linearGradient id="paint9_linear_0_5486" x1="8.5362" y1="18.5193" x2="19.1181" y2="18.5193" gradientUnits="userSpaceOnUse">
<stop stop-color="#E0D6ED"/>
<stop offset="1" stop-color="#E0D6ED" stop-opacity="0"/>
</linearGradient>
<radialGradient id="paint10_radial_0_5486" cx="0" cy="0" r="1" gradientUnits="userSpaceOnUse" gradientTransform="translate(1.51262 15.5353) rotate(38.2701) scale(7.92849 8.22145)">
<stop offset="0.0575586" stop-color="#F2EAF6"/>
<stop offset="0.668139" stop-color="#CDBFDB"/>
<stop offset="1" stop-color="#C0BBC3"/>
</radialGradient>
<radialGradient id="paint11_radial_0_5486" cx="0" cy="0" r="1" gradientUnits="userSpaceOnUse" gradientTransform="translate(2.04616 23.7495) rotate(-79.0126) scale(12.5969 8.06503)">
<stop offset="0.803554" stop-color="#C0BBC3" stop-opacity="0"/>
<stop offset="1" stop-color="#C0BBC3"/>
</radialGradient>
<radialGradient id="paint12_radial_0_5486" cx="0" cy="0" r="1" gradientUnits="userSpaceOnUse" gradientTransform="translate(8.70361 17.072) rotate(166.739) scale(3.26676 5.94241)">
<stop stop-color="#C0BBC3"/>
<stop offset="1" stop-color="#C0BBC3" stop-opacity="0"/>
</radialGradient>
<radialGradient id="paint13_radial_0_5486" cx="0" cy="0" r="1" gradientUnits="userSpaceOnUse" gradientTransform="translate(7.89291 15.58) rotate(153.557) scale(3.0539 6.29784)">
<stop stop-color="#D6D3D8"/>
<stop offset="0.357162" stop-color="#D6D3D8" stop-opacity="0"/>
</radialGradient>
<radialGradient id="paint14_radial_0_5486" cx="0" cy="0" r="1" gradientUnits="userSpaceOnUse" gradientTransform="translate(35.2995 14.9257) rotate(180) scale(28.6537 28.7703)">
<stop offset="0.00558659" stop-color="#CCCCCC"/>
<stop offset="1" stop-color="#E6E6E6"/>
</radialGradient>
<linearGradient id="paint15_linear_0_5486" x1="28.5444" y1="4.30812" x2="27.7397" y2="5.48812" gradientUnits="userSpaceOnUse">
<stop stop-color="#CAC1CE"/>
<stop offset="1" stop-color="#CAC1CE" stop-opacity="0"/>
</linearGradient>
<linearGradient id="paint16_linear_0_5486" x1="23.4758" y1="8.884" x2="24.0136" y2="5.58113" gradientUnits="userSpaceOnUse">
<stop stop-color="#CAC1CE"/>
<stop offset="1" stop-color="#CAC1CE" stop-opacity="0"/>
</linearGradient>
<radialGradient id="paint17_radial_0_5486" cx="0" cy="0" r="1" gradientUnits="userSpaceOnUse" gradientTransform="translate(29.5226 10.8036) rotate(-140.086) scale(14.7674 7.17336)">
<stop offset="0.947773" stop-color="#FAF1FF" stop-opacity="0"/>
<stop offset="1" stop-color="#FAF1FF"/>
</radialGradient>
<radialGradient id="paint18_radial_0_5486" cx="0" cy="0" r="1" gradientUnits="userSpaceOnUse" gradientTransform="translate(29.5226 10.8036) rotate(-139.837) scale(14.7778 5.44325)">
<stop offset="0.965762" stop-color="#D2CBD5" stop-opacity="0"/>
<stop offset="1" stop-color="#D2CBD5"/>
</radialGradient>
<radialGradient id="paint19_radial_0_5486" cx="0" cy="0" r="1" gradientUnits="userSpaceOnUse" gradientTransform="translate(16.8065 1.11616) rotate(43.2681) scale(5.86188 6.30757)">
<stop stop-color="#EDE9EF" stop-opacity="0"/>
<stop offset="0.0001" stop-color="#EDE9EF"/>
<stop offset="1" stop-color="#EDE9EF" stop-opacity="0.083333"/>
</radialGradient>
<linearGradient id="paint20_linear_0_5486" x1="15.5197" y1="41.8313" x2="15.5197" y2="37.5903" gradientUnits="userSpaceOnUse">
<stop stop-color="#9C69CC"/>
<stop offset="0.677672" stop-color="#9C69CC" stop-opacity="0"/>
</linearGradient>
<radialGradient id="paint21_radial_0_5486" cx="0" cy="0" r="1" gradientUnits="userSpaceOnUse" gradientTransform="translate(10.4053 48.6617) rotate(-56.8416) scale(13.3315 12.5077)">
<stop stop-color="#9C69CC"/>
<stop offset="1" stop-color="#9C69CC" stop-opacity="0"/>
</radialGradient>
<linearGradient id="paint22_linear_0_5486" x1="2.96913" y1="27.21" x2="12.9068" y2="36.924" gradientUnits="userSpaceOnUse">
<stop stop-color="#C6B7D5"/>
<stop offset="1" stop-color="#C6B7D5" stop-opacity="0"/>
</linearGradient>
<radialGradient id="paint23_radial_0_5486" cx="0" cy="0" r="1" gradientUnits="userSpaceOnUse" gradientTransform="translate(2.31323 26.1608) rotate(30.2612) scale(7.61845 5.13571)">
<stop stop-color="#E8E2EF"/>
<stop offset="0.858996" stop-color="#E8E2EF" stop-opacity="0"/>
</radialGradient>
<linearGradient id="paint24_linear_0_5486" x1="4.35847" y1="34.5089" x2="6.67295" y2="33.6113" gradientUnits="userSpaceOnUse">
<stop offset="0.283208" stop-color="#C6B7D5"/>
<stop offset="1" stop-color="#C6B7D5" stop-opacity="0"/>
</linearGradient>
<linearGradient id="paint25_linear_0_5486" x1="25.6101" y1="20.8481" x2="32.5462" y2="20.8481" gradientUnits="userSpaceOnUse">
<stop stop-color="#CDC0DA"/>
<stop offset="1" stop-color="#CDC0DA" stop-opacity="0"/>
</linearGradient>
<linearGradient id="paint26_linear_0_5486" x1="31.6569" y1="26.1605" x2="30.8502" y2="20.3578" gradientUnits="userSpaceOnUse">
<stop stop-color="#AE8ECD"/>
<stop offset="0.90177" stop-color="#AE8ECD" stop-opacity="0"/>
</linearGradient>
<linearGradient id="paint27_linear_0_5486" x1="45.529" y1="-3.66078" x2="25.4961" y2="27.0683" gradientUnits="userSpaceOnUse">
<stop offset="0.84355" stop-color="#AE8ECD" stop-opacity="0"/>
<stop offset="0.997467" stop-color="#AE8ECD"/>
</linearGradient>
<linearGradient id="paint28_linear_0_5486" x1="39.2597" y1="18.8399" x2="38.9894" y2="21.4513" gradientUnits="userSpaceOnUse">
<stop stop-color="#D66F77"/>
<stop offset="1" stop-color="#D56586"/>
</linearGradient>
<radialGradient id="paint29_radial_0_5486" cx="0" cy="0" r="1" gradientUnits="userSpaceOnUse" gradientTransform="translate(40.6825 20.6926) rotate(-155.972) scale(2.96028 2.73864)">
<stop offset="0.762976" stop-color="#E68E97" stop-opacity="0"/>
<stop offset="1" stop-color="#E68E97"/>
</radialGradient>
<linearGradient id="paint30_linear_0_5486" x1="20.5866" y1="13.9731" x2="20.6988" y2="11.8749" gradientUnits="userSpaceOnUse">
<stop stop-color="#B090CE"/>
<stop offset="1" stop-color="#B090CE" stop-opacity="0"/>
</linearGradient>
<linearGradient id="paint31_linear_0_5486" x1="25.8331" y1="13.1248" x2="22.6319" y2="13.0806" gradientUnits="userSpaceOnUse">
<stop stop-color="#CDC0DA"/>
<stop offset="1" stop-color="#CDC0DA" stop-opacity="0"/>
</linearGradient>
<radialGradient id="paint32_radial_0_5486" cx="0" cy="0" r="1" gradientUnits="userSpaceOnUse" gradientTransform="translate(12.1389 6.33917) rotate(45.5673) scale(4.00117 9.00534)">
<stop stop-color="#DCD4DF"/>
<stop offset="1" stop-color="#DCD4DF" stop-opacity="0"/>
</radialGradient>
<linearGradient id="paint33_linear_0_5486" x1="26.5884" y1="10.8934" x2="14.8499" y2="9.91916" gradientUnits="userSpaceOnUse">
<stop stop-color="#D55F78"/>
<stop offset="1" stop-color="#D26777"/>
</linearGradient>
<linearGradient id="paint34_linear_0_5486" x1="20.097" y1="12.0095" x2="20.097" y2="10.0898" gradientUnits="userSpaceOnUse">
<stop stop-color="#D46D75"/>
<stop offset="1" stop-color="#D46D75" stop-opacity="0"/>
</linearGradient>
<radialGradient id="paint35_radial_0_5486" cx="0" cy="0" r="1" gradientUnits="userSpaceOnUse" gradientTransform="translate(13.7835 4.73272) rotate(30.4215) scale(13.6212 7.44506)">
<stop offset="0.925336" stop-color="#E7878E" stop-opacity="0"/>
<stop offset="1" stop-color="#E7878E"/>
</radialGradient>
<radialGradient id="paint36_radial_0_5486" cx="0" cy="0" r="1" gradientUnits="userSpaceOnUse" gradientTransform="translate(28.8559 13.1702) rotate(-166.017) scale(17.1822 9.3359)">
<stop offset="0.887576" stop-color="#D6586C" stop-opacity="0"/>
<stop offset="1" stop-color="#B63A4D"/>
</radialGradient>
<radialGradient id="paint37_radial_0_5486" cx="0" cy="0" r="1" gradientUnits="userSpaceOnUse" gradientTransform="translate(32.4677 16.1421) rotate(54.2724) scale(1.00285 0.892929)">
<stop offset="0.00558659" stop-color="#433437"/>
<stop offset="1" stop-color="#3B2838"/>
</radialGradient>
<radialGradient id="paint38_radial_0_5486" cx="0" cy="0" r="1" gradientUnits="userSpaceOnUse" gradientTransform="translate(32.4451 16.2212) rotate(53.7271) scale(0.532956 0.448715)">
<stop stop-color="#5C5051"/>
<stop offset="1" stop-color="#5C5051" stop-opacity="0"/>
</radialGradient>
<linearGradient id="paint39_linear_0_5486" x1="23.5925" y1="14.5544" x2="23.5925" y2="18.9084" gradientUnits="userSpaceOnUse">
<stop stop-color="#E0D6ED"/>
<stop offset="1" stop-color="#E0D6ED" stop-opacity="0"/>
</linearGradient>
<linearGradient id="paint40_linear_0_5486" x1="12.3169" y1="7.63309" x2="13.544" y2="8.74419" gradientUnits="userSpaceOnUse">
<stop offset="0.0568966" stop-color="#EDE7F4"/>
<stop offset="1" stop-color="#E0D6ED" stop-opacity="0"/>
</linearGradient>
<linearGradient id="paint41_linear_0_5486" x1="32.7108" y1="8.86624" x2="33.9139" y2="10.9026" gradientUnits="userSpaceOnUse">
<stop offset="0.0568966" stop-color="#E0D6ED"/>
<stop offset="1" stop-color="#E0D6ED" stop-opacity="0"/>
</linearGradient>
<linearGradient id="paint42_linear_0_5486" x1="22.6203" y1="34.3193" x2="24.3114" y2="34.8951" gradientUnits="userSpaceOnUse">
<stop offset="0.0568966" stop-color="#E0D6ED" stop-opacity="0.5"/>
<stop offset="1" stop-color="#E0D6ED" stop-opacity="0"/>
</linearGradient>
<linearGradient id="paint43_linear_0_5486" x1="6.2287" y1="28.8828" x2="7.71223" y2="28.8828" gradientUnits="userSpaceOnUse">
<stop stop-color="#E0D6ED"/>
<stop offset="1" stop-color="#E0D6ED" stop-opacity="0"/>
</linearGradient>
</defs>
</svg>
