<svg width="34" height="36" viewBox="0 0 34 36" fill="none" xmlns="http://www.w3.org/2000/svg">
<g id="&#240;&#159;&#166;&#134; emoji &#34;baby default&#34;">
<path id="Vector" d="M4.69495 27.0657C7.01176 27.0657 8.88991 25.1875 8.88991 22.8707C8.88991 20.5538 7.01176 18.6758 4.69495 18.6758C2.37814 18.6758 0.5 20.5538 0.5 22.8707C0.5 25.1875 2.37814 27.0657 4.69495 27.0657Z" fill="url(#paint0_linear_0_4976)"/>
<path id="Vector_2" d="M4.69495 27.0657C7.01176 27.0657 8.88991 25.1875 8.88991 22.8707C8.88991 20.5538 7.01176 18.6758 4.69495 18.6758C2.37814 18.6758 0.5 20.5538 0.5 22.8707C0.5 25.1875 2.37814 27.0657 4.69495 27.0657Z" fill="url(#paint1_radial_0_4976)"/>
<g id="Group">
<path id="Vector_3" d="M4.69475 25.4774C6.13449 25.4774 7.30163 24.3103 7.30163 22.8706C7.30163 21.4308 6.13449 20.2637 4.69475 20.2637C3.25502 20.2637 2.08789 21.4308 2.08789 22.8706C2.08789 24.3103 3.25502 25.4774 4.69475 25.4774Z" fill="#D78125"/>
<path id="Vector_4" d="M4.69475 25.4774C6.13449 25.4774 7.30163 24.3103 7.30163 22.8706C7.30163 21.4308 6.13449 20.2637 4.69475 20.2637C3.25502 20.2637 2.08789 21.4308 2.08789 22.8706C2.08789 24.3103 3.25502 25.4774 4.69475 25.4774Z" fill="url(#paint2_radial_0_4976)"/>
</g>
<path id="Vector_5" d="M29.2184 27.0657C31.5352 27.0657 33.4133 25.1875 33.4133 22.8707C33.4133 20.5538 31.5352 18.6758 29.2184 18.6758C26.9016 18.6758 25.0234 20.5538 25.0234 22.8707C25.0234 25.1875 26.9016 27.0657 29.2184 27.0657Z" fill="url(#paint3_linear_0_4976)"/>
<path id="Vector_6" d="M29.2184 27.0657C31.5352 27.0657 33.4133 25.1875 33.4133 22.8707C33.4133 20.5538 31.5352 18.6758 29.2184 18.6758C26.9016 18.6758 25.0234 20.5538 25.0234 22.8707C25.0234 25.1875 26.9016 27.0657 29.2184 27.0657Z" fill="url(#paint4_radial_0_4976)"/>
<path id="Vector_7" d="M29.2184 27.0657C31.5352 27.0657 33.4133 25.1875 33.4133 22.8707C33.4133 20.5538 31.5352 18.6758 29.2184 18.6758C26.9016 18.6758 25.0234 20.5538 25.0234 22.8707C25.0234 25.1875 26.9016 27.0657 29.2184 27.0657Z" fill="url(#paint5_radial_0_4976)"/>
<g id="Group_2">
<path id="Vector_8" d="M29.2199 25.5566C30.7038 25.5566 31.9066 24.3538 31.9066 22.8699C31.9066 21.3862 30.7038 20.1833 29.2199 20.1833C27.7361 20.1833 26.5332 21.3862 26.5332 22.8699C26.5332 24.3538 27.7361 25.5566 29.2199 25.5566Z" fill="url(#paint6_linear_0_4976)"/>
</g>
<g id="Group_3">
<path id="Vector_9" d="M26.2887 4.75013C24.2868 3.25271 21.8896 2.43945 19.4398 2.43945H14.5271C12.0772 2.43945 9.68019 3.25271 7.67824 4.75013C4.26699 7.31897 2.42307 11.5918 2.84454 15.9678L4.00357 26.4369C4.38552 30.4902 7.07238 33.8982 10.7998 35.06C14.83 36.3122 19.1369 36.3122 23.1672 35.06C26.8945 33.8982 29.5814 30.4902 29.9634 26.4369L31.1223 15.9678C31.5439 11.5918 29.6999 7.31897 26.2887 4.75013Z" fill="url(#paint7_radial_0_4976)"/>
<path id="Vector_10" d="M26.2887 4.75013C24.2868 3.25271 21.8896 2.43945 19.4398 2.43945H14.5271C12.0772 2.43945 9.68019 3.25271 7.67824 4.75013C4.26699 7.31897 2.42307 11.5918 2.84454 15.9678L4.00357 26.4369C4.38552 30.4902 7.07238 33.8982 10.7998 35.06C14.83 36.3122 19.1369 36.3122 23.1672 35.06C26.8945 33.8982 29.5814 30.4902 29.9634 26.4369L31.1223 15.9678C31.5439 11.5918 29.6999 7.31897 26.2887 4.75013Z" fill="url(#paint8_radial_0_4976)"/>
<path id="Vector_11" d="M26.2887 4.75013C24.2868 3.25271 21.8896 2.43945 19.4398 2.43945H14.5271C12.0772 2.43945 9.68019 3.25271 7.67824 4.75013C4.26699 7.31897 2.42307 11.5918 2.84454 15.9678L4.00357 26.4369C4.38552 30.4902 7.07238 33.8982 10.7998 35.06C14.83 36.3122 19.1369 36.3122 23.1672 35.06C26.8945 33.8982 29.5814 30.4902 29.9634 26.4369L31.1223 15.9678C31.5439 11.5918 29.6999 7.31897 26.2887 4.75013Z" fill="url(#paint9_radial_0_4976)"/>
<path id="Vector_12" d="M26.2887 4.75013C24.2868 3.25271 21.8896 2.43945 19.4398 2.43945H14.5271C12.0772 2.43945 9.68019 3.25271 7.67824 4.75013C4.26699 7.31897 2.42307 11.5918 2.84454 15.9678L4.00357 26.4369C4.38552 30.4902 7.07238 33.8982 10.7998 35.06C14.83 36.3122 19.1369 36.3122 23.1672 35.06C26.8945 33.8982 29.5814 30.4902 29.9634 26.4369L31.1223 15.9678C31.5439 11.5918 29.6999 7.31897 26.2887 4.75013Z" fill="url(#paint10_linear_0_4976)"/>
<path id="Vector_13" d="M26.2887 4.75013C24.2868 3.25271 21.8896 2.43945 19.4398 2.43945H14.5271C12.0772 2.43945 9.68019 3.25271 7.67824 4.75013C4.26699 7.31897 2.42307 11.5918 2.84454 15.9678L4.00357 26.4369C4.38552 30.4902 7.07238 33.8982 10.7998 35.06C14.83 36.3122 19.1369 36.3122 23.1672 35.06C26.8945 33.8982 29.5814 30.4902 29.9634 26.4369L31.1223 15.9678C31.5439 11.5918 29.6999 7.31897 26.2887 4.75013Z" fill="url(#paint11_radial_0_4976)"/>
<path id="Vector_14" d="M26.2887 4.75013C24.2868 3.25271 21.8896 2.43945 19.4398 2.43945H14.5271C12.0772 2.43945 9.68019 3.25271 7.67824 4.75013C4.26699 7.31897 2.42307 11.5918 2.84454 15.9678L4.00357 26.4369C4.38552 30.4902 7.07238 33.8982 10.7998 35.06C14.83 36.3122 19.1369 36.3122 23.1672 35.06C26.8945 33.8982 29.5814 30.4902 29.9634 26.4369L31.1223 15.9678C31.5439 11.5918 29.6999 7.31897 26.2887 4.75013Z" fill="url(#paint12_radial_0_4976)"/>
</g>
<g id="Group_4">
<path id="Vector_15" d="M16.9468 28.3075C15.5202 28.3075 14.1837 27.9577 13.0656 27.3617C12.6799 27.1544 12.2687 27.5949 12.5129 27.9706C13.4511 29.4347 15.0961 30.4064 16.9597 30.4064C18.8231 30.4064 20.4553 29.4347 21.4063 27.9706C21.6376 27.6079 21.2393 27.1674 20.8538 27.3617C19.7099 27.9577 18.3733 28.3075 16.9468 28.3075Z" fill="#8A034F"/>
</g>
<path id="Vector_16" d="M23.0368 19.3984C25.115 19.3984 26.8704 20.8312 27.348 22.7673C27.49 23.3223 27.064 23.8515 26.4961 23.8515H19.3969C18.9452 23.8515 18.5837 23.4385 18.6741 22.9867C19.0742 20.9473 20.8684 19.3984 23.0368 19.3984Z" fill="white"/>
<path id="Vector_17" d="M10.1297 19.3984C8.05154 19.3984 6.29611 20.8312 5.81853 22.7673C5.67655 23.3223 6.1025 23.8515 6.67043 23.8515H13.7696C14.2214 23.8515 14.5828 23.4385 14.4924 22.9867C14.0923 20.9473 12.2852 19.3984 10.1297 19.3984Z" fill="white"/>
<path id="Vector_18" d="M22.3799 20.2637C23.9546 20.2637 25.2196 21.5415 25.2196 23.1033C25.2196 23.3615 25.1809 23.6196 25.1163 23.852H19.6306C19.5661 23.6067 19.5273 23.3615 19.5273 23.1033C19.5273 21.5415 20.8052 20.2637 22.3799 20.2637Z" fill="url(#paint13_radial_0_4976)"/>
<path id="Vector_19" d="M10.7869 20.2637C9.21219 20.2637 7.94727 21.5415 7.94727 23.1033C7.94727 23.3615 7.98599 23.6196 8.05053 23.852H13.5362C13.6008 23.6067 13.6395 23.3615 13.6395 23.1033C13.6266 21.5415 12.3616 20.2637 10.7869 20.2637Z" fill="url(#paint14_radial_0_4976)"/>
<path id="Vector_20" d="M20.752 23.1029C20.752 22.1994 21.4748 21.4766 22.3783 21.4766C23.2818 21.4766 24.0047 22.1994 24.0047 23.1029C24.0047 23.374 23.9401 23.6321 23.824 23.8516H20.9456C20.8165 23.6321 20.752 23.374 20.752 23.1029Z" fill="black"/>
<path id="Vector_21" d="M12.4128 23.1029C12.4128 22.1994 11.69 21.4766 10.7865 21.4766C9.88297 21.4766 9.16016 22.1994 9.16016 23.1029C9.16016 23.374 9.22468 23.6321 9.34085 23.8516H12.2192C12.3354 23.6321 12.4128 23.374 12.4128 23.1029Z" fill="black"/>
<g id="Group_5">
<path id="Vector_22" d="M8.54102 16.8453C9.30256 16.5742 10.361 16.3806 11.7292 16.5097" stroke="#C15231" stroke-miterlimit="10" stroke-linecap="round" stroke-linejoin="round"/>
</g>
<g id="Group_6">
<path id="Vector_23" d="M8.61328 16.7222C9.37484 16.4512 10.4333 16.2576 11.8015 16.3867" stroke="#C45B41" stroke-width="0.3" stroke-miterlimit="10" stroke-linecap="round" stroke-linejoin="round"/>
</g>
<g id="Group_7">
<path id="Vector_24" d="M24.7663 16.8453C24.0047 16.5742 22.9463 16.3806 21.5781 16.5097" stroke="#C15231" stroke-width="0.2" stroke-miterlimit="10" stroke-linecap="round" stroke-linejoin="round"/>
</g>
<g id="Group_8">
<path id="Vector_25" d="M24.7663 16.6558C24.0047 16.3847 22.9463 16.1911 21.5781 16.3202" stroke="#C45B41" stroke-miterlimit="10" stroke-linecap="round" stroke-linejoin="round"/>
</g>
<g id="Group_9">
<path id="Vector_26" d="M17.2685 0.931777C15.3672 0.644584 13.6962 1.07393 12.6211 2.51099C13.3637 2.44819 14.1082 2.45669 14.8398 2.5581L15.014 2.58224C17.116 2.87358 18.52 5.22425 18.217 7.32463C18.0735 8.2753 17.606 9.08638 16.9335 9.66785C16.813 9.7695 16.734 9.91243 16.713 10.0634C16.6534 10.493 17.0281 10.8646 17.4538 10.7815C19.4966 10.39 21.1578 8.73828 21.4603 6.555C21.8453 3.86236 19.9579 1.34004 17.2685 0.931777Z" fill="url(#paint15_linear_0_4976)"/>
</g>
<g id="Group_10">
<path id="Vector_27" d="M16.7252 0.000421698C14.6083 -0.0253934 12.7755 1.13629 11.8203 2.8659C12.6206 2.68519 13.4338 2.58193 14.2469 2.58193H14.4405C16.7768 2.58193 18.7388 4.49225 18.7259 6.82852C18.7129 7.88694 18.3257 8.8421 17.6803 9.57783C17.5642 9.7069 17.4996 9.8747 17.4996 10.0425C17.4996 10.52 17.9643 10.8685 18.4161 10.7136C20.5845 9.97796 22.1464 7.92566 22.1464 5.49904C22.1593 2.50449 19.7197 0.0391444 16.7252 0.000421698Z" fill="#E99628"/>
<path id="Vector_28" d="M16.7252 0.000421698C14.6083 -0.0253934 12.7755 1.13629 11.8203 2.8659C12.6206 2.68519 13.4338 2.58193 14.2469 2.58193H14.4405C16.7768 2.58193 18.7388 4.49225 18.7259 6.82852C18.7129 7.88694 18.3257 8.8421 17.6803 9.57783C17.5642 9.7069 17.4996 9.8747 17.4996 10.0425C17.4996 10.52 17.9643 10.8685 18.4161 10.7136C20.5845 9.97796 22.1464 7.92566 22.1464 5.49904C22.1593 2.50449 19.7197 0.0391444 16.7252 0.000421698Z" fill="url(#paint16_radial_0_4976)"/>
<path id="Vector_29" d="M16.7252 0.000421698C14.6083 -0.0253934 12.7755 1.13629 11.8203 2.8659C12.6206 2.68519 13.4338 2.58193 14.2469 2.58193H14.4405C16.7768 2.58193 18.7388 4.49225 18.7259 6.82852C18.7129 7.88694 18.3257 8.8421 17.6803 9.57783C17.5642 9.7069 17.4996 9.8747 17.4996 10.0425C17.4996 10.52 17.9643 10.8685 18.4161 10.7136C20.5845 9.97796 22.1464 7.92566 22.1464 5.49904C22.1593 2.50449 19.7197 0.0391444 16.7252 0.000421698Z" fill="url(#paint17_radial_0_4976)"/>
</g>
<g id="Group_11">
<path id="Vector_30" d="M16.7878 27.0634C17.4451 27.0634 18.0326 26.7009 18.3683 26.1571C18.6759 25.6588 18.3542 24.9941 17.7948 24.9941H15.7808C15.2213 24.9941 14.8857 25.6739 15.2074 26.1571C15.5431 26.716 16.1305 27.0634 16.7878 27.0634Z" fill="#F1902D"/>
</g>
<g id="Group_12">
<path id="Vector_31" d="M16.9596 26.6143C17.617 26.6143 18.2044 26.2517 18.5402 25.708C18.8479 25.2095 18.5261 24.5449 17.9667 24.5449H15.9527C15.3932 24.5449 15.0576 25.2246 15.3792 25.708C15.715 26.2668 16.3024 26.6143 16.9596 26.6143Z" fill="url(#paint18_radial_0_4976)"/>
</g>
<g id="Group_13">
<path id="Vector_32" d="M22.1689 20.8649C22.3712 21.1356 21.9484 21.4654 21.4675 21.825C20.9867 22.1845 20.63 22.4374 20.4277 22.1668C20.2253 21.8962 20.4512 21.3855 20.932 21.026C21.4128 20.6664 21.9666 20.5944 22.1689 20.8649Z" fill="#C7A7A3"/>
<path id="Vector_33" d="M22.1689 20.8649C22.3712 21.1356 21.9484 21.4654 21.4675 21.825C20.9867 22.1845 20.63 22.4374 20.4277 22.1668C20.2253 21.8962 20.4512 21.3855 20.932 21.026C21.4128 20.6664 21.9666 20.5944 22.1689 20.8649Z" fill="url(#paint19_radial_0_4976)"/>
</g>
<g id="Group_14">
<path id="Vector_34" d="M24.9067 22.73C24.8018 21.9959 24.3722 21.4426 24.1706 21.2578L23.3438 22.1653L23.7168 22.8914L24.9067 22.73Z" fill="url(#paint20_linear_0_4976)"/>
</g>
<g id="Group_15">
<path id="Vector_35" d="M13.3812 22.7709C13.3812 21.8533 12.635 21.2415 12.4332 21.0566L11.5156 21.944L12.0803 23.0936L13.3812 22.7709Z" fill="url(#paint21_linear_0_4976)"/>
</g>
<g id="Group_16">
<path id="Vector_36" d="M10.2239 22.0284C10.8288 21.7079 11.1878 21.1999 11.0256 20.8937C10.8634 20.5875 10.2414 20.5991 9.63645 20.9197C9.03146 21.2402 8.67251 21.7482 8.83472 22.0544C8.99693 22.3606 9.61887 22.349 10.2239 22.0284Z" fill="#C7A7A3" fill-opacity="0.9"/>
<path id="Vector_37" d="M10.2239 22.0284C10.8288 21.7079 11.1878 21.1999 11.0256 20.8937C10.8634 20.5875 10.2414 20.5991 9.63645 20.9197C9.03146 21.2402 8.67251 21.7482 8.83472 22.0544C8.99693 22.3606 9.61887 22.349 10.2239 22.0284Z" fill="url(#paint22_radial_0_4976)"/>
</g>
</g>
<defs>
<linearGradient id="paint0_linear_0_4976" x1="1.04884" y1="22.8707" x2="4.69495" y2="22.548" gradientUnits="userSpaceOnUse">
<stop stop-color="#DE8D27"/>
<stop offset="1" stop-color="#CB773F"/>
</linearGradient>
<radialGradient id="paint1_radial_0_4976" cx="0" cy="0" r="1" gradientUnits="userSpaceOnUse" gradientTransform="translate(4.69495 23.4757) rotate(-157.686) scale(5.20565 6.77366)">
<stop offset="0.609348" stop-color="#CE9F45" stop-opacity="0"/>
<stop offset="1" stop-color="#CE9F45"/>
</radialGradient>
<radialGradient id="paint2_radial_0_4976" cx="0" cy="0" r="1" gradientUnits="userSpaceOnUse" gradientTransform="translate(4.69475 22.8706) rotate(90) scale(2.60687)">
<stop offset="0.796873" stop-color="#CE791D" stop-opacity="0"/>
<stop offset="1" stop-color="#CE791D"/>
</radialGradient>
<linearGradient id="paint3_linear_0_4976" x1="32.5101" y1="19.6034" x2="29.6059" y2="26.0976" gradientUnits="userSpaceOnUse">
<stop stop-color="#FFE13F"/>
<stop offset="1" stop-color="#FFBD36"/>
</linearGradient>
<radialGradient id="paint4_radial_0_4976" cx="0" cy="0" r="1" gradientUnits="userSpaceOnUse" gradientTransform="translate(29.6664 21.338) rotate(90.9485) scale(6.09159 5.83784)">
<stop offset="0.765592" stop-color="#D58651" stop-opacity="0"/>
<stop offset="1" stop-color="#D58651"/>
</radialGradient>
<radialGradient id="paint5_radial_0_4976" cx="0" cy="0" r="1" gradientUnits="userSpaceOnUse" gradientTransform="translate(29.6664 22.3463) rotate(-49.1376) scale(3.36008 3.31571)">
<stop offset="0.500847" stop-color="#FFB61F"/>
<stop offset="0.883309" stop-color="#FFB61F" stop-opacity="0"/>
</radialGradient>
<linearGradient id="paint6_linear_0_4976" x1="30.7973" y1="24.3624" x2="31.2208" y2="20.3894" gradientUnits="userSpaceOnUse">
<stop offset="0.301554" stop-color="#FFC332"/>
<stop offset="1" stop-color="#FFD165"/>
</linearGradient>
<radialGradient id="paint7_radial_0_4976" cx="0" cy="0" r="1" gradientUnits="userSpaceOnUse" gradientTransform="translate(24.4162 14.4611) rotate(90) scale(22.4656 16.3978)">
<stop offset="0.216019" stop-color="#FFE944"/>
<stop offset="1" stop-color="#FDAB24"/>
</radialGradient>
<radialGradient id="paint8_radial_0_4976" cx="0" cy="0" r="1" gradientUnits="userSpaceOnUse" gradientTransform="translate(8.26949 35.999) rotate(-52.6185) scale(6.77674 14.961)">
<stop stop-color="#D17C51"/>
<stop offset="1" stop-color="#D17C51" stop-opacity="0"/>
</radialGradient>
<radialGradient id="paint9_radial_0_4976" cx="0" cy="0" r="1" gradientUnits="userSpaceOnUse" gradientTransform="translate(16.9834 36.8462) rotate(-90) scale(4.31596 19.8962)">
<stop stop-color="#D87A77"/>
<stop offset="1" stop-color="#D87A77" stop-opacity="0"/>
</radialGradient>
<linearGradient id="paint10_linear_0_4976" x1="3.61635" y1="23.9789" x2="11.8449" y2="23.9789" gradientUnits="userSpaceOnUse">
<stop stop-color="#EB992C"/>
<stop offset="1" stop-color="#EB992C" stop-opacity="0"/>
</linearGradient>
<radialGradient id="paint11_radial_0_4976" cx="0" cy="0" r="1" gradientUnits="userSpaceOnUse" gradientTransform="translate(23.5625 21.4378) rotate(-64.7423) scale(4.34849 4.88138)">
<stop offset="0.360817" stop-color="#FFBA36"/>
<stop offset="1" stop-color="#FFBA36" stop-opacity="0"/>
</radialGradient>
<radialGradient id="paint12_radial_0_4976" cx="0" cy="0" r="1" gradientUnits="userSpaceOnUse" gradientTransform="translate(10.8366 21.8007) rotate(-65.6955) scale(4.11606 4.52992)">
<stop offset="0.418035" stop-color="#F0953D"/>
<stop offset="1" stop-color="#F0953D" stop-opacity="0"/>
</radialGradient>
<radialGradient id="paint13_radial_0_4976" cx="0" cy="0" r="1" gradientUnits="userSpaceOnUse" gradientTransform="translate(22.3735 22.5278) rotate(90) scale(1.83529 2.91924)">
<stop offset="0.80198" stop-color="#8F564F"/>
<stop offset="1" stop-color="#86534B"/>
</radialGradient>
<radialGradient id="paint14_radial_0_4976" cx="0" cy="0" r="1" gradientUnits="userSpaceOnUse" gradientTransform="translate(10.7934 22.5278) rotate(90) scale(1.83529 2.91924)">
<stop offset="0.80198" stop-color="#8F564F"/>
<stop offset="1" stop-color="#86534B"/>
</radialGradient>
<linearGradient id="paint15_linear_0_4976" x1="20.4272" y1="3.21861" x2="16.1602" y2="10.6364" gradientUnits="userSpaceOnUse">
<stop stop-color="#E07F05"/>
<stop offset="1" stop-color="#FF9C1D"/>
</linearGradient>
<radialGradient id="paint16_radial_0_4976" cx="0" cy="0" r="1" gradientUnits="userSpaceOnUse" gradientTransform="translate(11.8203 6.36823) rotate(-14.9239) scale(10.4483 8.71624)">
<stop offset="0.738492" stop-color="#FFD937" stop-opacity="0"/>
<stop offset="0.999205" stop-color="#FFD937"/>
</radialGradient>
<radialGradient id="paint17_radial_0_4976" cx="0" cy="0" r="1" gradientUnits="userSpaceOnUse" gradientTransform="translate(17.9251 7.99355) rotate(-122.764) scale(8.67623 8.94506)">
<stop offset="0.825317" stop-color="#C9983D" stop-opacity="0"/>
<stop offset="0.986723" stop-color="#C9983D"/>
</radialGradient>
<radialGradient id="paint18_radial_0_4976" cx="0" cy="0" r="1" gradientUnits="userSpaceOnUse" gradientTransform="translate(17.8552 24.8914) rotate(117.715) scale(2.60871 3.9437)">
<stop offset="0.0836364" stop-color="#FFE245"/>
<stop offset="1" stop-color="#F29624"/>
</radialGradient>
<radialGradient id="paint19_radial_0_4976" cx="0" cy="0" r="1" gradientUnits="userSpaceOnUse" gradientTransform="translate(21.6452 22.0502) rotate(-127.812) scale(1.20366 1.65715)">
<stop offset="0.765532" stop-color="#FFE6E2" stop-opacity="0"/>
<stop offset="0.966159" stop-color="#FFE6E2"/>
</radialGradient>
<linearGradient id="paint20_linear_0_4976" x1="24.8462" y1="21.9535" x2="23.8479" y2="22.5687" gradientUnits="userSpaceOnUse">
<stop stop-color="#B4948D"/>
<stop offset="1" stop-color="#B4948D" stop-opacity="0"/>
</linearGradient>
<linearGradient id="paint21_linear_0_4976" x1="13.16" y1="21.9541" x2="12.1618" y2="22.5693" gradientUnits="userSpaceOnUse">
<stop stop-color="#B4948D"/>
<stop offset="1" stop-color="#B4948D" stop-opacity="0"/>
</linearGradient>
<radialGradient id="paint22_radial_0_4976" cx="0" cy="0" r="1" gradientUnits="userSpaceOnUse" gradientTransform="translate(10.3568 22.382) rotate(-118.811) scale(1.57222 1.88987)">
<stop offset="0.765532" stop-color="#FFE6E2" stop-opacity="0"/>
<stop offset="0.966159" stop-color="#FFE6E2"/>
</radialGradient>
</defs>
</svg>
