<svg width="40" height="40" viewBox="0 0 40 40" fill="none" xmlns="http://www.w3.org/2000/svg">
<path d="M34.8341 0H5.16592C2.31286 0 0 2.31286 0 5.16592V34.8341C0 37.6871 2.31286 40 5.16592 40H34.8341C37.6871 40 40 37.6871 40 34.8341V5.16592C40 2.31286 37.6871 0 34.8341 0Z" fill="url(#paint0_linear_0_4253)"/>
<path d="M34.8341 0H5.16592C2.31286 0 0 2.31286 0 5.16592V34.8341C0 37.6871 2.31286 40 5.16592 40H34.8341C37.6871 40 40 37.6871 40 34.8341V5.16592C40 2.31286 37.6871 0 34.8341 0Z" fill="url(#paint1_radial_0_4253)"/>
<path d="M37.7363 6.82501L37.5787 36.4134" stroke="url(#paint2_linear_0_4253)" stroke-width="2.5" stroke-linecap="round"/>
<path d="M4.9707 2.60004L34.1232 2.40794" stroke="url(#paint3_linear_0_4253)" stroke-width="2.5" stroke-linecap="round"/>
<path d="M18.0099 8.32262C19.3556 8.65813 20.1745 10.021 19.839 11.3667L18.0295 18.6241C18.007 18.7147 18.0754 18.8023 18.1689 18.8023H20.567C20.6463 18.8023 20.7105 18.738 20.7105 18.6588V17.2165C20.7105 15.8296 21.8348 14.7053 23.2217 14.7053C24.6086 14.7053 25.7329 15.8296 25.7329 17.2165V18.7357C25.7329 18.8039 25.7811 18.8623 25.8473 18.879C26.9353 19.1545 27.7403 20.14 27.7403 21.3135C27.7403 22.4871 26.9353 23.4726 25.8473 23.7481C25.7811 23.7648 25.7329 23.8232 25.7329 23.8913V29.2409C25.7329 30.6278 24.6086 31.7521 23.2217 31.7521C21.8348 31.7521 20.7105 30.6278 20.7105 29.2409V23.9683C20.7105 23.889 20.6463 23.8248 20.567 23.8248H14.771C13.9979 23.8248 13.268 23.4687 12.7921 22.8596C12.3162 22.2504 12.1474 21.456 12.3344 20.706L14.9657 10.1517C15.3012 8.80603 16.6641 7.98711 18.0099 8.32262Z" fill="#823CDC"/>
<path d="M18.0099 8.32262C19.3556 8.65813 20.1745 10.021 19.839 11.3667L18.0295 18.6241C18.007 18.7147 18.0754 18.8023 18.1689 18.8023H20.567C20.6463 18.8023 20.7105 18.738 20.7105 18.6588V17.2165C20.7105 15.8296 21.8348 14.7053 23.2217 14.7053C24.6086 14.7053 25.7329 15.8296 25.7329 17.2165V18.7357C25.7329 18.8039 25.7811 18.8623 25.8473 18.879C26.9353 19.1545 27.7403 20.14 27.7403 21.3135C27.7403 22.4871 26.9353 23.4726 25.8473 23.7481C25.7811 23.7648 25.7329 23.8232 25.7329 23.8913V29.2409C25.7329 30.6278 24.6086 31.7521 23.2217 31.7521C21.8348 31.7521 20.7105 30.6278 20.7105 29.2409V23.9683C20.7105 23.889 20.6463 23.8248 20.567 23.8248H14.771C13.9979 23.8248 13.268 23.4687 12.7921 22.8596C12.3162 22.2504 12.1474 21.456 12.3344 20.706L14.9657 10.1517C15.3012 8.80603 16.6641 7.98711 18.0099 8.32262Z" fill="#FCF2FF"/>
<defs>
<linearGradient id="paint0_linear_0_4253" x1="20" y1="5.12934" x2="20" y2="52.8462" gradientUnits="userSpaceOnUse">
<stop stop-color="#A175DA"/>
<stop offset="1" stop-color="#632BAB"/>
</linearGradient>
<radialGradient id="paint1_radial_0_4253" cx="0" cy="0" r="1" gradientUnits="userSpaceOnUse" gradientTransform="translate(36.8162 3.00449) rotate(136.771) scale(3.07722 3.59413)">
<stop stop-color="#C699FF"/>
<stop offset="1" stop-color="#C293FF" stop-opacity="0"/>
</radialGradient>
<linearGradient id="paint2_linear_0_4253" x1="38.2363" y1="6.82768" x2="38.0787" y2="36.4161" gradientUnits="userSpaceOnUse">
<stop stop-color="#AF83E7" stop-opacity="0.6"/>
<stop offset="1" stop-color="#9E64E9" stop-opacity="0.36"/>
</linearGradient>
<linearGradient id="paint3_linear_0_4253" x1="4.974" y1="3.10003" x2="34.1265" y2="2.90793" gradientUnits="userSpaceOnUse">
<stop stop-color="#B185EA" stop-opacity="0.5"/>
<stop offset="1" stop-color="#BC8AFA" stop-opacity="0.59"/>
</linearGradient>
</defs>
</svg>
