<svg width="35" height="40" viewBox="0 0 35 40" fill="none" xmlns="http://www.w3.org/2000/svg">
<g id="&#240;&#159;&#166;&#134; emoji &#34;person default&#34;">
<path id="Vector" d="M30.0899 26.8934C30.9827 26.8646 31.8189 26.5617 32.4991 26.0716V28.5513C32.4991 30.93 31.0819 33.0493 28.9277 33.9287C29.3813 32.9628 29.693 31.9104 29.8489 30.7858L30.0899 26.8934Z" fill="url(#paint0_radial_0_5103)"/>
<path id="Vector_2" d="M30.0899 26.8934C30.9827 26.8646 31.8189 26.5617 32.4991 26.0716V28.5513C32.4991 30.93 31.0819 33.0493 28.9277 33.9287C29.3813 32.9628 29.693 31.9104 29.8489 30.7858L30.0899 26.8934Z" fill="url(#paint1_radial_0_5103)"/>
<path id="Vector_3" d="M4.19444 26.8934C3.30159 26.8646 2.46542 26.5617 1.78516 26.0716V28.5513C1.78516 30.93 3.20237 33.0493 5.35656 33.9287C4.90305 32.9628 4.59126 31.9104 4.43537 30.7858L4.19444 26.8934Z" fill="url(#paint2_radial_0_5103)"/>
<path id="Vector_4" d="M4.19444 26.8934C3.30159 26.8646 2.46542 26.5617 1.78516 26.0716V28.5513C1.78516 30.93 3.20237 33.0493 5.35656 33.9287C4.90305 32.9628 4.59126 31.9104 4.43537 30.7858L4.19444 26.8934Z" fill="url(#paint3_radial_0_5103)"/>
<g id="Group">
<path id="Vector_5" d="M4.29089 30.9292C4.9761 36.1292 9.40127 40.0006 14.6402 40.0006H19.6649C24.9037 40.0006 29.329 36.1292 30.0143 30.9292C30.3284 25.9121 30.6444 20.9153 30.8775 15.9008C30.8492 13.8579 29.2388 12.1722 27.2047 12.0865H23.4753C20.9326 12.0865 18.6301 10.5866 17.5848 8.24373C17.3163 7.57231 16.6665 7.12946 15.9461 7.12946H12.5558C7.63985 7.12946 3.65625 11.158 3.65625 16.1293C3.65625 21.0853 3.9658 25.9608 4.29089 30.9292Z" fill="url(#paint4_radial_0_5103)"/>
</g>
<path id="Vector_6" d="M4.29089 30.929C4.9761 36.129 9.40127 40.0004 14.6402 40.0004H19.6649C24.9037 40.0004 29.329 36.129 30.0143 30.929C30.3284 25.9119 30.6444 20.9151 30.8775 15.9005C30.8492 13.8577 29.2388 12.172 27.2047 12.0863H23.4753C20.9326 12.0863 18.6301 10.5863 17.5848 8.24349C17.3163 7.57206 16.6665 7.12921 15.9461 7.12921H12.5558C7.63985 7.12921 3.65625 11.1577 3.65625 16.1291C3.65625 21.0851 3.9658 25.9606 4.29089 30.929Z" fill="url(#paint5_linear_0_5103)"/>
<path id="Vector_7" d="M4.29089 30.929C4.9761 36.129 9.40127 40.0004 14.6402 40.0004H19.6649C24.9037 40.0004 29.329 36.129 30.0143 30.929C30.3284 25.9119 30.6444 20.9151 30.8775 15.9005C30.8492 13.8577 29.2388 12.172 27.2047 12.0863H23.4753C20.9326 12.0863 18.6301 10.5863 17.5848 8.24349C17.3163 7.57206 16.6665 7.12921 15.9461 7.12921H12.5558C7.63985 7.12921 3.65625 11.1577 3.65625 16.1291C3.65625 21.0851 3.9658 25.9606 4.29089 30.929Z" fill="url(#paint6_radial_0_5103)"/>
<path id="Vector_8" d="M4.29089 30.929C4.9761 36.129 9.40127 40.0004 14.6402 40.0004H19.6649C24.9037 40.0004 29.329 36.129 30.0143 30.929C30.3284 25.9119 30.6444 20.9151 30.8775 15.9005C30.8492 13.8577 29.2388 12.172 27.2047 12.0863H23.4753C20.9326 12.0863 18.6301 10.5863 17.5848 8.24349C17.3163 7.57206 16.6665 7.12921 15.9461 7.12921H12.5558C7.63985 7.12921 3.65625 11.1577 3.65625 16.1291C3.65625 21.0851 3.9658 25.9606 4.29089 30.929Z" fill="url(#paint7_radial_0_5103)"/>
<path id="Vector_9" d="M4.29089 30.929C4.9761 36.129 9.40127 40.0004 14.6402 40.0004H19.6649C24.9037 40.0004 29.329 36.129 30.0143 30.929C30.3284 25.9119 30.6444 20.9151 30.8775 15.9005C30.8492 13.8577 29.2388 12.172 27.2047 12.0863H23.4753C20.9326 12.0863 18.6301 10.5863 17.5848 8.24349C17.3163 7.57206 16.6665 7.12921 15.9461 7.12921H12.5558C7.63985 7.12921 3.65625 11.1577 3.65625 16.1291C3.65625 21.0851 3.9658 25.9606 4.29089 30.929Z" fill="url(#paint8_radial_0_5103)"/>
<g id="Group_2">
<path id="Vector_10" d="M15.8492 22.1843L14.1579 27.0807C13.8691 28.0878 14.5623 29.0949 15.5446 29.0949H17.639C18.6213 29.0949 19.3146 28.0722 19.0257 27.0807L17.6102 22.1843C17.3067 21.0997 16.1669 21.0997 15.8492 22.1843Z" fill="#EE9020"/>
</g>
<g id="Group_3">
<path id="Vector_11" d="M16.1243 21.662L14.7087 26.5583C14.4198 27.5654 15.1131 28.5726 16.0953 28.5726H18.1898C19.1719 28.5726 19.8652 27.55 19.5764 26.5583L18.1608 21.662C17.8575 20.5773 16.442 20.5773 16.1243 21.662Z" fill="url(#paint9_linear_0_5103)"/>
<path id="Vector_12" d="M16.1243 21.662L14.7087 26.5583C14.4198 27.5654 15.1131 28.5726 16.0953 28.5726H18.1898C19.1719 28.5726 19.8652 27.55 19.5764 26.5583L18.1608 21.662C17.8575 20.5773 16.442 20.5773 16.1243 21.662Z" fill="url(#paint10_linear_0_5103)"/>
<path id="Vector_13" d="M16.1243 21.662L14.7087 26.5583C14.4198 27.5654 15.1131 28.5726 16.0953 28.5726H18.1898C19.1719 28.5726 19.8652 27.55 19.5764 26.5583L18.1608 21.662C17.8575 20.5773 16.442 20.5773 16.1243 21.662Z" fill="url(#paint11_linear_0_5103)"/>
<path id="Vector_14" d="M16.1243 21.662L14.7087 26.5583C14.4198 27.5654 15.1131 28.5726 16.0953 28.5726H18.1898C19.1719 28.5726 19.8652 27.55 19.5764 26.5583L18.1608 21.662C17.8575 20.5773 16.442 20.5773 16.1243 21.662Z" fill="url(#paint12_linear_0_5103)"/>
</g>
<g id="Group_4">
<path id="Vector_15" d="M13.5024 30.311C13.2721 30.194 13.0318 30.266 12.8887 30.4167C12.745 30.5679 12.6894 30.8087 12.837 31.0227C13.7484 32.4033 15.3357 33.323 17.143 33.323C18.9505 33.323 20.5381 32.4028 21.4494 31.0219C21.5952 30.8029 21.5422 30.5623 21.3968 30.4111C21.2525 30.2614 21.0131 30.1943 20.7844 30.3104C19.7322 30.8589 18.4914 31.1736 17.143 31.1736C15.808 31.1736 14.5544 30.8594 13.5024 30.311Z" stroke="url(#paint13_radial_0_5103)" stroke-width="0.286014"/>
</g>
<path id="Vector_16" d="M17.1431 31.2796C15.7914 31.2796 14.5208 30.9616 13.4531 30.4049C13.0881 30.2193 12.6961 30.6301 12.926 30.9616C13.818 32.3134 15.3724 33.2147 17.1431 33.2147C18.9138 33.2147 20.4682 32.3134 21.3602 30.9616C21.5901 30.6169 21.1981 30.2193 20.8331 30.4049C19.7654 30.9616 18.5082 31.2796 17.1431 31.2796Z" fill="url(#paint14_radial_0_5103)"/>
<g id="Group_5">
<path id="Vector_17" d="M30.0734 5.87139C31.4435 6.34281 32.6725 7.29995 33.4495 8.67137C34.6926 10.8571 34.5089 13.4713 33.1669 15.3998C32.7008 16.0856 32.4465 16.8998 32.4465 17.7284V20.8927C31.9483 20.5457 31.2911 20.2884 30.6695 20.1784L30.8785 15.8998C30.8502 13.857 29.2398 12.1713 27.2057 12.0856H23.4764C20.9336 12.0856 18.631 10.5856 17.5857 8.2428C17.3173 7.57137 16.6674 7.12852 15.947 7.12852H12.5568C7.64082 7.12852 3.65722 11.1571 3.65722 16.1284L3.73882 20.2231C3.06239 20.3225 2.35575 20.5485 1.8208 20.9254V17.7284C1.8208 16.8998 1.56653 16.0856 1.10036 15.3998C-0.170998 13.5284 -0.397011 11.0142 0.718967 8.88565C1.4959 7.41423 2.75314 6.38567 4.17988 5.88567C5.70553 5.34282 7.00514 4.31425 7.86684 2.92855C8.96865 1.17142 10.9039 0 13.1218 0C13.9835 0 14.8029 0.185713 15.5656 0.499996C16.5827 0.94285 17.727 0.94285 18.744 0.499996C19.4927 0.185713 20.312 0 21.1737 0C23.4198 0 25.3834 1.21428 26.4711 3.01426C27.2904 4.3714 28.5759 5.3571 30.0734 5.87139Z" fill="url(#paint15_linear_0_5103)"/>
<path id="Vector_18" d="M30.0734 5.87139C31.4435 6.34281 32.6725 7.29995 33.4495 8.67137C34.6926 10.8571 34.5089 13.4713 33.1669 15.3998C32.7008 16.0856 32.4465 16.8998 32.4465 17.7284V20.8927C31.9483 20.5457 31.2911 20.2884 30.6695 20.1784L30.8785 15.8998C30.8502 13.857 29.2398 12.1713 27.2057 12.0856H23.4764C20.9336 12.0856 18.631 10.5856 17.5857 8.2428C17.3173 7.57137 16.6674 7.12852 15.947 7.12852H12.5568C7.64082 7.12852 3.65722 11.1571 3.65722 16.1284L3.73882 20.2231C3.06239 20.3225 2.35575 20.5485 1.8208 20.9254V17.7284C1.8208 16.8998 1.56653 16.0856 1.10036 15.3998C-0.170998 13.5284 -0.397011 11.0142 0.718967 8.88565C1.4959 7.41423 2.75314 6.38567 4.17988 5.88567C5.70553 5.34282 7.00514 4.31425 7.86684 2.92855C8.96865 1.17142 10.9039 0 13.1218 0C13.9835 0 14.8029 0.185713 15.5656 0.499996C16.5827 0.94285 17.727 0.94285 18.744 0.499996C19.4927 0.185713 20.312 0 21.1737 0C23.4198 0 25.3834 1.21428 26.4711 3.01426C27.2904 4.3714 28.5759 5.3571 30.0734 5.87139Z" fill="url(#paint16_radial_0_5103)"/>
<path id="Vector_19" d="M30.0734 5.87139C31.4435 6.34281 32.6725 7.29995 33.4495 8.67137C34.6926 10.8571 34.5089 13.4713 33.1669 15.3998C32.7008 16.0856 32.4465 16.8998 32.4465 17.7284V20.8927C31.9483 20.5457 31.2911 20.2884 30.6695 20.1784L30.8785 15.8998C30.8502 13.857 29.2398 12.1713 27.2057 12.0856H23.4764C20.9336 12.0856 18.631 10.5856 17.5857 8.2428C17.3173 7.57137 16.6674 7.12852 15.947 7.12852H12.5568C7.64082 7.12852 3.65722 11.1571 3.65722 16.1284L3.73882 20.2231C3.06239 20.3225 2.35575 20.5485 1.8208 20.9254V17.7284C1.8208 16.8998 1.56653 16.0856 1.10036 15.3998C-0.170998 13.5284 -0.397011 11.0142 0.718967 8.88565C1.4959 7.41423 2.75314 6.38567 4.17988 5.88567C5.70553 5.34282 7.00514 4.31425 7.86684 2.92855C8.96865 1.17142 10.9039 0 13.1218 0C13.9835 0 14.8029 0.185713 15.5656 0.499996C16.5827 0.94285 17.727 0.94285 18.744 0.499996C19.4927 0.185713 20.312 0 21.1737 0C23.4198 0 25.3834 1.21428 26.4711 3.01426C27.2904 4.3714 28.5759 5.3571 30.0734 5.87139Z" fill="url(#paint17_radial_0_5103)"/>
<path id="Vector_20" d="M30.0734 5.87139C31.4435 6.34281 32.6725 7.29995 33.4495 8.67137C34.6926 10.8571 34.5089 13.4713 33.1669 15.3998C32.7008 16.0856 32.4465 16.8998 32.4465 17.7284V20.8927C31.9483 20.5457 31.2911 20.2884 30.6695 20.1784L30.8785 15.8998C30.8502 13.857 29.2398 12.1713 27.2057 12.0856H23.4764C20.9336 12.0856 18.631 10.5856 17.5857 8.2428C17.3173 7.57137 16.6674 7.12852 15.947 7.12852H12.5568C7.64082 7.12852 3.65722 11.1571 3.65722 16.1284L3.73882 20.2231C3.06239 20.3225 2.35575 20.5485 1.8208 20.9254V17.7284C1.8208 16.8998 1.56653 16.0856 1.10036 15.3998C-0.170998 13.5284 -0.397011 11.0142 0.718967 8.88565C1.4959 7.41423 2.75314 6.38567 4.17988 5.88567C5.70553 5.34282 7.00514 4.31425 7.86684 2.92855C8.96865 1.17142 10.9039 0 13.1218 0C13.9835 0 14.8029 0.185713 15.5656 0.499996C16.5827 0.94285 17.727 0.94285 18.744 0.499996C19.4927 0.185713 20.312 0 21.1737 0C23.4198 0 25.3834 1.21428 26.4711 3.01426C27.2904 4.3714 28.5759 5.3571 30.0734 5.87139Z" fill="url(#paint18_radial_0_5103)"/>
<path id="Vector_21" d="M30.0734 5.87139C31.4435 6.34281 32.6725 7.29995 33.4495 8.67137C34.6926 10.8571 34.5089 13.4713 33.1669 15.3998C32.7008 16.0856 32.4465 16.8998 32.4465 17.7284V20.8927C31.9483 20.5457 31.2911 20.2884 30.6695 20.1784L30.8785 15.8998C30.8502 13.857 29.2398 12.1713 27.2057 12.0856H23.4764C20.9336 12.0856 18.631 10.5856 17.5857 8.2428C17.3173 7.57137 16.6674 7.12852 15.947 7.12852H12.5568C7.64082 7.12852 3.65722 11.1571 3.65722 16.1284L3.73882 20.2231C3.06239 20.3225 2.35575 20.5485 1.8208 20.9254V17.7284C1.8208 16.8998 1.56653 16.0856 1.10036 15.3998C-0.170998 13.5284 -0.397011 11.0142 0.718967 8.88565C1.4959 7.41423 2.75314 6.38567 4.17988 5.88567C5.70553 5.34282 7.00514 4.31425 7.86684 2.92855C8.96865 1.17142 10.9039 0 13.1218 0C13.9835 0 14.8029 0.185713 15.5656 0.499996C16.5827 0.94285 17.727 0.94285 18.744 0.499996C19.4927 0.185713 20.312 0 21.1737 0C23.4198 0 25.3834 1.21428 26.4711 3.01426C27.2904 4.3714 28.5759 5.3571 30.0734 5.87139Z" fill="url(#paint19_radial_0_5103)"/>
</g>
<g id="Group_6">
<path id="Vector_22" d="M27.0845 15.6267C26.6179 15.2203 26.0752 14.7896 25.2534 14.5308C24.4431 14.2757 23.4281 14.2073 22.024 14.379C21.6191 14.4286 21.331 14.797 21.3805 15.2018C21.43 15.6068 21.7984 15.8948 22.2034 15.8454C23.485 15.6886 24.27 15.7701 24.8097 15.94C25.3378 16.1063 25.6951 16.3755 26.1142 16.7405C26.4218 17.0085 26.8884 16.9764 27.1564 16.6687C27.4242 16.3611 27.3921 15.8945 27.0845 15.6267Z" fill="#C05029"/>
</g>
<g id="Group_7">
<path id="Vector_23" d="M8.05755 15.3379C8.29759 15.1942 8.64294 15.0103 9.07908 14.8389C9.95122 14.496 11.1976 14.1982 12.6891 14.3806C13.0939 14.4302 13.3821 14.7986 13.3325 15.2035C13.2831 15.6085 12.9146 15.8966 12.5096 15.847C11.3154 15.7009 10.3189 15.9387 9.61965 16.2137C9.27008 16.3512 8.99765 16.4969 8.81623 16.6055C8.72566 16.6596 8.65837 16.7042 8.61623 16.7335C8.59509 16.748 8.58037 16.7586 8.57209 16.7647L8.56469 16.7702C8.24279 17.0183 7.78042 16.9599 7.53062 16.6387C7.28018 16.3167 7.33818 15.8526 7.66019 15.6022L8.05755 15.3379Z" fill="#C05029"/>
</g>
<g id="Group_8">
<path id="Vector_24" d="M17.7625 8.60841C17.7003 8.48937 17.6415 8.36787 17.5863 8.24403C17.3179 7.57261 16.6681 7.12975 15.9476 7.12975H12.5574C7.64141 7.12975 3.65781 11.1583 3.65781 16.1296V16.8625C2.75226 16.1734 1.61328 14.7197 1.61328 12.3672C1.61328 9.51245 3.69537 8.06947 5.0235 7.14902C5.39844 6.88917 5.71329 6.67096 5.90424 6.4744C5.98536 6.39089 6.07366 6.29723 6.16972 6.19535C7.10067 5.20795 8.7594 3.44867 11.6559 2.67979C13.5111 2.18736 15.3981 2.18238 16.6719 2.29629C17.3446 2.35647 17.8185 2.94008 17.8185 3.61558V8.5726L17.7625 8.60841Z" fill="url(#paint20_radial_0_5103)"/>
<path id="Vector_25" d="M17.7625 8.60841C17.7003 8.48937 17.6415 8.36787 17.5863 8.24403C17.3179 7.57261 16.6681 7.12975 15.9476 7.12975H12.5574C7.64141 7.12975 3.65781 11.1583 3.65781 16.1296V16.8625C2.75226 16.1734 1.61328 14.7197 1.61328 12.3672C1.61328 9.51245 3.69537 8.06947 5.0235 7.14902C5.39844 6.88917 5.71329 6.67096 5.90424 6.4744C5.98536 6.39089 6.07366 6.29723 6.16972 6.19535C7.10067 5.20795 8.7594 3.44867 11.6559 2.67979C13.5111 2.18736 15.3981 2.18238 16.6719 2.29629C17.3446 2.35647 17.8185 2.94008 17.8185 3.61558V8.5726L17.7625 8.60841Z" fill="url(#paint21_radial_0_5103)"/>
</g>
<g id="Group_9">
<path id="Vector_26" d="M31.0259 17.5897L30.9482 15.9086C30.9199 13.8752 29.2395 12.1972 27.2054 12.1119H23.476C21.1086 12.1119 18.9493 10.8176 17.8192 8.75693C17.8192 8.75693 17.2734 7.4928 17.1532 5.64334C17.0602 4.21341 18.3536 3.18853 19.7741 3.37649C22.7258 3.76705 26.8224 4.68855 29.6386 6.52536C34.285 9.55597 33.4716 15.0177 31.0259 17.5897Z" fill="url(#paint22_radial_0_5103)"/>
<path id="Vector_27" d="M31.0259 17.5897L30.9482 15.9086C30.9199 13.8752 29.2395 12.1972 27.2054 12.1119H23.476C21.1086 12.1119 18.9493 10.8176 17.8192 8.75693C17.8192 8.75693 17.2734 7.4928 17.1532 5.64334C17.0602 4.21341 18.3536 3.18853 19.7741 3.37649C22.7258 3.76705 26.8224 4.68855 29.6386 6.52536C34.285 9.55597 33.4716 15.0177 31.0259 17.5897Z" fill="url(#paint23_radial_0_5103)"/>
<path id="Vector_28" d="M31.0259 17.5897L30.9482 15.9086C30.9199 13.8752 29.2395 12.1972 27.2054 12.1119H23.476C21.1086 12.1119 18.9493 10.8176 17.8192 8.75693C17.8192 8.75693 17.2734 7.4928 17.1532 5.64334C17.0602 4.21341 18.3536 3.18853 19.7741 3.37649C22.7258 3.76705 26.8224 4.68855 29.6386 6.52536C34.285 9.55597 33.4716 15.0177 31.0259 17.5897Z" fill="url(#paint24_radial_0_5103)"/>
<path id="Vector_29" d="M31.0259 17.5897L30.9482 15.9086C30.9199 13.8752 29.2395 12.1972 27.2054 12.1119H23.476C21.1086 12.1119 18.9493 10.8176 17.8192 8.75693C17.8192 8.75693 17.2734 7.4928 17.1532 5.64334C17.0602 4.21341 18.3536 3.18853 19.7741 3.37649C22.7258 3.76705 26.8224 4.68855 29.6386 6.52536C34.285 9.55597 33.4716 15.0177 31.0259 17.5897Z" fill="url(#paint25_radial_0_5103)"/>
<path id="Vector_30" d="M31.0259 17.5897L30.9482 15.9086C30.9199 13.8752 29.2395 12.1972 27.2054 12.1119H23.476C21.1086 12.1119 18.9493 10.8176 17.8192 8.75693C17.8192 8.75693 17.2734 7.4928 17.1532 5.64334C17.0602 4.21341 18.3536 3.18853 19.7741 3.37649C22.7258 3.76705 26.8224 4.68855 29.6386 6.52536C34.285 9.55597 33.4716 15.0177 31.0259 17.5897Z" fill="url(#paint26_radial_0_5103)"/>
</g>
<path id="Vector_31" d="M23.5113 19.1297C25.2507 19.1297 26.7201 20.329 27.12 21.9497C27.2388 22.4142 26.8823 22.8572 26.4068 22.8572H20.4644C20.0862 22.8572 19.7837 22.5115 19.8593 22.1334C20.1943 20.4263 21.6962 19.1297 23.5113 19.1297Z" fill="white"/>
<path id="Vector_32" d="M22.96 19.8555C24.2781 19.8555 25.3369 20.925 25.3369 22.2325C25.3369 22.4485 25.3045 22.6646 25.2505 22.859H20.6587C20.6047 22.6537 20.5723 22.4485 20.5723 22.2325C20.5723 20.925 21.6418 19.8555 22.96 19.8555Z" fill="url(#paint27_radial_0_5103)"/>
<path id="Vector_33" d="M21.5996 22.2295C21.5996 21.4731 22.2046 20.8681 22.9609 20.8681C23.7173 20.8681 24.3223 21.4731 24.3223 22.2295C24.3223 22.4564 24.2683 22.6724 24.171 22.8561H21.7616C21.6536 22.6724 21.5996 22.4564 21.5996 22.2295Z" fill="black"/>
<g id="Group_10">
<path id="Vector_34" d="M22.7852 20.3552C22.9546 20.5817 22.6006 20.8577 22.1982 21.1587C21.7956 21.4596 21.497 21.6715 21.3278 21.4449C21.1583 21.2185 21.3473 20.7909 21.7499 20.4899C22.1523 20.189 22.6159 20.1286 22.7852 20.3552Z" fill="#C7A7A3"/>
<path id="Vector_35" d="M22.7852 20.3552C22.9546 20.5817 22.6006 20.8577 22.1982 21.1587C21.7956 21.4596 21.497 21.6715 21.3278 21.4449C21.1583 21.2185 21.3473 20.7909 21.7499 20.4899C22.1523 20.189 22.6159 20.1286 22.7852 20.3552Z" fill="url(#paint28_radial_0_5103)"/>
</g>
<g id="Group_11">
<path id="Vector_36" d="M25.0778 21.9172C24.9901 21.3027 24.6305 20.8395 24.4617 20.6848L23.7695 21.4445L24.0818 22.0522L25.0778 21.9172Z" fill="url(#paint29_linear_0_5103)"/>
</g>
<path id="Vector_37" d="M10.7745 19.1297C9.03484 19.1297 7.5654 20.3291 7.16561 21.9498C7.04676 22.4144 7.40331 22.8574 7.87874 22.8574H13.8215C14.1997 22.8574 14.5022 22.5117 14.4265 22.1335C14.0917 20.4263 12.579 19.1297 10.7745 19.1297Z" fill="white"/>
<path id="Vector_38" d="M11.3263 19.8525C10.0081 19.8525 8.94922 20.9222 8.94922 22.2297C8.94922 22.4458 8.98165 22.6619 9.03565 22.8564H13.6278C13.6818 22.6511 13.7142 22.4458 13.7142 22.2297C13.7035 20.9222 12.6445 19.8525 11.3263 19.8525Z" fill="url(#paint30_radial_0_5103)"/>
<path id="Vector_39" d="M12.6877 22.2295C12.6877 21.4732 12.0827 20.8681 11.3263 20.8681C10.57 20.8681 9.96484 21.4732 9.96484 22.2295C9.96484 22.4565 10.0188 22.6725 10.1161 22.8562H12.5257C12.6228 22.6725 12.6877 22.4565 12.6877 22.2295Z" fill="black"/>
<g id="Group_12">
<path id="Vector_40" d="M13.4973 21.9514C13.4973 21.1831 12.8725 20.6711 12.7038 20.5162L11.9355 21.2591L12.4083 22.2214L13.4973 21.9514Z" fill="url(#paint31_linear_0_5103)"/>
</g>
<g id="Group_13">
<path id="Vector_41" d="M10.854 21.3329C11.3605 21.0646 11.6609 20.6393 11.5252 20.383C11.3894 20.1267 10.8687 20.1364 10.3623 20.4047C9.85586 20.673 9.55539 21.0983 9.69118 21.3546C9.82696 21.6109 10.3476 21.6012 10.854 21.3329Z" fill="#C7A7A3" fill-opacity="0.9"/>
<path id="Vector_42" d="M10.854 21.3329C11.3605 21.0646 11.6609 20.6393 11.5252 20.383C11.3894 20.1267 10.8687 20.1364 10.3623 20.4047C9.85586 20.673 9.55539 21.0983 9.69118 21.3546C9.82696 21.6109 10.3476 21.6012 10.854 21.3329Z" fill="url(#paint32_radial_0_5103)"/>
</g>
<path id="Vector_43" d="M30.252 27.1349C30.4272 24.3005 30.5962 21.4695 30.7435 18.6351C32.7559 18.9873 34.2855 20.7433 34.2855 22.8565C34.2855 25.1388 32.5015 27.0045 30.252 27.1349Z" fill="url(#paint33_linear_0_5103)"/>
<path id="Vector_44" d="M30.252 27.1349C30.4272 24.3005 30.5962 21.4695 30.7435 18.6351C32.7559 18.9873 34.2855 20.7433 34.2855 22.8565C34.2855 25.1388 32.5015 27.0045 30.252 27.1349Z" fill="url(#paint34_radial_0_5103)"/>
<path id="Vector_45" d="M30.252 27.1349C30.4272 24.3005 30.5962 21.4695 30.7435 18.6351C32.7559 18.9873 34.2855 20.7433 34.2855 22.8565C34.2855 25.1388 32.5015 27.0045 30.252 27.1349Z" fill="url(#paint35_radial_0_5103)"/>
<path id="Vector_46" d="M3.6819 18.6132C1.60087 18.9066 0 20.6946 0 22.8566C0 25.1447 1.79306 27.014 4.05068 27.136C3.87874 24.29 3.73699 21.46 3.6819 18.6132Z" fill="url(#paint36_linear_0_5103)"/>
<path id="Vector_47" d="M3.6819 18.6132C1.60087 18.9066 0 20.6946 0 22.8566C0 25.1447 1.79306 27.014 4.05068 27.136C3.87874 24.29 3.73699 21.46 3.6819 18.6132Z" fill="url(#paint37_radial_0_5103)"/>
<g id="Group_14">
<path id="Vector_48" d="M3.7277 20.374C2.59131 20.6288 1.74219 21.6437 1.74219 22.8569C1.74219 24.1481 2.70379 25.2146 3.9499 25.3795C3.85759 23.7101 3.77969 22.0438 3.7277 20.374Z" fill="#DD8224"/>
</g>
<g id="Group_15">
<path id="Vector_49" d="M30.3574 25.3995C30.4601 23.7095 30.5594 22.0201 30.652 20.3301C31.9073 20.4866 32.8784 21.5574 32.8784 22.8549C32.8784 24.2525 31.752 25.3868 30.3574 25.3995Z" fill="#FFC837"/>
</g>
<g id="Group_16">
<path id="Vector_50" d="M8.1582 16.0813C8.84271 15.5903 10.5488 14.7265 12.5667 15.0658" stroke="#C96953" stroke-width="0.47669" stroke-linecap="round"/>
</g>
<g id="Group_17">
<path id="Vector_51" d="M26.6273 15.9586C25.9427 15.4676 24.2366 14.6037 22.2188 14.943" stroke="#C96953" stroke-width="0.47669" stroke-linecap="round"/>
</g>
</g>
<defs>
<radialGradient id="paint0_radial_0_5103" cx="0" cy="0" r="1" gradientUnits="userSpaceOnUse" gradientTransform="translate(31.9187 26.0716) rotate(103.679) scale(8.68375 10.3156)">
<stop offset="0.28005" stop-color="#FFC135"/>
<stop offset="1" stop-color="#E4803E"/>
</radialGradient>
<radialGradient id="paint1_radial_0_5103" cx="0" cy="0" r="1" gradientUnits="userSpaceOnUse" gradientTransform="translate(29.9322 26.7859) rotate(53.9017) scale(1.326 1.12646)">
<stop stop-color="#E18C2A"/>
<stop offset="1" stop-color="#E18C2A" stop-opacity="0"/>
</radialGradient>
<radialGradient id="paint2_radial_0_5103" cx="0" cy="0" r="1" gradientUnits="userSpaceOnUse" gradientTransform="translate(2.36551 26.3842) rotate(64.5923) scale(7.90766 3.59439)">
<stop stop-color="#D57A26"/>
<stop offset="1" stop-color="#D06A3C"/>
</radialGradient>
<radialGradient id="paint3_radial_0_5103" cx="0" cy="0" r="1" gradientUnits="userSpaceOnUse" gradientTransform="translate(4.12888 26.3619) rotate(72.2903) scale(2.78836 2.44598)">
<stop offset="0.263377" stop-color="#BE691E"/>
<stop offset="0.977292" stop-color="#BE691E" stop-opacity="0"/>
</radialGradient>
<radialGradient id="paint4_radial_0_5103" cx="0" cy="0" r="1" gradientUnits="userSpaceOnUse" gradientTransform="translate(24.6199 23.565) rotate(180) scale(13.924 24.6314)">
<stop stop-color="#FFE846"/>
<stop offset="1" stop-color="#F5A129"/>
</radialGradient>
<linearGradient id="paint5_linear_0_5103" x1="30.8775" y1="28.0539" x2="19.2846" y2="28.0539" gradientUnits="userSpaceOnUse">
<stop stop-color="#FFD93B"/>
<stop offset="1" stop-color="#FFD93B" stop-opacity="0"/>
</linearGradient>
<radialGradient id="paint6_radial_0_5103" cx="0" cy="0" r="1" gradientUnits="userSpaceOnUse" gradientTransform="translate(21.3539 7.81471) rotate(95.0389) scale(34.66 28.7026)">
<stop offset="0.777698" stop-color="#D77869" stop-opacity="0"/>
<stop offset="0.970665" stop-color="#D77869"/>
</radialGradient>
<radialGradient id="paint7_radial_0_5103" cx="0" cy="0" r="1" gradientUnits="userSpaceOnUse" gradientTransform="translate(23.6596 20.5809) rotate(-90) scale(3.5714 4.41961)">
<stop offset="0.325" stop-color="#FFBD38"/>
<stop offset="1" stop-color="#FFBD38" stop-opacity="0"/>
</radialGradient>
<radialGradient id="paint8_radial_0_5103" cx="0" cy="0" r="1" gradientUnits="userSpaceOnUse" gradientTransform="translate(11.0704 20.8488) rotate(-90.7162) scale(3.57167 3.88683)">
<stop offset="0.377617" stop-color="#EF9330"/>
<stop offset="1" stop-color="#EF9330" stop-opacity="0"/>
</radialGradient>
<linearGradient id="paint9_linear_0_5103" x1="17.1425" y1="25.7726" x2="19.4192" y2="25.7726" gradientUnits="userSpaceOnUse">
<stop stop-color="#FFC92F"/>
<stop offset="1" stop-color="#FFEA47"/>
</linearGradient>
<linearGradient id="paint10_linear_0_5103" x1="14.2854" y1="25.3583" x2="17.1461" y2="25.5162" gradientUnits="userSpaceOnUse">
<stop stop-color="#F49F22"/>
<stop offset="1" stop-color="#F49F22" stop-opacity="0"/>
</linearGradient>
<linearGradient id="paint11_linear_0_5103" x1="17.1425" y1="26.8347" x2="17.1425" y2="29.1037" gradientUnits="userSpaceOnUse">
<stop stop-color="#E88830" stop-opacity="0"/>
<stop offset="0.844655" stop-color="#E88830"/>
</linearGradient>
<linearGradient id="paint12_linear_0_5103" x1="17.1425" y1="20.8485" x2="17.1425" y2="21.9655" gradientUnits="userSpaceOnUse">
<stop stop-color="#FAC137"/>
<stop offset="1" stop-color="#FAC137" stop-opacity="0"/>
</linearGradient>
<radialGradient id="paint13_radial_0_5103" cx="0" cy="0" r="1" gradientUnits="userSpaceOnUse" gradientTransform="translate(14.1418 32.326) rotate(-60.732) scale(1.89129 5.5037)">
<stop stop-color="#FFB534"/>
<stop offset="1" stop-color="#FFB534" stop-opacity="0"/>
</radialGradient>
<radialGradient id="paint14_radial_0_5103" cx="0" cy="0" r="1" gradientUnits="userSpaceOnUse" gradientTransform="translate(17.1431 32.9916) rotate(-90) scale(1.91963 7.72316)">
<stop stop-color="#89014E"/>
<stop offset="1" stop-color="#87004D"/>
</radialGradient>
<linearGradient id="paint15_linear_0_5103" x1="31.4283" y1="8.48208" x2="4.46425" y2="8.48208" gradientUnits="userSpaceOnUse">
<stop stop-color="#FFE235"/>
<stop offset="1" stop-color="#D29935"/>
</linearGradient>
<radialGradient id="paint16_radial_0_5103" cx="0" cy="0" r="1" gradientUnits="userSpaceOnUse" gradientTransform="translate(3.21426 19.3507) rotate(-90) scale(9.6753 17.1427)">
<stop stop-color="#C98537"/>
<stop offset="1" stop-color="#C98537" stop-opacity="0"/>
</radialGradient>
<radialGradient id="paint17_radial_0_5103" cx="0" cy="0" r="1" gradientUnits="userSpaceOnUse" gradientTransform="translate(30.0891 19.3507) rotate(-90) scale(9.6753 17.1427)">
<stop stop-color="#FFB52A"/>
<stop offset="1" stop-color="#FFB52A" stop-opacity="0"/>
</radialGradient>
<radialGradient id="paint18_radial_0_5103" cx="0" cy="0" r="1" gradientUnits="userSpaceOnUse" gradientTransform="translate(28.0802 2.63391) rotate(-159.121) scale(9.26932 4.93652)">
<stop stop-color="#FFE639"/>
<stop offset="1" stop-color="#FFE639" stop-opacity="0"/>
</radialGradient>
<radialGradient id="paint19_radial_0_5103" cx="0" cy="0" r="1" gradientUnits="userSpaceOnUse" gradientTransform="translate(14.732 -1.60714) rotate(58.4652) scale(4.60922 10.6728)">
<stop offset="0.286771" stop-color="#F3C130"/>
<stop offset="1" stop-color="#F3C130" stop-opacity="0"/>
</radialGradient>
<radialGradient id="paint20_radial_0_5103" cx="0" cy="0" r="1" gradientUnits="userSpaceOnUse" gradientTransform="translate(17.8185 2.23553) rotate(160.16) scale(10.7793 3.00012)">
<stop stop-color="#FFDC2B"/>
<stop offset="1" stop-color="#FFDC2B" stop-opacity="0"/>
</radialGradient>
<radialGradient id="paint21_radial_0_5103" cx="0" cy="0" r="1" gradientUnits="userSpaceOnUse" gradientTransform="translate(2.67915 14.9118) rotate(-57.7244) scale(16.0515 17.7833)">
<stop offset="0.0926981" stop-color="#D67227"/>
<stop offset="0.233498" stop-color="#EF8A23"/>
<stop offset="1" stop-color="#EF8A23" stop-opacity="0"/>
</radialGradient>
<radialGradient id="paint22_radial_0_5103" cx="0" cy="0" r="1" gradientUnits="userSpaceOnUse" gradientTransform="translate(26.7852 5.32557) rotate(13.3074) scale(9.2666 3.55366)">
<stop stop-color="#FFE137"/>
<stop offset="1" stop-color="#FFE137" stop-opacity="0"/>
</radialGradient>
<radialGradient id="paint23_radial_0_5103" cx="0" cy="0" r="1" gradientUnits="userSpaceOnUse" gradientTransform="translate(30.8031 17.5897) rotate(-120.119) scale(11.4043 6.36008)">
<stop stop-color="#EB8F29"/>
<stop offset="1" stop-color="#EB8F29" stop-opacity="0"/>
</radialGradient>
<radialGradient id="paint24_radial_0_5103" cx="0" cy="0" r="1" gradientUnits="userSpaceOnUse" gradientTransform="translate(29.1512 16.7902) rotate(-120.695) scale(6.82134 4.88584)">
<stop offset="0.394122" stop-color="#E48421"/>
<stop offset="1" stop-color="#E48421" stop-opacity="0"/>
</radialGradient>
<radialGradient id="paint25_radial_0_5103" cx="0" cy="0" r="1" gradientUnits="userSpaceOnUse" gradientTransform="translate(29.9102 5.01452) rotate(166.509) scale(13.1429 14.208)">
<stop offset="0.734853" stop-color="#F29415" stop-opacity="0"/>
<stop offset="1" stop-color="#F29415"/>
</radialGradient>
<radialGradient id="paint26_radial_0_5103" cx="0" cy="0" r="1" gradientUnits="userSpaceOnUse" gradientTransform="translate(26.3388 4.68125) rotate(107.002) scale(1.06875 4.88616)">
<stop offset="0.461072" stop-color="#FFCE3C"/>
<stop offset="1" stop-color="#FFCE3C" stop-opacity="0"/>
</radialGradient>
<radialGradient id="paint27_radial_0_5103" cx="0" cy="0" r="1" gradientUnits="userSpaceOnUse" gradientTransform="translate(22.9547 21.1259) rotate(90) scale(2.16089 3.43713)">
<stop offset="0.80198" stop-color="#925C51"/>
<stop offset="1" stop-color="#85534D"/>
</radialGradient>
<radialGradient id="paint28_radial_0_5103" cx="0" cy="0" r="1" gradientUnits="userSpaceOnUse" gradientTransform="translate(22.3469 21.3473) rotate(-127.812) scale(1.00754 1.38714)">
<stop offset="0.765532" stop-color="#FFE6E2" stop-opacity="0"/>
<stop offset="0.966159" stop-color="#FFE6E2"/>
</radialGradient>
<linearGradient id="paint29_linear_0_5103" x1="25.0272" y1="21.2672" x2="24.1915" y2="21.7821" gradientUnits="userSpaceOnUse">
<stop stop-color="#B4948D"/>
<stop offset="1" stop-color="#B4948D" stop-opacity="0"/>
</linearGradient>
<radialGradient id="paint30_radial_0_5103" cx="0" cy="0" r="1" gradientUnits="userSpaceOnUse" gradientTransform="translate(11.3318 21.1232) rotate(90) scale(2.161 3.43732)">
<stop offset="0.80198" stop-color="#925C51"/>
<stop offset="1" stop-color="#85534D"/>
</radialGradient>
<linearGradient id="paint31_linear_0_5103" x1="13.3121" y1="21.2675" x2="12.4764" y2="21.7825" gradientUnits="userSpaceOnUse">
<stop stop-color="#B4948D"/>
<stop offset="1" stop-color="#B4948D" stop-opacity="0"/>
</linearGradient>
<radialGradient id="paint32_radial_0_5103" cx="0" cy="0" r="1" gradientUnits="userSpaceOnUse" gradientTransform="translate(10.9654 21.6288) rotate(-118.811) scale(1.31612 1.58203)">
<stop offset="0.765532" stop-color="#FFE6E2" stop-opacity="0"/>
<stop offset="0.966159" stop-color="#FFE6E2"/>
</radialGradient>
<linearGradient id="paint33_linear_0_5103" x1="34.2855" y1="21.3387" x2="31.0712" y2="27.1349" gradientUnits="userSpaceOnUse">
<stop stop-color="#FFE343"/>
<stop offset="1" stop-color="#FFC136"/>
</linearGradient>
<radialGradient id="paint34_radial_0_5103" cx="0" cy="0" r="1" gradientUnits="userSpaceOnUse" gradientTransform="translate(29.4418 21.1601) rotate(74.3475) scale(6.2049 5.91996)">
<stop offset="0.856273" stop-color="#E1943D" stop-opacity="0"/>
<stop offset="1" stop-color="#E08F2E"/>
</radialGradient>
<radialGradient id="paint35_radial_0_5103" cx="0" cy="0" r="1" gradientUnits="userSpaceOnUse" gradientTransform="translate(30.4015 22.6111) rotate(-53.9198) scale(3.56282 2.98635)">
<stop offset="0.663731" stop-color="#FFBD22"/>
<stop offset="1" stop-color="#FFBD22" stop-opacity="0"/>
</radialGradient>
<linearGradient id="paint36_linear_0_5103" x1="1.56249" y1="23.2137" x2="5.44639" y2="22.8746" gradientUnits="userSpaceOnUse">
<stop stop-color="#E39726"/>
<stop offset="1" stop-color="#D9851D"/>
</linearGradient>
<radialGradient id="paint37_radial_0_5103" cx="0" cy="0" r="1" gradientUnits="userSpaceOnUse" gradientTransform="translate(3.12498 21.6066) rotate(101.248) scale(5.63763 5.5423)">
<stop offset="0.77507" stop-color="#C77937" stop-opacity="0"/>
<stop offset="1" stop-color="#C77937"/>
</radialGradient>
</defs>
</svg>
