<svg width="41" height="40" viewBox="0 0 41 40" fill="none" xmlns="http://www.w3.org/2000/svg">
<g id="&#240;&#159;&#166;&#134; emoji &#34;woman teacher default&#34;">
<g id="Group">
<path id="Vector" d="M39.1276 32.8056H0.886339C0.400282 32.8056 0 32.4036 0 31.9154V3.55681C0 3.06861 0.400282 2.66656 0.886339 2.66656H39.1133C39.6136 2.66656 39.9996 3.06861 39.9996 3.55681V31.901C40.0139 32.4036 39.6136 32.8056 39.1276 32.8056Z" fill="url(#paint0_linear_0_3593)"/>
</g>
<path id="Vector_2" d="M1.42969 31.3703V4.10297H38.5845V31.3703H1.42969Z" fill="url(#paint1_linear_0_3593)"/>
<path id="Vector_3" d="M1.42969 31.3703V4.10297H38.5845V31.3703H1.42969Z" fill="url(#paint2_radial_0_3593)"/>
<path id="Vector_4" d="M1.42969 31.3703V4.10297H38.5845V31.3703H1.42969Z" fill="url(#paint3_radial_0_3593)"/>
<g id="Group_2">
<path id="Vector_5" d="M1.73633 3.23077H39.2092C39.2881 3.23077 39.3522 3.29506 39.3522 3.37436V31.4957" stroke="url(#paint4_linear_0_3593)" stroke-width="1.84242" stroke-linecap="round"/>
</g>
<g id="Group_3">
<path id="Vector_6" d="M38.5843 31.3701H1.42958V4.10274L0.114367 3.12634C0.0428876 3.25557 0 3.41352 0 3.55711V31.9014C0 32.4039 0.400282 32.7916 0.886339 32.7916H39.1133C39.4564 32.7916 39.7423 32.605 39.8996 32.3178L38.5843 31.3701Z" fill="url(#paint5_linear_0_3593)"/>
<path id="Vector_7" d="M38.5843 31.3701H1.42958V4.10274L0.114367 3.12634C0.0428876 3.25557 0 3.41352 0 3.55711V31.9014C0 32.4039 0.400282 32.7916 0.886339 32.7916H39.1133C39.4564 32.7916 39.7423 32.605 39.8996 32.3178L38.5843 31.3701Z" fill="url(#paint6_linear_0_3593)"/>
<path id="Vector_8" d="M38.5843 31.3701H1.42958V4.10274L0.114367 3.12634C0.0428876 3.25557 0 3.41352 0 3.55711V31.9014C0 32.4039 0.400282 32.7916 0.886339 32.7916H39.1133C39.4564 32.7916 39.7423 32.605 39.8996 32.3178L38.5843 31.3701Z" fill="url(#paint7_radial_0_3593)"/>
</g>
<g id="Group_4">
<path id="Vector_9" fill-rule="evenodd" clip-rule="evenodd" d="M30.3244 14.3342C30.6296 13.7066 30.7895 13.0059 30.7895 12.276C30.7895 11.602 30.6514 10.9695 30.4038 10.393H30.4115C30.296 10.132 30.166 9.88532 30.0076 9.6531L30.0048 9.64857C29.5106 8.88954 29.2489 7.99912 29.2489 7.09412V7.07951C29.2489 4.45207 27.1272 2.32091 24.5113 2.32091C24.2497 2.32091 24.0027 2.20415 23.8573 1.98519C22.9998 0.78824 21.59 0 20.0059 0C18.4219 0 17.0122 0.78824 16.1547 1.98519C16.0093 2.18954 15.7623 2.32091 15.5007 2.32091C15.4599 2.32091 15.4192 2.32144 15.3786 2.32248C12.8191 2.38756 10.763 4.49307 10.763 7.07951V7.09412C10.763 7.99912 10.5014 8.88954 10.0073 9.64857L10.004 9.65387C9.51196 10.4118 9.22266 11.3003 9.22266 12.276C9.22266 13.0205 9.39705 13.7066 9.6877 14.3342C9.78943 14.5385 9.78943 14.7866 9.6877 14.9911C9.39705 15.6041 9.22266 16.2901 9.22266 17.02C9.22266 19.5891 11.2863 21.6619 13.8441 21.6619H26.1681C28.7259 21.6619 30.7895 19.5891 30.7895 17.02C30.7895 16.2901 30.615 15.6041 30.3244 14.9911C30.2226 14.7866 30.2226 14.5385 30.3244 14.3342ZM12.7181 10.4796H12.7006L14.4219 13.8771C14.5989 17.9194 16.1696 13.8771 20.0059 13.8771C23.8423 13.8771 25.5152 18.3765 25.6921 14.3342L27.3234 9.72271C27.2462 7.92718 25.9508 7.80117 25.6921 7.80117H21.068C19.242 7.80117 17.519 6.90346 16.4882 5.38765C16.3114 5.13746 15.9433 5.18161 15.8255 5.46124L15.7077 5.74084C15.3837 6.55025 14.7652 7.16835 13.9993 7.52155C13.9773 7.52891 13.9516 7.53994 13.9257 7.55098C13.9 7.56203 13.8742 7.57305 13.8521 7.58042C13.5134 7.75702 12.7181 8.28681 12.6887 9.65545L12.7034 10.097L12.7181 10.4796Z" fill="url(#paint8_linear_0_3593)"/>
<path id="Vector_10" fill-rule="evenodd" clip-rule="evenodd" d="M30.3244 14.3342C30.6296 13.7066 30.7895 13.0059 30.7895 12.276C30.7895 11.602 30.6514 10.9695 30.4038 10.393H30.4115C30.296 10.132 30.166 9.88532 30.0076 9.6531L30.0048 9.64857C29.5106 8.88954 29.2489 7.99912 29.2489 7.09412V7.07951C29.2489 4.45207 27.1272 2.32091 24.5113 2.32091C24.2497 2.32091 24.0027 2.20415 23.8573 1.98519C22.9998 0.78824 21.59 0 20.0059 0C18.4219 0 17.0122 0.78824 16.1547 1.98519C16.0093 2.18954 15.7623 2.32091 15.5007 2.32091C15.4599 2.32091 15.4192 2.32144 15.3786 2.32248C12.8191 2.38756 10.763 4.49307 10.763 7.07951V7.09412C10.763 7.99912 10.5014 8.88954 10.0073 9.64857L10.004 9.65387C9.51196 10.4118 9.22266 11.3003 9.22266 12.276C9.22266 13.0205 9.39705 13.7066 9.6877 14.3342C9.78943 14.5385 9.78943 14.7866 9.6877 14.9911C9.39705 15.6041 9.22266 16.2901 9.22266 17.02C9.22266 19.5891 11.2863 21.6619 13.8441 21.6619H26.1681C28.7259 21.6619 30.7895 19.5891 30.7895 17.02C30.7895 16.2901 30.615 15.6041 30.3244 14.9911C30.2226 14.7866 30.2226 14.5385 30.3244 14.3342ZM12.7181 10.4796H12.7006L14.4219 13.8771C14.5989 17.9194 16.1696 13.8771 20.0059 13.8771C23.8423 13.8771 25.5152 18.3765 25.6921 14.3342L27.3234 9.72271C27.2462 7.92718 25.9508 7.80117 25.6921 7.80117H21.068C19.242 7.80117 17.519 6.90346 16.4882 5.38765C16.3114 5.13746 15.9433 5.18161 15.8255 5.46124L15.7077 5.74084C15.3837 6.55025 14.7652 7.16835 13.9993 7.52155C13.9773 7.52891 13.9516 7.53994 13.9257 7.55098C13.9 7.56203 13.8742 7.57305 13.8521 7.58042C13.5134 7.75702 12.7181 8.28681 12.6887 9.65545L12.7034 10.097L12.7181 10.4796Z" fill="url(#paint9_radial_0_3593)"/>
<path id="Vector_11" fill-rule="evenodd" clip-rule="evenodd" d="M30.3244 14.3342C30.6296 13.7066 30.7895 13.0059 30.7895 12.276C30.7895 11.602 30.6514 10.9695 30.4038 10.393H30.4115C30.296 10.132 30.166 9.88532 30.0076 9.6531L30.0048 9.64857C29.5106 8.88954 29.2489 7.99912 29.2489 7.09412V7.07951C29.2489 4.45207 27.1272 2.32091 24.5113 2.32091C24.2497 2.32091 24.0027 2.20415 23.8573 1.98519C22.9998 0.78824 21.59 0 20.0059 0C18.4219 0 17.0122 0.78824 16.1547 1.98519C16.0093 2.18954 15.7623 2.32091 15.5007 2.32091C15.4599 2.32091 15.4192 2.32144 15.3786 2.32248C12.8191 2.38756 10.763 4.49307 10.763 7.07951V7.09412C10.763 7.99912 10.5014 8.88954 10.0073 9.64857L10.004 9.65387C9.51196 10.4118 9.22266 11.3003 9.22266 12.276C9.22266 13.0205 9.39705 13.7066 9.6877 14.3342C9.78943 14.5385 9.78943 14.7866 9.6877 14.9911C9.39705 15.6041 9.22266 16.2901 9.22266 17.02C9.22266 19.5891 11.2863 21.6619 13.8441 21.6619H26.1681C28.7259 21.6619 30.7895 19.5891 30.7895 17.02C30.7895 16.2901 30.615 15.6041 30.3244 14.9911C30.2226 14.7866 30.2226 14.5385 30.3244 14.3342ZM12.7181 10.4796H12.7006L14.4219 13.8771C14.5989 17.9194 16.1696 13.8771 20.0059 13.8771C23.8423 13.8771 25.5152 18.3765 25.6921 14.3342L27.3234 9.72271C27.2462 7.92718 25.9508 7.80117 25.6921 7.80117H21.068C19.242 7.80117 17.519 6.90346 16.4882 5.38765C16.3114 5.13746 15.9433 5.18161 15.8255 5.46124L15.7077 5.74084C15.3837 6.55025 14.7652 7.16835 13.9993 7.52155C13.9773 7.52891 13.9516 7.53994 13.9257 7.55098C13.9 7.56203 13.8742 7.57305 13.8521 7.58042C13.5134 7.75702 12.7181 8.28681 12.6887 9.65545L12.7034 10.097L12.7181 10.4796Z" fill="url(#paint10_radial_0_3593)"/>
<path id="Vector_12" fill-rule="evenodd" clip-rule="evenodd" d="M30.3244 14.3342C30.6296 13.7066 30.7895 13.0059 30.7895 12.276C30.7895 11.602 30.6514 10.9695 30.4038 10.393H30.4115C30.296 10.132 30.166 9.88532 30.0076 9.6531L30.0048 9.64857C29.5106 8.88954 29.2489 7.99912 29.2489 7.09412V7.07951C29.2489 4.45207 27.1272 2.32091 24.5113 2.32091C24.2497 2.32091 24.0027 2.20415 23.8573 1.98519C22.9998 0.78824 21.59 0 20.0059 0C18.4219 0 17.0122 0.78824 16.1547 1.98519C16.0093 2.18954 15.7623 2.32091 15.5007 2.32091C15.4599 2.32091 15.4192 2.32144 15.3786 2.32248C12.8191 2.38756 10.763 4.49307 10.763 7.07951V7.09412C10.763 7.99912 10.5014 8.88954 10.0073 9.64857L10.004 9.65387C9.51196 10.4118 9.22266 11.3003 9.22266 12.276C9.22266 13.0205 9.39705 13.7066 9.6877 14.3342C9.78943 14.5385 9.78943 14.7866 9.6877 14.9911C9.39705 15.6041 9.22266 16.2901 9.22266 17.02C9.22266 19.5891 11.2863 21.6619 13.8441 21.6619H26.1681C28.7259 21.6619 30.7895 19.5891 30.7895 17.02C30.7895 16.2901 30.615 15.6041 30.3244 14.9911C30.2226 14.7866 30.2226 14.5385 30.3244 14.3342ZM12.7181 10.4796H12.7006L14.4219 13.8771C14.5989 17.9194 16.1696 13.8771 20.0059 13.8771C23.8423 13.8771 25.5152 18.3765 25.6921 14.3342L27.3234 9.72271C27.2462 7.92718 25.9508 7.80117 25.6921 7.80117H21.068C19.242 7.80117 17.519 6.90346 16.4882 5.38765C16.3114 5.13746 15.9433 5.18161 15.8255 5.46124L15.7077 5.74084C15.3837 6.55025 14.7652 7.16835 13.9993 7.52155C13.9773 7.52891 13.9516 7.53994 13.9257 7.55098C13.9 7.56203 13.8742 7.57305 13.8521 7.58042C13.5134 7.75702 12.7181 8.28681 12.6887 9.65545L12.7034 10.097L12.7181 10.4796Z" fill="url(#paint11_radial_0_3593)"/>
<path id="Vector_13" fill-rule="evenodd" clip-rule="evenodd" d="M30.3244 14.3342C30.6296 13.7066 30.7895 13.0059 30.7895 12.276C30.7895 11.602 30.6514 10.9695 30.4038 10.393H30.4115C30.296 10.132 30.166 9.88532 30.0076 9.6531L30.0048 9.64857C29.5106 8.88954 29.2489 7.99912 29.2489 7.09412V7.07951C29.2489 4.45207 27.1272 2.32091 24.5113 2.32091C24.2497 2.32091 24.0027 2.20415 23.8573 1.98519C22.9998 0.78824 21.59 0 20.0059 0C18.4219 0 17.0122 0.78824 16.1547 1.98519C16.0093 2.18954 15.7623 2.32091 15.5007 2.32091C15.4599 2.32091 15.4192 2.32144 15.3786 2.32248C12.8191 2.38756 10.763 4.49307 10.763 7.07951V7.09412C10.763 7.99912 10.5014 8.88954 10.0073 9.64857L10.004 9.65387C9.51196 10.4118 9.22266 11.3003 9.22266 12.276C9.22266 13.0205 9.39705 13.7066 9.6877 14.3342C9.78943 14.5385 9.78943 14.7866 9.6877 14.9911C9.39705 15.6041 9.22266 16.2901 9.22266 17.02C9.22266 19.5891 11.2863 21.6619 13.8441 21.6619H26.1681C28.7259 21.6619 30.7895 19.5891 30.7895 17.02C30.7895 16.2901 30.615 15.6041 30.3244 14.9911C30.2226 14.7866 30.2226 14.5385 30.3244 14.3342ZM12.7181 10.4796H12.7006L14.4219 13.8771C14.5989 17.9194 16.1696 13.8771 20.0059 13.8771C23.8423 13.8771 25.5152 18.3765 25.6921 14.3342L27.3234 9.72271C27.2462 7.92718 25.9508 7.80117 25.6921 7.80117H21.068C19.242 7.80117 17.519 6.90346 16.4882 5.38765C16.3114 5.13746 15.9433 5.18161 15.8255 5.46124L15.7077 5.74084C15.3837 6.55025 14.7652 7.16835 13.9993 7.52155C13.9773 7.52891 13.9516 7.53994 13.9257 7.55098C13.9 7.56203 13.8742 7.57305 13.8521 7.58042C13.5134 7.75702 12.7181 8.28681 12.6887 9.65545L12.7034 10.097L12.7181 10.4796Z" fill="url(#paint12_radial_0_3593)"/>
<path id="Vector_14" fill-rule="evenodd" clip-rule="evenodd" d="M30.3244 14.3342C30.6296 13.7066 30.7895 13.0059 30.7895 12.276C30.7895 11.602 30.6514 10.9695 30.4038 10.393H30.4115C30.296 10.132 30.166 9.88532 30.0076 9.6531L30.0048 9.64857C29.5106 8.88954 29.2489 7.99912 29.2489 7.09412V7.07951C29.2489 4.45207 27.1272 2.32091 24.5113 2.32091C24.2497 2.32091 24.0027 2.20415 23.8573 1.98519C22.9998 0.78824 21.59 0 20.0059 0C18.4219 0 17.0122 0.78824 16.1547 1.98519C16.0093 2.18954 15.7623 2.32091 15.5007 2.32091C15.4599 2.32091 15.4192 2.32144 15.3786 2.32248C12.8191 2.38756 10.763 4.49307 10.763 7.07951V7.09412C10.763 7.99912 10.5014 8.88954 10.0073 9.64857L10.004 9.65387C9.51196 10.4118 9.22266 11.3003 9.22266 12.276C9.22266 13.0205 9.39705 13.7066 9.6877 14.3342C9.78943 14.5385 9.78943 14.7866 9.6877 14.9911C9.39705 15.6041 9.22266 16.2901 9.22266 17.02C9.22266 19.5891 11.2863 21.6619 13.8441 21.6619H26.1681C28.7259 21.6619 30.7895 19.5891 30.7895 17.02C30.7895 16.2901 30.615 15.6041 30.3244 14.9911C30.2226 14.7866 30.2226 14.5385 30.3244 14.3342ZM12.7181 10.4796H12.7006L14.4219 13.8771C14.5989 17.9194 16.1696 13.8771 20.0059 13.8771C23.8423 13.8771 25.5152 18.3765 25.6921 14.3342L27.3234 9.72271C27.2462 7.92718 25.9508 7.80117 25.6921 7.80117H21.068C19.242 7.80117 17.519 6.90346 16.4882 5.38765C16.3114 5.13746 15.9433 5.18161 15.8255 5.46124L15.7077 5.74084C15.3837 6.55025 14.7652 7.16835 13.9993 7.52155C13.9773 7.52891 13.9516 7.53994 13.9257 7.55098C13.9 7.56203 13.8742 7.57305 13.8521 7.58042C13.5134 7.75702 12.7181 8.28681 12.6887 9.65545L12.7034 10.097L12.7181 10.4796Z" fill="url(#paint13_radial_0_3593)"/>
<path id="Vector_15" fill-rule="evenodd" clip-rule="evenodd" d="M30.3244 14.3342C30.6296 13.7066 30.7895 13.0059 30.7895 12.276C30.7895 11.602 30.6514 10.9695 30.4038 10.393H30.4115C30.296 10.132 30.166 9.88532 30.0076 9.6531L30.0048 9.64857C29.5106 8.88954 29.2489 7.99912 29.2489 7.09412V7.07951C29.2489 4.45207 27.1272 2.32091 24.5113 2.32091C24.2497 2.32091 24.0027 2.20415 23.8573 1.98519C22.9998 0.78824 21.59 0 20.0059 0C18.4219 0 17.0122 0.78824 16.1547 1.98519C16.0093 2.18954 15.7623 2.32091 15.5007 2.32091C15.4599 2.32091 15.4192 2.32144 15.3786 2.32248C12.8191 2.38756 10.763 4.49307 10.763 7.07951V7.09412C10.763 7.99912 10.5014 8.88954 10.0073 9.64857L10.004 9.65387C9.51196 10.4118 9.22266 11.3003 9.22266 12.276C9.22266 13.0205 9.39705 13.7066 9.6877 14.3342C9.78943 14.5385 9.78943 14.7866 9.6877 14.9911C9.39705 15.6041 9.22266 16.2901 9.22266 17.02C9.22266 19.5891 11.2863 21.6619 13.8441 21.6619H26.1681C28.7259 21.6619 30.7895 19.5891 30.7895 17.02C30.7895 16.2901 30.615 15.6041 30.3244 14.9911C30.2226 14.7866 30.2226 14.5385 30.3244 14.3342ZM12.7181 10.4796H12.7006L14.4219 13.8771C14.5989 17.9194 16.1696 13.8771 20.0059 13.8771C23.8423 13.8771 25.5152 18.3765 25.6921 14.3342L27.3234 9.72271C27.2462 7.92718 25.9508 7.80117 25.6921 7.80117H21.068C19.242 7.80117 17.519 6.90346 16.4882 5.38765C16.3114 5.13746 15.9433 5.18161 15.8255 5.46124L15.7077 5.74084C15.3837 6.55025 14.7652 7.16835 13.9993 7.52155C13.9773 7.52891 13.9516 7.53994 13.9257 7.55098C13.9 7.56203 13.8742 7.57305 13.8521 7.58042C13.5134 7.75702 12.7181 8.28681 12.6887 9.65545L12.7034 10.097L12.7181 10.4796Z" fill="url(#paint14_radial_0_3593)"/>
<path id="Vector_16" fill-rule="evenodd" clip-rule="evenodd" d="M30.3244 14.3342C30.6296 13.7066 30.7895 13.0059 30.7895 12.276C30.7895 11.602 30.6514 10.9695 30.4038 10.393H30.4115C30.296 10.132 30.166 9.88532 30.0076 9.6531L30.0048 9.64857C29.5106 8.88954 29.2489 7.99912 29.2489 7.09412V7.07951C29.2489 4.45207 27.1272 2.32091 24.5113 2.32091C24.2497 2.32091 24.0027 2.20415 23.8573 1.98519C22.9998 0.78824 21.59 0 20.0059 0C18.4219 0 17.0122 0.78824 16.1547 1.98519C16.0093 2.18954 15.7623 2.32091 15.5007 2.32091C15.4599 2.32091 15.4192 2.32144 15.3786 2.32248C12.8191 2.38756 10.763 4.49307 10.763 7.07951V7.09412C10.763 7.99912 10.5014 8.88954 10.0073 9.64857L10.004 9.65387C9.51196 10.4118 9.22266 11.3003 9.22266 12.276C9.22266 13.0205 9.39705 13.7066 9.6877 14.3342C9.78943 14.5385 9.78943 14.7866 9.6877 14.9911C9.39705 15.6041 9.22266 16.2901 9.22266 17.02C9.22266 19.5891 11.2863 21.6619 13.8441 21.6619H26.1681C28.7259 21.6619 30.7895 19.5891 30.7895 17.02C30.7895 16.2901 30.615 15.6041 30.3244 14.9911C30.2226 14.7866 30.2226 14.5385 30.3244 14.3342ZM12.7181 10.4796H12.7006L14.4219 13.8771C14.5989 17.9194 16.1696 13.8771 20.0059 13.8771C23.8423 13.8771 25.5152 18.3765 25.6921 14.3342L27.3234 9.72271C27.2462 7.92718 25.9508 7.80117 25.6921 7.80117H21.068C19.242 7.80117 17.519 6.90346 16.4882 5.38765C16.3114 5.13746 15.9433 5.18161 15.8255 5.46124L15.7077 5.74084C15.3837 6.55025 14.7652 7.16835 13.9993 7.52155C13.9773 7.52891 13.9516 7.53994 13.9257 7.55098C13.9 7.56203 13.8742 7.57305 13.8521 7.58042C13.5134 7.75702 12.7181 8.28681 12.6887 9.65545L12.7034 10.097L12.7181 10.4796Z" fill="url(#paint15_radial_0_3593)"/>
<path id="Vector_17" fill-rule="evenodd" clip-rule="evenodd" d="M30.3244 14.3342C30.6296 13.7066 30.7895 13.0059 30.7895 12.276C30.7895 11.602 30.6514 10.9695 30.4038 10.393H30.4115C30.296 10.132 30.166 9.88532 30.0076 9.6531L30.0048 9.64857C29.5106 8.88954 29.2489 7.99912 29.2489 7.09412V7.07951C29.2489 4.45207 27.1272 2.32091 24.5113 2.32091C24.2497 2.32091 24.0027 2.20415 23.8573 1.98519C22.9998 0.78824 21.59 0 20.0059 0C18.4219 0 17.0122 0.78824 16.1547 1.98519C16.0093 2.18954 15.7623 2.32091 15.5007 2.32091C15.4599 2.32091 15.4192 2.32144 15.3786 2.32248C12.8191 2.38756 10.763 4.49307 10.763 7.07951V7.09412C10.763 7.99912 10.5014 8.88954 10.0073 9.64857L10.004 9.65387C9.51196 10.4118 9.22266 11.3003 9.22266 12.276C9.22266 13.0205 9.39705 13.7066 9.6877 14.3342C9.78943 14.5385 9.78943 14.7866 9.6877 14.9911C9.39705 15.6041 9.22266 16.2901 9.22266 17.02C9.22266 19.5891 11.2863 21.6619 13.8441 21.6619H26.1681C28.7259 21.6619 30.7895 19.5891 30.7895 17.02C30.7895 16.2901 30.615 15.6041 30.3244 14.9911C30.2226 14.7866 30.2226 14.5385 30.3244 14.3342ZM12.7181 10.4796H12.7006L14.4219 13.8771C14.5989 17.9194 16.1696 13.8771 20.0059 13.8771C23.8423 13.8771 25.5152 18.3765 25.6921 14.3342L27.3234 9.72271C27.2462 7.92718 25.9508 7.80117 25.6921 7.80117H21.068C19.242 7.80117 17.519 6.90346 16.4882 5.38765C16.3114 5.13746 15.9433 5.18161 15.8255 5.46124L15.7077 5.74084C15.3837 6.55025 14.7652 7.16835 13.9993 7.52155C13.9773 7.52891 13.9516 7.53994 13.9257 7.55098C13.9 7.56203 13.8742 7.57305 13.8521 7.58042C13.5134 7.75702 12.7181 8.28681 12.6887 9.65545L12.7034 10.097L12.7181 10.4796Z" fill="url(#paint16_radial_0_3593)"/>
<path id="Vector_18" fill-rule="evenodd" clip-rule="evenodd" d="M30.3244 14.3342C30.6296 13.7066 30.7895 13.0059 30.7895 12.276C30.7895 11.602 30.6514 10.9695 30.4038 10.393H30.4115C30.296 10.132 30.166 9.88532 30.0076 9.6531L30.0048 9.64857C29.5106 8.88954 29.2489 7.99912 29.2489 7.09412V7.07951C29.2489 4.45207 27.1272 2.32091 24.5113 2.32091C24.2497 2.32091 24.0027 2.20415 23.8573 1.98519C22.9998 0.78824 21.59 0 20.0059 0C18.4219 0 17.0122 0.78824 16.1547 1.98519C16.0093 2.18954 15.7623 2.32091 15.5007 2.32091C15.4599 2.32091 15.4192 2.32144 15.3786 2.32248C12.8191 2.38756 10.763 4.49307 10.763 7.07951V7.09412C10.763 7.99912 10.5014 8.88954 10.0073 9.64857L10.004 9.65387C9.51196 10.4118 9.22266 11.3003 9.22266 12.276C9.22266 13.0205 9.39705 13.7066 9.6877 14.3342C9.78943 14.5385 9.78943 14.7866 9.6877 14.9911C9.39705 15.6041 9.22266 16.2901 9.22266 17.02C9.22266 19.5891 11.2863 21.6619 13.8441 21.6619H26.1681C28.7259 21.6619 30.7895 19.5891 30.7895 17.02C30.7895 16.2901 30.615 15.6041 30.3244 14.9911C30.2226 14.7866 30.2226 14.5385 30.3244 14.3342ZM12.7181 10.4796H12.7006L14.4219 13.8771C14.5989 17.9194 16.1696 13.8771 20.0059 13.8771C23.8423 13.8771 25.5152 18.3765 25.6921 14.3342L27.3234 9.72271C27.2462 7.92718 25.9508 7.80117 25.6921 7.80117H21.068C19.242 7.80117 17.519 6.90346 16.4882 5.38765C16.3114 5.13746 15.9433 5.18161 15.8255 5.46124L15.7077 5.74084C15.3837 6.55025 14.7652 7.16835 13.9993 7.52155C13.9773 7.52891 13.9516 7.53994 13.9257 7.55098C13.9 7.56203 13.8742 7.57305 13.8521 7.58042C13.5134 7.75702 12.7181 8.28681 12.6887 9.65545L12.7034 10.097L12.7181 10.4796Z" fill="url(#paint17_radial_0_3593)"/>
</g>
<path id="Vector_19" d="M20.0144 19.1796C11.3369 19.1796 4.28906 26.2441 4.28906 34.9743V39.9999H35.7255V34.9743C35.7255 26.2441 28.692 19.1796 20.0144 19.1796Z" fill="url(#paint18_radial_0_3593)"/>
<path id="Vector_20" d="M20.0144 19.1796C11.3369 19.1796 4.28906 26.2441 4.28906 34.9743V39.9999H35.7255V34.9743C35.7255 26.2441 28.692 19.1796 20.0144 19.1796Z" fill="url(#paint19_radial_0_3593)"/>
<path id="Vector_21" d="M20.0144 19.1796C11.3369 19.1796 4.28906 26.2441 4.28906 34.9743V39.9999H35.7255V34.9743C35.7255 26.2441 28.692 19.1796 20.0144 19.1796Z" fill="url(#paint20_radial_0_3593)"/>
<path id="Vector_22" d="M29.5488 39.9979V22.4159C33.3032 25.3009 35.7246 29.8499 35.7246 34.9724V39.9979H29.5488Z" fill="url(#paint21_radial_0_3593)"/>
<path id="Vector_23" d="M29.5488 39.9979V22.4159C33.3032 25.3009 35.7246 29.8499 35.7246 34.9724V39.9979H29.5488Z" fill="url(#paint22_linear_0_3593)"/>
<path id="Vector_24" d="M29.5488 39.9979V22.4159C33.3032 25.3009 35.7246 29.8499 35.7246 34.9724V39.9979H29.5488Z" fill="url(#paint23_linear_0_3593)"/>
<path id="Vector_25" d="M10.4219 39.9979V22.4159C6.66759 25.3009 4.24609 29.8499 4.24609 34.9724V39.9979H10.4219Z" fill="url(#paint24_linear_0_3593)"/>
<path id="Vector_26" d="M10.4219 39.9979V22.4159C6.66759 25.3009 4.24609 29.8499 4.24609 34.9724V39.9979H10.4219Z" fill="url(#paint25_radial_0_3593)"/>
<path id="Vector_27" d="M22.9439 18.0804H17.0684V40H22.9439V18.0804Z" fill="url(#paint26_radial_0_3593)"/>
<g id="Group_5">
<path id="Vector_28" d="M24.7306 19.8973L26.7337 24.1883C26.8624 24.4611 26.6622 24.777 26.362 24.777L24.9845 24.3959C24.3813 24.2444 24.3606 24.7932 24.5893 25.023L26.5336 27.2634C26.9052 27.6367 27.0482 28.1967 26.8624 28.6992L22.9453 39.9996V19.2915L24.7306 19.8973Z" fill="url(#paint27_linear_0_3593)"/>
<path id="Vector_29" d="M24.7306 19.8973L26.7337 24.1883C26.8624 24.4611 26.6622 24.777 26.362 24.777L24.9845 24.3959C24.3813 24.2444 24.3606 24.7932 24.5893 25.023L26.5336 27.2634C26.9052 27.6367 27.0482 28.1967 26.8624 28.6992L22.9453 39.9996V19.2915L24.7306 19.8973Z" fill="url(#paint28_radial_0_3593)"/>
<path id="Vector_30" d="M24.7306 19.8973L26.7337 24.1883C26.8624 24.4611 26.6622 24.777 26.362 24.777L24.9845 24.3959C24.3813 24.2444 24.3606 24.7932 24.5893 25.023L26.5336 27.2634C26.9052 27.6367 27.0482 28.1967 26.8624 28.6992L22.9453 39.9996V19.2915L24.7306 19.8973Z" fill="url(#paint29_radial_0_3593)"/>
<path id="Vector_31" d="M24.7306 19.8973L26.7337 24.1883C26.8624 24.4611 26.6622 24.777 26.362 24.777L24.9845 24.3959C24.3813 24.2444 24.3606 24.7932 24.5893 25.023L26.5336 27.2634C26.9052 27.6367 27.0482 28.1967 26.8624 28.6992L22.9453 39.9996V19.2915L24.7306 19.8973Z" fill="url(#paint30_radial_0_3593)"/>
</g>
<g id="Group_6">
<path id="Vector_32" d="M15.225 19.9191L13.2802 24.1877C13.1515 24.4605 13.3517 24.7764 13.6519 24.7764L15.0296 24.3952C15.6327 24.2438 15.6533 24.7926 15.4245 25.0224L13.4803 27.2628C13.1086 27.6361 12.9657 28.1961 13.1515 28.6987L17.0686 39.999V19.2915L15.225 19.9191Z" fill="url(#paint31_linear_0_3593)"/>
<path id="Vector_33" d="M15.225 19.9191L13.2802 24.1877C13.1515 24.4605 13.3517 24.7764 13.6519 24.7764L15.0296 24.3952C15.6327 24.2438 15.6533 24.7926 15.4245 25.0224L13.4803 27.2628C13.1086 27.6361 12.9657 28.1961 13.1515 28.6987L17.0686 39.999V19.2915L15.225 19.9191Z" fill="url(#paint32_radial_0_3593)"/>
<path id="Vector_34" d="M15.225 19.9191L13.2802 24.1877C13.1515 24.4605 13.3517 24.7764 13.6519 24.7764L15.0296 24.3952C15.6327 24.2438 15.6533 24.7926 15.4245 25.0224L13.4803 27.2628C13.1086 27.6361 12.9657 28.1961 13.1515 28.6987L17.0686 39.999V19.2915L15.225 19.9191Z" fill="url(#paint33_linear_0_3593)"/>
<path id="Vector_35" d="M15.225 19.9191L13.2802 24.1877C13.1515 24.4605 13.3517 24.7764 13.6519 24.7764L15.0296 24.3952C15.6327 24.2438 15.6533 24.7926 15.4245 25.0224L13.4803 27.2628C13.1086 27.6361 12.9657 28.1961 13.1515 28.6987L17.0686 39.999V19.2915L15.225 19.9191Z" fill="url(#paint34_radial_0_3593)"/>
</g>
<path id="Vector_36" d="M19.9859 23.0979C18.3562 23.0979 17.041 21.7769 17.041 20.14V16.4641C17.041 14.8272 18.3562 13.5062 19.9859 13.5062C21.6157 13.5062 22.9309 14.8272 22.9309 16.4641V20.14C22.9166 21.7769 21.6014 23.0979 19.9859 23.0979Z" fill="url(#paint35_radial_0_3593)"/>
<path id="Vector_37" d="M28.6542 30.103C29.4405 30.103 30.0838 30.7492 30.0838 31.5389V34.8271H27.2246V31.5389C27.2246 30.7492 27.8536 30.103 28.6542 30.103Z" fill="url(#paint36_radial_0_3593)"/>
<path id="Vector_38" d="M11.3593 30.0916C10.573 30.0916 9.92969 30.7378 9.92969 31.5275V34.8157H12.7888V31.5275C12.7888 30.7378 12.1598 30.0916 11.3593 30.0916Z" fill="url(#paint37_radial_0_3593)"/>
<path id="Vector_39" d="M11.8809 28.3408V40.0001H28.0923V26.8044C28.0923 26.1582 27.5776 25.6413 26.9343 25.6413H14.5828C13.0817 25.6269 11.8809 26.8474 11.8809 28.3408Z" fill="url(#paint38_linear_0_3593)"/>
<path id="Vector_40" fill-rule="evenodd" clip-rule="evenodd" d="M14.8743 39.9997V27.9294H11.8809V39.9997H14.8743Z" fill="#513358"/>
<path id="Vector_41" fill-rule="evenodd" clip-rule="evenodd" d="M14.8743 39.9997V27.9294H11.8809V39.9997H14.8743Z" fill="url(#paint39_linear_0_3593)"/>
<g id="Group_7">
<path id="Vector_42" d="M16.2097 33.3509C16.2224 33.749 16.0444 34.1029 15.7775 34.3092C16.0317 34.5009 16.2097 34.8401 16.2097 35.2233C16.2097 35.6067 16.0444 35.9458 15.7775 36.1374C16.0317 36.3291 16.2097 36.6682 16.2097 37.0515C16.2097 37.4349 16.0444 37.774 15.7775 37.9656C16.0444 38.172 16.2097 38.5258 16.2097 38.924C16.1969 39.5284 15.7521 40.0002 15.2308 40.0002H11.0357C10.4255 40.0002 9.92969 39.4253 9.92969 38.7175V33.5426C9.92969 32.8349 10.4255 32.2599 11.0357 32.2599H15.0986C15.7775 32.2599 16.1985 32.8207 16.2097 33.3509Z" fill="url(#paint40_linear_0_3593)"/>
</g>
<g id="Group_8">
<path id="Vector_43" d="M23.8034 33.3509C23.7907 33.749 23.9686 34.1029 24.2357 34.3092C23.9814 34.5009 23.8034 34.8401 23.8034 35.2233C23.8034 35.6067 23.9686 35.9458 24.2357 36.1374C23.9814 36.3291 23.8034 36.6682 23.8034 37.0515C23.8034 37.4349 23.9686 37.774 24.2357 37.9656C23.9686 38.172 23.8034 38.5258 23.8034 38.924C23.8161 39.5284 24.261 40.0002 24.7822 40.0002H28.9775C29.5876 40.0002 30.0834 39.4253 30.0834 38.7175V33.5426C30.0834 32.8349 29.5876 32.2599 28.9775 32.2599H24.9144C24.2357 32.2599 23.8145 32.8207 23.8034 33.3509Z" fill="url(#paint41_linear_0_3593)"/>
</g>
<path id="Vector_44" d="M28.0923 29.9266V26.6444C28.0923 26.0872 27.5776 25.6413 26.9343 25.6413H14.5828C14.5743 25.6412 14.5659 25.6412 14.5575 25.6412H14.5557C13.0674 25.6416 11.8809 26.6894 11.8809 27.9696C11.8809 29.0504 12.7532 29.9266 13.8292 29.9266H28.0923Z" fill="url(#paint42_linear_0_3593)"/>
<path id="Vector_45" d="M13.0703 27.7839C13.0703 27.2325 13.5153 26.7855 14.0643 26.7855H28.0905V28.7823H14.0643C13.5153 28.7823 13.0703 28.3353 13.0703 27.7839Z" fill="url(#paint43_linear_0_3593)"/>
<g id="Group_9">
<path id="Vector_46" d="M24.3301 34.3124H27.0774" stroke="url(#paint44_linear_0_3593)" stroke-width="0.61414" stroke-linecap="round"/>
</g>
<g id="Group_10">
<path id="Vector_47" d="M15.6225 34.3124H12.875" stroke="url(#paint45_linear_0_3593)" stroke-width="0.61414" stroke-linecap="round"/>
</g>
<g id="Group_11">
<path id="Vector_48" d="M24.3301 36.1294H27.0774" stroke="url(#paint46_linear_0_3593)" stroke-width="0.61414" stroke-linecap="round"/>
</g>
<g id="Group_12">
<path id="Vector_49" d="M15.6225 36.1294H12.875" stroke="url(#paint47_linear_0_3593)" stroke-width="0.61414" stroke-linecap="round"/>
</g>
<g id="Group_13">
<path id="Vector_50" d="M24.3301 37.9469H27.0774" stroke="url(#paint48_linear_0_3593)" stroke-width="0.61414" stroke-linecap="round"/>
</g>
<g id="Group_14">
<path id="Vector_51" d="M15.6225 37.9469H12.875" stroke="url(#paint49_linear_0_3593)" stroke-width="0.61414" stroke-linecap="round"/>
</g>
<g id="Group_15">
<path id="Vector_52" d="M13.2775 14.6232C14.5537 14.6232 15.5883 13.584 15.5883 12.3022C15.5883 11.0205 14.5537 9.98138 13.2775 9.98138C12.0014 9.98138 10.9668 11.0205 10.9668 12.3022C10.9668 13.584 12.0014 14.6232 13.2775 14.6232Z" fill="url(#paint50_linear_0_3593)"/>
</g>
<g id="Group_16">
<path id="Vector_53" d="M26.9395 14.6232C28.2157 14.6232 29.2503 13.584 29.2503 12.3022C29.2503 11.0205 28.2157 9.98138 26.9395 9.98138C25.6633 9.98138 24.6289 11.0205 24.6289 12.3022C24.6289 13.584 25.6633 14.6232 26.9395 14.6232Z" fill="url(#paint51_radial_0_3593)"/>
</g>
<g id="Group_17">
<path id="Vector_54" d="M26.939 13.8508C27.7909 13.8508 28.4815 13.1571 28.4815 12.3015C28.4815 11.4458 27.7909 10.7522 26.939 10.7522C26.0871 10.7522 25.3965 11.4458 25.3965 12.3015C25.3965 13.1571 26.0871 13.8508 26.939 13.8508Z" fill="#FFCA38"/>
<path id="Vector_55" d="M26.939 13.8508C27.7909 13.8508 28.4815 13.1571 28.4815 12.3015C28.4815 11.4458 27.7909 10.7522 26.939 10.7522C26.0871 10.7522 25.3965 11.4458 25.3965 12.3015C25.3965 13.1571 26.0871 13.8508 26.939 13.8508Z" fill="url(#paint52_radial_0_3593)"/>
</g>
<g id="Group_18">
<path id="Vector_56" d="M13.3062 13.8508C14.1581 13.8508 14.8486 13.1571 14.8486 12.3015C14.8486 11.4458 14.1581 10.7522 13.3062 10.7522C12.4543 10.7522 11.7637 11.4458 11.7637 12.3015C11.7637 13.1571 12.4543 13.8508 13.3062 13.8508Z" fill="#E28527"/>
<path id="Vector_57" d="M13.3062 13.8508C14.1581 13.8508 14.8486 13.1571 14.8486 12.3015C14.8486 11.4458 14.1581 10.7522 13.3062 10.7522C12.4543 10.7522 11.7637 11.4458 11.7637 12.3015C11.7637 13.1571 12.4543 13.8508 13.3062 13.8508Z" fill="url(#paint53_radial_0_3593)"/>
</g>
<g id="Group_19">
<path id="Vector_58" d="M12.7013 10.4821H12.7189L12.7042 10.0995L12.6895 9.65796C12.7189 8.28933 13.5142 7.75953 13.8528 7.58293C13.875 7.57556 13.9007 7.56454 13.9265 7.5535C13.9523 7.54245 13.9781 7.53143 14.0001 7.52406C14.7659 7.17086 15.3845 6.55277 15.7084 5.74335L15.8262 5.46375C15.944 5.18412 16.3121 5.13997 16.489 5.39016C17.5197 6.90597 19.2428 7.80368 21.0688 7.80368H25.6929C25.9515 7.80368 27.247 7.92971 27.3242 9.72522L27.1536 14.1577C26.9765 18.2 23.8337 20.9143 19.9975 20.9143C16.161 20.9143 13.0183 18.2 12.8413 14.1577L12.7013 10.4821Z" fill="url(#paint54_radial_0_3593)"/>
<path id="Vector_59" d="M12.7013 10.4821H12.7189L12.7042 10.0995L12.6895 9.65796C12.7189 8.28933 13.5142 7.75953 13.8528 7.58293C13.875 7.57556 13.9007 7.56454 13.9265 7.5535C13.9523 7.54245 13.9781 7.53143 14.0001 7.52406C14.7659 7.17086 15.3845 6.55277 15.7084 5.74335L15.8262 5.46375C15.944 5.18412 16.3121 5.13997 16.489 5.39016C17.5197 6.90597 19.2428 7.80368 21.0688 7.80368H25.6929C25.9515 7.80368 27.247 7.92971 27.3242 9.72522L27.1536 14.1577C26.9765 18.2 23.8337 20.9143 19.9975 20.9143C16.161 20.9143 13.0183 18.2 12.8413 14.1577L12.7013 10.4821Z" fill="url(#paint55_radial_0_3593)"/>
<path id="Vector_60" d="M12.7013 10.4821H12.7189L12.7042 10.0995L12.6895 9.65796C12.7189 8.28933 13.5142 7.75953 13.8528 7.58293C13.875 7.57556 13.9007 7.56454 13.9265 7.5535C13.9523 7.54245 13.9781 7.53143 14.0001 7.52406C14.7659 7.17086 15.3845 6.55277 15.7084 5.74335L15.8262 5.46375C15.944 5.18412 16.3121 5.13997 16.489 5.39016C17.5197 6.90597 19.2428 7.80368 21.0688 7.80368H25.6929C25.9515 7.80368 27.247 7.92971 27.3242 9.72522L27.1536 14.1577C26.9765 18.2 23.8337 20.9143 19.9975 20.9143C16.161 20.9143 13.0183 18.2 12.8413 14.1577L12.7013 10.4821Z" fill="url(#paint56_radial_0_3593)"/>
<path id="Vector_61" d="M12.7013 10.4821H12.7189L12.7042 10.0995L12.6895 9.65796C12.7189 8.28933 13.5142 7.75953 13.8528 7.58293C13.875 7.57556 13.9007 7.56454 13.9265 7.5535C13.9523 7.54245 13.9781 7.53143 14.0001 7.52406C14.7659 7.17086 15.3845 6.55277 15.7084 5.74335L15.8262 5.46375C15.944 5.18412 16.3121 5.13997 16.489 5.39016C17.5197 6.90597 19.2428 7.80368 21.0688 7.80368H25.6929C25.9515 7.80368 27.247 7.92971 27.3242 9.72522L27.1536 14.1577C26.9765 18.2 23.8337 20.9143 19.9975 20.9143C16.161 20.9143 13.0183 18.2 12.8413 14.1577L12.7013 10.4821Z" fill="url(#paint57_radial_0_3593)"/>
<path id="Vector_62" d="M12.7013 10.4821H12.7189L12.7042 10.0995L12.6895 9.65796C12.7189 8.28933 13.5142 7.75953 13.8528 7.58293C13.875 7.57556 13.9007 7.56454 13.9265 7.5535C13.9523 7.54245 13.9781 7.53143 14.0001 7.52406C14.7659 7.17086 15.3845 6.55277 15.7084 5.74335L15.8262 5.46375C15.944 5.18412 16.3121 5.13997 16.489 5.39016C17.5197 6.90597 19.2428 7.80368 21.0688 7.80368H25.6929C25.9515 7.80368 27.247 7.92971 27.3242 9.72522L27.1536 14.1577C26.9765 18.2 23.8337 20.9143 19.9975 20.9143C16.161 20.9143 13.0183 18.2 12.8413 14.1577L12.7013 10.4821Z" fill="url(#paint58_radial_0_3593)"/>
<path id="Vector_63" d="M12.7013 10.4821H12.7189L12.7042 10.0995L12.6895 9.65796C12.7189 8.28933 13.5142 7.75953 13.8528 7.58293C13.875 7.57556 13.9007 7.56454 13.9265 7.5535C13.9523 7.54245 13.9781 7.53143 14.0001 7.52406C14.7659 7.17086 15.3845 6.55277 15.7084 5.74335L15.8262 5.46375C15.944 5.18412 16.3121 5.13997 16.489 5.39016C17.5197 6.90597 19.2428 7.80368 21.0688 7.80368H25.6929C25.9515 7.80368 27.247 7.92971 27.3242 9.72522L27.1536 14.1577C26.9765 18.2 23.8337 20.9143 19.9975 20.9143C16.161 20.9143 13.0183 18.2 12.8413 14.1577L12.7013 10.4821Z" fill="url(#paint59_radial_0_3593)"/>
<path id="Vector_64" d="M12.7013 10.4821H12.7189L12.7042 10.0995L12.6895 9.65796C12.7189 8.28933 13.5142 7.75953 13.8528 7.58293C13.875 7.57556 13.9007 7.56454 13.9265 7.5535C13.9523 7.54245 13.9781 7.53143 14.0001 7.52406C14.7659 7.17086 15.3845 6.55277 15.7084 5.74335L15.8262 5.46375C15.944 5.18412 16.3121 5.13997 16.489 5.39016C17.5197 6.90597 19.2428 7.80368 21.0688 7.80368H25.6929C25.9515 7.80368 27.247 7.92971 27.3242 9.72522L27.1536 14.1577C26.9765 18.2 23.8337 20.9143 19.9975 20.9143C16.161 20.9143 13.0183 18.2 12.8413 14.1577L12.7013 10.4821Z" fill="url(#paint60_radial_0_3593)"/>
</g>
<path id="Vector_65" d="M12.7013 10.4808H12.7189L12.7042 10.0981L12.6895 9.65662C12.7189 8.28798 13.5142 7.75819 13.8528 7.58159C13.875 7.57422 13.9007 7.56319 13.9265 7.55215C13.9523 7.54111 13.9781 7.53008 14.0001 7.52272C14.7659 7.16952 15.3845 6.55143 15.7084 5.74201L15.8262 5.4624C15.944 5.18278 16.3121 5.13863 16.489 5.38881C17.5197 6.90463 19.2428 7.80234 21.0688 7.80234H25.6929C25.9515 7.80234 27.247 7.92837 27.3242 9.72388L27.1536 14.1563C26.9765 18.1986 23.8337 20.913 19.9975 20.913C16.161 20.913 13.0183 18.1986 12.8413 14.1563L12.7013 10.4808Z" fill="url(#paint61_radial_0_3593)"/>
<g id="Group_20">
<path id="Vector_66" d="M19.4431 11.978L18.4614 14.4301C18.3057 14.9343 18.6796 15.4388 19.2091 15.4388H20.3384C20.868 15.4388 21.2418 14.9266 21.086 14.4301L20.3229 11.978C20.1593 11.4348 19.6145 11.4348 19.4431 11.978Z" fill="#EB8B29"/>
</g>
<g id="Group_21">
<path id="Vector_67" d="M19.4571 11.7797L18.6938 14.2317C18.5381 14.7362 18.912 15.2406 19.4415 15.2406H20.5707C21.1004 15.2406 21.4742 14.7284 21.3184 14.2317L20.5551 11.7797C20.3916 11.2365 19.6285 11.2365 19.4571 11.7797Z" fill="url(#paint62_linear_0_3593)"/>
<path id="Vector_68" d="M19.4571 11.7797L18.6938 14.2317C18.5381 14.7362 18.912 15.2406 19.4415 15.2406H20.5707C21.1004 15.2406 21.4742 14.7284 21.3184 14.2317L20.5551 11.7797C20.3916 11.2365 19.6285 11.2365 19.4571 11.7797Z" fill="url(#paint63_radial_0_3593)"/>
<path id="Vector_69" d="M19.4571 11.7797L18.6938 14.2317C18.5381 14.7362 18.912 15.2406 19.4415 15.2406H20.5707C21.1004 15.2406 21.4742 14.7284 21.3184 14.2317L20.5551 11.7797C20.3916 11.2365 19.6285 11.2365 19.4571 11.7797Z" fill="url(#paint64_linear_0_3593)"/>
<path id="Vector_70" d="M19.4571 11.7797L18.6938 14.2317C18.5381 14.7362 18.912 15.2406 19.4415 15.2406H20.5707C21.1004 15.2406 21.4742 14.7284 21.3184 14.2317L20.5551 11.7797C20.3916 11.2365 19.6285 11.2365 19.4571 11.7797Z" fill="url(#paint65_linear_0_3593)"/>
</g>
<path id="Vector_71" d="M19.4571 11.7792L18.6938 14.2313C18.5381 14.7357 18.912 15.2401 19.4415 15.2401H20.5707C21.1004 15.2401 21.4742 14.728 21.3184 14.2313L20.5551 11.7792C20.3916 11.2361 19.6285 11.2361 19.4571 11.7792Z" fill="url(#paint66_linear_0_3593)"/>
<path id="Vector_72" d="M19.4571 11.7792L18.6938 14.2313C18.5381 14.7357 18.912 15.2401 19.4415 15.2401H20.5707C21.1004 15.2401 21.4742 14.728 21.3184 14.2313L20.5551 11.7792C20.3916 11.2361 19.6285 11.2361 19.4571 11.7792Z" fill="url(#paint67_radial_0_3593)"/>
<path id="Vector_73" d="M17.9991 15.9395C17.8656 15.8698 17.7262 15.9131 17.644 16.0019C17.5616 16.091 17.5297 16.2328 17.6142 16.3588C18.1203 17.1463 19.0022 17.6717 20.0071 17.6717C21.0121 17.6717 21.8941 17.1461 22.4002 16.3582C22.4835 16.2295 22.4534 16.088 22.3697 15.9988C22.2868 15.9103 22.148 15.87 22.0155 15.9391C21.4354 16.2498 20.7509 16.4283 20.0071 16.4283C19.2705 16.4283 18.5792 16.2501 17.9991 15.9395Z" fill="#8A004F" stroke="url(#paint68_linear_0_3593)" stroke-width="0.61414"/>
<g id="Group_22">
<path id="Vector_74" d="M21.6465 11.4806C22.0276 10.8073 22.607 10.2755 23.8542 10.2755C24.4003 10.2755 24.9268 10.4274 25.3948 10.8073C25.7808 11.1206 25.7292 11.5215 25.4302 11.6717L24.6317 12.1295C23.6956 11.8256 22.6605 11.7844 21.6465 11.4806Z" fill="#635D5F"/>
</g>
<g id="Group_23">
<path id="Vector_75" d="M18.3667 11.4806C17.9856 10.8073 17.4062 10.2755 16.159 10.2755C15.6129 10.2755 15.0864 10.4274 14.6184 10.8073C14.2324 11.1206 14.284 11.5215 14.5829 11.6717L15.3815 12.1295C16.3176 11.8256 17.3526 11.7844 18.3667 11.4806Z" fill="#635D5F"/>
</g>
<g id="Group_24">
<path id="Vector_76" d="M15.1268 9.62383L15.1203 9.62747C15.1202 9.62759 15.1206 9.62736 15.1203 9.62747C14.9381 9.73673 14.7013 9.67771 14.592 9.4948C14.4826 9.31161 14.5419 9.07387 14.7243 8.96395L14.7266 8.96258L14.7309 8.96006L14.7443 8.95221C14.7556 8.94576 14.7712 8.93696 14.7909 8.92622C14.8304 8.90472 14.8866 8.87536 14.9575 8.84143C15.099 8.77369 15.3007 8.68693 15.5465 8.60814C16.0345 8.45169 16.7172 8.32006 17.454 8.45066C17.6634 8.48779 17.8032 8.68844 17.7663 8.89882C17.7293 9.10921 17.5296 9.24965 17.3202 9.21253C16.7475 9.11103 16.1977 9.2115 15.7806 9.34517C15.5739 9.41143 15.405 9.48425 15.2889 9.5398C15.2311 9.56751 15.1868 9.59073 15.1579 9.60641C15.1435 9.61425 15.133 9.62018 15.1268 9.62383Z" fill="#BD4F26"/>
</g>
<g id="Group_25">
<path id="Vector_77" fill-rule="evenodd" clip-rule="evenodd" d="M25.3663 8.96395C25.3664 8.96401 25.3665 8.96408 25.1684 9.29577L25.3663 8.96395C25.5487 9.07387 25.608 9.31161 25.4986 9.4948C25.3893 9.67773 25.1533 9.73722 24.971 9.62792C24.9708 9.62785 24.9713 9.62812 24.971 9.62792L24.964 9.62383C24.9575 9.62018 24.9471 9.61425 24.9327 9.60641C24.9039 9.59073 24.8596 9.56751 24.8017 9.5398C24.6856 9.48425 24.5167 9.41143 24.3099 9.34517C23.8929 9.2115 23.3431 9.11103 22.7706 9.21253C22.561 9.24965 22.3613 9.10921 22.3243 8.89882C22.2874 8.68844 22.4272 8.48779 22.6366 8.45066C23.3734 8.32006 24.0561 8.45169 24.5441 8.60814C24.7899 8.68693 24.9916 8.77369 25.1331 8.84143C25.204 8.87536 25.2602 8.90472 25.2996 8.92622C25.3194 8.93696 25.335 8.94576 25.3462 8.95221L25.3597 8.96006L25.364 8.96258L25.3663 8.96395Z" fill="#BD4F26"/>
</g>
<path id="Vector_78" d="M23.4401 10.3595C24.378 10.3595 25.1703 11.009 25.3859 11.8866C25.4499 12.1383 25.2577 12.3781 25.0013 12.3781H21.7974C21.5935 12.3781 21.4304 12.1908 21.4711 11.9861C21.6517 11.0616 22.4614 10.3595 23.4401 10.3595Z" fill="white"/>
<path id="Vector_79" d="M23.1429 10.7522C23.8536 10.7522 24.4246 11.3314 24.4246 12.0394C24.4246 12.1565 24.4071 12.2735 24.378 12.3789H21.9021C21.8729 12.2676 21.8555 12.1565 21.8555 12.0394C21.8555 11.3314 22.4322 10.7522 23.1429 10.7522Z" fill="url(#paint69_radial_0_3593)"/>
<path id="Vector_80" d="M22.4082 12.0392C22.4082 11.6297 22.7344 11.302 23.1423 11.302C23.55 11.302 23.8762 11.6297 23.8762 12.0392C23.8762 12.1621 23.8471 12.2791 23.7946 12.3786H22.4956C22.4374 12.2791 22.4082 12.1621 22.4082 12.0392Z" fill="black"/>
<g id="Group_26">
<path id="Vector_81" d="M23.0484 11.0263C23.1395 11.1488 22.9489 11.298 22.7323 11.4607C22.5157 11.6234 22.3551 11.7379 22.2638 11.6154C22.1728 11.493 22.2744 11.2618 22.4912 11.0992C22.7077 10.9365 22.9572 10.9039 23.0484 11.0263Z" fill="#C7A7A3"/>
<path id="Vector_82" d="M23.0484 11.0263C23.1395 11.1488 22.9489 11.298 22.7323 11.4607C22.5157 11.6234 22.3551 11.7379 22.2638 11.6154C22.1728 11.493 22.2744 11.2618 22.4912 11.0992C22.7077 10.9365 22.9572 10.9039 23.0484 11.0263Z" fill="url(#paint70_radial_0_3593)"/>
</g>
<g id="Group_27">
<path id="Vector_83" d="M24.2843 11.8669C24.237 11.5347 24.0434 11.2843 23.9526 11.2007L23.5801 11.6113L23.7482 11.9398L24.2843 11.8669Z" fill="url(#paint71_linear_0_3593)"/>
</g>
<path id="Vector_84" d="M16.5734 10.3595C15.6355 10.3595 14.8432 11.009 14.6276 11.8866C14.5636 12.1383 14.7559 12.3781 15.0122 12.3781H18.2162C18.4202 12.3781 18.5833 12.1908 18.5424 11.9861C18.3618 11.0616 17.5463 10.3595 16.5734 10.3595Z" fill="white"/>
<path id="Vector_85" d="M16.8695 10.7522C16.1589 10.7522 15.5879 11.3314 15.5879 12.0394C15.5879 12.1565 15.6053 12.2735 15.6345 12.3789H18.1104C18.1395 12.2676 18.157 12.1565 18.157 12.0394C18.1511 11.3314 17.5803 10.7522 16.8695 10.7522Z" fill="url(#paint72_radial_0_3593)"/>
<path id="Vector_86" d="M17.6048 12.0392C17.6048 11.6297 17.2785 11.302 16.8707 11.302C16.4629 11.302 16.1367 11.6297 16.1367 12.0392C16.1367 12.1621 16.1657 12.2791 16.2182 12.3786H17.5173C17.5697 12.2791 17.6048 12.1621 17.6048 12.0392Z" fill="black"/>
<g id="Group_28">
<path id="Vector_87" d="M18.0397 11.8868C18.0397 11.4717 17.7034 11.1948 17.6127 11.1111L17.1992 11.5127L17.4537 12.0328L18.0397 11.8868Z" fill="url(#paint73_linear_0_3593)"/>
</g>
<g id="Group_29">
<path id="Vector_88" d="M16.6155 11.5523C16.8881 11.4073 17.0498 11.1774 16.9767 11.0389C16.9036 10.9004 16.6235 10.9056 16.3509 11.0506C16.0784 11.1957 15.9167 11.4255 15.9897 11.5641C16.0628 11.7026 16.343 11.6974 16.6155 11.5523Z" fill="#C7A7A3" fill-opacity="0.9"/>
<path id="Vector_89" d="M16.6155 11.5523C16.8881 11.4073 17.0498 11.1774 16.9767 11.0389C16.9036 10.9004 16.6235 10.9056 16.3509 11.0506C16.0784 11.1957 15.9167 11.4255 15.9897 11.5641C16.0628 11.7026 16.343 11.6974 16.6155 11.5523Z" fill="url(#paint74_radial_0_3593)"/>
</g>
<g id="Group_30">
<path id="Vector_90" d="M22.793 8.76511C23.2562 8.65193 24.408 8.70852 25.1779 9.2618" stroke="#C9725D" stroke-width="1.22828" stroke-linecap="round"/>
</g>
<g id="Group_31">
<path id="Vector_91" d="M17.3479 8.76511C16.8847 8.65193 15.7329 8.70852 14.9629 9.2618" stroke="#C9725D" stroke-width="1.22828" stroke-linecap="round"/>
</g>
<g id="Group_32">
<path id="Vector_92" d="M12.9783 3.62761C13.8701 2.8298 15.1565 2.82174 15.8786 2.95067L16.4563 4.81224C16.0873 4.75583 15.7583 4.88477 15.4815 5.15071C14.8269 6.96876 12.577 7.97126 11.534 8.24526C11.3174 6.09358 11.4378 5.00566 12.9783 3.62761Z" fill="url(#paint75_radial_0_3593)"/>
<path id="Vector_93" d="M12.9783 3.62761C13.8701 2.8298 15.1565 2.82174 15.8786 2.95067L16.4563 4.81224C16.0873 4.75583 15.7583 4.88477 15.4815 5.15071C14.8269 6.96876 12.577 7.97126 11.534 8.24526C11.3174 6.09358 11.4378 5.00566 12.9783 3.62761Z" fill="url(#paint76_radial_0_3593)"/>
</g>
<g id="Group_33">
<path id="Vector_94" d="M19.1399 1.06481C17.5133 0.704121 15.7701 2.44287 15.6016 3.04727C17.816 8.26932 21.2164 7.77165 24.9889 7.35063C27.2472 7.09859 27.4922 8.13232 27.6848 8.63197C27.0589 2.78133 22.8467 1.88681 19.1399 1.06481Z" fill="url(#paint77_radial_0_3593)"/>
<path id="Vector_95" d="M19.1399 1.06481C17.5133 0.704121 15.7701 2.44287 15.6016 3.04727C17.816 8.26932 21.2164 7.77165 24.9889 7.35063C27.2472 7.09859 27.4922 8.13232 27.6848 8.63197C27.0589 2.78133 22.8467 1.88681 19.1399 1.06481Z" fill="url(#paint78_radial_0_3593)"/>
<path id="Vector_96" d="M19.1399 1.06481C17.5133 0.704121 15.7701 2.44287 15.6016 3.04727C17.816 8.26932 21.2164 7.77165 24.9889 7.35063C27.2472 7.09859 27.4922 8.13232 27.6848 8.63197C27.0589 2.78133 22.8467 1.88681 19.1399 1.06481Z" fill="url(#paint79_radial_0_3593)"/>
</g>
<g id="Group_34">
<path id="Vector_97" d="M15.8535 2.86591C15.887 3.21646 16.1906 4.53407 16.6359 5.33188" stroke="url(#paint80_linear_0_3593)" stroke-width="0.61414" stroke-linecap="round"/>
</g>
<g id="Group_35">
<path id="Vector_98" d="M26.9192 9.37494H21.9586C21.5297 9.37494 21.1294 9.57596 20.8578 9.90621C20.6863 10.1216 20.429 10.2508 20.1287 10.2508C19.8285 10.2508 19.5712 10.1216 19.3997 9.90621C19.128 9.57596 18.7278 9.37494 18.2989 9.37494H13.3239C13.0523 9.37494 12.8379 9.59032 12.8379 9.86314V10.179C12.8379 10.337 12.9094 10.4662 13.0237 10.5524C13.0809 10.5954 13.1238 10.6672 13.1238 10.739V12.3184C13.1238 13.8261 14.3389 15.061 15.8543 15.061H16.8693C18.3704 15.061 19.5998 13.8405 19.5998 12.3184V11.4426C19.6141 11.1554 19.8428 10.94 20.1287 10.94C20.4147 10.94 20.6434 11.1698 20.6577 11.4569V12.3184C20.6577 13.8261 21.8728 15.061 23.3882 15.061H24.4032C25.9042 15.061 27.1337 13.8405 27.1337 12.3184V10.7247C27.1337 10.6529 27.1623 10.5811 27.2195 10.538C27.3338 10.4518 27.4053 10.3083 27.4053 10.1647V9.86314C27.4053 9.59032 27.1909 9.37494 26.9192 9.37494ZM19.1137 12.1749C19.1137 13.4815 18.0559 14.5441 16.7549 14.5441H15.9687C14.6678 14.5441 13.6099 13.4815 13.6099 12.1749V11.1411C13.6099 10.4375 14.1674 9.8775 14.8679 9.8775H17.8414C18.5419 9.8775 19.1137 10.4375 19.1137 11.1411V12.1749ZM26.6619 12.1749C26.6619 13.4815 25.604 14.5441 24.3031 14.5441H23.5168C22.2159 14.5441 21.158 13.4815 21.158 12.1749V11.1411C21.158 10.4375 21.7156 9.8775 22.4161 9.8775H25.4039C26.1044 9.8775 26.6619 10.4375 26.6619 11.1411V12.1749Z" fill="url(#paint81_linear_0_3593)"/>
<path id="Vector_99" d="M26.9192 9.37494H21.9586C21.5297 9.37494 21.1294 9.57596 20.8578 9.90621C20.6863 10.1216 20.429 10.2508 20.1287 10.2508C19.8285 10.2508 19.5712 10.1216 19.3997 9.90621C19.128 9.57596 18.7278 9.37494 18.2989 9.37494H13.3239C13.0523 9.37494 12.8379 9.59032 12.8379 9.86314V10.179C12.8379 10.337 12.9094 10.4662 13.0237 10.5524C13.0809 10.5954 13.1238 10.6672 13.1238 10.739V12.3184C13.1238 13.8261 14.3389 15.061 15.8543 15.061H16.8693C18.3704 15.061 19.5998 13.8405 19.5998 12.3184V11.4426C19.6141 11.1554 19.8428 10.94 20.1287 10.94C20.4147 10.94 20.6434 11.1698 20.6577 11.4569V12.3184C20.6577 13.8261 21.8728 15.061 23.3882 15.061H24.4032C25.9042 15.061 27.1337 13.8405 27.1337 12.3184V10.7247C27.1337 10.6529 27.1623 10.5811 27.2195 10.538C27.3338 10.4518 27.4053 10.3083 27.4053 10.1647V9.86314C27.4053 9.59032 27.1909 9.37494 26.9192 9.37494ZM19.1137 12.1749C19.1137 13.4815 18.0559 14.5441 16.7549 14.5441H15.9687C14.6678 14.5441 13.6099 13.4815 13.6099 12.1749V11.1411C13.6099 10.4375 14.1674 9.8775 14.8679 9.8775H17.8414C18.5419 9.8775 19.1137 10.4375 19.1137 11.1411V12.1749ZM26.6619 12.1749C26.6619 13.4815 25.604 14.5441 24.3031 14.5441H23.5168C22.2159 14.5441 21.158 13.4815 21.158 12.1749V11.1411C21.158 10.4375 21.7156 9.8775 22.4161 9.8775H25.4039C26.1044 9.8775 26.6619 10.4375 26.6619 11.1411V12.1749Z" fill="url(#paint82_radial_0_3593)"/>
</g>
</g>
<defs>
<linearGradient id="paint0_linear_0_3593" x1="14.0303" y1="3.54096" x2="41.9396" y2="29.6024" gradientUnits="userSpaceOnUse">
<stop stop-color="#EFBE85"/>
<stop offset="0.567876" stop-color="#E8AC81"/>
<stop offset="1" stop-color="#D6753D"/>
</linearGradient>
<linearGradient id="paint1_linear_0_3593" x1="40.1117" y1="16.0163" x2="10.1799" y2="16.0163" gradientUnits="userSpaceOnUse">
<stop stop-color="#509245"/>
<stop offset="1" stop-color="#44803D"/>
</linearGradient>
<radialGradient id="paint2_radial_0_3593" cx="0" cy="0" r="1" gradientUnits="userSpaceOnUse" gradientTransform="translate(6.33787 33.875) rotate(-56.861) scale(26.1506 35.7272)">
<stop stop-color="#25585F"/>
<stop offset="1" stop-color="#25585F" stop-opacity="0"/>
</radialGradient>
<radialGradient id="paint3_radial_0_3593" cx="0" cy="0" r="1" gradientUnits="userSpaceOnUse" gradientTransform="translate(39.3969 33.5161) rotate(-125.298) scale(24.7403 24.4363)">
<stop stop-color="#358175"/>
<stop offset="1" stop-color="#358175" stop-opacity="0"/>
</radialGradient>
<linearGradient id="paint4_linear_0_3593" x1="16.3448" y1="2.01925" x2="41.9385" y2="31.7923" gradientUnits="userSpaceOnUse">
<stop stop-color="#FFD59C"/>
<stop offset="1" stop-color="#F69C5B"/>
</linearGradient>
<linearGradient id="paint5_linear_0_3593" x1="-9.87902" y1="33.7402" x2="38.4585" y2="33.7402" gradientUnits="userSpaceOnUse">
<stop stop-color="#D18F7B"/>
<stop offset="1" stop-color="#F1B58B"/>
</linearGradient>
<linearGradient id="paint6_linear_0_3593" x1="1.55761" y1="4.3944" x2="1.55761" y2="30.8684" gradientUnits="userSpaceOnUse">
<stop stop-color="#D78248"/>
<stop offset="1" stop-color="#D78248" stop-opacity="0"/>
</linearGradient>
<radialGradient id="paint7_radial_0_3593" cx="0" cy="0" r="1" gradientUnits="userSpaceOnUse" gradientTransform="translate(0 3.12634) rotate(90) scale(13.37 0.882972)">
<stop offset="0.355159" stop-color="#BC7B53"/>
<stop offset="1" stop-color="#BC7B53" stop-opacity="0"/>
</radialGradient>
<linearGradient id="paint8_linear_0_3593" x1="26.7457" y1="2.27258" x2="16.2758" y2="21.6235" gradientUnits="userSpaceOnUse">
<stop stop-color="#FFD93C"/>
<stop offset="1" stop-color="#E37923"/>
</linearGradient>
<radialGradient id="paint9_radial_0_3593" cx="0" cy="0" r="1" gradientUnits="userSpaceOnUse" gradientTransform="translate(25.496 17.0589) rotate(25.4288) scale(3.67877 5.22532)">
<stop offset="0.191463" stop-color="#E38923"/>
<stop offset="1" stop-color="#E38923" stop-opacity="0"/>
</radialGradient>
<radialGradient id="paint10_radial_0_3593" cx="0" cy="0" r="1" gradientUnits="userSpaceOnUse" gradientTransform="translate(13.4418 15.2339) rotate(90) scale(6.4279 3.8556)">
<stop stop-color="#C9641B"/>
<stop offset="1" stop-color="#D77117" stop-opacity="0"/>
</radialGradient>
<radialGradient id="paint11_radial_0_3593" cx="0" cy="0" r="1" gradientUnits="userSpaceOnUse" gradientTransform="translate(20.006 15.3674) rotate(90) scale(8.03548 8.33369)">
<stop offset="0.617268" stop-color="#E26B25"/>
<stop offset="1" stop-color="#E26B25" stop-opacity="0"/>
</radialGradient>
<radialGradient id="paint12_radial_0_3593" cx="0" cy="0" r="1" gradientUnits="userSpaceOnUse" gradientTransform="translate(12.9542 12.7635) rotate(127.495) scale(2.92721 2.83896)">
<stop offset="0.161391" stop-color="#C9681C"/>
<stop offset="1" stop-color="#C9681C" stop-opacity="0"/>
</radialGradient>
<radialGradient id="paint13_radial_0_3593" cx="0" cy="0" r="1" gradientUnits="userSpaceOnUse" gradientTransform="translate(13.8031 9.24898) rotate(100.492) scale(3.68747 3.82408)">
<stop offset="0.365444" stop-color="#D76A18"/>
<stop offset="1" stop-color="#D76A18" stop-opacity="0"/>
</radialGradient>
<radialGradient id="paint14_radial_0_3593" cx="0" cy="0" r="1" gradientUnits="userSpaceOnUse" gradientTransform="translate(15.2145 1.96921) rotate(62.7074) scale(3.43108 6.51952)">
<stop offset="0.221806" stop-color="#CBA140"/>
<stop offset="0.921111" stop-color="#CBA140" stop-opacity="0"/>
</radialGradient>
<radialGradient id="paint15_radial_0_3593" cx="0" cy="0" r="1" gradientUnits="userSpaceOnUse" gradientTransform="translate(27.9011 4.01327) rotate(132.385) scale(2.35663 3.29207)">
<stop stop-color="#FFDF3C"/>
<stop offset="1" stop-color="#FFDF3C" stop-opacity="0"/>
</radialGradient>
<radialGradient id="paint16_radial_0_3593" cx="0" cy="0" r="1" gradientUnits="userSpaceOnUse" gradientTransform="translate(30.7895 11.0727) rotate(163.711) scale(2.75831 6.02401)">
<stop stop-color="#FFD537"/>
<stop offset="1" stop-color="#FFD537" stop-opacity="0"/>
</radialGradient>
<radialGradient id="paint17_radial_0_3593" cx="0" cy="0" r="1" gradientUnits="userSpaceOnUse" gradientTransform="translate(16.1217 5.56735) rotate(-90.35) scale(1.98239 0.64711)">
<stop offset="0.295258" stop-color="#DB6009"/>
<stop offset="1" stop-color="#DB6009" stop-opacity="0"/>
</radialGradient>
<radialGradient id="paint18_radial_0_3593" cx="0" cy="0" r="1" gradientUnits="userSpaceOnUse" gradientTransform="translate(20.0083 19.8302) rotate(90) scale(20.1696 8.89005)">
<stop stop-color="#61342D"/>
<stop offset="1" stop-color="#764747"/>
</radialGradient>
<radialGradient id="paint19_radial_0_3593" cx="0" cy="0" r="1" gradientUnits="userSpaceOnUse" gradientTransform="translate(29.524 26.3366) rotate(90) scale(12.0255 4.19939)">
<stop stop-color="#9A6D66"/>
<stop offset="1" stop-color="#9A6D66" stop-opacity="0"/>
</radialGradient>
<radialGradient id="paint20_radial_0_3593" cx="0" cy="0" r="1" gradientUnits="userSpaceOnUse" gradientTransform="translate(15.3176 24.3173) rotate(134.874) scale(3.1026 2.50105)">
<stop stop-color="#61332B"/>
<stop offset="1" stop-color="#61332B" stop-opacity="0"/>
</radialGradient>
<radialGradient id="paint21_radial_0_3593" cx="0" cy="0" r="1" gradientUnits="userSpaceOnUse" gradientTransform="translate(35.7246 37.4628) rotate(-90) scale(14.628 5.50539)">
<stop stop-color="#7C5A5A"/>
<stop offset="1" stop-color="#735451"/>
</radialGradient>
<linearGradient id="paint22_linear_0_3593" x1="33.1219" y1="40.6498" x2="33.1219" y2="35.1694" gradientUnits="userSpaceOnUse">
<stop stop-color="#614451"/>
<stop offset="1" stop-color="#614451" stop-opacity="0"/>
</linearGradient>
<linearGradient id="paint23_linear_0_3593" x1="29.1658" y1="38.9434" x2="30.3274" y2="38.9212" gradientUnits="userSpaceOnUse">
<stop offset="0.253974" stop-color="#4F2737"/>
<stop offset="1" stop-color="#4F2737" stop-opacity="0"/>
</linearGradient>
<linearGradient id="paint24_linear_0_3593" x1="7.334" y1="37.3374" x2="10.7572" y2="37.3374" gradientUnits="userSpaceOnUse">
<stop stop-color="#623D44"/>
<stop offset="1" stop-color="#4F2E37"/>
</linearGradient>
<radialGradient id="paint25_radial_0_3593" cx="0" cy="0" r="1" gradientUnits="userSpaceOnUse" gradientTransform="translate(13.5153 39.6862) rotate(180) scale(9.89366 24.813)">
<stop offset="0.575758" stop-color="#5D3841" stop-opacity="0"/>
<stop offset="1" stop-color="#7F6260"/>
</radialGradient>
<radialGradient id="paint26_radial_0_3593" cx="0" cy="0" r="1" gradientUnits="userSpaceOnUse" gradientTransform="translate(18.8459 23.8627) scale(5.13755 19.6193)">
<stop stop-color="#BFAABA"/>
<stop offset="1" stop-color="#7A5D72"/>
</radialGradient>
<linearGradient id="paint27_linear_0_3593" x1="22.9453" y1="23.3065" x2="26.9436" y2="23.3065" gradientUnits="userSpaceOnUse">
<stop stop-color="#613327"/>
<stop offset="0.371011" stop-color="#764440"/>
</linearGradient>
<radialGradient id="paint28_radial_0_3593" cx="0" cy="0" r="1" gradientUnits="userSpaceOnUse" gradientTransform="translate(27.4868 24.8423) rotate(-115.124) scale(5.36658 3.23705)">
<stop stop-color="#90645E"/>
<stop offset="1" stop-color="#90645E" stop-opacity="0"/>
</radialGradient>
<radialGradient id="paint29_radial_0_3593" cx="0" cy="0" r="1" gradientUnits="userSpaceOnUse" gradientTransform="translate(25.2581 26.2914) rotate(-125.164) scale(2.34648 0.426723)">
<stop stop-color="#8A5D57"/>
<stop offset="1" stop-color="#8A5D57" stop-opacity="0"/>
</radialGradient>
<radialGradient id="paint30_radial_0_3593" cx="0" cy="0" r="1" gradientUnits="userSpaceOnUse" gradientTransform="translate(22.1841 19.5607) rotate(66.7576) scale(1.92895 3.59977)">
<stop offset="0.358549" stop-color="#481E13"/>
<stop offset="1" stop-color="#4A1D14" stop-opacity="0"/>
</radialGradient>
<linearGradient id="paint31_linear_0_3593" x1="17.0686" y1="23.3059" x2="13.0703" y2="23.3059" gradientUnits="userSpaceOnUse">
<stop stop-color="#744036"/>
<stop offset="0.639259" stop-color="#72433E"/>
</linearGradient>
<radialGradient id="paint32_radial_0_3593" cx="0" cy="0" r="1" gradientUnits="userSpaceOnUse" gradientTransform="translate(16.456 26.1563) rotate(-88.8592) scale(4.48802 1.80495)">
<stop stop-color="#875955"/>
<stop offset="1" stop-color="#875955" stop-opacity="0"/>
</radialGradient>
<linearGradient id="paint33_linear_0_3593" x1="14.4457" y1="21.2429" x2="15.2508" y2="21.5545" gradientUnits="userSpaceOnUse">
<stop stop-color="#6F5048"/>
<stop offset="1" stop-color="#6F5048" stop-opacity="0"/>
</linearGradient>
<radialGradient id="paint34_radial_0_3593" cx="0" cy="0" r="1" gradientUnits="userSpaceOnUse" gradientTransform="translate(17.4028 19.8294) rotate(122.669) scale(1.57248 2.93801)">
<stop offset="0.219333" stop-color="#481E13"/>
<stop offset="1" stop-color="#4A1D14" stop-opacity="0"/>
</radialGradient>
<radialGradient id="paint35_radial_0_3593" cx="0" cy="0" r="1" gradientUnits="userSpaceOnUse" gradientTransform="translate(20.5472 19.8699) rotate(90) scale(4.93583 3.50611)">
<stop offset="0.173699" stop-color="#DD9C2B"/>
<stop offset="0.637336" stop-color="#C07518"/>
<stop offset="1" stop-color="#894E01"/>
</radialGradient>
<radialGradient id="paint36_radial_0_3593" cx="0" cy="0" r="1" gradientUnits="userSpaceOnUse" gradientTransform="translate(30.0838 30.8569) rotate(134.874) scale(2.02618 2.2659)">
<stop stop-color="#FFE549"/>
<stop offset="0.813629" stop-color="#FEAE1B"/>
</radialGradient>
<radialGradient id="paint37_radial_0_3593" cx="0" cy="0" r="1" gradientUnits="userSpaceOnUse" gradientTransform="translate(10.09 32.2813) scale(2.27793 7.16898)">
<stop offset="0.213333" stop-color="#DF9A32"/>
<stop offset="1" stop-color="#B36C17"/>
</radialGradient>
<linearGradient id="paint38_linear_0_3593" x1="28.3633" y1="32.5291" x2="22.1089" y2="32.5291" gradientUnits="userSpaceOnUse">
<stop stop-color="#E9266F"/>
<stop offset="1" stop-color="#BF1B74"/>
</linearGradient>
<linearGradient id="paint39_linear_0_3593" x1="11.8809" y1="30.7787" x2="12.4929" y2="30.7787" gradientUnits="userSpaceOnUse">
<stop stop-color="#6D6670"/>
<stop offset="1" stop-color="#6D6670" stop-opacity="0"/>
</linearGradient>
<linearGradient id="paint40_linear_0_3593" x1="15.0037" y1="37.1508" x2="9.37472" y2="37.1508" gradientUnits="userSpaceOnUse">
<stop stop-color="#FFD743"/>
<stop offset="1" stop-color="#F19E2D"/>
</linearGradient>
<linearGradient id="paint41_linear_0_3593" x1="29.2558" y1="36.5676" x2="23.8028" y2="36.5676" gradientUnits="userSpaceOnUse">
<stop stop-color="#FFE243"/>
<stop offset="1" stop-color="#FFAB30"/>
</linearGradient>
<linearGradient id="paint42_linear_0_3593" x1="12.5486" y1="28.4457" x2="28.0923" y2="28.4457" gradientUnits="userSpaceOnUse">
<stop stop-color="#564567"/>
<stop offset="1" stop-color="#564567"/>
</linearGradient>
<linearGradient id="paint43_linear_0_3593" x1="20.5805" y1="27.0997" x2="20.5805" y2="28.7823" gradientUnits="userSpaceOnUse">
<stop stop-color="#DCD5E1"/>
<stop offset="1" stop-color="#B2ACB9"/>
</linearGradient>
<linearGradient id="paint44_linear_0_3593" x1="nan" y1="nan" x2="nan" y2="nan" gradientUnits="userSpaceOnUse">
<stop stop-color="#D27619"/>
<stop offset="1" stop-color="#D27619" stop-opacity="0"/>
</linearGradient>
<linearGradient id="paint45_linear_0_3593" x1="nan" y1="nan" x2="nan" y2="nan" gradientUnits="userSpaceOnUse">
<stop stop-color="#FFB60A"/>
<stop offset="1" stop-color="#FFB60A" stop-opacity="0"/>
</linearGradient>
<linearGradient id="paint46_linear_0_3593" x1="nan" y1="nan" x2="nan" y2="nan" gradientUnits="userSpaceOnUse">
<stop stop-color="#D27619"/>
<stop offset="1" stop-color="#D27619" stop-opacity="0"/>
</linearGradient>
<linearGradient id="paint47_linear_0_3593" x1="nan" y1="nan" x2="nan" y2="nan" gradientUnits="userSpaceOnUse">
<stop stop-color="#FFB60A"/>
<stop offset="1" stop-color="#FFB60A" stop-opacity="0"/>
</linearGradient>
<linearGradient id="paint48_linear_0_3593" x1="nan" y1="nan" x2="nan" y2="nan" gradientUnits="userSpaceOnUse">
<stop stop-color="#D27619"/>
<stop offset="1" stop-color="#D27619" stop-opacity="0"/>
</linearGradient>
<linearGradient id="paint49_linear_0_3593" x1="nan" y1="nan" x2="nan" y2="nan" gradientUnits="userSpaceOnUse">
<stop stop-color="#FFB60A"/>
<stop offset="1" stop-color="#FFB60A" stop-opacity="0"/>
</linearGradient>
<linearGradient id="paint50_linear_0_3593" x1="10.9668" y1="12.428" x2="15.2165" y2="12.428" gradientUnits="userSpaceOnUse">
<stop stop-color="#E79B27"/>
<stop offset="1" stop-color="#B96201"/>
</linearGradient>
<radialGradient id="paint51_radial_0_3593" cx="0" cy="0" r="1" gradientUnits="userSpaceOnUse" gradientTransform="translate(25.8085 12.9357) rotate(-24.5391) scale(3.92931 4.81137)">
<stop offset="0.572298" stop-color="#FFC531"/>
<stop offset="0.904617" stop-color="#FFE549"/>
</radialGradient>
<radialGradient id="paint52_radial_0_3593" cx="0" cy="0" r="1" gradientUnits="userSpaceOnUse" gradientTransform="translate(26.602 12.6448) rotate(-20.3797) scale(1.87444 1.88071)">
<stop offset="0.71002" stop-color="#FFBA25" stop-opacity="0"/>
<stop offset="1" stop-color="#FFBA25"/>
</radialGradient>
<radialGradient id="paint53_radial_0_3593" cx="0" cy="0" r="1" gradientUnits="userSpaceOnUse" gradientTransform="translate(13.3062 12.3015) rotate(180) scale(1.54247 1.48198)">
<stop offset="0.415002" stop-color="#D67923" stop-opacity="0"/>
<stop offset="1" stop-color="#D67923"/>
</radialGradient>
<radialGradient id="paint54_radial_0_3593" cx="0" cy="0" r="1" gradientUnits="userSpaceOnUse" gradientTransform="translate(24.1128 11.528) rotate(155.148) scale(10.2926 13.8158)">
<stop stop-color="#FFE644"/>
<stop offset="1" stop-color="#EB9235"/>
</radialGradient>
<radialGradient id="paint55_radial_0_3593" cx="0" cy="0" r="1" gradientUnits="userSpaceOnUse" gradientTransform="translate(22.7357 12.534) rotate(152.02) scale(3.43071 2.9179)">
<stop stop-color="#FFE842"/>
<stop offset="1" stop-color="#FFE842" stop-opacity="0"/>
</radialGradient>
<radialGradient id="paint56_radial_0_3593" cx="0" cy="0" r="1" gradientUnits="userSpaceOnUse" gradientTransform="translate(16.8767 21.3111) rotate(-78.3605) scale(5.95712 7.52801)">
<stop stop-color="#E4883F"/>
<stop offset="1" stop-color="#E4883F" stop-opacity="0"/>
</radialGradient>
<radialGradient id="paint57_radial_0_3593" cx="0" cy="0" r="1" gradientUnits="userSpaceOnUse" gradientTransform="translate(19.6309 10.8304) rotate(90) scale(10.7322 16.9708)">
<stop offset="0.592664" stop-color="#F3943B" stop-opacity="0"/>
<stop offset="1" stop-color="#D97C39"/>
</radialGradient>
<radialGradient id="paint58_radial_0_3593" cx="0" cy="0" r="1" gradientUnits="userSpaceOnUse" gradientTransform="translate(20.9078 13.9172) rotate(164.477) scale(8.08187 13.967)">
<stop offset="0.876514" stop-color="#D4993E" stop-opacity="0"/>
<stop offset="1" stop-color="#D4993E"/>
</radialGradient>
<radialGradient id="paint59_radial_0_3593" cx="0" cy="0" r="1" gradientUnits="userSpaceOnUse" gradientTransform="translate(23.3117 10.9245) rotate(-90) scale(1.65985 2.02814)">
<stop stop-color="#FFBB31"/>
<stop offset="1" stop-color="#FFBB31" stop-opacity="0"/>
</radialGradient>
<radialGradient id="paint60_radial_0_3593" cx="0" cy="0" r="1" gradientUnits="userSpaceOnUse" gradientTransform="translate(17.2522 11.0502) rotate(-90) scale(1.96164 2.23831)">
<stop stop-color="#F09429"/>
<stop offset="1" stop-color="#F09429" stop-opacity="0"/>
</radialGradient>
<radialGradient id="paint61_radial_0_3593" cx="0" cy="0" r="1" gradientUnits="userSpaceOnUse" gradientTransform="translate(27.3242 13.0688) rotate(180) scale(1.93429 6.39581)">
<stop stop-color="#FFDA39"/>
<stop offset="1" stop-color="#FFDA39" stop-opacity="0"/>
</radialGradient>
<linearGradient id="paint62_linear_0_3593" x1="20.0062" y1="15.2406" x2="20.0062" y2="11.3723" gradientUnits="userSpaceOnUse">
<stop stop-color="#FFC134"/>
<stop offset="1" stop-color="#F8C73F"/>
</linearGradient>
<radialGradient id="paint63_radial_0_3593" cx="0" cy="0" r="1" gradientUnits="userSpaceOnUse" gradientTransform="translate(21.1325 14.1157) rotate(-105.826) scale(3.67266 2.0937)">
<stop offset="0.0168227" stop-color="#FFE848"/>
<stop offset="1" stop-color="#FFE848" stop-opacity="0"/>
</radialGradient>
<linearGradient id="paint64_linear_0_3593" x1="18.5035" y1="14.1408" x2="19.7306" y2="14.2904" gradientUnits="userSpaceOnUse">
<stop stop-color="#F8A322"/>
<stop offset="1" stop-color="#F8A322" stop-opacity="0"/>
</linearGradient>
<linearGradient id="paint65_linear_0_3593" x1="20.0062" y1="15.3733" x2="20.0062" y2="14.4931" gradientUnits="userSpaceOnUse">
<stop stop-color="#E48538"/>
<stop offset="1" stop-color="#E48538" stop-opacity="0"/>
</linearGradient>
<linearGradient id="paint66_linear_0_3593" x1="20.1185" y1="15.3351" x2="20.1185" y2="15.1339" gradientUnits="userSpaceOnUse">
<stop stop-color="#E2802F"/>
<stop offset="1" stop-color="#E2802F" stop-opacity="0"/>
</linearGradient>
<radialGradient id="paint67_radial_0_3593" cx="0" cy="0" r="1" gradientUnits="userSpaceOnUse" gradientTransform="translate(20.4189 13.5998) rotate(144.343) scale(2.26499 3.0381)">
<stop offset="0.797297" stop-color="#E2802F" stop-opacity="0"/>
<stop offset="1" stop-color="#E2802F"/>
</radialGradient>
<linearGradient id="paint68_linear_0_3593" x1="18.96" y1="17.5032" x2="19.6144" y2="16.2484" gradientUnits="userSpaceOnUse">
<stop stop-color="#FEAC35"/>
<stop offset="1" stop-color="#FEAC35" stop-opacity="0"/>
</linearGradient>
<radialGradient id="paint69_radial_0_3593" cx="0" cy="0" r="1" gradientUnits="userSpaceOnUse" gradientTransform="translate(23.1399 11.4402) rotate(90) scale(1.17023 1.85321)">
<stop offset="0.80198" stop-color="#925C51"/>
<stop offset="1" stop-color="#85534D"/>
</radialGradient>
<radialGradient id="paint70_radial_0_3593" cx="0" cy="0" r="1" gradientUnits="userSpaceOnUse" gradientTransform="translate(22.8124 11.5627) rotate(-127.69) scale(0.543734 0.747768)">
<stop offset="0.765532" stop-color="#FFE6E2" stop-opacity="0"/>
<stop offset="0.966159" stop-color="#FFE6E2"/>
</radialGradient>
<linearGradient id="paint71_linear_0_3593" x1="24.257" y1="11.5155" x2="23.8062" y2="11.792" gradientUnits="userSpaceOnUse">
<stop stop-color="#B4948D"/>
<stop offset="1" stop-color="#B4948D" stop-opacity="0"/>
</linearGradient>
<radialGradient id="paint72_radial_0_3593" cx="0" cy="0" r="1" gradientUnits="userSpaceOnUse" gradientTransform="translate(16.8724 11.4402) rotate(90) scale(1.17023 1.85322)">
<stop offset="0.80198" stop-color="#925C51"/>
<stop offset="1" stop-color="#85534D"/>
</radialGradient>
<linearGradient id="paint73_linear_0_3593" x1="17.94" y1="11.5172" x2="17.4892" y2="11.7938" gradientUnits="userSpaceOnUse">
<stop stop-color="#B4948D"/>
<stop offset="1" stop-color="#B4948D" stop-opacity="0"/>
</linearGradient>
<radialGradient id="paint74_radial_0_3593" cx="0" cy="0" r="1" gradientUnits="userSpaceOnUse" gradientTransform="translate(16.6754 11.7124) rotate(-118.705) scale(0.710679 0.852249)">
<stop offset="0.765532" stop-color="#FFE6E2" stop-opacity="0"/>
<stop offset="0.966159" stop-color="#FFE6E2"/>
</radialGradient>
<radialGradient id="paint75_radial_0_3593" cx="0" cy="0" r="1" gradientUnits="userSpaceOnUse" gradientTransform="translate(16.1074 2.27374) rotate(129.43) scale(7.73111 3.36894)">
<stop offset="0.395696" stop-color="#EE971B" stop-opacity="0"/>
<stop offset="0.911046" stop-color="#D8772C"/>
</radialGradient>
<radialGradient id="paint76_radial_0_3593" cx="0" cy="0" r="1" gradientUnits="userSpaceOnUse" gradientTransform="translate(15.9069 3.0632) rotate(144.339) scale(5.48412 2.71417)">
<stop offset="0.120488" stop-color="#FFCA2D"/>
<stop offset="1" stop-color="#FFCA2D" stop-opacity="0"/>
</radialGradient>
<radialGradient id="paint77_radial_0_3593" cx="0" cy="0" r="1" gradientUnits="userSpaceOnUse" gradientTransform="translate(22.5788 0.582359) rotate(115.532) scale(7.28114 10.3095)">
<stop offset="0.627022" stop-color="#F49523" stop-opacity="0"/>
<stop offset="1" stop-color="#F49523"/>
</radialGradient>
<radialGradient id="paint78_radial_0_3593" cx="0" cy="0" r="1" gradientUnits="userSpaceOnUse" gradientTransform="translate(23.6091 2.39009) rotate(105.843) scale(4.9602 10.3562)">
<stop offset="0.131886" stop-color="#FFE337"/>
<stop offset="1" stop-color="#FFE337" stop-opacity="0"/>
</radialGradient>
<radialGradient id="paint79_radial_0_3593" cx="0" cy="0" r="1" gradientUnits="userSpaceOnUse" gradientTransform="translate(21.6573 10.5127) rotate(-117.744) scale(10.5403 9.39896)">
<stop offset="0.897563" stop-color="#CA9B37" stop-opacity="0"/>
<stop offset="1" stop-color="#CA9B37"/>
</radialGradient>
<linearGradient id="paint80_linear_0_3593" x1="15.8535" y1="3.36153" x2="16.6418" y2="5.1964" gradientUnits="userSpaceOnUse">
<stop stop-color="#FAA719"/>
<stop offset="1" stop-color="#DB6008"/>
</linearGradient>
<linearGradient id="paint81_linear_0_3593" x1="29.9152" y1="7.05571" x2="20.0794" y2="16.8483" gradientUnits="userSpaceOnUse">
<stop stop-color="#52336D"/>
<stop offset="1" stop-color="#3C2850"/>
</linearGradient>
<radialGradient id="paint82_radial_0_3593" cx="0" cy="0" r="1" gradientUnits="userSpaceOnUse" gradientTransform="translate(13.3966 11.5431) scale(1.29556 3.9038)">
<stop stop-color="#52396B"/>
<stop offset="1" stop-color="#52396B" stop-opacity="0"/>
</radialGradient>
</defs>
</svg>
