<svg width="40" height="40" viewBox="0 0 40 40" fill="none" xmlns="http://www.w3.org/2000/svg">
<g id="Clip path group">
<mask id="mask0_0_4000" style="mask-type:luminance" maskUnits="userSpaceOnUse" x="0" y="0" width="40" height="40">
<g id="F">
<path id="Vector" d="M0 0H40V40H0V0Z" fill="white"/>
</g>
</mask>
<g mask="url(#mask0_0_4000)">
<g id="Group">
<path id="Vector_2" d="M13.2272 17.1446C14.7278 16.5922 16.1868 18.0512 15.6345 19.5519L12.361 28.4449C12.0458 29.3011 10.9492 29.5421 10.3041 28.8969L3.8822 22.475C3.23704 21.8299 3.47805 20.7332 4.33427 20.4181L13.2272 17.1446Z" fill="url(#paint0_linear_0_4000)"/>
<path id="Vector_3" d="M13.2272 17.1446C14.7278 16.5922 16.1868 18.0512 15.6345 19.5519L12.361 28.4449C12.0458 29.3011 10.9492 29.5421 10.3041 28.8969L3.8822 22.475C3.23704 21.8299 3.47805 20.7332 4.33427 20.4181L13.2272 17.1446Z" fill="url(#paint1_radial_0_4000)"/>
<path id="Vector_4" d="M13.2272 17.1446C14.7278 16.5922 16.1868 18.0512 15.6345 19.5519L12.361 28.4449C12.0458 29.3011 10.9492 29.5421 10.3041 28.8969L3.8822 22.475C3.23704 21.8299 3.47805 20.7332 4.33427 20.4181L13.2272 17.1446Z" fill="url(#paint2_linear_0_4000)"/>
<path id="Vector_5" d="M20.7272 24.6448C22.2278 24.0924 23.6868 25.5514 23.1345 27.052L19.861 35.945C19.5458 36.8013 18.4492 37.0423 17.8041 36.397L11.3822 29.9752C10.737 29.33 10.978 28.2334 11.8343 27.9183L20.7272 24.6448Z" fill="url(#paint3_linear_0_4000)"/>
<path id="Vector_6" d="M20.7272 24.6448C22.2278 24.0924 23.6868 25.5514 23.1345 27.052L19.861 35.945C19.5458 36.8013 18.4492 37.0423 17.8041 36.397L11.3822 29.9752C10.737 29.33 10.978 28.2334 11.8343 27.9183L20.7272 24.6448Z" fill="url(#paint4_radial_0_4000)"/>
<path id="Vector_7" d="M20.7272 24.6448C22.2278 24.0924 23.6868 25.5514 23.1345 27.052L19.861 35.945C19.5458 36.8013 18.4492 37.0423 17.8041 36.397L11.3822 29.9752C10.737 29.33 10.978 28.2334 11.8343 27.9183L20.7272 24.6448Z" fill="url(#paint5_radial_0_4000)"/>
<g id="Group_2">
<path id="Vector_8" d="M27.9978 4.4369C28.0676 4.40845 28.1475 4.42505 28.2008 4.47865L35.5581 11.8915C35.611 11.9448 35.6271 12.0242 35.5989 12.0937C33.8372 16.418 31.4081 21.018 28.1558 24.2705C24.9885 27.4376 19.6314 30.1371 14.7943 32.1221L7.92969 25.2576C9.91471 20.4205 12.6142 15.0634 15.7814 11.8961C19.0438 8.63372 23.6619 6.19991 27.9978 4.4369Z" fill="url(#paint6_linear_0_4000)"/>
<path id="Vector_9" d="M27.9978 4.4369C28.0676 4.40845 28.1475 4.42505 28.2008 4.47865L35.5581 11.8915C35.611 11.9448 35.6271 12.0242 35.5989 12.0937C33.8372 16.418 31.4081 21.018 28.1558 24.2705C24.9885 27.4376 19.6314 30.1371 14.7943 32.1221L7.92969 25.2576C9.91471 20.4205 12.6142 15.0634 15.7814 11.8961C19.0438 8.63372 23.6619 6.19991 27.9978 4.4369Z" fill="url(#paint7_radial_0_4000)"/>
<path id="Vector_10" d="M27.9978 4.4369C28.0676 4.40845 28.1475 4.42505 28.2008 4.47865L35.5581 11.8915C35.611 11.9448 35.6271 12.0242 35.5989 12.0937C33.8372 16.418 31.4081 21.018 28.1558 24.2705C24.9885 27.4376 19.6314 30.1371 14.7943 32.1221L7.92969 25.2576C9.91471 20.4205 12.6142 15.0634 15.7814 11.8961C19.0438 8.63372 23.6619 6.19991 27.9978 4.4369Z" fill="url(#paint8_radial_0_4000)"/>
<path id="Vector_11" d="M27.9978 4.4369C28.0676 4.40845 28.1475 4.42505 28.2008 4.47865L35.5581 11.8915C35.611 11.9448 35.6271 12.0242 35.5989 12.0937C33.8372 16.418 31.4081 21.018 28.1558 24.2705C24.9885 27.4376 19.6314 30.1371 14.7943 32.1221L7.92969 25.2576C9.91471 20.4205 12.6142 15.0634 15.7814 11.8961C19.0438 8.63372 23.6619 6.19991 27.9978 4.4369Z" fill="url(#paint9_radial_0_4000)"/>
<path id="Vector_12" d="M27.9978 4.4369C28.0676 4.40845 28.1475 4.42505 28.2008 4.47865L35.5581 11.8915C35.611 11.9448 35.6271 12.0242 35.5989 12.0937C33.8372 16.418 31.4081 21.018 28.1558 24.2705C24.9885 27.4376 19.6314 30.1371 14.7943 32.1221L7.92969 25.2576C9.91471 20.4205 12.6142 15.0634 15.7814 11.8961C19.0438 8.63372 23.6619 6.19991 27.9978 4.4369Z" fill="url(#paint10_radial_0_4000)"/>
</g>
<g id="Group_3">
<path id="Vector_13" d="M30.6249 13.8272C30.6249 16.1463 28.7449 18.0264 26.4257 18.0264C24.1066 18.0264 22.2266 16.1463 22.2266 13.8272C22.2266 11.508 24.1066 9.62793 26.4257 9.62793C28.7449 9.62793 30.6249 11.508 30.6249 13.8272Z" fill="url(#paint11_linear_0_4000)"/>
<path id="Vector_14" d="M30.6249 13.8272C30.6249 16.1463 28.7449 18.0264 26.4257 18.0264C24.1066 18.0264 22.2266 16.1463 22.2266 13.8272C22.2266 11.508 24.1066 9.62793 26.4257 9.62793C28.7449 9.62793 30.6249 11.508 30.6249 13.8272Z" fill="url(#paint12_radial_0_4000)"/>
</g>
<path id="Vector_15" d="M29.332 13.8264C29.332 15.432 28.0303 16.7335 26.4247 16.7335C24.8192 16.7335 23.5176 15.432 23.5176 13.8264C23.5176 12.2208 24.8192 10.9193 26.4247 10.9193C28.0303 10.9193 29.332 12.2208 29.332 13.8264Z" fill="url(#paint13_radial_0_4000)"/>
<g id="Group_4">
<path id="Vector_16" d="M3.02912 36.9156C2.14524 36.0317 2.49984 29.902 5.62481 28.652C5.62481 28.652 8.74981 27.402 10.7636 29.4027C12.7773 31.4035 11.8748 33.652 11.8748 33.652C10.991 36.3036 7.22801 37.3576 6.78609 36.9157C6.54201 36.6716 6.98154 36.2272 6.7861 36.0318C6.59066 35.8363 6.2889 36.0595 5.46027 36.4737C4.87103 36.7683 3.38267 37.2692 3.02912 36.9156Z" fill="url(#paint14_radial_0_4000)"/>
<path id="Vector_17" d="M3.02912 36.9156C2.14524 36.0317 2.49984 29.902 5.62481 28.652C5.62481 28.652 8.74981 27.402 10.7636 29.4027C12.7773 31.4035 11.8748 33.652 11.8748 33.652C10.991 36.3036 7.22801 37.3576 6.78609 36.9157C6.54201 36.6716 6.98154 36.2272 6.7861 36.0318C6.59066 35.8363 6.2889 36.0595 5.46027 36.4737C4.87103 36.7683 3.38267 37.2692 3.02912 36.9156Z" fill="url(#paint15_radial_0_4000)"/>
</g>
<path id="Vector_18" d="M7.57651 26.2268C8.30875 25.4945 9.49594 25.4945 10.2282 26.2268L14.6476 30.6462C15.3798 31.3784 15.3798 32.5657 14.6476 33.2979C13.9153 34.0302 12.7282 34.0302 11.9959 33.2979L7.57651 28.8784C6.84429 28.1462 6.84429 26.959 7.57651 26.2268Z" fill="url(#paint16_linear_0_4000)"/>
<path id="Vector_19" d="M7.57651 26.2268C8.30875 25.4945 9.49594 25.4945 10.2282 26.2268L14.6476 30.6462C15.3798 31.3784 15.3798 32.5657 14.6476 33.2979C13.9153 34.0302 12.7282 34.0302 11.9959 33.2979L7.57651 28.8784C6.84429 28.1462 6.84429 26.959 7.57651 26.2268Z" fill="url(#paint17_radial_0_4000)"/>
<path id="Vector_20" d="M7.57651 26.2268C8.30875 25.4945 9.49594 25.4945 10.2282 26.2268L14.6476 30.6462C15.3798 31.3784 15.3798 32.5657 14.6476 33.2979C13.9153 34.0302 12.7282 34.0302 11.9959 33.2979L7.57651 28.8784C6.84429 28.1462 6.84429 26.959 7.57651 26.2268Z" fill="url(#paint18_radial_0_4000)"/>
<path id="Vector_21" d="M36.4648 3.58763C35.2809 2.40377 33.2048 2.53778 31.6918 3.05732C30.6056 3.43033 29.4639 3.84872 28.2991 4.31558C28.2161 4.34882 28.1941 4.45591 28.2571 4.51932L35.5183 11.8304C35.5814 11.894 35.6892 11.8723 35.7226 11.7891C36.1952 10.6118 36.6183 9.45798 36.9952 8.36062C37.5077 6.86788 37.9199 5.04278 36.4648 3.58763Z" fill="url(#paint19_linear_0_4000)"/>
<path id="Vector_22" d="M36.4648 3.58763C35.2809 2.40377 33.2048 2.53778 31.6918 3.05732C30.6056 3.43033 29.4639 3.84872 28.2991 4.31558C28.2161 4.34882 28.1941 4.45591 28.2571 4.51932L35.5183 11.8304C35.5814 11.894 35.6892 11.8723 35.7226 11.7891C36.1952 10.6118 36.6183 9.45798 36.9952 8.36062C37.5077 6.86788 37.9199 5.04278 36.4648 3.58763Z" fill="url(#paint20_radial_0_4000)"/>
<path id="Vector_23" d="M36.4648 3.58763C35.2809 2.40377 33.2048 2.53778 31.6918 3.05732C30.6056 3.43033 29.4639 3.84872 28.2991 4.31558C28.2161 4.34882 28.1941 4.45591 28.2571 4.51932L35.5183 11.8304C35.5814 11.894 35.6892 11.8723 35.7226 11.7891C36.1952 10.6118 36.6183 9.45798 36.9952 8.36062C37.5077 6.86788 37.9199 5.04278 36.4648 3.58763Z" fill="url(#paint21_linear_0_4000)"/>
<path id="Vector_24" d="M16.9772 20.8951C18.4778 20.3427 19.9368 21.8017 19.3845 23.3024L16.111 32.1954C15.7958 33.0516 14.6992 33.2926 14.0541 32.6474L7.6322 26.2255C6.98704 25.5804 7.22805 24.4837 8.08427 24.1686L16.9772 20.8951Z" fill="url(#paint22_linear_0_4000)"/>
<path id="Vector_25" d="M16.9772 20.8951C18.4778 20.3427 19.9368 21.8017 19.3845 23.3024L16.111 32.1954C15.7958 33.0516 14.6992 33.2926 14.0541 32.6474L7.6322 26.2255C6.98704 25.5804 7.22805 24.4837 8.08427 24.1686L16.9772 20.8951Z" fill="url(#paint23_radial_0_4000)"/>
<path id="Vector_26" d="M16.9772 20.8951C18.4778 20.3427 19.9368 21.8017 19.3845 23.3024L16.111 32.1954C15.7958 33.0516 14.6992 33.2926 14.0541 32.6474L7.6322 26.2255C6.98704 25.5804 7.22805 24.4837 8.08427 24.1686L16.9772 20.8951Z" fill="url(#paint24_radial_0_4000)"/>
<path id="Vector_27" d="M16.9772 20.8951C18.4778 20.3427 19.9368 21.8017 19.3845 23.3024L16.111 32.1954C15.7958 33.0516 14.6992 33.2926 14.0541 32.6474L7.6322 26.2255C6.98704 25.5804 7.22805 24.4837 8.08427 24.1686L16.9772 20.8951Z" fill="url(#paint25_radial_0_4000)"/>
<g id="Group_5">
<path id="Vector_28" d="M11.5059 27.5572L18.5372 22.0493L14.0059 30.0962L11.5059 27.5572Z" fill="url(#paint26_linear_0_4000)"/>
</g>
</g>
</g>
</g>
<defs>
<linearGradient id="paint0_linear_0_4000" x1="10.139" y1="21.6321" x2="3.88896" y2="20.6026" gradientUnits="userSpaceOnUse">
<stop stop-color="#EE2452"/>
<stop offset="1" stop-color="#F63E7A"/>
</linearGradient>
<radialGradient id="paint1_radial_0_4000" cx="0" cy="0" r="1" gradientUnits="userSpaceOnUse" gradientTransform="translate(2.99727 21.3261) rotate(-19.9576) scale(10.0021 1.70056)">
<stop offset="0.163866" stop-color="#FF8DB0"/>
<stop offset="1" stop-color="#FF8DB0" stop-opacity="0"/>
</radialGradient>
<linearGradient id="paint2_linear_0_4000" x1="6.13129" y1="24.6637" x2="7.15037" y2="23.6701" gradientUnits="userSpaceOnUse">
<stop offset="0.491189" stop-color="#DD467C"/>
<stop offset="1" stop-color="#DD467C" stop-opacity="0"/>
</linearGradient>
<linearGradient id="paint3_linear_0_4000" x1="22.3655" y1="27.0872" x2="14.5931" y2="33.1862" gradientUnits="userSpaceOnUse">
<stop stop-color="#F83267"/>
<stop offset="1" stop-color="#FF3190"/>
</linearGradient>
<radialGradient id="paint4_radial_0_4000" cx="0" cy="0" r="1" gradientUnits="userSpaceOnUse" gradientTransform="translate(18.2248 27.7512) rotate(86.482) scale(9.54884 8.23257)">
<stop offset="0.756562" stop-color="#E76CBE" stop-opacity="0"/>
<stop offset="0.951296" stop-color="#E76CBE"/>
</radialGradient>
<radialGradient id="paint5_radial_0_4000" cx="0" cy="0" r="1" gradientUnits="userSpaceOnUse" gradientTransform="translate(16.8186 32.7903) rotate(-57.3464) scale(6.58814 2.89384)">
<stop stop-color="#FF5898"/>
<stop offset="1" stop-color="#FF5898" stop-opacity="0"/>
</radialGradient>
<linearGradient id="paint6_linear_0_4000" x1="16.8563" y1="10.8379" x2="27.8719" y2="21.9316" gradientUnits="userSpaceOnUse">
<stop stop-color="#CCBBC0"/>
<stop offset="1" stop-color="#EAD2EC"/>
</linearGradient>
<radialGradient id="paint7_radial_0_4000" cx="0" cy="0" r="1" gradientUnits="userSpaceOnUse" gradientTransform="translate(29.9607 26.9696) rotate(-142.447) scale(20.8461 39.1854)">
<stop offset="0.811143" stop-color="#E7E5E5" stop-opacity="0"/>
<stop offset="1" stop-color="#E7E5E5"/>
</radialGradient>
<radialGradient id="paint8_radial_0_4000" cx="0" cy="0" r="1" gradientUnits="userSpaceOnUse" gradientTransform="translate(11.4756 26.6352) rotate(-56.9293) scale(12.2548 5.75963)">
<stop offset="0.281006" stop-color="#B5A3A5"/>
<stop offset="1" stop-color="#B5A3A5" stop-opacity="0"/>
</radialGradient>
<radialGradient id="paint9_radial_0_4000" cx="0" cy="0" r="1" gradientUnits="userSpaceOnUse" gradientTransform="translate(7.92969 25.112) rotate(-73.625) scale(10.864 1.84087)">
<stop offset="0.207885" stop-color="#B28F96"/>
<stop offset="1" stop-color="#B28F96" stop-opacity="0"/>
</radialGradient>
<radialGradient id="paint10_radial_0_4000" cx="0" cy="0" r="1" gradientUnits="userSpaceOnUse" gradientTransform="translate(33.8875 8.88475) rotate(137.284) scale(16.4687 5.11336)">
<stop stop-color="#FAECF1"/>
<stop offset="1" stop-color="#FAECF1" stop-opacity="0"/>
</radialGradient>
<linearGradient id="paint11_linear_0_4000" x1="22.2266" y1="13.1133" x2="30.6249" y2="13.8272" gradientUnits="userSpaceOnUse">
<stop stop-color="#A796A0"/>
<stop offset="1" stop-color="#A5959F"/>
</linearGradient>
<radialGradient id="paint12_radial_0_4000" cx="0" cy="0" r="1" gradientUnits="userSpaceOnUse" gradientTransform="translate(26.4257 13.8272) rotate(90) scale(4.19922)">
<stop offset="0.586538" stop-color="#93859B"/>
<stop offset="1" stop-color="#93859B" stop-opacity="0"/>
</radialGradient>
<radialGradient id="paint13_radial_0_4000" cx="0" cy="0" r="1" gradientUnits="userSpaceOnUse" gradientTransform="translate(26.4247 16.7335) rotate(-90) scale(6.05699 5.57033)">
<stop stop-color="#72CDFF"/>
<stop offset="0.738019" stop-color="#66ACFF"/>
<stop offset="1" stop-color="#3B57F4"/>
</radialGradient>
<radialGradient id="paint14_radial_0_4000" cx="0" cy="0" r="1" gradientUnits="userSpaceOnUse" gradientTransform="translate(10.2387 30.3071) rotate(135) scale(7.25806 5.70501)">
<stop stop-color="#D46213"/>
<stop offset="1" stop-color="#FF9542"/>
</radialGradient>
<radialGradient id="paint15_radial_0_4000" cx="0" cy="0" r="1" gradientUnits="userSpaceOnUse" gradientTransform="translate(10.3793 36.2127) rotate(-131.186) scale(8.96816 9.45095)">
<stop offset="0.870944" stop-color="#FFC484" stop-opacity="0"/>
<stop offset="1" stop-color="#FFC484"/>
</radialGradient>
<linearGradient id="paint16_linear_0_4000" x1="7.2487" y1="27.44" x2="14.1237" y2="34.1979" gradientUnits="userSpaceOnUse">
<stop stop-color="#452860"/>
<stop offset="1" stop-color="#51509F"/>
</linearGradient>
<radialGradient id="paint17_radial_0_4000" cx="0" cy="0" r="1" gradientUnits="userSpaceOnUse" gradientTransform="translate(8.53776 26.815) rotate(77.8285) scale(2.038 1.80062)">
<stop stop-color="#8E839A"/>
<stop offset="1" stop-color="#8E839A" stop-opacity="0"/>
</radialGradient>
<radialGradient id="paint18_radial_0_4000" cx="0" cy="0" r="1" gradientUnits="userSpaceOnUse" gradientTransform="translate(9.00929 28.0212) rotate(47.9357) scale(7.76537 4.07046)">
<stop offset="0.860492" stop-color="#6175B9" stop-opacity="0"/>
<stop offset="1" stop-color="#6175B9"/>
</radialGradient>
<linearGradient id="paint19_linear_0_4000" x1="36.4703" y1="3.59311" x2="31.8752" y2="8.18822" gradientUnits="userSpaceOnUse">
<stop stop-color="#FF3745"/>
<stop offset="1" stop-color="#ED224B"/>
</linearGradient>
<radialGradient id="paint20_radial_0_4000" cx="0" cy="0" r="1" gradientUnits="userSpaceOnUse" gradientTransform="translate(35.9226 5.43256) rotate(135) scale(10.3085 2.47462)">
<stop offset="0.189394" stop-color="#FF5971"/>
<stop offset="1" stop-color="#FF5971" stop-opacity="0"/>
</radialGradient>
<linearGradient id="paint21_linear_0_4000" x1="32.2767" y1="8.49423" x2="32.7357" y2="8.01572" gradientUnits="userSpaceOnUse">
<stop stop-color="#D2575E"/>
<stop offset="1" stop-color="#F93251" stop-opacity="0"/>
</linearGradient>
<linearGradient id="paint22_linear_0_4000" x1="18.9507" y1="21.3289" x2="10.8431" y2="29.4365" gradientUnits="userSpaceOnUse">
<stop stop-color="#FF2644"/>
<stop offset="1" stop-color="#FF2982"/>
</linearGradient>
<radialGradient id="paint23_radial_0_4000" cx="0" cy="0" r="1" gradientUnits="userSpaceOnUse" gradientTransform="translate(7.79521 24.275) rotate(-20.8651) scale(9.32228 2.44049)">
<stop stop-color="#FF95AF"/>
<stop offset="1" stop-color="#FF95AF" stop-opacity="0"/>
</radialGradient>
<radialGradient id="paint24_radial_0_4000" cx="0" cy="0" r="1" gradientUnits="userSpaceOnUse" gradientTransform="translate(6.74727 25.3826) rotate(44.7044) scale(5.76276 1.70227)">
<stop offset="0.381871" stop-color="#E14678"/>
<stop offset="1" stop-color="#E14678" stop-opacity="0"/>
</radialGradient>
<radialGradient id="paint25_radial_0_4000" cx="0" cy="0" r="1" gradientUnits="userSpaceOnUse" gradientTransform="translate(14.4748 23.9234) rotate(84.6743) scale(9.25872 9.86651)">
<stop offset="0.831791" stop-color="#E67BC7" stop-opacity="0"/>
<stop offset="1" stop-color="#E67BC7"/>
</radialGradient>
<linearGradient id="paint26_linear_0_4000" x1="17.4824" y1="22.6353" x2="12.3262" y2="28.0259" gradientUnits="userSpaceOnUse">
<stop stop-color="#FF5970"/>
<stop offset="1" stop-color="#FF5794"/>
</linearGradient>
</defs>
</svg>
